<svg xmlns="http://www.w3.org/2000/svg" xmlns:xlink="http://www.w3.org/1999/xlink" viewBox="0 0 1200 630"><defs><style>.cls-1,.cls-4{fill:none;}.cls-2{fill:#244999;}.cls-3{clip-path:url(#clip-path);}.cls-4{stroke:#fff;stroke-miterlimit:10;stroke-width:2px;}.cls-5{font-size:76.65px;fill:#edc96e;}.cls-5,.cls-9{font-family:Lato-Black, Lato;}.cls-6{letter-spacing:-0.05em;}.cls-7{letter-spacing:-0.07em;}.cls-8{fill:url(#New_Gradient_Swatch_1);}.cls-9{font-size:35.3px;}.cls-14,.cls-9{fill:#fff;}.cls-10{letter-spacing:-0.02em;}.cls-11{letter-spacing:-0.03em;}.cls-12{fill:url(#New_Gradient_Swatch_3);}.cls-13{fill:url(#New_Gradient_Swatch_3-2);}</style><clipPath id="clip-path"><rect class="cls-1" width="1200" height="630"/></clipPath><linearGradient id="New_Gradient_Swatch_1" x1="1034.01" y1="-7734.46" x2="1034.95" y2="-7734.46" gradientTransform="matrix(263.83, 0, 0, -263.83, -272666.57, -2040102)" gradientUnits="userSpaceOnUse"><stop offset="0" stop-color="#ce8b00"/><stop offset="0.52" stop-color="#deae1c"/><stop offset="1" stop-color="#ce8b00"/></linearGradient><linearGradient id="New_Gradient_Swatch_3" x1="286.75" y1="-89" x2="468.08" y2="813.68" gradientUnits="userSpaceOnUse"><stop offset="0" stop-color="#663800"/><stop offset="0.4" stop-color="#ffd373"/><stop offset="1" stop-color="#cea040"/></linearGradient><linearGradient id="New_Gradient_Swatch_3-2" x1="142.82" y1="-60.09" x2="324.15" y2="842.6" xlink:href="#New_Gradient_Swatch_3"/></defs><title>Elegantne_tunnustus_versioon2_ru</title><g id="BG"><rect class="cls-2" width="1200" height="630"/></g><g id="elements"><rect class="cls-2" width="413" height="630"/><g class="cls-3"><path class="cls-4" d="M387.25-637.06c-10.38,87.21,56.17,175.89,164.13,236.15C409-246.34,354.39-64.07,430.8,41.63c92.18,127.51,339.91,95.25,553.33-72s311.7-406.28,219.52-533.79c-17.57-24.3-40.81-42.76-68.37-55.62-52.9-90.41-179-167.53-332.69-192.74C588.92-847.64,403-769.06,387.25-637.06Z"/><path class="cls-4" d="M575.25,756.94c-10.38,87.21,56.17,175.89,164.13,236.15-142.43,154.57-197,336.84-120.58,442.53,92.18,127.51,339.91,95.25,553.33-72s311.7-406.28,219.52-533.79c-17.57-24.3-40.81-42.76-68.37-55.62-52.9-90.41-179-167.53-332.69-192.74C776.92,546.36,591,624.94,575.25,756.94Z"/><path class="cls-4" d="M-813.75,211.94c-10.38,87.21,56.17,175.89,164.13,236.15C-792,602.66-846.61,784.93-770.2,890.63c92.18,127.51,339.91,95.25,553.33-72S94.83,412.29,2.65,284.79c-17.57-24.3-40.81-42.76-68.37-55.62-52.9-90.41-179-167.53-332.69-192.74C-612.08,1.36-798,79.94-813.75,211.94Z"/></g></g><g id="text"><text class="cls-5" transform="translate(510.05 330.84)"><tspan class="cls-6">Р</tspan><tspan x="45" y="0">АННЯЯ</tspan><tspan x="0" y="91.99">П</tspan><tspan class="cls-7" x="57.83" y="91.99">Т</tspan><tspan x="99.23" y="91.99">АШКА</tspan></text><rect class="cls-8" x="138.6" y="469.7" width="248.02" height="57.13" rx="14.98" ry="14.98"/><text class="cls-9" transform="translate(156.37 512.55)">#KULDSÜ<tspan class="cls-10" x="163.26" y="0">D</tspan><tspan class="cls-11" x="189.25" y="0">A</tspan></text><path class="cls-12" d="M387.64,151.37c-28.8-12.25-65.77,1.67-97.16,32.59a297.91,297.91,0,0,1,21.35,43c29.09,72.6,25.66,144.06-4.7,178.64C343.34,396.48,382.3,361,406.25,311,439.56,241.37,431.23,169.91,387.64,151.37Z"/><path class="cls-13" d="M267,403.41c-43.59-18.54-51.92-90-18.61-159.6,11.3-23.62,26-44,42.07-59.85C251.81,119.82,194.9,83,151.12,98.57,98.3,117.38,84.63,205.35,120.57,295s107.9,147.16,160.71,128.35a61.83,61.83,0,0,0,25.85-17.84C293,409.1,279.26,408.62,267,403.41Z"/><path class="cls-14" d="M311.83,226.91a297.91,297.91,0,0,0-21.35-43c-16.12,15.88-30.77,36.23-42.07,59.85-33.31,69.6-25,141.05,18.61,159.6,12.24,5.21,26,5.69,40.11,2.14C337.49,371,340.92,299.52,311.83,226.91Z"/></g></svg>