<?xml version="1.0" encoding="utf-8"?>
<!-- Generator: Adobe Illustrator 22.0.1, SVG Export Plug-In . SVG Version: 6.00 Build 0)  -->
<svg version="1.1" xmlns="http://www.w3.org/2000/svg" xmlns:xlink="http://www.w3.org/1999/xlink" x="0px" y="0px"
	 viewBox="0 0 1200 630" style="enable-background:new 0 0 1200 630;" xml:space="preserve">
<style type="text/css">
	.st0{fill:#244999;}
	.st1{clip-path:url(#SVGID_2_);}
	.st2{fill:url(#SVGID_3_);}
	.st3{fill:url(#SVGID_4_);}
	.st4{fill:#FFFFFF;}
	.st5{clip-path:url(#SVGID_6_);}
	.st6{fill:url(#SVGID_7_);}
	.st7{fill:url(#SVGID_8_);}
	.st8{clip-path:url(#SVGID_10_);}
	.st9{fill:url(#SVGID_11_);}
	.st10{fill:url(#SVGID_12_);}
	.st11{clip-path:url(#SVGID_14_);}
	.st12{fill:url(#SVGID_15_);}
	.st13{fill:url(#SVGID_16_);}
	.st14{clip-path:url(#SVGID_18_);}
	.st15{fill:url(#SVGID_19_);}
	.st16{fill:url(#SVGID_20_);}
	.st17{clip-path:url(#SVGID_22_);}
	.st18{fill:url(#SVGID_23_);}
	.st19{fill:url(#SVGID_24_);}
	.st20{clip-path:url(#SVGID_26_);}
	.st21{fill:url(#SVGID_27_);}
	.st22{fill:url(#SVGID_28_);}
	.st23{clip-path:url(#SVGID_30_);}
	.st24{fill:url(#SVGID_31_);}
	.st25{fill:url(#SVGID_32_);}
	.st26{clip-path:url(#SVGID_34_);}
	.st27{fill:url(#SVGID_35_);}
	.st28{fill:url(#SVGID_36_);}
	.st29{clip-path:url(#SVGID_38_);}
	.st30{fill:url(#SVGID_39_);}
	.st31{fill:url(#SVGID_40_);}
	.st32{clip-path:url(#SVGID_42_);}
	.st33{fill:url(#SVGID_43_);}
	.st34{fill:url(#SVGID_44_);}
	.st35{clip-path:url(#SVGID_46_);}
	.st36{fill:url(#SVGID_47_);}
	.st37{fill:url(#SVGID_48_);}
	.st38{clip-path:url(#SVGID_50_);}
	.st39{fill:url(#SVGID_51_);}
	.st40{fill:url(#SVGID_52_);}
	.st41{clip-path:url(#SVGID_54_);}
	.st42{fill:url(#SVGID_55_);}
	.st43{fill:url(#SVGID_56_);}
	.st44{clip-path:url(#SVGID_58_);}
	.st45{fill:url(#SVGID_59_);}
	.st46{fill:url(#SVGID_60_);}
	.st47{clip-path:url(#SVGID_62_);}
	.st48{fill:url(#SVGID_63_);}
	.st49{fill:url(#SVGID_64_);}
	.st50{clip-path:url(#SVGID_66_);}
	.st51{fill:url(#SVGID_67_);}
	.st52{fill:url(#SVGID_68_);}
	.st53{clip-path:url(#SVGID_70_);}
	.st54{fill:url(#SVGID_71_);}
	.st55{fill:url(#SVGID_72_);}
	.st56{clip-path:url(#SVGID_74_);}
	.st57{fill:url(#SVGID_75_);}
	.st58{fill:url(#SVGID_76_);}
	.st59{clip-path:url(#SVGID_78_);}
	.st60{fill:url(#SVGID_79_);}
	.st61{fill:url(#SVGID_80_);}
	.st62{clip-path:url(#SVGID_82_);}
	.st63{fill:url(#SVGID_83_);}
	.st64{fill:url(#SVGID_84_);}
	.st65{clip-path:url(#SVGID_86_);}
	.st66{fill:url(#SVGID_87_);}
	.st67{fill:url(#SVGID_88_);}
	.st68{fill-rule:evenodd;clip-rule:evenodd;fill:#FFD735;}
	.st69{fill-rule:evenodd;clip-rule:evenodd;fill:#7D5C2A;}
	.st70{fill-rule:evenodd;clip-rule:evenodd;fill:#FF493B;}
	.st71{fill-rule:evenodd;clip-rule:evenodd;fill:#39B54A;}
	.st72{fill-rule:evenodd;clip-rule:evenodd;fill:#FFFFFF;}
	.st73{fill-rule:evenodd;clip-rule:evenodd;fill:#00B8FF;}
	.st74{fill-rule:evenodd;clip-rule:evenodd;fill:#2E91D0;}
	.st75{fill:#7D5C2A;}
	.st76{fill-rule:evenodd;clip-rule:evenodd;fill:#FFA72B;}
</style>
<g id="BG">
	<g>
		<rect class="st0" width="1200" height="630"/>
	</g>
</g>
<g id="elements">
	<g>
		<defs>
			<rect id="SVGID_25_" width="1200" height="630"/>
		</defs>
		<clipPath id="SVGID_2_">
			<use xlink:href="#SVGID_25_"  style="overflow:visible;"/>
		</clipPath>
		<g class="st1">
			<linearGradient id="SVGID_3_" gradientUnits="userSpaceOnUse" x1="814.0913" y1="-579.5294" x2="1285.6274" y2="1767.7878">
				<stop  offset="0" style="stop-color:#663800"/>
				<stop  offset="0.3976" style="stop-color:#FFD373"/>
				<stop  offset="1" style="stop-color:#CEA040"/>
			</linearGradient>
			<path class="st2" d="M1078,45.7c-76.8-31.9-175.3,4.3-259,84.8c21.3,34.5,40.5,71.9,56.9,111.8c77.6,189,68.4,374.9-12.5,464.9
				c96.5-23.6,200.4-115.9,264.2-246.2C1216.4,279.9,1194.2,94,1078,45.7z"/>
			<linearGradient id="SVGID_4_" gradientUnits="userSpaceOnUse" x1="428.6198" y1="-505.7369" x2="901.3036" y2="1847.2933">
				<stop  offset="0" style="stop-color:#663800"/>
				<stop  offset="0.3976" style="stop-color:#FFD373"/>
				<stop  offset="1" style="stop-color:#CEA040"/>
			</linearGradient>
			<path class="st3" d="M756.4,701.7C640.3,653.4,618,467.4,706.8,286.3C737,224.8,776,171.9,819,130.5
				C715.9-36.4,564.2-132.3,447.5-91.7c-140.8,49-177.2,277.9-81.4,511.4c95.8,233.4,287.6,383,428.4,334
				c26.8-9.3,49.8-25.2,68.9-46.4C825.7,716.5,789.1,715.2,756.4,701.7z"/>
			<path class="st4" d="M875.9,242.3c-16.4-39.9-35.6-77.3-56.9-111.8c-43,41.3-82,94.3-112.1,155.8
				c-88.8,181.1-66.6,367.1,49.6,415.4c32.6,13.6,69.2,14.8,106.9,5.6C944.3,617.2,953.4,431.3,875.9,242.3z"/>
		</g>
	</g>
	<g>
		<g>
			<path class="st0" d="M686.6,132.8H468.6c-8.2,0-15-6.7-15-15V90.7c0-8.2,6.7-15,15-15h218.1c8.2,0,15,6.7,15,15v27.2
				C701.6,126.1,694.9,132.8,686.6,132.8z"/>
		</g>
		<g>
			<path class="st4" d="M491.7,99.8l-0.4,2.2c-0.1,0.6-0.3,1-0.7,1.2c-0.4,0.3-0.9,0.4-1.7,0.4h-1.1l-0.7,4.2h1.9
				c0.6,0,0.9,0.2,1.2,0.5c0.2,0.3,0.3,0.9,0.2,1.7l-0.3,1.7h-3.5l-1.2,7h-2.5c-0.2,0-0.5-0.1-0.7-0.2c-0.2-0.1-0.4-0.3-0.5-0.5
				c-0.1-0.2-0.3-0.4-0.3-0.7s-0.1-0.5,0-0.8l0.8-4.8h-2.9l-0.9,5.1c-0.1,0.3-0.2,0.6-0.3,0.9c-0.2,0.2-0.3,0.4-0.6,0.6
				c-0.2,0.2-0.5,0.3-0.7,0.3c-0.3,0.1-0.5,0.1-0.8,0.1h-2.4l1.2-7h-1.6c-0.6,0-0.9-0.2-1.2-0.5s-0.3-0.9-0.2-1.7l0.3-1.7h3.1
				l0.7-4.2h-3.5l0.4-2.2c0.1-0.5,0.3-0.9,0.7-1.2s0.9-0.4,1.7-0.4h1.2l0.9-5.2c0.1-0.6,0.4-1,0.8-1.3c0.4-0.3,0.9-0.5,1.5-0.5h2.5
				l-1.2,6.9h2.9l1.2-6.9h2.4c0.3,0,0.5,0,0.8,0.1c0.2,0.1,0.4,0.2,0.6,0.4c0.2,0.2,0.3,0.3,0.3,0.6c0.1,0.2,0.1,0.5,0,0.7l-0.9,5.1
				H491.7z M483.3,103.6h-2.9l-0.7,4.2h2.9L483.3,103.6z"/>
			<path class="st4" d="M500.3,103.2h1c0.9,0,1.5-0.3,1.9-0.8L509,94c0.3-0.4,0.7-0.8,1.1-0.9c0.4-0.2,0.9-0.3,1.5-0.3h5.2
				l-7.6,10.4c-0.5,0.7-1.1,1.2-1.7,1.6c0.4,0.2,0.9,0.4,1.2,0.7c0.4,0.3,0.7,0.7,1,1.1l7.8,11.9H512c-0.3,0-0.6,0-0.9-0.1
				s-0.5-0.1-0.6-0.2c-0.2-0.1-0.3-0.2-0.5-0.3c-0.1-0.1-0.3-0.3-0.4-0.5l-5.8-8.9c-0.2-0.3-0.5-0.6-0.8-0.7
				c-0.3-0.1-0.8-0.2-1.3-0.2h-1.4v10.9h-6V92.8h6V103.2z"/>
			<path class="st4" d="M530,113.8c0.8,0,1.5-0.1,2.1-0.4s1.2-0.6,1.6-1.1s0.8-1.1,1-1.8c0.2-0.7,0.3-1.5,0.3-2.4V92.8h6v15.2
				c0,1.6-0.3,3-0.8,4.3c-0.5,1.3-1.2,2.5-2.2,3.4s-2.1,1.7-3.5,2.2c-1.4,0.5-2.9,0.8-4.6,0.8c-1.7,0-3.3-0.3-4.6-0.8
				s-2.5-1.3-3.5-2.2s-1.7-2.1-2.2-3.4c-0.5-1.3-0.8-2.8-0.8-4.3V92.8h6v15.2c0,0.9,0.1,1.7,0.3,2.4c0.2,0.7,0.6,1.3,1,1.8
				c0.4,0.5,1,0.9,1.6,1.1C528.5,113.7,529.2,113.8,530,113.8z"/>
			<path class="st4" d="M561.2,113.8v4.8h-15.5V92.8h6v21H561.2z"/>
			<path class="st4" d="M587.6,105.7c0,1.9-0.3,3.6-1,5.1s-1.5,2.9-2.7,4.1s-2.6,2-4.2,2.7s-3.5,1-5.5,1h-10V92.8h10
				c2,0,3.8,0.3,5.5,1c1.6,0.6,3,1.5,4.2,2.7s2.1,2.5,2.7,4.1C587.3,102.1,587.6,103.8,587.6,105.7z M581.5,105.7
				c0-1.3-0.2-2.4-0.5-3.4c-0.3-1-0.8-1.9-1.4-2.6c-0.6-0.7-1.4-1.3-2.3-1.6c-0.9-0.4-1.9-0.6-3.1-0.6h-4V114h4
				c1.1,0,2.2-0.2,3.1-0.6c0.9-0.4,1.7-0.9,2.3-1.6c0.6-0.7,1.1-1.6,1.4-2.6C581.3,108.1,581.5,107,581.5,105.7z"/>
			<path class="st4" d="M605.3,98.1c-0.2,0.3-0.4,0.5-0.6,0.6c-0.2,0.1-0.4,0.2-0.8,0.2c-0.3,0-0.6-0.1-0.9-0.3
				c-0.3-0.2-0.7-0.4-1.1-0.6s-0.8-0.4-1.4-0.6c-0.5-0.2-1.1-0.3-1.7-0.3c-1.1,0-2,0.2-2.5,0.7s-0.8,1.1-0.8,1.9
				c0,0.5,0.2,0.9,0.5,1.3c0.3,0.3,0.8,0.6,1.3,0.9s1.1,0.5,1.8,0.7s1.4,0.4,2.1,0.7s1.4,0.5,2.1,0.9c0.7,0.3,1.3,0.8,1.8,1.3
				c0.5,0.5,1,1.2,1.3,1.9c0.3,0.8,0.5,1.7,0.5,2.7c0,1.2-0.2,2.3-0.6,3.3s-1,1.9-1.8,2.7c-0.8,0.8-1.7,1.4-2.9,1.8
				s-2.5,0.7-3.9,0.7c-0.8,0-1.6-0.1-2.4-0.2c-0.8-0.2-1.6-0.4-2.4-0.7c-0.8-0.3-1.5-0.7-2.2-1.1s-1.3-0.9-1.8-1.4l1.8-2.8
				c0.1-0.2,0.3-0.4,0.6-0.5c0.2-0.1,0.5-0.2,0.8-0.2c0.4,0,0.7,0.1,1.1,0.3c0.4,0.2,0.8,0.5,1.2,0.7c0.5,0.3,1,0.5,1.6,0.7
				c0.6,0.2,1.3,0.3,2.1,0.3c1.1,0,1.9-0.2,2.5-0.7c0.6-0.5,0.9-1.2,0.9-2.3c0-0.6-0.2-1.1-0.5-1.5c-0.3-0.4-0.8-0.7-1.3-0.9
				c-0.5-0.2-1.1-0.5-1.8-0.7s-1.4-0.4-2.1-0.6s-1.4-0.5-2.1-0.8c-0.7-0.3-1.3-0.8-1.8-1.3c-0.5-0.5-1-1.2-1.3-2
				c-0.3-0.8-0.5-1.8-0.5-3c0-1,0.2-1.9,0.6-2.8s1-1.7,1.7-2.5s1.7-1.3,2.8-1.7s2.3-0.6,3.8-0.6c0.8,0,1.6,0.1,2.3,0.2
				c0.7,0.1,1.5,0.3,2.1,0.5c0.7,0.2,1.3,0.5,1.9,0.9c0.6,0.3,1.1,0.7,1.6,1.1L605.3,98.1z"/>
			<path class="st4" d="M621.4,113.8c0.8,0,1.5-0.1,2.1-0.4s1.2-0.6,1.6-1.1s0.8-1.1,1-1.8c0.2-0.7,0.3-1.5,0.3-2.4V92.8h6v15.2
				c0,1.6-0.3,3-0.8,4.3c-0.5,1.3-1.2,2.5-2.2,3.4s-2.1,1.7-3.5,2.2c-1.4,0.5-2.9,0.8-4.6,0.8c-1.7,0-3.3-0.3-4.6-0.8
				s-2.5-1.3-3.5-2.2s-1.7-2.1-2.2-3.4c-0.5-1.3-0.8-2.8-0.8-4.3V92.8h6v15.2c0,0.9,0.1,1.7,0.3,2.4c0.2,0.7,0.6,1.3,1,1.8
				c0.4,0.5,1,0.9,1.6,1.1C619.9,113.7,620.6,113.8,621.4,113.8z M620.1,89.1c0,0.4-0.1,0.7-0.2,1c-0.1,0.3-0.3,0.6-0.6,0.8
				c-0.3,0.2-0.6,0.4-0.9,0.6c-0.3,0.1-0.7,0.2-1.1,0.2c-0.4,0-0.7-0.1-1-0.2c-0.3-0.1-0.6-0.3-0.9-0.6c-0.2-0.2-0.4-0.5-0.6-0.8
				c-0.1-0.3-0.2-0.7-0.2-1c0-0.4,0.1-0.7,0.2-1c0.1-0.3,0.3-0.6,0.6-0.9s0.5-0.4,0.9-0.6c0.3-0.1,0.7-0.2,1-0.2
				c0.4,0,0.8,0.1,1.1,0.2c0.3,0.1,0.6,0.3,0.9,0.6c0.3,0.2,0.5,0.5,0.6,0.9S620.1,88.7,620.1,89.1z M628.2,89.1
				c0,0.4-0.1,0.7-0.2,1c-0.1,0.3-0.3,0.6-0.6,0.8c-0.2,0.2-0.5,0.4-0.9,0.6s-0.7,0.2-1.1,0.2c-0.4,0-0.7-0.1-1.1-0.2
				c-0.3-0.1-0.6-0.3-0.9-0.6c-0.2-0.2-0.4-0.5-0.6-0.8c-0.1-0.3-0.2-0.7-0.2-1c0-0.4,0.1-0.7,0.2-1c0.1-0.3,0.3-0.6,0.6-0.9
				s0.5-0.4,0.9-0.6c0.3-0.1,0.7-0.2,1.1-0.2c0.4,0,0.7,0.1,1.1,0.2c0.3,0.1,0.6,0.3,0.9,0.6s0.4,0.5,0.6,0.9S628.2,88.7,628.2,89.1
				z"/>
			<path class="st4" d="M660.5,105.7c0,1.9-0.3,3.6-1,5.1s-1.5,2.9-2.7,4.1s-2.6,2-4.2,2.7s-3.5,1-5.5,1h-10V92.8h10
				c2,0,3.8,0.3,5.5,1c1.6,0.6,3,1.5,4.2,2.7s2.1,2.5,2.7,4.1C660.1,102.1,660.5,103.8,660.5,105.7z M654.4,105.7
				c0-1.3-0.2-2.4-0.5-3.4c-0.3-1-0.8-1.9-1.4-2.6c-0.6-0.7-1.4-1.3-2.3-1.6c-0.9-0.4-1.9-0.6-3.1-0.6h-4V114h4
				c1.1,0,2.2-0.2,3.1-0.6c0.9-0.4,1.7-0.9,2.3-1.6c0.6-0.7,1.1-1.6,1.4-2.6C654.2,108.1,654.4,107,654.4,105.7z"/>
			<path class="st4" d="M686.2,118.6h-4.6c-0.5,0-0.9-0.1-1.3-0.4c-0.3-0.2-0.6-0.5-0.7-0.9l-1.5-4.5h-9.8l-1.5,4.5
				c-0.1,0.3-0.4,0.6-0.7,0.9c-0.3,0.3-0.8,0.4-1.2,0.4h-4.7l10-25.7h6.1L686.2,118.6z M676.7,108.7l-2.4-7c-0.2-0.4-0.4-1-0.6-1.6
				c-0.2-0.6-0.4-1.3-0.6-2c-0.2,0.7-0.4,1.4-0.6,2c-0.2,0.6-0.4,1.1-0.6,1.6l-2.4,7H676.7z"/>
		</g>
	</g>
</g>
<g id="text">
	<g>
		<path class="st0" d="M509.6,330.8h-10c-1.1,0-2-0.3-2.7-0.8c-0.7-0.5-1.2-1.2-1.6-2l-3.3-9.7h-21.2l-3.3,9.7
			c-0.3,0.7-0.8,1.4-1.5,1.9s-1.6,0.9-2.7,0.9h-10.1l21.6-55.8h13.3L509.6,330.8z M489,309.5l-5.2-15.3c-0.4-1-0.8-2.1-1.2-3.4
			c-0.4-1.3-0.9-2.7-1.3-4.3c-0.4,1.6-0.8,3-1.2,4.3c-0.4,1.3-0.8,2.5-1.2,3.4l-5.1,15.2H489z"/>
		<path class="st0" d="M564.1,330.8h-10c-1.1,0-2-0.3-2.7-0.8c-0.7-0.5-1.2-1.2-1.6-2l-3.3-9.7h-21.2l-3.3,9.7
			c-0.3,0.7-0.8,1.4-1.5,1.9s-1.6,0.9-2.7,0.9h-10.1l21.6-55.8h13.3L564.1,330.8z M543.5,309.5l-5.2-15.3c-0.4-1-0.8-2.1-1.2-3.4
			c-0.4-1.3-0.9-2.7-1.3-4.3c-0.4,1.6-0.8,3-1.2,4.3c-0.4,1.3-0.8,2.5-1.2,3.4l-5.1,15.2H543.5z"/>
		<path class="st0" d="M599.3,286.3c-0.4,0.6-0.8,1.1-1.2,1.4c-0.4,0.3-1,0.5-1.6,0.5c-0.6,0-1.2-0.2-1.9-0.6
			c-0.7-0.4-1.4-0.8-2.3-1.2c-0.9-0.5-1.8-0.9-2.9-1.2s-2.4-0.6-3.8-0.6c-2.4,0-4.2,0.5-5.4,1.6c-1.2,1-1.8,2.4-1.8,4.2
			c0,1.1,0.4,2.1,1.1,2.8c0.7,0.7,1.7,1.4,2.8,1.9c1.2,0.5,2.5,1,4,1.5c1.5,0.4,3,0.9,4.6,1.5s3.1,1.2,4.6,1.9
			c1.5,0.7,2.8,1.7,4,2.8c1.2,1.1,2.1,2.5,2.8,4.2c0.7,1.6,1.1,3.6,1.1,6c0,2.6-0.4,5-1.3,7.2c-0.9,2.2-2.2,4.2-3.9,5.9
			s-3.8,3-6.3,3.9c-2.5,1-5.3,1.4-8.5,1.4c-1.7,0-3.5-0.2-5.3-0.5c-1.8-0.4-3.5-0.9-5.2-1.5s-3.3-1.4-4.8-2.3s-2.8-1.9-3.9-3
			l3.8-6.1c0.3-0.4,0.7-0.8,1.2-1.1c0.5-0.3,1-0.4,1.6-0.4c0.8,0,1.5,0.2,2.3,0.7c0.8,0.5,1.7,1,2.6,1.6c1,0.6,2.1,1.1,3.4,1.6
			c1.3,0.5,2.8,0.7,4.5,0.7c2.4,0,4.2-0.5,5.5-1.6s2-2.7,2-4.9c0-1.3-0.4-2.4-1.1-3.2c-0.7-0.8-1.7-1.5-2.8-2c-1.2-0.5-2.5-1-4-1.4
			c-1.5-0.4-3-0.9-4.6-1.4s-3.1-1.1-4.6-1.8c-1.5-0.7-2.8-1.7-4-2.9c-1.2-1.2-2.1-2.7-2.8-4.4c-0.7-1.8-1.1-4-1.1-6.6
			c0-2.1,0.4-4.1,1.3-6.1c0.8-2,2.1-3.8,3.7-5.3s3.6-2.8,6-3.7c2.4-0.9,5.1-1.4,8.2-1.4c1.7,0,3.4,0.1,5,0.4
			c1.6,0.3,3.2,0.7,4.6,1.2s2.8,1.1,4.1,1.9c1.3,0.7,2.4,1.6,3.4,2.5L599.3,286.3z"/>
		<path class="st0" d="M651.1,285.3h-15.7v45.6h-13v-45.6h-15.7V275h44.4V285.3z"/>
		<path class="st0" d="M702.3,330.8h-10c-1.1,0-2-0.3-2.7-0.8c-0.7-0.5-1.2-1.2-1.6-2l-3.3-9.7h-21.2l-3.3,9.7
			c-0.3,0.7-0.8,1.4-1.5,1.9s-1.6,0.9-2.7,0.9h-10.1l21.6-55.8h13.3L702.3,330.8z M681.7,309.5l-5.2-15.3c-0.4-1-0.8-2.1-1.2-3.4
			c-0.4-1.3-0.9-2.7-1.3-4.3c-0.4,1.6-0.8,3-1.2,4.3c-0.4,1.3-0.8,2.5-1.2,3.4l-5.1,15.2H681.7z"/>
		<path class="st0" d="M472.4,389.6h2.1c1.9,0,3.3-0.6,4.1-1.8l12.6-18.2c0.7-1,1.5-1.6,2.4-2c0.9-0.4,1.9-0.6,3.2-0.6h11.3
			l-16.6,22.6c-1.2,1.6-2.4,2.7-3.8,3.4c1,0.4,1.9,0.9,2.6,1.5c0.8,0.6,1.5,1.5,2.2,2.5l16.9,25.9h-11.6c-0.7,0-1.4-0.1-1.9-0.2
			c-0.5-0.1-1-0.3-1.4-0.5c-0.4-0.2-0.7-0.5-1-0.7s-0.6-0.6-0.8-1L480.2,401c-0.5-0.7-1-1.2-1.7-1.5c-0.7-0.3-1.7-0.4-2.9-0.4h-3.1
			v23.8h-13V367h13V389.6z"/>
		<path class="st0" d="M566,394.9c0,4-0.7,7.8-2.1,11.3c-1.4,3.5-3.4,6.5-5.9,9.1c-2.5,2.6-5.6,4.6-9.1,6c-3.6,1.5-7.5,2.2-11.9,2.2
			c-4.3,0-8.3-0.7-11.9-2.2c-3.6-1.5-6.6-3.5-9.2-6c-2.5-2.6-4.5-5.6-5.9-9.1c-1.4-3.5-2.1-7.2-2.1-11.3s0.7-7.8,2.1-11.3
			c1.4-3.5,3.4-6.5,5.9-9s5.6-4.6,9.2-6c3.6-1.5,7.5-2.2,11.9-2.2c4.3,0,8.3,0.7,11.9,2.2c3.6,1.5,6.6,3.5,9.1,6
			c2.5,2.6,4.5,5.6,5.9,9C565.3,387.1,566,390.9,566,394.9z M552.7,394.9c0-2.8-0.4-5.2-1.1-7.5c-0.7-2.2-1.7-4.1-3.1-5.6
			c-1.3-1.5-3-2.7-4.9-3.5c-1.9-0.8-4.2-1.2-6.6-1.2c-2.5,0-4.7,0.4-6.7,1.2s-3.6,2-4.9,3.5c-1.3,1.5-2.4,3.4-3.1,5.6
			c-0.7,2.2-1.1,4.7-1.1,7.5c0,2.8,0.4,5.3,1.1,7.5c0.7,2.2,1.7,4.1,3.1,5.6s3,2.7,4.9,3.5c2,0.8,4.2,1.2,6.7,1.2
			c2.5,0,4.7-0.4,6.6-1.2c1.9-0.8,3.6-2,4.9-3.5c1.3-1.5,2.4-3.4,3.1-5.6C552.3,400.2,552.7,397.7,552.7,394.9z"/>
		<path class="st0" d="M622.3,367v55.8h-13v-23.6h-22.7v23.6h-13V367h13v23.3h22.7V367H622.3z"/>
		<path class="st0" d="M683.2,367l-22.4,55.8h-11.7L626.8,367h10.4c1.1,0,2,0.3,2.7,0.8c0.7,0.5,1.2,1.2,1.6,2l10.8,29.9
			c0.5,1.3,1,2.7,1.5,4.3c0.5,1.5,0.9,3.2,1.4,4.8c0.4-1.7,0.8-3.3,1.2-4.8s0.9-3,1.4-4.3l10.7-29.9c0.3-0.7,0.8-1.4,1.5-1.9
			s1.6-0.9,2.7-0.9H683.2z"/>
		<path class="st0" d="M700.7,422.8h-13V367h13V422.8z"/>
		<path class="st0" d="M760.2,367v55.8h-13v-23.6h-22.7v23.6h-13V367h13v23.3h22.7V367H760.2z"/>
		<path class="st0" d="M825.9,394.9c0,4-0.7,7.8-2.1,11.3c-1.4,3.5-3.4,6.5-5.9,9.1c-2.5,2.6-5.6,4.6-9.1,6
			c-3.6,1.5-7.5,2.2-11.9,2.2c-4.3,0-8.3-0.7-11.9-2.2c-3.6-1.5-6.6-3.5-9.2-6c-2.5-2.6-4.5-5.6-5.9-9.1c-1.4-3.5-2.1-7.2-2.1-11.3
			s0.7-7.8,2.1-11.3c1.4-3.5,3.4-6.5,5.9-9c2.5-2.6,5.6-4.6,9.2-6c3.6-1.5,7.5-2.2,11.9-2.2c4.3,0,8.3,0.7,11.9,2.2
			c3.6,1.5,6.6,3.5,9.1,6c2.5,2.6,4.5,5.6,5.9,9C825.2,387.1,825.9,390.9,825.9,394.9z M812.6,394.9c0-2.8-0.4-5.2-1.1-7.5
			c-0.7-2.2-1.7-4.1-3.1-5.6c-1.3-1.5-3-2.7-4.9-3.5s-4.2-1.2-6.6-1.2c-2.5,0-4.7,0.4-6.7,1.2c-2,0.8-3.6,2-4.9,3.5
			c-1.3,1.5-2.4,3.4-3.1,5.6c-0.7,2.2-1.1,4.7-1.1,7.5c0,2.8,0.4,5.3,1.1,7.5c0.7,2.2,1.7,4.1,3.1,5.6s3,2.7,4.9,3.5
			c2,0.8,4.2,1.2,6.7,1.2c2.5,0,4.7-0.4,6.6-1.2c1.9-0.8,3.6-2,4.9-3.5c1.3-1.5,2.4-3.4,3.1-5.6
			C812.2,400.2,812.6,397.7,812.6,394.9z"/>
		<path class="st0" d="M888.3,394.9c0,4-0.7,7.8-2.1,11.3c-1.4,3.5-3.4,6.5-5.9,9.1c-2.5,2.6-5.6,4.6-9.1,6
			c-3.6,1.5-7.5,2.2-11.9,2.2c-4.3,0-8.3-0.7-11.9-2.2c-3.6-1.5-6.6-3.5-9.2-6c-2.5-2.6-4.5-5.6-5.9-9.1c-1.4-3.5-2.1-7.2-2.1-11.3
			s0.7-7.8,2.1-11.3c1.4-3.5,3.4-6.5,5.9-9c2.5-2.6,5.6-4.6,9.2-6c3.6-1.5,7.5-2.2,11.9-2.2c4.3,0,8.3,0.7,11.9,2.2
			c3.6,1.5,6.6,3.5,9.1,6c2.5,2.6,4.5,5.6,5.9,9C887.6,387.1,888.3,390.9,888.3,394.9z M875,394.9c0-2.8-0.4-5.2-1.1-7.5
			c-0.7-2.2-1.7-4.1-3.1-5.6c-1.3-1.5-3-2.7-4.9-3.5s-4.2-1.2-6.6-1.2c-2.5,0-4.7,0.4-6.7,1.2c-2,0.8-3.6,2-4.9,3.5
			c-1.3,1.5-2.4,3.4-3.1,5.6c-0.7,2.2-1.1,4.7-1.1,7.5c0,2.8,0.4,5.3,1.1,7.5c0.7,2.2,1.7,4.1,3.1,5.6s3,2.7,4.9,3.5
			c2,0.8,4.2,1.2,6.7,1.2c2.5,0,4.7-0.4,6.6-1.2c1.9-0.8,3.6-2,4.9-3.5c1.3-1.5,2.4-3.4,3.1-5.6C874.7,400.2,875,397.7,875,394.9z"
			/>
		<path class="st0" d="M929.6,412.5v10.3h-33.7V367h13v45.5H929.6z"/>
		<path class="st0" d="M949.2,422.8h-13V367h13V422.8z"/>
		<path class="st0" d="M973,389.6h2.1c1.9,0,3.3-0.6,4.1-1.8l12.6-18.2c0.7-1,1.5-1.6,2.4-2c0.9-0.4,1.9-0.6,3.2-0.6h11.3
			l-16.6,22.6c-1.2,1.6-2.4,2.7-3.8,3.4c1,0.4,1.9,0.9,2.6,1.5s1.5,1.5,2.2,2.5l16.9,25.9h-11.6c-0.7,0-1.4-0.1-1.9-0.2
			c-0.5-0.1-1-0.3-1.4-0.5c-0.4-0.2-0.7-0.5-1-0.7s-0.5-0.6-0.8-1L980.7,401c-0.5-0.7-1-1.2-1.7-1.5c-0.7-0.3-1.7-0.4-2.9-0.4H973
			v23.8h-13V367h13V389.6z"/>
	</g>
</g>
<g id="EMOJI">
	<g>
		<path class="st68" d="M229.7,196.1c85.8,0,155.4,69.6,155.4,155.4c0,85.8-69.6,155.4-155.4,155.4c-85.8,0-155.4-69.6-155.4-155.4
			C74.2,265.7,143.8,196.2,229.7,196.1L229.7,196.1L229.7,196.1z"/>
		<g id="XMLID_16_">
			<g id="XMLID_19_">
				<path id="XMLID_20_" class="st75" d="M261.6,320.8c0.1,0.8-0.1,2.1,0.7,3c0.7,0.8,2.2,1.6,5.3,1.4c3.4-0.2,5.4-0.7,5.5-0.7
					c5.2-1.3,10.6-4.5,22-9.7c11.9-5.4,22.1-1.4,29,3.5c1.6,1.2,3.8,0,3.7-2.1c-0.1-2.1-1.1-4.5-2.5-6.7
					c-4.7-6.9-15.6-12.8-31.9-11.3c-0.2,0-0.4,0-0.6,0.1c-0.2,0-0.4,0-0.6,0.1c-17.5,1.6-27.4,10.5-30,18.6
					C261.7,318.7,261.5,320.4,261.6,320.8z"/>
			</g>
			<g id="XMLID_17_">
				<path id="XMLID_18_" class="st75" d="M290,326.2c-9.2,4.2-18.8,3.1-25.8,1.1c-1-0.3-2,0.6-1.8,1.6c0,0,0.5,6.4,7.5,11.5
					c6.2,4.5,15,7.2,27.1,6c0.2,0,1-0.1,1.2-0.1c19-1.9,28.9-12.4,30.2-21c0.2-1.2-0.5-2.3-1.6-2.6
					C317.5,319.6,302.9,320.3,290,326.2z"/>
			</g>
		</g>
		<g id="XMLID_1_">
			<g id="XMLID_12_">
				<path id="XMLID_13_" class="st75" d="M204.1,319.4c-0.1,0.8,0.1,2.1-0.7,3c-0.7,0.8-2.2,1.6-5.3,1.4c-3.4-0.2-5.4-0.7-5.5-0.7
					c-5.2-1.3-10.6-4.5-22-9.7c-11.9-5.4-22.1-1.4-29,3.5c-1.6,1.2-3.8,0-3.7-2.1c0.1-2.1,1.1-4.5,2.5-6.7
					c4.7-6.9,15.6-12.8,31.9-11.3c0.2,0,0.4,0,0.6,0.1c0.2,0,0.4,0,0.6,0.1c17.5,1.6,27.4,10.5,30,18.6
					C204,317.3,204.2,319,204.1,319.4z"/>
			</g>
			<g id="XMLID_3_">
				<path id="XMLID_6_" class="st75" d="M175.7,324.8c9.2,4.2,18.8,3.1,25.8,1.1c1-0.3,2,0.6,1.8,1.6c0,0-0.5,6.4-7.5,11.5
					c-6.2,4.5-15,7.2-27.1,6c-0.2,0-1-0.1-1.2-0.1c-19-1.9-28.9-12.4-30.2-21c-0.2-1.2,0.5-2.3,1.6-2.6
					C148.2,318.2,162.8,318.9,175.7,324.8z"/>
			</g>
		</g>
		<path class="st70" d="M316.3,420.4l25.3,34.3c11.8,15.9,8.4,38.6-7.5,50.4l0,0c-15.9,11.8-38.6,8.4-50.4-7.5l-25.6-34.6
			c12.7-3.7,24.5-9.8,34.9-17.7C301.9,438.2,309.8,429.9,316.3,420.4L316.3,420.4L316.3,420.4z"/>
		<path class="st69" d="M319.6,385.1c0.9-3.1,4.1-5,7.2-4.2c3.1,0.9,5,4.1,4.2,7.2c-6.2,23.3-19.9,43.1-38.1,57
			c-18.1,13.9-40.8,22-64.9,22c-24.1,0-46.7-8.1-64.9-22c-18.2-13.9-31.9-33.7-38.1-57c-0.8-3.2,1-6.4,4.2-7.2
			c3.1-0.8,6.4,1,7.2,4.2c5.6,20.7,17.7,38.3,33.9,50.7c16.1,12.4,36.3,19.6,57.8,19.6c21.5,0,41.6-7.2,57.8-19.6
			C301.9,423.4,314.1,405.8,319.6,385.1L319.6,385.1L319.6,385.1z"/>
	</g>
</g>
</svg>
