<svg xmlns="http://www.w3.org/2000/svg" xmlns:xlink="http://www.w3.org/1999/xlink" viewBox="0 0 1200 628"><defs><style>.cls-1{fill:none;}.cls-2{isolation:isolate;}.cls-3{fill:url(#New_Gradient_Swatch_2);}.cls-4{clip-path:url(#clip-path);}.cls-5{fill:#244999;}.cls-6{font-size:39.98px;fill:#edc96e;}.cls-12,.cls-6{font-family:Lato-Black, Lato;}.cls-7{letter-spacing:-0.02em;}.cls-8{letter-spacing:-0.03em;}.cls-9{fill:url(#linear-gradient);}.cls-10{fill:url(#linear-gradient-2);}.cls-11,.cls-17{fill:#fff;}.cls-12{font-size:76.65px;}.cls-12,.cls-19{fill:#ff5671;}.cls-13{letter-spacing:-0.03em;}.cls-14{letter-spacing:-0.01em;}.cls-15{letter-spacing:0em;}.cls-16{font-size:72.65px;}.cls-17{stroke:#000;stroke-linecap:round;stroke-linejoin:round;stroke-width:3.42px;stroke-dasharray:9.11 11.39 0 0;}.cls-18{fill:#ffd7ab;}.cls-20{fill:#d6523e;}.cls-20,.cls-21,.cls-22,.cls-23,.cls-24,.cls-25{fill-rule:evenodd;}.cls-20,.cls-23,.cls-24{opacity:0.3;mix-blend-mode:multiply;}.cls-21{fill:#ffffb8;opacity:0.8;}.cls-21,.cls-22{mix-blend-mode:screen;}.cls-22{fill:#ffd96d;opacity:0.6;}.cls-23{fill:#b92c63;}.cls-24{fill:#ce0f43;}.cls-25,.cls-26{fill:#590f43;}</style><linearGradient id="New_Gradient_Swatch_2" x1="149.86" y1="588.73" x2="1056.35" y2="35.48" gradientUnits="userSpaceOnUse"><stop offset="0" stop-color="#c99b3b"/><stop offset="0.52" stop-color="#ffffab"/><stop offset="1" stop-color="#cea040"/></linearGradient><clipPath id="clip-path"><rect class="cls-1" x="459" width="622" height="220"/></clipPath><linearGradient id="linear-gradient" x1="642.04" y1="-16.06" x2="695.13" y2="248.22" gradientUnits="userSpaceOnUse"><stop offset="0" stop-color="#663800"/><stop offset="0.4" stop-color="#ffd373"/><stop offset="1" stop-color="#cea040"/></linearGradient><linearGradient id="linear-gradient-2" x1="599.9" y1="-7.6" x2="652.99" y2="256.68" xlink:href="#linear-gradient"/></defs><title>kuldsüda_crazy</title><g class="cls-2"><g id="Layer_1" data-name="Layer 1"><rect class="cls-3" y="-1" width="1200" height="630"/><g class="cls-4"><ellipse class="cls-5" cx="770" cy="15.71" rx="300" ry="204.29"/></g><text class="cls-6" transform="translate(702.28 104.76)">#KULDSÜ<tspan class="cls-7" x="184.87" y="0">D</tspan><tspan class="cls-8" x="214.29" y="0">A</tspan></text><path class="cls-9" d="M671.58,54.31c-8.43-3.59-19.26.49-28.45,9.54a87.22,87.22,0,0,1,6.25,12.58c8.52,21.26,7.51,42.18-1.38,52.3,10.6-2.66,22-13,29-27.69C686.78,80.66,684.34,59.74,671.58,54.31Z"/><path class="cls-10" d="M636.26,128.1c-12.76-5.43-15.2-26.35-5.45-46.73a62.63,62.63,0,0,1,12.32-17.52c-11.32-18.78-28-29.57-40.8-25-15.46,5.51-19.47,31.26-8.94,57.52S625,139.46,640.44,134a18.1,18.1,0,0,0,7.57-5.22A18.28,18.28,0,0,1,636.26,128.1Z"/><path class="cls-11" d="M649.38,76.43a87.22,87.22,0,0,0-6.25-12.58,62.63,62.63,0,0,0-12.32,17.52c-9.75,20.38-7.31,41.3,5.45,46.73a18.28,18.28,0,0,0,11.74.63C656.89,118.6,657.9,97.68,649.38,76.43Z"/><text class="cls-12" transform="translate(650.55 407.34)"><tspan class="cls-13">K</tspan><tspan x="51.7" y="0">Õ</tspan><tspan class="cls-14" x="114.14" y="0">R</tspan><tspan class="cls-15" x="163.54" y="0">GEIMAD</tspan><tspan class="cls-16"><tspan x="0" y="87.18">MUSKLIMÄED</tspan></tspan></text><path class="cls-17" d="M486.09,405c17.78-10.67,31.76-23.36,42.73-38.78,5.2-7.31,9.35-13.29,13-18.8s7.62-12,9.68-20.11c.08-.14.23-.4.5-.82,9-13.84,6.62-37.53-5-49.7a105.33,105.33,0,0,1-9.6-12.27c-14.32-20.44-31.36-37.31-50.65-50.15-1.36-.9-2.8-1.93-4.51-3.23q-5-3.75-9.94-7.48c-17.84-13.39-36.28-27.23-52.39-42.75a53.69,53.69,0,0,0-6.75-5.33c-.62-.43-1.23-.86-1.83-1.3-.78-.57-1.62-1.13-2.59-1.74l-.62-.38c-1-.57-1.85-1.05-2.7-1.47l-.28-.13c-.78-.37-1.62-.73-2.56-1.09l-.63-.24c-1-.37-1.94-.66-2.85-.91L398,148h-.15c-.57-.13-1.18-.25-1.83-.36l-.63-.1a35.2,35.2,0,0,0-6-.41h-.64l-.84,0a40.26,40.26,0,0,0-10.52,2.07c-5,1.69-9.91,3.36-14.87,5.3l-.18.07c-.92.36-1.83.73-2.73,1.1l-.85.36-2.12.91q-1.5.66-3,1.35A117.25,117.25,0,0,0,329,173.88c-7.21,6-10.31,13.93-9,23,.1.67.23,1.34.37,2l.07.33c.11,1.12.26,2.24.45,3.42,0,.3.11.61.17.92.15.85.31,1.7.5,2.56,0,.23.1.45.17.69.2.86.4,1.72.62,2.55l.07.26c.63,2.35,1.32,4.61,2,6.78s1.27,4.12,1.79,6.1l.1.37.34,1.29a19.88,19.88,0,0,1,.84,4,20.83,20.83,0,0,0,3.39,15.61,25.19,25.19,0,0,0,22.58,11.42,26,26,0,0,0,11-3.18l.62-.33.34-.17c.93-.48,1.89-1,2.84-1.4l.21-.09c1-.46,2-.87,2.87-1.24,2.51-1,5.06-2,7.76-3,2.2-.81,4.4-1.63,6.58-2.48a31.78,31.78,0,0,0,10.12-6.05c3,8.72,6.05,17.71,9.41,26.55a107.94,107.94,0,0,0,18.41,31.73l-1.88.25c-.76.1-1.54.24-2.38.42l-.73.17c-.55.13-1.1.28-1.72.46l-.62.19q-1,.31-1.94.67a45.75,45.75,0,0,0-9.76,5.29,39.13,39.13,0,0,0-3.85,3c-11-10.62-24.57-16.95-40.53-18.86a93.08,93.08,0,0,0-13-.9q-1.62,0-3.22.12c-24.11,1.38-42.51,13.11-53.22,33.93q-1.49,2.89-2.7,5.71A71.58,71.58,0,0,0,247,315.81,69.47,69.47,0,0,0,226.89,320l-.37.14c-1,.38-24.55,15.61-24.55,15.61-.24.23-17.58,24.6-18.39,36.5a41.62,41.62,0,0,0-21.25,4.27,104.87,104.87,0,0,0-2.72-36.88c-2.24-8.94-4.67-17.92-7-26.61a24.91,24.91,0,0,0,5.54.29c.45,0,.9-.06,1.35-.11a57.39,57.39,0,0,0,8.88-1.76c1.34-.37,2.67-.75,4-1.14,4.75-1.37,9.23-2.66,13.35-2.9q.86,0,1.69,0,.62,0,1.26,0a20.15,20.15,0,0,0,10.37-3.71,25.69,25.69,0,0,0,10.49-17.11,24.57,24.57,0,0,0-4.91-18.83,16.92,16.92,0,0,1-2.4-5c-.73-2.09-1.41-4.19-2.13-6.43a139.86,139.86,0,0,0-6.82-18.06c-4.65-9.68-12.32-14.91-22.79-15.55a129.18,129.18,0,0,0-15.22,0c-3.64.21-7.34.57-11,1.09l-.19,0q-1.78.25-3.56.56l-.3.05c-1.14.2-2.28.4-3.4.63l-.53.11c-1.05.21-2.1.43-3.13.66l-.72.16c-1,.22-1.95.46-2.91.7l-.87.22-2.73.73-1,.27c-.88.25-1.75.51-2.61.77l-1,.32-2.63.85-1,.32q-1.77.6-3.54,1.24c-9.72,3.53-16.69,10.2-20.14,19.3-1.86,4.89-3.46,9.79-4.75,14.54-1,3.57-1.83,7.14-2.66,10.59-1.29,5.39-2.51,10.49-4.09,15.36C78,305.06,73.16,319.2,68.47,332.86q-3.22,9.39-6.43,18.79c-1.32,3.9-2.7,8.14-4.23,13a126,126,0,0,0-5.57,28.44c-.39,5.24-.71,10.52-1,15.64q-.23,3.83-.47,7.66c-.09,1.42-.17,2.83-.24,4.25-.17,3.19-.33,6.21-.67,9.08-.13,1.07-.22,2.15-.29,3.22l-.06.77v.23a44.07,44.07,0,0,0,.5,9l.05.9.27.86c0,.24.1.47.15.71l.06.28c.11.46.22.92.35,1.38l.06.21c.13.46.27.93.44,1.46l.05.15c.15.46.31.92.51,1.46l.11.27c.17.43.33.86.5,1.27l.21.48c.16.38.33.76.5,1.11l.31.64.12.24c.12.25.25.5.37.73.28.54.58,1.08.89,1.61,4.54,7.75,10.15,13.36,17.15,17.16l1.39.73c.43.22,1,.52,1.28.68A61.38,61.38,0,0,0,92.17,485.4c8.77,3.56,16.88,6.67,24.8,9.51a131.62,131.62,0,0,0,49.86,7.55l2.55-.09c2-.07,4-.14,6-.26,2.43-.14,4.57-.33,6.56-.57l1.56-.19c8.62-1.06,18.3-2.26,27.75-6.31a124.61,124.61,0,0,0,29.6,1.67,161.88,161.88,0,0,0,17-1.91c7.64-1.26,15.47-2.13,23-3,.22,0,32.34,11.11,32.34,11.11q4.78,1.66,9.58,3.29l7.68,2.63,3.25,1.12a19.84,19.84,0,0,0,7.7,1.15h0a17.62,17.62,0,0,0,3.92-.67l.88-.28c.47-.16.94-.35,1.31-.51a17.79,17.79,0,0,0,1.59-.8c.36-.21.72-.42,1-.64a18.64,18.64,0,0,0,1.52-1.11l.58-.49a20.42,20.42,0,0,0,1.65-1.61c1.58-1.73,3.17-3.44,4.76-5.15,6.09-6.54,12.39-13.31,17.88-21.15l1.29-1.85c4.13-5.89,8.4-12,12.48-18.19.17-.27.36-.52.54-.78l.19-.25.39-.49.14-.16.38-.41.13-.13.28-.25.35-.26.14-.09.36-.22.26-.13c2.54-1.14,4.88-2.37,7.15-3.55,2.1-1.1,4.09-2.14,6-3,18-8,31.7-16.9,43-28.08C463.89,417.59,476,411,486.09,405Z"/><path class="cls-18" d="M275.71,473.83c-1.92-.88-3.83-1.77-5.77-2.59a119.57,119.57,0,0,1-40.43-27.57l-6.36-6.58c-10.23-10.63-18.46-22.45-22.21-37-.06-.23-.15-.45-.21-.67-.69-2.94-2.63-4.92-5.06-6.48a25,25,0,0,0-9.83-3.59,28.38,28.38,0,0,0-17.71,3.18c-4.17,2.14-8.33,4.31-12.36,6.71a36.42,36.42,0,0,1-11.65,4.79,10.38,10.38,0,0,0-6.43,3.84c-4.24,5.21-9.84,8.63-16,11.17-.76.32-1.83.81-2.26-.85,3-2.1,5.93-4.32,9-6.37,5.87-3.91,9.71-9.36,12.57-15.7,4.13-9.17,5.7-18.82,5.75-28.77a111.58,111.58,0,0,0-4.38-29.84c-3.08-11.32-6.14-22.65-9-34A64.61,64.61,0,0,1,132,277.71a26.77,26.77,0,0,1,1.42-4.33l2.29.91a9.66,9.66,0,0,0,.37-2.08,47.46,47.46,0,0,1,.55-8.46,16.13,16.13,0,0,1,2.6,8.75,4.77,4.77,0,0,0,5.17,4.51,45.26,45.26,0,0,0,13.69-3,5,5,0,0,0,3.63-4.65,32.07,32.07,0,0,0,.38-5.35c.44.8,2.12,3.76,2.75,4.91a19.7,19.7,0,0,1,2.62-2.15c.7-.4,3.12-2.43,3.95-2.62a7.8,7.8,0,0,1-1.76,4.45c-1.89,2.33-4.14,4.36-6.08,6.37a13.54,13.54,0,0,0,.14,1.7,10.6,10.6,0,0,0,4,6.43c2,1.44,8.85-1.07,9.23-.88-1.52,2.3-4.19,4.12-6,4.29-4.37.4-8.34-1-12.17-2.88-.7-.35-1.72-1.43-1.59-1.83.58-1.66,4.28.28,5,0-.49-1.21-1.49-3.43-2.07-4.88-4.05,1.61-7.88,2.47-11.32,4.5.5,2,.94,3.61,1.26,5.2s.41,3.27.8,4.85c.78,3.16,2.89,4.91,6.08,4.7a51.63,51.63,0,0,0,6.87-1.38c7.33-1.52,14.67-3,22-4.58,1.32-.29,2.95-.6,3.78-1.5,3.65-4,4.39-7,1.67-11.37a30.12,30.12,0,0,1-3.11-5.43c-2.34-6.37-4.45-12.84-6.68-19.26-.77-2.22-1.67-4.38-2.46-6.59-1.69-4.72-4.84-6.87-10-7.19-16.43-1-32.21,1.75-47.73,6.91a17.15,17.15,0,0,0-10.35,8.92,82.4,82.4,0,0,0-4.87,13.14c-1.47,4.94-2.26,10.08-3.72,15q-4.79,16.19-10,32.25c-3.54,10.93-7.28,21.8-11,32.69-2.18,6.44-4.46,12.86-6.64,19.3a110.62,110.62,0,0,0-5.82,28.89c-.8,13.34-1.66,26.67-2.32,40-.37,7.41,4.62,16.91,11.08,21.72.26.2.77.07,1.14.1.71-1.38-1.08-3.4,1.17-4.33.2.06.45.07.58.19a4.62,4.62,0,0,1,.89,1.06c3.93,7.42,10.24,12.12,17.8,15.25,6.72,2.78,13.47,5.49,20.32,7.94,10.19,3.65,20.6,6.5,31.45,7.3a157.23,157.23,0,0,0,39.26-1.76c7.37-1.31,14.66-3.08,20.86-7.85,3.58-2.76,8-3.91,12.47-4.41,1.06-.12,2.83-.68,3.32,1.51-3.52,2.16-8.29,1.8-11.52,5.58a21.07,21.07,0,0,0,3.72.86c7.72.22,15.5,1,23.17.37,11.2-.9,22.31-2.81,33.46-4.3.2,0,.37-.28.78-.62C276,474.16,275.91,473.92,275.71,473.83Z"/><path class="cls-19" d="M406.14,369.69a58.47,58.47,0,0,0-2.43-27c-5.64-16-20.4-36.2-48.6-38.15a75.84,75.84,0,0,0-14,0c-12.13,1.43-22.52,6.45-29.84,16.59-5.85,8.1-9.92,17-11,27.08a42.5,42.5,0,0,1-1,5.5,1.85,1.85,0,0,1-2.8,1.09c-2.17-1.77-4.3-3.61-6.3-5.57-5.76-5.64-12.1-10.44-19.77-13.14-24.58-8.68-48.58-.53-63.59,20a31,31,0,0,0-6.17,21.85c.48,4.88,1.4,9.73,2.27,14.57a71.24,71.24,0,0,0,9.29,24.15c6.73,11.19,15.87,20.27,25.31,29.08a98.31,98.31,0,0,0,27.33,18.39c22.1,9.76,44.2,19.52,67.12,27.32,6,2.06,10.54.73,15.71-5,14.64-16.3,27.9-33.54,36.87-53.73,3.43-7.72,7.06-15.35,10.36-23.12A152.11,152.11,0,0,0,406.14,369.69ZM343,437.46c-4.29,4.43-9.25,7.22-17.87,9.8-8,3-17,2.41-26,.15-6.57-1.65-10.33-6.31-11-13-.48-4.93,1.73-8.61,6.35-10.51a15.56,15.56,0,0,1,8.24-1.17c3.24.46,6.48.89,9.69,1.5a7,7,0,0,0,7.38-2.84c1.71-2.22,3.5-4.39,5.2-6.62,4.05-5.31,9.37-5.84,15.79-3.79a9.89,9.89,0,0,1,5.87,5.69A18.63,18.63,0,0,1,343,437.46Z"/><path class="cls-18" d="M521.28,271.16c-10.2-13.85-21.45-26.63-35.61-36.67-16.45-11.67-32.37-24-48.3-36.42-9.83-7.64-19.17-15.79-28.43-24.08a67.32,67.32,0,0,0-11.4-8.14,16.66,16.66,0,0,0-14.24-1.57c-5.74,2-11.49,4-17.16,6.29a105.94,105.94,0,0,0-26.54,15.66c-3.2,2.52-4.25,5.53-3.46,9.25.89,4.12,2.18,8.15,3.13,12.26,1.72,7.48,4.58,14.69,4.67,22.58a7.78,7.78,0,0,0,11.55,6.85c6.7-3.5,13.84-5.73,20.89-8.28a37.41,37.41,0,0,0,6.93-3.36,4.94,4.94,0,0,0,2-6.17c-1.32-3.42-3-6.72-4.51-10.15L369.31,212l1.19,3.87c1.76,0,3.51-1.16,4.95-2.25-2.65,6.06-5.84,10.14-9.66,12-1.54.76-3.52.78-6.62,0,3.94-1.1,7.09-2,7.6-5.3.46-3.07.39-6-1.38-8.09-8.12.38-10.27-3.2-10.18-3.36.3-.53,4.15,1.4,6.41-.8.63-.62.06-3.42.25-3.52a11.89,11.89,0,0,1,1.91,1.82c1.42,2.09,3.29,2.44,5.52,1.68,3.77-1.29,7.65-2.33,11.26-4,4.5-2,5.06-4.32,2.77-8.91a28.85,28.85,0,0,1-2.87-8c3.92,2.84,5.29,6,8,8.78l1-2.91c2.61,2.8,4.83,4.88,6.69,7.24a67.21,67.21,0,0,1,10.51,19c3.63,10.16,7.07,20.39,10.77,30.52,2.25,6.16,4.53,12.34,7.36,18.24a79,79,0,0,0,19.81,26.17c8.65,7.4,18.32,12.19,30.09,11.51,1.87-.11,3.75-.06,5.62,0,1,0,2.06.25,4.63.57-3.29,1-5,1.81-6.8,2-5.84.75-11.69.78-17.4-1-1.83-.56-3.61-1.07-5.42,0-4.41,2.59-9.38,2.75-14.27,3.26-5.36.55-10.77.83-16.06,1.78-9.15,1.64-15.74,6.94-19.66,15.36a6.81,6.81,0,0,0-.52,4.68c1.82,4.9,4.06,9.65,6.39,15,.78-2.59,1.29-4.6,2-6.55,2.13-5.93,5.6-10.81,11.29-13.83.64-.34,3.52-1.21,3.69-.76.35,1-3.46,3.19-4.68,4.19a26.32,26.32,0,0,0-7.72,11.55c-1.19,3.17-.59,7.11-4,9.41-.47.31-.33,1.76-.23,2.65.87,7.54.06,15-1.27,22.38a161.49,161.49,0,0,1-10.58,34.95c-3.41,8-7.12,15.83-10.65,23.75a42.56,42.56,0,0,0-1.33,4.24c6.85-3.25,13-6.1,19.09-9.06a125.5,125.5,0,0,0,28.07-18.55c.84-.74,1.88-1.45.82-3l-6.06,1.45c-1.88.45-3.68,1.49-6.81,1.27,1.49-1.53,13.08-7,18.54-6.76a32,32,0,0,0,13.65-2.8c1.52-.62,3-1.35,4.49-2,21.33-9.5,40-22.53,54.05-41.48,5.16-7,10.06-14.14,14.87-21.35,4.54-6.82,7-14.3,6-22.64a6.28,6.28,0,0,1,.31-1.81c2.67-.73,2,2.92,4.11,2.86,2.22-5.75,2.13-5.74,1.22-14.41a21.88,21.88,0,0,0-4.66-11.55C530.59,283.51,525.86,277.39,521.28,271.16Z"/><path class="cls-11" d="M292.41,429.11a10.39,10.39,0,0,0-1.36,4.55c-.23,6,3.78,9.75,11.82,10.64l-5.41-17.59C295.07,426.57,293.36,427.42,292.41,429.11Z"/><path class="cls-11" d="M308.58,426.81c-2.28-.3-4.53-1.27-7.17-.19.27,6.37,2.87,12.07,5.47,17.74a3.16,3.16,0,0,0,2.29,1.31,21.17,21.17,0,0,0,12.43-2.19c-1.24-5.67-3.77-10.59-5.77-15.57C313.18,427.5,310.89,427.11,308.58,426.81Z"/><path class="cls-11" d="M225.95,353.84a15.77,15.77,0,0,0-10.51,7.47c-.78,1.21-1.54,2.42-2.3,3.64a39.63,39.63,0,0,0-2,8.08,32.28,32.28,0,0,0,.38,6.21,2.9,2.9,0,0,0,2.94,2.52,4.73,4.73,0,0,0,3-1.34,9,9,0,0,0,2-3.6,37.5,37.5,0,0,1,8.66-15,6.85,6.85,0,0,0,1.78-3,6.66,6.66,0,0,0-.26-3.95C229,353.57,227.41,353.56,225.95,353.84Z"/><path class="cls-11" d="M319.14,426.66c.64,2.07,1.12,4.1,1.88,6,1.36,3.43,2.9,6.79,4.49,10.49,4.66-1.18,8.59-2.86,11.91-6.25-1.38-7.67-5.7-14.23-7.94-23Z"/><path class="cls-11" d="M222.25,405.06h0c-.41-1.34-.79-2.69-1.25-4a24.26,24.26,0,0,0-1.82-4.5,3.17,3.17,0,0,0-2.36-1c-.49,0-1.2.74-1.46,1.31a6,6,0,0,0-.59,2.67A26.07,26.07,0,0,0,218.86,412a6.52,6.52,0,0,0,2.56,2.28,3.42,3.42,0,0,0,2.54-.12c.37-.15.64-1.25.5-1.81C223.81,409.93,223,407.5,222.25,405.06Z"/><path class="cls-11" d="M332.65,413.24l7.81,21.14c3.21-3.35,4-6.67,4.25-10.19a10.51,10.51,0,0,0-3.27-8.88C339.08,413.07,336.23,412.35,332.65,413.24Z"/><path class="cls-20" d="M388,215.45c-1.06-2.81-2.54-5.51-2.68-8.69l3.86-3a43.12,43.12,0,0,0-1.42-5.37c-2.17-2.88-4.39-6.76-6.39-6.65-9.1-1.48-20.25-3.85-24.79,4.42-6.3,12.38-1.57,25.13-.83,38.11a6.27,6.27,0,0,0,3.63,5.8c2.31-1.21,4.68-2.31,7.09-3.28,4.78-1.92,9.66-3.61,14.47-5.48C389.45,228,391.24,223.93,388,215.45Z"/><path class="cls-21" d="M476.92,303.48c14.38-28.87-29.58-44.39-50.69-63.21-10.55-9.41-18.17-20-26.78-30.52l-.45.5a112.89,112.89,0,0,1,6.91,16.52c3.73,10.88,7.37,21.79,11.45,32.53,6.75,17.75,17.38,32.62,33.4,43.28a15.32,15.32,0,0,1,1.76,1.72c-3.11,1.85-6.31,2-9.49,2.28-6.53.65-13.06,1.34-19.56,2.21a20,20,0,0,0-4.59,1.2C442.07,320.22,467.68,324.17,476.92,303.48Z"/><path class="cls-21" d="M352.1,187.41c8.57-6.45,24.12-11.33,17.92-21.79-3.66,1.37-7.27,2.83-10.79,4.49a103.8,103.8,0,0,0-22,13.79c-3.66,3-5.06,6.59-4.39,11.14.13.93.41,1.84.5,2.77.7,7.41,3.54,14.29,5.41,21.41C342.69,207.79,341.85,194.55,352.1,187.41Z"/><path class="cls-20" d="M240.18,455.22c-23,1.31-59.26,14.38-84.72,10.8-56.85-8-82.37-32.17-92.53-24.61a26.51,26.51,0,0,0,3.25,8.69c3.09,5.27,6.83,9.43,12.13,12.3a26.37,26.37,0,0,1,4.8,2.86,49.13,49.13,0,0,0,13.94,8.1c8,3.26,16.15,6.39,24.31,9.32a118.21,118.21,0,0,0,45,6.8c4.68-.18,9.39-.25,14-.83,9.53-1.19,19.12-2.18,27.94-6.55a7,7,0,0,1,4.07-.08c14.47,2.79,28.9,2.34,43.38,0,7.86-1.29,15.79-2.18,23.71-3.06a26.26,26.26,0,0,1,8.39.41C273.7,466.2,256.23,455.19,240.18,455.22Z"/><path class="cls-21" d="M85.58,414c11.81-38.74,10.53-78.73,21.34-117.41,3.42-10.21-.2-21,5.22-31.35,8.67-13.73,35.81-16,33.93-28.58a135.78,135.78,0,0,0-27.47,7c-5.71,2.07-10.21,5.85-12.43,11.69-1.66,4.37-3.13,8.83-4.36,13.33-2.4,8.83-4.11,17.86-6.93,26.55-6.59,20.3-13.67,40.45-20.54,60.67-1.43,4.22-2.8,8.46-4.14,12.71a112.47,112.47,0,0,0-5,25.5c-.58,7.71-1,15.44-1.49,23.16-.3,4.68-.43,9.38-1,14q-.16,1.33-.23,2.63C73.42,431.25,82.51,424.64,85.58,414Z"/><path class="cls-20" d="M131.72,280c-13.15,32.8-19.94,66.35-21.94,101.52-.43,10-4.85,20.31-8.33,29.52-2.6,7.16-.2,14,7.9,15.58,22.74,1.62,41.78-14.66,51.75-34.55-4.35,2.41-8.76,4.7-13.16,7a32.9,32.9,0,0,1-5,1.59c.69-2,1.16-3.31,1.57-4.61,1.11-3.58,2.42-7.11,3.25-10.76a90.14,90.14,0,0,0-.7-42.52c-3-12.06-6.35-24-9.57-36.06a88.31,88.31,0,0,1-3.16-20.82,26.45,26.45,0,0,1,.77-4.78l.22,0a3,3,0,0,0,.08-.3C137.29,277.17,132.53,278.12,131.72,280Z"/><path class="cls-22" d="M317.94,483.83c-35-17-63.52-42.45-76.44-75.77-9.58-24.07-11.13-60.71,10.31-79.35A57.48,57.48,0,0,0,208.2,348c-9.06,9.94-13.44,21.29-11.1,34.85a34.22,34.22,0,0,1,.29,4.92c3.42,10.36,7.53,20.53,11.62,30.2,8.83,17.75,26.17,26,40.37,38.39,14,12.55,27,12.35,38.47,23a28.19,28.19,0,0,1,6,2c5.11,2.36,10.31,4.57,15.6,6.49,8.39,3,16.86,5.85,25.3,8.76A54.27,54.27,0,0,0,317.94,483.83Z"/><path class="cls-23" d="M393.11,414.44c1.88-2.11,3.77-4.22,5.71-5.33.4-.93.79-1.86,1.1-2.79l-3.1,2.9c8.79-21.54,19.46-45.18,10.16-67.69a159.85,159.85,0,0,0-7.26-17.07c-.76-.83-1.51-1.66-2.2-2.54-9.91-12.68-22.91-19.85-38.83-21.75l-2.47-.29.33.46c36.08,53,12.66,116.47-8.28,170.75a183.4,183.4,0,0,0-8,27.07,5.06,5.06,0,0,0,4-1.9c7.43-8.15,15.26-15.94,21.61-25,4.58-6.53,9.17-13.05,13.56-19.71a23.73,23.73,0,0,1,4.75-5.46,34.17,34.17,0,0,1,1.17-8.17C390,430.64,389.57,422.65,393.11,414.44Z"/><path class="cls-20" d="M537.62,285.76A115.67,115.67,0,0,1,526.76,272c-12.93-18.45-28.41-34.28-47.21-46.78-1.76-1.17-3.47-2.41-5.15-3.68-21.7-16.42-43.83-32.28-63.49-51.23a69.42,69.42,0,0,0-7.27-5.52,22.47,22.47,0,0,0-16.36-4.46c31.09,38.79,64.39,64.77,100,96.54,14.72,12.18,34.35,27.09,36.54,48-.08,11.77-12,8.68-18.83,22.44-22.81,46-38.36,42.71-71.66,54.84-11.63,4.24-22.88,14.39-33.41,24.23-.31.93-.7,1.86-1.1,2.79-1.94,1.11-3.82,3.22-5.71,5.33-3.54,8.21-3.08,16.2-7.67,23.48a34.17,34.17,0,0,0-1.17,8.17,17.57,17.57,0,0,1,3.94-2.44c4.49-2,8.73-4.58,13.22-6.57,14.7-6.51,28.35-14.59,39.77-26.06a9.28,9.28,0,0,1,4.82-2.62c12.07-2.67,22.87-8.25,33.38-14.56,15.28-9.17,28.47-20.61,38.83-35.17,4.35-6.12,8.66-12.27,12.84-18.5,3.4-5.07,6.47-10.34,8-16.38a15,15,0,0,1,2.13-4.4C546.78,310.74,545.17,293.65,537.62,285.76Z"/><path class="cls-24" d="M192.42,275.58c-2.22-2.56-2.92-7.28-4.17-10.33-3.1-7.59-4.83-15.73-8.81-23-1.87-3.42-4.79-3.41-7.89-4.52,6.25,9,3.39,19.4-4.42,25.34-5.63,3.64-8.18,7.95-12.82,11.48-3.42,3.21-7.24,2.14-9.9,5.77.22,0,.95,1.75,1.17,1.75.77,2.09.92,2.79,1.42,4.33.57,1.79-.26,2.62.22,4.43,1.59,6,7,9.77,11.73,9a45,45,0,0,0,6.8-1.74c7.33-2.44,14.51-5.43,22.41-5.72a7.07,7.07,0,0,0,3.82-1.54C197.41,286.53,196.9,280.76,192.42,275.58Z"/><path class="cls-25" d="M354.1,391.11c-9.74,3.08-15.87.34-18.53-6.9a6.13,6.13,0,0,1,.17-3.36c.09-.36,1.44-.86,1.67-.66a29.7,29.7,0,0,1,3.37,3.47c3.6,4.23,6,4.84,11,2.58A31.08,31.08,0,0,0,366,373c1.54-2.63,2.85-5.39,4.35-8a2.26,2.26,0,0,1,2.93-1.21,2.19,2.19,0,0,1,1.55,2.77C370.91,378.25,363.57,386.9,354.1,391.11Z"/><path class="cls-25" d="M260.28,420.18a19,19,0,0,1-10.39.8c-6.3-1.41-10.35-7.09-9.08-12.81a3.31,3.31,0,0,1,1.78-1.81c.34-.16,1.38.47,1.66,1,.77,1.42,1.29,3,2,4.47a7.33,7.33,0,0,0,6.6,4.44,15.75,15.75,0,0,0,9.36-2.29,26.72,26.72,0,0,0,10.28-11.19c1.2-2.27,2.14-4.67,3.33-6.94.56-1.07,1.67-2,2.82-1.17.79.57,1.07,1.85,1.54,2.83a1.06,1.06,0,0,1-.08.68C276.56,408.31,270.92,416.51,260.28,420.18Z"/><path class="cls-26" d="M526.76,272c-12.93-18.45-28.41-34.28-47.21-46.78-1.76-1.17-3.47-2.41-5.15-3.68-21.7-16.42-43.83-32.28-63.49-51.23a69.42,69.42,0,0,0-7.27-5.52c-6.79-5-14.3-5.77-22.07-3.16a206.89,206.89,0,0,0-22.33,8.53,103.8,103.8,0,0,0-22,13.79c-3.66,3-5.06,6.59-4.39,11.14.13.93.41,1.84.5,2.77.72,7.55,3.65,14.54,5.52,21.8.94,3.64,2.11,7.17,1.38,11a8.05,8.05,0,0,0,1.44,6,12.36,12.36,0,0,0,16.57,4,78.47,78.47,0,0,1,8.23-3.87c4.78-1.92,9.66-3.61,14.47-5.48,8.48-3.3,10.27-7.39,7.06-15.87-1.06-2.81-2.54-5.51-2.68-8.69l7.47-5.79c1.33,1.75,2.56,3.15,3.55,4.71,4.18,6.58,7,13.75,9.56,21.09,3.73,10.88,7.37,21.79,11.45,32.53,6.75,17.75,17.38,32.62,33.4,43.28a15.32,15.32,0,0,1,1.76,1.72c-3.11,1.85-6.31,2-9.49,2.28-6.53.65-13.06,1.34-19.56,2.21-4.26.57-8,2.57-11.49,5-4.55,3.13-7.63,7.45-10.28,12-.52-.11-.84-.07-1-.21-1.1-1.2-2.22-2.38-3.22-3.66-9.91-12.68-22.91-19.85-38.83-21.75a81.28,81.28,0,0,0-11.21-.81c-20.15.41-35.67,8.6-45.14,27a62,62,0,0,0-6.91,21.92c-2.18-1.92-3.85-3.43-5.57-4.89-24.64-21-59.69-19.54-81.66,4.57-9.06,9.94-13.44,21.29-11.1,34.85a55.49,55.49,0,0,1,.34,6.33c-1.49-.56-2.35-.87-3.2-1.21-9.68-3.85-19.11-4-28.39,1.44-5.86,3.43-11.91,6.56-17.93,9.71a32.9,32.9,0,0,1-5,1.59c.69-2,1.16-3.31,1.57-4.61,1.11-3.58,2.42-7.11,3.25-10.76a90.14,90.14,0,0,0-.7-42.52c-3-12.06-6.35-24-9.57-36.06a88.31,88.31,0,0,1-3.16-20.82,26.45,26.45,0,0,1,.77-4.78l9.31.65c.66,2.13,1.19,3.67,1.6,5.24.48,1.81.87,3.65,1.26,5.49,1.27,6.08,6.1,8.29,10.85,7.76a44.94,44.94,0,0,0,6.88-1.38c7.45-2,14.77-4.65,22.68-4.53a7.07,7.07,0,0,0,3.9-1.33,12.24,12.24,0,0,0,2.85-17.36A29.2,29.2,0,0,1,190,267c-2.7-7.74-4.8-15.68-8.39-23.13-2.5-5.19-6-7.84-11.87-8.21-17.64-1.08-34.59,1.93-51.08,7.92-5.71,2.07-10.21,5.85-12.43,11.69-1.66,4.37-3.13,8.83-4.36,13.33-2.4,8.83-4.11,17.86-6.93,26.55-6.59,20.3-13.67,40.45-20.54,60.67-1.43,4.22-2.8,8.46-4.14,12.71a112.47,112.47,0,0,0-5,25.5c-.58,7.71-1,15.44-1.49,23.16-.3,4.68-.43,9.38-1,14-.79,6.69-.11,12.81,3.44,18.88,3.09,5.27,6.83,9.43,12.13,12.3a26.37,26.37,0,0,1,4.8,2.86,49.13,49.13,0,0,0,13.94,8.1c8,3.26,16.15,6.39,24.31,9.32a118.21,118.21,0,0,0,45,6.8c4.68-.18,9.39-.25,14-.83,9.53-1.19,19.12-2.18,27.94-6.55a7,7,0,0,1,4.07-.08c14.47,2.79,28.9,2.34,43.38,0,7.86-1.29,15.79-2.18,23.71-3.06a26.67,26.67,0,0,1,14.38,2.41c5.11,2.36,10.31,4.57,15.6,6.49,9.48,3.44,19.07,6.57,28.59,9.9,2.49.87,4.44.6,6.31-1.45,7.43-8.15,15.26-15.94,21.61-25,4.58-6.53,9.17-13.05,13.56-19.71a20.27,20.27,0,0,1,8.69-7.9c4.49-2,8.73-4.58,13.22-6.57,14.7-6.51,28.35-14.59,39.77-26.06a9.28,9.28,0,0,1,4.82-2.62c12.07-2.67,22.87-8.25,33.38-14.56,15.28-9.17,28.47-20.61,38.83-35.17,4.35-6.12,8.66-12.27,12.84-18.5,3.4-5.07,6.47-10.34,8-16.38a15,15,0,0,1,2.13-4.4c5.63-8.63,4-25.73-3.54-33.61A115.67,115.67,0,0,1,526.76,272Zm-251,203.35c-11.15,1.5-22.26,3.41-33.46,4.3-7.66.62-15.44-.14-23.17-.37a21.07,21.07,0,0,1-3.72-.86c3.23-3.78,8-3.42,11.52-5.58-.49-2.19-2.26-1.63-3.32-1.51-4.47.5-8.89,1.65-12.47,4.41-6.2,4.78-13.48,6.54-20.86,7.85A157.23,157.23,0,0,1,151,485.31c-10.84-.8-21.26-3.65-31.45-7.3-6.84-2.45-13.6-5.16-20.32-7.94-7.56-3.13-13.87-7.83-17.8-15.25a4.62,4.62,0,0,0-.89-1.06c-.13-.13-.38-.13-.58-.19-2.25.93-.46,2.95-1.17,4.33-.38,0-.88.1-1.14-.1C71.21,453,66.22,443.47,66.6,436.07c.66-13.34,1.52-26.68,2.32-40a110.62,110.62,0,0,1,5.82-28.89c2.18-6.44,4.46-12.86,6.64-19.3,3.69-10.89,7.44-21.76,11-32.69q5.2-16.06,10-32.25c1.47-4.94,2.25-10.08,3.72-15a82.4,82.4,0,0,1,4.87-13.14,17.15,17.15,0,0,1,10.35-8.92c15.52-5.16,31.3-7.92,47.73-6.91,5.18.32,8.33,2.47,10,7.19.79,2.21,1.69,4.38,2.46,6.59,2.23,6.42,4.33,12.88,6.68,19.26a30.12,30.12,0,0,0,3.11,5.43c2.72,4.32,2,7.36-1.67,11.37-.83.91-2.45,1.22-3.78,1.5-7.31,1.58-14.65,3.06-22,4.58a51.63,51.63,0,0,1-6.87,1.38c-3.2.21-5.3-1.55-6.08-4.7-.4-1.59-.48-3.25-.8-4.85s-.77-3.16-1.26-5.2c3.44-2,7.27-2.89,11.32-4.5.58,1.45,1.58,3.67,2.07,4.88-.69.25-4.4-1.69-5,0-.13.39.89,1.48,1.59,1.83,3.82,1.88,7.79,3.28,12.17,2.88,1.78-.16,4.45-2,6-4.29-.37-.19-7.28,2.32-9.23.88a10.6,10.6,0,0,1-4-6.43,13.54,13.54,0,0,1-.14-1.7c1.94-2,4.19-4,6.08-6.37a7.8,7.8,0,0,0,1.76-4.45c-.82.19-3.25,2.21-3.95,2.62a19.7,19.7,0,0,0-2.62,2.15c-.63-1.15-2.31-4.11-2.75-4.91a32.07,32.07,0,0,1-.38,5.35,5,5,0,0,1-3.63,4.65,45.26,45.26,0,0,1-13.69,3,4.77,4.77,0,0,1-5.17-4.51,16.13,16.13,0,0,0-2.6-8.75,47.46,47.46,0,0,0-.55,8.46,9.66,9.66,0,0,1-.37,2.08l-2.29-.91a26.77,26.77,0,0,0-1.42,4.33,64.61,64.61,0,0,0,1.34,25.82c2.89,11.37,6,22.69,9,34a111.58,111.58,0,0,1,4.38,29.84c0,9.95-1.62,19.6-5.75,28.77-2.86,6.34-6.7,11.79-12.57,15.7-3.08,2-6,4.26-9,6.37.43,1.66,1.5,1.16,2.26.85,6.15-2.55,11.74-6,16-11.17a10.38,10.38,0,0,1,6.43-3.84,36.42,36.42,0,0,0,11.65-4.79c4-2.4,8.19-4.58,12.36-6.71a28.38,28.38,0,0,1,17.71-3.18,25,25,0,0,1,9.83,3.59c2.44,1.57,4.37,3.54,5.06,6.48.05.23.15.45.21.67,3.74,14.52,12,26.34,22.21,37l6.36,6.58a119.57,119.57,0,0,0,40.43,27.57c1.95.81,3.86,1.71,5.77,2.59.2.09.32.33.8.85C276.1,475,275.93,475.28,275.74,475.3Zm71.89,11.06c-5.17,5.75-9.66,7.07-15.71,5-22.92-7.8-45-17.56-67.12-27.32a98.31,98.31,0,0,1-27.33-18.39c-9.44-8.81-18.59-17.9-25.31-29.08a71.24,71.24,0,0,1-9.29-24.15c-.87-4.84-1.79-9.69-2.27-14.57A31,31,0,0,1,206.76,356c15-20.5,39-28.65,63.59-20,7.66,2.71,14,7.5,19.77,13.14,2,2,4.13,3.8,6.3,5.57a1.85,1.85,0,0,0,2.8-1.09,42.5,42.5,0,0,0,1-5.5c1.1-10.08,5.17-19,11-27.08,7.32-10.13,17.71-15.16,29.84-16.59a75.84,75.84,0,0,1,14,0c28.19,2,43,22.13,48.6,38.15a58.47,58.47,0,0,1,2.43,27,152.11,152.11,0,0,1-11.29,39.82c-3.31,7.77-6.94,15.4-10.36,23.12C375.52,452.83,362.26,470.06,347.62,486.36Zm191.17-170.8c-2.07.07-1.44-3.58-4.11-2.86a6.28,6.28,0,0,0-.31,1.81c.95,8.34-1.47,15.82-6,22.64-4.81,7.22-9.71,14.39-14.87,21.35-14.05,19-32.72,32-54.05,41.48-1.5.67-3,1.4-4.49,2a32,32,0,0,1-13.65,2.8c-5.47-.22-17.05,5.23-18.54,6.76,3.13.21,4.93-.83,6.81-1.27l6.06-1.45c1.06,1.53,0,2.24-.82,3a125.5,125.5,0,0,1-28.07,18.55c-6.09,3-12.23,5.81-19.09,9.06A42.56,42.56,0,0,1,389,435.2c3.53-7.93,7.25-15.78,10.65-23.75a161.49,161.49,0,0,0,10.58-34.95c1.33-7.4,2.14-14.85,1.27-22.38-.11-.89-.24-2.33.23-2.65,3.42-2.3,2.83-6.24,4-9.41a26.32,26.32,0,0,1,7.72-11.55c1.22-1,5-3.23,4.68-4.19-.17-.46-3,.41-3.69.76-5.69,3-9.16,7.9-11.29,13.83-.7,1.94-1.2,4-2,6.55-2.33-5.38-4.57-10.13-6.39-15a6.81,6.81,0,0,1,.52-4.68c3.92-8.42,10.51-13.72,19.66-15.36,5.29-.95,10.7-1.23,16.06-1.78,4.89-.5,9.85-.67,14.27-3.26,1.81-1.06,3.59-.55,5.42,0,5.71,1.75,11.56,1.72,17.4,1,1.79-.23,7.29-.07,7.21-2-.06-1.42-4-.6-5-.64-1.87-.06-3.75-.11-5.62,0-11.76.67-21.44-4.12-30.09-11.51A79,79,0,0,1,424.76,268c-2.83-5.9-5.11-12.09-7.36-18.24-3.71-10.13-7.14-20.36-10.77-30.52a67.21,67.21,0,0,0-10.51-19c-1.86-2.36-4.08-4.44-6.69-7.24l-1,2.91c-2.71-2.82-4.08-5.93-8-8.78a28.85,28.85,0,0,0,2.87,8c2.29,4.59,1.73,6.89-2.77,8.91-3.62,1.62-7.5,2.67-11.26,4-2.23.76-4.1.41-5.52-1.68a11.89,11.89,0,0,0-1.91-1.82c-.19.1.39,2.91-.25,3.52-2.25,2.19-6.1.26-6.41.8-.09.16,2.06,3.74,10.18,3.36,1.77,2,1.85,5,1.38,8.09-.51,3.33-3.66,4.2-7.6,5.3,3.1.79,5.07.76,6.62,0,3.83-1.88,7-6,9.66-12-1.44,1.08-3.19,2.2-4.95,2.25L369.31,212l11.56-2.79c1.55,3.44,3.19,6.73,4.51,10.15a4.94,4.94,0,0,1-2,6.17,37.41,37.41,0,0,1-6.93,3.36c-7,2.54-14.19,4.77-20.89,8.28A7.78,7.78,0,0,1,344,230.31c-.09-7.88-2.95-15.09-4.67-22.58-.95-4.11-2.24-8.14-3.13-12.26-.8-3.72.26-6.73,3.46-9.25a105.94,105.94,0,0,1,26.54-15.66c5.66-2.24,11.42-4.25,17.16-6.29a16.66,16.66,0,0,1,14.24,1.57,67.32,67.32,0,0,1,11.4,8.14c9.25,8.3,18.59,16.44,28.43,24.08,15.93,12.38,31.85,24.76,48.3,36.42,14.16,10,25.41,22.81,35.61,36.67,4.58,6.23,9.3,12.35,14.07,18.44A21.88,21.88,0,0,1,540,301.15C540.93,309.82,541,309.81,538.79,315.56Z"/><path class="cls-26" d="M340.8,411c-6.42-2-11.73-1.52-15.79,3.79-1.7,2.23-3.49,4.4-5.2,6.62a7,7,0,0,1-7.38,2.84c-3.21-.61-6.46-1-9.69-1.5a15.56,15.56,0,0,0-8.24,1.17c-4.62,1.9-6.83,5.57-6.35,10.51.66,6.68,4.41,11.34,11,13,9,2.25,18,2.81,26-.15,8.62-2.58,13.58-5.37,17.87-9.8a18.63,18.63,0,0,0,3.7-20.77A9.89,9.89,0,0,0,340.8,411Zm-49.74,22.65a10.39,10.39,0,0,1,1.36-4.55c1-1.69,2.65-2.53,5-2.4l5.41,17.59C294.83,443.4,290.83,439.7,291.06,433.66Zm18.12,12a3.16,3.16,0,0,1-2.29-1.31c-2.6-5.67-5.2-11.37-5.47-17.74,2.63-1.08,4.89-.1,7.17.19s4.6.69,7.25,1.1c2,5,4.53,9.9,5.77,15.57A21.17,21.17,0,0,1,309.17,445.67Zm16.34-2.49c-1.59-3.7-3.13-7.06-4.49-10.49-.76-1.92-1.25-4-1.88-6l10.34-12.76c2.24,8.79,6.56,15.35,7.94,23C334.1,440.32,330.17,442,325.51,443.18Zm19.19-19c-.29,3.52-1,6.84-4.25,10.19l-7.81-21.14c3.59-.89,6.43-.17,8.79,2.07A10.51,10.51,0,0,1,344.71,424.19Z"/><path class="cls-25" d="M345.38,327.3c-.3.25-1,.48-1.2.32-1.26-1-2.39-2.09-3.66-3-2.37-1.76-4.18-1.19-5.36,1.66A28.85,28.85,0,0,1,334,329.5c-.36.63-1.11,1.66-1.87,1.44s-1-1.67-.91-2.44c.38-3.28,1.1-6.77,4.59-7.93s6.22.93,8.61,3.27C345.09,324.46,347,326.76,345.38,327.3Z"/><path class="cls-25" d="M247,354.75c-1.1,2-1.39,6.19-3.39,6.09-2.71-.14-.94-8.09,2.11-9.4a4.84,4.84,0,0,1,3.34,0A10.19,10.19,0,0,1,255,357c.26.62-.25,1.67-.66,2.36a2.29,2.29,0,0,1-1.79-.39C251,357.36,250,355,247,354.75Z"/><path class="cls-25" d="M329.61,462.75c.95.37.79,1.36.75,1.74-.54,4.95.54,9.26,4.52,12.6.28.23,0,1.25-.19,1.82-.08.21-.87.32-1.23.19-3.14-1.15-4.74-3.68-5.6-6.71s-1.86-6.33.77-9.19C328.77,463,329,462.52,329.61,462.75Z"/><path class="cls-25" d="M182.94,475.53c-2.7,2.05-5.86,2.37-9,2.66a84,84,0,0,1-31.23-2.89c-3.81-1.11-7.57-2.41-11.33-3.71a7.59,7.59,0,0,1-2.31-1.48,1.36,1.36,0,0,1-.3-1.25c.31-.56.94-1.42,1.35-1.38a19.93,19.93,0,0,1,4.74,1.05c14.06,5.2,28.59,6.75,43.47,5.67C179.82,474.08,181.57,473.21,182.94,475.53Z"/><path class="cls-25" d="M79,375.43a13.83,13.83,0,0,1,.42,2.81q-2,16.64-4.09,33.27c-.32,2.57-1.31,4.09-2.22,3.57-1.59-.91-1.14-2.45-1-3.74,1.2-9.7,2.44-19.4,3.8-29.08C76.21,380,76.41,377.6,79,375.43Z"/><path class="cls-25" d="M135.35,338.69a18.71,18.71,0,0,1,.78,3.27,72.31,72.31,0,0,1-4.48,30.14,6.75,6.75,0,0,1-1.26,2.45,4,4,0,0,1-2.29.8c-.16,0-.54-1.08-.62-1.7a3.14,3.14,0,0,1,.37-1.33,101.63,101.63,0,0,0,6.08-30.69A5.77,5.77,0,0,1,135.35,338.69Z"/><path class="cls-25" d="M129.79,320.41a92.35,92.35,0,0,1-.6,33.35,4.77,4.77,0,0,1-.65,2,9,9,0,0,1-2,1.44,6.28,6.28,0,0,1-1-1.71,5.19,5.19,0,0,1,.17-2.07c1.68-7.8,1.79-15.74,2.16-23.66C128.08,327,127.71,324.13,129.79,320.41Z"/><path class="cls-25" d="M203.09,425.28c.15.41-.43,1-.86,1.41a1.27,1.27,0,0,1-1.23-.12,12.67,12.67,0,0,1-1.81-2.11c-3.68-5.22-8-9.7-13.86-12.51a6.79,6.79,0,0,1-1.57-1.33c-.13-.12-.23-.49-.15-.58a2.56,2.56,0,0,1,1-.84,2.38,2.38,0,0,1,1.36,0C192,411.15,200.8,418.95,203.09,425.28Z"/><path class="cls-25" d="M177.24,404.39c-.63-.92,3.08-1.36,4.49-1.31,8.47.29,15.14,4.16,20.29,10.77a9.07,9.07,0,0,1,1,2.51c-.53.25-2.33-.73-2.7-1a19,19,0,0,1-2.62-2.3c-4.94-4.62-10.64-7.51-17.52-7.75a16.62,16.62,0,0,1-2.09-.22C177.91,405.08,177.62,404.95,177.24,404.39Z"/><path class="cls-25" d="M460.62,388.43a57.77,57.77,0,0,1,4.84-3.53,99,99,0,0,0,32.24-28.54,20.32,20.32,0,0,1,3.35-3.5,2,2,0,0,1,1.9.08,2.16,2.16,0,0,1,.58,1.75,4.42,4.42,0,0,1-.88,1.86c-7.83,11.22-17.08,21-29,28a60.12,60.12,0,0,1-8.17,4C464.4,388.93,463,388.5,460.62,388.43Z"/><path class="cls-25" d="M490.9,247.54c3.37,0,5.42,1.95,7.26,4,6.73,7.44,13.36,15,20,22.53a8.45,8.45,0,0,1,1.16,2.45c.05.14-.15.47-.32.59-.35.24-.84.63-1.11.53a4.37,4.37,0,0,1-1.72-1.13Q503.49,262.05,490.9,247.54Z"/><path class="cls-25" d="M420.35,231.34a44.31,44.31,0,0,1,3.27,3.44c5.81,7.59,11.2,15.52,18.21,22.12a1.17,1.17,0,0,1,.38.57c.09.65.36,1.48.07,1.9a1.9,1.9,0,0,1-1.77.31,7.47,7.47,0,0,1-2.26-1.59A71.36,71.36,0,0,1,420.35,231.34Z"/><path class="cls-25" d="M424.86,247.74c1.36,1.55,2.35,2.53,3.17,3.63A98.79,98.79,0,0,0,448.9,272a14.21,14.21,0,0,1,2.11,1.83c.24.26.35,1,.16,1.23a3.7,3.7,0,0,1-1.68.9,2,2,0,0,1-1.31-.37c-10.16-6.65-18.34-15.1-23.49-26.23C424.6,249.17,424.72,248.9,424.86,247.74Z"/><path class="cls-25" d="M425.34,333.91a16.63,16.63,0,0,1-.87,3.48c-3.32,5.87-4.44,12.24-4.57,18.88a10.41,10.41,0,0,1-.63,2.66c0,.12-.42.24-.61.21a4.33,4.33,0,0,1-1.22-.39.8.8,0,0,1-.32-.58c-.42-8.31.22-16.35,5.92-23.09C423.3,334.75,423.83,334.65,425.34,333.91Z"/></g></g></svg>