<svg xmlns="http://www.w3.org/2000/svg" xmlns:xlink="http://www.w3.org/1999/xlink" viewBox="0 0 1200 628"><defs><style>.cls-1{fill:none;}.cls-2{isolation:isolate;}.cls-3{fill:url(#New_Gradient_Swatch_2);}.cls-4{clip-path:url(#clip-path);}.cls-12,.cls-5{fill:#244999;}.cls-6{font-size:39.98px;fill:#edc96e;}.cls-12,.cls-6{font-family:Lato-Black, Lato;}.cls-7{letter-spacing:-0.02em;}.cls-8{letter-spacing:-0.03em;}.cls-9{fill:url(#linear-gradient);}.cls-10{fill:url(#linear-gradient-2);}.cls-11,.cls-15{fill:#fff;}.cls-12{font-size:76.65px;}.cls-13{letter-spacing:-0.03em;}.cls-14{letter-spacing:-0.03em;}.cls-15{stroke:#000;stroke-linecap:round;stroke-linejoin:round;stroke-width:3.42px;stroke-dasharray:9.11 11.39 0 0;}.cls-16{fill:#5f91ff;}.cls-17{fill:#73ffda;}.cls-18{fill:#ffff45;}.cls-19{fill:#ffffae;}.cls-20{fill:#a7c7a4;opacity:0.8;mix-blend-mode:screen;}.cls-21{fill:#b8394c;opacity:0.3;}.cls-22{fill:#590f43;}</style><linearGradient id="New_Gradient_Swatch_2" x1="149.86" y1="588.73" x2="1056.35" y2="35.48" gradientUnits="userSpaceOnUse"><stop offset="0" stop-color="#c99b3b"/><stop offset="0.52" stop-color="#ffffab"/><stop offset="1" stop-color="#cea040"/></linearGradient><clipPath id="clip-path"><rect class="cls-1" x="459" width="622" height="220"/></clipPath><linearGradient id="linear-gradient" x1="642.04" y1="-16.06" x2="695.13" y2="248.22" gradientUnits="userSpaceOnUse"><stop offset="0" stop-color="#663800"/><stop offset="0.4" stop-color="#ffd373"/><stop offset="1" stop-color="#cea040"/></linearGradient><linearGradient id="linear-gradient-2" x1="599.9" y1="-7.6" x2="652.99" y2="256.68" xlink:href="#linear-gradient"/></defs><title>kuldsüda_crazy</title><g class="cls-2"><g id="Layer_1" data-name="Layer 1"><rect class="cls-3" y="-1" width="1200" height="630"/><g class="cls-4"><ellipse class="cls-5" cx="770" cy="15.71" rx="300" ry="204.29"/></g><text class="cls-6" transform="translate(702.28 104.76)">#KULDSÜ<tspan class="cls-7" x="184.87" y="0">D</tspan><tspan class="cls-8" x="214.29" y="0">A</tspan></text><path class="cls-9" d="M671.58,54.31c-8.43-3.59-19.26.49-28.45,9.54a87.22,87.22,0,0,1,6.25,12.58c8.52,21.26,7.51,42.18-1.38,52.3,10.6-2.66,22-13,29-27.69C686.78,80.66,684.34,59.74,671.58,54.31Z"/><path class="cls-10" d="M636.26,128.1c-12.76-5.43-15.2-26.35-5.45-46.73a62.63,62.63,0,0,1,12.32-17.52c-11.32-18.78-28-29.57-40.8-25-15.46,5.51-19.47,31.26-8.94,57.52S625,139.46,640.44,134a18.1,18.1,0,0,0,7.57-5.22A18.28,18.28,0,0,1,636.26,128.1Z"/><path class="cls-11" d="M649.38,76.43a87.22,87.22,0,0,0-6.25-12.58,62.63,62.63,0,0,0-12.32,17.52c-9.75,20.38-7.31,41.3,5.45,46.73a18.28,18.28,0,0,0,11.74.63C656.89,118.6,657.9,97.68,649.38,76.43Z"/><text class="cls-12" transform="translate(650.55 407.34)"><tspan class="cls-13">K</tspan><tspan x="51.7" y="0">ÕIGI EM</tspan><tspan class="cls-14" x="352.42" y="0">A</tspan></text><path class="cls-15" d="M84.56,356.72c9.35,4.78,16.66,8.18,23.72,11,33.39,13.44,68,18.64,97.36,22,7.8.88,15.66,1.6,23.26,2.29l3.61.33c-.79,2.76-1.55,5.58-2.24,8.47-3.24,13.62-6.45,27.47-9.54,40.86q-3.2,13.81-6.42,27.62c-2.11,9-4,16.47-5.87,23.52-3.26,12.11,1.1,23.08,11.65,29.35a106.75,106.75,0,0,0,12.37,6.58A147,147,0,0,0,281,540.33c1.11.07,2.59.33,4.17.61,1,.18,2,.36,3.06.51l1.19.18h20.1l1.29-.21c.94-.16,1.89-.33,2.83-.52,1.35-.26,2.62-.5,3.49-.56A169,169,0,0,0,355,532.93,46.51,46.51,0,0,0,372.77,523c8.23-7.48,9.54-16,9.19-21.78,0-.84-.08-1.68-.11-2.52a64.12,64.12,0,0,0-.92-9.81c-1.37-7.28-3-14.94-5.28-24.83q-5.15-22.36-10.35-44.7-3.15-13.56-6.29-27.13c15.58-1.59,30.37-3.79,43.24-5.84,23.76-3.77,45.22-8.19,65.62-13.49,21.06-5.48,40.8-15,60.34-29.11a100.28,100.28,0,0,0,11.44-9.83,30,30,0,0,0,8.15-30.26,59.85,59.85,0,0,0-4.12-11.07c-5-10-13-18.2-23.86-24.53A150.39,150.39,0,0,0,457.6,247.7c-2-.18-4-.42-6-.65-4.5-.52-9.14-1.06-14.08-1.18-4.1-7.2-8.4-14.16-14.68-20.41-10.11-10.08-23.82-23-40.32-33.22a119.78,119.78,0,0,0-37.32-15.13c-1.34-.3-2.69-.57-4-.82l-1.41-.25-.38-.07-2.06-.35-2.39-.36-1.26-.17-1.66-.22-.93-.24H330c-2.62-.28-5.27-.5-8-.66l.56-1c7-11.81,5.23-24.89-4.73-34.15a35.63,35.63,0,0,0-24.54-9.93,37,37,0,0,0-6.46.58c-.59.1-1.17.22-1.76.35a31.39,31.39,0,0,0-22,18.94c-3.62,9.21-2.29,19.46,3.63,28.12l.47.66c-1.75.32-3.53.68-5.35,1.12-4.22,1-8.59,2.25-13,3.65l-.14,0a185.46,185.46,0,0,0-18.33,7l-.87.38c-1.23.55-2.46,1.12-3.67,1.7l-1.26.6c-1.15.56-2.31,1.13-3.43,1.7l-1.4.72c-1.11.58-2.21,1.16-3.32,1.76l-1.4.78c-1.09.6-2.18,1.21-3.26,1.84l-.28.17c-2.13,1.24-4.3,2.57-6.62,4l-.53.34-1.38.88-1.9,1.26-.52.35-2.2,1.5-2.15,1.51-2.41,1.73-2,1.47c-.86.64-1.71,1.3-2.53,1.93l-.22.17-1.59,1.24c-.95.75-1.89,1.51-2.83,2.28l-1.45,1.19c-1.41,1.17-2.82,2.37-4.21,3.58a110.54,110.54,0,0,0-21.91,25.32c-3.93.39-8,.81-12,1.37A189.17,189.17,0,0,0,91.68,264.6a88.31,88.31,0,0,0-32,24.86c-10.46,12.92-11.23,27.19-2.22,41.28C65.26,342.87,74.11,351.37,84.56,356.72Z"/><path class="cls-16" d="M260.38,246.31c19.05,4.69,58.65,3.87,73.22-1.49a12.37,12.37,0,0,0-.27-3c-3.81-11.38-8.33-22.46-14.79-32.62-2.41-3.78-5.56-7.1-8.41-10.59a7.14,7.14,0,0,0-6.36-2.59q-7.17.41-14.35.6c-6.57.18-11.28,2.6-14.68,8.8a153.67,153.67,0,0,0-14.33,37.92A12.36,12.36,0,0,0,260.38,246.31Z"/><path class="cls-16" d="M384.89,222c-17-18.23-54.14-28.79-69.35-24.76,11.78,13.43,17.32,29.89,24,46.93C356.58,239.93,372.74,235.15,384.89,222Z"/><path class="cls-17" d="M297.65,254.28c-12.75-.4-25.49-1.1-39.06-1.7a42.24,42.24,0,0,0-1.31,4c-4.15,19.36-5.39,39-5.88,58.75A30.81,30.81,0,0,0,253,327.21c32.14,4.75,63.83,2.73,95.75-2.19,1.29-5.43-.23-10.43-.91-15.29-2.73-19.73-5.87-39.41-11.92-59.37C323,253,310.41,254.68,297.65,254.28Zm-4.81,38.94c-7.63.34-14.92-6.27-15-13.47-.05-5.88,6-15.35,14.58-15.18,7.64-.11,14.44,6.41,14.53,13.92C307,285.62,300.05,292.9,292.84,293.22Z"/><path class="cls-16" d="M254.76,245c4-15.5,8.64-31,17.9-44.71-5.64-.5-11.4.83-22.41,5-16.9,6.4-33.47,15.52-39.27,21.62C217.55,236.07,239.19,245.27,254.76,245Z"/><path class="cls-11" d="M379.12,275c4.07,0,6.76-2.62,6.57-6.29-.23-4.23-3.64-8.44-6.94-8.56s-7.52,4.17-7.71,7.85S374.8,275.06,379.12,275Z"/><path class="cls-11" d="M293,270.19c-3.88,0-8.39,4.89-8.45,9.2a8,8,0,0,0,7.56,7.78c3.94.07,9-4.72,9.15-8.61S296.86,270.22,293,270.19Z"/><path class="cls-17" d="M345.46,247.88c-1.37.63-2.68,1.4-3.9,2.06,2.66,12.4,5.5,24.3,7.7,36.31,2.25,12.27,3.88,24.65,5.88,37.59a41.2,41.2,0,0,0,5.31,0c6.58-1,13.17-1.89,19.71-3.08a168.42,168.42,0,0,0,47.4-16.23c2.56-1.33,5.39-2.4,6.61-5.57-1.78-5.76-3.6-11.59-5.39-17.43-6.48-21.15-17.44-39.33-35.1-53.08-1.4-1.09-2.9-2.07-4.56-3.24-11.59,12-26,17.92-41.34,22.13A15.27,15.27,0,0,0,345.46,247.88Zm20,15.79a22.67,22.67,0,0,1,5.32-6.8c5.43-4.65,11.49-4.08,16.2,1.21,2.91,3.27,4.66,7.08,4.61,9.74-.25,10.56-7.91,15.91-16.06,13a32.16,32.16,0,0,1-5.78-2.6C364.6,275,362.74,269.11,365.5,263.67Z"/><path class="cls-18" d="M294,177.13c0,3.72.27,7.44.59,11.15,0,.47,1.08,1.2,1.64,1.19s1.5-.87,1.48-1.33c-.21-5-.56-10.09-.91-15.13-.2-2.86.53-5.15,3.13-6.82a15.47,15.47,0,0,0,4-3.85,5.91,5.91,0,0,0-1-8.54A15.49,15.49,0,0,0,292.61,150a9.87,9.87,0,0,0-9,5.6c-1.85,3.52-.9,6.81,1.36,9.68a13.38,13.38,0,0,0,4.72,4.15C293.26,171,294,173.69,294,177.13Z"/><path class="cls-19" d="M309.36,379.75q-13.17.28-26.35-.05c-8.48-.21-16.94-1.19-25.76-.67L230.35,494.6c2-.54,3.43-1,4.89-1.31,3.9-.81,7.8-1.63,11.73-2.26,1.25-.2,2.72,0,2.82,2.13-4.82,1.22-9.73,2.29-14.51,3.75-2.68.82-6.42,1.4-6.54,4.85-.1,2.89,3.32,3.82,5.58,5a111.26,111.26,0,0,0,31.59,10.83A175.82,175.82,0,0,0,323.12,519a154.43,154.43,0,0,0,27.17-6.32,21.27,21.27,0,0,0,9.43-5.76,3.22,3.22,0,0,0-.11-4.91c-2.51-2.59-5.76-3.78-9.1-4.72-5.7-1.59-11.54-1.83-17.42-1.76-1.92,0-4,.36-6.18-1.08,2.19-1.85,4.28-2,6.38-2.14a51.52,51.52,0,0,1,23.44,3.71c1.22.52,2.44,1.17,3.67-.45-3.26-19.26-8.47-38.24-13.13-57.34-4.72-19.37-8.34-39-11.66-59.72C326.31,379,317.84,379.57,309.36,379.75Z"/><path class="cls-17" d="M524,300.1c-.45-.89-1.56-1.45-3.18-2.86,0,2.74.09,4.33,0,5.9C520.23,310.81,517,317,510.33,321c-4.56,2.76-9.1,5.55-13.77,8.1-19.13,10.45-39.75,16.52-61,20.82-43.22,8.73-86.92,13-130.94,13.87a568.19,568.19,0,0,1-93.24-5.57A596.92,596.92,0,0,1,134,341.94,135.66,135.66,0,0,1,94.5,323.23c-8.39-5.7-14.66-12.48-13.58-24.64-9.51,7.1-11,13-5.76,21.14,4.66,7.21,10.25,13.68,17.92,17.91,4.66,2.57,9.36,5.12,14.23,7.24a264.47,264.47,0,0,0,43.12,14.47c28.82,7,58.22,10.17,87.68,12.72,13.8,1.2,27.65,1.84,41.49,2.4,10.11.41,20.26.65,30.36.29a688,688,0,0,0,77.14-7.15q34.79-5.19,69-13.17a164,164,0,0,0,59.2-27,98.17,98.17,0,0,0,9.18-7.69c3.42-3.17,4.66-7.11,3-11.62A75.68,75.68,0,0,0,524,300.1Z"/><path class="cls-11" d="M210,274.78a9.1,9.1,0,0,0,9.69-7.56c.56-3.71-3.1-7.73-7.23-8-3.65-.2-7.66,3.9-8.21,8.39A6.06,6.06,0,0,0,210,274.78Z"/><path class="cls-18" d="M96,318.14c1.38.8,2.61,1.85,3.94,2.73a134.16,134.16,0,0,0,39.27,17.4A584,584,0,0,0,289.13,359c20.26.16,40.47-1,60.67-2.42a698.72,698.72,0,0,0,85.42-11.65c21.29-4.18,41.82-10.52,60.86-21.14,4.18-2.33,8.22-4.94,12.29-7.46,4.68-2.9,6.77-7.34,7.35-12.64,1-8.71-2.52-15.58-10.42-19.79-12.76-6.81-26.06-12.15-40.53-14.05-6.86-.9-13.72-1.92-20.61-2.56-4.16-.38-8.41-1.12-13.13.22.87,2.72,1.66,5.23,2.47,7.72q3.42,10.64,6.85,21.29a6.74,6.74,0,0,1-2.27,7.9,60.4,60.4,0,0,1-8.5,5.86,148.62,148.62,0,0,1-44.26,15.65c-14.4,2.57-28.93,4.53-43.44,6.44-10,1.32-20.1,2.45-30.19,3.07-34.58,2.13-68.62-1.75-102.21-9.87-13.48-3.26-26.69-7.45-39-13.9-4.67-2.44-9.17-5.23-14.12-8.06-2.16-12.25,3.31-23.2,7.1-34.92-2.26,0-4.1-.13-5.92,0a175.77,175.77,0,0,0-56.22,14.42c-4.58,2-8.68,5.15-12.95,7.84a5.73,5.73,0,0,0-2.56,4.69C84.87,305.1,87.17,313.06,96,318.14Z"/><path class="cls-17" d="M200.77,317.22c19.93,5.83,37.66,8.78,44.85,7.78-.95-24.71,2.58-49.11,7.43-73.69-6.14-1.53-11.9-2.6-17.4-4.44a98.22,98.22,0,0,1-16.1-6.85c-5.06-2.77-9.61-6.48-14.24-9.68-26.13,17.53-40.75,44.77-43.84,70.47C173.35,308.79,187,313.2,200.77,317.22Zm11.58-63.36a13.13,13.13,0,0,1,12.83,13.38C225,274.37,218.35,281,211.4,281s-13.86-6.51-13.46-12.93C198.43,260.51,205.36,253.65,212.35,253.86Z"/><path class="cls-20" d="M292.12,173.18c5.69-8.95,3.78-20.6-2.46-28.09-.35.06-.7.13-1.05.21-8,1.81-16.11,11.92-8.77,22.66,1.72,2.52,4.57,4.28,7.57,7,.08.73.18,1.51.27,2.33A24.06,24.06,0,0,0,292.12,173.18Z"/><path class="cls-20" d="M214.11,323.11c7.39-43.25,13-90.15,39.61-125.69-23.91,7.64-45.19,20.31-64.31,37a92.61,92.61,0,0,0-20.81,25.1c-.63,1.14-1.44,2.19-2.15,3.27-6.54.7-12.9,1.22-19.21,2.09A172.7,172.7,0,0,0,98.31,279,72.64,72.64,0,0,0,72,299.43c-6.26,7.73-6.57,14.36-1.19,22.77S82.76,338,91.78,342.61c7.18,3.67,14.47,7.19,21.93,10.22a16.31,16.31,0,0,1,4.09-6.56C141,323.11,181.19,321.89,214.11,323.11Z"/><path class="cls-21" d="M532.53,307.93a45.24,45.24,0,0,0-3-8.19c-3.95-7.86-10.15-13.56-17.68-18a134,134,0,0,0-55.7-18.3c-9.22-.86-18.39-2.65-27.75-1.28-1.37-2.56-2.58-4.92-3.89-7.24-3.68-6.51-7.49-13-12.8-18.28-11.52-11.49-23.6-22.34-37.49-31a103.27,103.27,0,0,0-32.4-13.12,122.54,122.54,0,0,0-12.67-2.1c35.75,32.28,43.44,87.38,43.44,133.86,30.45-2.26,69.23,7,86.45,34.44,1.62-.41,3.24-.81,4.86-1.23,20.12-5.23,38.28-14.51,55-26.62a87.19,87.19,0,0,0,9.66-8.33A14.12,14.12,0,0,0,532.53,307.93Z"/><path class="cls-22" d="M529.52,299.73c-3.95-7.86-10.15-13.56-17.68-18a134,134,0,0,0-55.7-18.3c-9.22-.86-18.39-2.65-27.75-1.28-1.37-2.56-2.58-4.92-3.89-7.24-3.68-6.51-7.49-13-12.8-18.28-11.52-11.49-23.6-22.34-37.49-31a103.27,103.27,0,0,0-32.4-13.12,140.57,140.57,0,0,0-31.72-3.06c-2.57,0-5.31.83-8.19-1.22,0-2.64.12-5.54,0-8.43-.23-4.39,0-8.46,4.27-11.2,1.26-.8,2.06-2.43,2.87-3.79,3.17-5.31,2.61-10.22-1.91-14.42a19.69,19.69,0,0,0-18.48-5.15c-8,1.81-16.11,11.92-8.77,22.66,1.72,2.52,4.57,4.28,7.57,7,.36,3.07.85,7,1.25,11,.13,1.28,0,2.58,0,4.3-2.71.41-5,.74-7.38,1.13-5.25.88-10.56,1.49-15.72,2.73-28.82,6.94-54,20.94-76.19,40.34a92.61,92.61,0,0,0-20.81,25.1c-.63,1.14-1.44,2.19-2.15,3.27-6.54.7-12.9,1.22-19.21,2.09A172.7,172.7,0,0,0,98.31,279,72.64,72.64,0,0,0,72,299.43c-6.26,7.73-6.57,14.36-1.19,22.77S82.76,338,91.78,342.61c7.33,3.75,14.78,7.36,22.42,10.43,29.92,12,61.4,17.32,93.22,20.91,12.7,1.43,25.44,2.42,38.16,3.7,2.28.23,4.84-.08,6.66,2.21-.22,1.25-.35,2.58-.7,3.85-1.93,6.92-4.18,13.76-5.85,20.75-5.42,22.78-10.61,45.62-15.95,68.43-1.88,8-3.85,16-6,24-1.37,5.08,0,9,4.44,11.62a92.12,92.12,0,0,0,10.54,5.65A130.63,130.63,0,0,0,282,524.52c2.87.19,5.71.83,8.57,1.27h17.59c2.59-.43,5.16-1.06,7.76-1.25a154.22,154.22,0,0,0,34.4-6.75,30.49,30.49,0,0,0,11.77-6.53c2.77-2.52,4.26-5.4,4-9.12a81.83,81.83,0,0,0-.78-10.33c-1.53-8.1-3.3-16.17-5.15-24.21q-9.49-41.24-19.09-82.45c-.46-2-.59-4.1-.92-6.49a34.78,34.78,0,0,1,4.91-1.13c18.34-1.37,36.53-3.93,54.67-6.82,21.57-3.43,43-7.68,64.11-13.18,20.12-5.23,38.28-14.51,55-26.62a87.19,87.19,0,0,0,9.66-8.33,14.12,14.12,0,0,0,3.94-14.67A45.24,45.24,0,0,0,529.52,299.73ZM393.68,228.41c17.66,13.75,28.62,31.93,35.1,53.08,1.79,5.84,3.6,11.67,5.39,17.43-1.22,3.17-4.05,4.24-6.61,5.57a168.42,168.42,0,0,1-47.4,16.23c-6.54,1.2-13.13,2.13-19.71,3.08a41.2,41.2,0,0,1-5.31,0c-2-12.94-3.62-25.32-5.88-37.59-2.2-12-5-23.92-7.7-36.31,1.22-.65,2.53-1.43,3.9-2.06a15.27,15.27,0,0,1,2.32-.58c15.32-4.21,29.75-10.15,41.34-22.13C390.78,226.34,392.27,227.31,393.68,228.41Zm-45,96.61c-31.92,4.92-63.61,6.93-95.75,2.19a30.81,30.81,0,0,1-1.58-11.83c.49-19.72,1.73-39.39,5.88-58.75a42.24,42.24,0,0,1,1.31-4c13.57.6,26.31,1.3,39.06,1.7S323,253,335.89,250.36c6.06,20,9.2,39.64,11.92,59.37C348.49,314.6,350,319.59,348.72,325ZM384.89,222c-12.16,13.18-28.31,18-45.33,22.17-6.69-17-12.23-33.5-24-46.93C330.76,193.18,367.92,203.74,384.89,222Zm-100-56.69c-2.26-2.87-3.21-6.16-1.36-9.68a9.87,9.87,0,0,1,9-5.6,15.49,15.49,0,0,1,10.25,3.79,5.91,5.91,0,0,1,1,8.54,15.47,15.47,0,0,1-4,3.85c-2.6,1.68-3.32,4-3.13,6.82.35,5,.7,10.08.91,15.13,0,.45-1,1.31-1.48,1.33s-1.6-.72-1.64-1.19c-.31-3.71-.55-7.43-.59-11.15,0-3.43-.73-6.14-4.35-7.7A13.38,13.38,0,0,1,284.94,165.27Zm4.49,31.38q7.18-.2,14.35-.6a7.14,7.14,0,0,1,6.36,2.59c2.85,3.5,6,6.81,8.41,10.59,6.45,10.15,11,21.24,14.79,32.62a12.37,12.37,0,0,1,.27,3c-14.57,5.36-54.17,6.18-73.22,1.49a12.36,12.36,0,0,1,0-2.93,153.67,153.67,0,0,1,14.33-37.92C278.14,199.25,282.86,196.84,289.42,196.65Zm-39.17,8.68c11-4.17,16.77-5.49,22.41-5-9.26,13.75-13.91,29.21-17.9,44.71-15.58.22-37.21-9-43.78-18.09C216.78,220.85,233.35,211.73,250.25,205.33Zm-44.95,25c4.63,3.2,9.18,6.9,14.24,9.68a98.22,98.22,0,0,0,16.1,6.85c5.5,1.84,11.26,2.91,17.4,4.44-4.85,24.58-8.38,49-7.43,73.69-7.19,1-24.92-2-44.85-7.78-13.76-4-27.42-8.43-39.3-16.41C164.56,275.11,179.17,247.87,205.3,230.34ZM85.78,295.62a5.73,5.73,0,0,1,2.56-4.69c4.27-2.69,8.37-5.84,12.95-7.84a175.77,175.77,0,0,1,56.22-14.42c1.82-.15,3.66,0,5.92,0-3.79,11.73-9.26,22.67-7.1,34.92,4.94,2.84,9.44,5.62,14.12,8.06,12.35,6.45,25.56,10.65,39,13.9,33.59,8.12,67.64,12,102.21,9.87,10.09-.62,20.16-1.75,30.19-3.07,14.51-1.91,29-3.87,43.44-6.44a148.62,148.62,0,0,0,44.26-15.65,60.4,60.4,0,0,0,8.5-5.86,6.74,6.74,0,0,0,2.27-7.9q-3.41-10.65-6.85-21.29c-.8-2.5-1.6-5-2.47-7.72,4.72-1.33,9-.6,13.13-.22,6.89.64,13.74,1.66,20.61,2.56,14.47,1.9,27.77,7.25,40.53,14.05,7.9,4.22,11.38,11.08,10.42,19.79-.58,5.3-2.67,9.74-7.35,12.64-4.07,2.53-8.11,5.13-12.29,7.46-19,10.62-39.57,17-60.86,21.14a698.72,698.72,0,0,1-85.42,11.65c-20.21,1.43-40.41,2.59-60.67,2.42a584,584,0,0,1-149.94-20.68,134.16,134.16,0,0,1-39.27-17.4c-1.33-.88-2.56-1.94-3.94-2.73C87.17,313.06,84.87,305.1,85.78,295.62ZM347.26,438.28c4.66,19.1,9.87,38.08,13.13,57.34-1.24,1.62-2.45,1-3.67.45a51.52,51.52,0,0,0-23.44-3.71c-2.1.12-4.18.28-6.38,2.14,2.21,1.44,4.27,1.1,6.18,1.08,5.88-.07,11.72.17,17.42,1.76,3.35.93,6.59,2.12,9.1,4.72a3.22,3.22,0,0,1,.11,4.91,21.27,21.27,0,0,1-9.43,5.76A154.43,154.43,0,0,1,323.12,519a175.82,175.82,0,0,1-57.21-1.42,111.26,111.26,0,0,1-31.59-10.83c-2.27-1.2-5.68-2.14-5.58-5,.12-3.45,3.86-4,6.54-4.85,4.79-1.47,9.69-2.53,14.51-3.75-.1-2.15-1.57-2.33-2.82-2.13-3.93.63-7.83,1.45-11.73,2.26-1.47.3-2.9.77-4.89,1.31L257.25,379c8.81-.52,17.28.46,25.76.67q13.17.32,26.35.05c8.48-.18,17-.75,26.24-1.19C338.92,399.32,342.54,418.91,347.26,438.28ZM524.51,319.72a98.17,98.17,0,0,1-9.18,7.69,164,164,0,0,1-59.2,27q-34.25,8-69,13.17A688,688,0,0,1,310,374.75c-10.11.36-20.25.12-30.36-.29-13.84-.56-27.69-1.2-41.49-2.4-29.46-2.55-58.86-5.76-87.68-12.72a264.47,264.47,0,0,1-43.12-14.47c-4.87-2.12-9.57-4.67-14.23-7.24-7.68-4.23-13.26-10.69-17.92-17.91-5.24-8.11-3.75-14,5.76-21.14-1.08,12.17,5.19,18.94,13.58,24.64A135.66,135.66,0,0,0,134,341.94a596.92,596.92,0,0,0,77.32,16.3,568.19,568.19,0,0,0,93.24,5.57c44-.92,87.72-5.14,130.94-13.87,21.26-4.29,41.87-10.36,61-20.82,4.67-2.55,9.21-5.35,13.77-8.1,6.7-4.05,9.9-10.21,10.44-17.87.11-1.58,0-3.17,0-5.9,1.61,1.41,2.72,2,3.18,2.86a75.68,75.68,0,0,1,3.52,8C529.17,312.6,527.93,316.55,524.51,319.72Z"/><path class="cls-22" d="M292.43,264.58c-8.57-.18-14.63,9.29-14.58,15.18.07,7.2,7.35,13.8,15,13.47,7.22-.32,14.21-7.6,14.13-14.72C306.88,271,300.08,264.47,292.43,264.58Zm-.35,22.59a8,8,0,0,1-7.56-7.78c.05-4.31,4.57-9.22,8.45-9.2s8.36,4.57,8.25,8.37S296,287.23,292.09,287.17Z"/><path class="cls-22" d="M369.8,278.17a32.16,32.16,0,0,0,5.78,2.6c8.15,3,15.81-2.39,16.06-13,0-2.66-1.71-6.46-4.61-9.74-4.7-5.29-10.77-5.86-16.2-1.21a22.67,22.67,0,0,0-5.32,6.8C362.74,269.11,364.6,275,369.8,278.17Zm9-18c3.29.12,6.71,4.33,6.94,8.56.2,3.67-2.5,6.26-6.57,6.29-4.32,0-8.26-3.38-8.08-7S375.44,260.05,378.75,260.17Z"/><path class="cls-22" d="M211.4,281c6.95,0,13.61-6.67,13.78-13.8a13.13,13.13,0,0,0-12.83-13.38c-7-.22-13.92,6.64-14.41,14.25C197.54,274.54,204.31,281.06,211.4,281Zm-7.17-13.39c.55-4.49,4.56-8.59,8.21-8.39,4.13.23,7.79,4.25,7.23,8a9.1,9.1,0,0,1-9.69,7.56A6.06,6.06,0,0,1,204.23,267.66Z"/></g></g></svg>