<svg xmlns="http://www.w3.org/2000/svg" xmlns:xlink="http://www.w3.org/1999/xlink" viewBox="0 0 1200 628"><defs><style>.cls-1{fill:none;}.cls-2{isolation:isolate;}.cls-3{fill:url(#New_Gradient_Swatch_2);}.cls-4{clip-path:url(#clip-path);}.cls-5{fill:#244999;}.cls-6{font-size:39.98px;fill:#edc96e;}.cls-12,.cls-6{font-family:Lato-Black, Lato;}.cls-7{letter-spacing:-0.02em;}.cls-8{letter-spacing:-0.03em;}.cls-9{fill:url(#linear-gradient);}.cls-10{fill:url(#linear-gradient-2);}.cls-11,.cls-13,.cls-17{fill:#fff;}.cls-12{font-size:76.65px;}.cls-12,.cls-14{fill:#ff7ca5;}.cls-13{stroke:#000;stroke-linecap:round;stroke-linejoin:round;stroke-width:3.15px;stroke-dasharray:8.39 10.49 0 0;}.cls-13,.cls-14,.cls-15,.cls-16,.cls-17{fill-rule:evenodd;}.cls-15{fill:#8d433d;opacity:0.3;mix-blend-mode:multiply;}</style><linearGradient id="New_Gradient_Swatch_2" x1="149.86" y1="588.73" x2="1056.35" y2="35.48" gradientUnits="userSpaceOnUse"><stop offset="0" stop-color="#c99b3b"/><stop offset="0.52" stop-color="#ffffab"/><stop offset="1" stop-color="#cea040"/></linearGradient><clipPath id="clip-path"><rect class="cls-1" x="459" width="622" height="220"/></clipPath><linearGradient id="linear-gradient" x1="642.04" y1="-16.06" x2="695.13" y2="248.22" gradientUnits="userSpaceOnUse"><stop offset="0" stop-color="#663800"/><stop offset="0.4" stop-color="#ffd373"/><stop offset="1" stop-color="#cea040"/></linearGradient><linearGradient id="linear-gradient-2" x1="599.9" y1="-7.6" x2="652.99" y2="256.68" xlink:href="#linear-gradient"/></defs><title>kuldsüda_crazy</title><g class="cls-2"><g id="Layer_1" data-name="Layer 1"><rect class="cls-3" y="-1" width="1200" height="630"/><g class="cls-4"><ellipse class="cls-5" cx="770" cy="15.71" rx="300" ry="204.29"/></g><text class="cls-6" transform="translate(702.28 104.76)">#KULDSÜ<tspan class="cls-7" x="184.87" y="0">D</tspan><tspan class="cls-8" x="214.29" y="0">A</tspan></text><path class="cls-9" d="M671.58,54.31c-8.43-3.59-19.26.49-28.45,9.54a87.22,87.22,0,0,1,6.25,12.58c8.52,21.26,7.51,42.18-1.38,52.3,10.6-2.66,22-13,29-27.69C686.78,80.66,684.34,59.74,671.58,54.31Z"/><path class="cls-10" d="M636.26,128.1c-12.76-5.43-15.2-26.35-5.45-46.73a62.63,62.63,0,0,1,12.32-17.52c-11.32-18.78-28-29.57-40.8-25-15.46,5.51-19.47,31.26-8.94,57.52S625,139.46,640.44,134a18.1,18.1,0,0,0,7.57-5.22A18.28,18.28,0,0,1,636.26,128.1Z"/><path class="cls-11" d="M649.38,76.43a87.22,87.22,0,0,0-6.25-12.58,62.63,62.63,0,0,0-12.32,17.52c-9.75,20.38-7.31,41.3,5.45,46.73a18.28,18.28,0,0,0,11.74.63C656.89,118.6,657.9,97.68,649.38,76.43Z"/><text class="cls-12" transform="translate(650.55 407.34)">MEIE <tspan x="0" y="91.99">NUNNU</tspan></text><path class="cls-13" d="M123.1,322.33c-11.23,33.81-16.9,60.52-18.38,86.55-1.08,19.05.4,36.23,4.51,52.53,4.74,18.79,13.77,34.16,26.82,45.69,5,4.41,9.76,8.29,14.57,11.88,10.59,7.9,23.28,13.65,39.92,18.1,14.5,3.87,29.12,6,43.25,8.05l5.22.76a443.64,443.64,0,0,0,50.71,4.24c2,.06,4,.19,6.16.32,2.9.17,5.9.36,9,.41l.94,0c8.3.14,16.89.28,25.4.28q4,0,7.92,0c5.08-.06,10-.38,14.82-.69,2.61-.17,5.21-.34,7.81-.46l4.94-.21c8.69-.35,17.68-.7,27-2.66,7.67-1.61,15.35-3.4,22.77-5.13l4.47-1,4-.92c4.8-1.09,9.75-2.21,14.78-3.68,23.43-6.85,40.49-22.92,49.32-46.47.57-1.51,1.13-3.15,1.75-5.09l.12-.39c.49-1.55,1-3.19,1.4-4.89A115.27,115.27,0,0,0,496,455.06c.34-8.34.54-17,.59-26.58.11-20.79,0-39.58-2.63-59l-.61-4.58c-.94-7-1.92-14.33-3.11-21.58-.47-2.87-1.05-5.65-1.66-8.35,16.62-9.82,27.24-24.27,31.55-42.94,3.9-16.88,1.68-32.47-6.59-46.34A60.22,60.22,0,0,0,462,216.48a61.37,61.37,0,0,0-12.88,1.38c-13.66,2.94-24.46,9.43-32.23,19.34a43.26,43.26,0,0,0-5.29-2.46c-13.67-5.2-26.09-9.75-39.72-12.87-9.41-2.16-21.12-4.84-32.92-6.23-4.06-.48-8.08-.84-12-1.18s-7.8-.7-11.56-1.15a222.28,222.28,0,0,0-26.88-1.83q-2.17,0-4.35.06c-6.7.19-14.6.43-22.48.84-6.85.36-12.49.79-17.77,1.37-10.31,1.14-20.11,3.39-29.59,5.57l-3.73.85a92.19,92.19,0,0,0-10.42,3l-.1,0c-1.48.53-2.92,1.09-4.3,1.67l-.42.18c-1.4.6-2.67,1.18-3.87,1.76l-.45.23c-8.19-11.5-21.24-19.74-35.11-21.26a53.55,53.55,0,0,0-5.79-.32,42.73,42.73,0,0,0-26.07,8.5,70.91,70.91,0,0,0-20.38,23.57c-12,22.46-11,45.26,3,65.93A97.41,97.41,0,0,0,123.1,322.33Z"/><path class="cls-11" d="M238.53,236.85a253.18,253.18,0,0,0-40.24,10.2,11.7,11.7,0,0,0-2.89,1.44A68.54,68.54,0,0,0,180,262.44a164.42,164.42,0,0,0-15.69,23.5,269.47,269.47,0,0,0-14.85,31.76c-10.7,28.08-18.06,56.93-21,86.85a160.62,160.62,0,0,0,.06,31.82,117.45,117.45,0,0,0,7.59,31.8c5,12.55,12.26,23.49,24,30.74,6.7,4.14,13.63,7.94,20.62,11.58a45.2,45.2,0,0,0,10.58,4c6.32,1.46,12.77,2.31,19.15,3.49a685.53,685.53,0,0,0,94.91,10.71c9.31.41,18.65.4,28,.21,12-.24,24.06-.68,36.07-1.38a202.71,202.71,0,0,0,21.61-2.38c14.22-2.38,28-6.64,41.84-10.61,10.35-3,19.47-7.8,26.52-16.13.84-1,1.89-1.82,2.66-2.85,1.49-2,3.37-3.88,4.19-6.14a188.76,188.76,0,0,0,5.84-18.86,60.12,60.12,0,0,0,1.32-12.26c.35-10.62.48-21.24.69-31.86h-.3c-.3-9.65-.56-19.3-.92-28.94-.16-4.33-.36-8.67-.85-13-1.11-9.57-2.41-19.11-3.63-28.67a232.61,232.61,0,0,0-9.73-41.67A89.74,89.74,0,0,0,420,264.35c-14.79-9.34-30.47-16.84-47.67-20.89-11.17-2.63-22.3-5.4-33.71-6.7-8.16-.93-16.37-1.47-24.57-2.11-12.11-.94-24.23-1.66-36.39-.82-5.62.39-11.27.39-16.89.82C253.38,235.23,245.89,235.67,238.53,236.85Z"/><path class="cls-11" d="M458.26,284.85a77.85,77.85,0,0,1,21.2-2.6h2c-.17-1.9-1.59-2.23-2.66-2.72a19.29,19.29,0,0,0-9.53-1.52l-3.53.22c.83-9.19-.18-14.66-3.42-18.41a12.07,12.07,0,0,0-1.7,6.41,63.39,63.39,0,0,1-.1,6.83c-.33,3.72-2.07,6.46-5.83,7.7-1.63.54-3.16,1.36-4.75,2.05l-.14-.09a15.1,15.1,0,0,0,3.71,5.42l-.38-.61C454.52,285.82,456.44,285.34,458.26,284.85Z"/><path class="cls-11" d="M163.47,275.47c-3.09-2.47-6.27-4.73-9.08-7.39a8.68,8.68,0,0,1-2.16-4.6,40.42,40.42,0,0,1-.29-7.08c0-1.82.18-3.64.29-5.58-3.67,1.79-3.67,1.8-4.91,13.9-3.31-.27-6.61-.68-9.92-.74a10,10,0,0,0-4.33,1.09,2.53,2.53,0,0,0-1.62,3.16c3.44.32,6.92.4,10.3,1,7,1.26,13.14,4.29,17.74,10a2.24,2.24,0,0,1,.36,2.87l-.18.34a32.79,32.79,0,0,0,4.45-7.53l0,.05A3.47,3.47,0,0,1,163.47,275.47Z"/><path class="cls-14" d="M248,493.16c0-30.25-26.92-54.77-60.14-54.77-22.5,0-42.1,11.26-52.42,27.93.23.61.45,1.23.69,1.84,5,12.55,12.26,23.49,24,30.74,6.7,4.14,13.63,7.94,20.62,11.58a45.2,45.2,0,0,0,10.58,4c6.32,1.46,12.77,2.31,19.15,3.49,9.36,1.73,18.74,3.23,28.14,4.56A51,51,0,0,0,248,493.16Z"/><path class="cls-14" d="M416,448c-32.09,0-58.1,23.85-58.1,53.28a49.67,49.67,0,0,0,7.62,26.36l3.9-.21a202.71,202.71,0,0,0,21.61-2.38c14.22-2.38,28-6.64,41.84-10.61,10.35-3,19.47-7.8,26.52-16.13.84-1,1.89-1.82,2.66-2.85,1.49-2,3.37-3.88,4.19-6.14,1.09-3,2.14-6.09,3.11-9.16C460.48,461.3,439.95,448,416,448Z"/><path class="cls-15" d="M259.06,509.37c-31.34-4.27-72.66-12.82-85.49-41.32C143.66,406.78,175,337,194.95,274.28c4.66-13.21,11.86-25.57,18.14-38.24a65.73,65.73,0,0,0-27.49,13.63c-.44.38-1,.67-1.68,1.16-.38-1.72-.64-3.09-1-4.43-3.37-12.53-15.72-23.28-28.66-24.69-7.42-.81-14.33.45-20.59,5.11a54.74,54.74,0,0,0-15.83,18.29c-9,16.85-8.66,33.47,2.14,49.43A76.49,76.49,0,0,0,140.8,315.8a15.46,15.46,0,0,1,1.46,1.25c-1.31,3.33-2.72,6.5-3.81,9.78-9,27-16.14,54.34-17.76,82.94-.91,16.15.09,32,4,47.71,3.7,14.64,10.47,27.52,21.9,37.62,4.37,3.86,8.88,7.57,13.55,11.06,10.33,7.7,22.21,12.19,34.49,15.47,15.3,4.09,31,6.14,46.68,8.44a433.78,433.78,0,0,0,48.91,4.08c5,.16,9.95.64,14.93.72,11.27.19,22.54.38,33.81.25,7.36-.09,14.71-.79,22.07-1.14,9.85-.46,19.74-.52,29.43-2.55,9-1.89,17.94-4,26.9-6.09,6-1.39,12-2.65,17.92-4.37,19.18-5.61,31.91-18.27,38.84-36.74a89.14,89.14,0,0,0,2.77-8.8C414.78,518.43,333.29,519.1,259.06,509.37Z"/><path class="cls-16" d="M250.94,329.08a55.65,55.65,0,0,0-43.87,3.25,114.32,114.32,0,0,0-36.48,28.36c-11.15,13.19-19,28.36-25.1,44.5-2.35,6.25-4,12.58-3.13,19.37.38,3.65.37,7.39,1.21,10.93,2.09,8.78,6.65,16.44,12.07,23.52a48.88,48.88,0,0,0,8.91,8.91,114,114,0,0,0,13.09,8.44c11.86,6.78,24.63,8.54,38,6.19,3.07-.54,6-1.79,9.09-2.41,6.79-1.38,12.09-5.09,16.64-10.11a91.21,91.21,0,0,0,13.31-19.5,135.52,135.52,0,0,0,9.71-22.61c3.82-12.42,7.63-24.84,11.3-37.3a68.55,68.55,0,0,0,2.75-27.56C276.44,345.87,267.15,334.51,250.94,329.08Z"/><path class="cls-16" d="M460.79,425.31a160.16,160.16,0,0,0-6.3-29.13c-6.05-19.84-18.18-35.52-33.6-48.89a88.41,88.41,0,0,0-21.46-14A32.12,32.12,0,0,0,382,330.46c-13.27,1.65-23.65,7.93-30.49,19.66a65.17,65.17,0,0,0-9,28.83,112.57,112.57,0,0,0,1.49,26.8c.67,3.93,2.1,7.76,2.47,11.71,1.24,13.18,4.88,25.69,9.81,37.88,3.33,8.23,7.65,15.8,14.84,21.37a44,44,0,0,1,3.5,3.39,32.61,32.61,0,0,0,16.6,9.06c4.54.87,9.19,1.19,12.64,1.62,5.11-.38,9-.71,12.87-1a41.45,41.45,0,0,0,13.21-3c15.28-6.33,24.73-17.73,29.29-33.48C462,444.08,461.83,434.74,460.79,425.31Z"/><path d="M430.05,265a113.69,113.69,0,0,1,19,17.18,4.43,4.43,0,0,0,.81.59c1.58-.69,3.12-1.52,4.75-2.05,3.76-1.24,5.5-4,5.83-7.7a63.39,63.39,0,0,0,.1-6.83,12.07,12.07,0,0,1,1.7-6.41c3.24,3.75,4.26,9.22,3.42,18.41l3.53-.22a19.29,19.29,0,0,1,9.53,1.52c1.07.49,2.5.82,2.66,2.72h-2a77.85,77.85,0,0,0-21.2,2.6c-1.82.49-3.74,1-5.15,2.69,6.91,10.49,11.73,21.82,15.61,34.12,7.2-5.26,13.89-10.24,19.05-16.91a44.37,44.37,0,0,0,5-8c4.52-9.47,6.14-19.35,3.61-29.72-3.55-14.56-17.82-26.24-32.86-26.55-17.76-.36-28.12,6.91-34.5,20.08C427.72,263.26,427.74,263.32,430.05,265Z"/><path d="M146.22,308c4.53-8.63,9-17.28,13.62-25.89a2.24,2.24,0,0,0-.36-2.87c-4.6-5.67-10.72-8.71-17.74-10-3.38-.6-6.85-.69-10.3-1a2.53,2.53,0,0,1,1.62-3.16A10,10,0,0,1,137.4,264c3.31.06,6.61.47,9.92.74,1.23-12.1,1.24-12.11,4.91-13.9-.11,1.94-.28,3.76-.29,5.58a40.42,40.42,0,0,0,.29,7.08,8.68,8.68,0,0,0,2.16,4.6c2.81,2.66,6,4.92,9.08,7.39a3.47,3.47,0,0,0,.6-.53c4.83-6.26,9.61-12.55,14.5-18.76a3.47,3.47,0,0,0,.73-3.27,28.9,28.9,0,0,0-4.65-10.66c-4.71-6.37-9.88-12.15-18.44-13.24-9.26-1.18-17.94-.09-24.5,7.26C120.94,248.34,115,262,118.94,278.6c3.54,14.76,12.9,24.36,26.75,30A4.3,4.3,0,0,0,146.22,308Z"/><path class="cls-16" d="M326.08,436.43c1.62,2.54,1.49,5.86,2,8.83.73,4.46-1.12,7.29-5.46,8.61a38.13,38.13,0,0,1-15.42,1.32c-5.36-.59-10.69-1.52-16-2.51a21.2,21.2,0,0,1-5.44-2,6.09,6.09,0,0,1-3.41-5.53c-.17-5.76,1.8-10.68,6.57-14.07a12.32,12.32,0,0,1,5.44-1.85C297.87,428.76,320.84,428.2,326.08,436.43Zm-25.68-2.17a4.81,4.81,0,0,0-3,3.9,3.17,3.17,0,0,0,3,3c5.21.91,10.42,1.86,15.68,2.39,2.85.29,4.24-2.57,2.5-4.91a7.34,7.34,0,0,0-3.49-2.71C311.42,434.88,301.52,433.92,300.4,434.25Z"/><path class="cls-16" d="M304.41,498c-7.35-.31-12.43-4.24-16.59-9.7-2.54-3.34-3.53-7.38-4.64-11.33a2.45,2.45,0,0,1,.84-2.14,2.4,2.4,0,0,1,2.3.09,20,20,0,0,1,3,4.17c1.18,2.18,2,4.55,3.23,6.71a13.1,13.1,0,0,0,9.69,6.85,8.52,8.52,0,0,0,5.88-1.16c4-2.26,6.18-5.94,8.06-9.89a10.36,10.36,0,0,1,1.46-2.85,3.94,3.94,0,0,1,2.71-1.25c.66.06,1.47,1.19,1.76,2a5.27,5.27,0,0,1,.19,3.15c-2,6.16-5.21,11.47-11.58,14A39.48,39.48,0,0,1,304.41,498Z"/><path d="M499.82,253.85a44.31,44.31,0,0,0-47.3-20.36C441,236,431.93,241.76,426.09,252.2c-1.26,2.26-2.54,4.5-4,7-3.07-2-5.85-3.85-8.73-5.57a48.62,48.62,0,0,0-7.44-4c-12.34-4.69-24.7-9.28-37.61-12.23-10.34-2.37-20.68-4.7-31.22-5.94-7.84-.92-15.74-1.39-23.57-2.34a195.31,195.31,0,0,0-28.87-1.66c-7.37.21-14.73.45-22.09.83-5.62.29-11.25.68-16.85,1.3-10.67,1.18-21.07,3.74-31.52,6.13a66.09,66.09,0,0,0-28.62,13.92c-.44.38-1,.67-1.68,1.16-.38-1.72-.64-3.09-1-4.43-3.37-12.53-15.72-23.28-28.66-24.69-7.42-.81-14.33.45-20.59,5.11a54.74,54.74,0,0,0-15.83,18.29c-9,16.85-8.66,33.47,2.14,49.43A76.49,76.49,0,0,0,140.8,315.8a15.46,15.46,0,0,1,1.46,1.25c-1.31,3.33-2.72,6.5-3.81,9.78-9,27-16.14,54.34-17.76,82.94-.91,16.15.09,32,4,47.71,3.7,14.64,10.47,27.52,21.9,37.62,4.37,3.86,8.88,7.57,13.55,11.06,10.33,7.7,22.21,12.19,34.49,15.47,15.3,4.09,31,6.14,46.68,8.44a433.78,433.78,0,0,0,48.91,4.08c5,.16,9.95.64,14.93.72,11.27.19,22.54.38,33.81.25,7.36-.09,14.71-.79,22.07-1.14,9.85-.46,19.74-.52,29.43-2.55,9-1.89,17.94-4,26.9-6.09,6-1.39,12-2.65,17.92-4.37,19.18-5.61,31.91-18.27,38.84-36.74A95.79,95.79,0,0,0,480,454.4c.36-8.66.53-17.34.57-26,.1-19,.06-37.94-2.49-56.79-1.16-8.58-2.25-17.17-3.65-25.71-.89-5.44-2.29-10.79-3.49-16.18-.24-1.09-.49-2,.77-2.77,2.94-1.83,5.68-4,8.66-5.73,12.73-7.51,20.83-18.43,24.15-32.8C507.35,276.32,506.24,264.62,499.82,253.85ZM118.94,278.6c-4-16.56,2-30.26,12.77-42.33,6.56-7.36,15.24-8.45,24.5-7.26,8.56,1.09,13.74,6.87,18.44,13.24a28.9,28.9,0,0,1,4.65,10.66,3.47,3.47,0,0,1-.73,3.27c-4.87,6.2-9.64,12.47-14.46,18.71a32.79,32.79,0,0,1-4.45,7.53c-4.52,8.49-9,17-13.44,25.54a4.3,4.3,0,0,1-.54.62C131.84,303,122.48,293.36,118.94,278.6ZM472.06,384.5c.5,4.3.69,8.64.85,13,.36,9.64.62,19.29.92,28.94h.3c-.21,10.62-.34,21.24-.69,31.86a60.12,60.12,0,0,1-1.32,12.26,188.76,188.76,0,0,1-5.84,18.86c-.82,2.26-2.7,4.15-4.19,6.14-.78,1-1.82,1.86-2.66,2.85-7.05,8.33-16.17,13.17-26.52,16.13-13.84,4-27.62,8.23-41.84,10.61a202.71,202.71,0,0,1-21.61,2.38c-12,.7-24,1.14-36.07,1.38-9.32.19-18.66.19-28-.21a685.53,685.53,0,0,1-94.91-10.71c-6.38-1.18-12.84-2-19.15-3.49a45.2,45.2,0,0,1-10.58-4c-7-3.64-13.92-7.44-20.62-11.58-11.74-7.25-19-18.19-24-30.74a117.45,117.45,0,0,1-7.59-31.8,160.62,160.62,0,0,1-.06-31.82c2.93-29.92,10.3-58.76,21-86.85a269.47,269.47,0,0,1,14.85-31.76A164.42,164.42,0,0,1,180,262.44a68.54,68.54,0,0,1,15.35-13.94,11.7,11.7,0,0,1,2.89-1.44,253.18,253.18,0,0,1,40.24-10.2c7.36-1.19,14.85-1.63,22.29-2.2,5.62-.43,11.27-.44,16.89-.82,12.16-.84,24.27-.12,36.39.82,8.2.64,16.4,1.18,24.57,2.11,11.41,1.3,22.54,4.07,33.71,6.7,17.2,4.05,32.88,11.56,47.67,20.89a89.74,89.74,0,0,1,38.65,49.8,232.61,232.61,0,0,1,9.73,41.67C469.65,365.39,471,374.93,472.06,384.5Zm20.69-87.72a44.37,44.37,0,0,1-5,8c-5.16,6.67-11.85,11.65-19.05,16.91-3.82-12.07-8.54-23.19-15.23-33.51a15.1,15.1,0,0,1-3.71-5.42,3.12,3.12,0,0,1-.67-.5,113.69,113.69,0,0,0-19-17.18c-2.31-1.73-2.34-1.79-1-4.45,6.38-13.17,16.74-20.44,34.5-20.08,15,.31,29.31,12,32.86,26.55C498.9,277.43,497.28,287.31,492.76,296.78Z"/><path class="cls-17" d="M236.37,400.86a55.55,55.55,0,0,0-9.18-6.06,22.46,22.46,0,0,0-7-2.31c.13-1.64.11-3.3.1-5,0-.47,0-.93,0-1.4a3.53,3.53,0,0,0-7.06,0c0,.46,0,.93,0,1.4,0,1.71,0,3.42.12,5.12a23.73,23.73,0,0,0-5.83,1.94c-.48.23-1,.43-1.45.63q-.21-.6-.46-1.18c-.37-1-.78-2.07-1.24-3.07-.08-.23-.15-.46-.21-.7a3.76,3.76,0,0,0-4.88-2.39,2.81,2.81,0,0,0-1.29,3.19,3.41,3.41,0,0,0,.07.88,18.31,18.31,0,0,0,1.08,3.2,13.44,13.44,0,0,1,1.3,2.72c0,.09,0,.17,0,.26a72.17,72.17,0,0,0-7.84,5.21l-.06-.07,0-.06-.31-.59a8.4,8.4,0,0,0-1-1.53c-.34-.4-.66-.81-1-1.23a5.55,5.55,0,0,0-3.25-3.24c-2.44-.67-4.91,2-3.7,4.34a4.52,4.52,0,0,0,.33,1.09c.89,2,2.46,3.51,3.62,5.31a3.42,3.42,0,0,0,.34.43c-1.05,1.06-2.07,2.15-3,3.32a16.89,16.89,0,0,0-2.21,4.26c-.57,1.37-.63,2.85.83,3.77s2.69.28,3.88-.64c2-1.53,3.84-3.21,5.94-4.54a159.11,159.11,0,0,1,14.75-8.81c8.3-4.06,16-2.58,22.66,3.88,1.95,1.88,3.83,3.84,5.78,5.72a15.28,15.28,0,0,0,2.5,2.05c1.42.88,2.44.51,3-1.06a11.12,11.12,0,0,0,.4-2.09C241.59,408.66,240.34,404,236.37,400.86Z"/><path class="cls-17" d="M427.25,421.48c-1.25-1.82-2.54-3.6-3.92-5.31a27.06,27.06,0,0,0,4.12-5.45,2.84,2.84,0,0,0-4.45-3.44c-.94,1.2-2,2.33-2.9,3.53a6.18,6.18,0,0,1-1,.73,40.76,40.76,0,0,0-3.29-2.88c-1-.75-2-1.45-3-2.11a14.64,14.64,0,0,0,1.65-5.42l.36-.8h0c.13-.25.25-.52.36-.81,1.43-3.63-4.5-6.05-6.25-2.64l-.41.78a2.84,2.84,0,0,0-.21.41,32.48,32.48,0,0,0-2.2,4.92,32.21,32.21,0,0,0-8.06-2.1,19.7,19.7,0,0,0-.13-2.63c.16-.74.35-1.48.45-2.06a3.71,3.71,0,0,0-.14-1.83,2.81,2.81,0,0,0-.79-1.51l-.12-.12-.2-.18a3.29,3.29,0,0,0-1.69-.75,2.76,2.76,0,0,0-.47-.05h-.33a3.42,3.42,0,0,0-2.18.8l-.21.18-.11.12a2.87,2.87,0,0,0-.79,2.4v.28l0,.55a14.68,14.68,0,0,0-.43,5.26,34.7,34.7,0,0,0-11,4.21,8.27,8.27,0,0,0-2.65,2.36q-3.46,5.29-6.62,10.77a8,8,0,0,0-.82,3.11,3.09,3.09,0,0,0,2.08,3.33,2.86,2.86,0,0,0,3.71-1.11q1-1.45,2-3c4.21-6.57,15.16-11.46,24.16-8.23a61.46,61.46,0,0,1,19.94,11.94,10,10,0,0,0,2.52,2c.79.32,2.22.42,2.67,0a5.8,5.8,0,0,0,1.22-3.16A3.6,3.6,0,0,0,427.25,421.48Z"/></g></g></svg>