<svg xmlns="http://www.w3.org/2000/svg" xmlns:xlink="http://www.w3.org/1999/xlink" viewBox="0 0 1200 628"><defs><style>.cls-1{fill:none;}.cls-2{isolation:isolate;}.cls-3{fill:url(#New_Gradient_Swatch_2);}.cls-4{clip-path:url(#clip-path);}.cls-5{fill:#244999;}.cls-6{font-size:39.98px;fill:#edc96e;}.cls-12,.cls-6{font-family:Lato-Black, Lato;}.cls-7{letter-spacing:-0.02em;}.cls-8{letter-spacing:-0.03em;}.cls-9{fill:url(#linear-gradient);}.cls-10{fill:url(#linear-gradient-2);}.cls-11,.cls-16,.cls-28{fill:#fff;}.cls-12{font-size:76.65px;}.cls-12,.cls-26,.cls-27{fill:#6a0b9b;}.cls-13{letter-spacing:-0.01em;}.cls-14{letter-spacing:-0.01em;}.cls-15{letter-spacing:-0.03em;}.cls-16{stroke:#6a0b9b;stroke-linecap:round;stroke-linejoin:round;stroke-width:3.26px;stroke-dasharray:8.7 10.87 0 0;}.cls-16,.cls-23,.cls-24,.cls-25,.cls-27,.cls-28{fill-rule:evenodd;}.cls-17{fill:#00ff8b;}.cls-18{fill:#ffff45;}.cls-19{fill:#00eef1;}.cls-20{fill:#ffff59;}.cls-21{fill:#56c382;}.cls-22{fill:#ff724a;}.cls-23{fill:#c0ffa7;}.cls-24{fill:#fdb090;opacity:0.5;mix-blend-mode:color-dodge;}.cls-25{fill:#436643;opacity:0.3;}</style><linearGradient id="New_Gradient_Swatch_2" x1="149.86" y1="588.73" x2="1056.35" y2="35.48" gradientUnits="userSpaceOnUse"><stop offset="0" stop-color="#c99b3b"/><stop offset="0.52" stop-color="#ffffab"/><stop offset="1" stop-color="#cea040"/></linearGradient><clipPath id="clip-path"><rect class="cls-1" x="459" width="622" height="220"/></clipPath><linearGradient id="linear-gradient" x1="642.04" y1="-16.06" x2="695.13" y2="248.22" gradientUnits="userSpaceOnUse"><stop offset="0" stop-color="#663800"/><stop offset="0.4" stop-color="#ffd373"/><stop offset="1" stop-color="#cea040"/></linearGradient><linearGradient id="linear-gradient-2" x1="599.9" y1="-7.6" x2="652.99" y2="256.68" xlink:href="#linear-gradient"/></defs><title>kuldsüda_crazy</title><g class="cls-2"><g id="Layer_1" data-name="Layer 1"><rect class="cls-3" y="-1" width="1200" height="630"/><g class="cls-4"><ellipse class="cls-5" cx="770" cy="15.71" rx="300" ry="204.29"/></g><text class="cls-6" transform="translate(702.28 104.76)">#KULDSÜ<tspan class="cls-7" x="184.87" y="0">D</tspan><tspan class="cls-8" x="214.29" y="0">A</tspan></text><path class="cls-9" d="M671.58,54.31c-8.43-3.59-19.26.49-28.45,9.54a87.22,87.22,0,0,1,6.25,12.58c8.52,21.26,7.51,42.18-1.38,52.3,10.6-2.66,22-13,29-27.69C686.78,80.66,684.34,59.74,671.58,54.31Z"/><path class="cls-10" d="M636.26,128.1c-12.76-5.43-15.2-26.35-5.45-46.73a62.63,62.63,0,0,1,12.32-17.52c-11.32-18.78-28-29.57-40.8-25-15.46,5.51-19.47,31.26-8.94,57.52S625,139.46,640.44,134a18.1,18.1,0,0,0,7.57-5.22A18.28,18.28,0,0,1,636.26,128.1Z"/><path class="cls-11" d="M649.38,76.43a87.22,87.22,0,0,0-6.25-12.58,62.63,62.63,0,0,0-12.32,17.52c-9.75,20.38-7.31,41.3,5.45,46.73a18.28,18.28,0,0,0,11.74.63C656.89,118.6,657.9,97.68,649.38,76.43Z"/><text class="cls-12" transform="translate(650.55 407.34)">NUTIKAIM<tspan x="0" y="91.99">DEL</tspan><tspan class="cls-13" x="142.5" y="91.99">E</tspan><tspan x="185.27" y="91.99">GEERI</tspan><tspan class="cls-14" x="402.74" y="91.99">J</tspan><tspan class="cls-15" x="435.2" y="91.99">A</tspan></text><path class="cls-16" d="M576.35,417.42a34.84,34.84,0,0,0-4.54-4.69,46.11,46.11,0,0,0-17.65-9.44c-4-1.15-7.81-2.1-11.61-2.86a19.75,19.75,0,0,0,2-10.57,59.12,59.12,0,0,0,3.06-7,20.9,20.9,0,0,0,8.34-7.75c4.28-6.87,8.59-14.37,10.13-23.69a21,21,0,0,0-3.29-15.7,71.37,71.37,0,0,0-.7-22.2,18.59,18.59,0,0,0,1.45-9.06c-.58-9.12-4.62-17.34-12-24.42a18.22,18.22,0,0,0-12.39-5.25l-.29-.24-.82-.66-.22-.17c-.76-.61-1.54-1.2-2.31-1.77l-1.26-.9c-.77-.54-1.55-1.05-2.32-1.55l-.24-.15-1-.64c-.95-.58-2-1.16-2.94-1.69l-.72-.4c-1.15-.61-2.35-1.2-3.67-1.8l-1.11-.48-.29-.12c-.82-.35-1.64-.69-2.47-1l-1.62-.6-.12,0-.92-.34q-.43-.15-.86-.26c-2.15-.71-4.15-1.27-6.1-1.72a68.75,68.75,0,0,0-15.38-1.85,51.9,51.9,0,0,0-19.8,3.79,145.49,145.49,0,0,0,.17-72.53c-4.76-19-11.92-35.15-21.88-49.34-.74-1.05-1.53-2.13-2.49-3.38l-.73-.94q-1-1.25-2-2.47l-.7-.84c-1.79-2.12-3.71-4.21-5.69-6.22L441,126q-1.35-1.35-2.75-2.67l-.34-.32A145,145,0,0,0,413,104.7c-20.12-12-42.86-18.21-67.59-18.43h-.87a121.48,121.48,0,0,0-34.84,5.47c-14.63,4.34-31.66,10.25-47.13,21.16-28.45,20.08-45.07,47.79-49.41,82.36-1.67,13.29-1.06,27.46,1.85,43.21a31.93,31.93,0,0,0-2.4,3.76l-.37-.45c-.58-.68-1.2-1.38-1.89-2.12l-.6-.63c-.49-.5-1-1-1.49-1.48l-.63-.59c-.57-.53-1.15-1-1.73-1.52l-.42-.36q-1.18-1-2.39-1.84l-.07-.05c-.73-.52-1.5-1-2.33-1.56l-.46-.28c-.73-.45-1.47-.88-2.26-1.3l-.34-.19a45.41,45.41,0,0,0-5.6-2.49l-.14,0a47.57,47.57,0,0,0-14.24-2.74q-1.34-.05-2.67-.05A67.79,67.79,0,0,0,142.36,233a113.75,113.75,0,0,0-31.89,25.24,16.81,16.81,0,0,0-6.15-3.87,19.73,19.73,0,0,0-6.38-1.27H96.71c-18.79,0-28.42,10-33.18,18.44-.38.66-.71,1.3-1,1.91-4.2,2.16-7.38,6.12-9.5,11.83-2.64,7.11-2.51,14.05-2,19.91a17.39,17.39,0,0,0,5.39,11.35l.1.34A28.62,28.62,0,0,0,61,326a48.23,48.23,0,0,0,4.34,4.83A17.64,17.64,0,0,0,73.87,343l1.4.84a43.12,43.12,0,0,0,11,5.19,31.22,31.22,0,0,0,8.33,1.16,26.7,26.7,0,0,0,8.18-1.25,19,19,0,0,0,6.2,9.66,38.26,38.26,0,0,0,3.39,9.47,23,23,0,0,0,1.17,13.75A29.72,29.72,0,0,0,118.4,390l-2.09.26c-7.83,1-18.14,2.67-28.5,6.45C75.19,401.28,65.37,409.12,58.63,420c-11,17.65-8.93,41.55,4.86,56.83a72.57,72.57,0,0,0,28.78,19.86c2.33.86,4.65,1.67,6.9,2.46,1.92.67,3.85,1.34,5.76,2a60.16,60.16,0,0,1,8.77,3.86l-3.76.5-.26,0c-10,1.3-13.94,7.73-15.4,11.45a18.09,18.09,0,0,0,7.16,21.75,45.23,45.23,0,0,0,4.34,2.57l.08,0q.64.33,1.3.63l.2.09c.45.2.91.39,1.38.58l.34.13c.44.17.88.32,1.34.46l.52.17c.69.2,1.34.37,2,.51a122.08,122.08,0,0,0,12.62,1.78h.14a19.5,19.5,0,0,0,13.52,5.41,21,21,0,0,0,3.25-.26,101.67,101.67,0,0,0,13.3-2.83,22.78,22.78,0,0,0,14.48-12.48c.58-.51,1.16-1,1.75-1.5,1.38-1.17,2.91-2.47,4.44-4A19.14,19.14,0,0,0,190,519.21c5.32-11.73,3.28-21.27.63-27.21-2.79-6.25-7.8-10.23-13.63-10.94l-.57-.51c-.86-.74-1.68-1.42-2.49-2,.93-.76,1.65-1.43,2.15-1.88a18.68,18.68,0,0,0,4.34-6l1.77-.47,4-1.06c1.64-.43,3.27-.88,4.91-1.33,3.57-1,6.94-1.91,10.25-2.59l1.77-.36c6.6-1.35,14-2.85,21.22-5.93a20.12,20.12,0,0,0,15.45,7.79q.76,0,1.52,0c1.12,0,2.2-.06,3.25-.15a18.54,18.54,0,0,0,11.79,4.87c1.1.06,2.2.1,3.29.1h0q1.29,1.85,2.76,3.67a125,125,0,0,0,27.06,24.36l2.86,1.95a76.37,76.37,0,0,0-17.6-2.45l-1.69,0a54,54,0,0,0-20.63,3.69c-2.29.93-9.27,3.76-13.55,10.94-8.55,14.33-5.79,26.6-2,34.36,7.83,15.9,20.58,26.57,29.48,33.22a34.66,34.66,0,0,0,9.55,4.94c4.22,1.42,8.44,2.66,12.52,3.85l2.89.84a21.86,21.86,0,0,0,6.18.92h.16c6.06,0,11.18-2.43,14.37-6.6a22.93,22.93,0,0,0,6.57,2.11,70.21,70.21,0,0,0,11.5,1,60.66,60.66,0,0,0,10.72-.94c8.74-1.57,14.66-7.08,16.55-15.09a37,37,0,0,0,12-6.11c.5.12,1,.23,1.55.32a21.45,21.45,0,0,0,3.45.28A20.48,20.48,0,0,0,393,554.53,145.39,145.39,0,0,0,400.33,536c2.75-9.12,1-15.76-1.72-20.31a36.66,36.66,0,0,0,.11-14.09c-.08-.4-.16-.81-.24-1.21a21,21,0,0,0,5.76,2.79c5.54,9.4,12.48,16,21.16,20.11a47.66,47.66,0,0,1,4.48,2.51,20.62,20.62,0,0,0,5.74,13.31c6.65,7.12,17.28,11.54,27.75,11.54a33.86,33.86,0,0,0,18.09-5A101.56,101.56,0,0,1,492,540a21.19,21.19,0,0,0,9.94,2.32q.68,0,1.36,0a67.91,67.91,0,0,0,12.26-1.51,30.32,30.32,0,0,0,17-11.22,20.06,20.06,0,0,0,4.4-14.36,32.08,32.08,0,0,0,7-14.76A22.3,22.3,0,0,0,556.32,485a39.58,39.58,0,0,0-.76-20.68,22.35,22.35,0,0,0-2.43-5.44,23.55,23.55,0,0,0,4.7-4.27,23.18,23.18,0,0,0,3.2-4.9h.34a21,21,0,0,0,18.39-11.81C584.57,427.9,578.38,420,576.35,417.42Z"/><path class="cls-17" d="M537.41,298c-8.66-12.33-20.71-19.38-35.35-22.1-10.56-2-20.53-.44-29.35,6.14A67.4,67.4,0,0,0,455.54,300a58.37,58.37,0,0,0-5.63,12.07c-3,8.8-1.12,17.16,3.49,25a17.13,17.13,0,0,0,4.29,4.56c1.11.86,2.71,1.07,4.09,1.58a2,2,0,0,0-.67-1.69c-6.21-5.37-7.83-12.56-7.28-20.21.53-7.46,3.7-14.08,8.21-20.05a23.21,23.21,0,0,1,12.39-8.44c11.34-3.3,21.59-.67,31,5.92,5.23,3.66,7.75,8.87,8,15.23.4,9.4-2.71,17.83-7.27,25.79a115.55,115.55,0,0,1-16.89,22.64,61.24,61.24,0,0,1-21.91,15.13c-12.76,5-24.82,4-35.19-5.94-2.24-2.15-4.48-4.31-6.58-6.58-7.68-8.29-15.22-16.69-24.57-23.25a13.84,13.84,0,0,1-4.84-6c-3.51-9.26-3.3-18.69-.05-28,.19-.54.79-.94,1.63-1.88v10.5a20.63,20.63,0,0,0,2.61-1c9.5-5.38,19.25-10.37,28.41-16.27,15.75-10.15,25.27-25,29.88-43A125.25,125.25,0,0,0,460,200.33c-3.57-18.2-10-35.5-21-50.48-16.1-21.81-37.79-35.92-63.89-43.15a106.28,106.28,0,0,0-39.47-3.47c-15.06,1.54-29.29,6.24-43.16,12.17s-26.17,14-36.39,25.27c-21.75,24-29.8,52.07-25.32,84,.22,1.54.49,3.07.8,5,3.2-2.35,6-1.74,8.86-.46a10.84,10.84,0,0,1,5.29,5.54c3.29,6.88,3.26,22.56,2.67,23.44-.48-3-.67-5.52-1.29-7.89-1.22-4.66-2.49-9.32-4.09-13.86a6.93,6.93,0,0,0-6.54-4.75c-2.62-.14-4.26,1.59-3.87,4.15a39.06,39.06,0,0,0,.94,3.81c2.11.47,3.86.44,5.31-1.17a2.27,2.27,0,0,1,1.68-.6,2.21,2.21,0,0,1,1.4,1,1.32,1.32,0,0,1-.38,1.24c-2.27,1.22-2.48,3.57-3.24,5.63-2.63,7.18-3.68,14.69-4.18,22.23-.41,6.17-.25,12.39-.15,18.58a11.33,11.33,0,0,0,1.34,4.56c.62,1.27,1.78,1.25,2.67.08a6,6,0,0,0,.81-1.67c2.33-6.67,4.63-13.35,7-20,.29-.81.71-1.58,1.06-2.37.38,7.76-2.2,14.74-4.69,21.7s-5.43,13.93-8.51,21.75L245,298c-.56,2.95-5.12,11.67-7.08,13.43-7.79,7-16.76,11-27.41,10.49-12.63-.66-19.09-10.36-14.8-22.22,1.52-4.2,3.45-8.24,4.92-12.45a72.36,72.36,0,0,0,3.62-12.44c1.15-7.36.76-14.78-3.75-21.1a28.06,28.06,0,0,0-21.62-12.24c-11.25-.78-21.64,2.3-31.26,7.93a110.44,110.44,0,0,0-22,17.16c-.83.83-1.58,1.74-2.37,2.61l.29.38,3.62-1.6a36.66,36.66,0,0,1,26.5-1.33,19,19,0,0,1,12.14,10.74c2.64,5.82,3.39,11.78.55,17.61-2.7,5.56-6,10.82-8.92,16.28-2.56,4.8-5.17,9.6-7.33,14.58s-.91,10,2.14,14.44a26.77,26.77,0,0,0,3.68,4.17c10.32,9.78,22.71,12.14,36.26,9.71a65.8,65.8,0,0,0,20.56-7.4c3.84-2.14,7.86-3.62,12.38-3.47,6.88.23,10.13,4.83,7.75,11.32a39.54,39.54,0,0,1-7.81,13,117.23,117.23,0,0,1-32,25.19c-15.72,8.32-32.68,11.49-50.13,12.51a253.05,253.05,0,0,0-30,3.15c-7.57,1.36-15.12,2.76-22.25,5.84a37.79,37.79,0,0,0-17.27,14.78,30.32,30.32,0,0,0,3,36,56.63,56.63,0,0,0,23,15.42c4.19,1.53,8.43,2.93,12.62,4.48a66.34,66.34,0,0,1,16.44,8.59,20.13,20.13,0,0,1,7.39,9.12c2.4,6.43.84,11.69-4.65,15.72-4.06,3-8.64,3.4-13.47,3a29.07,29.07,0,0,0-6.21.44,2.17,2.17,0,0,0-1.51,1.37A2.33,2.33,0,0,0,111,525a11.71,11.71,0,0,0,3.34,1.56,65.24,65.24,0,0,0,24.76,1.33A55.41,55.41,0,0,0,157,523c5.95-2.94,10.27-7.42,12.07-13.9,1.6-5.77.83-11-4-15.21a38.81,38.81,0,0,0-11.22-6.48c-5.17-2.09-10.36-4.14-15.54-6.21C129,477.55,126,467,129.35,458.86c3.08-7.56,9.3-10.53,16.74-11.93,8.56-1.61,17.09-.25,25.61.29,12.15.78,24.26,1.38,36.33-1,11.44-2.27,19.93-8.59,25.82-18.44,6.52-10.89,11.22-22.66,16.19-34.29,3.17-7.41,6.33-14.84,10-22,1.87-3.71,4.65-7,7.25-10.28a4.4,4.4,0,0,1,5.41-1.31c1.85.8,2.36,2.56,2.22,4.35a69.56,69.56,0,0,1-1.22,10.27c-3.18,13.63-7.35,27-8.82,41-.92,8.79-1.63,17.56.41,26.29,1.76,7.54,4.07,14.94,9,21a90,90,0,0,0,12.36,12.86c7,5.73,14.51,10.82,21.9,16a48.84,48.84,0,0,1,11.67,11.39c4.67,6.51,3,14-4,18.05a16.94,16.94,0,0,1-13.31,1.61c-4.07-1.08-8.09-2.36-12.08-3.73a54.73,54.73,0,0,0-23.51-2.42A35.15,35.15,0,0,0,257,519.5c-4.69,2-7.36,8.22-6.39,12.59,2.76-.54,5.5-1.45,8.26-1.53a48.59,48.59,0,0,1,19.94,3.9c4.7,1.93,9.31,4.08,14,6.1,15.07,6.5,30.56,8.06,46.55,4,14.46-3.69,25.07-12.09,31.66-25.52a20.34,20.34,0,0,0,2.28-11.87A29.82,29.82,0,0,0,362.88,488c-3.56-3.07-7.52-5.68-11.24-8.58-6.55-5.11-13.37-9.93-19.5-15.51-10.06-9.16-14.37-20.91-13.43-34.48.6-8.7,2.91-16.93,8.66-23.72a46.93,46.93,0,0,1,7.82-6.76,6.4,6.4,0,0,1,3.48-.49c6.3-2,13-.07,18.64,3.22a3,3,0,0,1,1.07,0,33.71,33.71,0,0,1,14.72,6.77c6.26,5,10,11.75,12.69,19,4,10.54,7.59,21.24,11.21,31.92,2.62,7.74,5,15.58,8.6,22.94,1.49,3,3.55,4.94,7.21,4.88,1,0,2.21.86,3.12,1.57,2.22,1.74,4.13,3.94,6.52,5.38a183.16,183.16,0,0,0,16.28,9c11.71,5.55,24,7.94,36.85,4.87,7.72-1.84,14.89-4.73,20.43-10.76a24.36,24.36,0,0,0,6.73-14.26c-1.13,1-1.9,1.8-2.71,2.5-5.55,4.84-11.81,6.48-19,4.42a35.14,35.14,0,0,1-12.48-6.43,52.32,52.32,0,0,1-10.73-11.81A114.73,114.73,0,0,1,444.64,445c-3.06-8.9-5.71-18-8.26-27-6-21.53-16.35-40.41-33.56-55.12a11.58,11.58,0,0,1-1.23-1.46c3,.08,5.24,1.57,7.36,3.19,11.76,9,19.93,20.67,25.36,34.31,1.27,3.18,3.12,5.19,6.33,6.09,1.07.3,2.11.74,3.19,1a93.33,93.33,0,0,0,37,1.14c15.45-2.6,28.36-10,38.89-21.71,6.74-7.47,11.42-16.21,16.18-24.91,5.41-9.89,9.18-20.32,9.63-31.74C545.94,317.69,543.9,307.26,537.41,298ZM369.15,316.31a43.35,43.35,0,0,1-5.64.63c-2.25-.14-3.86-.15-5.46-.36-6.78-.89-12-4-15.43-10.18-3-5.36-5.81-10.62-6.11-16.91a25.72,25.72,0,0,1,7-19c7.54-8.37,17.27-12.59,28.17-14.56,9.25-1.67,16.9,1.23,23.05,8.09,4.15,4.63,5.34,10.53,6,16.48a24.86,24.86,0,0,1-6.89,20.82C387,308.51,379,314,369.15,316.31Z"/><path class="cls-18" d="M187.34,359.34c-12,1.13-23.22-1.79-33.25-10.66-8.74-7.73-12.22-16.85-6.35-28.59,2.43-4.86,5.52-9.4,8.17-14.16,2.46-4.43,5.21-8.78,7-13.48,3.75-9.76-1.56-19.66-11.63-22.38a34.29,34.29,0,0,0-36.73,12.72c-2.8,3.75-4.92,8-7.31,12.07-2.14,3.63-4.1,7.37-6.36,10.92a27.69,27.69,0,0,1-9,8.75c-7.53,4.62-15,2.57-19.07-5.3a27.24,27.24,0,0,1-2.68-17c.22-1.4.36-2.81.65-5-1,.92-1.5,1.16-1.71,1.54-2.73,4.78-2.61,10-2,15.19a2.67,2.67,0,0,0,1.67,1.71c2,.56,2.37,1.94,2.49,3.67a13.3,13.3,0,0,0,3.89,8.64,55.18,55.18,0,0,0,5.32,4.65c1.38,1.08,2.28,2.1,1.68,4.06a2.86,2.86,0,0,0,1,2.46c3.71,2.6,7.65,4.59,12.43,4.06,2.88-.32,5.24-1.16,6.53-4.1a3.83,3.83,0,0,1,2.42-2c4.17-.74,7.13-3.32,10-6.07,3.91-3.71,7-7.93,8.29-13.27l-.08,0,.09-.07v.06c5.13-1.06,6.13-2,7-7.14a11.9,11.9,0,0,0,.22-4.43c-1.18-5.16,1.62-8.41,5.11-11.4.28-.24.54-.52.84-.73,9-6.41,19.19-2,21.27,8a14.56,14.56,0,0,1-3.84,13.4A91.18,91.18,0,0,1,142,315.63c-6.52,5-12,10.71-15.39,18.31a4,4,0,0,1-2.26,2.15c-1.52.31-3,.43-3.68,2a23.34,23.34,0,0,0-1.49,4.53c-.36,1.83.5,3,2.36,3.62,3.6,1.15,4.19,1.76,4.17,5.44a19,19,0,0,0,2.24,8.91c.73,1.43,1.41,2.9,2.21,4.3a4,4,0,0,1,.19,3.86c-2.17,5-1.75,7.59,2.32,11.17,3.48,3.07,7.27,5.71,12.43,3.8a4.2,4.2,0,0,1,2.83.38c3.27,1.48,6.52,3,9.69,4.7a17.4,17.4,0,0,0,10,2.31c3.41-.31,6.58.06,7.25,4.54,1.47-.49,2.63-.86,3.78-1.27a98.35,98.35,0,0,0,19.48-9.52C198.81,375.1,195.54,364.48,187.34,359.34Z"/><path class="cls-18" d="M500.68,300.66c-1.83-1.23-3.51-1.78-5.76-.45a14.92,14.92,0,0,1-9,1.8c-1.58-.14-3.13-.55-3.57-2.16-.32-1.17,0-2.53.12-4-7.23.32-13.53,2.43-18,8.65a36,36,0,0,0-5.94,12.72,23.65,23.65,0,0,0,1.73,16.64,29.27,29.27,0,0,0,2.77,3.79,74.43,74.43,0,0,1,2.43-7.92c1-2.38,2.26-2.79,4.75-2a2.84,2.84,0,0,0,3.07-.43c2.52-2.16,4-6.36,2.75-9.39a4.67,4.67,0,0,1,1-5.46,21.11,21.11,0,0,1,10.46-6.08c1.14-.26,2.53.54,3.81.86.91.23,1.9.81,2.72.63a27.81,27.81,0,0,0,10.31-4.65C502.89,302.17,501.79,301.41,500.68,300.66Z"/><path class="cls-19" d="M468.17,314c-2.28,1.34-3.39,3.49-3.88,6.46.05.17.11,1.11.41,1.2a2.69,2.69,0,0,0,2-.23,8.89,8.89,0,0,0,3.65-6.2C470.58,313.85,469.44,313.22,468.17,314Z"/><path class="cls-19" d="M538.21,291.23l9,14.85C547.51,299.5,542.79,291.73,538.21,291.23Z"/><path class="cls-20" d="M235.87,242.9c-5.12,1.45-7.68,4.58-9.21,8.68a3,3,0,0,0,.39,2.36c2.94,4.29,2.79,9.1,2.52,13.94a5.69,5.69,0,0,1-2.73,5,2.45,2.45,0,0,0-1,2c.77,3.85,1.89,7.59,4.65,10.64C230.29,271.1,231.23,257,235.87,242.9Z"/><path class="cls-19" d="M493.49,297.63c-5.45-2.27-9.43-1.64-8.83,1.09C485.13,300.9,489.42,299.58,493.49,297.63Z"/><path class="cls-19" d="M542.62,365.21c2.3-4.51,4.54-9.07,6.52-13.73a13.36,13.36,0,0,0,.56-5.1,9.52,9.52,0,0,0-1-2.78l-10.48,24.14A4,4,0,0,0,542.62,365.21Z"/><path class="cls-19" d="M173.8,498c1.23,5,.39,9.85-.86,14.69C176.1,508.76,176.68,501.25,173.8,498Z"/><path class="cls-18" d="M525.92,386c-7.09,8.09-14.92,15.24-24.81,19.85-19,8.85-38.65,8.65-58.58,4-1.37-.32-2.68-.89-4.37-1.46,1.09,3.48,2.14,6.39,2.89,9.38.49,1.94,1.53,2.5,3.41,2.56,4.09.14,8.17.57,12.25.77,2.47.12,4.36.78,4.95,3.51.37,1.73,1.54,2.37,3.29,2.31,2.48-.09,5,.18,7.44-.11,3.81-.46,7.91-.91,9.81-4.94,1.31-2.79,3.42-3.92,6.16-4.78a61.2,61.2,0,0,0,19-10c1.33-1,2.38-1.87,4.29-1.24a4.3,4.3,0,0,0,3.42-1q5.67-4.79,11-10a4.2,4.2,0,0,0,1.13-4.44,7.45,7.45,0,0,1,.24-3.9,30.84,30.84,0,0,1,1.93-4.29l-.27-.17C528,383.38,527,384.72,525.92,386Z"/><path class="cls-17" d="M86.3,312.67c6.89-2.46,11-7.79,14.23-14.38a13.75,13.75,0,0,0-1.57-.11c-6.57.53-10.62-3.17-10.63-9.74,0-6.34,2.84-11.41,7.07-15.86.91-1,1.83-1.89,2.74-2.84-1.29-.94-3.71-.82-5.23-.33-7.65,2.48-13.8,6.8-16.47,14.8a58.68,58.68,0,0,0-2.55,10A21.05,21.05,0,0,0,76.4,307.9C78.63,311.84,82.65,314,86.3,312.67Z"/><path class="cls-21" d="M338.67,398.42a2,2,0,0,1,.94.21c-9.64,7.63-15.88,17.12-16.85,29.53-1,12.19,2.37,22.8,11.31,32,.63-6.79,3.17-11.39,6.89-13a66.14,66.14,0,0,0-2.42,8.06c-1,5.89,0,11.51,6.72,13.81-.44-20.38,23.27-32.27,42.68-22.12a9.22,9.22,0,0,0-.24-1.88c-2.21-6.06-4.45-12.1-6.68-18.15-4.2-11.42-12.24-19-23.33-23.66a20.24,20.24,0,0,1-1.83-1,4.06,4.06,0,0,1,1.46-.56C351.69,398.36,345,396.38,338.67,398.42Z"/><path class="cls-18" d="M178.08,451.8c-5.32-.37-10.63-.83-16-1-4.81-.15-9.63-.09-14.44.15a17.8,17.8,0,0,0-9.65,3.53c-8.22,6-6.81,19,1.8,22.42,4,1.58,8,3.33,12,5l.47-.47c-.55-1.09-1.13-2.16-1.64-3.27a14.16,14.16,0,0,1-.88-9.8c.88-3.25,2.93-3.88,5.34-1.62a3,3,0,0,0,3.66.74c1.35-.61,2.69-1.26,4-2a3.6,3.6,0,0,0,1.79-3.4c.11-4.06.79-5,4.59-6.09,4.13-1.23,8.3-2.28,13.3-3.64C180.46,452.1,179.27,451.88,178.08,451.8Z"/><path class="cls-19" d="M141.87,461.81c-2.65,1.71-2.73,9-.46,9.05,3.46,0,3.16-5,2.89-7.9C144.14,461.15,143.37,460.84,141.87,461.81Z"/><path class="cls-19" d="M152.75,530l-14,2.89C143.69,533.37,148.49,532.91,152.75,530Z"/><path class="cls-20" d="M374.76,261.25a7.78,7.78,0,0,0-4.26-.7,43.07,43.07,0,0,0-22,11,24.25,24.25,0,0,0-6.6,10.2c-2.93,9.21-.07,17,5.85,24.09,3.42,4.11,7.78,5.82,13,6.3,8.44.78,15.51-2.42,22.19-7a15.15,15.15,0,0,0,6.49-11.22c.23-1.84.22-3.71.36-6.46-.3-2.34-.27-5.67-1.21-8.69C386.21,271.24,382.5,264.56,374.76,261.25Z"/><path class="cls-21" d="M226.63,347.74a6.76,6.76,0,0,0-2.94,0c-2.95.88-5.88,1.83-8.74,2.94-5.65,2.18-11.1,5.06-16.91,6.64a63.79,63.79,0,0,1-10.7,2c8.2,5.15,11.47,15.76,10.76,25.53a124,124,0,0,0,21.52-17.45,42,42,0,0,0,9.76-14.81C230.61,349.39,230,348.31,226.63,347.74Z"/><path class="cls-19" d="M158.7,361.34c-1.47-.18-2,.63-1.84,2,.32,3.84,4.68,8,9.12,8.1.52-.32,2-.71,2.41-1.6a4,4,0,0,0-.31-3.37C165.91,363.17,162.51,361.8,158.7,361.34Z"/><path class="cls-19" d="M185.39,382.36a2.8,2.8,0,0,0-3.3-2.35,23.34,23.34,0,0,0-6.06,1.32c-1.63.59-3.29,1.8-2.68,3.84s2.59,1.74,4.16,1.62a23.37,23.37,0,0,0,5.74-1.28A2.92,2.92,0,0,0,185.39,382.36Z"/><path class="cls-21" d="M263.27,401.64c2.12-10.06,4.85-20,7.27-30,.62-2.57,1.13-5.18.2-8.15-.76.59-1.25.8-1.5,1.18-2.21,3.43-4.82,6.68-6.49,10.36-5.69,12.53-10.91,25.28-16.55,37.83-4.58,10.19-9.56,20.2-17.76,28.14-.12.11,0,.43,0,.48l7.37,2c8.67-20.13,13.61-29.73,16.81-32.21-.32,1-.47,1.74-.74,2.37-3,7.07-6.17,14.08-9,21.22a90.77,90.77,0,0,0-3.49,11.35c-.65,2.55,0,3.39,2.47,3.23a45.76,45.76,0,0,0,8-1.43c.51-.12,1-1.26,1.09-2,.13-2-.11-4,0-6a16.44,16.44,0,0,1,2.82-8.72,5.61,5.61,0,0,1,.36,2.23c.23,4.58.26,9.19.76,13.74.73,6.67,2.64,8,8.81,6.68a1.07,1.07,0,0,0,.44-.3c-1.26-5.78-2.88-11.16-3.54-16.65C259.15,425.16,260.81,413.31,263.27,401.64Z"/><path class="cls-18" d="M563.91,429.82c-.18-2-2.65-3.07-4.2-4.41a26.73,26.73,0,0,0-11.59-5.69,186.4,186.4,0,0,0-18.59-3.6,39,39,0,0,0-22.16,3.21c-7.82,3.76-12.12,10.47-11.28,19.14a51.68,51.68,0,0,0,3.1,12.93c2.43,6.49,4.89,12.93,6.77,19.64,3,10.74.91,20.09-6.48,28.3-2,2.24-4.35,4.2-6.54,6.3,3.78,2.81,4.24,5.37,1.25,8.71-3.69,4.14-8.3,6.71-14,6.65-3.7,0-5.12-2.22-4-5.66.25-.77.5-1.53.82-2.54-3.76.49-7.17,1.27-10.59,1.32a60.23,60.23,0,0,1-29.41-6.7c-4.64-2.46-9.16-5.17-13.73-7.77a23,23,0,0,0,8.8,7.29c3.74,1.92,7.41,4,11,6.22a17.37,17.37,0,0,1,3.73,3.58c1.35,1.57,2,3.31,1,5.47-1.18,2.52-.18,4.51,1.91,6.17,5.5,4.38,15.47,6.74,23.62,1.67,6.65-4.13,14.4-6.48,21.67-9.62,1.94-.84,3.55-.4,4.18,1.65s2,2.57,4,2.44c1.36-.09,2.73,0,4.09-.16a16.35,16.35,0,0,0,10.6-4.82c1.11-1.16,1.66-2.33.93-4-2.28-5.25-2.18-5.6,2.24-9.35a15.22,15.22,0,0,0,5.62-9.74,93,93,0,0,1,2-10.57c.83-3.14,2.65-3.83,5.16-2,1.56,1.15,2.65.67,3.48-.43a8.33,8.33,0,0,0,1.79-4A48.34,48.34,0,0,0,539,471a6.57,6.57,0,0,0-3.28-5.08,25.88,25.88,0,0,1-6-5.47c-3.63-4.57-4.05-9.75-1.74-15.07,1.8-4.15,4.23-4.68,7.67-1.86a6,6,0,0,0,7.23.44c2.18-1.45,2.38-2.63.9-4.81a14.29,14.29,0,0,1-1.81-3.2,3.44,3.44,0,0,1,2.65-4.8,9.75,9.75,0,0,1,2.93-.08c3.83.28,7.66.62,11.5.91C560.84,432.09,564.14,432.33,563.91,429.82Z"/><path class="cls-19" d="M529.45,425.39a6.48,6.48,0,0,0-7.7,3.95c-.67,1.92-.07,2.89,1.93,2.94a8.8,8.8,0,0,0,6.76-2.52,4.18,4.18,0,0,0,1.05-3.2C531.38,425.93,529.83,425.49,529.45,425.39Z"/><path class="cls-19" d="M516.12,470.46a17.39,17.39,0,0,0-1.34,10.12c.21,1.52,1.08,2.74,2.54,2.71a4,4,0,0,0,3-1.64,12,12,0,0,0,1.84-6.17,10.16,10.16,0,0,0-1.67-5.58C519.17,468,517.09,468.41,516.12,470.46Z"/><path class="cls-19" d="M479.78,515.69c-.33,1.43.13,2.14,2.28,2a20,20,0,0,0,8.38-3.93,9.24,9.24,0,0,0,2.23-2.41c.67-1.09.54-2.08-1-2.51C487.81,507.76,480.66,511.85,479.78,515.69Z"/><path class="cls-22" d="M395.53,290.33a27.75,27.75,0,0,0-3.35-22.44,16.55,16.55,0,0,0-12.43-7.6c11,8.56,14.49,20.13,13.86,33.6A9.9,9.9,0,0,0,395.53,290.33Z"/><path class="cls-19" d="M507,505.56c1.89,2.3,9.8-3.65,7.53-6.57C512.1,495.83,503.59,501.39,507,505.56Z"/><path class="cls-19" d="M511.74,454.3c1.43.28,2.34-1.83,2.37-5.4-.13-2,.1-4.32-1.83-6-1.64-1.44-3.18-1.21-3.58.89a16.48,16.48,0,0,0,.17,5.81C509.2,451.45,510.39,454,511.74,454.3Z"/><path class="cls-18" d="M371.67,491.41c6.29,8.62,8.56,18.16,4.24,28.4a48.09,48.09,0,0,1-18.74,22.55c-11.49,7.28-24.26,10.06-37.62,9.65a73.31,73.31,0,0,1-29.46-7.05c-4.92-2.34-10-4.43-15-6.39a40.91,40.91,0,0,0-17.52-2.68c-3.77.24-5.24,2.56-3.82,6.11a27.34,27.34,0,0,0,2.16,3.9c3.51,5.79,8.57,10.25,13.07,15.2,7.73,8.49,18.13,11.23,28.61,13.93.18,0,.44-.17.81-.33-1-3.06-3.11-5.23-5.39-7.34-2.64-2.44-5.33-4.86-7.7-7.54-1.17-1.32-2.34-3.22-2.34-4.85,0-2.68-1.34-3.74-3.39-4.59-.8-.33-1.57-.73-2.38-1-5.13-2-5.46-1.87-8,2.71a3.66,3.66,0,0,1-1.57-4.82,4,4,0,0,1,4.43-2.68,16.73,16.73,0,0,1,5.41,1.13,66.73,66.73,0,0,1,11,6.09c7.21,5.33,14.79,9.53,23.86,10.47,3.11.32,5.11,2,5.68,5,.5,2.61,2.08,3.51,4.44,3.53,4.57,0,9.15.23,13.7,0,4.39-.25,4.93-1.12,4.86-5.64-.08-5,.58-6,5.26-7.57a13.45,13.45,0,0,1,3.22-.88c5.7-.46,9.94-3.6,13.71-7.5,3.62-3.74,3.85-3.82,7.72-.45,2.11,1.84,4.29,1.74,6.16-.33a8.18,8.18,0,0,0,1.26-1.84c2.85-5.79,5.47-11.64,6.31-18.16.33-2.54-.28-4.55-2.29-5.83-2.35-1.5-2.69-3.17-1.7-5.64,5.13-12.78-2.25-31.24-18.82-36C365.14,484.34,368.86,487.55,371.67,491.41Z"/><path class="cls-19" d="M128.59,281.54c1.19,1.42,9.54-4.29,7.95-6.66C135.41,273.2,126.75,279.33,128.59,281.54Z"/><path class="cls-19" d="M121.16,291a2.42,2.42,0,0,0-1.74.93,36.38,36.38,0,0,0-2.72,6.39c-.21.72.3,2.4,1.28,2.7s2-.69,2.38-1.38C121.32,298,124,292.32,121.16,291Z"/><path class="cls-19" d="M138.11,328.87A8.26,8.26,0,0,0,140.2,325c0-1.29-.63-1.33-1.41-1a6.72,6.72,0,0,0-3,4C135.75,330,137.69,329.2,138.11,328.87Z"/><path class="cls-19" d="M139.23,351.23c1.57-.4,2.49-1.65,2-3.93a17.18,17.18,0,0,0-1.78-4,1.92,1.92,0,0,0-3.63.76,22.11,22.11,0,0,0,.63,5.41A2.21,2.21,0,0,0,139.23,351.23Z"/><path class="cls-19" d="M89.88,324.9c-.51.2-2.62,1.22,0,2.68s7.26.54,7.56-1.75C97.61,324.21,92.41,323.92,89.88,324.9Z"/><path class="cls-19" d="M108.56,309.62c-2.91,1.19-5.45,2.95-6.72,6-.62,1.47.14,2.44,1.7,2.43,2.89,0,6.83-4,6.79-6.85C110.32,310,109.85,309.09,108.56,309.62Z"/><path class="cls-19" d="M136.42,371c-1.9.17-2.6,1.22-2,3a7.54,7.54,0,0,0,7,5.06c2.1,0,2.93-.67,2.72-2.08C143.72,374.28,139.14,370.7,136.42,371Z"/><path class="cls-23" d="M303.88,167.65c25.75-22.72,68.92-40.21,42.09-49.3-5.21-1.76-36.14.3-60.89,17.42-30.61,21.17-53.5,59.71-27.28,75.19C273.9,220.46,283.65,185.49,303.88,167.65Z"/><path class="cls-24" d="M113.67,478.89c-28.16-5.65-39.63-24.67-32-38.67s24.38-22,37.85-24C112,427.56,75.86,447.56,113.67,478.89Z"/><path class="cls-24" d="M277.4,421.21c-8,19.1,6.79,37.55,14.54,45.61s22,21.05,24,18.3-13.75-18-21.5-30.75S279.36,416.56,277.4,421.21Z"/><path class="cls-25" d="M269.61,420.55c5.23-18.56,17.57-59.33,1-63.92-9.46-2.61-23.55,6.82-28.79,14.43-6.66,8.56-10,19-18.56,26.17-20.46,16.65-43.78,23.32-69.47,28.55-13.32,2.85-27.12,8.56-31.88,20.94-7.61,20.94,13.8,32.83,23.79,49,6.19,9.52-3.81,20.94-13.32,27.12a39.81,39.81,0,0,1-20.61,6.89,15.61,15.61,0,0,0,3.88,1.45c4.59,1,9.3,1.34,14,1.86,1.65.18,3,.35,4.07,2a6.53,6.53,0,0,0,6.79,3,89.23,89.23,0,0,0,11.61-2.44,9.69,9.69,0,0,0,6.87-6.76,6.42,6.42,0,0,1,2.06-2.41c2.29-2.07,4.76-4,6.92-6.14,1.33-1.35,2.41-2.56,4.55-2.7a6.46,6.46,0,0,0,5.66-3.73c2.45-5.4,3.09-10.94.59-16.54-.8-1.79-2.26-3.65-4.1-3.31-3.51.65-4.75-1.89-6.73-3.6a39,39,0,0,0-5.37-4c-4-2.4-6.57-6-8.5-10-.68-1.44-.71-3.2-1.1-5.06,6.14,1.83,10.42-.66,14.29-4.24a4.82,4.82,0,0,0,1.63-4.72c-.36-1.6.32-2.24,1.79-2.6,4.09-1,8.15-2.13,12.22-3.2,5.27-1.38,10.5-3,15.83-4.07,7.88-1.62,15.77-3.06,23.09-6.71,3.09-1.54,6.57-1.11,9.79,0a3.59,3.59,0,0,1,1.91,2.41c.69,4,3.54,5.41,6.9,5.57a36.23,36.23,0,0,0,8.78-1c1.7-.34,2.6-.15,2.9,1.66.47,2.79,2.44,4,5,4.13.45,0,10.57-1.9,11-1.89A78.9,78.9,0,0,1,269.61,420.55Z"/><path class="cls-25" d="M249.24,243.52c-1.32-2.71-4.77,3.29-7.37,11.63-3.38,10.79-4,27.38-11.89,35.32a37.35,37.35,0,0,0,6.74,4.53c-1,2.21-1.95,4.43-3,6.59C251.8,296.39,262.24,270.27,249.24,243.52Z"/><path class="cls-25" d="M209.83,318c-9.25-.46-14-7.72-10.8-16.36,1.75-4.77,3.66-9.48,5.6-14.18a45.48,45.48,0,0,0,3.65-16.24c.18-7.58-.78-14.94-5.91-21a34.79,34.79,0,0,0-14.74-10.58c6.41,18.14-1.12,40.77-8.66,57.72-5.71,12.85-13.32,33.31,5.23,38.07,16.27,4.38,30.28-5.23,38.1-18.83a9.94,9.94,0,0,1-2.13.55A54.26,54.26,0,0,1,209.83,318Z"/><path class="cls-25" d="M142.8,282.08c8.09-3.81,19-6.19,24.27,2.86-2.38-5.71-4.28-11.9-9-15.23-7.61-5.23-17.61-3.81-27.12-1.9-4.92,1.41-10.63,5.41-15.19,4.71A89.43,89.43,0,0,0,109,283.08a97.53,97.53,0,0,1-3.35,11.37c-1.43,4.28-2.38,8.56-5.23,11.9-6.63,8.62-14.89,14.93-24.6,16.51l.83.81c1,1,2,1.61,1.54,3.37a4.38,4.38,0,0,0,2.26,4.76c3,1.76,6,3.79,9.22,4.69,5.46,1.52,11.79.78,15.18-4.8a3.39,3.39,0,0,1,2-1.41,16.16,16.16,0,0,0,8-4.54C119,321.68,123.6,318,125.26,312a2.66,2.66,0,0,1,1.52-1.38c4.91-1.91,6.35-5.95,6.63-10.68.12-2.1,0-4.23.12-6.33a5,5,0,0,1,.88-2.66,27.85,27.85,0,0,1,3.91-4,11.08,11.08,0,0,1,1.45-1A7.39,7.39,0,0,1,142.8,282.08Z"/><path class="cls-25" d="M376.27,446.71c8.57.87,14.14,5.39,16.51,13.8q.39,1.38.79,2.75c-.48-6.13-.88-12.28-1.43-18.44-2.38-21.89-13.32-45.2-36.64-50.44-11.42-2.38-24.27-4.28-35.21,2.38-12.85,8.09-35.92,36.53,15.23,83.75,12,11.08,18.56,24.27,12.85,36.64-12.85,28.55-47,15.5-71.85,22.36-19.34,5.35,8.43,31.47,17.29,38.57l1.2.35a8.92,8.92,0,0,0,2.56.38c4.18,0,5.88-2.39,3.87-6a39.86,39.86,0,0,0-6-7.52c-2.29-2.43-5-4.51-7.35-6.86-1.08-1.06-2.39-3-1.85-3.61.3-.35.94.33,1.57.83,6.83,5.44,14.33,9.31,23.18,10.13a3.53,3.53,0,0,1,3.54,3.16c.59,3.45,3,5,6.18,5.54a51.67,51.67,0,0,0,17.78.07c4.36-.78,6.38-3.19,6.5-7.69a12.14,12.14,0,0,0,0-2.23c-.29-1.85.68-2.77,2.26-3.29a14.11,14.11,0,0,1,2.84-.85c6.28-.66,11.1-4,15.46-8.23.59-.58,1.24-1.09,1.41-1.24,2.29,1,4.08,2.29,6,2.61a7.42,7.42,0,0,0,8.2-4.56,131.75,131.75,0,0,0,6.69-16.88c1.29-4.28,1.53-8.93-2.59-12.35-1.09-.9-.72-1.89-.37-3A26.15,26.15,0,0,0,386,504c-2.34-12.19-8.58-21.24-20.4-25.94-4.6-1.83-9.17-3.77-13.85-5.4-2.3-.8-3.06-2.13-3-4.42a20.18,20.18,0,0,1,2.8-9.9C357,448.76,366.88,445.76,376.27,446.71Z"/><path class="cls-25" d="M550.6,341.66c-1.61-1.1-1.59-2.25-1.29-3.78a57.93,57.93,0,0,0-.22-23.28c-.46-2.19-1.09-4.23.94-6.14.64-.6.64-2.11.57-3.18-.41-6.41-3.51-11.54-8-15.86a4.67,4.67,0,0,0-5.14-1.3c-1.91.84-2.9-.08-4.16-1.24a57.23,57.23,0,0,0-20.62-12.36c2.08,2.92,6.66,10.8,7,11.37,3.34,5.54,3.81,11.9,5.71,17.61a64.38,64.38,0,0,1,1.43,35.21c-3.31,13.93-15.23,31.41-29.5,37.12-5.23,2.38-10.94,3.81-16.18,5.23-11.41,2.54-22.83.94-32.57-5.46a24.49,24.49,0,0,1-13.92-7.67c-3.52-3.84-7.43-7.33-10.92-11.2a118.3,118.3,0,0,0-18.82-17.41,15.65,15.65,0,0,1-5-5.82,32,32,0,0,1-2.07-8.63c-.5-3.32-.27-3.2,2.64-4.78,9.7-5.26,19.57-10.27,29-16,17-10.42,27.59-25.8,32.58-45a132.27,132.27,0,0,0,.19-66.3c-4-16.11-10.31-31.36-19.91-45A102.73,102.73,0,0,0,420,125c9,32,15.07,64.86,10.69,97.61-3.65,27.29-15.8,35.26-19.58,42-4.9-14.59-19.23-27.09-41.07-26.26-1.9,1,1,19.69,2,20.17,11-7,39.22,13.84,21,41.29-5.78,8.71-23.88,16.46-41.08,12.82-1,0,1.81,12.08,26.85,12.13-.87,7.87,1.84,16.46,6.2,24.39,7.64,15.29,18.56,46.63,22.84,55.2,4.76,10,9.52,19,14.28,29a230.51,230.51,0,0,1,11.42,29c1,3.81,5.71,12.37,6.19,13.32,10.47,19,31.26,27.31,52.34,23.79,11.38-1.9,11.89-11.21,12.37-14.06.7-5.25-3.32-2.41-4.81-7.42-2,5.35-7.11,8.52-13.39,7.89a27,27,0,0,1-13.85-5.9c-6.53-5-11.29-11.46-15.18-18.62a152.55,152.55,0,0,1-13.14-33.51c-.37-1.38-.67-2.78-1-4.23,4.42.4,8.48.82,12.55,1.1,1.32.09,2.37.18,2.86,1.69,1,3.23,3.62,4.27,6.71,4.19a77.86,77.86,0,0,0,10-.64,17.4,17.4,0,0,0,6.43-2.14,10.8,10.8,0,0,0,4.29-4.88,4.09,4.09,0,0,1,2.08-1.9c7.11-2.72,13.45-6.83,20-10.65a4.47,4.47,0,0,1,2.66-.65,8.71,8.71,0,0,0,7-1.89A129.55,129.55,0,0,0,529,397.32c2-2.12,3.39-4.85,2.17-8.18-.31-.85.21-2.2.72-3.12A41.39,41.39,0,0,0,536.66,374c.21-1.11.63-2,2.16-2a7.12,7.12,0,0,0,6.13-3.68c3.67-5.9,7.18-11.92,8.33-18.93C553.78,346.32,553.22,343.44,550.6,341.66Z"/><path class="cls-26" d="M566.12,425.45a22,22,0,0,0-2.86-2.92,33.1,33.1,0,0,0-12.73-6.75,112.17,112.17,0,0,0-23.73-4.37,43.16,43.16,0,0,0-21,3.86c-11.22,5.07-16.18,16.44-13.84,28a73,73,0,0,0,5.94,16.78,27.12,27.12,0,0,1,2.66,13.72c-.54,7.87-6.5,13-14.31,12.18a27,27,0,0,1-13.85-5.9c-6.53-5-11.29-11.46-15.18-18.62a152.55,152.55,0,0,1-13.14-33.51c-.37-1.38-.67-2.78-1-4.23,4.42.4,8.48.82,12.55,1.1,1.32.09,2.37.18,2.86,1.69,1,3.23,3.62,4.27,6.71,4.19a77.86,77.86,0,0,0,10-.64c4.54-.71,8.61-2.39,10.72-7a4.09,4.09,0,0,1,2.08-1.9c7.11-2.72,13.45-6.83,20-10.65a4.47,4.47,0,0,1,2.66-.65,8.71,8.71,0,0,0,7-1.89A129.55,129.55,0,0,0,529,397.32c2-2.12,3.39-4.85,2.17-8.18-.31-.85.21-2.2.72-3.12A41.39,41.39,0,0,0,536.66,374c.21-1.11.63-2,2.16-2a7.12,7.12,0,0,0,6.13-3.68c3.67-5.9,7.18-11.92,8.33-18.93.49-3-.07-5.87-2.68-7.65-1.61-1.1-1.59-2.25-1.29-3.78a57.93,57.93,0,0,0-.22-23.28c-.46-2.19-1.09-4.23.94-6.14.64-.6.64-2.11.57-3.18-.41-6.41-3.51-11.54-8-15.86a4.67,4.67,0,0,0-5.14-1.3c-1.91.84-2.9-.08-4.16-1.24a57.14,57.14,0,0,0-26.33-14c-12-2.78-23.73-2.11-34.3,5a72.15,72.15,0,0,0-21,21.38c-5.33,8.51-8.54,17.67-6.32,27.94,1.32,6.13,3.32,12,8.15,16.38,2.78,2.52,6.16,4.34,9.85,2.75s4.31-5.12,4.49-8.77a48.29,48.29,0,0,1,.71-5.08c2.65-.73,5-.77,6.48-1.9,4.23-3.15,6-7.71,4.71-12.82-.65-2.52,0-3.71,1.9-4.82,1.6-.95,3.16-2,4.82-2.79.69-.33,1.94-.56,2.39-.18,3.56,3,7,1.46,10.45-.09,2.46-1.11,4.8-2.48,7.34-3.81,2.7,3.85,3.06,8,2.53,12.23a44.6,44.6,0,0,1-6.15,18.2c-3.47,5.57-7.09,11.1-11.09,16.29a67.06,67.06,0,0,1-26.07,20.53c-9.23,4.13-22.32,4.24-31.2-5.45-3.52-3.84-7.43-7.33-10.92-11.2a118.3,118.3,0,0,0-18.82-17.41,15.65,15.65,0,0,1-5-5.82,32,32,0,0,1-2.07-8.63c-.5-3.32-.27-3.2,2.64-4.78,9.7-5.26,19.57-10.27,29-16,17-10.42,27.59-25.8,32.58-45a132.27,132.27,0,0,0,.19-66.3c-4-16.11-10.31-31.36-19.91-45-9.45-13.45-22-23.54-36-31.9-18.79-11.22-39.29-16.4-61-16.59a108.73,108.73,0,0,0-31.89,4.93c-15.29,4.54-30.25,10.09-43.33,19.32-25.36,17.9-40.13,42.44-44,73.36-1.83,14.57-.44,29,2.54,43.28.32,1.52.4,2.38-.82,3.48a21.62,21.62,0,0,0-6.08,10.89c-1.89,7.26-1.35,14.47,0,21.75,1.65,8.89,7.17,14.54,15,18.71-1.25,2.74-2.38,5.49-3.74,8.12s-3,5.45-4.63,8.06c-1.92,3-4.5,5.4-8.19,5.93a54.26,54.26,0,0,1-10.34.86c-9.25-.46-14-7.72-10.8-16.36,1.75-4.77,3.66-9.48,5.6-14.18a45.48,45.48,0,0,0,3.65-16.24c.18-7.58-.78-14.94-5.91-21-6.57-7.77-14.91-12.18-25.18-12.59a54.73,54.73,0,0,0-28.61,6.89c-16.92,9.2-30.66,21.85-39.79,39.09a26.65,26.65,0,0,1-8,9.64c-1.71,1.21-3.53,2.37-5.83,1.15a5.93,5.93,0,0,1-3.31-5.77c0-5.4,2.31-9.79,5.85-13.67a33.46,33.46,0,0,0,3.8-4.54c1.1-1.75.48-3-1.46-3.75a6.87,6.87,0,0,0-2.18-.47c-9.76-.22-17.78,3-22.81,11.85-.91,1.61-1.54,3.39-2.44,5-.36.65-1.1,1.52-1.69,1.55-3.46.16-4.54,2.72-5.49,5.29-1.72,4.64-1.66,9.5-1.27,14.34.08,1,.62,2.51,1.39,2.9,2.57,1.31,2.85,3.67,3.57,6a15.92,15.92,0,0,0,2.42,5,54.23,54.23,0,0,0,5.37,5.64c1,1,2,1.61,1.54,3.37a4.38,4.38,0,0,0,2.26,4.76c3,1.76,6,3.79,9.22,4.69,5.46,1.52,11.79.78,15.18-4.8a3.39,3.39,0,0,1,2-1.41,16.16,16.16,0,0,0,8-4.54C119,321.68,123.6,318,125.26,312a2.66,2.66,0,0,1,1.52-1.38c4.91-1.91,6.35-5.95,6.63-10.68.12-2.1,0-4.23.12-6.33a5,5,0,0,1,.88-2.66,27.85,27.85,0,0,1,3.91-4c4.89-4,11.27-2.71,14.15,2.85,2.38,4.6,1.9,9.3-1.93,13.39a65.91,65.91,0,0,1-8.63,7.61c-7.22,5.41-14,11.19-18,19.5a3.44,3.44,0,0,1-1.73,1.74c-5,1.46-6.44,5.39-7,9.9-.44,3.22.42,6.5,4.54,8,1,.36,1.72.82,1.68,2.07-.15,4.65,1.69,8.74,3.91,12.63a4.77,4.77,0,0,1,.28,4.83,9.64,9.64,0,0,0,.09,7.61c2.41,6.15,10,11.77,16.49,11.48a17.81,17.81,0,0,1,8.47,1.92c1.92.87,3.82,1.78,5.69,2.76A18.6,18.6,0,0,0,167,395.33a22.9,22.9,0,0,1,3.7.2c0,.32.06.65.08,1a14.88,14.88,0,0,1-3,1.07c-7.73,1.1-15.46,2.28-23.22,3.12-8.87,1-17.82,1.27-26.67,2.42a119.13,119.13,0,0,0-25.71,5.77c-9.53,3.48-17.21,9.26-22.6,17.93-7.88,12.67-6.42,30.3,3.47,41.26a59.41,59.41,0,0,0,23.64,16.37c4.18,1.55,8.42,3,12.61,4.48,6,2.18,11.77,4.74,16.69,8.84a19.94,19.94,0,0,1,4.78,5.57c2.76,5.11,1.48,9.07-3.58,11.86a16.18,16.18,0,0,1-4.91,1.61c-3.66.66-7.34,1.13-11,1.61-2.24.29-4.11,1.1-5,3.31a5,5,0,0,0,2.25,6.17,21,21,0,0,0,7,3.29c4.59,1,9.3,1.34,14,1.86,1.65.18,3,.35,4.07,2a6.53,6.53,0,0,0,6.79,3,89.23,89.23,0,0,0,11.61-2.44,9.69,9.69,0,0,0,6.87-6.76,6.42,6.42,0,0,1,2.06-2.41c2.29-2.07,4.76-4,6.92-6.14,1.33-1.35,2.41-2.56,4.55-2.7a6.46,6.46,0,0,0,5.66-3.73c2.45-5.4,3.09-10.94.59-16.54-.8-1.79-2.26-3.65-4.1-3.31-3.51.65-4.75-1.89-6.73-3.6a39,39,0,0,0-5.37-4c-4-2.4-6.57-6-8.5-10-.68-1.44-.71-3.2-1.1-5.06,6.14,1.83,10.42-.66,14.29-4.24a4.82,4.82,0,0,0,1.63-4.72c-.36-1.6.32-2.24,1.79-2.6,4.09-1,8.15-2.13,12.22-3.2,5.27-1.38,10.5-3,15.83-4.07,7.88-1.62,15.77-3.06,23.09-6.71,3.09-1.54,6.57-1.11,9.79,0a3.59,3.59,0,0,1,1.91,2.41c.69,4,3.54,5.41,6.9,5.57a36.23,36.23,0,0,0,8.78-1c1.7-.34,2.6-.15,2.9,1.66.47,2.79,2.44,4,5,4.13a41.78,41.78,0,0,0,7-.17,3.31,3.31,0,0,1,3.83,2,45.11,45.11,0,0,0,4.58,6.75,112.71,112.71,0,0,0,24.3,21.82c4,2.73,8,5.41,11.92,8.29a33.84,33.84,0,0,1,9.56,10.79,5.14,5.14,0,0,1,.14,5.23c-2.35,4.7-7.89,7.22-13.63,5.78-3.6-.9-7.15-2.07-10.66-3.29a63.81,63.81,0,0,0-19.68-3.58,42.65,42.65,0,0,0-17.16,2.72c-2.92,1.19-5.6,2.75-7.27,5.55-4.21,7.06-5.21,14.36-1.46,22,5.87,11.91,15.16,20.76,25.6,28.55a21.55,21.55,0,0,0,5.93,3C285,575.56,290,577,295,578.43a8.92,8.92,0,0,0,2.56.38c4.18,0,5.88-2.39,3.87-6a39.86,39.86,0,0,0-6-7.52c-2.29-2.43-5-4.51-7.35-6.86-1.08-1.06-2.39-3-1.85-3.61.3-.35.94.33,1.57.83,6.83,5.44,14.33,9.31,23.18,10.13a3.53,3.53,0,0,1,3.54,3.16c.59,3.45,3,5,6.18,5.54a51.67,51.67,0,0,0,17.78.07c4.36-.78,6.38-3.19,6.5-7.69a12.14,12.14,0,0,0,0-2.23c-.29-1.85.68-2.77,2.26-3.29a14.11,14.11,0,0,1,2.84-.85c6.28-.66,11.1-4,15.46-8.23.59-.58,1.24-1.09,1.41-1.24,2.29,1,4.08,2.29,6,2.61a7.42,7.42,0,0,0,8.2-4.56,131.75,131.75,0,0,0,6.69-16.88c1.29-4.28,1.53-8.93-2.59-12.35-1.09-.9-.72-1.89-.37-3A26.15,26.15,0,0,0,386,504c-2.34-12.19-8.58-21.24-20.4-25.94-4.6-1.83-9.17-3.77-13.85-5.4-2.3-.8-3.06-2.13-3-4.42a20.18,20.18,0,0,1,2.8-9.9c5.55-9.58,15.39-12.59,24.78-11.63,8.57.87,14.14,5.39,16.51,13.8a112.3,112.3,0,0,0,3.56,11c1.91,4.83,4.06,9.58,6.28,14.27a8.69,8.69,0,0,0,7.17,5.31c2.38.19,3.34,1.26,4.35,3.17,3.9,7.38,9,13.59,16.82,17.29a86,86,0,0,1,9,5.24c2.35,1.49,4.3,3.1,3.18,6.6-.78,2.42.13,4.88,2,6.86,6.32,6.77,19.87,10.36,29.41,4.36,6.33-4,13.38-6.84,20.4-10.36,1.23,4.42,4.3,5.29,7.72,5.12a55.76,55.76,0,0,0,9.94-1.19,17.33,17.33,0,0,0,9.68-6.57c1.84-2.35,2.41-5,.83-7.63-1.22-2-.48-3,1.06-4.31A19.25,19.25,0,0,0,531.28,497c.25-1.84.64-3.66,1-5.49.21-1.26.76-1.78,2.21-1.87,4.92-.31,8.12-3,9.24-7.65a26.73,26.73,0,0,0-.58-14,9.58,9.58,0,0,0-4.2-5.46,24.17,24.17,0,0,1-5.24-4.67c-2.42-2.88-2.47-6.21-1.26-9.76,1.41.61,2.5,1.18,3.66,1.57a11.15,11.15,0,0,0,11.8-3.43c2.55-3,2.61-5.32.27-9.5-.08-.15,0-.41.11-.84,1.84.15,3.69.32,5.53.44a68,68,0,0,0,7.06.33,8,8,0,0,0,7.23-4.48C569.33,429.56,567.67,427.42,566.12,425.45ZM173.8,498c2.87,3.29,2.3,10.8-.86,14.69C174.19,507.81,175,503,173.8,498ZM527.4,386.54a7.45,7.45,0,0,0-.24,3.9,4.2,4.2,0,0,1-1.13,4.44q-5.35,5.14-11,10a4.3,4.3,0,0,1-3.42,1c-1.92-.63-3,.22-4.29,1.24a61.2,61.2,0,0,1-19,10c-2.75.86-4.85,2-6.16,4.78-1.9,4-6,4.48-9.81,4.94-2.45.3-5,0-7.44.11-1.74.06-2.92-.58-3.29-2.31-.58-2.73-2.48-3.39-4.95-3.51-4.09-.19-8.17-.62-12.25-.77-1.88-.07-2.92-.62-3.41-2.56-.75-3-1.8-5.9-2.89-9.38,1.69.57,3,1.14,4.37,1.46,19.93,4.66,39.56,4.86,58.58-4,9.9-4.6,17.72-11.76,24.81-19.85,1.1-1.26,2.1-2.6,3.15-3.91l.27.17A30.84,30.84,0,0,0,527.4,386.54Zm21.29-42.94a9.52,9.52,0,0,1,1,2.78,13.36,13.36,0,0,1-.56,5.1c-2,4.66-4.21,9.22-6.52,13.73a4,4,0,0,1-4.4,2.53Zm-1.49-37.52-9-14.85C542.79,291.73,547.51,299.5,547.2,306.08ZM494,307.8c-.82.18-1.81-.4-2.72-.63-1.28-.32-2.67-1.12-3.81-.86A21.11,21.11,0,0,0,477,312.39a4.67,4.67,0,0,0-1,5.46c1.23,3-.23,7.23-2.75,9.39a2.84,2.84,0,0,1-3.07.43c-2.49-.76-3.73-.35-4.75,2a74.43,74.43,0,0,0-2.43,7.92,29.27,29.27,0,0,1-2.77-3.79,23.65,23.65,0,0,1-1.73-16.64,36,36,0,0,1,5.94-12.72c4.44-6.21,10.75-8.33,18-8.65-.07,1.51-.44,2.87-.12,4,.44,1.61,2,2,3.57,2.16a14.92,14.92,0,0,0,9-1.8c2.26-1.33,3.93-.78,5.76.45,1.11.75,2.21,1.51,3.65,2.5A27.81,27.81,0,0,1,494,307.8Zm-.53-10.18c-4.07,2-8.36,3.27-8.83,1.09C484.07,296,488,295.36,493.49,297.63Zm-267.7-22.83a2.45,2.45,0,0,1,1-2,5.69,5.69,0,0,0,2.73-5c.26-4.84.42-9.65-2.52-13.94a3,3,0,0,1-.39-2.36c1.54-4.09,4.09-7.23,9.21-8.68-4.64,14.12-5.57,28.21-5.43,42.54C227.68,282.38,226.56,278.64,225.79,274.79ZM73.89,294.25a58.68,58.68,0,0,1,2.55-10c2.67-8,8.82-12.32,16.47-14.8,1.52-.49,3.94-.61,5.23.33-.91.95-1.83,1.88-2.74,2.84-4.23,4.45-7.08,9.53-7.07,15.86,0,6.57,4.06,10.27,10.63,9.74a13.75,13.75,0,0,1,1.57.11c-3.23,6.59-7.34,11.92-14.23,14.38-3.66,1.3-7.67-.83-9.9-4.77A21.05,21.05,0,0,1,73.89,294.25Zm93.7,96.87a17.4,17.4,0,0,1-10-2.31c-3.17-1.68-6.42-3.22-9.69-4.7a4.2,4.2,0,0,0-2.83-.38c-5.16,1.91-8.95-.73-12.43-3.8-4.06-3.58-4.49-6.13-2.32-11.17a4,4,0,0,0-.19-3.86c-.8-1.4-1.47-2.86-2.21-4.3a19,19,0,0,1-2.24-8.91c0-3.68-.57-4.3-4.17-5.44-1.86-.59-2.72-1.79-2.36-3.62a23.34,23.34,0,0,1,1.49-4.53c.67-1.59,2.16-1.7,3.68-2a4,4,0,0,0,2.26-2.15c3.37-7.6,8.87-13.32,15.39-18.31a91.18,91.18,0,0,0,11.36-10.11,14.56,14.56,0,0,0,3.84-13.4c-2.08-10-12.22-14.44-21.27-8-.3.21-.56.49-.84.73-3.49,3-6.28,6.23-5.11,11.4a11.9,11.9,0,0,1-.22,4.43c-.85,5.09-1.84,6.07-7,7.14-1.29,5.34-4.38,9.56-8.29,13.27-2.9,2.75-5.86,5.33-10,6.07a3.83,3.83,0,0,0-2.42,2c-1.29,2.93-3.65,3.78-6.53,4.1-4.78.53-8.73-1.46-12.43-4.06a2.86,2.86,0,0,1-1-2.46c.59-2-.3-3-1.68-4.06a55.18,55.18,0,0,1-5.32-4.65,13.3,13.3,0,0,1-3.89-8.64c-.12-1.72-.52-3.11-2.49-3.67a2.67,2.67,0,0,1-1.67-1.71c-.6-5.21-.72-10.41,2-15.19.22-.38.67-.62,1.71-1.54-.28,2.22-.43,3.63-.65,5a27.24,27.24,0,0,0,2.68,17c4,7.87,11.54,9.92,19.07,5.3a27.69,27.69,0,0,0,9-8.75c2.26-3.55,4.22-7.29,6.36-10.92,2.39-4.06,4.51-8.32,7.31-12.07a34.29,34.29,0,0,1,36.73-12.72c10.07,2.73,15.37,12.62,11.63,22.38-1.8,4.7-4.54,9.06-7,13.48-2.65,4.76-5.73,9.3-8.17,14.16-5.88,11.75-2.39,20.86,6.35,28.59a41.59,41.59,0,0,0,29.14,10.89c5.15,1.86,8.66,5.51,11.08,10.39a22.19,22.19,0,0,1,1.4,15.68,1.94,1.94,0,0,0,0,.72,97.64,97.64,0,0,1-17,8c-1.15.41-2.31.78-3.78,1.27C174.17,391.17,171,390.8,167.59,391.12Zm30-23.06a24.59,24.59,0,0,0-7.47-9,66.55,66.55,0,0,0,7.95-1.66c5.81-1.58,11.25-4.45,16.91-6.64,2.87-1.11,5.8-2.06,8.74-2.94a6.76,6.76,0,0,1,2.94,0c3.35.57,4,1.65,2.75,4.86a42,42,0,0,1-9.76,14.81,125.74,125.74,0,0,1-19.7,16.27A25.41,25.41,0,0,0,197.57,368.05ZM138.73,532.94l14-2.89C148.49,532.91,143.69,533.37,138.73,532.94ZM169.12,456c-3.81,1.13-4.48,2-4.59,6.09a3.6,3.6,0,0,1-1.79,3.4c-1.29.73-2.62,1.39-4,2a3,3,0,0,1-3.66-.74c-2.41-2.26-4.46-1.63-5.34,1.62a14.16,14.16,0,0,0,.88,9.8c.51,1.11,1.09,2.18,1.64,3.27l-.47.47c-4-1.67-7.95-3.42-12-5-8.62-3.39-10-16.42-1.8-22.42a17.8,17.8,0,0,1,9.65-3.53c4.8-.24,9.63-.29,14.44-.15,5.32.16,10.64.63,16,1,1.19.08,2.37.3,4.34.55C177.43,453.71,173.25,454.77,169.12,456Zm94.56-1.93c-6.17,1.31-8.08,0-8.81-6.68-.5-4.55-.53-9.16-.76-13.74a5.61,5.61,0,0,0-.36-2.23,16.44,16.44,0,0,0-2.82,8.72c-.13,2,.11,4,0,6,0,.7-.58,1.83-1.09,2a45.76,45.76,0,0,1-8,1.43c-2.49.15-3.12-.68-2.47-3.23a90.77,90.77,0,0,1,3.49-11.35c2.85-7.14,6-14.15,9-21.22.27-.64.42-1.32.74-2.37-3.21,2.49-8.14,12.08-16.81,32.21l-7.37-2s-.08-.36,0-.48c8.21-7.94,13.18-17.95,17.76-28.14,5.65-12.55,10.87-25.29,16.55-37.83,1.67-3.68,4.28-6.94,6.49-10.36.24-.38.73-.59,1.5-1.18.93,3,.43,5.58-.2,8.15-2.42,10-5.15,19.92-7.27,30-2.47,11.67-4.12,23.52-2.69,35.47.66,5.49,2.28,10.87,3.54,16.65A1.07,1.07,0,0,1,263.68,454.07Zm116.94,62.78c-1,2.47-.65,4.14,1.7,5.64,2,1.29,2.62,3.29,2.29,5.83-.84,6.52-3.45,12.37-6.31,18.16a8.18,8.18,0,0,1-1.26,1.84c-1.87,2.07-4,2.17-6.16.33-3.87-3.37-4.1-3.29-7.72.45-3.77,3.89-8,7-13.71,7.5a13.45,13.45,0,0,0-3.22.88c-4.68,1.62-5.34,2.59-5.26,7.57.07,4.52-.47,5.38-4.86,5.64-4.55.26-9.13.07-13.7,0-2.37,0-3.95-.92-4.44-3.53-.57-3-2.58-4.68-5.68-5-9.07-.94-16.65-5.14-23.86-10.47a66.73,66.73,0,0,0-11-6.09,16.73,16.73,0,0,0-5.41-1.13,4,4,0,0,0-4.43,2.68,3.66,3.66,0,0,0,1.57,4.82c2.55-4.59,2.88-4.7,8-2.71.81.31,1.58.71,2.38,1,2.05.85,3.39,1.9,3.39,4.59,0,1.63,1.17,3.53,2.34,4.85,2.38,2.68,5.06,5.1,7.7,7.54,2.28,2.11,4.41,4.29,5.39,7.34-.38.16-.63.38-.81.33-10.48-2.7-20.88-5.43-28.61-13.93-4.5-4.95-9.56-9.41-13.07-15.2a27.34,27.34,0,0,1-2.16-3.9c-1.42-3.55.05-5.87,3.82-6.11a40.91,40.91,0,0,1,17.52,2.68c5.08,2,10.13,4.05,15,6.39A73.31,73.31,0,0,0,319.55,552c13.37.41,26.13-2.37,37.62-9.65a48.09,48.09,0,0,0,18.74-22.55c4.31-10.23,2-19.78-4.24-28.4-2.82-3.86-6.53-7.06-9.87-10.6C378.38,485.61,385.76,504.07,380.63,516.85Zm35.3-28.14c-.92-.72-2.09-1.59-3.12-1.57-3.66.07-5.72-1.86-7.21-4.88-3.63-7.36-6-15.2-8.6-22.94-3.62-10.68-7.2-21.38-11.21-31.92-2.74-7.22-6.44-14-12.69-19a33.71,33.71,0,0,0-14.72-6.77,3.47,3.47,0,0,0-2.53.54,20.24,20.24,0,0,0,1.83,1c11.09,4.62,19.13,12.24,23.33,23.66,2.22,6.05,4.47,12.09,6.68,18.15a9.22,9.22,0,0,1,.24,1.88c-19.4-10.16-43.12,1.74-42.68,22.12-6.75-2.3-7.74-7.91-6.72-13.81a66.14,66.14,0,0,1,2.42-8.06c-3.72,1.64-6.26,6.24-6.89,13-8.94-9.19-12.27-19.8-11.31-32,1-12.41,7.21-21.9,16.85-29.53-.2-.28-3.42-.47-4.42.28a46.93,46.93,0,0,0-7.82,6.76c-5.75,6.79-8.05,15-8.66,23.72-.94,13.57,3.37,25.32,13.43,34.48,6.13,5.58,12.95,10.4,19.5,15.51,3.72,2.9,7.67,5.51,11.24,8.58a29.82,29.82,0,0,1,10.4,19.19A20.34,20.34,0,0,1,371,519c-6.58,13.42-17.2,21.82-31.66,25.52-16,4.09-31.48,2.53-46.55-4-4.67-2-9.28-4.17-14-6.1a48.59,48.59,0,0,0-19.94-3.9c-2.76.08-5.5,1-8.26,1.53-1-4.38,1.7-10.55,6.39-12.59a35.15,35.15,0,0,1,10.32-2.85,54.73,54.73,0,0,1,23.51,2.42c4,1.37,8,2.65,12.08,3.73a16.94,16.94,0,0,0,13.31-1.61c7-4,8.67-11.54,4-18.05a48.84,48.84,0,0,0-11.67-11.39c-7.39-5.23-14.91-10.32-21.9-16a90,90,0,0,1-12.36-12.86c-5-6.07-7.26-13.48-9-21-2-8.73-1.33-17.51-.41-26.29,1.47-14,5.64-27.41,8.82-41a69.56,69.56,0,0,0,1.22-10.27c.14-1.79-.37-3.55-2.22-4.35a4.4,4.4,0,0,0-5.41,1.31c-2.6,3.29-5.37,6.58-7.25,10.28-3.63,7.19-6.79,14.62-10,22-5,11.64-9.67,23.41-16.19,34.29-5.9,9.85-14.38,16.17-25.82,18.44-12.08,2.39-24.18,1.8-36.33,1-8.52-.55-17-1.9-25.61-.29-7.44,1.4-13.66,4.37-16.74,11.93-3.32,8.17-.33,18.69,8.92,22.38,5.18,2.07,10.37,4.13,15.54,6.21A38.81,38.81,0,0,1,165,493.93c4.87,4.23,5.65,9.45,4,15.21-1.8,6.48-6.12,11-12.07,13.9a55.41,55.41,0,0,1-17.87,4.86,65.24,65.24,0,0,1-24.76-1.33A11.71,11.71,0,0,1,111,525a2.33,2.33,0,0,1-1.06-1.74,2.17,2.17,0,0,1,1.51-1.37,29.07,29.07,0,0,1,6.21-.44c4.84.35,9.41-.06,13.47-3,5.49-4,7-9.29,4.65-15.72a20.13,20.13,0,0,0-7.39-9.12A66.34,66.34,0,0,0,112,485c-4.18-1.55-8.42-2.95-12.62-4.48a56.63,56.63,0,0,1-23-15.42,30.32,30.32,0,0,1-3-36A37.79,37.79,0,0,1,90.7,414.34c7.13-3.08,14.68-4.48,22.25-5.84a253.05,253.05,0,0,1,30-3.15c17.45-1,34.41-4.19,50.13-12.51a117.23,117.23,0,0,0,32-25.19,39.54,39.54,0,0,0,7.81-13c2.39-6.48-.86-11.09-7.75-11.32-4.52-.15-8.54,1.32-12.38,3.47a65.8,65.8,0,0,1-20.56,7.4c-13.55,2.43-25.94.07-36.26-9.71a26.77,26.77,0,0,1-3.68-4.17c-3-4.43-4.36-9.33-2.14-14.44s4.77-9.78,7.33-14.58c2.91-5.46,6.22-10.72,8.92-16.28,2.83-5.84,2.09-11.79-.55-17.61a19,19,0,0,0-12.14-10.74,36.66,36.66,0,0,0-26.5,1.33l-3.62,1.6-.29-.38c.79-.87,1.54-1.78,2.37-2.61a110.44,110.44,0,0,1,22-17.16c9.61-5.63,20-8.71,31.26-7.93a28.06,28.06,0,0,1,21.62,12.24c4.52,6.32,4.9,13.73,3.75,21.1a72.36,72.36,0,0,1-3.62,12.44c-1.47,4.21-3.4,8.26-4.92,12.45-4.29,11.86,2.17,21.56,14.8,22.22,10.65.56,19.62-3.52,27.41-10.49,2-1.76,6.52-10.48,7.08-13.43l-11.38,12.49c3.08-7.82,6-14.71,8.51-21.75s5.07-13.94,4.69-21.7c-.36.79-.78,1.56-1.06,2.37-2.33,6.67-4.64,13.35-7,20a6,6,0,0,1-.81,1.67c-.89,1.17-2,1.19-2.67-.08a11.33,11.33,0,0,1-1.34-4.56c-.11-6.19-.26-12.41.15-18.58.5-7.54,1.56-15.05,4.18-22.23.75-2.06,1-4.41,3.24-5.63a1.32,1.32,0,0,0,.38-1.24,2.21,2.21,0,0,0-1.4-1,2.27,2.27,0,0,0-1.68.6c-1.45,1.6-3.19,1.64-5.31,1.17a39.06,39.06,0,0,1-.94-3.81c-.38-2.56,1.26-4.29,3.87-4.15a6.93,6.93,0,0,1,6.54,4.75c1.6,4.54,2.88,9.2,4.09,13.86.62,2.37.81,4.85,1.29,7.89.59-.89.62-16.56-2.67-23.44a10.84,10.84,0,0,0-5.29-5.54c-2.83-1.28-5.66-1.89-8.86.46-.31-1.92-.58-3.46-.8-5-4.48-31.88,3.57-59.92,25.32-84,10.22-11.29,22.5-19.34,36.39-25.27s28.1-10.63,43.16-12.17a106.28,106.28,0,0,1,39.47,3.47c26.1,7.23,47.79,21.34,63.89,43.15,11.05,15,17.44,32.28,21,50.48a125.25,125.25,0,0,1-1.27,55.75c-4.61,18-14.13,32.83-29.88,43-9.16,5.9-18.91,10.89-28.41,16.27a20.63,20.63,0,0,1-2.61,1v-10.5c-.84.95-1.45,1.34-1.63,1.88-3.25,9.35-3.46,18.78.05,28a13.84,13.84,0,0,0,4.84,6c9.34,6.56,16.89,15,24.57,23.25,2.11,2.28,4.35,4.43,6.58,6.58,10.37,10,22.43,10.9,35.19,5.94a61.24,61.24,0,0,0,21.91-15.13,115.55,115.55,0,0,0,16.89-22.64c4.56-8,7.67-16.39,7.27-25.79-.27-6.35-2.79-11.56-8-15.23-9.43-6.59-19.68-9.23-31-5.92A23.21,23.21,0,0,0,462,301.23c-4.51,6-7.68,12.59-8.21,20.05-.54,7.65,1.07,14.84,7.28,20.21a2,2,0,0,1,.67,1.69c-1.38-.5-3-.72-4.09-1.58A17.13,17.13,0,0,1,453.4,337c-4.61-7.8-6.51-16.15-3.49-25A58.37,58.37,0,0,1,455.54,300a67.4,67.4,0,0,1,17.17-17.93c8.82-6.58,18.79-8.11,29.35-6.14,14.64,2.72,26.69,9.77,35.35,22.1,6.48,9.23,8.52,19.66,8.09,30.72-.45,11.42-4.21,21.85-9.63,31.74-4.76,8.7-9.45,17.44-16.18,24.91-10.54,11.68-23.45,19.11-38.89,21.71a93.33,93.33,0,0,1-37-1.14c-1.08-.25-2.12-.69-3.19-1-3.2-.91-5.06-2.91-6.33-6.09-5.42-13.63-13.59-25.32-25.36-34.31-2.13-1.63-4.34-3.11-7.36-3.19a11.58,11.58,0,0,0,1.23,1.46C420,377.57,430.34,396.45,436.39,418c2.55,9.07,5.2,18.12,8.26,27a114.73,114.73,0,0,0,13.15,26.62,52.32,52.32,0,0,0,10.73,11.81A35.14,35.14,0,0,0,481,489.86c7.2,2.07,13.46.43,19-4.42.81-.7,1.57-1.45,2.71-2.5A24.36,24.36,0,0,1,496,497.2c-5.54,6-12.71,8.93-20.43,10.76-12.89,3.07-25.14.68-36.85-4.87a183.16,183.16,0,0,1-16.28-9C420.06,492.64,418.15,490.44,415.93,488.7Zm76.75,22.64a9.24,9.24,0,0,1-2.23,2.41,20,20,0,0,1-8.38,3.93c-2.14.15-2.6-.57-2.28-2,.88-3.84,8-7.94,11.91-6.85C493.21,509.26,493.34,510.26,492.67,511.35ZM559.06,432c-3.83-.29-7.66-.63-11.5-.91a9.75,9.75,0,0,0-2.93.08,3.44,3.44,0,0,0-2.65,4.8,14.29,14.29,0,0,0,1.81,3.2c1.48,2.18,1.28,3.36-.9,4.81a6,6,0,0,1-7.23-.44c-3.44-2.82-5.87-2.28-7.67,1.86-2.31,5.32-1.89,10.5,1.74,15.07a25.88,25.88,0,0,0,6,5.47A6.57,6.57,0,0,1,539,471a48.34,48.34,0,0,1,.06,8.54,8.33,8.33,0,0,1-1.79,4c-.83,1.1-1.91,1.57-3.48.43-2.52-1.84-4.33-1.15-5.16,2a93,93,0,0,0-2,10.57,15.22,15.22,0,0,1-5.62,9.74c-4.42,3.75-4.53,4.11-2.24,9.35.73,1.68.18,2.84-.93,4a16.35,16.35,0,0,1-10.6,4.82c-1.36.14-2.73.07-4.09.16-1.92.13-3.3-.32-4-2.44s-2.25-2.49-4.18-1.65c-7.27,3.14-15,5.49-21.67,9.62-8.15,5.06-18.12,2.7-23.62-1.67-2.08-1.66-3.08-3.64-1.91-6.17,1-2.16.34-3.9-1-5.47a17.37,17.37,0,0,0-3.73-3.58c-3.57-2.22-7.24-4.3-11-6.22a23,23,0,0,1-8.8-7.29c4.57,2.6,9.08,5.31,13.73,7.77a60.23,60.23,0,0,0,29.41,6.7c3.42,0,6.82-.83,10.59-1.32-.33,1-.57,1.78-.82,2.54-1.14,3.44.28,5.62,4,5.66,5.69.06,10.3-2.52,14-6.65,3-3.34,2.53-5.9-1.25-8.71,2.2-2.1,4.53-4.06,6.54-6.3,7.38-8.2,9.49-17.55,6.48-28.3-1.88-6.7-4.33-13.14-6.77-19.64a51.68,51.68,0,0,1-3.1-12.93c-.84-8.67,3.46-15.38,11.28-19.14a39,39,0,0,1,22.16-3.21,186.4,186.4,0,0,1,18.59,3.6,26.73,26.73,0,0,1,11.59,5.69c1.55,1.34,4,2.45,4.2,4.41C564.14,432.33,560.84,432.09,559.06,432Z"/><path class="cls-26" d="M122.71,307.8l.08,0v-.06Z"/><path class="cls-26" d="M400.75,280.47c-.69-6-1.88-11.85-6-16.48-6.15-6.86-13.8-9.76-23.05-8.09-10.9,2-20.63,6.19-28.17,14.56a25.72,25.72,0,0,0-7,19c.29,6.3,3.15,11.56,6.11,16.91,3.43,6.22,8.66,9.29,15.43,10.18,1.59.21,3.21.22,5.46.36a43.35,43.35,0,0,0,5.64-.63c9.88-2.26,17.85-7.8,24.71-15A24.86,24.86,0,0,0,400.75,280.47Zm-11.33,13.42a15.15,15.15,0,0,1-6.49,11.22c-6.68,4.61-13.75,7.81-22.19,7-5.18-.48-9.53-2.19-13-6.3-5.93-7.11-8.78-14.87-5.85-24.09a24.25,24.25,0,0,1,6.6-10.2,43.07,43.07,0,0,1,22-11,7.78,7.78,0,0,1,4.26.7c7.74,3.31,11.45,10,13.81,17.49.95,3,.91,6.35,1.21,8.69C389.64,290.18,389.65,292,389.42,293.89Zm-9.67-33.6a16.55,16.55,0,0,1,12.43,7.6,27.75,27.75,0,0,1,3.35,22.44,9.9,9.9,0,0,1-1.92,3.56C394.24,280.42,390.77,268.84,379.75,260.29Z"/><path class="cls-26" d="M185.75,387.57a5.44,5.44,0,0,0,2.68-6.06c-.48-2.48-2.39-3.7-4.56-4.44-3.87-1.32-10.3.71-12.88,3.88-1.95,2.4-2,5.8.4,7.21C177.07,391.54,183.1,389,185.75,387.57Zm-12.4-2.4c-.61-2,1.05-3.25,2.68-3.84a23.34,23.34,0,0,1,6.06-1.32,2.8,2.8,0,0,1,3.3,2.35,2.92,2.92,0,0,1-2.14,3.14,23.37,23.37,0,0,1-5.74,1.28C175.94,386.9,173.93,387.11,173.35,385.17Z"/><path class="cls-26" d="M171.13,370.95c1.21-2.52.41-4.93-1.32-6.88a17.57,17.57,0,0,0-11-5.62c-2.85-.41-4.95,1.75-5,4.66-.05,5.8,5.35,11.21,11.34,11.2A5.93,5.93,0,0,0,171.13,370.95Zm-2.74-1.09c-.45.89-1.88,1.28-2.41,1.6-4.45-.07-8.8-4.27-9.12-8.1-.12-1.39.38-2.2,1.84-2,3.81.46,7.21,1.84,9.38,5.15A4,4,0,0,1,168.39,369.86Z"/><path class="cls-26" d="M140.21,354.52a5.46,5.46,0,0,0,4.16-5.12,12,12,0,0,0-3.34-9.13c-2.15-2.24-5.9-2.14-7.38.61-2.28,4.23-.61,9.65,1.08,11.61C136.2,354.2,137.84,355.31,140.21,354.52Zm-2.9-12.24a2.48,2.48,0,0,1,2.08,1,17.18,17.18,0,0,1,1.78,4c.54,2.28-.38,3.53-2,3.93a2.21,2.21,0,0,1-2.83-1.76,22.11,22.11,0,0,1-.63-5.41A2.46,2.46,0,0,1,137.31,342.28Z"/><path class="cls-26" d="M123.08,288.66a4.78,4.78,0,0,0-5.71,1.61A21.94,21.94,0,0,0,114.1,296c-1.91,5.5,2.93,8,5.19,7.55,4.35-.79,5.68-5.71,6.1-9.88C125.6,291.65,125.22,289.48,123.08,288.66Zm-2.72,11c-.39.69-1.49,1.65-2.38,1.38s-1.49-2-1.28-2.7a36.38,36.38,0,0,1,2.72-6.39,2.42,2.42,0,0,1,1.74-.93C124,292.32,121.32,298,120.36,299.69Z"/><path class="cls-26" d="M138.31,368.2a5.48,5.48,0,0,0-5.79,1.6c-1.6,1.82-1.28,3.92-.52,6,1.61,4.28,6.41,5.76,9.9,6.11,4.23,0,6.33-3.11,4.47-7A12,12,0,0,0,138.31,368.2Zm3.1,10.85a7.54,7.54,0,0,1-7-5.06c-.55-1.83.15-2.87,2-3,2.72-.25,7.3,3.33,7.71,6C144.34,378.38,143.51,379,141.41,379Z"/><path class="cls-26" d="M135.82,271.91c-4.31-.4-10.18,4.64-10.37,8.91-.12,2.59.89,3.66,3.44,3.65,3.7,0,9.07-4.14,10-7.72C139.59,274.21,138.26,272.13,135.82,271.91Zm-7.23,9.63c-1.85-2.21,6.82-8.33,7.95-6.66C138.14,277.24,129.78,283,128.59,281.54Z"/><path class="cls-26" d="M97.11,322.66a15.68,15.68,0,0,0-4.88-1,10.88,10.88,0,0,0-3.86.61A4.15,4.15,0,0,0,87,329.62c2.76,2.3,8.88,2,11.4-.48C100.77,326.83,100.21,323.8,97.11,322.66Zm.29,3.18c-.3,2.29-5,3.09-7.56,1.75s-.46-2.49,0-2.68C92.41,323.92,97.61,324.21,97.39,325.83Z"/><path class="cls-26" d="M107.52,307.52a17.19,17.19,0,0,0-3,1.33,11.47,11.47,0,0,0-5.19,6.06c-1.1,3.13.58,5.58,3.71,5.69,4.37.14,9.75-5.13,9.72-9.52C112.7,307.94,110.54,306.44,107.52,307.52Zm-4,10.52c-1.55,0-2.31-1-1.7-2.43,1.27-3,3.81-4.79,6.72-6,1.29-.53,1.75.4,1.77,1.58C110.37,314.06,106.43,318,103.54,318Z"/><path class="cls-26" d="M138.07,331c1.86-.68,4.18-3.87,3.95-5.82a4.08,4.08,0,0,0-1.43-2.78,3.1,3.1,0,0,0-2.94.31,15.54,15.54,0,0,0-3.35,4.38C133.12,330.38,135.81,331.84,138.07,331Zm.71-7c.77-.32,1.37-.28,1.41,1a8.26,8.26,0,0,1-2.08,3.87c-.42.33-2.36,1.09-2.3-.83A6.72,6.72,0,0,1,138.79,324Z"/><path class="cls-26" d="M512.17,469.13c-1.76,3.91-1.56,7.89-.71,12,.6,2.91,2.11,4.71,4.86,5.46a6.11,6.11,0,0,0,7.34-3,17,17,0,0,0,2.15-7.37c.35-3.42-.49-6.95-2.27-8.88C519.76,463.22,514.46,464.06,512.17,469.13Zm8.13,12.53a4,4,0,0,1-3,1.64c-1.46,0-2.32-1.19-2.54-2.71a17.39,17.39,0,0,1,1.34-10.12c1-2.05,3.05-2.42,4.35-.55a10.16,10.16,0,0,1,1.67,5.58A12,12,0,0,1,520.29,481.66Z"/><path class="cls-26" d="M514.5,457.59c3-2.09,3.53-5.18,3.45-8.61.15-4.23-.81-8-5.11-10.13-3.09-1.5-6.54-.45-7.65,2.76a13,13,0,0,0-.51,6.81c.62,2.67,2.16,5.15,3.44,7.65C509.6,459,511.83,459.46,514.5,457.59Zm-5.8-13.81c.4-2.1,1.94-2.33,3.58-.89,1.93,1.69,1.7,4,1.83,6,0,3.57-.94,5.68-2.37,5.4s-2.54-2.85-2.87-4.7A16.48,16.48,0,0,1,508.7,443.79Z"/><path class="cls-26" d="M530.6,422.26a11.62,11.62,0,0,0-8.54,1.47c-2.72,1.5-4.2,3.75-3.89,7,.11,3.79.7,4.79,3.2,5.41,4.17,1,10.72-1.84,12.84-5.63S534.76,423.26,530.6,422.26Zm-.17,7.5a8.8,8.8,0,0,1-6.76,2.52c-2-.05-2.59-1-1.93-2.94a6.48,6.48,0,0,1,7.7-3.95c.38.1,1.93.54,2,1.17A4.18,4.18,0,0,1,530.44,429.76Z"/><path class="cls-26" d="M513.54,495a11.11,11.11,0,0,0-11,11.22,3.38,3.38,0,0,0,1.57,2.62,10.11,10.11,0,0,0,5.3.46,13.26,13.26,0,0,0,8.06-6.69,14.12,14.12,0,0,0,1-2.62A4.65,4.65,0,0,0,513.54,495ZM507,505.56c-3.44-4.17,5.07-9.73,7.53-6.57C516.83,501.91,508.92,507.86,507,505.56Z"/><path class="cls-26" d="M467,310.92A11.52,11.52,0,0,0,461.25,321c.2,3.12,2.45,4.63,5.39,3.63,3.48-1.19,7.14-6.47,7-10.12S470.37,309.23,467,310.92Zm3.38,4.28a8.89,8.89,0,0,1-3.65,6.2,2.69,2.69,0,0,1-2,.23c-.3-.09-.36-1-.41-1.2.49-3,1.61-5.11,3.88-6.46C469.44,313.22,470.58,313.85,470.37,315.2Z"/><path class="cls-26" d="M144.52,457.51c-2.14-.68-3.82.41-5.27,1.92a10,10,0,0,0-1.82,11.66c1.82,3.56,5.44,4.07,7.63.75a17.6,17.6,0,0,0,2.62-10.09C147.35,459.8,146.48,458.13,144.52,457.51Zm-3.11,13.36c-2.27,0-2.19-7.34.46-9.05,1.5-1,2.27-.66,2.43,1.15C144.58,465.9,144.88,470.89,141.41,470.87Z"/><path class="cls-27" d="M383,363.75a100.41,100.41,0,0,1-28.75-17.81c-8.42-7.61-16-15.88-21.53-25.93l-.72.37c1,2.9,1.81,5.85,2.88,8.71a57.51,57.51,0,0,0,10.49,17,65.13,65.13,0,0,1,4,5.89c-3.27.32-4.87-1.13-6.39-2.69a55.46,55.46,0,0,1-12.45-19.24,148,148,0,0,1-7.35-29.54c-.86-5.51-1.37-11.07-2-16.62-.15-1.34-.16-2.69-.29-5,.92,1.21,1.47,1.65,1.64,2.2.87,2.84,1.74,5.69,2.43,8.58,3.36,14.15,8.74,27.41,17.58,39a102.41,102.41,0,0,0,28.69,25.68c3.7,2.25,7.17,4.87,10.75,7.32C382.53,362.2,383.23,363.48,383,363.75Z"/><path class="cls-27" d="M442.21,261.87c16.5-42.41,6.46-79.45-21.72-113.31a11.92,11.92,0,0,1,1.49,1.07c15,14.53,25.31,31.73,29.8,52.2A89.36,89.36,0,0,1,451,242C449.32,249.15,445.75,255.61,442.21,261.87Z"/><path class="cls-27" d="M331.36,292.5c-1.38-8.72-.73-17.2,3.95-25s11.09-13.23,20-15.71c9.67-2.69,19.35-4.49,29.3-1.57a10.11,10.11,0,0,1,2.78,1c.71.48,2.05,1.57,1.75,2.43s-1.87.43-2.56.19c-12.27-4.26-24.13-2-35.48,2.93-9.51,4.13-14.65,12.38-17.21,22.14-.9,3.44-.91,7.11-1.31,10.68C332.44,290.54,331.68,292.48,331.36,292.5Z"/><path class="cls-27" d="M332.62,261.5c-.62-.34.48-2.35,1.11-3.25,2.17-3.14,4.12-6.59,6.87-9.14a46.91,46.91,0,0,1,36-12.87,25.35,25.35,0,0,1,6.44,1.6c1.81.61,5.54,2.47,3.74,4.43-.88,1-2.54,0-3.51-.45-7.09-3.26-14.33-2.34-21.44-.52a45.21,45.21,0,0,0-23.64,15.25C336.63,258.38,332.89,261.65,332.62,261.5Z"/><path class="cls-27" d="M190,315.46a22.49,22.49,0,0,0,15.82,10.87,14.82,14.82,0,0,1,3.23.76,2.28,2.28,0,0,1,1.12,1.57c0,.35-.68.94-1.17,1.2a2.37,2.37,0,0,1-1.44.11c-4.26-.79-8.46-1.83-12.07-4.36A11.69,11.69,0,0,1,190,315.46Z"/><path class="cls-27" d="M462.92,530.93c-3.55-.23-6.83-2-10.2-3.18a2.07,2.07,0,0,1-1.39-3,2.78,2.78,0,0,1,2.25-1.31c3.62.67,7.22,1.51,10.77,2.5a2.51,2.51,0,0,1,2,3.1C465.9,530.83,464.42,531,462.92,530.93Z"/><path class="cls-27" d="M531.51,475.65a17.45,17.45,0,0,1,.7-3.78c.81-2,2.82-2.08,4.1-.36s1.47,6.3.23,7.84a3.83,3.83,0,0,1-2.72,1.33c-.7,0-1.59-1.08-2-1.87A10.71,10.71,0,0,1,531.51,475.65Z"/><path class="cls-27" d="M512.37,516.7c.88.11,2.11.92,2.16,1.48a3.22,3.22,0,0,1-1.23,2.62,28.2,28.2,0,0,1-5.83,2.25,2.35,2.35,0,0,1-3-1.46c-.54-1.51.51-2.36,1.7-2.82C508.07,518,510,516.4,512.37,516.7Z"/><path class="cls-27" d="M372,543.11c1.59-4.13,2.88-8.35,4.54-12.41.29-.72,1.68-1.76,2.64-1.43s1.38,2,1.18,2.74c-1,4-2.39,8-3.63,12a.6.6,0,0,1-.19.31c-.84.58-1.8,1.72-2.5,1.58S371.52,544.3,372,543.11Z"/><path class="cls-27" d="M323.65,567c-.65-.51.19-2.2.8-3,1.75-2.23,9.68-2.92,11.94-1.15a1.58,1.58,0,0,1,.24,2.56,6.29,6.29,0,0,1-2.48,1.52C331.67,567.66,325.57,568.48,323.65,567Z"/><path class="cls-27" d="M280.22,564.78c-.65.32-1.9-.41-2.76-.9a12.75,12.75,0,0,1-2.23-1.89,14.49,14.49,0,0,1-2-2.11c-1.25-1.78-1.11-3.95.19-5.05a4.19,4.19,0,0,1,5.13.29C280.68,556.89,284.87,562.51,280.22,564.78Z"/><path class="cls-27" d="M474.47,420.06c1.46.05,3.41-.65,3.62,1.49.19,2-1.82,2-3.18,2.37-1.66.43-3.36.72-5,1a11.15,11.15,0,0,1-2.21.23c-1.3,0-2.61-.36-2.78-1.87s1-2.16,2.31-2.36C469.63,420.61,472.08,420.35,474.47,420.06Z"/><path class="cls-27" d="M360.61,301.53c-4.24-.1-6.78-.94-8.91-2.85-2.71-2.43-2.93-5.44-.59-8.22a9.67,9.67,0,0,1,1.62-1.53c6-4.47,12.49-8.09,20-9.24a17.28,17.28,0,0,1,5.17-.16A5.5,5.5,0,0,1,382.5,287a10.15,10.15,0,0,1-1.58,3.34C375.36,297.28,368.08,301,360.61,301.53Z"/><path class="cls-28" d="M365.94,280.75c-.27-4.14-1.29-8.18-4.85-8.18-3,0-5.25,3.91-6.48,7.17a11.62,11.62,0,0,0-.32,7.81,8.76,8.76,0,0,0,.92,3.27c1.85,3.52,5.44.7,7.57-.74a7.87,7.87,0,0,0,2.87-3.63C366.36,284.67,366.07,282.64,365.94,280.75Z"/></g></g></svg>