<?xml version="1.0" encoding="utf-8"?>
<!-- Generator: Adobe Illustrator 22.0.1, SVG Export Plug-In . SVG Version: 6.00 Build 0)  -->
<svg version="1.1" xmlns="http://www.w3.org/2000/svg" xmlns:xlink="http://www.w3.org/1999/xlink" x="0px" y="0px"
	 viewBox="0 0 710 350" style="enable-background:new 0 0 710 350;" xml:space="preserve">
<style type="text/css">
	.st0{fill:#4468B0;stroke:#666666;stroke-miterlimit:10;}
	.st1{fill:#FFFFFF;stroke:#666666;stroke-miterlimit:10;}
	.st2{fill:#FFFFFF;}
	.st3{fill:#666D7B;}
	.st4{fill:#B3B3B3;}
</style>
<g id="Layer_1">
</g>
<g id="BG">
</g>
<g id="Layer_3">
	<g>
		<path class="st0" d="M505.5,98.1H5v-73c0-4.5,3.6-8.1,8.1-8.1h483.9c4.7,0,8.4,3.8,8.4,8.4V98.1z"/>
		<path class="st1" d="M705,196.1H11.8V98.1h684.5c4.8,0,8.8,3.9,8.8,8.8V196.1z"/>
		<rect x="11.8" y="196.1" class="st0" width="693.2" height="81.2"/>
		<g id="XMLID_243_">
			<path id="XMLID_452_" class="st2" d="M108.9,243.7c-1.3-1.3-6.5-3.2-6.5-3.2v-1.9l-0.7-0.7v-2c1.3-0.8,1.3-3.2,1.3-3.2
				c0.7,0,1.2-1.3,1.2-2.3c0-0.9-1-0.9-1-0.9s0-1.7,0-5c0-1.8-1.5-2.6-2.9-3.1l0,0l1-1.3c-3.8,0-5.4,1.2-5.4,1.2
				c-1.5,0.4-3.2,1.3-3.2,3.1c0,3.2,0,5,0,5s-1,0-1,0.9c0,0.9,0.5,2.3,1.2,2.3c0,0,0.1,2.4,1.3,3.2v2l-0.7,0.7v1.9
				c0,0-5.2,1.9-6.5,3.2c-1.3,1.3-2.1,6.8-2.1,9h13h13C110.9,250.5,110.2,245,108.9,243.7z"/>
			<path id="XMLID_451_" class="st2" d="M127.3,243.7c-1.3-1.3-6-3.2-6-3.2v-0.9l-1.1-0.7v-2l0,0c2.6,0,3.5-1.9,3.5-1.9
				c-1-1.5-1.9-5.8-1.9-5.8l0,0v-3.1c0-3-2.4-5.4-5.4-5.4c-3,0-5.4,2.4-5.4,5.4v3.1c0,0-0.9,4.3-1.9,5.8c0,0,0.9,1.9,3.5,1.9v2
				l-1.1,0.7v0.9c0,0-1.4,0.6-2.9,1.3c0.8,0.4,1.5,0.8,1.8,1.2c1.3,1.3,2.1,7.5,2.1,9.7h3.8h13C129.4,250.5,128.7,245,127.3,243.7z"
				/>
		</g>
		<g>
			<path class="st2" d="M51.8,44h6.5v18.2c0,8.2-3.9,11.1-10.2,11.1c-1.5,0-3.5-0.3-4.7-0.7l0.7-5.3c0.9,0.3,2,0.5,3.3,0.5
				c2.7,0,4.4-1.2,4.4-5.7V44z"/>
			<path class="st2" d="M75.1,72.8l-0.4-2.1h-0.1c-1.4,1.7-3.5,2.6-6,2.6c-4.2,0-6.7-3.1-6.7-6.4c0-5.4,4.9-8,12.3-8v-0.3
				c0-1.1-0.6-2.7-3.8-2.7c-2.1,0-4.4,0.7-5.8,1.6l-1.2-4.2c1.5-0.8,4.3-1.8,8.1-1.8c7,0,9.2,4.1,9.2,9v7.3c0,2,0.1,3.9,0.3,5.1
				H75.1z M74.4,62.9c-3.4,0-6.1,0.8-6.1,3.3c0,1.7,1.1,2.5,2.6,2.5c1.6,0,2.9-1.1,3.4-2.4c0.1-0.3,0.1-0.7,0.1-1.1V62.9z"/>
			<path class="st2" d="M105.7,51.9c-0.1,1.3-0.2,3.1-0.2,6.2v11.7c0,4-0.8,7.3-3.2,9.4c-2.3,2-5.4,2.6-8.5,2.6
				c-2.7,0-5.6-0.6-7.5-1.6l1.3-4.9c1.3,0.8,3.6,1.6,6.1,1.6c3.1,0,5.4-1.7,5.4-5.5v-1.4h-0.1c-1.2,1.8-3.2,2.7-5.6,2.7
				c-5.2,0-8.8-4.2-8.8-10.2c0-6.7,4.4-11,9.5-11c2.9,0,4.7,1.2,5.7,2.9h0.1l0.2-2.5H105.7z M99.1,60.4c0-0.4,0-0.9-0.1-1.2
				c-0.5-1.7-1.7-2.9-3.5-2.9c-2.3,0-4.3,2.1-4.3,5.9c0,3.1,1.5,5.6,4.3,5.6c1.7,0,3-1.1,3.4-2.6c0.2-0.5,0.2-1.2,0.2-1.7V60.4z"/>
			<path class="st2" d="M122.7,72.8l-0.4-2.1h-0.1c-1.4,1.7-3.5,2.6-6,2.6c-4.2,0-6.7-3.1-6.7-6.4c0-5.4,4.9-8,12.3-8v-0.3
				c0-1.1-0.6-2.7-3.8-2.7c-2.1,0-4.4,0.7-5.8,1.6l-1.2-4.2c1.5-0.8,4.3-1.8,8.1-1.8c7,0,9.2,4.1,9.2,9v7.3c0,2,0.1,3.9,0.3,5.1
				H122.7z M121.9,62.9c-3.4,0-6.1,0.8-6.1,3.3c0,1.7,1.1,2.5,2.6,2.5c1.6,0,2.9-1.1,3.4-2.4c0.1-0.3,0.1-0.7,0.1-1.1V62.9z"/>
			<path class="st2" d="M162.6,62.1c0,7.6-5.4,11.1-11,11.1c-6.1,0-10.8-4-10.8-10.8c0-6.7,4.4-11.1,11.1-11.1
				C158.3,51.4,162.6,55.8,162.6,62.1z M147.5,62.3c0,3.6,1.5,6.3,4.3,6.3c2.5,0,4.1-2.5,4.1-6.3c0-3.1-1.2-6.3-4.1-6.3
				C148.6,56,147.5,59.2,147.5,62.3z"/>
			<path class="st2" d="M166.6,58.5c0-2.6-0.1-4.8-0.2-6.7h5.5l0.3,2.8h0.1c0.9-1.3,2.7-3.3,6.3-3.3c2.7,0,4.8,1.4,5.7,3.5h0.1
				c0.8-1.1,1.7-1.9,2.7-2.5c1.2-0.7,2.4-1,4-1c4,0,7,2.8,7,9.1v12.3h-6.3V61.4c0-3-1-4.8-3.1-4.8c-1.5,0-2.6,1-3,2.3
				c-0.2,0.5-0.3,1.2-0.3,1.7v12.2h-6.3V61.1c0-2.6-0.9-4.4-3-4.4c-1.7,0-2.6,1.3-3,2.3c-0.2,0.5-0.3,1.1-0.3,1.6v12.2h-6.3V58.5z"
				/>
			<path class="st2" d="M215.2,72.8l-0.4-2.1h-0.1c-1.4,1.7-3.5,2.6-6,2.6c-4.2,0-6.7-3.1-6.7-6.4c0-5.4,4.9-8,12.3-8v-0.3
				c0-1.1-0.6-2.7-3.8-2.7c-2.1,0-4.4,0.7-5.8,1.6l-1.2-4.2c1.5-0.8,4.3-1.8,8.1-1.8c7,0,9.2,4.1,9.2,9v7.3c0,2,0.1,3.9,0.3,5.1
				H215.2z M214.4,62.9c-3.4,0-6.1,0.8-6.1,3.3c0,1.7,1.1,2.5,2.6,2.5c1.6,0,2.9-1.1,3.4-2.4c0.1-0.3,0.1-0.7,0.1-1.1V62.9z"/>
			<path class="st2" d="M246.3,72.8l-0.4-2.1h-0.1c-1.4,1.7-3.5,2.6-6,2.6c-4.2,0-6.7-3.1-6.7-6.4c0-5.4,4.9-8,12.3-8v-0.3
				c0-1.1-0.6-2.7-3.8-2.7c-2.1,0-4.4,0.7-5.8,1.6l-1.2-4.2c1.5-0.8,4.3-1.8,8.1-1.8c7,0,9.2,4.1,9.2,9v7.3c0,2,0.1,3.9,0.3,5.1
				H246.3z M245.6,62.9c-3.4,0-6.1,0.8-6.1,3.3c0,1.7,1.1,2.5,2.6,2.5c1.6,0,2.9-1.1,3.4-2.4c0.1-0.3,0.1-0.7,0.1-1.1V62.9z"/>
			<path class="st2" d="M252.7,76.6c1.7-0.1,3-0.5,3.8-1.4c0.9-1,1.3-2.6,1.3-6.8V51.9h6.5V70c0,4.6-1,7.3-2.9,9.1
				c-1.9,1.8-5,2.6-8.1,2.6L252.7,76.6z M264.5,46.1c0,1.8-1.3,3.2-3.5,3.2c-2,0-3.4-1.5-3.4-3.2c0-1.9,1.3-3.3,3.5-3.3
				C263.2,42.8,264.5,44.2,264.5,46.1z"/>
			<path class="st2" d="M281.3,72.8l-0.4-2.1h-0.1c-1.4,1.7-3.5,2.6-6,2.6c-4.2,0-6.7-3.1-6.7-6.4c0-5.4,4.9-8,12.3-8v-0.3
				c0-1.1-0.6-2.7-3.8-2.7c-2.1,0-4.4,0.7-5.8,1.6l-1.2-4.2c1.5-0.8,4.3-1.8,8.1-1.8c7,0,9.2,4.1,9.2,9v7.3c0,2,0.1,3.9,0.3,5.1
				H281.3z M280.5,62.9c-3.4,0-6.1,0.8-6.1,3.3c0,1.7,1.1,2.5,2.6,2.5c1.6,0,2.9-1.1,3.4-2.4c0.1-0.3,0.1-0.7,0.1-1.1V62.9z"/>
			<path class="st2" d="M287.7,76.6c1.7-0.1,3-0.5,3.8-1.4c0.9-1,1.3-2.6,1.3-6.8V51.9h6.5V70c0,4.6-1,7.3-2.9,9.1
				c-1.9,1.8-5,2.6-8.1,2.6L287.7,76.6z M299.5,46.1c0,1.8-1.3,3.2-3.5,3.2c-2,0-3.4-1.5-3.4-3.2c0-1.9,1.3-3.3,3.5-3.3
				C298.2,42.8,299.5,44.2,299.5,46.1z"/>
			<path class="st2" d="M325,62.1c0,7.6-5.4,11.1-11,11.1c-6.1,0-10.8-4-10.8-10.8c0-6.7,4.4-11.1,11.1-11.1
				C320.8,51.4,325,55.8,325,62.1z M309.9,62.3c0,3.6,1.5,6.3,4.3,6.3c2.5,0,4.1-2.5,4.1-6.3c0-3.1-1.2-6.3-4.1-6.3
				C311.1,56,309.9,59.2,309.9,62.3z"/>
			<path class="st2" d="M349.8,62.1c0,7.6-5.4,11.1-11,11.1c-6.1,0-10.8-4-10.8-10.8c0-6.7,4.4-11.1,11.1-11.1
				C345.5,51.4,349.8,55.8,349.8,62.1z M334.7,62.3c0,3.6,1.5,6.3,4.3,6.3c2.5,0,4.1-2.5,4.1-6.3c0-3.1-1.2-6.3-4.1-6.3
				C335.8,56,334.7,59.2,334.7,62.3z"/>
			<path class="st2" d="M353.8,58.5c0-2.6-0.1-4.8-0.2-6.7h5.6l0.3,2.9h0.1c0.9-1.3,3-3.3,6.4-3.3c4.3,0,7.5,2.8,7.5,9v12.4h-6.5
				V61.2c0-2.7-0.9-4.5-3.3-4.5c-1.8,0-2.9,1.2-3.3,2.4c-0.2,0.4-0.3,1-0.3,1.6v12h-6.5V58.5z"/>
			<path class="st2" d="M383.8,64.4c0.2,2.7,2.9,4,5.9,4c2.2,0,4-0.3,5.8-0.9l0.9,4.4c-2.1,0.9-4.7,1.3-7.6,1.3
				c-7.1,0-11.1-4.1-11.1-10.6c0-5.3,3.3-11.1,10.5-11.1c6.7,0,9.3,5.3,9.3,10.4c0,1.1-0.1,2.1-0.2,2.6H383.8z M391.5,59.9
				c0-1.6-0.7-4.2-3.7-4.2c-2.7,0-3.8,2.5-4,4.2H391.5z"/>
			<path class="st2" d="M401.4,42.4h6.5v30.3h-6.5V42.4z"/>
		</g>
		<g>
			<path class="st2" d="M154.4,248c1.7,1.1,4.3,1.9,6.9,1.9c3.9,0,6.2-2.1,6.2-5.1c0-2.8-1.6-4.4-5.6-5.9c-4.9-1.7-7.9-4.3-7.9-8.5
				c0-4.7,3.9-8.1,9.7-8.1c3.1,0,5.3,0.7,6.6,1.5l-1.1,3.1c-1-0.5-3-1.4-5.7-1.4c-4.1,0-5.6,2.4-5.6,4.5c0,2.8,1.8,4.2,5.9,5.8
				c5,1.9,7.6,4.4,7.6,8.8c0,4.6-3.4,8.6-10.5,8.6c-2.9,0-6-0.8-7.6-1.9L154.4,248z"/>
			<path class="st2" d="M176.6,221.3h3.9v13.4h0.1c0.6-1.1,1.6-2.1,2.8-2.7c1.2-0.7,2.5-1.1,4-1.1c2.9,0,7.5,1.8,7.5,9.2v12.8H191
				v-12.3c0-3.5-1.3-6.4-5-6.4c-2.5,0-4.5,1.8-5.2,3.9c-0.2,0.5-0.3,1.1-0.3,1.9v12.9h-3.9V221.3z"/>
			<path class="st2" d="M213.1,252.7l-0.3-2.7h-0.1c-1.2,1.7-3.5,3.2-6.6,3.2c-4.3,0-6.6-3.1-6.6-6.2c0-5.2,4.6-8,12.9-8v-0.4
				c0-1.8-0.5-5-4.9-5c-2,0-4.1,0.6-5.6,1.6l-0.9-2.6c1.8-1.2,4.3-1.9,7-1.9c6.6,0,8.2,4.5,8.2,8.8v8c0,1.9,0.1,3.7,0.4,5.1H213.1z
				 M212.5,241.8c-4.3-0.1-9.1,0.7-9.1,4.8c0,2.5,1.7,3.7,3.7,3.7c2.8,0,4.6-1.8,5.2-3.6c0.1-0.4,0.2-0.8,0.2-1.2V241.8z"/>
			<path class="st2" d="M222.5,238c0-2.5,0-4.7-0.2-6.7h3.4l0.1,4.2h0.2c1-2.9,3.3-4.7,5.9-4.7c0.4,0,0.8,0,1.1,0.1v3.7
				c-0.4-0.1-0.8-0.1-1.3-0.1c-2.7,0-4.7,2.1-5.2,5c-0.1,0.5-0.2,1.2-0.2,1.8v11.4h-3.9V238z"/>
			<path class="st2" d="M238.7,242.7c0.1,5.3,3.5,7.4,7.4,7.4c2.8,0,4.5-0.5,5.9-1.1l0.7,2.8c-1.4,0.6-3.7,1.3-7.1,1.3
				c-6.6,0-10.5-4.3-10.5-10.8c0-6.5,3.8-11.6,10.1-11.6c7,0,8.9,6.2,8.9,10.1c0,0.8-0.1,1.4-0.1,1.8H238.7z M250.2,239.9
				c0-2.5-1-6.3-5.4-6.3c-3.9,0-5.7,3.6-6,6.3H250.2z"/>
			<path class="st2" d="M287.6,241.8c0,7.9-5.5,11.4-10.7,11.4c-5.8,0-10.3-4.3-10.3-11c0-7.2,4.7-11.4,10.6-11.4
				C283.4,230.8,287.6,235.3,287.6,241.8z M270.5,242c0,4.7,2.7,8.2,6.5,8.2c3.7,0,6.5-3.5,6.5-8.3c0-3.6-1.8-8.2-6.4-8.2
				C272.5,233.7,270.5,238,270.5,242z"/>
			<path class="st2" d="M292.5,237.1c0-2.2,0-4-0.2-5.8h3.5l0.2,3.5h0.1c1.1-2,3.5-4,7.1-4c3,0,7.6,1.8,7.6,9.1v12.8h-3.9v-12.4
				c0-3.5-1.3-6.3-5-6.3c-2.6,0-4.6,1.8-5.2,4c-0.2,0.5-0.3,1.2-0.3,1.8v12.9h-3.9V237.1z"/>
			<path class="st2" d="M338.3,252.7L338,250h-0.1c-1.2,1.7-3.5,3.2-6.6,3.2c-4.3,0-6.6-3.1-6.6-6.2c0-5.2,4.6-8,12.9-8v-0.4
				c0-1.8-0.5-5-4.9-5c-2,0-4.1,0.6-5.6,1.6l-0.9-2.6c1.8-1.2,4.3-1.9,7-1.9c6.6,0,8.2,4.5,8.2,8.8v8c0,1.9,0.1,3.7,0.4,5.1H338.3z
				 M337.7,241.8c-4.3-0.1-9.1,0.7-9.1,4.8c0,2.5,1.7,3.7,3.7,3.7c2.8,0,4.6-1.8,5.2-3.6c0.1-0.4,0.2-0.8,0.2-1.2V241.8z"/>
			<path class="st2" d="M357.3,222.9h16.1v3.2h-12.2v9.9h11.3v3.2h-11.3v13.5h-3.9V222.9z"/>
			<path class="st2" d="M377.6,238c0-2.5,0-4.7-0.2-6.7h3.4l0.1,4.2h0.2c1-2.9,3.3-4.7,5.9-4.7c0.4,0,0.8,0,1.1,0.1v3.7
				c-0.4-0.1-0.8-0.1-1.3-0.1c-2.7,0-4.7,2.1-5.2,5c-0.1,0.5-0.2,1.2-0.2,1.8v11.4h-3.9V238z"/>
			<path class="st2" d="M396.6,225.2c0,1.3-0.9,2.4-2.5,2.4c-1.4,0-2.3-1.1-2.3-2.4c0-1.4,1-2.4,2.4-2.4
				C395.7,222.8,396.6,223.9,396.6,225.2z M392.3,252.7v-21.4h3.9v21.4H392.3z"/>
			<path class="st2" d="M404.8,242.7c0.1,5.3,3.5,7.4,7.4,7.4c2.8,0,4.5-0.5,5.9-1.1l0.7,2.8c-1.4,0.6-3.7,1.3-7.1,1.3
				c-6.6,0-10.5-4.3-10.5-10.8c0-6.5,3.8-11.6,10.1-11.6c7,0,8.9,6.2,8.9,10.1c0,0.8-0.1,1.4-0.1,1.8H404.8z M416.2,239.9
				c0-2.5-1-6.3-5.4-6.3c-3.9,0-5.7,3.6-6,6.3H416.2z"/>
			<path class="st2" d="M424.8,237.1c0-2.2,0-4-0.2-5.8h3.5l0.2,3.5h0.1c1.1-2,3.5-4,7.1-4c3,0,7.6,1.8,7.6,9.1v12.8h-3.9v-12.4
				c0-3.5-1.3-6.3-5-6.3c-2.6,0-4.6,1.8-5.2,4c-0.2,0.5-0.3,1.2-0.3,1.8v12.9h-3.9V237.1z"/>
			<path class="st2" d="M467.9,221.3v25.9c0,1.9,0,4.1,0.2,5.5h-3.5l-0.2-3.7h-0.1c-1.2,2.4-3.8,4.2-7.3,4.2
				c-5.2,0-9.2-4.4-9.2-10.9c0-7.1,4.4-11.5,9.6-11.5c3.3,0,5.5,1.6,6.5,3.3h0.1v-12.8H467.9z M464,240c0-0.5,0-1.2-0.2-1.6
				c-0.6-2.5-2.7-4.5-5.6-4.5c-4,0-6.4,3.5-6.4,8.3c0,4.3,2.1,7.9,6.3,7.9c2.6,0,5-1.7,5.7-4.7c0.1-0.5,0.2-1.1,0.2-1.7V240z"/>
			<path class="st2" d="M477.2,222.4l-0.8,10.6h-2.4l-0.7-10.6H477.2z"/>
			<path class="st2" d="M482.2,248.7c1.2,0.8,3.2,1.5,5.1,1.5c2.8,0,4.2-1.4,4.2-3.2c0-1.9-1.1-2.9-4-3.9c-3.9-1.4-5.7-3.5-5.7-6.1
				c0-3.5,2.8-6.3,7.4-6.3c2.2,0,4.1,0.6,5.3,1.3l-1,2.8c-0.8-0.5-2.4-1.2-4.4-1.2c-2.3,0-3.6,1.3-3.6,2.9c0,1.8,1.3,2.6,4.1,3.6
				c3.7,1.4,5.6,3.3,5.6,6.5c0,3.8-2.9,6.4-8,6.4c-2.3,0-4.5-0.6-6-1.5L482.2,248.7z"/>
			<path class="st2" d="M513.6,226.1h-9.1v-3.3h22.1v3.3h-9.1v26.6h-3.9V226.1z"/>
			<path class="st2" d="M533.6,225.2c0,1.3-0.9,2.4-2.5,2.4c-1.4,0-2.3-1.1-2.3-2.4c0-1.4,1-2.4,2.4-2.4
				C532.7,222.8,533.6,223.9,533.6,225.2z M529.3,252.7v-21.4h3.9v21.4H529.3z"/>
			<path class="st2" d="M539.6,237.1c0-2.2,0-4-0.2-5.8h3.4l0.2,3.5h0.1c1.2-2,3.2-3.9,6.7-3.9c2.9,0,5.1,1.8,6.1,4.3h0.1
				c0.7-1.2,1.5-2.1,2.4-2.8c1.3-1,2.7-1.5,4.7-1.5c2.8,0,7,1.9,7,9.3v12.6h-3.8v-12.1c0-4.1-1.5-6.6-4.7-6.6
				c-2.2,0-3.9,1.6-4.6,3.5c-0.2,0.5-0.3,1.2-0.3,1.9v13.2h-3.8v-12.8c0-3.4-1.5-5.9-4.5-5.9c-2.4,0-4.2,1.9-4.8,3.9
				c-0.2,0.6-0.3,1.2-0.3,1.9v12.9h-3.8V237.1z"/>
			<path class="st2" d="M578.8,242.7c0.1,5.3,3.5,7.4,7.4,7.4c2.8,0,4.5-0.5,5.9-1.1l0.7,2.8c-1.4,0.6-3.7,1.3-7.1,1.3
				c-6.6,0-10.5-4.3-10.5-10.8c0-6.5,3.8-11.6,10.1-11.6c7,0,8.9,6.2,8.9,10.1c0,0.8-0.1,1.4-0.1,1.8H578.8z M590.2,239.9
				c0-2.5-1-6.3-5.4-6.3c-3.9,0-5.7,3.6-6,6.3H590.2z"/>
			<path class="st2" d="M598.8,221.3h3.9v31.5h-3.9V221.3z"/>
			<path class="st2" d="M613.6,225.2c0,1.3-0.9,2.4-2.5,2.4c-1.4,0-2.3-1.1-2.3-2.4c0-1.4,1-2.4,2.4-2.4
				C612.6,222.8,613.6,223.9,613.6,225.2z M609.2,252.7v-21.4h3.9v21.4H609.2z"/>
			<path class="st2" d="M619.6,237.1c0-2.2,0-4-0.2-5.8h3.5l0.2,3.5h0.1c1.1-2,3.5-4,7.1-4c3,0,7.6,1.8,7.6,9.1v12.8h-3.9v-12.4
				c0-3.5-1.3-6.3-5-6.3c-2.6,0-4.6,1.8-5.2,4c-0.2,0.5-0.3,1.2-0.3,1.8v12.9h-3.9V237.1z"/>
			<path class="st2" d="M646.3,242.7c0.1,5.3,3.5,7.4,7.4,7.4c2.8,0,4.5-0.5,5.9-1.1l0.7,2.8c-1.4,0.6-3.7,1.3-7.1,1.3
				c-6.6,0-10.5-4.3-10.5-10.8c0-6.5,3.8-11.6,10.1-11.6c7,0,8.9,6.2,8.9,10.1c0,0.8-0.1,1.4-0.1,1.8H646.3z M657.8,239.9
				c0-2.5-1-6.3-5.4-6.3c-3.9,0-5.7,3.6-6,6.3H657.8z"/>
		</g>
		<g>
			<path d="M160.6,139.2h7v19.5c0,8.8-4.2,11.9-11,11.9c-1.6,0-3.7-0.3-5.1-0.7l0.8-5.6c1,0.3,2.2,0.5,3.6,0.5
				c2.9,0,4.8-1.3,4.8-6.1V139.2z"/>
			<path d="M185.7,170l-0.4-2.2h-0.1c-1.5,1.8-3.8,2.7-6.4,2.7c-4.5,0-7.2-3.3-7.2-6.9c0-5.8,5.2-8.6,13.1-8.6v-0.3
				c0-1.2-0.6-2.9-4.1-2.9c-2.3,0-4.7,0.8-6.2,1.7l-1.3-4.5c1.6-0.9,4.6-2,8.7-2c7.5,0,9.8,4.4,9.8,9.7v7.8c0,2.2,0.1,4.2,0.3,5.5
				H185.7z M184.8,159.5c-3.7,0-6.5,0.8-6.5,3.5c0,1.8,1.2,2.7,2.7,2.7c1.7,0,3.2-1.1,3.6-2.6c0.1-0.4,0.1-0.8,0.1-1.2V159.5z"/>
			<path d="M218.5,147.6c-0.1,1.4-0.2,3.3-0.2,6.6v12.5c0,4.3-0.9,7.8-3.4,10.1c-2.5,2.1-5.8,2.7-9.1,2.7c-2.9,0-6-0.6-8.1-1.7
				l1.4-5.3c1.4,0.8,3.9,1.7,6.5,1.7c3.3,0,5.8-1.8,5.8-5.9v-1.5h-0.1c-1.3,1.9-3.5,2.9-6,2.9c-5.5,0-9.5-4.5-9.5-10.9
				c0-7.2,4.7-11.8,10.2-11.8c3.1,0,5,1.3,6.1,3.2h0.1l0.2-2.7H218.5z M211.4,156.8c0-0.5,0-0.9-0.1-1.3c-0.5-1.8-1.8-3.1-3.8-3.1
				c-2.5,0-4.6,2.3-4.6,6.4c0,3.3,1.6,6,4.6,6c1.8,0,3.2-1.2,3.7-2.8c0.2-0.5,0.2-1.2,0.2-1.8V156.8z"/>
			<path d="M236.6,170l-0.4-2.2h-0.1c-1.5,1.8-3.8,2.7-6.4,2.7c-4.5,0-7.2-3.3-7.2-6.9c0-5.8,5.2-8.6,13.1-8.6v-0.3
				c0-1.2-0.6-2.9-4.1-2.9c-2.3,0-4.7,0.8-6.2,1.7l-1.3-4.5c1.6-0.9,4.6-2,8.7-2c7.5,0,9.8,4.4,9.8,9.7v7.8c0,2.2,0.1,4.2,0.3,5.5
				H236.6z M235.8,159.5c-3.7,0-6.5,0.8-6.5,3.5c0,1.8,1.2,2.7,2.7,2.7c1.7,0,3.2-1.1,3.6-2.6c0.1-0.4,0.1-0.8,0.1-1.2V159.5z"/>
			<path d="M279.5,158.6c0,8.2-5.8,12-11.8,12c-6.6,0-11.6-4.3-11.6-11.5c0-7.2,4.8-11.9,12-11.9
				C274.9,147.1,279.5,151.9,279.5,158.6z M263.3,158.8c0,3.8,1.6,6.7,4.6,6.7c2.7,0,4.4-2.7,4.4-6.7c0-3.3-1.3-6.7-4.4-6.7
				C264.5,152.1,263.3,155.5,263.3,158.8z"/>
			<path d="M283.8,154.8c0-2.8-0.1-5.2-0.2-7.1h5.9l0.3,3h0.1c1-1.4,2.9-3.5,6.8-3.5c2.9,0,5.2,1.5,6.1,3.8h0.1
				c0.8-1.1,1.8-2.1,2.9-2.7c1.2-0.7,2.6-1.1,4.3-1.1c4.3,0,7.6,3,7.6,9.7V170h-6.8v-12.2c0-3.3-1.1-5.1-3.3-5.1
				c-1.6,0-2.7,1.1-3.2,2.4c-0.2,0.5-0.3,1.2-0.3,1.8V170h-6.8v-12.6c0-2.8-1-4.8-3.2-4.8c-1.8,0-2.8,1.4-3.3,2.5
				c-0.2,0.5-0.3,1.2-0.3,1.7V170h-6.8V154.8z"/>
			<path d="M335.9,170l-0.4-2.2h-0.1c-1.5,1.8-3.8,2.7-6.4,2.7c-4.5,0-7.2-3.3-7.2-6.9c0-5.8,5.2-8.6,13.1-8.6v-0.3
				c0-1.2-0.6-2.9-4.1-2.9c-2.3,0-4.7,0.8-6.2,1.7l-1.3-4.5c1.6-0.9,4.6-2,8.7-2c7.5,0,9.8,4.4,9.8,9.7v7.8c0,2.2,0.1,4.2,0.3,5.5
				H335.9z M335.1,159.5c-3.7,0-6.5,0.8-6.5,3.5c0,1.8,1.2,2.7,2.7,2.7c1.7,0,3.2-1.1,3.6-2.6c0.1-0.4,0.1-0.8,0.1-1.2V159.5z"/>
			<path d="M369.4,170l-0.4-2.2h-0.1c-1.5,1.8-3.8,2.7-6.4,2.7c-4.5,0-7.2-3.3-7.2-6.9c0-5.8,5.2-8.6,13.1-8.6v-0.3
				c0-1.2-0.6-2.9-4.1-2.9c-2.3,0-4.7,0.8-6.2,1.7l-1.3-4.5c1.6-0.9,4.6-2,8.7-2c7.5,0,9.8,4.4,9.8,9.7v7.8c0,2.2,0.1,4.2,0.3,5.5
				H369.4z M368.5,159.5c-3.7,0-6.5,0.8-6.5,3.5c0,1.8,1.2,2.7,2.7,2.7c1.7,0,3.2-1.1,3.6-2.6c0.1-0.4,0.1-0.8,0.1-1.2V159.5z"/>
			<path d="M376.2,174.2c1.8-0.1,3.3-0.5,4.1-1.5c1-1.1,1.4-2.8,1.4-7.3v-17.8h7v19.4c0,4.9-1.1,7.9-3.2,9.8
				c-2.1,1.9-5.3,2.7-8.7,2.7L376.2,174.2z M388.9,141.4c0,1.9-1.4,3.5-3.8,3.5c-2.2,0-3.6-1.6-3.6-3.5c0-2,1.4-3.5,3.7-3.5
				C387.5,137.9,388.8,139.4,388.9,141.4z"/>
			<path d="M406.9,170l-0.4-2.2h-0.1c-1.5,1.8-3.8,2.7-6.4,2.7c-4.5,0-7.2-3.3-7.2-6.9c0-5.8,5.2-8.6,13.1-8.6v-0.3
				c0-1.2-0.6-2.9-4.1-2.9c-2.3,0-4.7,0.8-6.2,1.7l-1.3-4.5c1.6-0.9,4.6-2,8.7-2c7.5,0,9.8,4.4,9.8,9.7v7.8c0,2.2,0.1,4.2,0.3,5.5
				H406.9z M406,159.5c-3.7,0-6.5,0.8-6.5,3.5c0,1.8,1.2,2.7,2.7,2.7c1.7,0,3.2-1.1,3.6-2.6c0.1-0.4,0.1-0.8,0.1-1.2V159.5z"/>
			<path d="M413.7,174.2c1.8-0.1,3.3-0.5,4.1-1.5c1-1.1,1.4-2.8,1.4-7.3v-17.8h7v19.4c0,4.9-1.1,7.9-3.2,9.8
				c-2.1,1.9-5.3,2.7-8.7,2.7L413.7,174.2z M426.4,141.4c0,1.9-1.4,3.5-3.8,3.5c-2.2,0-3.6-1.6-3.6-3.5c0-2,1.4-3.5,3.7-3.5
				C425,137.9,426.3,139.4,426.4,141.4z"/>
			<path d="M453.8,158.6c0,8.2-5.8,12-11.8,12c-6.5,0-11.6-4.3-11.6-11.5c0-7.2,4.8-11.9,12-11.9
				C449.2,147.1,453.8,151.9,453.8,158.6z M437.6,158.8c0,3.8,1.6,6.7,4.6,6.7c2.7,0,4.4-2.7,4.4-6.7c0-3.3-1.3-6.7-4.4-6.7
				C438.8,152.1,437.6,155.5,437.6,158.8z"/>
			<path d="M480.3,158.6c0,8.2-5.8,12-11.8,12c-6.5,0-11.6-4.3-11.6-11.5c0-7.2,4.8-11.9,12-11.9
				C475.8,147.1,480.3,151.9,480.3,158.6z M464.1,158.8c0,3.8,1.6,6.7,4.6,6.7c2.7,0,4.4-2.7,4.4-6.7c0-3.3-1.3-6.7-4.4-6.7
				C465.4,152.1,464.1,155.5,464.1,158.8z"/>
			<path d="M484.7,154.8c0-2.8-0.1-5.2-0.2-7.1h6l0.3,3.1h0.1c0.9-1.4,3.2-3.6,6.9-3.6c4.6,0,8,3,8,9.6V170h-7v-12.4
				c0-2.9-1-4.9-3.5-4.9c-1.9,0-3.1,1.3-3.5,2.6c-0.2,0.4-0.3,1.1-0.3,1.7V170h-7V154.8z"/>
			<path d="M516.9,161.1c0.2,2.9,3.1,4.3,6.3,4.3c2.4,0,4.3-0.3,6.2-0.9l0.9,4.7c-2.3,0.9-5.1,1.4-8.1,1.4c-7.6,0-12-4.4-12-11.4
				c0-5.7,3.5-12,11.3-12c7.2,0,10,5.6,10,11.2c0,1.2-0.1,2.2-0.2,2.7H516.9z M525.1,156.3c0-1.7-0.7-4.5-3.9-4.5
				c-2.9,0-4.1,2.7-4.3,4.5H525.1z"/>
			<path d="M535.7,137.5h7V170h-7V137.5z"/>
		</g>
		<polygon class="st2" points="444.6,50.7 478.4,50.7 461.5,67.6 		"/>
		<polygon class="st3" points="35.7,154.5 34.1,159.9 42.2,169.1 62.5,149.8 60.8,143.8 42.2,162.3 		"/>
		<path class="st4" d="M87.9,251.9"/>
		<g>
			<g>
				
					<rect x="98.4" y="147.2" transform="matrix(0.7071 -0.7071 0.7071 0.7071 -74.2785 122.0459)" class="st3" width="23.6" height="6.9"/>
				<polygon class="st3" points="102.5,163.3 95.8,165 97.6,158.4 				"/>
				
					<rect x="119.8" y="135.2" transform="matrix(0.7071 -0.7071 0.7071 0.7071 -62.249 127.0277)" class="st3" width="4.8" height="6.9"/>
			</g>
			<g>
				<path class="st3" d="M120.6,172.7h-0.4v0.4C120.2,172.9,120.4,172.7,120.6,172.7z"/>
				<path class="st3" d="M89,172.7v0.4h0.4C89.3,172.9,89.2,172.7,89,172.7z"/>
				<path class="st3" d="M89.3,173.1v-0.4H89C89.2,172.7,89.3,172.9,89.3,173.1z"/>
				<path class="st3" d="M89.3,141.5H89l0,0.4C89.2,141.8,89.3,141.7,89.3,141.5z"/>
				<path class="st3" d="M120.2,173.1h0.4v-0.4C120.4,172.7,120.2,172.9,120.2,173.1z"/>
				<path class="st3" d="M120.2,172.7h0.4v0.4v1.1v1.5c1.4,0,2.6-1.2,2.6-2.6v-25.9l-3,2.5V172.7z"/>
				<path class="st3" d="M120.6,173.1h-0.4v-0.4H89.3v0.4H89v-0.4h0.4v-30.9H89l0-0.4h0.4v0.4h18.9l3.4-3H89c-1.4,0-2.6,1.2-2.6,2.6
					v31.6c0,1.4,1.2,2.6,2.6,2.6h31.6v-1.5V173.1z"/>
				<path class="st3" d="M89,141.8h0.4v-0.4C89.3,141.7,89.2,141.8,89,141.8z"/>
				<path class="st3" d="M120.6,141.8v-0.4l-0.4,0C120.2,141.7,120.4,141.8,120.6,141.8z"/>
				<path class="st3" d="M120.2,141.5v0.4h0.4C120.4,141.8,120.2,141.7,120.2,141.5z"/>
			</g>
		</g>
		<g>
			<path class="st2" d="M384.4,292.6h-0.5c-1.2,0-2.2,0.8-2.6,1.9c0,0.2-0.1,0.4-0.2,0.6c-0.4,1.1-1.5,1.9-2.8,1.9
				c-1.3,0-2.4-0.8-2.8-1.9c-0.1-0.3-0.2-0.7-0.2-1v-1c0-1.5-1.2-2.7-2.7-2.7h-1.1c-1.5,0-2.7,1.2-2.7,2.7c0,0.8-0.3,1.5-0.8,2
				c-0.5,0.6-1.3,1-2.2,1s-1.6-0.4-2.2-1c-0.5-0.5-0.8-1.3-0.8-2v-2.2c0-1.5-1.2-2.7-2.7-2.7h-0.7c-1.5,0-2.7,1.2-2.7,2.7v0.3
				c0,1.7-1.3,3-3,3c-1.7,0-3-1.3-3-3v-29.7c0-1.5-1.2-2.7-2.7-2.7h-0.6c-1.5,0-2.7,1.2-2.7,2.7v44.9v5.1c0,0.2,0,0.5,0.1,0.7
				l-6.1-4.3l-4-2.8c-1.1-1.1-2.8-1.1-3.8,0l-0.4,0.4c-1.1,1.1-1.1,2.8,0,3.8l8.8,8.8l7.4,7.4c0,0,0.1,0.1,0.1,0.1
				c0.9,0.9,2.1,1.4,3.4,1.4h0.4h31.6c2.7,0,4.9-2.2,4.9-4.9v-13.1v-0.6v-7.4v-5.8c0-0.1,0-0.2,0-0.2
				C387,293.7,385.8,292.6,384.4,292.6z"/>
			<path d="M384.4,286.6h-0.5c-1.6,0-3,0.4-4.3,1.2c-1.6-2.1-4.1-3.4-6.9-3.4h-1.1c-1.6,0-3.2,0.5-4.5,1.2c-1.6-2.1-4.1-3.5-6.9-3.5
				h-0.7c-0.9,0-1.9,0.2-2.7,0.4v-21.1c0-4.8-3.9-8.7-8.7-8.7h-0.6c-4.8,0-8.7,3.9-8.7,8.7v38.9c-3.7-2.7-8.8-2.7-12.1,0.5l-0.4,0.4
				c-3.4,3.4-3.4,8.9,0,12.3l16.2,16.2l0.1,0.1c2,2,4.7,3.2,7.7,3.2h0.4h3.5h28.1c4.3,0,7.9-2.4,9.7-6c0.8-1.5,1.2-3.2,1.2-4.9
				v-13.1v-0.6v-7.4v-5.8c0-0.1,0-0.2,0-0.2C393,290.4,389.1,286.6,384.4,286.6z M387.1,301.1v7.4v0.6v13.1c0,2.7-2.2,4.9-4.9,4.9
				h-31.6h-0.4c-1.3,0-2.5-0.5-3.4-1.4c0,0-0.1-0.1-0.1-0.1l-7.4-7.4l-8.8-8.8c-1.1-1.1-1.1-2.8,0-3.8l0.4-0.4
				c1.1-1.1,2.8-1.1,3.8,0l4,2.8l6.1,4.3c-0.1-0.2-0.1-0.5-0.1-0.7v-5.1v-44.9c0-1.5,1.2-2.7,2.7-2.7h0.6c1.5,0,2.7,1.2,2.7,2.7
				v29.7c0,1.7,1.3,3,3,3c1.7,0,3-1.3,3-3v-0.3c0-1.5,1.2-2.7,2.7-2.7h0.7c1.5,0,2.7,1.2,2.7,2.7v2.2c0,0.8,0.3,1.5,0.8,2
				c0.5,0.6,1.3,1,2.2,1s1.6-0.4,2.2-1c0.5-0.5,0.8-1.3,0.8-2c0-1.5,1.2-2.7,2.7-2.7h1.1c1.5,0,2.7,1.2,2.7,2.7v1
				c0,0.4,0.1,0.7,0.2,1c0.4,1.1,1.5,1.9,2.8,1.9c1.3,0,2.4-0.8,2.8-1.9c0.1-0.2,0.1-0.4,0.2-0.6c0.4-1.1,1.4-1.9,2.6-1.9h0.5
				c1.4,0,2.6,1.1,2.7,2.5c0,0.1,0,0.2,0,0.2V301.1z"/>
		</g>
	</g>
	<g>
	</g>
	<g>
	</g>
	<g>
	</g>
	<g>
	</g>
	<g>
	</g>
	<g>
	</g>
	<g>
	</g>
	<g>
	</g>
	<g>
	</g>
	<g>
	</g>
	<g>
	</g>
	<g>
	</g>
	<g>
	</g>
	<g>
	</g>
	<g>
	</g>
</g>
</svg>
