<?xml version="1.0" encoding="utf-8"?>
<!-- Generator: Adobe Illustrator 22.0.1, SVG Export Plug-In . SVG Version: 6.00 Build 0)  -->
<svg version="1.1" xmlns="http://www.w3.org/2000/svg" xmlns:xlink="http://www.w3.org/1999/xlink" x="0px" y="0px"
	 viewBox="0 0 450 65" style="enable-background:new 0 0 450 65;" xml:space="preserve">
<style type="text/css">
	.st0{fill:#FFFFFF;}
	.st1{fill:url(#SVGID_1_);}
	.st2{fill:url(#SVGID_2_);}
	.st3{fill:#1D1D1B;}
	.st4{fill:url(#SVGID_3_);}
</style>
<g id="Layer_1">
</g>
<g id="Layer_2">
	<g>
		<g>
			<path class="st0" d="M221,29.1l-0.3,1.9c-0.1,0.5-0.3,0.8-0.6,1.1c-0.3,0.2-0.8,0.3-1.4,0.3h-1.9l-1,5.2h2.6c0.5,0,0.8,0.1,1,0.4
				s0.3,0.8,0.2,1.5l-0.2,1.5h-4.1l-1.4,7.7h-2.1c-0.2,0-0.4,0-0.6-0.2c-0.2-0.1-0.3-0.2-0.5-0.4c-0.1-0.2-0.2-0.4-0.3-0.6
				c-0.1-0.2-0.1-0.5,0-0.7l1.1-5.7h-3.8l-1.1,6c-0.1,0.6-0.4,1-0.8,1.3c-0.4,0.3-0.8,0.4-1.3,0.4h-2.1l1.4-7.7h-2.2
				c-0.5,0-0.8-0.1-1-0.4c-0.2-0.3-0.3-0.8-0.1-1.4l0.2-1.5h3.6l1-5.2h-4l0.4-1.9c0.1-0.5,0.3-0.8,0.6-1.1c0.3-0.2,0.8-0.3,1.4-0.3
				h2.1l1.1-6c0.1-0.5,0.3-0.9,0.7-1.2c0.4-0.3,0.8-0.4,1.3-0.4h2.1l-1.4,7.6h3.8l1.4-7.6h2.1c0.5,0,0.9,0.2,1.1,0.5
				c0.3,0.3,0.4,0.7,0.3,1.2l-1.1,6H221z M212.9,32.5h-3.8l-1,5.2h3.8L212.9,32.5z"/>
			<path class="st0" d="M229.6,32.9h1.2c0.5,0,0.9-0.1,1.2-0.2s0.6-0.3,0.8-0.6l7.5-9.5c0.3-0.4,0.6-0.7,1-0.8
				c0.3-0.2,0.8-0.2,1.3-0.2h4.4l-9.1,11.3c-0.5,0.7-1.1,1.2-1.7,1.5c0.4,0.2,0.8,0.4,1.1,0.6c0.3,0.3,0.6,0.6,0.9,1.1l9.4,12.7
				h-4.5c-0.6,0-1-0.1-1.3-0.3s-0.5-0.4-0.7-0.7l-7.7-10c-0.2-0.3-0.5-0.6-0.8-0.7c-0.3-0.1-0.8-0.2-1.4-0.2h-1.6v11.9h-5.1V21.5
				h5.1V32.9z"/>
			<path class="st0" d="M261.3,44.6c1,0,1.8-0.2,2.6-0.5c0.8-0.3,1.4-0.8,1.9-1.4c0.5-0.6,0.9-1.3,1.2-2.1c0.3-0.8,0.4-1.8,0.4-2.8
				V21.5h5.1v16.3c0,1.6-0.3,3.1-0.8,4.5c-0.5,1.4-1.3,2.6-2.2,3.5c-1,1-2.2,1.8-3.5,2.3s-3,0.8-4.7,0.8c-1.8,0-3.3-0.3-4.7-0.8
				c-1.4-0.6-2.6-1.3-3.5-2.3c-1-1-1.7-2.2-2.2-3.5c-0.5-1.4-0.8-2.9-0.8-4.5V21.5h5.1v16.2c0,1,0.1,2,0.4,2.8
				c0.3,0.8,0.7,1.6,1.2,2.1c0.5,0.6,1.2,1.1,2,1.4C259.4,44.4,260.3,44.6,261.3,44.6z"/>
			<path class="st0" d="M294.1,44.5v4.2h-15.9V21.5h5.1v23H294.1z"/>
			<path class="st0" d="M321.8,35.1c0,2-0.3,3.8-1,5.5c-0.7,1.7-1.6,3.1-2.8,4.3c-1.2,1.2-2.6,2.1-4.3,2.8c-1.7,0.7-3.6,1-5.6,1
				h-10.3V21.5h10.3c2.1,0,3.9,0.3,5.6,1c1.7,0.7,3.1,1.6,4.3,2.8c1.2,1.2,2.1,2.6,2.8,4.3C321.5,31.3,321.8,33.1,321.8,35.1z
				 M316.7,35.1c0-1.5-0.2-2.8-0.6-4c-0.4-1.2-1-2.2-1.7-3c-0.7-0.8-1.6-1.4-2.7-1.9c-1.1-0.4-2.3-0.7-3.6-0.7h-5.3v19.1h5.3
				c1.3,0,2.5-0.2,3.6-0.7c1.1-0.4,2-1.1,2.7-1.9c0.7-0.8,1.3-1.8,1.7-3C316.5,37.9,316.7,36.6,316.7,35.1z"/>
			<path class="st0" d="M340.7,26.5c-0.2,0.3-0.3,0.5-0.5,0.6c-0.2,0.1-0.4,0.2-0.6,0.2c-0.3,0-0.5-0.1-0.9-0.3
				c-0.3-0.2-0.7-0.4-1.1-0.6c-0.4-0.2-0.9-0.5-1.5-0.6c-0.6-0.2-1.2-0.3-2-0.3c-0.7,0-1.3,0.1-1.8,0.3c-0.5,0.2-1,0.4-1.3,0.7
				c-0.4,0.3-0.6,0.7-0.8,1.1c-0.2,0.4-0.3,0.9-0.3,1.4c0,0.6,0.2,1.2,0.5,1.6c0.4,0.4,0.8,0.8,1.4,1.1c0.6,0.3,1.3,0.6,2,0.8
				c0.8,0.2,1.5,0.5,2.3,0.8c0.8,0.3,1.6,0.6,2.3,0.9c0.8,0.4,1.4,0.8,2,1.4c0.6,0.5,1.1,1.2,1.4,2c0.4,0.8,0.5,1.7,0.5,2.9
				c0,1.2-0.2,2.4-0.6,3.4c-0.4,1.1-1,2-1.8,2.8c-0.8,0.8-1.8,1.4-3,1.9s-2.5,0.7-4,0.7c-0.9,0-1.7-0.1-2.6-0.3s-1.6-0.4-2.4-0.7
				c-0.8-0.3-1.5-0.7-2.2-1.1c-0.7-0.4-1.3-0.9-1.8-1.5l1.5-2.4c0.1-0.2,0.3-0.3,0.5-0.4c0.2-0.1,0.4-0.2,0.6-0.2
				c0.3,0,0.7,0.1,1,0.4c0.4,0.3,0.8,0.5,1.3,0.9c0.5,0.3,1.1,0.6,1.8,0.9c0.7,0.3,1.5,0.4,2.4,0.4c1.4,0,2.6-0.3,3.3-1
				c0.8-0.7,1.2-1.7,1.2-2.9c0-0.7-0.2-1.3-0.5-1.7c-0.4-0.5-0.8-0.8-1.4-1.1c-0.6-0.3-1.3-0.6-2-0.8s-1.5-0.4-2.3-0.7
				c-0.8-0.2-1.5-0.6-2.3-0.9c-0.8-0.3-1.4-0.8-2-1.4c-0.6-0.6-1.1-1.3-1.4-2.1c-0.4-0.8-0.5-1.9-0.5-3.1c0-1,0.2-2,0.6-2.9
				s1-1.8,1.7-2.5c0.8-0.7,1.7-1.3,2.8-1.7c1.1-0.4,2.4-0.7,3.8-0.7c1.6,0,3.1,0.3,4.4,0.8c1.4,0.5,2.5,1.2,3.5,2.1L340.7,26.5z"/>
			<path class="st0" d="M357.8,44.6c1,0,1.8-0.2,2.6-0.5c0.8-0.3,1.4-0.8,1.9-1.4c0.5-0.6,0.9-1.3,1.2-2.1c0.3-0.8,0.4-1.8,0.4-2.8
				V21.5h5.1v16.3c0,1.6-0.3,3.1-0.8,4.5c-0.5,1.4-1.3,2.6-2.2,3.5c-1,1-2.2,1.8-3.5,2.3s-3,0.8-4.7,0.8c-1.8,0-3.3-0.3-4.7-0.8
				c-1.4-0.6-2.6-1.3-3.5-2.3c-1-1-1.7-2.2-2.2-3.5c-0.5-1.4-0.8-2.9-0.8-4.5V21.5h5.1v16.2c0,1,0.1,2,0.4,2.8
				c0.3,0.8,0.7,1.6,1.2,2.1c0.5,0.6,1.2,1.1,2,1.4C356,44.4,356.8,44.6,357.8,44.6z M356.2,17.4c0,0.3-0.1,0.7-0.2,1
				c-0.1,0.3-0.3,0.6-0.6,0.8c-0.2,0.2-0.5,0.4-0.8,0.5c-0.3,0.1-0.6,0.2-1,0.2c-0.3,0-0.6-0.1-0.9-0.2c-0.3-0.1-0.6-0.3-0.8-0.5
				c-0.2-0.2-0.4-0.5-0.5-0.8c-0.1-0.3-0.2-0.6-0.2-1s0.1-0.7,0.2-1c0.1-0.3,0.3-0.6,0.5-0.8s0.5-0.4,0.8-0.6
				c0.3-0.1,0.6-0.2,0.9-0.2c0.4,0,0.7,0.1,1,0.2c0.3,0.1,0.6,0.3,0.8,0.6s0.4,0.5,0.6,0.8C356.1,16.7,356.2,17,356.2,17.4z
				 M364.5,17.4c0,0.3-0.1,0.7-0.2,1c-0.1,0.3-0.3,0.6-0.5,0.8c-0.2,0.2-0.5,0.4-0.8,0.5c-0.3,0.1-0.6,0.2-1,0.2
				c-0.4,0-0.7-0.1-1-0.2c-0.3-0.1-0.6-0.3-0.8-0.5c-0.2-0.2-0.4-0.5-0.5-0.8c-0.1-0.3-0.2-0.6-0.2-1s0.1-0.7,0.2-1
				c0.1-0.3,0.3-0.6,0.5-0.8c0.2-0.2,0.5-0.4,0.8-0.6c0.3-0.1,0.6-0.2,1-0.2c0.3,0,0.7,0.1,1,0.2c0.3,0.1,0.6,0.3,0.8,0.6
				s0.4,0.5,0.5,0.8C364.4,16.7,364.5,17,364.5,17.4z"/>
			<path class="st0" d="M398.9,35.1c0,2-0.3,3.8-1,5.5c-0.7,1.7-1.6,3.1-2.8,4.3c-1.2,1.2-2.6,2.1-4.3,2.8c-1.7,0.7-3.6,1-5.6,1
				h-10.3V21.5h10.3c2.1,0,3.9,0.3,5.6,1c1.7,0.7,3.1,1.6,4.3,2.8c1.2,1.2,2.1,2.6,2.8,4.3C398.6,31.3,398.9,33.1,398.9,35.1z
				 M393.7,35.1c0-1.5-0.2-2.8-0.6-4c-0.4-1.2-1-2.2-1.7-3c-0.7-0.8-1.6-1.4-2.7-1.9c-1.1-0.4-2.3-0.7-3.6-0.7h-5.3v19.1h5.3
				c1.3,0,2.5-0.2,3.6-0.7c1.1-0.4,2-1.1,2.7-1.9c0.7-0.8,1.3-1.8,1.7-3C393.5,37.9,393.7,36.6,393.7,35.1z"/>
			<path class="st0" d="M425.8,48.7h-3.9c-0.4,0-0.8-0.1-1.1-0.3s-0.5-0.5-0.6-0.8l-2-5.5h-11.2l-2,5.5c-0.1,0.3-0.3,0.6-0.6,0.8
				c-0.3,0.2-0.6,0.4-1.1,0.4h-3.9l10.7-27.2h5.1L425.8,48.7z M416.8,38.4l-3.3-9c-0.2-0.4-0.3-0.9-0.5-1.4
				c-0.2-0.6-0.4-1.1-0.5-1.8c-0.2,0.6-0.3,1.2-0.5,1.8c-0.2,0.6-0.3,1-0.5,1.5l-3.3,9H416.8z"/>
		</g>
		<g>
			<g>
				<linearGradient id="SVGID_1_" gradientUnits="userSpaceOnUse" x1="37.9556" y1="-29.4654" x2="68.2889" y2="121.5346">
					<stop  offset="0" style="stop-color:#663800"/>
					<stop  offset="0.3976" style="stop-color:#FFD373"/>
					<stop  offset="1" style="stop-color:#CEA040"/>
				</linearGradient>
				<path class="st1" d="M54.8,10.7c-4.8-2-11,0.3-16.3,5.5c1.3,2.2,2.5,4.6,3.6,7.2c4.9,12.1,4.3,24.1-0.8,29.9
					c6.1-1.5,12.6-7.4,16.6-15.8C63.5,25.8,62.1,13.8,54.8,10.7z"/>
				<linearGradient id="SVGID_2_" gradientUnits="userSpaceOnUse" x1="13.8791" y1="-24.6288" x2="44.2124" y2="126.3712">
					<stop  offset="0" style="stop-color:#663800"/>
					<stop  offset="0.3976" style="stop-color:#FFD373"/>
					<stop  offset="1" style="stop-color:#CEA040"/>
				</linearGradient>
				<path class="st2" d="M34.7,52.9c-7.3-3.1-8.7-15.1-3.1-26.7c1.9-4,4.3-7.4,7-10C32.1,5.5,22.6-0.7,15.3,1.9
					C6.4,5.1,4.1,19.8,10.2,34.8c6,15,18,24.6,26.9,21.5c1.7-0.6,3.1-1.6,4.3-3C39,53.9,36.7,53.8,34.7,52.9z"/>
				<path class="st0" d="M42.2,23.4c-1-2.6-2.2-5-3.6-7.2c-2.7,2.7-5.1,6.1-7,10c-5.6,11.6-4.2,23.6,3.1,26.7c2,0.9,4.3,1,6.7,0.4
					C46.4,47.5,47,35.5,42.2,23.4z"/>
			</g>
			<g>
				<path class="st3" d="M90.5,41.8c0.1,0,0.3,0,0.4,0.1c0.1,0.1,0.3,0.2,0.4,0.3l2.5,2.6c-1.1,1.4-2.5,2.5-4.1,3.2
					c-1.6,0.7-3.6,1.1-5.8,1.1c-2.1,0-3.9-0.4-5.5-1.1c-1.6-0.7-3-1.7-4.2-2.9c-1.1-1.2-2-2.7-2.6-4.4c-0.6-1.7-0.9-3.5-0.9-5.5
					c0-2,0.3-3.9,1-5.6c0.7-1.7,1.6-3.2,2.8-4.4c1.2-1.2,2.6-2.2,4.3-2.9c1.7-0.7,3.5-1,5.5-1c1,0,2,0.1,2.9,0.3
					c0.9,0.2,1.7,0.4,2.5,0.7c0.8,0.3,1.5,0.7,2.2,1.1c0.7,0.4,1.2,0.9,1.8,1.5l-2.1,2.9c-0.1,0.2-0.3,0.3-0.5,0.5
					c-0.2,0.1-0.4,0.2-0.8,0.2c-0.2,0-0.4,0-0.6-0.1c-0.2-0.1-0.4-0.2-0.6-0.4c-0.2-0.1-0.5-0.3-0.7-0.5c-0.3-0.2-0.6-0.3-1-0.5
					c-0.4-0.1-0.8-0.3-1.3-0.4c-0.5-0.1-1.1-0.1-1.7-0.1c-1,0-2,0.2-2.9,0.6s-1.6,0.9-2.2,1.7c-0.6,0.7-1.1,1.6-1.5,2.7
					c-0.3,1.1-0.5,2.3-0.5,3.7c0,1.4,0.2,2.6,0.6,3.7c0.4,1.1,0.9,2,1.5,2.7c0.7,0.7,1.4,1.3,2.3,1.7c0.9,0.4,1.8,0.6,2.8,0.6
					c0.6,0,1.1,0,1.6-0.1c0.5-0.1,0.9-0.1,1.3-0.3c0.4-0.1,0.8-0.3,1.2-0.5c0.4-0.2,0.7-0.5,1.1-0.8c0.1-0.1,0.3-0.2,0.5-0.3
					C90.1,41.8,90.3,41.8,90.5,41.8z"/>
				<path class="st3" d="M121,21.6l-10.9,27.2h-5.7L93.5,21.6h5.1c0.5,0,1,0.1,1.3,0.4c0.3,0.3,0.6,0.6,0.8,1l5.3,14.5
					c0.2,0.6,0.5,1.3,0.7,2.1c0.2,0.8,0.5,1.5,0.7,2.4c0.2-0.8,0.4-1.6,0.6-2.4c0.2-0.8,0.5-1.4,0.7-2.1l5.2-14.5
					c0.1-0.3,0.4-0.7,0.7-0.9c0.4-0.3,0.8-0.4,1.3-0.4H121z"/>
				<path class="st3" d="M117,45.9c0-0.4,0.1-0.9,0.3-1.2c0.2-0.4,0.4-0.7,0.7-1c0.3-0.3,0.6-0.5,1-0.7c0.4-0.2,0.8-0.3,1.3-0.3
					c0.5,0,0.9,0.1,1.3,0.3c0.4,0.2,0.7,0.4,1,0.7c0.3,0.3,0.5,0.6,0.7,1c0.2,0.4,0.3,0.8,0.3,1.2c0,0.4-0.1,0.9-0.3,1.3
					c-0.2,0.4-0.4,0.7-0.7,1c-0.3,0.3-0.6,0.5-1,0.7c-0.4,0.2-0.8,0.2-1.3,0.2c-0.5,0-0.9-0.1-1.3-0.2c-0.4-0.2-0.7-0.4-1-0.7
					c-0.3-0.3-0.5-0.6-0.7-1C117,46.7,117,46.3,117,45.9z"/>
				<path class="st3" d="M131.4,40.2c0.2,1.6,0.7,2.8,1.5,3.5c0.8,0.7,1.8,1.1,3.1,1.1c0.7,0,1.2-0.1,1.7-0.2
					c0.5-0.2,0.9-0.3,1.3-0.5c0.4-0.2,0.7-0.4,1-0.5c0.3-0.2,0.6-0.2,1-0.2c0.5,0,0.8,0.2,1,0.5l1.7,2.1c-0.6,0.7-1.2,1.2-1.9,1.7
					c-0.7,0.4-1.4,0.8-2.1,1c-0.7,0.2-1.5,0.4-2.2,0.5c-0.7,0.1-1.4,0.1-2.1,0.1c-1.4,0-2.6-0.2-3.8-0.7c-1.2-0.4-2.2-1.1-3.1-2
					c-0.9-0.9-1.6-2-2.1-3.2c-0.5-1.3-0.8-2.8-0.8-4.5c0-1.3,0.2-2.5,0.7-3.7c0.4-1.2,1.1-2.2,1.9-3c0.8-0.9,1.8-1.6,3-2.1
					c1.2-0.5,2.5-0.8,4-0.8c1.3,0,2.5,0.2,3.5,0.6c1.1,0.4,2,1,2.7,1.7c0.8,0.8,1.4,1.7,1.8,2.8c0.4,1.1,0.6,2.3,0.6,3.7
					c0,0.4,0,0.8-0.1,1.1c0,0.3-0.1,0.5-0.2,0.7c-0.1,0.2-0.2,0.3-0.4,0.3c-0.2,0.1-0.4,0.1-0.6,0.1H131.4z M138.7,36.8
					c0-0.5-0.1-0.9-0.2-1.3c-0.1-0.4-0.3-0.8-0.6-1.2c-0.3-0.3-0.6-0.6-1.1-0.8c-0.4-0.2-1-0.3-1.6-0.3c-1.1,0-2,0.3-2.6,0.9
					c-0.6,0.6-1,1.5-1.2,2.7H138.7z"/>
				<path class="st3" d="M151.5,40.2c0.2,1.6,0.7,2.8,1.5,3.5c0.8,0.7,1.8,1.1,3.1,1.1c0.7,0,1.2-0.1,1.7-0.2
					c0.5-0.2,0.9-0.3,1.3-0.5c0.4-0.2,0.7-0.4,1-0.5c0.3-0.2,0.6-0.2,1-0.2c0.5,0,0.8,0.2,1,0.5l1.7,2.1c-0.6,0.7-1.2,1.2-1.9,1.7
					c-0.7,0.4-1.4,0.8-2.1,1c-0.7,0.2-1.5,0.4-2.2,0.5c-0.7,0.1-1.4,0.1-2.1,0.1c-1.4,0-2.6-0.2-3.8-0.7c-1.2-0.4-2.2-1.1-3.1-2
					c-0.9-0.9-1.6-2-2.1-3.2c-0.5-1.3-0.8-2.8-0.8-4.5c0-1.3,0.2-2.5,0.7-3.7c0.4-1.2,1.1-2.2,1.9-3c0.8-0.9,1.8-1.6,3-2.1
					c1.2-0.5,2.5-0.8,4-0.8c1.3,0,2.5,0.2,3.5,0.6c1.1,0.4,2,1,2.7,1.7c0.8,0.8,1.4,1.7,1.8,2.8c0.4,1.1,0.6,2.3,0.6,3.7
					c0,0.4,0,0.8-0.1,1.1c0,0.3-0.1,0.5-0.2,0.7c-0.1,0.2-0.2,0.3-0.4,0.3c-0.2,0.1-0.4,0.1-0.6,0.1H151.5z M158.8,36.8
					c0-0.5-0.1-0.9-0.2-1.3c-0.1-0.4-0.3-0.8-0.6-1.2c-0.3-0.3-0.6-0.6-1.1-0.8c-0.4-0.2-1-0.3-1.6-0.3c-1.1,0-2,0.3-2.6,0.9
					c-0.6,0.6-1,1.5-1.2,2.7H158.8z"/>
			</g>
		</g>
		<g>
			
				<linearGradient id="SVGID_3_" gradientUnits="userSpaceOnUse" x1="-272.8614" y1="-467.7642" x2="-271.863" y2="-467.7642" gradientTransform="matrix(263.8323 0 0 -263.8323 72169.4531 -123377.9688)">
				<stop  offset="0" style="stop-color:#CE8B00"/>
				<stop  offset="0.5237" style="stop-color:#DEAE1C"/>
				<stop  offset="1" style="stop-color:#CE8B00"/>
			</linearGradient>
			<path class="st4" d="M427.3,63.7H195.7c-8.7,0-15.9-7.2-15.9-15.9V18.9c0-8.7,7.2-15.9,15.9-15.9h231.6c8.7,0,15.9,7.2,15.9,15.9
				v28.9C443.2,56.5,436,63.7,427.3,63.7z"/>
		</g>
		<g>
			<path class="st0" d="M203.8,32.1l-0.3,1.6c-0.1,0.4-0.2,0.7-0.5,0.9c-0.3,0.2-0.7,0.3-1.3,0.3H201l-0.5,3.1h1.4
				c0.4,0,0.7,0.1,0.9,0.4c0.2,0.2,0.2,0.6,0.1,1.2l-0.2,1.2H200l-0.9,5.1h-1.9c-0.2,0-0.4,0-0.5-0.1c-0.2-0.1-0.3-0.2-0.4-0.3
				c-0.1-0.1-0.2-0.3-0.2-0.5c0-0.2,0-0.4,0-0.6l0.6-3.5h-2.1l-0.6,3.7c0,0.3-0.1,0.5-0.2,0.6c-0.1,0.2-0.3,0.3-0.4,0.4
				c-0.2,0.1-0.3,0.2-0.5,0.2s-0.4,0.1-0.6,0.1h-1.8l0.9-5.1h-1.1c-0.4,0-0.7-0.1-0.9-0.4c-0.2-0.2-0.2-0.6-0.1-1.2l0.2-1.2h2.3
				l0.5-3.1h-2.6l0.3-1.6c0.1-0.4,0.2-0.7,0.5-0.9c0.3-0.2,0.7-0.3,1.3-0.3h0.9l0.7-3.8c0.1-0.4,0.3-0.7,0.6-1s0.7-0.3,1.1-0.3h1.8
				l-0.9,5.1h2.2l0.9-5.1h1.8c0.2,0,0.4,0,0.6,0.1s0.3,0.2,0.4,0.3s0.2,0.3,0.3,0.4c0.1,0.2,0.1,0.3,0,0.5l-0.7,3.8H203.8z
				 M197.7,34.9h-2.2L195,38h2.2L197.7,34.9z"/>
			<path class="st0" d="M204.7,28.8c0.7-0.6,1.6-1.1,2.7-1.5c1.1-0.4,2.2-0.5,3.5-0.5c1.1,0,2,0.1,2.9,0.4c0.9,0.2,1.6,0.6,2.2,1
				c0.6,0.4,1.1,1,1.4,1.6c0.3,0.6,0.5,1.3,0.5,2c0,0.8-0.2,1.6-0.6,2.4c-0.4,0.7-0.9,1.3-1.7,1.8c0.4,0.2,0.8,0.4,1.1,0.7
				c0.3,0.3,0.6,0.6,0.9,0.9c0.2,0.3,0.4,0.7,0.6,1c0.1,0.4,0.2,0.8,0.2,1.2c0,0.9-0.2,1.7-0.5,2.4c-0.3,0.8-0.8,1.4-1.4,2
				c-0.6,0.6-1.4,1-2.3,1.3c-0.9,0.3-1.9,0.5-3.1,0.5c-0.6,0-1.3-0.1-2-0.2c-0.7-0.1-1.3-0.3-1.9-0.5c-0.6-0.2-1.2-0.5-1.7-0.8
				c-0.5-0.3-1-0.6-1.4-1l1.3-2c0.1-0.1,0.2-0.3,0.4-0.4c0.2-0.1,0.4-0.1,0.6-0.1c0.3,0,0.5,0.1,0.8,0.2s0.6,0.3,1,0.5
				c0.4,0.2,0.8,0.4,1.3,0.5c0.5,0.2,1.1,0.2,1.8,0.2c0.5,0,0.9,0,1.3-0.1s0.7-0.2,1-0.4c0.3-0.2,0.5-0.5,0.6-0.8
				c0.1-0.3,0.2-0.7,0.2-1.2c0-0.4-0.1-0.7-0.2-1s-0.4-0.5-0.7-0.7s-0.6-0.3-1-0.4c-0.4-0.1-0.8-0.1-1.3-0.1h-2.7l0-3.4h2.4
				c1.1,0,1.9-0.2,2.4-0.6c0.5-0.4,0.8-0.9,0.8-1.6c0-0.6-0.2-1.1-0.7-1.4c-0.5-0.3-1.2-0.5-2.2-0.5c-0.6,0-1.1,0.1-1.5,0.2
				c-0.4,0.1-0.8,0.3-1.1,0.4c-0.3,0.2-0.6,0.3-0.9,0.4c-0.2,0.1-0.5,0.2-0.7,0.2c-0.2,0-0.4-0.1-0.6-0.2c-0.1-0.1-0.3-0.3-0.4-0.5
				L204.7,28.8z"/>
			<path class="st0" d="M239.5,36.5c0,1.4-0.2,2.6-0.7,3.8c-0.5,1.2-1.1,2.2-2,3.1c-0.9,0.9-1.9,1.5-3.1,2c-1.2,0.5-2.5,0.7-4,0.7
				s-2.8-0.2-4-0.7c-1.2-0.5-2.2-1.2-3.1-2c-0.9-0.9-1.5-1.9-2-3.1c-0.5-1.2-0.7-2.4-0.7-3.8c0-1.4,0.2-2.6,0.7-3.8
				c0.5-1.2,1.1-2.2,2-3.1c0.9-0.9,1.9-1.5,3.1-2c1.2-0.5,2.5-0.7,4-0.7s2.8,0.2,4,0.7c1.2,0.5,2.2,1.2,3.1,2c0.9,0.9,1.5,1.9,2,3.1
				C239.3,33.8,239.5,35.1,239.5,36.5z M235,36.5c0-0.9-0.1-1.8-0.4-2.5c-0.2-0.7-0.6-1.4-1-1.9s-1-0.9-1.7-1.2
				c-0.7-0.3-1.4-0.4-2.2-0.4c-0.8,0-1.6,0.1-2.3,0.4c-0.7,0.3-1.2,0.7-1.7,1.2c-0.5,0.5-0.8,1.2-1,1.9c-0.2,0.7-0.4,1.6-0.4,2.5
				c0,0.9,0.1,1.8,0.4,2.5c0.2,0.7,0.6,1.4,1,1.9c0.5,0.5,1,0.9,1.7,1.2c0.7,0.3,1.4,0.4,2.3,0.4c0.8,0,1.6-0.1,2.2-0.4
				c0.7-0.3,1.2-0.7,1.7-1.2s0.8-1.2,1-1.9C234.9,38.2,235,37.4,235,36.5z"/>
			<path class="st0" d="M257.8,45.9h-4.4V30.3h-4.2c-0.1,2.3-0.3,4.3-0.5,6c-0.2,1.7-0.5,3.1-0.8,4.3c-0.3,1.2-0.7,2.1-1.1,2.9
				c-0.4,0.7-0.9,1.3-1.4,1.7c-0.5,0.4-1,0.7-1.6,0.8s-1.2,0.2-1.8,0.2c-0.8,0-1.3-0.1-1.6-0.2c-0.3-0.1-0.5-0.3-0.5-0.6v-2.7h1.1
				c0.2,0,0.4,0,0.6-0.1c0.2,0,0.4-0.1,0.6-0.3c0.2-0.1,0.4-0.4,0.6-0.6s0.4-0.7,0.6-1.2c0.2-0.5,0.4-1.1,0.6-1.9
				c0.2-0.8,0.3-1.7,0.5-2.8c0.1-1.1,0.3-2.4,0.4-3.8s0.2-3.1,0.2-5h12.7V45.9z"/>
			<path class="st0" d="M280,36.5c0,1.4-0.2,2.6-0.7,3.8c-0.5,1.2-1.1,2.2-2,3.1c-0.9,0.9-1.9,1.5-3.1,2c-1.2,0.5-2.5,0.7-4,0.7
				s-2.8-0.2-4-0.7c-1.2-0.5-2.2-1.2-3.1-2c-0.9-0.9-1.5-1.9-2-3.1c-0.5-1.2-0.7-2.4-0.7-3.8c0-1.4,0.2-2.6,0.7-3.8
				c0.5-1.2,1.1-2.2,2-3.1c0.9-0.9,1.9-1.5,3.1-2s2.5-0.7,4-0.7s2.8,0.2,4,0.7c1.2,0.5,2.2,1.2,3.1,2c0.9,0.9,1.5,1.9,2,3.1
				C279.7,33.8,280,35.1,280,36.5z M275.5,36.5c0-0.9-0.1-1.8-0.4-2.5c-0.2-0.7-0.6-1.4-1-1.9s-1-0.9-1.7-1.2
				c-0.7-0.3-1.4-0.4-2.2-0.4c-0.8,0-1.6,0.1-2.3,0.4c-0.7,0.3-1.2,0.7-1.7,1.2c-0.5,0.5-0.8,1.2-1,1.9c-0.2,0.7-0.4,1.6-0.4,2.5
				c0,0.9,0.1,1.8,0.4,2.5c0.2,0.7,0.6,1.4,1,1.9c0.5,0.5,1,0.9,1.7,1.2c0.7,0.3,1.4,0.4,2.3,0.4c0.8,0,1.6-0.1,2.2-0.4
				c0.7-0.3,1.2-0.7,1.7-1.2s0.8-1.2,1-1.9C275.4,38.2,275.5,37.4,275.5,36.5z"/>
			<path class="st0" d="M295.7,30.5h-5.3v15.4H286V30.5h-5.3V27h15V30.5z"/>
			<path class="st0" d="M316,36.5c0,1.4-0.2,2.6-0.7,3.8c-0.5,1.2-1.1,2.2-2,3.1c-0.9,0.9-1.9,1.5-3.1,2c-1.2,0.5-2.5,0.7-4,0.7
				s-2.8-0.2-4-0.7c-1.2-0.5-2.2-1.2-3.1-2c-0.9-0.9-1.5-1.9-2-3.1c-0.5-1.2-0.7-2.4-0.7-3.8c0-1.4,0.2-2.6,0.7-3.8
				c0.5-1.2,1.1-2.2,2-3.1c0.9-0.9,1.9-1.5,3.1-2s2.5-0.7,4-0.7s2.8,0.2,4,0.7c1.2,0.5,2.2,1.2,3.1,2c0.9,0.9,1.5,1.9,2,3.1
				C315.8,33.8,316,35.1,316,36.5z M311.5,36.5c0-0.9-0.1-1.8-0.4-2.5c-0.2-0.7-0.6-1.4-1-1.9s-1-0.9-1.7-1.2
				c-0.7-0.3-1.4-0.4-2.2-0.4c-0.8,0-1.6,0.1-2.3,0.4c-0.7,0.3-1.2,0.7-1.7,1.2c-0.5,0.5-0.8,1.2-1,1.9c-0.2,0.7-0.4,1.6-0.4,2.5
				c0,0.9,0.1,1.8,0.4,2.5c0.2,0.7,0.6,1.4,1,1.9c0.5,0.5,1,0.9,1.7,1.2c0.7,0.3,1.4,0.4,2.3,0.4c0.8,0,1.6-0.1,2.2-0.4
				c0.7-0.3,1.2-0.7,1.7-1.2s0.8-1.2,1-1.9C311.4,38.2,311.5,37.4,311.5,36.5z"/>
			<path class="st0" d="M323,30.4v4.4h5.9V38H323v4.5h7.8v3.4h-12.2V27h12.2v3.4H323z"/>
			<path class="st0" d="M345.8,41c0.1,0,0.2,0,0.3,0.1s0.2,0.1,0.3,0.2l1.7,1.8c-0.8,1-1.7,1.7-2.9,2.2s-2.5,0.8-4.1,0.8
				c-1.4,0-2.7-0.2-3.9-0.7s-2.1-1.2-2.9-2s-1.4-1.9-1.8-3.1c-0.4-1.2-0.6-2.5-0.6-3.8c0-1.4,0.2-2.7,0.7-3.9
				c0.5-1.2,1.1-2.2,1.9-3.1c0.8-0.9,1.8-1.5,3-2c1.2-0.5,2.4-0.7,3.8-0.7c0.7,0,1.4,0.1,2,0.2c0.6,0.1,1.2,0.3,1.8,0.5
				c0.5,0.2,1,0.5,1.5,0.8c0.5,0.3,0.9,0.6,1.2,1l-1.5,2c-0.1,0.1-0.2,0.2-0.3,0.3c-0.1,0.1-0.3,0.1-0.5,0.1c-0.2,0-0.3,0-0.4-0.1
				c-0.1-0.1-0.3-0.2-0.4-0.3c-0.2-0.1-0.3-0.2-0.5-0.3c-0.2-0.1-0.4-0.2-0.7-0.3c-0.3-0.1-0.6-0.2-0.9-0.3
				c-0.3-0.1-0.7-0.1-1.2-0.1c-0.7,0-1.4,0.1-2,0.4c-0.6,0.3-1.1,0.7-1.6,1.2s-0.8,1.1-1,1.9c-0.2,0.7-0.4,1.6-0.4,2.6
				c0,1,0.1,1.8,0.4,2.6s0.6,1.4,1.1,1.9c0.5,0.5,1,0.9,1.6,1.2c0.6,0.3,1.3,0.4,1.9,0.4c0.4,0,0.8,0,1.1-0.1c0.3,0,0.6-0.1,0.9-0.2
				c0.3-0.1,0.6-0.2,0.8-0.4c0.2-0.2,0.5-0.3,0.8-0.6c0.1-0.1,0.2-0.2,0.3-0.2C345.5,41,345.7,41,345.8,41z"/>
			<path class="st0" d="M354.5,30.4v4.4h5.9V38h-5.9v4.5h7.8v3.4H350V27h12.2v3.4H354.5z"/>
			<path class="st0" d="M371.6,27c1.3,0,2.5,0.2,3.4,0.5s1.7,0.8,2.4,1.3c0.6,0.6,1.1,1.2,1.4,2s0.4,1.6,0.4,2.4
				c0,0.9-0.2,1.8-0.5,2.6c-0.3,0.8-0.8,1.5-1.4,2c-0.6,0.6-1.4,1-2.4,1.3c-1,0.3-2.1,0.5-3.4,0.5h-2.3v6.3h-4.4V27H371.6z
				 M371.6,36.3c1.1,0,2-0.3,2.5-0.8s0.8-1.3,0.8-2.3c0-0.4-0.1-0.8-0.2-1.2s-0.3-0.7-0.6-0.9s-0.6-0.5-1-0.6
				c-0.4-0.1-0.9-0.2-1.4-0.2h-2.3v6H371.6z"/>
			<path class="st0" d="M398.6,42.7v6.5c0,0.4-0.1,0.7-0.4,0.9s-0.6,0.3-1,0.3h-2.6v-4.4h-12.7v3.2c0,0.4-0.1,0.7-0.4,0.9
				s-0.6,0.3-1,0.3h-2.6v-7.7h2.1c0.2-0.1,0.4-0.3,0.7-0.6c0.2-0.3,0.4-0.7,0.7-1.2c0.2-0.5,0.4-1.1,0.6-1.9
				c0.2-0.8,0.4-1.7,0.5-2.8c0.2-1.1,0.3-2.4,0.4-3.9c0.1-1.5,0.2-3.2,0.2-5.2h12.7v15.6H398.6z M391.4,42.7V30.3h-4.2
				c-0.1,1.6-0.2,3.1-0.4,4.4c-0.2,1.3-0.4,2.4-0.6,3.4c-0.2,1-0.5,1.9-0.7,2.6c-0.3,0.7-0.5,1.4-0.8,1.9H391.4z"/>
			<path class="st0" d="M419.5,42.7v6.5c0,0.4-0.1,0.7-0.4,0.9s-0.6,0.3-1,0.3h-2.6v-4.4H401V27h4.4v15.6h7.1V27h4.4v15.6H419.5z"/>
			<path class="st0" d="M426.4,30.4v4.4h5.9V38h-5.9v4.5h7.8v3.4H422V27h12.2v3.4H426.4z"/>
		</g>
	</g>
</g>
</svg>
