<?xml version="1.0" encoding="utf-8"?>
<!-- Generator: Adobe Illustrator 22.0.1, SVG Export Plug-In . SVG Version: 6.00 Build 0)  -->
<svg version="1.1" xmlns="http://www.w3.org/2000/svg" xmlns:xlink="http://www.w3.org/1999/xlink" x="0px" y="0px"
	 viewBox="0 0 794 350" style="enable-background:new 0 0 794 350;" xml:space="preserve">
<style type="text/css">
	.st0{fill:#4468B0;stroke:#666666;stroke-miterlimit:10;}
	.st1{fill:#FFFFFF;stroke:#666666;stroke-miterlimit:10;}
	.st2{fill:#FFFFFF;}
	.st3{fill:#666D7B;}
	.st4{fill:#B3B3B3;}
</style>
<g id="Layer_1">
</g>
<g id="BG">
</g>
<g id="Layer_3">
	<path class="st0" d="M671.4,98.1H5v-73c0-4.5,3.6-8.1,8.1-8.1H663c4.7,0,8.4,3.8,8.4,8.4V98.1z"/>
	<path class="st1" d="M781,196.1H11.8V98.1h760.5c4.8,0,8.8,3.9,8.8,8.8V196.1z"/>
	<rect x="11.8" y="196.1" class="st0" width="769.2" height="81.2"/>
	<g id="XMLID_243_">
		<path id="XMLID_452_" class="st2" d="M108.9,243.7c-1.3-1.3-6.5-3.2-6.5-3.2v-1.9l-0.7-0.7v-2c1.3-0.8,1.3-3.2,1.3-3.2
			c0.7,0,1.2-1.3,1.2-2.3c0-0.9-1-0.9-1-0.9s0-1.7,0-5c0-1.8-1.5-2.6-2.9-3.1l0,0l1-1.3c-3.8,0-5.4,1.2-5.4,1.2
			c-1.5,0.4-3.2,1.3-3.2,3.1c0,3.2,0,5,0,5s-1,0-1,0.9c0,0.9,0.5,2.3,1.2,2.3c0,0,0.1,2.4,1.3,3.2v2l-0.7,0.7v1.9
			c0,0-5.2,1.9-6.5,3.2c-1.3,1.3-2.1,6.8-2.1,9h13h13C110.9,250.5,110.2,245,108.9,243.7z"/>
		<path id="XMLID_451_" class="st2" d="M127.3,243.7c-1.3-1.3-6-3.2-6-3.2v-0.9l-1.1-0.7v-2l0,0c2.6,0,3.5-1.9,3.5-1.9
			c-1-1.5-1.9-5.8-1.9-5.8l0,0v-3.1c0-3-2.4-5.4-5.4-5.4c-3,0-5.4,2.4-5.4,5.4v3.1c0,0-0.9,4.3-1.9,5.8c0,0,0.9,1.9,3.5,1.9v2
			l-1.1,0.7v0.9c0,0-1.4,0.6-2.9,1.3c0.8,0.4,1.5,0.8,1.8,1.2c1.3,1.3,2.1,7.5,2.1,9.7h3.8h13C129.4,250.5,128.7,245,127.3,243.7z"
			/>
	</g>
	<g>
		<path class="st2" d="M69.4,44v28.8h-6.5V49.3H52.7v23.4h-6.5V44H69.4z"/>
		<path class="st2" d="M95.5,62.1c0,7.6-5.4,11.1-11,11.1c-6.1,0-10.8-4-10.8-10.8c0-6.7,4.4-11.1,11.1-11.1
			C91.2,51.4,95.5,55.8,95.5,62.1z M80.3,62.3c0,3.6,1.5,6.3,4.3,6.3c2.5,0,4.1-2.5,4.1-6.3c0-3.1-1.2-6.3-4.1-6.3
			C81.5,56,80.3,59.2,80.3,62.3z"/>
		<path class="st2" d="M118.3,51.9v16.3l2.3,0.1l-0.3,11.2h-4.9l-0.2-6.7H102l-0.3,6.7h-4.9l-0.2-11.2l1.9-0.1
			c0.9-1.3,1.6-2.8,2.1-4.4c0.6-2.2,0.9-4.5,0.9-6.8v-5.1H118.3z M107.2,59.1c0,1.8-0.3,3.6-0.8,5.4c-0.3,1.2-0.8,2.5-1.5,3.5h6.9
			V56.6h-4.7V59.1z"/>
		<path class="st2" d="M128.9,64.4c0.2,2.7,2.9,4,5.9,4c2.2,0,4-0.3,5.8-0.9l0.9,4.4c-2.1,0.9-4.7,1.3-7.6,1.3
			c-7.1,0-11.1-4.1-11.1-10.6c0-5.3,3.3-11.1,10.5-11.1c6.7,0,9.3,5.3,9.3,10.4c0,1.1-0.1,2.1-0.2,2.6H128.9z M136.5,59.9
			c0-1.6-0.7-4.2-3.7-4.2c-2.7,0-3.8,2.5-4,4.2H136.5z"/>
		<path class="st2" d="M164.8,51.9v20.9h-6.5V56.8h-4.5v3.8c0,5.1-0.6,8.6-2.9,10.5c-1.3,1.4-3.2,2-6.1,2l-0.7-5
			c0.9-0.2,1.8-0.6,2.3-1.2c1.2-1.2,1.4-3.2,1.4-6.7v-8.5H164.8z"/>
		<path class="st2" d="M176.1,51.9v6.4c0,3.3-0.2,5.7-0.3,8.5l0.2,0c1-2.4,1.5-4,2.4-6l4.1-9h7.9v20.9h-6.1v-6.4
			c0-3.2,0.2-4.6,0.4-9.1h-0.2c-0.8,2.3-1.3,3.7-2.2,5.6c-1.3,2.9-2.9,6.5-4.4,9.8H170V51.9H176.1z"/>
		<path class="st2" d="M211.8,51.9v5h-6.1v15.9h-6.5V56.8h-6.1v-5H211.8z"/>
		<path class="st2" d="M219.4,64.4c0.2,2.7,2.9,4,5.9,4c2.2,0,4-0.3,5.8-0.9l0.9,4.4c-2.1,0.9-4.7,1.3-7.6,1.3
			c-7.1,0-11.1-4.1-11.1-10.6c0-5.3,3.3-11.1,10.5-11.1c6.7,0,9.3,5.3,9.3,10.4c0,1.1-0.1,2.1-0.2,2.6H219.4z M227,59.9
			c0-1.6-0.7-4.2-3.7-4.2c-2.7,0-3.8,2.5-4,4.2H227z"/>
		<path class="st2" d="M252.6,72.2c-1.2,0.5-3.3,0.9-5.8,0.9c-6.7,0-11.1-4.1-11.1-10.7c0-6.1,4.2-11.1,12-11.1c1.7,0,3.6,0.3,5,0.8
			l-1,4.8c-0.8-0.3-1.9-0.6-3.6-0.6c-3.4,0-5.6,2.4-5.6,5.8c0,3.8,2.6,5.8,5.7,5.8c1.5,0,2.7-0.3,3.7-0.6L252.6,72.2z"/>
		<path class="st2" d="M262.6,51.9v6.2c0.9-0.1,2.1-0.3,3.3-0.3c4.9,0,10,1.7,10,7.3c0,2.6-1.2,4.4-2.9,5.6
			c-2.7,1.9-6.7,2.3-9.9,2.3c-2.3,0-4.8-0.1-7-0.4V51.9H262.6z M262.6,68.5c0.6,0,1.2,0.1,2.2,0.1c2.1,0,4.7-0.7,4.7-3.2
			c0-2.6-2.8-3.2-4.8-3.2c-0.9,0-1.5,0.1-2.1,0.2V68.5z"/>
		<path class="st2" d="M288.4,52.1c1.6-0.2,5.2-0.5,8.4-0.5c3.5,0,10.3,0.4,10.3,5.3c0,2.7-2.2,4.1-4.3,4.5v0.1
			c3.1,0.5,5.2,2.3,5.2,5.1c0,5.9-8.1,6.4-12.3,6.4c-2.9,0-6-0.2-7.3-0.4V52.1z M294.8,69c0.7,0.1,1.2,0.1,2.2,0.1
			c2.2,0,4.4-0.6,4.4-2.7c0-1.8-1.7-2.6-4.7-2.6h-1.9V69z M294.8,60h1.7c2.6,0,4.3-0.7,4.3-2.3c0-1.4-1.1-2.2-3.7-2.2
			c-0.9,0-1.5,0.1-2.2,0.2V60z"/>
		<path class="st2" d="M336.3,72.2c-1.2,0.5-3.3,0.9-5.8,0.9c-6.7,0-11.1-4.1-11.1-10.7c0-6.1,4.2-11.1,12-11.1c1.7,0,3.6,0.3,5,0.8
			l-1,4.8c-0.8-0.3-1.9-0.6-3.6-0.6c-3.4,0-5.6,2.4-5.6,5.8c0,3.8,2.6,5.8,5.7,5.8c1.5,0,2.7-0.3,3.7-0.6L336.3,72.2z"/>
		<path class="st2" d="M339.8,52.1c1.6-0.2,5.2-0.5,8.4-0.5c3.5,0,10.3,0.4,10.3,5.3c0,2.7-2.2,4.1-4.3,4.5v0.1
			c3.1,0.5,5.2,2.3,5.2,5.1c0,5.9-8.1,6.4-12.3,6.4c-2.9,0-6-0.2-7.3-0.4V52.1z M346.2,69c0.7,0.1,1.2,0.1,2.2,0.1
			c2.2,0,4.4-0.6,4.4-2.7c0-1.8-1.7-2.6-4.7-2.6h-1.9V69z M346.2,60h1.7c2.6,0,4.3-0.7,4.3-2.3c0-1.4-1.1-2.2-3.7-2.2
			c-0.9,0-1.5,0.1-2.2,0.2V60z"/>
		<path class="st2" d="M384.1,62.1c0,7.6-5.4,11.1-11,11.1c-6.1,0-10.8-4-10.8-10.8c0-6.7,4.4-11.1,11.1-11.1
			C379.8,51.4,384.1,55.8,384.1,62.1z M369,62.3c0,3.6,1.5,6.3,4.3,6.3c2.5,0,4.1-2.5,4.1-6.3c0-3.1-1.2-6.3-4.1-6.3
			C370.1,56,369,59.2,369,62.3z"/>
		<path class="st2" d="M393.1,64.4c0.2,2.7,2.9,4,5.9,4c2.2,0,4-0.3,5.8-0.9l0.9,4.4c-2.1,0.9-4.7,1.3-7.6,1.3
			c-7.1,0-11.1-4.1-11.1-10.6c0-5.3,3.3-11.1,10.5-11.1c6.7,0,9.3,5.3,9.3,10.4c0,1.1-0.1,2.1-0.2,2.6H393.1z M400.7,59.9
			c0-1.6-0.7-4.2-3.7-4.2c-2.7,0-3.8,2.5-4,4.2H400.7z"/>
		<path class="st2" d="M416.7,51.9v6.4c0,3.3-0.2,5.7-0.3,8.5l0.2,0c1-2.4,1.5-4,2.4-6l4.1-9h7.9v20.9h-6.1v-6.4
			c0-3.2,0.2-4.6,0.4-9.1H425c-0.8,2.3-1.3,3.7-2.2,5.6c-1.3,2.9-2.9,6.5-4.4,9.8h-7.9V51.9H416.7z M418.7,43.3c0,1.9,0.8,3,2,3
			c1.3,0,2-1.2,2.1-3h4.1c-0.3,4-2.6,6-6.3,6c-3.9,0-5.8-2.3-6-6H418.7z"/>
		<path class="st2" d="M449.7,51.9l2,3.5c0.6,1.1,1.2,2.1,1.7,3.1h0.1c0.6-1.1,1.1-2.2,1.6-3.2l1.8-3.4h7l-6.9,9.9l7,10.9h-7.3
			l-2.1-3.8c-0.6-1-1.1-2.1-1.6-3.2h-0.1c-0.5,1.1-1.1,2.1-1.6,3.2l-2,3.8h-7.1l7.1-10.6l-6.9-10.2H449.7z"/>
		<path class="st2" d="M466.9,58.9c0-2.7-0.1-5.1-0.2-7h5.6l0.3,2.9h0.1c1.5-2.2,3.9-3.4,7-3.4c4.6,0,8.7,4,8.7,10.6
			c0,7.6-4.8,11.2-9.5,11.2c-2.5,0-4.5-1-5.4-2.4h-0.1v10.4h-6.5V58.9z M473.4,63.8c0,0.5,0,1,0.1,1.4c0.4,1.8,1.9,3.1,3.8,3.1
			c2.8,0,4.5-2.3,4.5-5.9c0-3.3-1.5-5.8-4.4-5.8c-1.8,0-3.5,1.4-3.9,3.3c-0.1,0.3-0.1,0.8-0.1,1.2V63.8z"/>
		<path class="st2" d="M513.1,62.1c0,7.6-5.4,11.1-11,11.1c-6.1,0-10.8-4-10.8-10.8c0-6.7,4.4-11.1,11.1-11.1
			C508.8,51.4,513.1,55.8,513.1,62.1z M497.9,62.3c0,3.6,1.5,6.3,4.3,6.3c2.5,0,4.1-2.5,4.1-6.3c0-3.1-1.2-6.3-4.1-6.3
			C499.1,56,497.9,59.2,497.9,62.3z"/>
		<path class="st2" d="M523.5,51.9v7.6h6.6v-7.6h6.5v20.9h-6.5v-8.3h-6.6v8.3H517V51.9H523.5z"/>
		<path class="st2" d="M547.9,51.9v6.4c0,3.3-0.2,5.7-0.3,8.5l0.2,0c1-2.4,1.5-4,2.4-6l4.1-9h7.9v20.9H556v-6.4
			c0-3.2,0.2-4.6,0.4-9.1h-0.2c-0.8,2.3-1.3,3.7-2.2,5.6c-1.3,2.9-2.9,6.5-4.4,9.8h-7.9V51.9H547.9z"/>
		<path class="st2" d="M573.7,51.9v8.3h0.7l5.3-8.3h7.6l-7.7,9c2.5,0.5,4,2.7,5.3,5.8c0.7,1.8,1.5,4.2,2.5,6.1h-6.8
			c-0.6-0.9-1.1-2.4-1.9-4.6c-0.9-2.4-2.2-3.7-4.4-3.7h-0.6v8.3h-6.4V51.9H573.7z"/>
		<path class="st2" d="M594.6,64.4c0.2,2.7,2.9,4,5.9,4c2.2,0,4-0.3,5.8-0.9l0.9,4.4c-2.1,0.9-4.7,1.3-7.6,1.3
			c-7.1,0-11.1-4.1-11.1-10.6c0-5.3,3.3-11.1,10.5-11.1c6.7,0,9.3,5.3,9.3,10.4c0,1.1-0.1,2.1-0.2,2.6H594.6z M602.2,59.9
			c0-1.6-0.7-4.2-3.7-4.2c-2.7,0-3.8,2.5-4,4.2H602.2z"/>
	</g>
	<g>
		<path class="st2" d="M176.5,222.9v29.9h-3.9v-26.6h-13.9v26.6h-3.9v-29.9H176.5z"/>
		<path class="st2" d="M202.5,241.8c0,7.9-5.5,11.4-10.7,11.4c-5.8,0-10.3-4.3-10.3-11c0-7.2,4.7-11.4,10.6-11.4
			C198.3,230.8,202.5,235.3,202.5,241.8z M185.5,242c0,4.7,2.7,8.2,6.5,8.2c3.7,0,6.5-3.5,6.5-8.3c0-3.6-1.8-8.2-6.4-8.2
			C187.5,233.7,185.5,238,185.5,242z"/>
		<path class="st2" d="M223.7,231.3v18.5l2.2,0l-0.2,9.7h-3.1l-0.2-6.8h-14.8l-0.2,6.8h-3.1l-0.2-9.7l1.8,0c0.9-1.4,1.6-2.8,2.1-4.4
			c0.8-2.7,1.2-5.5,1.2-8.5v-5.6H223.7z M212.8,237.8c0,2.8-0.4,5.6-1.1,8c-0.4,1.5-1.1,2.8-1.7,4h9.9v-15.5h-7V237.8z"/>
		<path class="st2" d="M232.5,242.7c0.1,5.3,3.5,7.4,7.4,7.4c2.8,0,4.5-0.5,5.9-1.1l0.7,2.8c-1.4,0.6-3.7,1.3-7.1,1.3
			c-6.6,0-10.5-4.3-10.5-10.8c0-6.5,3.8-11.6,10.1-11.6c7,0,8.9,6.2,8.9,10.1c0,0.8-0.1,1.4-0.1,1.8H232.5z M244,239.9
			c0-2.5-1-6.3-5.4-6.3c-3.9,0-5.7,3.6-6,6.3H244z"/>
		<path class="st2" d="M268.9,231.3v21.4H265v-18.4h-7.4v5.6c0,6-0.6,10.1-3.4,11.9c-1.1,0.8-2.3,1.3-4.3,1.3l-0.4-3.1
			c0.8-0.1,1.6-0.4,2.1-0.9c2-1.5,2.2-4.5,2.2-9.3v-8.6H268.9z"/>
		<path class="st2" d="M278.8,231.3v9c0,3.4,0,5.5-0.2,8.6l0.1,0c1.3-2.6,2-4.1,3.5-6.6l6.7-11.1h4.6v21.4h-3.7v-9.1
			c0-3.5,0.1-5.3,0.3-8.8h-0.1c-1.4,2.7-2.3,4.5-3.5,6.6c-2,3.3-4.4,7.4-6.7,11.2h-4.5v-21.4H278.8z"/>
		<path class="st2" d="M314.1,231.3v3.1h-6.7v18.3h-3.9v-18.3h-6.7v-3.1H314.1z"/>
		<path class="st2" d="M319.1,242.7c0.1,5.3,3.5,7.4,7.4,7.4c2.8,0,4.5-0.5,5.9-1.1l0.7,2.8c-1.4,0.6-3.7,1.3-7.1,1.3
			c-6.6,0-10.5-4.3-10.5-10.8c0-6.5,3.8-11.6,10.1-11.6c7,0,8.9,6.2,8.9,10.1c0,0.8-0.1,1.4-0.1,1.8H319.1z M330.6,239.9
			c0-2.5-1-6.3-5.4-6.3c-3.9,0-5.7,3.6-6,6.3H330.6z"/>
		<path class="st2" d="M354.4,251.9c-1,0.5-3.3,1.2-6.2,1.2c-6.5,0-10.7-4.4-10.7-10.9c0-6.6,4.5-11.4,11.5-11.4
			c2.3,0,4.3,0.6,5.4,1.1l-0.9,3c-0.9-0.5-2.4-1-4.5-1c-4.9,0-7.6,3.6-7.6,8.1c0,5,3.2,8,7.4,8c2.2,0,3.7-0.6,4.8-1.1L354.4,251.9z"
			/>
		<path class="st2" d="M362.8,231.3v7.3c0.9-0.2,2.4-0.2,3.5-0.2c4.8,0,9.9,1.5,9.9,7.2c0,2.2-0.9,3.8-2.3,4.9
			c-2.3,2-6.2,2.5-9.3,2.5c-2.2,0-4.2-0.1-5.8-0.3v-21.4H362.8z M362.8,250c0.8,0.1,1.6,0.2,2.9,0.2c2.9,0,6.7-1,6.7-4.6
			c0-3.7-3.9-4.5-6.8-4.5c-1,0-1.9,0.1-2.8,0.2V250z"/>
		<path class="st2" d="M390.3,231.5c1.5-0.3,4.3-0.5,6.8-0.5c3.6,0,9.5,0.6,9.5,5.4c0,2.7-2,4.3-4.5,4.8v0.1
			c3.1,0.4,5.4,2.2,5.4,5.3c0,5.6-7.1,6.3-11.3,6.3c-2.4,0-4.9-0.2-6-0.3V231.5z M394,250.1c1.1,0.1,1.9,0.2,3.1,0.2
			c2.6,0,6.5-0.6,6.5-3.7c0-3.1-3.1-3.8-6.8-3.8H394V250.1z M394.1,240.3h2.9c2.9,0,5.8-0.8,5.8-3.4c0-2.1-1.9-3.1-5.8-3.1
			c-1.3,0-2.1,0.1-3,0.2V240.3z"/>
		<path class="st2" d="M423.8,231.3l3.1,4.6c0.8,1.2,1.5,2.3,2.2,3.5h0.1c0.7-1.3,1.4-2.4,2.1-3.5l3-4.6h4.2l-7.3,10.4l7.5,11.1
			h-4.4l-3.1-4.8c-0.8-1.2-1.6-2.4-2.3-3.7h-0.1c-0.7,1.3-1.5,2.4-2.3,3.7l-3.1,4.8h-4.3l7.6-10.9l-7.3-10.5H423.8z"/>
		<path class="st2" d="M442.5,238.3c0-2.7-0.1-5-0.2-7h3.5l0.2,3.7h0.1c1.6-2.6,4.1-4.2,7.6-4.2c5.2,0,9.1,4.4,9.1,10.9
			c0,7.7-4.7,11.5-9.7,11.5c-2.8,0-5.3-1.2-6.6-3.4h-0.1v11.6h-3.9V238.3z M446.3,244c0,0.6,0.1,1.1,0.2,1.6
			c0.7,2.7,3.1,4.6,5.8,4.6c4.1,0,6.5-3.4,6.5-8.3c0-4.3-2.3-8-6.4-8c-2.7,0-5.1,1.9-5.9,4.8c-0.1,0.5-0.3,1.1-0.3,1.6V244z"/>
		<path class="st2" d="M487.1,241.8c0,7.9-5.5,11.4-10.7,11.4c-5.8,0-10.3-4.3-10.3-11c0-7.2,4.7-11.4,10.6-11.4
			C482.9,230.8,487.1,235.3,487.1,241.8z M470.1,242c0,4.7,2.7,8.2,6.5,8.2c3.7,0,6.5-3.5,6.5-8.3c0-3.6-1.8-8.2-6.4-8.2
			C472.1,233.7,470.1,238,470.1,242z"/>
		<path class="st2" d="M495.8,231.3v8.6h10.2v-8.6h3.9v21.4h-3.9V243h-10.2v9.7h-3.9v-21.4H495.8z"/>
		<path class="st2" d="M519.8,231.3v9c0,3.4,0,5.5-0.2,8.6l0.1,0c1.3-2.6,2-4.1,3.5-6.6l6.7-11.1h4.6v21.4h-3.7v-9.1
			c0-3.5,0.1-5.3,0.3-8.8h-0.1c-1.4,2.7-2.3,4.5-3.5,6.6c-2,3.3-4.4,7.4-6.7,11.2h-4.5v-21.4H519.8z"/>
		<path class="st2" d="M544.6,231.3v9.3h0.9l8.1-9.3h4.7l-9.3,9.7c3.5,0.4,5.5,2.7,7.2,6.5c0.6,1.4,1.3,3.5,2.3,5.2h-4.1
			c-0.6-0.9-1.3-2.6-2-4.4c-1.5-3.5-3.5-5-7.1-5h-0.8v9.4h-3.9v-21.4H544.6z"/>
		<path class="st2" d="M563.8,242.7c0.1,5.3,3.5,7.4,7.4,7.4c2.8,0,4.5-0.5,5.9-1.1l0.7,2.8c-1.4,0.6-3.7,1.3-7.1,1.3
			c-6.6,0-10.5-4.3-10.5-10.8c0-6.5,3.8-11.6,10.1-11.6c7,0,8.9,6.2,8.9,10.1c0,0.8-0.1,1.4-0.1,1.8H563.8z M575.3,239.9
			c0-2.5-1-6.3-5.4-6.3c-3.9,0-5.7,3.6-6,6.3H575.3z"/>
		<path class="st2" d="M609.8,231.3v18.5l2.2,0l-0.2,9.7h-3.1l-0.2-6.8h-14.8l-0.2,6.8h-3.1l-0.2-9.7l1.8,0c0.9-1.4,1.6-2.8,2.1-4.4
			c0.8-2.7,1.2-5.5,1.2-8.5v-5.6H609.8z M599,237.8c0,2.8-0.4,5.6-1.1,8c-0.4,1.5-1.1,2.8-1.7,4h9.9v-15.5h-7V237.8z"/>
		<path class="st2" d="M616.7,238.3c0-2.7-0.1-5-0.2-7h3.5l0.2,3.7h0.1c1.6-2.6,4.1-4.2,7.6-4.2c5.2,0,9.1,4.4,9.1,10.9
			c0,7.7-4.7,11.5-9.7,11.5c-2.8,0-5.3-1.2-6.6-3.4h-0.1v11.6h-3.9V238.3z M620.6,244c0,0.6,0.1,1.1,0.2,1.6
			c0.7,2.7,3.1,4.6,5.8,4.6c4.1,0,6.5-3.4,6.5-8.3c0-4.3-2.3-8-6.4-8c-2.7,0-5.1,1.9-5.9,4.8c-0.1,0.5-0.3,1.1-0.3,1.6V244z"/>
		<path class="st2" d="M642.9,231.3l4.7,12.7c0.5,1.4,1,3.1,1.4,4.4h0.1c0.4-1.3,0.8-2.9,1.4-4.5l4.3-12.6h4.1l-5.8,15.3
			c-2.8,7.4-4.7,11.1-7.4,13.4c-1.9,1.7-3.8,2.3-4.8,2.5l-1-3.3c1-0.3,2.3-0.9,3.4-1.9c1.1-0.8,2.4-2.3,3.3-4.3
			c0.2-0.4,0.3-0.7,0.3-0.9c0-0.2-0.1-0.5-0.3-1l-7.9-19.8H642.9z"/>
		<path class="st2" d="M675.4,231.3v3.1h-9.3v18.3h-3.9v-21.4H675.4z"/>
		<path class="st2" d="M690.6,252.7l-0.3-2.7h-0.1c-1.2,1.7-3.5,3.2-6.6,3.2c-4.3,0-6.6-3.1-6.6-6.2c0-5.2,4.6-8,12.9-8v-0.4
			c0-1.8-0.5-5-4.9-5c-2,0-4.1,0.6-5.6,1.6l-0.9-2.6c1.8-1.2,4.3-1.9,7-1.9c6.6,0,8.2,4.5,8.2,8.8v8c0,1.9,0.1,3.7,0.4,5.1H690.6z
			 M690.1,241.8c-4.3-0.1-9.1,0.7-9.1,4.8c0,2.5,1.7,3.7,3.7,3.7c2.8,0,4.6-1.8,5.2-3.6c0.1-0.4,0.2-0.8,0.2-1.2V241.8z"/>
	</g>
	<g>
		<path d="M179.5,139.2V170h-7v-25.1h-10.9V170h-7v-30.9H179.5z"/>
		<path d="M207.5,158.6c0,8.2-5.8,12-11.8,12c-6.6,0-11.6-4.3-11.6-11.5c0-7.2,4.8-11.9,12-11.9
			C202.9,147.1,207.5,151.9,207.5,158.6z M191.3,158.8c0,3.8,1.6,6.7,4.6,6.7c2.7,0,4.4-2.7,4.4-6.7c0-3.3-1.3-6.7-4.4-6.7
			C192.5,152.1,191.3,155.5,191.3,158.8z"/>
		<path d="M231.9,147.6v17.5l2.5,0.1l-0.3,12h-5.2l-0.2-7.2h-14.2l-0.3,7.2h-5.3l-0.2-12l2.1-0.1c1-1.4,1.7-3,2.2-4.7
			c0.6-2.3,1-4.9,1-7.3v-5.5H231.9z M220.1,155.3c0,1.9-0.3,3.9-0.8,5.8c-0.3,1.3-0.9,2.7-1.6,3.8h7.4v-12.2h-5V155.3z"/>
		<path d="M243.3,161.1c0.2,2.9,3.1,4.3,6.3,4.3c2.4,0,4.3-0.3,6.2-0.9l0.9,4.7c-2.3,0.9-5.1,1.4-8.1,1.4c-7.6,0-12-4.4-12-11.4
			c0-5.7,3.5-12,11.3-12c7.2,0,10,5.6,10,11.2c0,1.2-0.1,2.2-0.2,2.7H243.3z M251.5,156.3c0-1.7-0.7-4.5-3.9-4.5
			c-2.9,0-4.1,2.7-4.3,4.5H251.5z"/>
		<path d="M281.9,147.6V170h-7V153h-4.9v4.1c0,5.5-0.6,9.3-3.2,11.3c-1.4,1.5-3.4,2.2-6.5,2.2l-0.7-5.4c1-0.2,2-0.6,2.5-1.2
			c1.3-1.3,1.5-3.4,1.5-7.2v-9.1H281.9z"/>
		<path d="M294,147.6v6.9c0,3.6-0.2,6.1-0.4,9.1l0.2,0c1.1-2.6,1.6-4.3,2.6-6.4l4.4-9.6h8.5V170h-6.6v-6.8c0-3.5,0.2-4.9,0.4-9.7
			h-0.2c-0.9,2.5-1.4,3.9-2.3,6c-1.4,3.1-3.1,7-4.7,10.5h-8.5v-22.4H294z"/>
		<path d="M332.3,147.6v5.3h-6.5V170h-7V153h-6.5v-5.3H332.3z"/>
		<path d="M340.4,161.1c0.2,2.9,3.1,4.3,6.3,4.3c2.4,0,4.3-0.3,6.2-0.9l0.9,4.7c-2.3,0.9-5.1,1.4-8.1,1.4c-7.6,0-12-4.4-12-11.4
			c0-5.7,3.5-12,11.3-12c7.2,0,10,5.6,10,11.2c0,1.2-0.1,2.2-0.2,2.7H340.4z M348.6,156.3c0-1.7-0.7-4.5-3.9-4.5
			c-2.9,0-4.1,2.7-4.3,4.5H348.6z"/>
		<path d="M376,169.5c-1.2,0.5-3.6,1-6.2,1c-7.2,0-11.9-4.4-11.9-11.5c0-6.6,4.5-11.9,12.8-11.9c1.8,0,3.8,0.3,5.3,0.9l-1.1,5.2
			c-0.8-0.4-2.1-0.7-3.9-0.7c-3.7,0-6,2.6-6,6.3c0,4.1,2.7,6.3,6.1,6.3c1.6,0,2.9-0.3,4-0.7L376,169.5z"/>
		<path d="M386.8,147.6v6.6c1-0.1,2.3-0.3,3.5-0.3c5.2,0,10.7,1.8,10.7,7.8c0,2.8-1.2,4.8-3.1,6c-2.9,2-7.2,2.5-10.7,2.5
			c-2.5,0-5.1-0.1-7.5-0.4v-22.3H386.8z M386.8,165.5c0.6,0,1.3,0.1,2.3,0.1c2.3,0,5-0.8,5-3.5c0-2.7-3-3.4-5.1-3.4
			c-0.9,0-1.6,0.1-2.2,0.2V165.5z"/>
		<path d="M414.5,147.9c1.7-0.2,5.5-0.5,9-0.5c3.8,0,11.1,0.4,11.1,5.7c0,2.9-2.3,4.4-4.6,4.9v0.1c3.3,0.5,5.5,2.4,5.5,5.5
			c0,6.4-8.7,6.9-13.2,6.9c-3.1,0-6.4-0.2-7.8-0.4V147.9z M421.3,166.1c0.7,0.1,1.3,0.1,2.3,0.1c2.4,0,4.8-0.7,4.8-2.9
			c0-1.9-1.8-2.8-5.1-2.8h-2V166.1z M421.3,156.4h1.8c2.8,0,4.6-0.7,4.6-2.4c0-1.5-1.2-2.4-4-2.4c-1,0-1.6,0.1-2.4,0.2V156.4z"/>
		<path d="M465.9,169.5c-1.2,0.5-3.6,1-6.2,1c-7.2,0-11.9-4.4-11.9-11.5c0-6.6,4.5-11.9,12.8-11.9c1.8,0,3.8,0.3,5.3,0.9l-1.1,5.2
			c-0.8-0.4-2.1-0.7-3.9-0.7c-3.7,0-6,2.6-6,6.3c0,4.1,2.7,6.3,6.1,6.3c1.6,0,2.9-0.3,4-0.7L465.9,169.5z"/>
		<path d="M469.7,147.9c1.7-0.2,5.5-0.5,9-0.5c3.8,0,11.1,0.4,11.1,5.7c0,2.9-2.3,4.4-4.6,4.9v0.1c3.3,0.5,5.5,2.4,5.5,5.5
			c0,6.4-8.7,6.9-13.2,6.9c-3.1,0-6.4-0.2-7.8-0.4V147.9z M476.5,166.1c0.7,0.1,1.3,0.1,2.3,0.1c2.4,0,4.8-0.7,4.8-2.9
			c0-1.9-1.8-2.8-5.1-2.8h-2V166.1z M476.5,156.4h1.8c2.8,0,4.6-0.7,4.6-2.4c0-1.5-1.2-2.4-4-2.4c-1,0-1.6,0.1-2.4,0.2V156.4z"/>
		<path d="M517.1,158.6c0,8.2-5.8,12-11.8,12c-6.5,0-11.6-4.3-11.6-11.5c0-7.2,4.8-11.9,12-11.9
			C512.5,147.1,517.1,151.9,517.1,158.6z M500.9,158.8c0,3.8,1.6,6.7,4.6,6.7c2.7,0,4.4-2.7,4.4-6.7c0-3.3-1.3-6.7-4.4-6.7
			C502.2,152.1,500.9,155.5,500.9,158.8z"/>
		<path d="M526.8,161.1c0.2,2.9,3.1,4.3,6.3,4.3c2.4,0,4.3-0.3,6.2-0.9l0.9,4.7c-2.3,0.9-5.1,1.4-8.1,1.4c-7.6,0-12-4.4-12-11.4
			c0-5.7,3.5-12,11.3-12c7.2,0,10,5.6,10,11.2c0,1.2-0.1,2.2-0.2,2.7H526.8z M535,156.3c0-1.7-0.7-4.5-3.9-4.5
			c-2.9,0-4.1,2.7-4.3,4.5H535z"/>
		<path d="M552.2,147.6v6.9c0,3.6-0.2,6.1-0.4,9.1l0.2,0c1.1-2.6,1.6-4.3,2.6-6.4l4.4-9.6h8.5V170h-6.6v-6.8c0-3.5,0.2-4.9,0.4-9.7
			h-0.2c-0.9,2.5-1.4,3.9-2.3,6c-1.4,3.1-3.1,7-4.7,10.5h-8.5v-22.4H552.2z M554.3,138.4c0,2,0.8,3.3,2.1,3.3c1.4,0,2.1-1.3,2.2-3.3
			h4.4c-0.3,4.3-2.8,6.5-6.7,6.5c-4.2,0-6.2-2.5-6.5-6.5H554.3z"/>
		<path d="M587.5,147.6l2.2,3.7c0.6,1.1,1.2,2.3,1.8,3.3h0.1c0.6-1.2,1.1-2.3,1.7-3.4l2-3.6h7.6l-7.4,10.7L603,170h-7.9l-2.2-4
			c-0.6-1.1-1.2-2.2-1.7-3.4H591c-0.5,1.2-1.1,2.3-1.7,3.4l-2.1,4h-7.6l7.6-11.4l-7.4-11H587.5z"/>
		<path d="M606,155.2c0-2.9-0.1-5.5-0.2-7.5h6l0.3,3.1h0.1c1.6-2.4,4.2-3.6,7.5-3.6c4.9,0,9.3,4.3,9.3,11.4c0,8.2-5.2,12-10.2,12
			c-2.7,0-4.8-1.1-5.8-2.6H613v11.1h-7V155.2z M613,160.4c0,0.5,0,1.1,0.1,1.5c0.5,1.9,2.1,3.3,4.1,3.3c3,0,4.8-2.5,4.8-6.3
			c0-3.6-1.6-6.3-4.7-6.3c-2,0-3.7,1.5-4.2,3.5c-0.1,0.4-0.1,0.8-0.1,1.2V160.4z"/>
		<path d="M655.5,158.6c0,8.2-5.8,12-11.8,12c-6.5,0-11.6-4.3-11.6-11.5c0-7.2,4.8-11.9,12-11.9
			C650.9,147.1,655.5,151.9,655.5,158.6z M639.3,158.8c0,3.8,1.6,6.7,4.6,6.7c2.7,0,4.4-2.7,4.4-6.7c0-3.3-1.3-6.7-4.4-6.7
			C640.5,152.1,639.3,155.5,639.3,158.8z"/>
		<path d="M666.7,147.6v8.1h7.1v-8.1h7V170h-7v-8.9h-7.1v8.9h-7v-22.4H666.7z"/>
		<path d="M692.9,147.6v6.9c0,3.6-0.2,6.1-0.4,9.1l0.2,0c1.1-2.6,1.6-4.3,2.6-6.4l4.4-9.6h8.5V170h-6.6v-6.8c0-3.5,0.2-4.9,0.4-9.7
			h-0.2c-0.9,2.5-1.4,3.9-2.3,6c-1.4,3.1-3.1,7-4.7,10.5h-8.5v-22.4H692.9z"/>
		<path d="M720.6,147.6v8.9h0.8l5.6-8.9h8.2l-8.2,9.6c2.7,0.5,4.3,2.9,5.6,6.2c0.7,1.9,1.6,4.5,2.7,6.6H728c-0.6-1-1.1-2.6-2-4.9
			c-1-2.6-2.4-3.9-4.7-3.9h-0.7v8.9h-6.9v-22.4H720.6z"/>
		<path d="M743,161.1c0.2,2.9,3.1,4.3,6.3,4.3c2.4,0,4.3-0.3,6.2-0.9l0.9,4.7c-2.3,0.9-5.1,1.4-8.1,1.4c-7.6,0-12-4.4-12-11.4
			c0-5.7,3.5-12,11.3-12c7.2,0,10,5.6,10,11.2c0,1.2-0.1,2.2-0.2,2.7H743z M751.2,156.3c0-1.7-0.7-4.5-3.9-4.5
			c-2.9,0-4.1,2.7-4.3,4.5H751.2z"/>
	</g>
	<polygon class="st2" points="619.3,50.7 653.1,50.7 636.2,67.6 	"/>
	<polygon class="st3" points="35.7,154.5 34.1,159.9 42.2,169.1 62.5,149.8 60.8,143.8 42.2,162.3 	"/>
	<g>
		<g>
			
				<rect x="98.4" y="147.2" transform="matrix(0.7071 -0.7071 0.7071 0.7071 -74.2785 122.0459)" class="st3" width="23.6" height="6.9"/>
			<polygon class="st3" points="102.5,163.3 95.8,165 97.6,158.4 			"/>
			
				<rect x="119.8" y="135.2" transform="matrix(0.7071 -0.7071 0.7071 0.7071 -62.249 127.0277)" class="st3" width="4.8" height="6.9"/>
		</g>
		<g>
			<path class="st3" d="M120.6,172.7h-0.4v0.4C120.2,172.9,120.4,172.7,120.6,172.7z"/>
			<path class="st3" d="M89,172.7v0.4h0.4C89.3,172.9,89.2,172.7,89,172.7z"/>
			<path class="st3" d="M89.3,173.1v-0.4H89C89.2,172.7,89.3,172.9,89.3,173.1z"/>
			<path class="st3" d="M89.3,141.5H89l0,0.4C89.2,141.8,89.3,141.7,89.3,141.5z"/>
			<path class="st3" d="M120.2,173.1h0.4v-0.4C120.4,172.7,120.2,172.9,120.2,173.1z"/>
			<path class="st3" d="M120.2,172.7h0.4v0.4v1.1v1.5c1.4,0,2.6-1.2,2.6-2.6v-25.9l-3,2.5V172.7z"/>
			<path class="st3" d="M120.6,173.1h-0.4v-0.4H89.3v0.4H89v-0.4h0.4v-30.9H89l0-0.4h0.4v0.4h18.9l3.4-3H89c-1.4,0-2.6,1.2-2.6,2.6
				v31.6c0,1.4,1.2,2.6,2.6,2.6h31.6v-1.5V173.1z"/>
			<path class="st3" d="M89,141.8h0.4v-0.4C89.3,141.7,89.2,141.8,89,141.8z"/>
			<path class="st3" d="M120.6,141.8v-0.4l-0.4,0C120.2,141.7,120.4,141.8,120.6,141.8z"/>
			<path class="st3" d="M120.2,141.5v0.4h0.4C120.4,141.8,120.2,141.7,120.2,141.5z"/>
		</g>
	</g>
	<g>
		<path class="st2" d="M384.4,292.6h-0.5c-1.2,0-2.2,0.8-2.6,1.9c0,0.2-0.1,0.4-0.2,0.6c-0.4,1.1-1.5,1.9-2.8,1.9
			c-1.3,0-2.4-0.8-2.8-1.9c-0.1-0.3-0.2-0.7-0.2-1v-1c0-1.5-1.2-2.7-2.7-2.7h-1.1c-1.5,0-2.7,1.2-2.7,2.7c0,0.8-0.3,1.5-0.8,2
			c-0.5,0.6-1.3,1-2.2,1s-1.6-0.4-2.2-1c-0.5-0.5-0.8-1.3-0.8-2v-2.2c0-1.5-1.2-2.7-2.7-2.7h-0.7c-1.5,0-2.7,1.2-2.7,2.7v0.3
			c0,1.7-1.3,3-3,3c-1.7,0-3-1.3-3-3v-29.7c0-1.5-1.2-2.7-2.7-2.7h-0.6c-1.5,0-2.7,1.2-2.7,2.7v44.9v5.1c0,0.2,0,0.5,0.1,0.7
			l-6.1-4.3l-4-2.8c-1.1-1.1-2.8-1.1-3.8,0l-0.4,0.4c-1.1,1.1-1.1,2.8,0,3.8l8.8,8.8l7.4,7.4c0,0,0.1,0.1,0.1,0.1
			c0.9,0.9,2.1,1.4,3.4,1.4h0.4h31.6c2.7,0,4.9-2.2,4.9-4.9v-13.1v-0.6v-7.4v-5.8c0-0.1,0-0.2,0-0.2
			C387,293.7,385.8,292.6,384.4,292.6z"/>
		<path d="M384.4,286.6h-0.5c-1.6,0-3,0.4-4.3,1.2c-1.6-2.1-4.1-3.4-6.9-3.4h-1.1c-1.6,0-3.2,0.5-4.5,1.2c-1.6-2.1-4.1-3.5-6.9-3.5
			h-0.7c-0.9,0-1.9,0.2-2.7,0.4v-21.1c0-4.8-3.9-8.7-8.7-8.7h-0.6c-4.8,0-8.7,3.9-8.7,8.7v38.9c-3.7-2.7-8.8-2.7-12.1,0.5l-0.4,0.4
			c-3.4,3.4-3.4,8.9,0,12.3l16.2,16.2l0.1,0.1c2,2,4.7,3.2,7.7,3.2h0.4h3.5h28.1c4.3,0,7.9-2.4,9.7-6c0.8-1.5,1.2-3.2,1.2-4.9v-13.1
			v-0.6v-7.4v-5.8c0-0.1,0-0.2,0-0.2C393,290.4,389.1,286.6,384.4,286.6z M387.1,301.1v7.4v0.6v13.1c0,2.7-2.2,4.9-4.9,4.9h-31.6
			h-0.4c-1.3,0-2.5-0.5-3.4-1.4c0,0-0.1-0.1-0.1-0.1l-7.4-7.4l-8.8-8.8c-1.1-1.1-1.1-2.8,0-3.8l0.4-0.4c1.1-1.1,2.8-1.1,3.8,0l4,2.8
			l6.1,4.3c-0.1-0.2-0.1-0.5-0.1-0.7v-5.1v-44.9c0-1.5,1.2-2.7,2.7-2.7h0.6c1.5,0,2.7,1.2,2.7,2.7v29.7c0,1.7,1.3,3,3,3
			c1.7,0,3-1.3,3-3v-0.3c0-1.5,1.2-2.7,2.7-2.7h0.7c1.5,0,2.7,1.2,2.7,2.7v2.2c0,0.8,0.3,1.5,0.8,2c0.5,0.6,1.3,1,2.2,1
			s1.6-0.4,2.2-1c0.5-0.5,0.8-1.3,0.8-2c0-1.5,1.2-2.7,2.7-2.7h1.1c1.5,0,2.7,1.2,2.7,2.7v1c0,0.4,0.1,0.7,0.2,1
			c0.4,1.1,1.5,1.9,2.8,1.9c1.3,0,2.4-0.8,2.8-1.9c0.1-0.2,0.1-0.4,0.2-0.6c0.4-1.1,1.4-1.9,2.6-1.9h0.5c1.4,0,2.6,1.1,2.7,2.5
			c0,0.1,0,0.2,0,0.2V301.1z"/>
	</g>
</g>
</svg>
