<?xml version="1.0" encoding="utf-8"?>
<!-- Generator: Adobe Illustrator 22.0.1, SVG Export Plug-In . SVG Version: 6.00 Build 0)  -->
<svg version="1.1" xmlns="http://www.w3.org/2000/svg" xmlns:xlink="http://www.w3.org/1999/xlink" x="0px" y="0px"
	 viewBox="0 0 1200 630" style="enable-background:new 0 0 1200 630;" xml:space="preserve">
<style type="text/css">
	.st0{fill:#244999;}
	.st1{clip-path:url(#SVGID_2_);fill:none;stroke:#FFFFFF;stroke-width:2;stroke-miterlimit:10;}
	.st2{clip-path:url(#SVGID_4_);fill:none;stroke:#FFFFFF;stroke-width:2;stroke-miterlimit:10;}
	.st3{clip-path:url(#SVGID_6_);fill:none;stroke:#FFFFFF;stroke-width:2;stroke-miterlimit:10;}
	.st4{clip-path:url(#SVGID_8_);fill:none;stroke:#FFFFFF;stroke-width:2;stroke-miterlimit:10;}
	.st5{clip-path:url(#SVGID_10_);fill:none;stroke:#FFFFFF;stroke-width:2;stroke-miterlimit:10;}
	.st6{clip-path:url(#SVGID_12_);fill:none;stroke:#FFFFFF;stroke-width:2;stroke-miterlimit:10;}
	.st7{clip-path:url(#SVGID_14_);fill:none;stroke:#FFFFFF;stroke-width:2;stroke-miterlimit:10;}
	.st8{clip-path:url(#SVGID_16_);fill:none;stroke:#FFFFFF;stroke-width:2;stroke-miterlimit:10;}
	.st9{clip-path:url(#SVGID_18_);fill:none;stroke:#FFFFFF;stroke-width:2;stroke-miterlimit:10;}
	.st10{clip-path:url(#SVGID_20_);fill:none;stroke:#FFFFFF;stroke-width:2;stroke-miterlimit:10;}
	.st11{clip-path:url(#SVGID_22_);fill:none;stroke:#FFFFFF;stroke-width:2;stroke-miterlimit:10;}
	.st12{clip-path:url(#SVGID_24_);fill:none;stroke:#FFFFFF;stroke-width:2;stroke-miterlimit:10;}
	.st13{clip-path:url(#SVGID_26_);fill:none;stroke:#FFFFFF;stroke-width:2;stroke-miterlimit:10;}
	.st14{clip-path:url(#SVGID_28_);fill:none;stroke:#FFFFFF;stroke-width:2;stroke-miterlimit:10;}
	.st15{clip-path:url(#SVGID_30_);fill:none;stroke:#FFFFFF;stroke-width:2;stroke-miterlimit:10;}
	.st16{clip-path:url(#SVGID_32_);fill:none;stroke:#FFFFFF;stroke-width:2;stroke-miterlimit:10;}
	.st17{clip-path:url(#SVGID_34_);fill:none;stroke:#FFFFFF;stroke-width:2;stroke-miterlimit:10;}
	.st18{clip-path:url(#SVGID_36_);fill:none;stroke:#FFFFFF;stroke-width:2;stroke-miterlimit:10;}
	.st19{clip-path:url(#SVGID_38_);fill:none;stroke:#FFFFFF;stroke-width:2;stroke-miterlimit:10;}
	.st20{clip-path:url(#SVGID_40_);fill:none;stroke:#FFFFFF;stroke-width:2;stroke-miterlimit:10;}
	.st21{clip-path:url(#SVGID_42_);fill:none;stroke:#FFFFFF;stroke-width:2;stroke-miterlimit:10;}
	.st22{clip-path:url(#SVGID_44_);fill:none;stroke:#FFFFFF;stroke-width:2;stroke-miterlimit:10;}
	.st23{fill:#EDC96E;}
	.st24{fill:url(#SVGID_45_);}
	.st25{fill:#FFFFFF;}
	.st26{fill:url(#SVGID_46_);}
	.st27{fill:url(#SVGID_47_);}
	.st28{fill:url(#SVGID_48_);}
	.st29{fill:url(#SVGID_49_);}
	.st30{fill:url(#SVGID_50_);}
	.st31{fill:url(#SVGID_51_);}
	.st32{fill:url(#SVGID_52_);}
	.st33{fill:url(#SVGID_53_);}
	.st34{fill:url(#SVGID_54_);}
	.st35{fill:url(#SVGID_55_);}
	.st36{fill:url(#SVGID_56_);}
	.st37{fill:url(#SVGID_57_);}
	.st38{fill:url(#SVGID_58_);}
	.st39{fill:url(#SVGID_59_);}
	.st40{fill:url(#SVGID_60_);}
	.st41{fill:url(#SVGID_61_);}
	.st42{fill:url(#SVGID_62_);}
	.st43{fill:url(#SVGID_63_);}
	.st44{fill:url(#SVGID_64_);}
	.st45{fill:url(#SVGID_65_);}
	.st46{fill:url(#SVGID_66_);}
	.st47{fill:url(#SVGID_67_);}
	.st48{fill:url(#SVGID_68_);}
	.st49{fill:url(#SVGID_69_);}
	.st50{fill:url(#SVGID_70_);}
	.st51{fill:url(#SVGID_71_);}
	.st52{fill:url(#SVGID_72_);}
	.st53{fill:url(#SVGID_73_);}
	.st54{fill:url(#SVGID_74_);}
	.st55{fill:url(#SVGID_75_);}
	.st56{fill:url(#SVGID_76_);}
	.st57{fill:url(#SVGID_77_);}
	.st58{fill:url(#SVGID_78_);}
	.st59{fill:url(#SVGID_79_);}
	.st60{fill:url(#SVGID_80_);}
	.st61{fill:url(#SVGID_81_);}
	.st62{fill:url(#SVGID_82_);}
	.st63{fill:url(#SVGID_83_);}
	.st64{fill:url(#SVGID_84_);}
	.st65{fill:url(#SVGID_85_);}
	.st66{fill:url(#SVGID_86_);}
	.st67{fill:url(#SVGID_87_);}
	.st68{fill:url(#SVGID_88_);}
	.st69{fill:url(#SVGID_89_);}
	.st70{fill:url(#SVGID_90_);}
	.st71{fill:url(#SVGID_91_);}
	.st72{fill:url(#SVGID_92_);}
	.st73{fill:url(#SVGID_93_);}
	.st74{fill:url(#SVGID_94_);}
	.st75{fill:url(#SVGID_95_);}
	.st76{fill:url(#SVGID_96_);}
	.st77{fill:url(#SVGID_97_);}
	.st78{fill:url(#SVGID_98_);}
	.st79{fill:url(#SVGID_99_);}
	.st80{fill:url(#SVGID_100_);}
	.st81{fill:url(#SVGID_101_);}
	.st82{fill:url(#SVGID_102_);}
	.st83{fill:url(#SVGID_103_);}
	.st84{fill:url(#SVGID_104_);}
	.st85{fill:url(#SVGID_105_);}
	.st86{fill:url(#SVGID_106_);}
	.st87{fill:url(#SVGID_107_);}
	.st88{fill:url(#SVGID_108_);}
	.st89{fill:url(#SVGID_109_);}
	.st90{fill:url(#SVGID_110_);}
	.st91{fill:none;}
</style>
<g id="BG">
	<g>
		<rect class="st0" width="1200" height="630"/>
	</g>
</g>
<g id="elements">
	<g>
		<rect class="st0" width="413" height="630"/>
	</g>
	<g>
		<defs>
			<rect id="SVGID_13_" width="1200" height="630"/>
		</defs>
		<clipPath id="SVGID_2_">
			<use xlink:href="#SVGID_13_"  style="overflow:visible;"/>
		</clipPath>
		<path class="st1" d="M387.2-637.1c-10.4,87.2,56.2,175.9,164.1,236.2C409-246.3,354.4-64.1,430.8,41.6
			c92.2,127.5,339.9,95.3,553.3-72c213.4-167.3,311.7-406.3,219.5-533.8c-17.6-24.3-40.8-42.8-68.4-55.6
			c-52.9-90.4-179-167.5-332.7-192.7C588.9-847.6,403-769.1,387.2-637.1z"/>
		<path class="st1" d="M575.2,756.9c-10.4,87.2,56.2,175.9,164.1,236.2c-142.4,154.6-197,336.8-120.6,442.5
			c92.2,127.5,339.9,95.3,553.3-72c213.4-167.3,311.7-406.3,219.5-533.8c-17.6-24.3-40.8-42.8-68.4-55.6
			c-52.9-90.4-179-167.5-332.7-192.7C776.9,546.4,591,624.9,575.2,756.9z"/>
		<path class="st1" d="M-813.8,211.9c-10.4,87.2,56.2,175.9,164.1,236.2c-142.4,154.6-197,336.8-120.6,442.5
			c92.2,127.5,339.9,95.3,553.3-72C-3.5,651.3,94.8,412.3,2.7,284.8c-17.6-24.3-40.8-42.8-68.4-55.6
			c-52.9-90.4-179-167.5-332.7-192.7C-612.1,1.4-798,79.9-813.8,211.9z"/>
	</g>
</g>
<g id="text">
	<g>
		<path class="st23" d="M565.6,330.8h-10c-1.1,0-2-0.3-2.7-0.8c-0.7-0.5-1.2-1.2-1.6-2l-3.3-9.7h-21.2l-3.3,9.7
			c-0.3,0.7-0.8,1.4-1.5,1.9c-0.7,0.6-1.6,0.9-2.7,0.9h-10.1l21.6-55.8h13.3L565.6,330.8z M545,309.5l-5.2-15.3
			c-0.4-1-0.8-2.1-1.2-3.4c-0.4-1.3-0.9-2.7-1.3-4.3c-0.4,1.6-0.8,3-1.2,4.3c-0.4,1.3-0.8,2.5-1.2,3.4l-5.1,15.2H545z"/>
		<path class="st23" d="M620.1,330.8h-10c-1.1,0-2-0.3-2.7-0.8c-0.7-0.5-1.2-1.2-1.6-2l-3.3-9.7h-21.2l-3.3,9.7
			c-0.3,0.7-0.8,1.4-1.5,1.9c-0.7,0.6-1.6,0.9-2.7,0.9h-10.1l21.6-55.8h13.3L620.1,330.8z M599.5,309.5l-5.2-15.3
			c-0.4-1-0.8-2.1-1.2-3.4c-0.4-1.3-0.9-2.7-1.3-4.3c-0.4,1.6-0.8,3-1.2,4.3c-0.4,1.3-0.8,2.5-1.2,3.4l-5.1,15.2H599.5z"/>
		<path class="st23" d="M655.3,286.3c-0.4,0.6-0.8,1.1-1.2,1.4c-0.4,0.3-1,0.5-1.6,0.5c-0.6,0-1.2-0.2-1.9-0.6
			c-0.7-0.4-1.4-0.8-2.3-1.2c-0.9-0.5-1.8-0.9-2.9-1.2s-2.4-0.6-3.8-0.6c-2.4,0-4.2,0.5-5.4,1.6c-1.2,1-1.8,2.4-1.8,4.2
			c0,1.1,0.4,2.1,1.1,2.8c0.7,0.7,1.7,1.4,2.8,1.9c1.2,0.5,2.5,1,4,1.5c1.5,0.4,3,0.9,4.6,1.5c1.6,0.5,3.1,1.2,4.6,1.9
			c1.5,0.7,2.8,1.7,4,2.8c1.2,1.1,2.1,2.5,2.8,4.2c0.7,1.6,1.1,3.6,1.1,6c0,2.6-0.4,5-1.3,7.2c-0.9,2.2-2.2,4.2-3.9,5.9
			c-1.7,1.7-3.8,3-6.3,3.9s-5.3,1.4-8.5,1.4c-1.7,0-3.5-0.2-5.3-0.5c-1.8-0.4-3.5-0.9-5.2-1.5s-3.3-1.4-4.8-2.3
			c-1.5-0.9-2.8-1.9-3.9-3l3.8-6.1c0.3-0.4,0.7-0.8,1.2-1.1c0.5-0.3,1-0.4,1.6-0.4c0.8,0,1.5,0.2,2.3,0.7c0.8,0.5,1.7,1,2.6,1.6
			c1,0.6,2.1,1.1,3.4,1.6c1.3,0.5,2.8,0.7,4.5,0.7c2.4,0,4.2-0.5,5.5-1.6s2-2.7,2-4.9c0-1.3-0.4-2.4-1.1-3.2c-0.7-0.8-1.7-1.5-2.8-2
			c-1.2-0.5-2.5-1-4-1.4c-1.5-0.4-3-0.9-4.6-1.4c-1.6-0.5-3.1-1.1-4.6-1.8c-1.5-0.7-2.8-1.7-4-2.9c-1.2-1.2-2.1-2.7-2.8-4.4
			c-0.7-1.8-1.1-4-1.1-6.6c0-2.1,0.4-4.1,1.3-6.1s2.1-3.8,3.7-5.3c1.6-1.6,3.6-2.8,6-3.7c2.4-0.9,5.1-1.4,8.2-1.4
			c1.7,0,3.4,0.1,5,0.4s3.2,0.7,4.6,1.2s2.8,1.1,4.1,1.9c1.3,0.7,2.4,1.6,3.4,2.5L655.3,286.3z"/>
		<path class="st23" d="M707.1,285.3h-15.7v45.6h-13v-45.6h-15.7V275h44.4V285.3z"/>
		<path class="st23" d="M758.3,330.8h-10c-1.1,0-2-0.3-2.7-0.8c-0.7-0.5-1.2-1.2-1.6-2l-3.3-9.7h-21.2l-3.3,9.7
			c-0.3,0.7-0.8,1.4-1.5,1.9c-0.7,0.6-1.6,0.9-2.7,0.9h-10.1l21.6-55.8h13.3L758.3,330.8z M737.7,309.5l-5.2-15.3
			c-0.4-1-0.8-2.1-1.2-3.4c-0.4-1.3-0.9-2.7-1.3-4.3c-0.4,1.6-0.8,3-1.2,4.3c-0.4,1.3-0.8,2.5-1.2,3.4l-5.1,15.2H737.7z"/>
		<path class="st23" d="M528.4,389.6h2.1c1.9,0,3.3-0.6,4.1-1.8l12.6-18.2c0.7-1,1.5-1.6,2.4-2c0.9-0.4,1.9-0.6,3.2-0.6h11.3
			l-16.6,22.6c-1.2,1.6-2.4,2.7-3.8,3.4c1,0.4,1.9,0.9,2.6,1.5s1.5,1.5,2.2,2.5l16.9,25.9h-11.6c-0.7,0-1.4-0.1-1.9-0.2
			c-0.5-0.1-1-0.3-1.4-0.5c-0.4-0.2-0.7-0.5-1-0.7s-0.5-0.6-0.8-1L536.2,401c-0.5-0.7-1-1.2-1.7-1.5c-0.7-0.3-1.7-0.4-2.9-0.4h-3.1
			v23.8h-13V367h13V389.6z"/>
		<path class="st23" d="M622,394.9c0,4-0.7,7.8-2.1,11.3c-1.4,3.5-3.4,6.5-5.9,9.1c-2.5,2.6-5.6,4.6-9.1,6
			c-3.6,1.5-7.5,2.2-11.9,2.2c-4.3,0-8.3-0.7-11.9-2.2c-3.6-1.5-6.6-3.5-9.2-6c-2.5-2.6-4.5-5.6-5.9-9.1c-1.4-3.5-2.1-7.2-2.1-11.3
			s0.7-7.8,2.1-11.3c1.4-3.5,3.4-6.5,5.9-9s5.6-4.6,9.2-6c3.6-1.5,7.5-2.2,11.9-2.2c4.3,0,8.3,0.7,11.9,2.2c3.6,1.5,6.6,3.5,9.1,6
			c2.5,2.6,4.5,5.6,5.9,9C621.3,387.1,622,390.9,622,394.9z M608.7,394.9c0-2.8-0.4-5.2-1.1-7.5c-0.7-2.2-1.7-4.1-3.1-5.6
			c-1.3-1.5-3-2.7-4.9-3.5c-1.9-0.8-4.2-1.2-6.6-1.2c-2.5,0-4.7,0.4-6.7,1.2s-3.6,2-4.9,3.5c-1.3,1.5-2.4,3.4-3.1,5.6
			c-0.7,2.2-1.1,4.7-1.1,7.5c0,2.8,0.4,5.3,1.1,7.5s1.7,4.1,3.1,5.6s3,2.7,4.9,3.5c2,0.8,4.2,1.2,6.7,1.2c2.5,0,4.7-0.4,6.6-1.2
			c1.9-0.8,3.6-2,4.9-3.5s2.4-3.4,3.1-5.6C608.3,400.2,608.7,397.7,608.7,394.9z"/>
		<path class="st23" d="M678.3,367v55.8h-13v-23.6h-22.7v23.6h-13V367h13v23.3h22.7V367H678.3z"/>
		<path class="st23" d="M739.2,367l-22.4,55.8h-11.7L682.8,367h10.4c1.1,0,2,0.3,2.7,0.8c0.7,0.5,1.2,1.2,1.6,2l10.8,29.9
			c0.5,1.3,1,2.7,1.5,4.3c0.5,1.5,0.9,3.2,1.4,4.8c0.4-1.7,0.8-3.3,1.2-4.8c0.4-1.5,0.9-3,1.4-4.3l10.7-29.9
			c0.3-0.7,0.8-1.4,1.5-1.9s1.6-0.9,2.7-0.9H739.2z"/>
		<path class="st23" d="M756.7,422.8h-13V367h13V422.8z"/>
		<path class="st23" d="M816.2,367v55.8h-13v-23.6h-22.7v23.6h-13V367h13v23.3h22.7V367H816.2z"/>
		<path class="st23" d="M881.9,394.9c0,4-0.7,7.8-2.1,11.3c-1.4,3.5-3.4,6.5-5.9,9.1c-2.5,2.6-5.6,4.6-9.1,6
			c-3.6,1.5-7.5,2.2-11.9,2.2c-4.3,0-8.3-0.7-11.9-2.2c-3.6-1.5-6.6-3.5-9.2-6c-2.5-2.6-4.5-5.6-5.9-9.1c-1.4-3.5-2.1-7.2-2.1-11.3
			s0.7-7.8,2.1-11.3c1.4-3.5,3.4-6.5,5.9-9c2.5-2.6,5.6-4.6,9.2-6c3.6-1.5,7.5-2.2,11.9-2.2c4.3,0,8.3,0.7,11.9,2.2
			c3.6,1.5,6.6,3.5,9.1,6c2.5,2.6,4.5,5.6,5.9,9C881.2,387.1,881.9,390.9,881.9,394.9z M868.6,394.9c0-2.8-0.4-5.2-1.1-7.5
			c-0.7-2.2-1.7-4.1-3.1-5.6c-1.3-1.5-3-2.7-4.9-3.5s-4.2-1.2-6.6-1.2c-2.5,0-4.7,0.4-6.7,1.2c-2,0.8-3.6,2-4.9,3.5
			c-1.3,1.5-2.4,3.4-3.1,5.6c-0.7,2.2-1.1,4.7-1.1,7.5c0,2.8,0.4,5.3,1.1,7.5c0.7,2.2,1.7,4.1,3.1,5.6s3,2.7,4.9,3.5
			c2,0.8,4.2,1.2,6.7,1.2c2.5,0,4.7-0.4,6.6-1.2c1.9-0.8,3.6-2,4.9-3.5c1.3-1.5,2.4-3.4,3.1-5.6
			C868.2,400.2,868.6,397.7,868.6,394.9z"/>
		<path class="st23" d="M944.3,394.9c0,4-0.7,7.8-2.1,11.3c-1.4,3.5-3.4,6.5-5.9,9.1c-2.5,2.6-5.6,4.6-9.1,6
			c-3.6,1.5-7.5,2.2-11.9,2.2c-4.3,0-8.3-0.7-11.9-2.2c-3.6-1.5-6.6-3.5-9.2-6c-2.5-2.6-4.5-5.6-5.9-9.1c-1.4-3.5-2.1-7.2-2.1-11.3
			s0.7-7.8,2.1-11.3c1.4-3.5,3.4-6.5,5.9-9c2.5-2.6,5.6-4.6,9.2-6c3.6-1.5,7.5-2.2,11.9-2.2c4.3,0,8.3,0.7,11.9,2.2
			c3.6,1.5,6.6,3.5,9.1,6c2.5,2.6,4.5,5.6,5.9,9C943.6,387.1,944.3,390.9,944.3,394.9z M931,394.9c0-2.8-0.4-5.2-1.1-7.5
			c-0.7-2.2-1.7-4.1-3.1-5.6c-1.3-1.5-3-2.7-4.9-3.5s-4.2-1.2-6.6-1.2c-2.5,0-4.7,0.4-6.7,1.2c-2,0.8-3.6,2-4.9,3.5
			c-1.3,1.5-2.4,3.4-3.1,5.6c-0.7,2.2-1.1,4.7-1.1,7.5c0,2.8,0.4,5.3,1.1,7.5c0.7,2.2,1.7,4.1,3.1,5.6s3,2.7,4.9,3.5
			c2,0.8,4.2,1.2,6.7,1.2c2.5,0,4.7-0.4,6.6-1.2c1.9-0.8,3.6-2,4.9-3.5c1.3-1.5,2.4-3.4,3.1-5.6C930.7,400.2,931,397.7,931,394.9z"
			/>
		<path class="st23" d="M985.6,412.5v10.3h-33.7V367h13v45.5H985.6z"/>
		<path class="st23" d="M1005.2,422.8h-13V367h13V422.8z"/>
		<path class="st23" d="M1029,389.6h2.1c1.9,0,3.3-0.6,4.1-1.8l12.6-18.2c0.7-1,1.5-1.6,2.4-2c0.9-0.4,1.9-0.6,3.2-0.6h11.3
			l-16.6,22.6c-1.2,1.6-2.4,2.7-3.8,3.4c1,0.4,1.9,0.9,2.6,1.5s1.5,1.5,2.2,2.5l16.9,25.9h-11.6c-0.7,0-1.4-0.1-1.9-0.2
			c-0.5-0.1-1-0.3-1.4-0.5c-0.4-0.2-0.7-0.5-1-0.7s-0.5-0.6-0.8-1l-12.6-19.4c-0.5-0.7-1-1.2-1.7-1.5c-0.7-0.3-1.7-0.4-2.9-0.4h-3.1
			v23.8h-13V367h13V389.6z"/>
	</g>
	<g>
		<g>
			<g>
				
					<linearGradient id="SVGID_4_" gradientUnits="userSpaceOnUse" x1="1034.0096" y1="2602.5737" x2="1034.9497" y2="2602.5737" gradientTransform="matrix(263.8323 0 0 -263.8323 -272666.5625 687141.375)">
					<stop  offset="0" style="stop-color:#CE8B00"/>
					<stop  offset="0.5237" style="stop-color:#DEAE1C"/>
					<stop  offset="1" style="stop-color:#CE8B00"/>
				</linearGradient>
				<path style="fill:url(#SVGID_4_);" d="M371.6,526.8H153.6c-8.2,0-15-6.7-15-15v-27.2c0-8.2,6.7-15,15-15h218.1
					c8.2,0,15,6.7,15,15v27.2C386.6,520.1,379.9,526.8,371.6,526.8z"/>
			</g>
			<g>
				<path class="st25" d="M176.7,493.8l-0.4,2.2c-0.1,0.6-0.3,1-0.7,1.2c-0.4,0.3-0.9,0.4-1.7,0.4h-1.1l-0.7,4.2h1.9
					c0.6,0,0.9,0.2,1.2,0.5c0.2,0.3,0.3,0.9,0.2,1.7l-0.3,1.7h-3.5l-1.2,7h-2.5c-0.2,0-0.5-0.1-0.7-0.2c-0.2-0.1-0.4-0.3-0.5-0.5
					c-0.1-0.2-0.3-0.4-0.3-0.7s-0.1-0.5,0-0.8l0.8-4.8h-2.9l-0.9,5.1c-0.1,0.3-0.2,0.6-0.3,0.9c-0.2,0.2-0.3,0.4-0.6,0.6
					c-0.2,0.2-0.5,0.3-0.7,0.3c-0.3,0.1-0.5,0.1-0.8,0.1h-2.4l1.2-7h-1.6c-0.6,0-0.9-0.2-1.2-0.5s-0.3-0.9-0.2-1.7l0.3-1.7h3.1
					l0.7-4.2h-3.5l0.4-2.2c0.1-0.5,0.3-0.9,0.7-1.2s0.9-0.4,1.7-0.4h1.2l0.9-5.2c0.1-0.6,0.4-1,0.8-1.3c0.4-0.3,0.9-0.5,1.5-0.5h2.5
					l-1.2,6.9h2.9l1.2-6.9h2.4c0.3,0,0.5,0,0.8,0.1c0.2,0.1,0.4,0.2,0.6,0.4c0.2,0.2,0.3,0.3,0.3,0.6c0.1,0.2,0.1,0.5,0,0.7
					l-0.9,5.1H176.7z M168.3,497.6h-2.9l-0.7,4.2h2.9L168.3,497.6z"/>
				<path class="st25" d="M185.3,497.2h1c0.9,0,1.5-0.3,1.9-0.8l5.8-8.4c0.3-0.4,0.7-0.8,1.1-0.9c0.4-0.2,0.9-0.3,1.5-0.3h5.2
					l-7.6,10.4c-0.5,0.7-1.1,1.2-1.7,1.6c0.4,0.2,0.9,0.4,1.2,0.7c0.4,0.3,0.7,0.7,1,1.1l7.8,11.9H197c-0.3,0-0.6,0-0.9-0.1
					s-0.5-0.1-0.6-0.2c-0.2-0.1-0.3-0.2-0.5-0.3c-0.1-0.1-0.3-0.3-0.4-0.5l-5.8-8.9c-0.2-0.3-0.5-0.6-0.8-0.7
					c-0.3-0.1-0.8-0.2-1.3-0.2h-1.4v10.9h-6v-25.7h6V497.2z"/>
				<path class="st25" d="M215,507.8c0.8,0,1.5-0.1,2.1-0.4s1.2-0.6,1.6-1.1s0.8-1.1,1-1.8c0.2-0.7,0.3-1.5,0.3-2.4v-15.2h6v15.2
					c0,1.6-0.3,3-0.8,4.3c-0.5,1.3-1.2,2.5-2.2,3.4s-2.1,1.7-3.5,2.2c-1.4,0.5-2.9,0.8-4.6,0.8c-1.7,0-3.3-0.3-4.6-0.8
					s-2.5-1.3-3.5-2.2s-1.7-2.1-2.2-3.4c-0.5-1.3-0.8-2.8-0.8-4.3v-15.2h6v15.2c0,0.9,0.1,1.7,0.3,2.4c0.2,0.7,0.6,1.3,1,1.8
					c0.4,0.5,1,0.9,1.6,1.1C213.5,507.7,214.2,507.8,215,507.8z"/>
				<path class="st25" d="M246.2,507.8v4.8h-15.5v-25.7h6v21H246.2z"/>
				<path class="st25" d="M272.6,499.7c0,1.9-0.3,3.6-1,5.1s-1.5,2.9-2.7,4.1s-2.6,2-4.2,2.7s-3.5,1-5.5,1h-10v-25.7h10
					c2,0,3.8,0.3,5.5,1c1.6,0.6,3,1.5,4.2,2.7s2.1,2.5,2.7,4.1C272.3,496.1,272.6,497.8,272.6,499.7z M266.5,499.7
					c0-1.3-0.2-2.4-0.5-3.4c-0.3-1-0.8-1.9-1.4-2.6c-0.6-0.7-1.4-1.3-2.3-1.6c-0.9-0.4-1.9-0.6-3.1-0.6h-4V508h4
					c1.1,0,2.2-0.2,3.1-0.6c0.9-0.4,1.7-0.9,2.3-1.6c0.6-0.7,1.1-1.6,1.4-2.6C266.3,502.1,266.5,501,266.5,499.7z"/>
				<path class="st25" d="M290.3,492.1c-0.2,0.3-0.4,0.5-0.6,0.6c-0.2,0.1-0.4,0.2-0.8,0.2c-0.3,0-0.6-0.1-0.9-0.3
					c-0.3-0.2-0.7-0.4-1.1-0.6s-0.8-0.4-1.4-0.6c-0.5-0.2-1.1-0.3-1.7-0.3c-1.1,0-2,0.2-2.5,0.7s-0.8,1.1-0.8,1.9
					c0,0.5,0.2,0.9,0.5,1.3c0.3,0.3,0.8,0.6,1.3,0.9s1.1,0.5,1.8,0.7s1.4,0.4,2.1,0.7s1.4,0.5,2.1,0.9c0.7,0.3,1.3,0.8,1.8,1.3
					c0.5,0.5,1,1.2,1.3,1.9c0.3,0.8,0.5,1.7,0.5,2.7c0,1.2-0.2,2.3-0.6,3.3s-1,1.9-1.8,2.7c-0.8,0.8-1.7,1.4-2.9,1.8
					s-2.5,0.7-3.9,0.7c-0.8,0-1.6-0.1-2.4-0.2c-0.8-0.2-1.6-0.4-2.4-0.7c-0.8-0.3-1.5-0.7-2.2-1.1s-1.3-0.9-1.8-1.4l1.8-2.8
					c0.1-0.2,0.3-0.4,0.6-0.5c0.2-0.1,0.5-0.2,0.8-0.2c0.4,0,0.7,0.1,1.1,0.3c0.4,0.2,0.8,0.5,1.2,0.7c0.5,0.3,1,0.5,1.6,0.7
					c0.6,0.2,1.3,0.3,2.1,0.3c1.1,0,1.9-0.2,2.5-0.7c0.6-0.5,0.9-1.2,0.9-2.3c0-0.6-0.2-1.1-0.5-1.5c-0.3-0.4-0.8-0.7-1.3-0.9
					c-0.5-0.2-1.1-0.5-1.8-0.7s-1.4-0.4-2.1-0.6s-1.4-0.5-2.1-0.8c-0.7-0.3-1.3-0.8-1.8-1.3c-0.5-0.5-1-1.2-1.3-2
					c-0.3-0.8-0.5-1.8-0.5-3c0-1,0.2-1.9,0.6-2.8s1-1.7,1.7-2.5s1.7-1.3,2.8-1.7s2.3-0.6,3.8-0.6c0.8,0,1.6,0.1,2.3,0.2
					c0.7,0.1,1.5,0.3,2.1,0.5c0.7,0.2,1.3,0.5,1.9,0.9c0.6,0.3,1.1,0.7,1.6,1.1L290.3,492.1z"/>
				<path class="st25" d="M306.4,507.8c0.8,0,1.5-0.1,2.1-0.4s1.2-0.6,1.6-1.1s0.8-1.1,1-1.8c0.2-0.7,0.3-1.5,0.3-2.4v-15.2h6v15.2
					c0,1.6-0.3,3-0.8,4.3c-0.5,1.3-1.2,2.5-2.2,3.4s-2.1,1.7-3.5,2.2c-1.4,0.5-2.9,0.8-4.6,0.8c-1.7,0-3.3-0.3-4.6-0.8
					s-2.5-1.3-3.5-2.2s-1.7-2.1-2.2-3.4c-0.5-1.3-0.8-2.8-0.8-4.3v-15.2h6v15.2c0,0.9,0.1,1.7,0.3,2.4c0.2,0.7,0.6,1.3,1,1.8
					c0.4,0.5,1,0.9,1.6,1.1C304.9,507.7,305.6,507.8,306.4,507.8z M305.1,483.1c0,0.4-0.1,0.7-0.2,1c-0.1,0.3-0.3,0.6-0.6,0.8
					c-0.3,0.2-0.6,0.4-0.9,0.6c-0.3,0.1-0.7,0.2-1.1,0.2c-0.4,0-0.7-0.1-1-0.2c-0.3-0.1-0.6-0.3-0.9-0.6c-0.2-0.2-0.4-0.5-0.6-0.8
					c-0.1-0.3-0.2-0.7-0.2-1c0-0.4,0.1-0.7,0.2-1c0.1-0.3,0.3-0.6,0.6-0.9s0.5-0.4,0.9-0.6c0.3-0.1,0.7-0.2,1-0.2
					c0.4,0,0.8,0.1,1.1,0.2c0.3,0.1,0.6,0.3,0.9,0.6c0.3,0.2,0.5,0.5,0.6,0.9S305.1,482.7,305.1,483.1z M313.2,483.1
					c0,0.4-0.1,0.7-0.2,1c-0.1,0.3-0.3,0.6-0.6,0.8c-0.2,0.2-0.5,0.4-0.9,0.6s-0.7,0.2-1.1,0.2c-0.4,0-0.7-0.1-1.1-0.2
					c-0.3-0.1-0.6-0.3-0.9-0.6c-0.2-0.2-0.4-0.5-0.6-0.8c-0.1-0.3-0.2-0.7-0.2-1c0-0.4,0.1-0.7,0.2-1c0.1-0.3,0.3-0.6,0.6-0.9
					s0.5-0.4,0.9-0.6c0.3-0.1,0.7-0.2,1.1-0.2c0.4,0,0.7,0.1,1.1,0.2c0.3,0.1,0.6,0.3,0.9,0.6s0.4,0.5,0.6,0.9
					S313.2,482.7,313.2,483.1z"/>
				<path class="st25" d="M345.5,499.7c0,1.9-0.3,3.6-1,5.1s-1.5,2.9-2.7,4.1s-2.6,2-4.2,2.7s-3.5,1-5.5,1h-10v-25.7h10
					c2,0,3.8,0.3,5.5,1c1.6,0.6,3,1.5,4.2,2.7s2.1,2.5,2.7,4.1C345.1,496.1,345.5,497.8,345.5,499.7z M339.4,499.7
					c0-1.3-0.2-2.4-0.5-3.4c-0.3-1-0.8-1.9-1.4-2.6c-0.6-0.7-1.4-1.3-2.3-1.6c-0.9-0.4-1.9-0.6-3.1-0.6h-4V508h4
					c1.1,0,2.2-0.2,3.1-0.6c0.9-0.4,1.7-0.9,2.3-1.6c0.6-0.7,1.1-1.6,1.4-2.6C339.2,502.1,339.4,501,339.4,499.7z"/>
				<path class="st25" d="M371.2,512.6h-4.6c-0.5,0-0.9-0.1-1.3-0.4c-0.3-0.2-0.6-0.5-0.7-0.9l-1.5-4.5h-9.8l-1.5,4.5
					c-0.1,0.3-0.4,0.6-0.7,0.9c-0.3,0.3-0.8,0.4-1.2,0.4h-4.7l10-25.7h6.1L371.2,512.6z M361.7,502.7l-2.4-7c-0.2-0.4-0.4-1-0.6-1.6
					c-0.2-0.6-0.4-1.3-0.6-2c-0.2,0.7-0.4,1.4-0.6,2c-0.2,0.6-0.4,1.1-0.6,1.6l-2.4,7H361.7z"/>
			</g>
		</g>
		<g>
			<linearGradient id="SVGID_6_" gradientUnits="userSpaceOnUse" x1="286.7489" y1="-89.0048" x2="468.0839" y2="813.6848">
				<stop  offset="0" style="stop-color:#663800"/>
				<stop  offset="0.3976" style="stop-color:#FFD373"/>
				<stop  offset="1" style="stop-color:#CEA040"/>
			</linearGradient>
			<path style="fill:url(#SVGID_6_);" d="M387.6,151.4c-28.8-12.3-65.8,1.7-97.2,32.6c8,13.2,15.2,27.6,21.3,43
				c29.1,72.6,25.7,144.1-4.7,178.6c36.2-9.1,75.2-44.5,99.1-94.6C439.6,241.4,431.2,169.9,387.6,151.4z"/>
			<linearGradient id="SVGID_8_" gradientUnits="userSpaceOnUse" x1="142.8179" y1="-60.0915" x2="324.1528" y2="842.598">
				<stop  offset="0" style="stop-color:#663800"/>
				<stop  offset="0.3976" style="stop-color:#FFD373"/>
				<stop  offset="1" style="stop-color:#CEA040"/>
			</linearGradient>
			<path style="fill:url(#SVGID_8_);" d="M267,403.4c-43.6-18.5-51.9-90-18.6-159.6c11.3-23.6,26-44,42.1-59.9
				c-38.7-64.1-95.6-101-139.4-85.4C98.3,117.4,84.6,205.3,120.6,295c35.9,89.7,107.9,147.2,160.7,128.3
				c10.1-3.6,18.7-9.7,25.8-17.8C293,409.1,279.3,408.6,267,403.4z"/>
			<path class="st25" d="M311.8,226.9c-6.1-15.3-13.4-29.7-21.3-43c-16.1,15.9-30.8,36.2-42.1,59.9c-33.3,69.6-25,141.1,18.6,159.6
				c12.2,5.2,26,5.7,40.1,2.1C337.5,371,340.9,299.5,311.8,226.9z"/>
		</g>
	</g>
</g>
</svg>
