<?xml version="1.0" encoding="utf-8"?>
<!-- Generator: Adobe Illustrator 22.0.1, SVG Export Plug-In . SVG Version: 6.00 Build 0)  -->
<svg version="1.1" xmlns="http://www.w3.org/2000/svg" xmlns:xlink="http://www.w3.org/1999/xlink" x="0px" y="0px"
	 viewBox="0 0 1200 630" style="enable-background:new 0 0 1200 630;" xml:space="preserve">
<style type="text/css">
	.st0{fill:#244999;}
	.st1{clip-path:url(#SVGID_2_);}
	.st2{fill:url(#SVGID_3_);}
	.st3{fill:url(#SVGID_4_);}
	.st4{fill:#FFFFFF;}
	.st5{clip-path:url(#SVGID_6_);}
	.st6{fill:url(#SVGID_7_);}
	.st7{fill:url(#SVGID_8_);}
	.st8{clip-path:url(#SVGID_10_);}
	.st9{fill:url(#SVGID_11_);}
	.st10{fill:url(#SVGID_12_);}
	.st11{clip-path:url(#SVGID_14_);}
	.st12{fill:url(#SVGID_15_);}
	.st13{fill:url(#SVGID_16_);}
	.st14{clip-path:url(#SVGID_18_);}
	.st15{fill:url(#SVGID_19_);}
	.st16{fill:url(#SVGID_20_);}
	.st17{clip-path:url(#SVGID_22_);}
	.st18{fill:url(#SVGID_23_);}
	.st19{fill:url(#SVGID_24_);}
	.st20{clip-path:url(#SVGID_26_);}
	.st21{fill:url(#SVGID_27_);}
	.st22{fill:url(#SVGID_28_);}
	.st23{clip-path:url(#SVGID_30_);}
	.st24{fill:url(#SVGID_31_);}
	.st25{fill:url(#SVGID_32_);}
	.st26{clip-path:url(#SVGID_34_);}
	.st27{fill:url(#SVGID_35_);}
	.st28{fill:url(#SVGID_36_);}
	.st29{clip-path:url(#SVGID_38_);}
	.st30{fill:url(#SVGID_39_);}
	.st31{fill:url(#SVGID_40_);}
	.st32{clip-path:url(#SVGID_42_);}
	.st33{fill:url(#SVGID_43_);}
	.st34{fill:url(#SVGID_44_);}
	.st35{clip-path:url(#SVGID_46_);}
	.st36{fill:url(#SVGID_47_);}
	.st37{fill:url(#SVGID_48_);}
	.st38{clip-path:url(#SVGID_50_);}
	.st39{fill:url(#SVGID_51_);}
	.st40{fill:url(#SVGID_52_);}
	.st41{clip-path:url(#SVGID_54_);}
	.st42{fill:url(#SVGID_55_);}
	.st43{fill:url(#SVGID_56_);}
	.st44{clip-path:url(#SVGID_58_);}
	.st45{fill:url(#SVGID_59_);}
	.st46{fill:url(#SVGID_60_);}
	.st47{clip-path:url(#SVGID_62_);}
	.st48{fill:url(#SVGID_63_);}
	.st49{fill:url(#SVGID_64_);}
	.st50{clip-path:url(#SVGID_66_);}
	.st51{fill:url(#SVGID_67_);}
	.st52{fill:url(#SVGID_68_);}
	.st53{clip-path:url(#SVGID_70_);}
	.st54{fill:url(#SVGID_71_);}
	.st55{fill:url(#SVGID_72_);}
	.st56{clip-path:url(#SVGID_74_);}
	.st57{fill:url(#SVGID_75_);}
	.st58{fill:url(#SVGID_76_);}
	.st59{clip-path:url(#SVGID_78_);}
	.st60{fill:url(#SVGID_79_);}
	.st61{fill:url(#SVGID_80_);}
	.st62{clip-path:url(#SVGID_82_);}
	.st63{fill:url(#SVGID_83_);}
	.st64{fill:url(#SVGID_84_);}
	.st65{clip-path:url(#SVGID_86_);}
	.st66{fill:url(#SVGID_87_);}
	.st67{fill:url(#SVGID_88_);}
	.st68{fill-rule:evenodd;clip-rule:evenodd;fill:#FFD735;}
	.st69{fill-rule:evenodd;clip-rule:evenodd;fill:#7D5C2A;}
	.st70{fill-rule:evenodd;clip-rule:evenodd;fill:#FF493B;}
	.st71{fill-rule:evenodd;clip-rule:evenodd;fill:#39B54A;}
	.st72{fill-rule:evenodd;clip-rule:evenodd;fill:#FFFFFF;}
	.st73{fill-rule:evenodd;clip-rule:evenodd;fill:#00B8FF;}
	.st74{fill-rule:evenodd;clip-rule:evenodd;fill:#2E91D0;}
	.st75{fill:#7D5C2A;}
	.st76{fill-rule:evenodd;clip-rule:evenodd;fill:#FFA72B;}
	.st77{display:none;}
	.st78{display:inline;}
</style>
<g id="BG">
	<g>
		<rect class="st0" width="1200" height="630"/>
	</g>
</g>
<g id="elements">
	<g>
		<defs>
			<rect id="SVGID_53_" width="1200" height="630"/>
		</defs>
		<clipPath id="SVGID_2_">
			<use xlink:href="#SVGID_53_"  style="overflow:visible;"/>
		</clipPath>
		<g class="st1">
			<linearGradient id="SVGID_3_" gradientUnits="userSpaceOnUse" x1="814.0913" y1="-579.5294" x2="1285.6274" y2="1767.7878">
				<stop  offset="0" style="stop-color:#663800"/>
				<stop  offset="0.3976" style="stop-color:#FFD373"/>
				<stop  offset="1" style="stop-color:#CEA040"/>
			</linearGradient>
			<path class="st2" d="M1078,45.7c-76.8-31.9-175.3,4.3-259,84.8c21.3,34.5,40.5,71.9,56.9,111.8c77.6,189,68.4,374.9-12.5,464.9
				c96.5-23.6,200.4-115.9,264.2-246.2C1216.4,279.9,1194.2,94,1078,45.7z"/>
			<linearGradient id="SVGID_4_" gradientUnits="userSpaceOnUse" x1="428.6198" y1="-505.7369" x2="901.3036" y2="1847.2933">
				<stop  offset="0" style="stop-color:#663800"/>
				<stop  offset="0.3976" style="stop-color:#FFD373"/>
				<stop  offset="1" style="stop-color:#CEA040"/>
			</linearGradient>
			<path class="st3" d="M756.4,701.7C640.3,653.4,618,467.4,706.8,286.3C737,224.8,776,171.9,819,130.5
				C715.9-36.4,564.2-132.3,447.5-91.7c-140.8,49-177.2,277.9-81.4,511.4c95.8,233.4,287.6,383,428.4,334
				c26.8-9.3,49.8-25.2,68.9-46.4C825.7,716.5,789.1,715.2,756.4,701.7z"/>
			<path class="st4" d="M875.9,242.3c-16.4-39.9-35.6-77.3-56.9-111.8c-43,41.3-82,94.3-112.1,155.8
				c-88.8,181.1-66.6,367.1,49.6,415.4c32.6,13.6,69.2,14.8,106.9,5.6C944.3,617.2,953.4,431.3,875.9,242.3z"/>
		</g>
	</g>
	<g>
		<g>
			<path class="st0" d="M686.6,132.8H468.6c-8.2,0-15-6.7-15-15V90.7c0-8.2,6.7-15,15-15h218.1c8.2,0,15,6.7,15,15v27.2
				C701.6,126.1,694.9,132.8,686.6,132.8z"/>
		</g>
		<g>
			<path class="st4" d="M477.7,100.8l-0.3,1.5c-0.1,0.4-0.2,0.7-0.5,0.8c-0.2,0.2-0.6,0.3-1.2,0.3H475l-0.5,2.8h1.3
				c0.4,0,0.6,0.1,0.8,0.3c0.2,0.2,0.2,0.6,0.1,1.1l-0.2,1.2h-2.4l-0.8,4.7h-1.7c-0.2,0-0.3,0-0.5-0.1s-0.3-0.2-0.4-0.3
				c-0.1-0.1-0.2-0.3-0.2-0.5c0-0.2,0-0.4,0-0.6l0.6-3.3h-2l-0.6,3.4c0,0.2-0.1,0.4-0.2,0.6s-0.2,0.3-0.4,0.4
				c-0.1,0.1-0.3,0.2-0.5,0.2c-0.2,0-0.4,0.1-0.6,0.1h-1.7l0.8-4.7H465c-0.4,0-0.6-0.1-0.8-0.3s-0.2-0.6-0.1-1.1l0.2-1.2h2.1
				l0.5-2.8h-2.4l0.3-1.5c0.1-0.4,0.2-0.6,0.5-0.8c0.2-0.2,0.6-0.3,1.2-0.3h0.8l0.6-3.5c0.1-0.4,0.3-0.7,0.5-0.9
				c0.3-0.2,0.6-0.3,1-0.3h1.7l-0.8,4.7h2l0.8-4.7h1.7c0.2,0,0.4,0,0.5,0.1c0.2,0.1,0.3,0.1,0.4,0.3s0.2,0.2,0.2,0.4s0.1,0.3,0,0.5
				l-0.6,3.5H477.7z M472,103.4h-2l-0.5,2.8h2L472,103.4z"/>
			<path class="st4" d="M478.5,97.8c0.7-0.6,1.5-1,2.5-1.4c1-0.3,2.1-0.5,3.2-0.5c1,0,1.9,0.1,2.7,0.3c0.8,0.2,1.5,0.5,2,1
				c0.6,0.4,1,0.9,1.3,1.5c0.3,0.6,0.5,1.2,0.5,1.9c0,0.8-0.2,1.5-0.5,2.2c-0.3,0.7-0.9,1.2-1.6,1.7c0.4,0.2,0.7,0.4,1,0.7
				s0.6,0.5,0.8,0.8s0.4,0.6,0.5,1s0.2,0.7,0.2,1.1c0,0.8-0.2,1.6-0.5,2.3c-0.3,0.7-0.7,1.3-1.3,1.8c-0.6,0.5-1.3,0.9-2.1,1.2
				s-1.8,0.5-2.9,0.5c-0.6,0-1.2-0.1-1.8-0.2c-0.6-0.1-1.2-0.3-1.8-0.5c-0.6-0.2-1.1-0.4-1.6-0.7c-0.5-0.3-0.9-0.6-1.3-0.9l1.2-1.9
				c0.1-0.1,0.2-0.2,0.4-0.3c0.2-0.1,0.3-0.1,0.5-0.1c0.2,0,0.5,0.1,0.8,0.2c0.3,0.2,0.6,0.3,0.9,0.5c0.3,0.2,0.7,0.4,1.2,0.5
				c0.5,0.2,1,0.2,1.6,0.2c0.4,0,0.8,0,1.2-0.1s0.7-0.2,0.9-0.4s0.4-0.4,0.6-0.7s0.2-0.7,0.2-1.1c0-0.3-0.1-0.6-0.2-0.9
				c-0.1-0.3-0.4-0.5-0.6-0.7c-0.3-0.2-0.6-0.3-1-0.4c-0.4-0.1-0.8-0.1-1.2-0.1h-2.5l0-3.1h2.2c1,0,1.8-0.2,2.2-0.5
				c0.5-0.3,0.7-0.8,0.7-1.5c0-0.6-0.2-1-0.7-1.3c-0.4-0.3-1.1-0.5-2-0.5c-0.5,0-1,0.1-1.4,0.2s-0.7,0.2-1,0.4
				c-0.3,0.1-0.6,0.3-0.8,0.4s-0.4,0.2-0.6,0.2c-0.2,0-0.4,0-0.5-0.1c-0.1-0.1-0.3-0.2-0.4-0.4L478.5,97.8z"/>
			<path class="st4" d="M510.8,104.8c0,1.3-0.2,2.4-0.7,3.5s-1.1,2-1.8,2.8c-0.8,0.8-1.7,1.4-2.9,1.9c-1.1,0.5-2.4,0.7-3.7,0.7
				c-1.4,0-2.6-0.2-3.7-0.7c-1.1-0.5-2.1-1.1-2.9-1.9c-0.8-0.8-1.4-1.8-1.9-2.8s-0.7-2.3-0.7-3.5s0.2-2.4,0.7-3.5s1.1-2,1.9-2.8
				s1.8-1.4,2.9-1.9c1.1-0.5,2.4-0.7,3.7-0.7c1.4,0,2.6,0.2,3.7,0.7c1.1,0.5,2.1,1.1,2.9,1.9c0.8,0.8,1.4,1.7,1.8,2.8
				C510.6,102.4,510.8,103.6,510.8,104.8z M506.6,104.8c0-0.9-0.1-1.6-0.3-2.3c-0.2-0.7-0.5-1.3-1-1.8c-0.4-0.5-0.9-0.8-1.5-1.1
				c-0.6-0.3-1.3-0.4-2.1-0.4c-0.8,0-1.5,0.1-2.1,0.4c-0.6,0.3-1.1,0.6-1.5,1.1c-0.4,0.5-0.7,1.1-1,1.8c-0.2,0.7-0.3,1.5-0.3,2.3
				c0,0.9,0.1,1.7,0.3,2.3c0.2,0.7,0.5,1.3,1,1.8c0.4,0.5,0.9,0.8,1.5,1.1c0.6,0.3,1.3,0.4,2.1,0.4c0.8,0,1.5-0.1,2.1-0.4
				c0.6-0.3,1.1-0.6,1.5-1.1c0.4-0.5,0.7-1.1,1-1.8C506.5,106.5,506.6,105.7,506.6,104.8z"/>
			<path class="st4" d="M527.7,113.6h-4.1V99.1h-3.9c-0.1,2.1-0.3,4-0.5,5.6c-0.2,1.6-0.5,2.9-0.8,4s-0.6,2-1,2.6
				c-0.4,0.7-0.8,1.2-1.3,1.6c-0.5,0.4-0.9,0.6-1.5,0.8s-1.1,0.2-1.7,0.2c-0.7,0-1.2-0.1-1.5-0.2c-0.3-0.1-0.4-0.3-0.4-0.5v-2.5h1
				c0.2,0,0.4,0,0.6,0c0.2,0,0.4-0.1,0.6-0.3c0.2-0.1,0.4-0.3,0.6-0.6c0.2-0.3,0.4-0.6,0.6-1.1c0.2-0.5,0.4-1.1,0.5-1.8
				s0.3-1.6,0.4-2.6c0.1-1,0.2-2.2,0.3-3.5c0.1-1.3,0.2-2.9,0.2-4.6h11.8V113.6z"/>
			<path class="st4" d="M548.3,104.8c0,1.3-0.2,2.4-0.7,3.5s-1.1,2-1.8,2.8c-0.8,0.8-1.7,1.4-2.9,1.9c-1.1,0.5-2.4,0.7-3.7,0.7
				c-1.4,0-2.6-0.2-3.7-0.7c-1.1-0.5-2.1-1.1-2.9-1.9c-0.8-0.8-1.4-1.8-1.9-2.8s-0.7-2.3-0.7-3.5s0.2-2.4,0.7-3.5s1.1-2,1.9-2.8
				s1.8-1.4,2.9-1.9c1.1-0.5,2.4-0.7,3.7-0.7c1.4,0,2.6,0.2,3.7,0.7c1.1,0.5,2.1,1.1,2.9,1.9c0.8,0.8,1.4,1.7,1.8,2.8
				C548,102.4,548.3,103.6,548.3,104.8z M544.1,104.8c0-0.9-0.1-1.6-0.3-2.3c-0.2-0.7-0.5-1.3-1-1.8c-0.4-0.5-0.9-0.8-1.5-1.1
				c-0.6-0.3-1.3-0.4-2.1-0.4c-0.8,0-1.5,0.1-2.1,0.4c-0.6,0.3-1.1,0.6-1.5,1.1c-0.4,0.5-0.7,1.1-1,1.8c-0.2,0.7-0.3,1.5-0.3,2.3
				c0,0.9,0.1,1.7,0.3,2.3c0.2,0.7,0.5,1.3,1,1.8c0.4,0.5,0.9,0.8,1.5,1.1c0.6,0.3,1.3,0.4,2.1,0.4c0.8,0,1.5-0.1,2.1-0.4
				c0.6-0.3,1.1-0.6,1.5-1.1c0.4-0.5,0.7-1.1,1-1.8C544,106.5,544.1,105.7,544.1,104.8z"/>
			<path class="st4" d="M562.8,99.3h-4.9v14.3h-4.1V99.3h-4.9v-3.2h13.9V99.3z"/>
			<path class="st4" d="M581.7,104.8c0,1.3-0.2,2.4-0.7,3.5s-1.1,2-1.8,2.8c-0.8,0.8-1.7,1.4-2.9,1.9c-1.1,0.5-2.4,0.7-3.7,0.7
				c-1.4,0-2.6-0.2-3.7-0.7c-1.1-0.5-2.1-1.1-2.9-1.9c-0.8-0.8-1.4-1.8-1.9-2.8s-0.7-2.3-0.7-3.5s0.2-2.4,0.7-3.5s1.1-2,1.9-2.8
				s1.8-1.4,2.9-1.9c1.1-0.5,2.4-0.7,3.7-0.7c1.4,0,2.6,0.2,3.7,0.7c1.1,0.5,2.1,1.1,2.9,1.9c0.8,0.8,1.4,1.7,1.8,2.8
				C581.4,102.4,581.7,103.6,581.7,104.8z M577.5,104.8c0-0.9-0.1-1.6-0.3-2.3c-0.2-0.7-0.5-1.3-1-1.8c-0.4-0.5-0.9-0.8-1.5-1.1
				c-0.6-0.3-1.3-0.4-2.1-0.4c-0.8,0-1.5,0.1-2.1,0.4c-0.6,0.3-1.1,0.6-1.5,1.1c-0.4,0.5-0.7,1.1-1,1.8c-0.2,0.7-0.3,1.5-0.3,2.3
				c0,0.9,0.1,1.7,0.3,2.3c0.2,0.7,0.5,1.3,1,1.8c0.4,0.5,0.9,0.8,1.5,1.1c0.6,0.3,1.3,0.4,2.1,0.4c0.8,0,1.5-0.1,2.1-0.4
				c0.6-0.3,1.1-0.6,1.5-1.1c0.4-0.5,0.7-1.1,1-1.8C577.4,106.5,577.5,105.7,577.5,104.8z"/>
			<path class="st4" d="M588.1,99.2v4.1h5.5v3h-5.5v4.2h7.2v3.1H584V96.1h11.3v3.1H588.1z"/>
			<path class="st4" d="M609.3,109.1c0.1,0,0.2,0,0.3,0.1s0.2,0.1,0.3,0.2l1.6,1.7c-0.7,0.9-1.6,1.6-2.6,2.1
				c-1.1,0.5-2.3,0.7-3.8,0.7c-1.3,0-2.5-0.2-3.6-0.7c-1.1-0.5-1.9-1.1-2.7-1.9c-0.7-0.8-1.3-1.7-1.7-2.8s-0.6-2.3-0.6-3.6
				c0-1.3,0.2-2.5,0.6-3.6c0.4-1.1,1-2,1.8-2.8c0.8-0.8,1.7-1.4,2.8-1.9c1.1-0.4,2.3-0.7,3.5-0.7c0.7,0,1.3,0.1,1.9,0.2
				s1.1,0.3,1.6,0.5c0.5,0.2,1,0.5,1.4,0.7c0.4,0.3,0.8,0.6,1.1,0.9l-1.4,1.8c-0.1,0.1-0.2,0.2-0.3,0.3c-0.1,0.1-0.3,0.1-0.5,0.1
				c-0.1,0-0.3,0-0.4-0.1c-0.1-0.1-0.3-0.1-0.4-0.2c-0.1-0.1-0.3-0.2-0.5-0.3c-0.2-0.1-0.4-0.2-0.6-0.3c-0.2-0.1-0.5-0.2-0.8-0.2
				c-0.3-0.1-0.7-0.1-1.1-0.1c-0.7,0-1.3,0.1-1.8,0.4c-0.6,0.2-1,0.6-1.4,1.1c-0.4,0.5-0.7,1.1-0.9,1.8c-0.2,0.7-0.3,1.5-0.3,2.4
				c0,0.9,0.1,1.7,0.4,2.4c0.2,0.7,0.6,1.3,1,1.8s0.9,0.8,1.5,1.1c0.6,0.2,1.2,0.4,1.8,0.4c0.4,0,0.7,0,1-0.1c0.3,0,0.6-0.1,0.9-0.2
				s0.5-0.2,0.7-0.3c0.2-0.1,0.5-0.3,0.7-0.5c0.1-0.1,0.2-0.1,0.3-0.2C609,109.1,609.1,109.1,609.3,109.1z"/>
			<path class="st4" d="M617.3,99.2v4.1h5.5v3h-5.5v4.2h7.2v3.1h-11.3V96.1h11.3v3.1H617.3z"/>
			<path class="st4" d="M633.2,96.1c1.2,0,2.3,0.1,3.2,0.4c0.9,0.3,1.6,0.7,2.2,1.2s1,1.1,1.3,1.8c0.3,0.7,0.4,1.5,0.4,2.3
				c0,0.9-0.1,1.7-0.4,2.4c-0.3,0.7-0.7,1.4-1.3,1.9c-0.6,0.5-1.3,0.9-2.2,1.2c-0.9,0.3-1.9,0.4-3.1,0.4H631v5.9H627V96.1H633.2z
				 M633.2,104.7c1.1,0,1.8-0.3,2.3-0.8c0.5-0.5,0.7-1.2,0.7-2.1c0-0.4-0.1-0.8-0.2-1.1c-0.1-0.3-0.3-0.6-0.5-0.8
				c-0.2-0.2-0.6-0.4-0.9-0.5c-0.4-0.1-0.8-0.2-1.3-0.2H631v5.6H633.2z"/>
			<path class="st4" d="M658.2,110.6v6c0,0.3-0.1,0.6-0.4,0.8c-0.2,0.2-0.5,0.3-0.9,0.3h-2.5v-4.1h-11.8v3c0,0.3-0.1,0.6-0.4,0.8
				c-0.2,0.2-0.5,0.3-0.9,0.3H639v-7.1h2c0.2-0.1,0.4-0.3,0.6-0.6c0.2-0.3,0.4-0.6,0.6-1.1c0.2-0.5,0.4-1.1,0.6-1.8
				c0.2-0.7,0.3-1.6,0.5-2.6c0.1-1,0.3-2.2,0.4-3.6c0.1-1.4,0.2-3,0.2-4.8h11.8v14.5H658.2z M651.5,110.6V99.1h-3.9
				c-0.1,1.5-0.2,2.9-0.4,4.1c-0.2,1.2-0.3,2.3-0.5,3.2c-0.2,0.9-0.4,1.7-0.7,2.4c-0.2,0.7-0.5,1.3-0.8,1.8H651.5z"/>
			<path class="st4" d="M677.6,110.6v6c0,0.3-0.1,0.6-0.4,0.8c-0.2,0.2-0.5,0.3-0.9,0.3h-2.5v-4.1h-13.4V96.1h4.1v14.5h6.6V96.1h4.1
				v14.5H677.6z"/>
			<path class="st4" d="M684,99.2v4.1h5.5v3H684v4.2h7.2v3.1h-11.3V96.1h11.3v3.1H684z"/>
		</g>
	</g>
</g>
<g id="text">
	<g>
		<path class="st0" d="M497.1,316.4c0.3,0,0.6,0.1,0.9,0.2c0.3,0.1,0.6,0.3,0.9,0.6l5.1,5.4c-2.2,2.9-5.1,5.2-8.5,6.6
			s-7.4,2.2-12,2.2c-4.2,0-8-0.7-11.4-2.2c-3.4-1.4-6.2-3.4-8.5-6c-2.3-2.5-4.1-5.6-5.4-9c-1.3-3.5-1.9-7.3-1.9-11.4
			c0-4.2,0.7-8,2-11.5c1.4-3.5,3.3-6.5,5.7-9c2.5-2.5,5.4-4.5,8.8-5.9c3.4-1.4,7.2-2.1,11.3-2.1c2.1,0,4.1,0.2,5.9,0.6
			c1.9,0.4,3.6,0.9,5.2,1.5s3.1,1.4,4.4,2.4c1.4,0.9,2.6,1.9,3.6,3l-4.4,5.9c-0.3,0.4-0.6,0.7-1,1c-0.4,0.3-0.9,0.4-1.6,0.4
			c-0.5,0-0.9-0.1-1.3-0.3s-0.8-0.5-1.3-0.7c-0.5-0.3-1-0.6-1.5-1c-0.6-0.3-1.2-0.7-2-1c-0.8-0.3-1.6-0.5-2.6-0.7s-2.2-0.3-3.5-0.3
			c-2.1,0-4.1,0.4-5.9,1.2c-1.8,0.8-3.3,1.9-4.6,3.5c-1.3,1.5-2.3,3.4-3,5.6c-0.7,2.2-1.1,4.7-1.1,7.6c0,2.9,0.4,5.4,1.2,7.6
			s1.8,4.1,3.2,5.6c1.3,1.5,2.9,2.7,4.7,3.5s3.7,1.2,5.7,1.2c1.2,0,2.2-0.1,3.2-0.2c1-0.1,1.9-0.3,2.7-0.6c0.8-0.3,1.6-0.6,2.4-1.1
			s1.5-1,2.3-1.7c0.3-0.3,0.6-0.5,1-0.6C496.3,316.5,496.7,316.4,497.1,316.4z"/>
		<path class="st0" d="M563.2,302.9c0,4-0.7,7.8-2.1,11.3c-1.4,3.5-3.4,6.5-5.9,9.1c-2.5,2.6-5.6,4.6-9.1,6
			c-3.6,1.5-7.5,2.2-11.9,2.2c-4.3,0-8.3-0.7-11.9-2.2c-3.6-1.5-6.6-3.5-9.2-6c-2.5-2.6-4.5-5.6-5.9-9.1c-1.4-3.5-2.1-7.2-2.1-11.3
			s0.7-7.8,2.1-11.3c1.4-3.5,3.4-6.5,5.9-9c2.5-2.6,5.6-4.6,9.2-6c3.6-1.5,7.5-2.2,11.9-2.2c4.3,0,8.3,0.7,11.9,2.2
			c3.6,1.5,6.6,3.5,9.1,6c2.5,2.6,4.5,5.6,5.9,9C562.5,295.1,563.2,298.9,563.2,302.9z M549.9,302.9c0-2.8-0.4-5.2-1.1-7.5
			c-0.7-2.2-1.7-4.1-3.1-5.6c-1.3-1.5-3-2.7-4.9-3.5c-1.9-0.8-4.2-1.2-6.6-1.2c-2.5,0-4.7,0.4-6.7,1.2c-2,0.8-3.6,2-4.9,3.5
			c-1.3,1.5-2.4,3.4-3.1,5.6c-0.7,2.2-1.1,4.7-1.1,7.5c0,2.8,0.4,5.3,1.1,7.5s1.7,4.1,3.1,5.6c1.3,1.5,3,2.7,4.9,3.5
			c2,0.8,4.2,1.2,6.7,1.2c2.5,0,4.7-0.4,6.6-1.2c1.9-0.8,3.6-2,4.9-3.5s2.4-3.4,3.1-5.6C549.6,308.2,549.9,305.7,549.9,302.9z"/>
		<path class="st0" d="M619.6,275v55.8h-13v-23.6h-22.7v23.6h-13V275h13v23.3h22.7V275H619.6z"/>
		<path class="st0" d="M672.6,330.8h-13v-22.4h-4c-1.2,0-2.3,0.3-3.2,0.8c-1,0.5-1.9,1.5-2.7,3l-7.8,14.2c-0.8,1.3-1.9,2.4-3.2,3.2
			c-1.3,0.8-2.9,1.2-4.8,1.2h-9.8l11.4-19c0.8-1.4,1.7-2.5,2.8-3.4c1-0.9,2.2-1.7,3.6-2.3c-1.9-0.6-3.6-1.4-5.1-2.3
			c-1.4-1-2.6-2.1-3.5-3.3s-1.6-2.6-2.1-4.1c-0.4-1.5-0.7-3-0.7-4.7c0-2.4,0.5-4.6,1.4-6.7c1-2,2.3-3.8,4.2-5.3
			c1.8-1.5,4-2.7,6.7-3.5c2.6-0.8,5.6-1.3,9-1.3h20.8V330.8z M659.7,298.7v-14h-7.9c-1.7,0-3.1,0.2-4.2,0.6
			c-1.1,0.4-1.9,0.9-2.6,1.6c-0.6,0.7-1.1,1.4-1.3,2.2c-0.2,0.8-0.3,1.7-0.3,2.6c0,1,0.1,2,0.3,2.8c0.2,0.9,0.7,1.6,1.3,2.2
			c0.6,0.6,1.5,1.1,2.6,1.5c1.1,0.3,2.5,0.5,4.2,0.5H659.7z"/>
		<path class="st0" d="M494.6,376.6h-22.2v46.2h-13V367h35.2V376.6z"/>
		<path class="st0" d="M554.4,394.9c0,4-0.7,7.8-2.1,11.3c-1.4,3.5-3.4,6.5-5.9,9.1c-2.5,2.6-5.6,4.6-9.1,6
			c-3.6,1.5-7.5,2.2-11.9,2.2c-4.3,0-8.3-0.7-11.9-2.2c-3.6-1.5-6.6-3.5-9.2-6c-2.5-2.6-4.5-5.6-5.9-9.1c-1.4-3.5-2.1-7.2-2.1-11.3
			s0.7-7.8,2.1-11.3c1.4-3.5,3.4-6.5,5.9-9s5.6-4.6,9.2-6c3.6-1.5,7.5-2.2,11.9-2.2c4.3,0,8.3,0.7,11.9,2.2c3.6,1.5,6.6,3.5,9.1,6
			c2.5,2.6,4.5,5.6,5.9,9C553.7,387.1,554.4,390.9,554.4,394.9z M541.1,394.9c0-2.8-0.4-5.2-1.1-7.5c-0.7-2.2-1.7-4.1-3.1-5.6
			c-1.3-1.5-3-2.7-4.9-3.5c-1.9-0.8-4.2-1.2-6.6-1.2c-2.5,0-4.7,0.4-6.7,1.2s-3.6,2-4.9,3.5c-1.3,1.5-2.4,3.4-3.1,5.6
			c-0.7,2.2-1.1,4.7-1.1,7.5c0,2.8,0.4,5.3,1.1,7.5c0.7,2.2,1.7,4.1,3.1,5.6s3,2.7,4.9,3.5c2,0.8,4.2,1.2,6.7,1.2
			c2.5,0,4.7-0.4,6.6-1.2c1.9-0.8,3.6-2,4.9-3.5c1.3-1.5,2.4-3.4,3.1-5.6C540.7,400.2,541.1,397.7,541.1,394.9z"/>
		<path class="st0" d="M616.7,413.2v19.1c0,1.1-0.4,1.9-1.1,2.6c-0.8,0.6-1.7,1-2.9,1h-7.8v-13h-37.5v9.5c0,1.1-0.4,1.9-1.1,2.6
			c-0.8,0.6-1.7,1-2.9,1h-7.8v-22.7h6.3c0.6-0.4,1.3-1,2-1.8s1.3-2,1.9-3.5c0.6-1.5,1.2-3.4,1.8-5.6c0.6-2.3,1.1-5.1,1.5-8.4
			c0.5-3.3,0.8-7.2,1.2-11.6c0.3-4.4,0.6-9.5,0.7-15.3h37.6v46.2H616.7z M595.4,413.2v-36.6h-12.3c-0.3,4.8-0.7,9.2-1.2,13
			c-0.5,3.8-1,7.2-1.7,10.2c-0.6,3-1.3,5.6-2.1,7.8s-1.6,4.1-2.5,5.7H595.4z"/>
		<path class="st0" d="M674.3,422.8h-10c-1.1,0-2-0.3-2.7-0.8c-0.7-0.5-1.2-1.2-1.6-2l-3.3-9.7h-21.2l-3.3,9.7
			c-0.3,0.7-0.8,1.4-1.5,1.9c-0.7,0.6-1.6,0.9-2.7,0.9h-10.1l21.6-55.8h13.3L674.3,422.8z M653.7,401.5l-5.2-15.3
			c-0.4-1-0.8-2.1-1.2-3.4c-0.4-1.3-0.9-2.7-1.3-4.3c-0.4,1.6-0.8,3-1.2,4.3c-0.4,1.3-0.8,2.5-1.2,3.4l-5.1,15.2H653.7z"/>
	</g>
</g>
<g id="EMOJI">
	<g>
		<path class="st68" d="M231.8,198.5c85.7,0,155.2,69.5,155.2,155.1s-69.5,155.2-155.2,155.2c-85.7,0-155.1-69.5-155.1-155.2
			S146.1,198.5,231.8,198.5L231.8,198.5L231.8,198.5z"/>
		<path class="st69" d="M231.8,374.8c19.3,0,35,15.7,35,35c0,19.3-15.7,35-35,35c-19.3,0-35-15.7-35-35
			C196.8,390.5,212.5,374.8,231.8,374.8L231.8,374.8L231.8,374.8z"/>
		<path class="st69" d="M294,327.3c8.2-0.5,16.3-1.5,24.5-3.2c9.4-1.9,10.5,5.1,1.3,12.2c-6.8,5.2-15.5,8.7-24.7,9.3
			c-9.2,0.5-18.2-2-25.6-6.3c-10-5.9-9.7-13-0.1-12.2C277.6,327.7,285.9,327.8,294,327.3L294,327.3L294,327.3z"/>
		<path class="st69" d="M169.6,327.3c-8.2-0.5-16.3-1.5-24.5-3.2c-9.4-1.9-10.5,5.1-1.3,12.2c6.8,5.2,15.5,8.7,24.7,9.3
			c9.2,0.5,18.2-2,25.6-6.3c10-5.9,9.7-13,0.1-12.2C186,327.7,177.8,327.8,169.6,327.3L169.6,327.3L169.6,327.3z"/>
		<polygon class="st69" points="283.5,277.1 283.5,267.5 258.6,267.5 282.6,235.2 282.6,227.5 245.7,227.5 245.7,237.1 268.6,237.1 
			244.6,269.5 244.6,277.1 283.5,277.1 		"/>
		<polygon class="st69" points="341.4,259.7 341.4,247.5 309.8,247.5 340.4,206.4 340.4,196.6 293.4,196.6 293.4,208.8 322.5,208.8 
			292.1,250 292.1,259.7 341.4,259.7 		"/>
		<polygon class="st69" points="399,295.4 399,282.3 365,282.3 397.8,238 397.8,227.5 347.3,227.5 347.3,240.6 378.6,240.6 
			345.9,284.9 345.9,295.4 399,295.4 		"/>
	</g>
</g>
<g id="nimed" class="st77">
	<g class="st78">
		<path class="st0" d="M462.5,207.9v7.8h9.9v4h-9.9v8h12.5v4.2h-17.8v-28.2h17.8v4.2H462.5z"/>
		<path class="st0" d="M484.8,232.2c-1.7,0-3.1-0.5-4-1.5c-0.9-1-1.4-2.3-1.4-4.1v-11.2h-2c-0.3,0-0.5-0.1-0.7-0.3
			c-0.2-0.2-0.3-0.4-0.3-0.8v-1.9l3.2-0.5l1-5.5c0.1-0.3,0.2-0.5,0.4-0.6c0.2-0.1,0.4-0.2,0.7-0.2h2.5v6.3h8.3l1-5.5
			c0.1-0.3,0.2-0.5,0.4-0.6s0.4-0.2,0.7-0.2h2.5v6.3h5.3v3.4h-5.3v10.8c0,0.6,0.2,1.1,0.5,1.5c0.3,0.3,0.7,0.5,1.3,0.5
			c0.3,0,0.5,0,0.7-0.1c0.2-0.1,0.4-0.1,0.5-0.2c0.2-0.1,0.3-0.2,0.4-0.2c0.1-0.1,0.2-0.1,0.3-0.1c0.1,0,0.3,0,0.4,0.1
			c0.1,0.1,0.2,0.2,0.3,0.3l1.4,2.3c-0.7,0.6-1.5,1-2.4,1.3c-0.9,0.3-1.9,0.4-2.8,0.4c-1.7,0-3.1-0.5-4-1.5c-0.9-1-1.4-2.3-1.4-4.1
			v-11.2h-8.1v10.8c0,0.6,0.2,1.1,0.5,1.5c0.3,0.3,0.7,0.5,1.3,0.5c0.3,0,0.5,0,0.8-0.1c0.2-0.1,0.4-0.1,0.5-0.2
			c0.1-0.1,0.3-0.2,0.4-0.2c0.1-0.1,0.2-0.1,0.4-0.1c0.1,0,0.3,0,0.4,0.1c0.1,0.1,0.2,0.2,0.3,0.3l1.4,2.3c-0.7,0.6-1.5,1-2.4,1.3
			C486.7,232.1,485.8,232.2,484.8,232.2z"/>
		<path class="st0" d="M509.1,222.5c0.1,1,0.3,1.9,0.5,2.7c0.3,0.7,0.7,1.4,1.1,1.9c0.5,0.5,1,0.8,1.7,1.1c0.6,0.2,1.4,0.4,2.1,0.4
			s1.5-0.1,2-0.3c0.6-0.2,1.1-0.4,1.5-0.6s0.8-0.4,1.1-0.6c0.3-0.2,0.6-0.3,0.9-0.3c0.4,0,0.7,0.2,0.9,0.4l1.4,1.8
			c-0.5,0.6-1.1,1.1-1.8,1.6s-1.4,0.8-2.1,1c-0.7,0.3-1.5,0.4-2.2,0.5s-1.5,0.2-2.2,0.2c-1.4,0-2.7-0.2-3.9-0.7s-2.2-1.1-3.1-2
			c-0.9-0.9-1.6-2-2.1-3.4c-0.5-1.3-0.8-2.9-0.8-4.6c0-1.4,0.2-2.6,0.7-3.8c0.4-1.2,1.1-2.2,1.9-3.1s1.8-1.6,3-2.1
			c1.2-0.5,2.5-0.8,4-0.8c1.3,0,2.4,0.2,3.5,0.6c1.1,0.4,2,1,2.7,1.8c0.8,0.8,1.4,1.7,1.8,2.8c0.4,1.1,0.7,2.4,0.7,3.8
			c0,0.7-0.1,1.2-0.2,1.5c-0.2,0.3-0.5,0.4-0.9,0.4H509.1z M518.3,219.6c0-0.6-0.1-1.2-0.3-1.8c-0.2-0.6-0.4-1-0.8-1.5
			c-0.3-0.4-0.8-0.7-1.3-1s-1.2-0.4-1.9-0.4c-1.4,0-2.5,0.4-3.3,1.2c-0.8,0.8-1.3,1.9-1.5,3.4H518.3z"/>
		<path class="st0" d="M543.7,211.9l-7.9,20h-4.4l-7.9-20h4c0.4,0,0.7,0.1,0.9,0.3s0.4,0.4,0.5,0.6l3.9,10.7
			c0.2,0.6,0.4,1.2,0.5,1.8c0.2,0.6,0.3,1.2,0.4,1.8c0.1-0.6,0.3-1.2,0.4-1.8s0.3-1.2,0.6-1.8l3.9-10.7c0.1-0.3,0.3-0.5,0.5-0.6
			s0.5-0.3,0.8-0.3H543.7z"/>
		<path class="st0" d="M554.5,211.6c1.5,0,2.8,0.2,4,0.7c1.2,0.5,2.3,1.2,3.1,2c0.9,0.9,1.5,2,2,3.2c0.5,1.3,0.7,2.7,0.7,4.3
			c0,1.6-0.2,3-0.7,4.3c-0.5,1.3-1.1,2.4-2,3.3c-0.9,0.9-1.9,1.6-3.1,2.1c-1.2,0.5-2.6,0.7-4,0.7c-1.5,0-2.9-0.2-4.1-0.7
			s-2.3-1.2-3.1-2.1c-0.9-0.9-1.5-2-2-3.3c-0.5-1.3-0.7-2.7-0.7-4.3c0-1.6,0.2-3,0.7-4.3c0.5-1.3,1.1-2.3,2-3.2
			c0.9-0.9,1.9-1.6,3.1-2C551.6,211.8,553,211.6,554.5,211.6z M556.6,205.4c0.4,0,0.7-0.1,0.9-0.3s0.3-0.6,0.3-1.2h2.9
			c0,0.7-0.1,1.4-0.3,2s-0.5,1.1-0.8,1.5c-0.3,0.4-0.8,0.7-1.3,1c-0.5,0.2-1,0.3-1.6,0.3c-0.5,0-0.9-0.1-1.3-0.3
			c-0.4-0.2-0.8-0.4-1.1-0.5c-0.3-0.2-0.7-0.4-1-0.5s-0.6-0.3-0.8-0.3c-0.4,0-0.7,0.1-0.9,0.3c-0.2,0.2-0.3,0.6-0.3,1.2h-3
			c0-0.7,0.1-1.4,0.3-2s0.5-1.1,0.8-1.5c0.4-0.4,0.8-0.8,1.3-1c0.5-0.2,1-0.3,1.6-0.3c0.5,0,0.9,0.1,1.3,0.3
			c0.4,0.2,0.8,0.4,1.1,0.5c0.3,0.2,0.7,0.4,1,0.5C556,205.3,556.3,205.4,556.6,205.4z M554.5,228.5c1.7,0,2.9-0.6,3.7-1.7
			s1.2-2.8,1.2-4.9c0-2.2-0.4-3.8-1.2-4.9c-0.8-1.1-2-1.7-3.7-1.7c-1.7,0-2.9,0.6-3.8,1.7s-1.2,2.8-1.2,4.9c0,2.1,0.4,3.8,1.2,4.9
			S552.8,228.5,554.5,228.5z"/>
		<path class="st0" d="M574.3,232.2c-1.7,0-3.1-0.5-4-1.5c-0.9-1-1.4-2.3-1.4-4.1v-11.2h-2c-0.3,0-0.5-0.1-0.7-0.3
			c-0.2-0.2-0.3-0.4-0.3-0.8v-1.9l3.2-0.5l1-5.5c0.1-0.3,0.2-0.5,0.4-0.6c0.2-0.1,0.4-0.2,0.7-0.2h2.5v6.3h8.3l1-5.5
			c0.1-0.3,0.2-0.5,0.4-0.6s0.4-0.2,0.7-0.2h2.5v6.3h5.3v3.4h-5.3v10.8c0,0.6,0.2,1.1,0.5,1.5c0.3,0.3,0.7,0.5,1.3,0.5
			c0.3,0,0.5,0,0.7-0.1c0.2-0.1,0.4-0.1,0.5-0.2c0.2-0.1,0.3-0.2,0.4-0.2c0.1-0.1,0.2-0.1,0.3-0.1c0.1,0,0.3,0,0.4,0.1
			c0.1,0.1,0.2,0.2,0.3,0.3l1.4,2.3c-0.7,0.6-1.5,1-2.4,1.3c-0.9,0.3-1.9,0.4-2.8,0.4c-1.7,0-3.1-0.5-4-1.5c-0.9-1-1.4-2.3-1.4-4.1
			v-11.2h-8.1v10.8c0,0.6,0.2,1.1,0.5,1.5c0.3,0.3,0.7,0.5,1.3,0.5c0.3,0,0.5,0,0.8-0.1c0.2-0.1,0.4-0.1,0.5-0.2
			c0.1-0.1,0.3-0.2,0.4-0.2c0.1-0.1,0.2-0.1,0.4-0.1c0.1,0,0.3,0,0.4,0.1c0.1,0.1,0.2,0.2,0.3,0.3l1.4,2.3c-0.7,0.6-1.5,1-2.4,1.3
			C576.2,232.1,575.3,232.2,574.3,232.2z"/>
		<path class="st0" d="M598.6,222.5c0.1,1,0.3,1.9,0.5,2.7c0.3,0.7,0.7,1.4,1.1,1.9c0.5,0.5,1,0.8,1.7,1.1c0.6,0.2,1.4,0.4,2.1,0.4
			s1.5-0.1,2-0.3c0.6-0.2,1.1-0.4,1.5-0.6s0.8-0.4,1.1-0.6c0.3-0.2,0.6-0.3,0.9-0.3c0.4,0,0.7,0.2,0.9,0.4l1.4,1.8
			c-0.5,0.6-1.1,1.1-1.8,1.6s-1.4,0.8-2.1,1c-0.7,0.3-1.5,0.4-2.2,0.5s-1.5,0.2-2.2,0.2c-1.4,0-2.7-0.2-3.9-0.7s-2.2-1.1-3.1-2
			c-0.9-0.9-1.6-2-2.1-3.4c-0.5-1.3-0.8-2.9-0.8-4.6c0-1.4,0.2-2.6,0.7-3.8c0.4-1.2,1.1-2.2,1.9-3.1s1.8-1.6,3-2.1
			c1.2-0.5,2.5-0.8,4-0.8c1.3,0,2.4,0.2,3.5,0.6c1.1,0.4,2,1,2.7,1.8c0.8,0.8,1.4,1.7,1.8,2.8c0.4,1.1,0.7,2.4,0.7,3.8
			c0,0.7-0.1,1.2-0.2,1.5c-0.2,0.3-0.5,0.4-0.9,0.4H598.6z M607.7,219.6c0-0.6-0.1-1.2-0.3-1.8c-0.2-0.6-0.4-1-0.8-1.5
			c-0.3-0.4-0.8-0.7-1.3-1s-1.2-0.4-1.9-0.4c-1.4,0-2.5,0.4-3.3,1.2c-0.8,0.8-1.3,1.9-1.5,3.4H607.7z"/>
		<path class="st0" d="M629.6,214.4c0.4-0.4,0.8-0.8,1.3-1.1c0.4-0.3,0.9-0.6,1.4-0.9c0.5-0.2,1-0.4,1.6-0.6
			c0.6-0.1,1.2-0.2,1.9-0.2c1.1,0,2.1,0.2,2.9,0.6s1.5,0.9,2.1,1.6c0.6,0.7,1,1.5,1.3,2.4c0.3,0.9,0.4,2,0.4,3.1v12.7h-4.8v-12.7
			c0-1.2-0.3-2.2-0.8-2.8s-1.4-1-2.6-1c-0.8,0-1.6,0.2-2.3,0.6c-0.7,0.4-1.4,0.9-2.1,1.5v14.5h-4.8v-20h2.9c0.6,0,1,0.3,1.2,0.9
			L629.6,214.4z"/>
		<path class="st0" d="M652.8,206.1c0,0.4-0.1,0.8-0.3,1.2c-0.2,0.4-0.4,0.7-0.7,1c-0.3,0.3-0.6,0.5-1,0.7s-0.8,0.2-1.2,0.2
			c-0.4,0-0.8-0.1-1.2-0.2c-0.4-0.2-0.7-0.4-1-0.7c-0.3-0.3-0.5-0.6-0.7-1c-0.2-0.4-0.2-0.8-0.2-1.2c0-0.4,0.1-0.8,0.2-1.2
			c0.2-0.4,0.4-0.7,0.7-1s0.6-0.5,1-0.7c0.4-0.2,0.8-0.2,1.2-0.2c0.4,0,0.8,0.1,1.2,0.2c0.4,0.2,0.7,0.4,1,0.7s0.5,0.6,0.7,1
			C652.7,205.3,652.8,205.7,652.8,206.1z M652.1,211.9v20h-4.8v-20H652.1z"/>
		<path class="st0" d="M657,231.9v-20h2.9c0.6,0,1,0.3,1.2,0.9l0.3,1.5c0.4-0.4,0.7-0.7,1.1-1.1c0.4-0.3,0.8-0.6,1.2-0.8
			c0.4-0.2,0.9-0.4,1.4-0.6s1-0.2,1.6-0.2c1.3,0,2.3,0.3,3.1,1s1.4,1.6,1.8,2.7c0.3-0.7,0.7-1.2,1.2-1.7c0.5-0.5,1-0.9,1.5-1.2
			s1.2-0.5,1.8-0.7s1.3-0.2,1.9-0.2c1.1,0,2.1,0.2,2.9,0.5c0.9,0.3,1.6,0.8,2.2,1.5c0.6,0.6,1,1.4,1.3,2.4c0.3,0.9,0.5,2,0.5,3.2
			v12.7h-4.8v-12.7c0-1.3-0.3-2.2-0.8-2.9s-1.4-1-2.5-1c-0.5,0-1,0.1-1.4,0.3c-0.4,0.2-0.8,0.4-1.1,0.7s-0.6,0.7-0.8,1.2
			s-0.3,1-0.3,1.7v12.7h-4.8v-12.7c0-1.3-0.3-2.3-0.8-2.9c-0.5-0.6-1.3-0.9-2.4-0.9c-0.7,0-1.4,0.2-2,0.5c-0.6,0.3-1.2,0.8-1.7,1.4
			v14.6H657z"/>
		<path class="st0" d="M695.3,206.1c0,0.4-0.1,0.8-0.3,1.2s-0.4,0.7-0.7,1c-0.3,0.3-0.6,0.5-1,0.7c-0.4,0.2-0.8,0.2-1.2,0.2
			c-0.4,0-0.8-0.1-1.2-0.2s-0.7-0.4-1-0.7c-0.3-0.3-0.5-0.6-0.7-1s-0.2-0.8-0.2-1.2c0-0.4,0.1-0.8,0.2-1.2c0.2-0.4,0.4-0.7,0.7-1
			c0.3-0.3,0.6-0.5,1-0.7c0.4-0.2,0.8-0.2,1.2-0.2c0.4,0,0.8,0.1,1.2,0.2c0.4,0.2,0.7,0.4,1,0.7s0.5,0.6,0.7,1
			C695.2,205.3,695.3,205.7,695.3,206.1z M694.6,211.9v20h-4.8v-20H694.6z"/>
	</g>
	<g class="st78">
		<path class="st0" d="M480.7,494.1l0,4.3h-22.1v-35.6h22.1v4.3h-16.8v11.3h13.5v4.1h-13.5v11.6H480.7z"/>
		<path class="st0" d="M505.7,494.8c-0.6,0.7-1.3,1.3-2.1,1.8c-0.8,0.5-1.6,0.9-2.5,1.2c-0.9,0.3-1.8,0.5-2.7,0.7
			c-0.9,0.1-1.9,0.2-2.8,0.2c-1.7,0-3.3-0.3-4.8-0.9c-1.5-0.6-2.8-1.4-3.8-2.6c-1.1-1.1-1.9-2.5-2.5-4.2c-0.6-1.7-0.9-3.6-0.9-5.8
			c0-1.8,0.3-3.4,0.8-4.9c0.5-1.5,1.3-2.8,2.3-4s2.3-2,3.7-2.7c1.5-0.6,3.1-1,5-1c1.5,0,3,0.3,4.3,0.8c1.3,0.5,2.4,1.2,3.4,2.2
			s1.7,2.1,2.2,3.5s0.8,3,0.8,4.8c0,0.7-0.1,1.2-0.2,1.5c-0.2,0.3-0.5,0.4-0.9,0.4h-16.5c0.1,1.5,0.3,2.8,0.6,3.9
			c0.4,1.1,0.9,2,1.6,2.8c0.7,0.7,1.5,1.3,2.4,1.7c0.9,0.4,2,0.5,3.1,0.5c1.1,0,2-0.1,2.8-0.4c0.8-0.2,1.5-0.5,2-0.8
			c0.6-0.3,1-0.6,1.4-0.8c0.4-0.2,0.7-0.4,1-0.4c0.4,0,0.7,0.1,0.9,0.4L505.7,494.8z M501.7,483c0-1-0.1-1.8-0.4-2.7
			c-0.3-0.8-0.7-1.5-1.2-2.1s-1.2-1.1-1.9-1.4c-0.8-0.3-1.6-0.5-2.6-0.5c-2,0-3.6,0.6-4.8,1.8s-1.9,2.8-2.2,4.9H501.7z"/>
		<path class="st0" d="M526.2,477.6c-0.1,0.2-0.3,0.4-0.4,0.5s-0.3,0.1-0.6,0.1c-0.3,0-0.6-0.1-0.9-0.3c-0.3-0.2-0.7-0.4-1.2-0.6
			s-1-0.4-1.6-0.6c-0.6-0.2-1.3-0.3-2.2-0.3c-0.7,0-1.3,0.1-1.9,0.3c-0.6,0.2-1.1,0.4-1.5,0.7c-0.4,0.3-0.7,0.7-0.9,1.1
			s-0.3,0.9-0.3,1.4c0,0.6,0.2,1.2,0.6,1.6c0.4,0.4,0.9,0.8,1.5,1.1c0.6,0.3,1.3,0.6,2.1,0.8c0.8,0.2,1.6,0.5,2.4,0.8
			c0.8,0.3,1.6,0.6,2.4,0.9c0.8,0.3,1.5,0.8,2.1,1.3c0.6,0.5,1.1,1.1,1.5,1.8c0.4,0.7,0.6,1.6,0.6,2.6c0,1.2-0.2,2.3-0.6,3.3
			s-1,1.9-1.9,2.6c-0.8,0.7-1.8,1.3-3,1.7c-1.2,0.4-2.6,0.6-4.1,0.6c-1.7,0-3.3-0.3-4.8-0.9s-2.7-1.3-3.7-2.2l1.1-1.9
			c0.1-0.2,0.3-0.4,0.5-0.5s0.5-0.2,0.8-0.2c0.3,0,0.6,0.1,1,0.3c0.3,0.2,0.7,0.5,1.2,0.8c0.5,0.3,1,0.5,1.7,0.7
			c0.7,0.2,1.5,0.3,2.5,0.3c0.8,0,1.5-0.1,2.2-0.3c0.6-0.2,1.1-0.5,1.5-0.8s0.7-0.8,0.9-1.2c0.2-0.5,0.3-1,0.3-1.5
			c0-0.7-0.2-1.2-0.6-1.7c-0.4-0.4-0.9-0.8-1.5-1.1s-1.3-0.6-2.1-0.8c-0.8-0.2-1.6-0.5-2.4-0.7s-1.6-0.6-2.4-0.9
			c-0.8-0.3-1.5-0.8-2.1-1.3c-0.6-0.5-1.1-1.2-1.5-1.9c-0.4-0.8-0.6-1.7-0.6-2.8c0-1,0.2-1.9,0.6-2.8c0.4-0.9,1-1.7,1.8-2.4
			s1.7-1.2,2.9-1.6c1.1-0.4,2.4-0.6,3.9-0.6c1.7,0,3.2,0.3,4.5,0.8c1.3,0.5,2.5,1.3,3.5,2.2L526.2,477.6z"/>
		<path class="st0" d="M532.5,481.5h12.4v4.1h-12.4V481.5z"/>
		<path class="st0" d="M568.5,477c0.5-0.6,1.1-1.2,1.7-1.7s1.3-1,1.9-1.3c0.7-0.4,1.4-0.7,2.2-0.9c0.8-0.2,1.6-0.3,2.5-0.3
			c1.4,0,2.7,0.3,3.9,0.8c1.2,0.6,2.2,1.4,3,2.5c0.8,1.1,1.5,2.4,1.9,4c0.5,1.6,0.7,3.5,0.7,5.5c0,1.9-0.3,3.6-0.8,5.2
			c-0.5,1.6-1.2,3-2.2,4.2s-2.1,2.1-3.4,2.8c-1.3,0.7-2.9,1-4.6,1c-1.5,0-2.8-0.2-3.9-0.7c-1.1-0.5-2-1.2-2.9-2.1v10.9h-4.8v-33.7
			h2.9c0.7,0,1.1,0.3,1.3,1L568.5,477z M568.7,492.2c0.8,1,1.7,1.8,2.6,2.2c0.9,0.4,1.9,0.6,3.1,0.6c2.2,0,3.9-0.8,5.2-2.4
			c1.2-1.6,1.8-3.9,1.8-7c0-1.6-0.1-3-0.4-4.1c-0.3-1.1-0.7-2.1-1.2-2.8s-1.2-1.2-1.9-1.6c-0.8-0.3-1.6-0.5-2.6-0.5
			c-1.4,0-2.6,0.3-3.7,0.9c-1,0.6-2,1.5-2.9,2.7V492.2z"/>
		<path class="st0" d="M612.5,494.8c-0.6,0.7-1.3,1.3-2.1,1.8c-0.8,0.5-1.6,0.9-2.5,1.2c-0.9,0.3-1.8,0.5-2.7,0.7
			c-0.9,0.1-1.9,0.2-2.8,0.2c-1.7,0-3.3-0.3-4.8-0.9c-1.5-0.6-2.8-1.4-3.8-2.6c-1.1-1.1-1.9-2.5-2.5-4.2c-0.6-1.7-0.9-3.6-0.9-5.8
			c0-1.8,0.3-3.4,0.8-4.9c0.5-1.5,1.3-2.8,2.3-4s2.3-2,3.7-2.7c1.5-0.6,3.1-1,5-1c1.5,0,3,0.3,4.3,0.8c1.3,0.5,2.4,1.2,3.4,2.2
			c0.9,1,1.7,2.1,2.2,3.5c0.5,1.4,0.8,3,0.8,4.8c0,0.7-0.1,1.2-0.2,1.5c-0.2,0.3-0.5,0.4-0.9,0.4h-16.5c0,1.5,0.3,2.8,0.6,3.9
			s0.9,2,1.6,2.8c0.7,0.7,1.5,1.3,2.4,1.7s2,0.5,3.1,0.5c1.1,0,2-0.1,2.8-0.4c0.8-0.2,1.5-0.5,2-0.8s1.1-0.6,1.4-0.8s0.7-0.4,1-0.4
			c0.4,0,0.7,0.1,0.9,0.4L612.5,494.8z M608.5,483c0-1-0.1-1.8-0.4-2.7c-0.3-0.8-0.7-1.5-1.2-2.1s-1.2-1.1-1.9-1.4
			c-0.8-0.3-1.6-0.5-2.6-0.5c-2,0-3.6,0.6-4.8,1.8c-1.2,1.2-1.9,2.8-2.2,4.9H608.5z"/>
		<path class="st0" d="M622.6,478.1c0.8-1.7,1.8-3,2.9-3.9c1.1-0.9,2.5-1.4,4.1-1.4c0.5,0,1.1,0.1,1.6,0.2s0.9,0.3,1.3,0.6l-0.3,3.6
			c-0.1,0.4-0.4,0.7-0.8,0.7c-0.2,0-0.6,0-1-0.1c-0.5-0.1-1-0.1-1.5-0.1c-0.8,0-1.5,0.1-2.1,0.3c-0.6,0.2-1.1,0.6-1.6,1
			c-0.5,0.4-0.9,1-1.3,1.6c-0.4,0.6-0.7,1.4-1,2.2v15.8h-4.8v-25.2h2.8c0.5,0,0.9,0.1,1.1,0.3c0.2,0.2,0.3,0.5,0.4,1L622.6,478.1z"
			/>
		<path class="st0" d="M656,494.8c-0.6,0.7-1.3,1.3-2.1,1.8c-0.8,0.5-1.6,0.9-2.5,1.2c-0.9,0.3-1.8,0.5-2.7,0.7
			c-0.9,0.1-1.9,0.2-2.8,0.2c-1.7,0-3.3-0.3-4.8-0.9c-1.5-0.6-2.8-1.4-3.8-2.6c-1.1-1.1-1.9-2.5-2.5-4.2c-0.6-1.7-0.9-3.6-0.9-5.8
			c0-1.8,0.3-3.4,0.8-4.9c0.5-1.5,1.3-2.8,2.3-4s2.3-2,3.7-2.7c1.5-0.6,3.1-1,5-1c1.5,0,3,0.3,4.3,0.8c1.3,0.5,2.4,1.2,3.4,2.2
			c0.9,1,1.7,2.1,2.2,3.5c0.5,1.4,0.8,3,0.8,4.8c0,0.7-0.1,1.2-0.2,1.5c-0.2,0.3-0.5,0.4-0.9,0.4h-16.5c0,1.5,0.3,2.8,0.6,3.9
			s0.9,2,1.6,2.8c0.7,0.7,1.5,1.3,2.4,1.7s2,0.5,3.1,0.5c1.1,0,2-0.1,2.8-0.4c0.8-0.2,1.5-0.5,2-0.8s1.1-0.6,1.4-0.8s0.7-0.4,1-0.4
			c0.4,0,0.7,0.1,0.9,0.4L656,494.8z M652,483c0-1-0.1-1.8-0.4-2.7c-0.3-0.8-0.7-1.5-1.2-2.1s-1.2-1.1-1.9-1.4
			c-0.8-0.3-1.6-0.5-2.6-0.5c-2,0-3.6,0.6-4.8,1.8c-1.2,1.2-1.9,2.8-2.2,4.9H652z"/>
		<path class="st0" d="M666.4,461.8v21.4h1.1c0.3,0,0.6,0,0.9-0.1c0.2-0.1,0.5-0.3,0.7-0.6l7.5-8.3c0.2-0.3,0.5-0.5,0.8-0.7
			s0.6-0.2,1.1-0.2h4.4l-8.9,9.8c-0.5,0.6-1,1.1-1.5,1.4c0.3,0.2,0.6,0.5,0.8,0.7s0.5,0.6,0.7,0.9l9.5,12.4h-4.3
			c-0.4,0-0.7-0.1-1-0.2c-0.3-0.1-0.6-0.4-0.8-0.7l-7.8-10.1c-0.2-0.4-0.5-0.6-0.7-0.7s-0.6-0.2-1.1-0.2h-1.3v11.9h-4.8v-36.6H666.4
			z"/>
		<path class="st0" d="M696.5,472.8c1.9,0,3.5,0.3,5,0.9c1.5,0.6,2.8,1.5,3.8,2.6c1.1,1.1,1.9,2.5,2.4,4.1s0.8,3.4,0.8,5.4
			s-0.3,3.8-0.8,5.4c-0.6,1.6-1.4,3-2.4,4.1c-1.1,1.1-2.3,2-3.8,2.6c-1.5,0.6-3.2,0.9-5,0.9c-1.9,0-3.6-0.3-5.1-0.9
			c-1.5-0.6-2.8-1.5-3.8-2.6c-1.1-1.1-1.9-2.5-2.4-4.1c-0.6-1.6-0.9-3.4-0.9-5.4s0.3-3.8,0.9-5.4c0.6-1.6,1.4-3,2.4-4.1
			c1.1-1.1,2.3-2,3.8-2.6C692.9,473.1,694.6,472.8,696.5,472.8z M696.5,495c2.4,0,4.2-0.8,5.3-2.4c1.2-1.6,1.8-3.9,1.8-6.8
			s-0.6-5.2-1.8-6.8s-3-2.4-5.3-2.4c-2.4,0-4.2,0.8-5.4,2.4c-1.2,1.6-1.8,3.9-1.8,6.8s0.6,5.2,1.8,6.8
			C692.3,494.2,694.1,495,696.5,495z"/>
		<path class="st0" d="M718.5,476.7c0.5-0.6,1.1-1.1,1.7-1.6c0.6-0.5,1.2-0.9,1.9-1.2c0.7-0.3,1.4-0.6,2.2-0.8
			c0.8-0.2,1.6-0.3,2.5-0.3c1.4,0,2.6,0.2,3.7,0.7c1,0.5,1.9,1.1,2.6,1.9c0.7,0.8,1.2,1.8,1.6,3s0.5,2.5,0.5,3.9v16.1h-4.9v-16.1
			c0-1.8-0.4-3.2-1.2-4.2c-0.8-1-2.1-1.5-3.8-1.5c-1.2,0-2.4,0.3-3.5,0.9c-1.1,0.6-2.1,1.4-3,2.4v18.5H714v-25.2h2.9
			c0.7,0,1.1,0.3,1.3,1L718.5,476.7z"/>
		<path class="st0" d="M746.3,476.7c0.5-0.6,1.1-1.1,1.7-1.6c0.6-0.5,1.2-0.9,1.9-1.2c0.7-0.3,1.4-0.6,2.2-0.8
			c0.8-0.2,1.6-0.3,2.5-0.3c1.4,0,2.6,0.2,3.7,0.7c1,0.5,1.9,1.1,2.6,1.9c0.7,0.8,1.2,1.8,1.6,3s0.5,2.5,0.5,3.9v16.1h-4.9v-16.1
			c0-1.8-0.4-3.2-1.2-4.2c-0.8-1-2.1-1.5-3.8-1.5c-1.2,0-2.4,0.3-3.5,0.9c-1.1,0.6-2.1,1.4-3,2.4v18.5h-4.8v-25.2h2.9
			c0.7,0,1.1,0.3,1.3,1L746.3,476.7z"/>
		<path class="st0" d="M768.9,476.7c1.4-1.3,2.9-2.3,4.6-3s3.5-1,5.4-1c1.4,0,2.7,0.2,3.8,0.7c1.1,0.5,2,1.1,2.8,2
			c0.8,0.8,1.3,1.9,1.7,3s0.6,2.5,0.6,3.9v16.1h-2.2c-0.5,0-0.8-0.1-1.1-0.2s-0.4-0.5-0.6-0.9l-0.5-2.2c-0.6,0.6-1.3,1.1-1.9,1.6
			c-0.6,0.5-1.3,0.8-2,1.2c-0.7,0.3-1.4,0.6-2.2,0.7c-0.8,0.2-1.6,0.2-2.6,0.2c-1,0-1.9-0.1-2.8-0.4c-0.9-0.3-1.6-0.7-2.3-1.3
			s-1.2-1.3-1.5-2.1s-0.6-1.8-0.6-3c0-1,0.3-1.9,0.8-2.9s1.4-1.7,2.6-2.5c1.2-0.7,2.8-1.3,4.8-1.8c2-0.5,4.4-0.7,7.2-0.8v-1.8
			c0-1.9-0.4-3.3-1.2-4.3c-0.8-0.9-2-1.4-3.6-1.4c-1.1,0-1.9,0.1-2.7,0.4c-0.7,0.3-1.3,0.6-1.9,0.9c-0.5,0.3-1,0.6-1.4,0.9
			s-0.8,0.4-1.2,0.4c-0.3,0-0.6-0.1-0.9-0.3c-0.2-0.2-0.4-0.4-0.6-0.6L768.9,476.7z M783.1,487.2c-2,0.1-3.6,0.2-5,0.5
			c-1.4,0.2-2.5,0.6-3.4,1c-0.9,0.4-1.5,0.9-1.9,1.4c-0.4,0.5-0.6,1.1-0.6,1.8c0,0.6,0.1,1.2,0.3,1.6s0.5,0.8,0.8,1.1
			c0.4,0.3,0.8,0.5,1.3,0.6c0.5,0.1,1,0.2,1.6,0.2c0.7,0,1.4-0.1,2-0.2c0.6-0.1,1.2-0.4,1.7-0.6c0.5-0.3,1.1-0.6,1.6-1
			c0.5-0.4,1-0.9,1.5-1.4V487.2z"/>
		<path class="st0" d="M798.9,476.7c0.5-0.6,1.1-1.1,1.7-1.6c0.6-0.5,1.2-0.9,1.9-1.2c0.7-0.3,1.4-0.6,2.2-0.8
			c0.8-0.2,1.6-0.3,2.5-0.3c1.4,0,2.6,0.2,3.7,0.7c1,0.5,1.9,1.1,2.6,1.9c0.7,0.8,1.2,1.8,1.6,3s0.5,2.5,0.5,3.9v16.1h-4.9v-16.1
			c0-1.8-0.4-3.2-1.2-4.2c-0.8-1-2.1-1.5-3.8-1.5c-1.2,0-2.4,0.3-3.5,0.9c-1.1,0.6-2.1,1.4-3,2.4v18.5h-4.8v-25.2h2.9
			c0.7,0,1.1,0.3,1.3,1L798.9,476.7z"/>
		<path class="st0" d="M828.1,465.4c0,0.4-0.1,0.9-0.3,1.3c-0.2,0.4-0.4,0.8-0.7,1.1c-0.3,0.3-0.7,0.5-1.1,0.7
			c-0.4,0.2-0.8,0.3-1.3,0.3c-0.4,0-0.9-0.1-1.3-0.3s-0.7-0.4-1.1-0.7c-0.3-0.3-0.5-0.7-0.7-1.1s-0.3-0.8-0.3-1.3
			c0-0.5,0.1-0.9,0.3-1.3s0.4-0.8,0.7-1.1c0.3-0.3,0.7-0.5,1.1-0.7s0.8-0.3,1.3-0.3c0.4,0,0.9,0.1,1.3,0.3c0.4,0.2,0.8,0.4,1.1,0.7
			c0.3,0.3,0.5,0.7,0.7,1.1C828,464.5,828.1,465,828.1,465.4z M827.2,473.2v25.2h-4.8v-25.2H827.2z"/>
		<path class="st0" d="M834.2,498.4v-25.2h2.9c0.7,0,1.1,0.3,1.3,1l0.3,2.4c0.9-1.1,2-2,3.1-2.7s2.5-1.1,4-1.1c1.7,0,3,0.5,4.1,1.4
			c1,0.9,1.8,2.2,2.3,3.7c0.4-0.9,0.8-1.7,1.4-2.3c0.6-0.6,1.2-1.2,1.9-1.6c0.7-0.4,1.5-0.7,2.3-0.9c0.8-0.2,1.6-0.3,2.4-0.3
			c1.3,0,2.5,0.2,3.6,0.6s1.9,1,2.7,1.8s1.3,1.8,1.7,3s0.6,2.5,0.6,4.1v16.1h-4.9v-16.1c0-1.9-0.4-3.3-1.2-4.3c-0.8-1-2-1.4-3.6-1.4
			c-0.7,0-1.4,0.1-2,0.4c-0.6,0.2-1.2,0.6-1.7,1.1s-0.8,1.1-1.1,1.8c-0.3,0.7-0.4,1.5-0.4,2.5v16.1H849v-16.1c0-2-0.4-3.4-1.2-4.3
			s-1.9-1.4-3.4-1.4c-1,0-2,0.3-2.9,0.8c-0.9,0.5-1.7,1.3-2.5,2.2v18.7H834.2z"/>
		<path class="st0" d="M881.2,465.4c0,0.4-0.1,0.9-0.3,1.3c-0.2,0.4-0.4,0.8-0.7,1.1c-0.3,0.3-0.7,0.5-1.1,0.7
			c-0.4,0.2-0.8,0.3-1.3,0.3c-0.4,0-0.9-0.1-1.3-0.3s-0.7-0.4-1.1-0.7c-0.3-0.3-0.5-0.7-0.7-1.1s-0.3-0.8-0.3-1.3
			c0-0.5,0.1-0.9,0.3-1.3s0.4-0.8,0.7-1.1c0.3-0.3,0.7-0.5,1.1-0.7s0.8-0.3,1.3-0.3c0.4,0,0.9,0.1,1.3,0.3c0.4,0.2,0.8,0.4,1.1,0.7
			c0.3,0.3,0.5,0.7,0.7,1.1C881.1,464.5,881.2,465,881.2,465.4z M880.3,473.2v25.2h-4.8v-25.2H880.3z"/>
	</g>
</g>
</svg>
