<svg xmlns="http://www.w3.org/2000/svg" xmlns:xlink="http://www.w3.org/1999/xlink" viewBox="0 0 1200 628"><defs><style>.cls-1{fill:none;}.cls-2{isolation:isolate;}.cls-3{fill:url(#New_Gradient_Swatch_2);}.cls-4{clip-path:url(#clip-path);}.cls-5{fill:#244999;}.cls-6{font-size:39.98px;fill:#edc96e;}.cls-12,.cls-6{font-family:Lato-Black, Lato;}.cls-7{letter-spacing:-0.02em;}.cls-8{letter-spacing:-0.03em;}.cls-9{fill:url(#linear-gradient);}.cls-10{fill:url(#linear-gradient-2);}.cls-11,.cls-16{fill:#fff;}.cls-12{font-size:76.65px;}.cls-12,.cls-17{fill:#ff903d;}.cls-13{letter-spacing:-0.02em;}.cls-14{letter-spacing:-0.02em;}.cls-15{letter-spacing:0em;}.cls-16{stroke:#000;stroke-linecap:round;stroke-linejoin:round;stroke-width:3.57px;stroke-dasharray:9.53 11.91 0 0;}.cls-18{fill:#ffe393;}.cls-19{fill:#ff898d;}.cls-20{fill:#dff;}.cls-21{fill:#92e0d4;}.cls-22{fill:#ff5e4d;}.cls-23{fill:#8ff;}.cls-24{fill:#ffff63;}.cls-25,.cls-26{fill:#490040;}.cls-25,.cls-27,.cls-28{fill-rule:evenodd;}.cls-27{fill:#86546d;opacity:0.3;mix-blend-mode:multiply;}.cls-28{fill:#ffff68;opacity:0.4;mix-blend-mode:color-dodge;}</style><linearGradient id="New_Gradient_Swatch_2" x1="149.86" y1="588.73" x2="1056.35" y2="35.48" gradientUnits="userSpaceOnUse"><stop offset="0" stop-color="#c99b3b"/><stop offset="0.52" stop-color="#ffffab"/><stop offset="1" stop-color="#cea040"/></linearGradient><clipPath id="clip-path"><rect class="cls-1" x="459" width="622" height="220"/></clipPath><linearGradient id="linear-gradient" x1="642.04" y1="-16.06" x2="695.13" y2="248.22" gradientUnits="userSpaceOnUse"><stop offset="0" stop-color="#663800"/><stop offset="0.4" stop-color="#ffd373"/><stop offset="1" stop-color="#cea040"/></linearGradient><linearGradient id="linear-gradient-2" x1="599.9" y1="-7.6" x2="652.99" y2="256.68" xlink:href="#linear-gradient"/></defs><title>12_vers_ru</title><g class="cls-2"><g id="Layer_1" data-name="Layer 1"><rect class="cls-3" y="-1" width="1200" height="630"/><g class="cls-4"><ellipse class="cls-5" cx="770" cy="15.71" rx="300" ry="204.29"/></g><text class="cls-6" transform="translate(702.28 104.76)">#KULDSÜ<tspan class="cls-7" x="184.87" y="0">D</tspan><tspan class="cls-8" x="214.29" y="0">A</tspan></text><path class="cls-9" d="M671.58,54.31c-8.43-3.59-19.26.49-28.45,9.54a87.22,87.22,0,0,1,6.25,12.58c8.52,21.26,7.51,42.18-1.38,52.3,10.6-2.66,22-13,29-27.69C686.78,80.66,684.34,59.74,671.58,54.31Z"/><path class="cls-10" d="M636.26,128.1c-12.76-5.43-15.2-26.35-5.45-46.73a62.63,62.63,0,0,1,12.32-17.52c-11.32-18.78-28-29.57-40.8-25-15.46,5.51-19.47,31.26-8.94,57.52S625,139.46,640.44,134a18.1,18.1,0,0,0,7.57-5.22A18.28,18.28,0,0,1,636.26,128.1Z"/><path class="cls-11" d="M649.38,76.43a87.22,87.22,0,0,0-6.25-12.58,62.63,62.63,0,0,0-12.32,17.52c-9.75,20.38-7.31,41.3,5.45,46.73a18.28,18.28,0,0,0,11.74.63C656.89,118.6,657.9,97.68,649.38,76.43Z"/><text class="cls-12" transform="translate(650.55 407.34)">НА ВЫ<tspan class="cls-13" x="254.61" y="0">С</tspan><tspan class="cls-14" x="303.55" y="0">О</tspan><tspan class="cls-15" x="364.64" y="0">ТЕ</tspan></text><path class="cls-16" d="M465.39,341.82q-.16-8-.32-15.95c-.42-20.71-.86-42.12-1-63.12-.21-27.26-3.39-56.67-10-92.59a78.34,78.34,0,0,0-3.67-13.53C442.86,136.7,428,134.55,422,134.55c-6.35,0-12.67,2-19.35,6.25a106.19,106.19,0,0,0-23.89,20.36l-.53.61c-4.7-2.47-9.54-5-14.55-7.31a189.41,189.41,0,0,0-66.62-17.74c-7.43-.55-14.82-.83-22-.83a238.55,238.55,0,0,0-74.55,11.43c-.66-1.49-1.34-3-2.05-4.49-4.55-9.62-12.28-17-23-22a31.47,31.47,0,0,0-13.29-3,31,31,0,0,0-18.65,6.36c-8.49,6.25-12.91,14.52-15.49,20.19-5.87,12.88-12.45,28.35-16.8,45.5-6.14,24.19-10.18,48.24-13.63,70.63-3.73,24.18-7.42,52.3-7.53,81.23-11.74,4.6-21.06,13.32-26.89,25.38a118.52,118.52,0,0,0-7.48,18.91,171.8,171.8,0,0,0-6.36,47.25,376.8,376.8,0,0,1-2.17,42.4c-.37,3.19-.35,28.08,0,31.33.47,4.08.88,8.16,1.28,12.25.3,3,.59,6,.91,8.91,1.81,17,12.16,27,29.13,28l.29,0c9.59.6,19.51,1.22,29.52,1.39,8.4.14,16.88.19,25.07.23,11.62.06,23.64.12,35.31.48,7.66.24,15.55,1.18,23.9,2.19l5.82.69c5.23.61,10.42,1.34,15.92,2.11,10.18,1.43,20.7,2.91,31.53,3.55,12.23.72,24.84,1.09,37.49,1.09,21,0,43-1,65.4-3,3.21-.29,6.34-.65,9.36-1a146.9,146.9,0,0,1,16.18-1.28,46.11,46.11,0,0,1,6,.36,27.58,27.58,0,0,0,3.58.23,35.89,35.89,0,0,0,4.19-.27l.22,0,6.82-.5c3.58-.26,7.17-.53,10.76-.77q5.84-.4,11.68-.75c8.16-.51,16.59-1,25-1.76,10.84-.93,19.87-2,28.44-3.42,6.67-1.09,15-2.45,21.36-9.83,6.2-7.17,6.45-15.06,6.67-22v-.2q.34-10.91.62-21.82c.46-17.2.94-35,1.88-52.3a389.89,389.89,0,0,0-.59-47.28,99.5,99.5,0,0,0-10-38.57A42.15,42.15,0,0,0,465.39,341.82Z"/><path class="cls-17" d="M159.16,297c-.09,30.48-1.29,61,1.16,91.43A31.39,31.39,0,0,0,165,403.33c1.72,2.66,4,4.8.73,7.92-.51.48-.05,2.4.41,3.45a26.66,26.66,0,0,0,8.35,11,32.19,32.19,0,0,1,4.46,3.35c.64.69,1,2.55.59,3.16-1.79,2.41-.91,4.16,1.1,5.46,3.1,2,6.2,4.35,9.65,5.4a190.16,190.16,0,0,0,22.6,5.55,375.66,375.66,0,0,0,57.48,5.73c25.2.5,50.4.77,75.54-1.45,11.89-1,23.29-3.79,33.55-10.27,3.57-2.25,5.68-4.86,3.64-9.22a3.38,3.38,0,0,1,1-4.16,46.37,46.37,0,0,0,4.54-4.68c2.11-2.76,3.77-5.64,2.11-9.45a5.17,5.17,0,0,1,.55-4.25c7.4-10.76,9.19-23,9.33-35.56.23-21.47.43-42.93.26-64.4a177.34,177.34,0,0,0-2.05-22.27c-1-7.12-4.66-12.65-10.76-16.72-5.82-3.88-12.27-5.93-18.92-7.62-16.4-4.16-33.24-4.57-50-5.41-13-.65-26.13-.13-39.2-.13a520.22,520.22,0,0,0-80.07,3.57c-9.61,1.24-19.06,3-27.65,7.74-6.93,3.85-11.46,9.45-12.29,17.58C159.62,290.79,159.17,293.89,159.16,297Zm71,94.72c5.16-.45,8.15,1.43,9.88,6.45,1.12,3.26,1.86,6.61,5.14,8.49a21.18,21.18,0,0,0,11.6,2.78c6.06-.22,11.5-2.39,16.76-5.1a4.64,4.64,0,0,0,2.27-2.7A41.2,41.2,0,0,0,277,391.5a8.85,8.85,0,0,0-3.08-5.4c-3-2.6-3.82-5.48-2.2-9.48-2.61-.15-4.74-.44-6.86-.37-3.35.12-4.74-2.44-5.15-4.4a5.84,5.84,0,0,1,3-6.24,13.72,13.72,0,0,1,5.36-1.22q12.1.17,24.19.78a8.63,8.63,0,0,1,4.26,1.59c3.41,2.38,3,8.2-.88,10.16-2.14,1.08-4.69,1.37-7.2,2.05,1.06,3.23.26,6.15-2.71,8s-4.18,4.35-4.88,7.53c-1.27,5.79.41,10.08,5.23,13.77,6.68,5.1,14,6.16,22,5.27a6.88,6.88,0,0,0,5.38-3.27c1.74-2.92,3.79-5.83,4.73-9,1.42-4.87,4.67-6.33,9.06-6.11,1.31.07,3.21,1,3.68,2.07.79,1.79-1,2.84-2.53,2.91-3.24.16-5.21,1.52-6,4.71a23.47,23.47,0,0,1-1.54,3.39c-3.54,8.11-9.65,11.66-18.51,11-7-.49-13.4-2.41-19-6.76-1.69-1.32-3.34-2.69-4.66-3.76-6,2-11.58,3.92-17.18,5.65-4.61,1.43-9.18.82-13.74-.54-6.09-1.8-10.63-5.29-12.17-11.61-.85-3.48-2.44-5.39-6.08-5.79a3.18,3.18,0,0,1-1.87-2.54A3.54,3.54,0,0,1,230.13,391.7Z"/><path class="cls-18" d="M391.26,410.91c5.58-8.1,8-17,8.87-26.32-33.65-5.56-67.52-10-101.43-12.23a5.91,5.91,0,0,1-3.09,4.55c-2.14,1.08-4.69,1.37-7.2,2.05,1.06,3.23.26,6.15-2.71,8s-4.18,4.35-4.88,7.53c-1.27,5.79.41,10.08,5.23,13.77,6.68,5.1,14,6.16,22,5.27a6.88,6.88,0,0,0,5.38-3.27c1.74-2.92,3.79-5.83,4.73-9,1.42-4.87,4.67-6.33,9.06-6.11,1.31.07,3.21,1,3.68,2.07.79,1.79-1,2.84-2.53,2.91-3.24.16-5.21,1.52-6,4.71a23.47,23.47,0,0,1-1.54,3.39c-3.54,8.11-9.65,11.66-18.51,11-7-.49-13.4-2.41-19-6.76-1.69-1.32-3.34-2.69-4.66-3.76-6,2-11.58,3.92-17.18,5.65-4.61,1.43-9.18.82-13.74-.54-6.09-1.8-10.63-5.29-12.17-11.61-.85-3.48-2.44-5.39-6.08-5.79a3.18,3.18,0,0,1-1.87-2.54,3.54,3.54,0,0,1,2.5-2.2c5.16-.45,8.15,1.43,9.88,6.45,1.12,3.26,1.86,6.61,5.14,8.49a21.18,21.18,0,0,0,11.6,2.78c6.06-.22,11.5-2.39,16.76-5.1a4.64,4.64,0,0,0,2.27-2.7A41.2,41.2,0,0,0,277,391.5a8.85,8.85,0,0,0-3.08-5.4c-3-2.6-3.82-5.48-2.2-9.48-2.61-.15-4.74-.44-6.86-.37-3.35.12-4.74-2.44-5.15-4.4a5.14,5.14,0,0,1-.09-1.08,565.58,565.58,0,0,0-99.95,7.09c.19,3.52.42,7,.7,10.56A31.39,31.39,0,0,0,165,403.33c1.72,2.66,4,4.8.73,7.92-.51.48-.05,2.4.41,3.45a26.66,26.66,0,0,0,8.35,11,32.19,32.19,0,0,1,4.46,3.35c.64.69,1,2.55.59,3.16-1.79,2.41-.91,4.16,1.1,5.46,3.1,2,6.2,4.35,9.65,5.4a190.16,190.16,0,0,0,22.6,5.55,375.66,375.66,0,0,0,57.48,5.73c25.2.5,50.4.77,75.54-1.45,11.89-1,23.29-3.79,33.55-10.27,3.57-2.25,5.68-4.86,3.64-9.22a3.38,3.38,0,0,1,1-4.16,46.37,46.37,0,0,0,4.54-4.68c2.11-2.76,3.77-5.64,2.11-9.45A5.17,5.17,0,0,1,391.26,410.91Z"/><path class="cls-19" d="M283.38,379.77c0-.3-.18-.6-.19-.9-.11-3.21.88-4.38,4.19-4.84a49,49,0,0,0,5.47-.67,2.55,2.55,0,0,0,1.29-2.11c-.07-.7-1-1.85-1.64-1.87-4.33-.16-13-.31-13-.42q-5.57-.38-11.13-.67c-6.55-.33-4.13,3.07-3.93,3.12,1.75.42,3.6.51,5.32,1a15.62,15.62,0,0,1,4.92,2.3c1.7,1.32.89,3.24.65,5.13a4.88,4.88,0,0,0,5,5.24C282.45,384.95,283.62,382.93,283.38,379.77Z"/><path class="cls-20" d="M259.6,194.8c6.52,0,13,0,19.56,0,0,.07,12.42.2,18.63.21,4.76,0,6-.72,5.69-5.11-.48-7.1-1.53-14.16-2.47-21.22a4,4,0,0,0-3.62-3.65c-11.72-1.95-23.5-1.82-35.29-.93-2.73.21-4.82,1.51-5,4.51-.52,7.73-1,15.46-1.3,23.2C255.7,194.11,257.51,194.81,259.6,194.8Z"/><path class="cls-21" d="M324.16,200c-.65-7.19-.94-13.34-1.81-19.42-1.86-13-1.57-12.63-9.72-13.49a38.8,38.8,0,0,0-5.84,0c.79,9.41,1.58,18.85,2.39,28.56Z"/><path class="cls-21" d="M161.52,204.14c-1.52-5.25-1.79-10.94-5.81-17.06-3.55,8.92-4.75,17-6,26,4-2.25,7.3-3.93,10.39-5.92A3.64,3.64,0,0,0,161.52,204.14Z"/><path class="cls-22" d="M347.58,477.15c-1.74.2-2.94,2.74-3,4.16,0,1.18,1.09,5.12,4.16,4.7s3-4.37,2.68-5.49C351,479.13,349.31,477,347.58,477.15Z"/><path class="cls-23" d="M230,206.12a92.82,92.82,0,0,1,1.08-36.75c-6.3-1-11,1.1-15.65,2.34a120,120,0,0,0-30.95,12.57c-.35.21-.33,1-.48,1.56,20.6,8.23,22.59,8.3,44.79,24.72C229.29,209,230.24,207.45,230,206.12Z"/><path class="cls-23" d="M332.3,210.32c15.57-11.57,15.57-11.57,39.47-20-10.71-8.24-35.36-18.42-44.53-18.38-.14.27-.43.55-.4.79a255.29,255.29,0,0,1,2.8,33.32C329.65,207.57,329.84,209.93,332.3,210.32Z"/><path class="cls-21" d="M245.47,197.3c1.4-.49,2.75-1.11,3.58-1.45l2.86-30c-4.66-1.47-8.11-.26-13,1.09-2.49.69-4.09,1.55-4.28,4-.46,5.85-1,11.72-1,17.58C233.71,201.35,233.86,201.36,245.47,197.3Z"/><path class="cls-21" d="M410.1,197.88a60.92,60.92,0,0,0-8,12.86c3.25,1.3,7,5.66,10,6.37C413.17,208.19,412.23,204.42,410.1,197.88Z"/><path class="cls-24" d="M245.15,235.38c9.26,1.06,18.59,1.53,25.77,2.09,15.2-.76,28.24-1.35,41.28-2.11,3.09-.18,6.14-1,9.22-1.44,2.81-.4,4.34-2,5.15-4.68a28.31,28.31,0,0,0,.13-14.73c-1.37-6.12-5.11-10-10.94-11.5A100.27,100.27,0,0,0,302,200.8c-5.25-.6-10.53-.92-15.79-1.33-12.78-1-25.51-.72-38,2.47s-15.07,6.68-15.13,19.67C233,231.85,234.84,234.19,245.15,235.38Z"/><path class="cls-21" d="M291.68,477.84c-.16,6.24,0,12.36.24,18.47.39,8.35.53,8.48,9.37,8.43,4.22,0,8.55.72,12.71-.71C311,490.13,303,480.58,291.68,477.84Z"/><path class="cls-21" d="M398.58,497.65c-2.33,2.6-4.8,4.7-8.38,5.43a450.88,450.88,0,0,1-74.86,9.16,318.39,318.39,0,0,1-41-1.15c-16.7-1.62-33.46-2.68-50.2-3.84s-33.22-4.69-49.5-8.74c-7.18-1.78-14.11-4.52-22-7.1a14.92,14.92,0,0,0-1.61,2.16c-1.86,3.69-1.63,5.42,1.54,6.89a62.22,62.22,0,0,0,11.33,4.15,341.14,341.14,0,0,0,47.83,7.61c9.59.92,19.22,1.54,28.81,2.43,21.69,2,43.39,3.61,65.2,2.86,13.06-.46,26.1-1,39.16-1.54a184.8,184.8,0,0,0,46.69-8.23,60.8,60.8,0,0,0,8.61-3.55c1.94-.94,2.4-3.27,1.31-5.67C400.9,497.18,399.62,496.5,398.58,497.65Z"/><path class="cls-21" d="M392,514.07c-23.65,7.37-48,9.65-72.68,9.93-10.88.12-21.77,1.2-32.62.81-28.56-1.05-57.1-2.76-85.49-6.41-15.72-2-31.35-4.42-47.51-9.23a38.62,38.62,0,0,0-2.15,4.68c-1.14,3.84-.7,5.36,2.72,6.8a114.5,114.5,0,0,0,15.73,5.7,388.78,388.78,0,0,0,56.78,10.3c9,.92,18,1.58,26.92,2.45,17.38,1.69,34.8,1.25,52.19.45,14-.65,27.9-1.95,41.84-3.06,8.36-.67,16.73-1.37,25-2.42a178.6,178.6,0,0,0,18.31-3.37,21.46,21.46,0,0,0,7.47-3.54c2.87-2.08,3.05-6.21.9-10.19C397.47,513.3,396.24,512.74,392,514.07Z"/><path class="cls-20" d="M151.34,527.07c-8.78-4.65-9.68-6.89-5.38-16.21,1.39-3,1.36-5.06-1-7.39-4-3.94-3.48-8.29-.58-12.64,1.37-2.05,2.79-4.07,4.2-6.12-3.49-6.54-6.68-12.21-9.58-18-3-6.11-6-12.27-8.66-18.57-9.9-23.72-14.84-48.62-17.23-74.1-.77-8.22-.77-11-11.89-7.47a20.1,20.1,0,0,0-11.52,8.95A69.78,69.78,0,0,0,85,384.59c-3.84,9.25-5.57,19-6.74,28.92-1.66,13.92-1.43,27.91-1.62,41.88q-.35,27-.12,54.05a100.12,100.12,0,0,0,1.66,14.79c.63,3.92,1.87,5.09,5.29,5.28,8.36.48,16.73,1,25.1,1.14,14,.25,28,.25,41.95.35,2.05,0,4.1,0,6.57,0C155.49,528.31,153.19,528,151.34,527.07Z"/><path class="cls-20" d="M128.77,309.89a211.17,211.17,0,0,1-.06,49.34c-.86,6.78-1.72,13.67-6.83,18.94a6.2,6.2,0,0,0-1.6,6c2.05,10.68,3.79,21.42,6.09,32,3.58,16.51,10,32,17.54,47.08,2.75,5.54,6.23,10.72,9.43,16,3.59,6,9.08,8.89,15.72,10.61a404.28,404.28,0,0,0,59.57,10.72c2.43.25,4.9,0,7.88,0a42.37,42.37,0,0,0,1.39-4.41c1.68-9.3,7.42-15.51,15.23-20.16a52.15,52.15,0,0,1,27.54-7.42c16.28.08,27.87,7.49,35.2,21.79A105.09,105.09,0,0,1,320,500.81c1.29,3.35,1.78,3.71,5.51,3.66.93,0,1.86-.07,2.79-.14,18.9-1.62,37.67-4.26,56.35-7.5,2.41-.42,5.3-.9,6.94-2.44,6.52-6.14,14-11.19,18.95-19.12,9.26-15,15.66-31.06,20.4-47.89a148.14,148.14,0,0,0,5.68-37.7c0-1.77-.06-4.29-1.15-5.21-5.71-4.81-5.89-11.46-6.35-17.89-.8-11.17-1.18-22.36-1.63-33.55-.21-5.28-.39-10.59-.14-15.86.31-6.37,2.06-12.59,7.21-16.6,2.94-2.29,3.55-4.55,3.59-7.8.26-20.55-1.08-41-2-61.54-.05-1.24-.17-2.48-.34-3.71-1.7-12.31-3.2-24.66-5.21-36.92-1.35-8.26-3.15-16.48-5.3-24.57-1.34-5-4-5.68-8.4-3-1.07.63-2.08,1.36-3.09,2.08-10.47,7.43-18.13,17.63-27.07,26.7,1.16,1.34,2.05,2.22,2.75,3.23,1.43,2.07,1.51,4.12.21,4.95a3.59,3.59,0,0,1-4.32-.28,7.27,7.27,0,0,1-1.46-1.16c-3-3.64-6.77-4-11-2.78-2.39.67-4.85,1.11-7.23,1.83-10.23,3.09-19.67,7.68-27.76,14.8-3.39,3-6,6.28-5.23,11.23a14.06,14.06,0,0,1-.16,3.72c-.93,7.79-3.88,11.24-11.47,12.53-5.5.93-11.09,1.39-16.65,1.89-3.71.33-7.5.07-11.18.61-11.16,1.64-22.37,1.16-33.54.78a115.81,115.81,0,0,1-19.33-2.83c-12.8-2.65-13.87-7.74-13.24-16.65.39-5.4-1.81-8.8-5.62-12A141.72,141.72,0,0,0,195,194.58c-7-3.54-14.19-6.37-22.32-5.17a1.62,1.62,0,0,1-1.55-.83c-1.39-4.25,1.74-4.22,4-5.75,8.72-5.86,8.06-4,4.29-14.91a121.31,121.31,0,0,0-5.51-12.84,18.93,18.93,0,0,0-9.09-9c-2.32-1.12-4.47-1-5.88.9-2.58,3.46-5.26,7-7,10.91-5.89,13.37-11.31,27-14.72,41.22-6.75,28.13-11.31,56.67-15.49,85.27-.51,3.48-.23,6.65,2,9.73C127,298.75,128.17,304.26,128.77,309.89Zm93.41,170.43c-.21,3.86-3.2,6.3-7.72,6.29a7.49,7.49,0,0,1-7.46-7.77,7.73,7.73,0,0,1,7.76-7.59C219,471.41,222.43,475.66,222.19,480.32Zm126.06,9.82a9.1,9.1,0,0,1-8.8-9A8.64,8.64,0,0,1,348,473a8.84,8.84,0,0,1,8.73,8A8.49,8.49,0,0,1,348.25,490.14Zm47.88-281a76,76,0,0,1,13.07-17.92c2-2,5-1.61,6.15,1a25.9,25.9,0,0,1,2.28,7.92,131.23,131.23,0,0,1,.47,13.89c0,3.81.22,7.35,3.34,10.16,1.06,1,2,6.17-.52,6.15a3.93,3.93,0,0,1-2.46-1c-5.68-5.88-12.5-10-19.83-13.46C395.29,214.32,394.47,212.16,396.13,209.17Zm-225,54.2c8.19-4,17-5.79,25.94-7.13,27.8-4.18,55.79-3.9,90.92-4.18,7.79.13,22.72.17,37.64.69,15.54.54,31,1.75,46.2,5.54,7,1.74,13.68,4.07,19.71,8.15a32,32,0,0,1,13.55,19.43c2.47,10,4.16,20,3.87,30.42-.3,10.88.1,21.78-.24,32.66-.76,24.24-1.76,48.46-3.84,72.63-.24,2.78-.88,5.52-1.27,8.29-1.45,10.3-7.58,16.79-16.92,20.46-8.44,3.31-17.35,4.87-26.27,6.14a375.78,375.78,0,0,1-53.9,3.8c-14,0-28,.38-42,0-24.27-.6-48.44-2.54-71.9-9.34-7.44-2.16-14.65-5.14-21.86-8-7.57-3-11.81-8.83-13.28-16.75a46,46,0,0,1-.87-5.52c-.77-12.41-1.37-24.83-2.2-37.24-1.55-23.29-1.9-46.62-1.58-69.94.12-9,.86-18,1.75-27C155.68,275.79,161.49,268.1,171.15,263.37ZM140.82,222.5c4.76-9.28,4.88-19.83,8.12-29.51a90.78,90.78,0,0,1,3.06-8.77c1.35-3,4.6-3.43,7-1.3a10.66,10.66,0,0,1,1.89,2c4.33,6.66,6.36,14.11,8.07,22,.32,1.47-1.14,3.11-2.25,3.82-7.31,4.69-14.78,9.15-22.21,13.65a3.11,3.11,0,0,1-1.78.38,2.54,2.54,0,0,1-1.6-.73A1.83,1.83,0,0,1,140.82,222.5Z"/><path class="cls-20" d="M466.81,376c-2.1-4.1-5-7.21-9.44-8.46-3.84-1.1-7.85-1.6-12.26-2.46-.35,2.58-.71,4.67-.9,6.77-1.14,12.7-1.61,25.49-3.47,38.08-4.47,30.29-14.72,58.32-34.93,82.43,2.87,5.46,3.38,11.08-1,16.28-1.59,1.88-.54,3.42.33,5.08,3.54,6.76,3.2,13.1-2.08,18.92-.3.34-.17,1.07-.3,2.05,1.59,0,3.13.1,4.65,0,18-1.35,36-2.69,53.94-4.15,2.46-.2,4.86-1.08,7.3-1.52,2.25-.41,3-1.87,3.14-3.94,0-.62.07-1.24.09-1.87q1-27.51,2-55c.29-8.71,0-17.46.83-26.12,1.23-13.43.06-26.75-.95-40.07A67.48,67.48,0,0,0,466.81,376Z"/><path class="cls-22" d="M215.51,474.92c-2.27-.21-3.44,2.38-4.15,3.77-1,2,1.82,4.9,4.39,4.13,1.3-.39,3-2.35,3-3.56S217.69,475.11,215.51,474.92Z"/><path class="cls-24" d="M432.78,322.24c.7,14.83,1.51,29.66,2.32,44.49.17,3.06.29,6.17,2.9,9.15v-71.1a13.9,13.9,0,0,0-2.38,2.19C432.72,311.68,432.53,317,432.78,322.24Z"/><path class="cls-24" d="M124.13,335.78c-.18-19-1.14-26.46-4.69-33.33-.65,11.78-1.57,22.61-1.77,33.45-.47,25.72-.25,26.94,2.4,32.86C122.87,361.25,124.26,349.89,124.13,335.78Z"/><path class="cls-23" d="M277,475.28c-3,.18-3.89.93-4,3.85-.28,5.54-.5,11.09-.51,16.64,0,8,.32,8.33,8.18,8.64a49.47,49.47,0,0,0,5-.27c.5-1.08,1-1.62,1-2.16.1-7.09.18-14.18.17-21.27,0-4.87-.51-5.34-5.17-5.5C280.12,475.17,278.57,475.19,277,475.28Z"/><path class="cls-21" d="M243.37,500.42c1.36.5,2.73,1.36,4.17,1.48,5.25.45,10.52.71,15.78.94,2.32.1,3.21-1.36,3.34-3.52.38-6.5.85-13,1.17-19.49,0-.74-.65-1.52-1-2.24C252.17,482,246.65,487.34,243.37,500.42Z"/><path class="cls-24" d="M212.88,360.55c-14.88,0-41.79-2.94-42.4-16.27s15.49-28.34,23.24-28,28.94,1.62,36.28,17.3S251.41,360.59,212.88,360.55Z"/><path class="cls-24" d="M322.07,356.65c.67-10.34,5.48-29.11,21.55-35s28.46-1.09,33.35,5.44,11.14,18.21,7.34,23.37-6.79,10.33-16,11.42S321.52,365,322.07,356.65Z"/><path class="cls-25" d="M382.59,477.58a4.8,4.8,0,0,1-4.38,5,5,5,0,0,1-5.3-4.15A4.61,4.61,0,0,1,376.7,473,5.08,5.08,0,0,1,382.59,477.58Z"/><path class="cls-25" d="M279.74,219.69c.12,3.6-1.09,6.21-2.73,5.75-2.63-.74-2.64-3-2.68-5.18a32.76,32.76,0,0,1,.15-6.37c.24-1.31,1.17-3.21,2.18-3.5,1.88-.53,2.17,1.51,2.5,2.94a19,19,0,0,1,.31,2.72C279.58,217.26,279.66,218.48,279.74,219.69Z"/><path class="cls-25" d="M253.9,217.68c0,2.08,0,2.38,0,2.69,0,3.22-1.1,5.42-2.5,5-2.63-.74-2.57-3.15-2.82-5.16-.36-3-.94-6.1,1.08-8.81a2.11,2.11,0,0,1,1.47-.84,1.87,1.87,0,0,1,1.44.92C253.22,214.11,253.71,216.75,253.9,217.68Z"/><path class="cls-25" d="M301.85,218.25a16.58,16.58,0,0,1,0-2.4c.49-1.68,0-4.29,1.61-5,2.36-1,2.46,1.61,3,4.82a29.1,29.1,0,0,1,.67,6.34,3.27,3.27,0,0,1-2.32,2.24,3.38,3.38,0,0,1-2.46-2.06A15.59,15.59,0,0,1,301.85,218.25Z"/><path class="cls-26" d="M472.07,373.24c-3.67-7.37-9.65-11.15-17.59-12.16-2.46-.31-5-.18-7.42-.67a3.72,3.72,0,0,1-2.33-2.34,25.59,25.59,0,0,1-.34-5.56c-.55-29.86-1.31-59.72-1.55-89.59s-4.23-59.51-9.64-88.91a58,58,0,0,0-2.65-9.89c-3.41-9-8.25-10.65-16.58-5.4A84.56,84.56,0,0,0,394.84,175c-3,3.53-6.24,6.94-9.54,10.24-2.56,2.56-3.21,2.47-6.53.75-8-4.14-15.91-8.5-24.07-12.33a168.21,168.21,0,0,0-59.18-15.79c-34.8-2.57-68.95,1.05-101.58,14.5-1.41.58-2.85,1.08-4.68,1.78-1-2.17-1.93-4.08-2.79-6-2.38-5.41-4.59-10.88-7.12-16.22-2.64-5.58-7.15-9.21-12.72-11.8-3.88-1.8-7.19-1.22-10.46,1.19-4.16,3.06-6.71,7.38-8.77,11.9-6.19,13.59-11.86,27.4-15.54,41.92-5.74,22.62-9.67,45.59-13.23,68.65-4.56,29.55-8.08,59.16-7.13,89.14.06,1.81-.18,3.62-.31,5.85-2.18.31-3.95.58-5.73.82C94.73,361,87,366.74,82.35,376.37a99.34,99.34,0,0,0-6.19,15.56,151.9,151.9,0,0,0-5.53,41.48,403,403,0,0,1-2.3,44.71c-.17,1.48-.18,24.68,0,26.48.82,7.11,1.45,14.23,2.22,21.34.72,6.75,2.61,8.71,9.37,9.13,9.61.6,19.23,1.2,28.85,1.37,20.22.35,40.46.11,60.67.72,10.52.32,21,1.79,31.51,3,15.43,1.79,30.79,4.64,46.26,5.56A675.85,675.85,0,0,0,347,543.88c12-1.07,24-3.41,36.18-1.81a18.73,18.73,0,0,0,3.72-.2c5.89-.42,11.77-.87,17.66-1.27,12.1-.82,24.21-1.44,36.29-2.48,9-.77,17.94-1.76,26.82-3.22,10-1.64,10-1.91,10.27-11.79.78-24.88,1.17-49.77,2.52-74.62a372.7,372.7,0,0,0-.58-44.74A79.12,79.12,0,0,0,472.07,373.24ZM327.24,172c9.17,0,33.81,10.14,44.53,18.38-23.9,8.41-23.9,8.41-39.47,20-2.46-.38-2.65-2.75-2.67-4.23a255.29,255.29,0,0,0-2.8-33.32C326.81,172.52,327.1,172.23,327.24,172Zm-14.61-4.87c8.15.86,7.86.46,9.72,13.49.87,6.08,1.16,12.24,1.81,19.42l-15-4.34c-.82-9.72-1.61-19.15-2.39-28.56A38.8,38.8,0,0,1,312.63,167.09Zm-55.55,1.52c.2-3,2.29-4.3,5-4.51,11.79-.9,23.57-1,35.29.93a4,4,0,0,1,3.62,3.65c.94,7.06,2,14.12,2.47,21.22.29,4.39-.93,5.11-5.69,5.11-6.21,0-18.63-.14-18.63-.21-6.52,0-13,0-19.56,0-2.1,0-3.91-.7-3.82-3C256.08,184.07,256.57,176.34,257.08,168.61ZM234.65,171c.19-2.45,1.79-3.31,4.28-4,4.87-1.35,8.32-2.56,13-1.09l-2.86,30c-.83.34-2.18,1-3.58,1.45-11.61,4.06-11.76,4.05-11.81-8.73C233.63,182.71,234.19,176.85,234.65,171Zm13.54,30.95c12.48-3.19,25.21-3.46,38-2.47,5.27.41,10.55.73,15.79,1.33A100.27,100.27,0,0,1,315.75,203c5.84,1.52,9.57,5.38,10.94,11.5a28.31,28.31,0,0,1-.13,14.73c-.81,2.66-2.33,4.28-5.15,4.68-3.08.44-6.12,1.26-9.22,1.44-13,.77-26.09,1.35-41.28,2.11-7.18-.56-16.51-1-25.77-2.09-10.31-1.19-12.13-3.53-12.09-13.77C233.12,208.62,235.63,205.15,248.19,201.94Zm-63.68-17.66a120,120,0,0,1,30.95-12.57c4.67-1.24,9.35-3.36,15.65-2.34A92.82,92.82,0,0,0,230,206.12c.21,1.33-.74,2.84-1.21,4.44-22.21-16.43-24.19-16.49-44.79-24.72C184.18,185.31,184.17,184.49,184.51,184.28ZM121.72,284.36c4.18-28.61,8.74-57.14,15.49-85.27,3.42-14.25,8.83-27.85,14.72-41.22,1.72-3.91,4.4-7.45,7-10.91,1.41-1.89,3.55-2,5.88-.9a18.93,18.93,0,0,1,9.09,9,121.31,121.31,0,0,1,5.51,12.84c3.77,10.87,4.43,9.06-4.29,14.91-2.27,1.52-5.4,1.5-4,5.75a1.62,1.62,0,0,0,1.55.83c8.13-1.2,15.33,1.63,22.32,5.17A141.72,141.72,0,0,1,221.6,211.7c3.8,3.16,6,6.56,5.62,12-.63,8.91.44,14,13.24,16.65a115.81,115.81,0,0,0,19.33,2.83c11.17.39,22.38.86,33.54-.78,3.68-.54,7.46-.27,11.18-.61,5.56-.5,11.15-1,16.65-1.89,7.59-1.29,10.54-4.74,11.47-12.53a14.06,14.06,0,0,0,.16-3.72c-.76-4.95,1.84-8.24,5.23-11.23,8.09-7.12,17.53-11.72,27.76-14.8,2.38-.72,4.84-1.15,7.23-1.83,4.21-1.18,8-.86,11,2.78a7.27,7.27,0,0,0,1.46,1.16,3.59,3.59,0,0,0,4.32.28c1.29-.83,1.22-2.88-.21-4.95-.7-1-1.59-1.89-2.75-3.23,8.95-9.07,16.6-19.27,27.07-26.7,1-.72,2-1.45,3.09-2.08,4.44-2.64,7.06-2,8.4,3,2.15,8.09,3.95,16.31,5.3,24.57,2,12.26,3.51,24.61,5.21,36.92.17,1.23.29,2.47.34,3.71.88,20.51,2.22,41,2,61.54,0,3.25-.65,5.51-3.59,7.8-5.15,4-6.9,10.23-7.21,16.6-.25,5.27-.07,10.58.14,15.86.44,11.19.83,22.38,1.63,33.55.46,6.43.64,13.08,6.35,17.89,1.09.91,1.18,3.44,1.15,5.21a148.14,148.14,0,0,1-5.68,37.7c-4.74,16.83-11.14,32.92-20.4,47.89-4.91,7.93-12.43,13-18.95,19.12-1.64,1.54-4.53,2-6.94,2.44-18.68,3.23-37.45,5.87-56.35,7.5-.93.08-1.87.13-2.79.14-3.73.05-4.22-.31-5.51-3.66a105.09,105.09,0,0,0-4.13-10.36c-7.33-14.3-18.92-21.7-35.2-21.79a52.15,52.15,0,0,0-27.54,7.42c-7.81,4.65-13.55,10.86-15.23,20.16a42.37,42.37,0,0,1-1.39,4.41c-3,0-5.45.22-7.88,0a404.28,404.28,0,0,1-59.57-10.72c-6.65-1.71-12.14-4.63-15.72-10.61-3.2-5.31-6.68-10.5-9.43-16-7.49-15.06-14-30.57-17.54-47.08-2.3-10.62-4-21.36-6.09-32a6.2,6.2,0,0,1,1.6-6c5.11-5.27,6-12.16,6.83-18.94a211.17,211.17,0,0,0,.06-49.34c-.61-5.63-1.77-11.14-5.1-15.81C121.49,291,121.21,287.83,121.72,284.36ZM438,304.78v71.1c-2.61-3-2.73-6.1-2.9-9.15-.81-14.83-1.62-29.65-2.32-44.49-.25-5.28-.06-10.56,2.85-15.27A13.9,13.9,0,0,1,438,304.78ZM314,504c-4.16,1.43-8.48.69-12.71.71-8.84,0-9-.08-9.37-8.43-.28-6.11-.41-12.23-.24-18.47C303,480.58,311,490.13,314,504Zm-27.18-23.3c0,7.09-.07,14.18-.17,21.27,0,.54-.47,1.08-1,2.16a49.47,49.47,0,0,1-5,.27c-7.85-.31-8.19-.59-8.18-8.64,0-5.55.23-11.1.51-16.64.15-2.93,1.06-3.67,4-3.85,1.53-.1,3.08-.11,4.62-.06C286.31,475.38,286.81,475.85,286.83,480.72Zm-19-.9c-.32,6.5-.79,13-1.17,19.49-.13,2.16-1,3.62-3.34,3.52-5.26-.22-10.53-.49-15.78-.94-1.44-.12-2.81-1-4.17-1.48,3.28-13.08,8.8-18.42,23.48-22.84C267.18,478.31,267.87,479.08,267.84,479.83ZM117.67,335.9c.2-10.84,1.13-21.67,1.77-33.45,3.54,6.86,4.51,14.33,4.69,33.33.13,14.12-1.26,25.48-4.06,33C117.43,362.84,117.2,361.62,117.67,335.9ZM150.51,531c-14-.1-28-.09-41.95-.35-8.37-.16-16.74-.66-25.1-1.14-3.42-.2-4.66-1.36-5.29-5.28a100.12,100.12,0,0,1-1.66-14.79q-.22-27,.12-54.05c.19-14,0-28,1.62-41.88,1.18-9.91,2.9-19.67,6.74-28.92a69.78,69.78,0,0,1,4.69-9.09,20.1,20.1,0,0,1,11.52-8.95c11.12-3.53,11.11-.75,11.89,7.47,2.39,25.49,7.33,50.38,17.23,74.1,2.63,6.3,5.62,12.46,8.66,18.57,2.9,5.81,6.08,11.48,9.58,18-1.41,2-2.83,4.06-4.2,6.12-2.9,4.35-3.47,8.7.58,12.64,2.39,2.33,2.42,4.37,1,7.39-4.3,9.32-3.4,11.56,5.38,16.21,1.85,1,4.15,1.24,5.73,3.93C154.61,531,152.56,531,150.51,531Zm248-3.86a21.46,21.46,0,0,1-7.47,3.54A178.6,178.6,0,0,1,372.75,534c-8.32,1.06-16.69,1.75-25,2.42-13.94,1.12-27.87,2.42-41.84,3.06-17.39.8-34.8,1.24-52.19-.45-9-.87-18-1.53-26.92-2.45A388.78,388.78,0,0,1,170,526.34a114.5,114.5,0,0,1-15.73-5.7c-3.42-1.43-3.86-3-2.72-6.8a38.62,38.62,0,0,1,2.15-4.68c16.15,4.82,31.78,7.21,47.51,9.23,28.39,3.65,56.92,5.35,85.49,6.41,10.85.4,21.75-.68,32.62-.81,24.65-.28,49-2.55,72.68-9.93,4.27-1.33,5.51-.76,7.47,2.88C401.58,520.93,401.4,525.06,398.53,527.14Zm1.66-23a60.8,60.8,0,0,1-8.61,3.55A184.8,184.8,0,0,1,344.89,516c-13.06.5-26.1,1.08-39.16,1.54-21.8.76-43.51-.85-65.2-2.86-9.6-.89-19.22-1.5-28.81-2.43a341.14,341.14,0,0,1-47.83-7.61,62.22,62.22,0,0,1-11.33-4.15c-3.17-1.47-3.39-3.2-1.54-6.89a14.92,14.92,0,0,1,1.61-2.16c7.88,2.58,14.82,5.32,22,7.1,16.28,4,32.69,7.57,49.5,8.74s33.5,2.21,50.2,3.84a318.39,318.39,0,0,0,41,1.15,450.88,450.88,0,0,0,74.86-9.16c3.58-.72,6-2.83,8.38-5.43,1-1.16,2.32-.47,2.91.85C402.59,500.91,402.13,503.24,400.19,504.17ZM474.65,442c-.79,8.66-.54,17.41-.83,26.12q-.93,27.52-2,55c0,.63-.06,1.25-.09,1.87-.1,2.07-.88,3.53-3.14,3.94-2.45.44-4.84,1.32-7.3,1.52-18,1.46-36,2.8-53.94,4.15-1.52.12-3.06,0-4.65,0,.13-1,0-1.72.3-2.05,5.28-5.82,5.62-12.15,2.08-18.92-.87-1.66-1.92-3.21-.33-5.08,4.4-5.21,3.89-10.83,1-16.28,20.22-24.12,30.47-52.14,34.93-82.43,1.86-12.59,2.33-25.38,3.47-38.08.19-2.1.55-4.19.9-6.77,4.41.86,8.42,1.37,12.26,2.46,4.4,1.25,7.33,4.36,9.44,8.46a67.48,67.48,0,0,1,6.9,26C474.71,415.29,475.88,428.61,474.65,442Z"/><path class="cls-26" d="M154.62,286.56c-.89,9-1.63,18-1.75,27-.32,23.33,0,46.65,1.58,69.94.83,12.41,1.43,24.83,2.2,37.24a46,46,0,0,0,.87,5.52C159,434.14,163.23,440,170.8,443c7.21,2.86,14.42,5.84,21.86,8,23.46,6.8,47.63,8.74,71.9,9.34,14,.35,28-.05,42,0a375.78,375.78,0,0,0,53.9-3.8c8.92-1.27,17.83-2.83,26.27-6.14,9.34-3.67,15.47-10.16,16.92-20.46.39-2.77,1-5.52,1.27-8.29C407,397.41,408,373.19,408.74,349c.34-10.88-.06-21.78.24-32.66.29-10.37-1.4-20.44-3.87-30.42a32,32,0,0,0-13.55-19.43c-6-4.07-12.75-6.41-19.71-8.15-15.16-3.78-30.67-5-46.2-5.54-14.92-.52-29.86-.56-37.64-.69-35.13.28-63.12,0-90.92,4.18-9,1.35-17.75,3.13-25.94,7.13C161.49,268.1,155.68,275.79,154.62,286.56Zm17.61-16.44c8.59-4.78,18-6.51,27.65-7.74A520.22,520.22,0,0,1,280,258.81c13.07,0,26.16-.52,39.2.13,16.74.83,33.57,1.24,50,5.41,6.65,1.69,13.1,3.74,18.92,7.62,6.1,4.06,9.79,9.6,10.76,16.72a177.34,177.34,0,0,1,2.05,22.27c.17,21.47,0,42.94-.26,64.4-.14,12.59-1.92,24.81-9.33,35.56a5.17,5.17,0,0,0-.55,4.25c1.65,3.81,0,6.69-2.11,9.45a46.37,46.37,0,0,1-4.54,4.68,3.38,3.38,0,0,0-1,4.16c2,4.36-.07,7-3.64,9.22-10.27,6.48-21.66,9.22-33.55,10.27-25.15,2.22-50.34,2-75.54,1.45a375.66,375.66,0,0,1-57.48-5.73,190.16,190.16,0,0,1-22.6-5.55c-3.45-1.05-6.54-3.4-9.65-5.4-2-1.3-2.89-3-1.1-5.46.46-.61.05-2.47-.59-3.16a32.19,32.19,0,0,0-4.46-3.35,26.66,26.66,0,0,1-8.35-11c-.46-1.05-.92-3-.41-3.45,3.29-3.11,1-5.26-.73-7.92a31.39,31.39,0,0,1-4.67-14.92c-2.45-30.46-1.25-60.95-1.16-91.43,0-3.09.46-6.19.78-9.28C160.77,279.57,165.3,274,172.23,270.12Z"/><path class="cls-26" d="M142.7,224.84a3.11,3.11,0,0,0,1.78-.38c7.43-4.5,14.9-9,22.21-13.65,1.11-.71,2.57-2.36,2.25-3.82-1.72-7.92-3.75-15.37-8.07-22a10.66,10.66,0,0,0-1.89-2c-2.38-2.13-5.63-1.66-7,1.3a90.78,90.78,0,0,0-3.06,8.77c-3.24,9.69-3.37,20.23-8.12,29.51a1.83,1.83,0,0,0,.29,1.61A2.54,2.54,0,0,0,142.7,224.84Zm13-37.76c4,6.12,4.29,11.81,5.81,17.06a3.64,3.64,0,0,1-1.45,3c-3.09,2-6.38,3.67-10.39,5.92C151,204.11,152.15,196,155.71,187.09Z"/><path class="cls-26" d="M398.62,215.89c7.33,3.46,14.15,7.58,19.83,13.46a3.93,3.93,0,0,0,2.46,1c2.53,0,1.58-5.19.52-6.15-3.11-2.81-3.36-6.35-3.34-10.16a131.23,131.23,0,0,0-.47-13.89,25.9,25.9,0,0,0-2.28-7.92c-1.19-2.62-4.12-3-6.15-1a76,76,0,0,0-13.07,17.92C394.47,212.16,395.29,214.32,398.62,215.89Zm11.48-18c2.13,6.55,3.07,10.31,2,19.23-3-.71-6.79-5.07-10-6.37A60.92,60.92,0,0,1,410.1,197.88Z"/><path class="cls-26" d="M348,473a8.64,8.64,0,0,0-8.52,8.15,9.1,9.1,0,0,0,8.8,9,8.49,8.49,0,0,0,8.45-9.1A8.84,8.84,0,0,0,348,473Zm.78,13c-3.07.42-4.21-3.52-4.16-4.7.06-1.42,1.25-4,3-4.16s3.42,2,3.85,3.36C351.77,481.64,351.7,485.6,348.74,486Z"/><path class="cls-26" d="M214.76,471.25a7.73,7.73,0,0,0-7.76,7.59,7.49,7.49,0,0,0,7.46,7.77c4.52,0,7.51-2.43,7.72-6.29C222.43,475.66,219,471.41,214.76,471.25Zm1,11.57c-2.56.77-5.43-2.08-4.39-4.13.71-1.39,1.87-4,4.15-3.77s3.17,3,3.21,4.34S217.05,482.42,215.75,482.81Z"/><path class="cls-26" d="M229.49,396.44c3.64.4,5.23,2.31,6.08,5.79,1.54,6.33,6.08,9.81,12.17,11.61,4.56,1.36,9.14,2,13.74.54,5.59-1.73,11.13-3.65,17.18-5.65,1.33,1.07,3,2.45,4.66,3.76,5.58,4.34,12,6.27,19,6.76,8.87.62,15-2.93,18.51-11a23.47,23.47,0,0,0,1.54-3.39c.81-3.18,2.78-4.55,6-4.71,1.53-.08,3.33-1.13,2.53-2.91-.47-1.06-2.37-2-3.68-2.07-4.39-.22-7.64,1.24-9.06,6.11-.93,3.2-3,6.1-4.73,9a6.88,6.88,0,0,1-5.38,3.27c-8,.88-15.32-.17-22-5.27-4.83-3.69-6.5-8-5.23-13.77.7-3.18,2-5.72,4.88-7.53s3.77-4.77,2.71-8c2.52-.69,5.07-1,7.2-2.05,3.86-2,4.29-7.78.88-10.16a8.63,8.63,0,0,0-4.26-1.59q-12.09-.59-24.19-.78a13.72,13.72,0,0,0-5.36,1.22,5.84,5.84,0,0,0-3,6.24c.41,2,1.8,4.53,5.15,4.4,2.12-.08,4.25.21,6.86.37-1.62,4-.8,6.88,2.2,9.48a8.85,8.85,0,0,1,3.08,5.4,41.2,41.2,0,0,1-1.17,10.13,4.64,4.64,0,0,1-2.27,2.7c-5.26,2.72-10.7,4.89-16.76,5.1a21.18,21.18,0,0,1-11.6-2.78c-3.28-1.88-4-5.23-5.14-8.49-1.73-5-4.72-6.91-9.88-6.45a3.54,3.54,0,0,0-2.5,2.2A3.18,3.18,0,0,0,229.49,396.44Zm45.81-16.57c.25-1.89,1.06-3.81-.65-5.13a15.62,15.62,0,0,0-4.92-2.3c-1.71-.53-3.56-.62-5.32-1-.2,0-2.62-3.46,3.93-3.12q5.56.29,11.13.67c0,.11,8.67.26,13,.42.61,0,1.57,1.18,1.64,1.87a2.55,2.55,0,0,1-1.29,2.11,49,49,0,0,1-5.47.67c-3.31.46-4.3,1.64-4.19,4.84,0,.3.16.6.19.9.24,3.16-.93,5.18-3.09,5.35A4.88,4.88,0,0,1,275.31,379.87Z"/><path class="cls-25" d="M194.18,359.59c-10.24,0-19.84-4.64-24.14-11.26a8.92,8.92,0,0,1-1.57-4.28c-.4-12.84,10.58-27.65,23.39-32a33.4,33.4,0,0,1,14.75-1.37c13.5,1.59,28,14.08,31.42,27.31a138.72,138.72,0,0,1,2.44,13.76,8.57,8.57,0,0,1-.25,3.68c-.23.76-1.13,1.78-1.79,1.83-1.09.09-2.84-.18-3.24-.9a18.14,18.14,0,0,1-2.09-6,36.23,36.23,0,0,0-9.19-19.06c-8.41-9.38-18.9-12.44-31.22-10-7.4,1.48-12.38,6-15.31,12.47-5.27,11.65-6.42,13.31,6.18,20.79,2.11,1.25,4.59,1.85,6.86,2.84C191.43,357.86,192.35,358.52,194.18,359.59Z"/><path class="cls-25" d="M354.87,323.92c-9.54,0-17.45,4.55-22,14.26-2.38,5.05-4.35,10.3-6.56,15.44a47.9,47.9,0,0,1-2.82,5.84,2.63,2.63,0,0,1-2.29.93,2.87,2.87,0,0,1-1.81-1.85,14.87,14.87,0,0,1-.2-5.52,71.52,71.52,0,0,1,9.62-24.13,19.19,19.19,0,0,1,4.29-4.88c10.91-8.27,23-10.91,36-6,12.35,4.67,18,14.56,19.34,27.32a12.44,12.44,0,0,1-4.85,11.49,29.57,29.57,0,0,1-16.07,6.82c-.68.07-1.46-.74-2.19-1.14.52-.67.89-1.58,1.57-2,3.23-1.84,6.54-3.57,9.85-5.28,2.77-1.43,3.8-3.65,4-6.76C381.8,333.37,371.94,323.47,354.87,323.92Z"/><path class="cls-25" d="M199.32,346.55c-.21-5.61.83-8.84,3-11.61a9,9,0,0,1,8.09-3.75c2.4.2,3.87,1.78,3.06,4.27-1.25,3.84-.55,6.7,3,8.74,2.38,1.39,2.35,3.5,1.62,5.68a10.53,10.53,0,0,1-5.16,6.34c-4.65,2.39-9.61,1.06-11.86-3.65A27.43,27.43,0,0,1,199.32,346.55Z"/><path class="cls-25" d="M342.17,338.06c1.66-3.33,4.81-4.59,8.49-4.44a2.86,2.86,0,0,1,2.75,3.71c-1.29,4.64-1.12,8.49,3.92,10.89.7.33,1,2.14,1,3.22a10.56,10.56,0,0,1-1.26,3.42c-1.33,3-3.31,5.56-6.7,5.67-4,.13-7.08-2.19-8.79-5.72C340.37,352.39,340.82,340.77,342.17,338.06Z"/><path class="cls-25" d="M355.82,288c2.22-2.71,2.31-6.1,2.51-9.5a24.68,24.68,0,0,1,.8-5.38,2.64,2.64,0,0,1,2.12-1.32c.75,0,1.56.83,2.14,1.47a3,3,0,0,1,.54,1.73A28.73,28.73,0,0,1,358,294.87c-.7.93-1.94,2.11-2.87,2.06-2.33-.11-5-.34-6.85-1.51s-.2-3.37.15-5.1a32.48,32.48,0,0,1,.91-3.58c1-2.93,3.1-4.89,4.12-3.83S355,286,355.82,288Z"/><path class="cls-25" d="M198.9,285.65c.67-1.72,3.15-2.94,3.93-2.54,1.18.62,1.85,3.67,2.49,5a22.12,22.12,0,0,1,1.34,4.43,11.35,11.35,0,0,1,.19,1.81c-8.25,1.39-10.34.36-13.42-6.42a20.55,20.55,0,0,1-1.58-13.55c.21-.88,1.32-2.29,2.43-2.21.86.06,1.43,1.23,1.62,2,.65,2.69,1,5.46,1.61,8.16A21.72,21.72,0,0,0,198.9,285.65Z"/><path class="cls-25" d="M268.85,427.47c-.85-.33-2.12-1.69-1.85-2.8s1.92-1.61,2.85-1.57c1.82.07,3.61,1,5.43,1.09a68.59,68.59,0,0,0,8.29-.6c1.61-.16,3.87-2,4.39.8.37,2-1.9,3.16-3.66,3.61C281.63,428.7,271.12,428.34,268.85,427.47Z"/><path class="cls-25" d="M332.29,315.45c-.28-1.26,1.5-2.05,2.43-2.6a31.57,31.57,0,0,1,17.67-4.42c.88,0,2.48.69,2.58,1.73.08.86-1.11,1.62-1.81,1.79-6.25,1.53-12.53,2.94-18.82,4.3C333.86,316.35,332.52,316.45,332.29,315.45Z"/><path class="cls-25" d="M198.9,306.09c-1.23-.49,1.73-1.65,2.44-1.7a43.6,43.6,0,0,1,20.72,3.36,1.46,1.46,0,0,1,.68.6c.26.52.72,1.22.55,1.62a1.78,1.78,0,0,1-1.5.81c-2.11-.37-4.17-1-6.26-1.42C210.18,308.28,205.21,308.59,198.9,306.09Z"/><path class="cls-27" d="M182.55,492.23C134.64,425.9,124.19,344,118.59,264c-4.54,29.46-8,59-7.09,88.88.06,1.81-.18,3.62-.31,5.85-2.18.31-3.95.58-5.73.82a29.74,29.74,0,0,0-13.61,5.15c1.52,38.41,11.15,76.72,26.88,111.54,4.35,11.6-1.45,26.1,4.35,37.71,3,7.23,6,15.21,10,22.7,12.13.07,24.26.12,36.37.49,5.58.17,11.15.67,16.72,1.27C176.83,524.24,171.1,506,182.55,492.23Z"/><path class="cls-27" d="M420.39,492.23c35.76-34.44,48.53-83.4,38.32-130.3a28,28,0,0,0-4.23-.86c-2.46-.31-5-.18-7.42-.67a3.72,3.72,0,0,1-2.33-2.34,25.59,25.59,0,0,1-.34-5.56c-.35-19.39-.79-38.78-1.12-58.18-13.54,53.13-6.74,108.55-37.38,157.29-13.05,21.75-43.51,34.81-42.06,56.56,0,8.1,7.52,21.22,5.06,33.51a75.62,75.62,0,0,1,14.29.37,18.73,18.73,0,0,0,3.72-.2c5.89-.42,11.77-.87,17.66-1.27,7.1-.48,14.21-.9,21.32-1.37C432.09,522.73,436.22,505.94,420.39,492.23Z"/><path class="cls-28" d="M372.46,292c-1.74,5.78-42.67-2.87-93.48-2.45-50.81-.42-91.74,8.23-93.48,2.45C183.44,287,224.3,267.86,279,268.14,333.66,267.87,374.52,287,372.46,292Z"/></g></g></svg>