<svg xmlns="http://www.w3.org/2000/svg" xmlns:xlink="http://www.w3.org/1999/xlink" viewBox="0 0 1200 628"><defs><style>.cls-1{fill:none;}.cls-2{isolation:isolate;}.cls-3{fill:url(#New_Gradient_Swatch_2);}.cls-4{clip-path:url(#clip-path);}.cls-5{fill:#244999;}.cls-6{font-size:39.98px;fill:#edc96e;}.cls-12,.cls-6{font-family:Lato-Black, Lato;}.cls-7{letter-spacing:-0.02em;}.cls-8{letter-spacing:-0.03em;}.cls-9{fill:url(#linear-gradient);}.cls-10{fill:url(#linear-gradient-2);}.cls-11,.cls-15,.cls-28{fill:#fff;}.cls-12{font-size:76.65px;}.cls-12,.cls-16{fill:#919090;}.cls-13{letter-spacing:-0.07em;}.cls-14{letter-spacing:0em;}.cls-15{stroke:#000;stroke-linecap:round;stroke-linejoin:round;stroke-width:3.42px;stroke-dasharray:9.11 11.39 0 0;}.cls-17{fill:#72655d;}.cls-18,.cls-19,.cls-22,.cls-27,.cls-35{opacity:0.3;}.cls-18,.cls-19,.cls-27,.cls-35{mix-blend-mode:multiply;}.cls-19{fill:#e55938;}.cls-20,.cls-21{fill:#a39074;}.cls-20,.cls-23,.cls-24,.cls-26,.cls-27,.cls-28{fill-rule:evenodd;}.cls-22{fill:#6a2702;}.cls-24{fill:#afafaf;}.cls-25,.cls-26{fill:#ffe855;}.cls-27{fill:#b32749;}.cls-29{clip-path:url(#clip-path-2);}.cls-30{clip-path:url(#clip-path-3);}.cls-31{clip-path:url(#clip-path-4);}.cls-32{fill:#fff49f;}.cls-33{fill:#ffff5d;}.cls-34{fill:#ff95b8;}.cls-35{fill:#c9485c;}.cls-36{fill:#c6c6c6;}</style><linearGradient id="New_Gradient_Swatch_2" x1="149.86" y1="588.73" x2="1056.35" y2="35.48" gradientUnits="userSpaceOnUse"><stop offset="0" stop-color="#c99b3b"/><stop offset="0.52" stop-color="#ffffab"/><stop offset="1" stop-color="#cea040"/></linearGradient><clipPath id="clip-path"><rect class="cls-1" x="459" width="622" height="220"/></clipPath><linearGradient id="linear-gradient" x1="642.04" y1="-16.06" x2="695.13" y2="248.22" gradientUnits="userSpaceOnUse"><stop offset="0" stop-color="#663800"/><stop offset="0.4" stop-color="#ffd373"/><stop offset="1" stop-color="#cea040"/></linearGradient><linearGradient id="linear-gradient-2" x1="599.9" y1="-7.6" x2="652.99" y2="256.68" xlink:href="#linear-gradient"/><clipPath id="clip-path-2"><polygon class="cls-1" points="315.15 432.3 307.91 433.88 301.87 436.32 296.81 439.04 291.63 444.75 290.01 446.94 289.36 448.07 289.04 449.69 290.6 451.8 290.98 452.88 291.31 454.12 291.45 454.98 291.58 455.63 292.56 456.74 275.24 474.15 250.64 458.72 251.49 457.01 251.17 454.58 251.25 452.86 252.03 451.3 253.21 450.2 254.02 448.55 248.66 443.9 239.43 437.91 232.37 433.8 225.89 431.65 221.67 427.82 216.34 402.62 233.11 378.86 307.37 377.78 336.16 397.63 315.15 432.3"/></clipPath><clipPath id="clip-path-3"><polygon class="cls-1" points="265.43 466.63 271.89 470.33 273.06 470.61 273.92 470.63 274.47 470.48 282.96 463.94 289.81 459.6 317.07 435.63 330.03 400.14 307.43 356.07 256.49 349.72 211.77 365.38 194.29 424.58 237.34 489.06 259.69 464.83 265.43 466.63"/></clipPath><clipPath id="clip-path-4"><polygon class="cls-1" points="268.92 469.52 274.47 470.98 279.64 467.52 288.22 459.43 345.44 423.93 316.32 338.02 249.12 349.67 219 355.15 179.3 411.29 243.42 471.79 259.69 464.83 268.92 469.52"/></clipPath></defs><title>12_vers_ru</title><g class="cls-2"><g id="Layer_1" data-name="Layer 1"><rect class="cls-3" y="-1" width="1200" height="630"/><g class="cls-4"><ellipse class="cls-5" cx="770" cy="15.71" rx="300" ry="204.29"/></g><text class="cls-6" transform="translate(702.28 104.76)">#KULDSÜ<tspan class="cls-7" x="184.87" y="0">D</tspan><tspan class="cls-8" x="214.29" y="0">A</tspan></text><path class="cls-9" d="M671.58,54.31c-8.43-3.59-19.26.49-28.45,9.54a87.22,87.22,0,0,1,6.25,12.58c8.52,21.26,7.51,42.18-1.38,52.3,10.6-2.66,22-13,29-27.69C686.78,80.66,684.34,59.74,671.58,54.31Z"/><path class="cls-10" d="M636.26,128.1c-12.76-5.43-15.2-26.35-5.45-46.73a62.63,62.63,0,0,1,12.32-17.52c-11.32-18.78-28-29.57-40.8-25-15.46,5.51-19.47,31.26-8.94,57.52S625,139.46,640.44,134a18.1,18.1,0,0,0,7.57-5.22A18.28,18.28,0,0,1,636.26,128.1Z"/><path class="cls-11" d="M649.38,76.43a87.22,87.22,0,0,0-6.25-12.58,62.63,62.63,0,0,0-12.32,17.52c-9.75,20.38-7.31,41.3,5.45,46.73a18.28,18.28,0,0,0,11.74.63C656.89,118.6,657.9,97.68,649.38,76.43Z"/><text class="cls-12" transform="translate(650.55 407.34)">М<tspan class="cls-13" x="73.59" y="0">А</tspan><tspan class="cls-14" x="122.49" y="0">ТЬ </tspan><tspan x="0" y="91.99">ТЕРЕЗА</tspan></text><path class="cls-15" d="M380.26,315.16c-2.25-20-6.46-40.07-10.62-59.72q-2.94-13.91-5-28c-1.42-9.47-.94-19.42-4.38-28.48-6.4-16.88-24.41-26.74-39.61-13.28A33,33,0,0,0,313.09,196a47.88,47.88,0,0,0-2.47,6.08c-2.22-.67-4.46-1.29-6.71-1.86-10.9-2.74-22.06-4.2-33.21-5.38a251.45,251.45,0,0,0-30.21-1.67c-5,.07-10,.41-15,.94-2.62.28-5.24.59-7.86,1-3.56.52-7.33,2.86-8.83-.76-7-16.93-27.07-22.09-41.48-10.66-15.48,12.28-14.58,36.79-16.12,54.45-1.66,19.23-8.42,37.83-11,57-4.52,33.8,2.61,69.45,32.61,89.28-13.73,4.93-22.4,16.27-24.53,30.45A34.42,34.42,0,0,0,153.08,438a36.66,36.66,0,0,0,8.71,9.61c2.49,1.92,1.21,2.13.18,4.79a64.43,64.43,0,0,0-2.82,9.41c-4.1,18.49.89,36.47,16.55,47.8a47.07,47.07,0,0,0,23.07,8.44c3.18.34,4.17-.76,4.9,2.68a64.56,64.56,0,0,0,1.85,6.86,67.16,67.16,0,0,0,7.22,15.12c5.75,9,16.37,15.28,27.18,15.28,7.94,0,13.76-4.35,17.79-10.92,3.93-6.4,9.34-11.9,14.28-2.73,3.42,6.34,6.41,12,14.21,13.19,9.21,1.45,18.3-2.46,24.63-9.08s9.12-15.09,10.66-24.07c1.75-10.17,3.53-20.39,4.29-30.68q.56-7.66.52-15.34,0-4-.18-8a52.85,52.85,0,0,0,5.91-2.68c7.1-3.79,13.42-9.58,16.23-17.28,6.47-17.79-7.25-36.27-19.81-47.44,17.4-4.72,37.73-13.3,45.73-30.74,7.81-17,8.14-38.77,6.08-57.11Z"/><path class="cls-16" d="M364.29,323.26l-5.52,1.36c-.17,1-.35,2.06-.55,3.13-1,5.44-2.35,10.79-5.29,15.65a23.33,23.33,0,0,1-12.31,10.19c-8.48,2.92-16.59,1.19-23.3-4.6a33.66,33.66,0,0,1-11.78-22.88,85.47,85.47,0,0,1-.38-10.72,34.79,34.79,0,0,1,4.48-16.65,19.88,19.88,0,0,1,12.5-9.77,26.66,26.66,0,0,1,16,.82c1.62.57,3.34,2,4.74,1.71s2.5-2.13,3.75-3.26c1.64-1.48,3.46-1.72,4.68-.67s1.05,2.28-.28,4.08c-1.06,1.43-2.19,2.81-3.22,4.13l6.38,8.29,7.73-1.86c-.77-4.86-1.42-9.5-2.26-14.1-1.06-5.83-1.91-11.72-3.53-17.41-2.12-7.45-4.07-14.91-5.52-22.49-2.1-11-4.06-21.95-4.49-33.11a36.21,36.21,0,0,0-.6-5.33,27.12,27.12,0,0,0-4-10.42,15.35,15.35,0,0,0-3.56-3.54c-1.66-1.23-3.41-1.1-5.22.14a12.72,12.72,0,0,0-4.47,6,51.82,51.82,0,0,0-3.54,16.51,3.41,3.41,0,0,0,2,3.71,38.3,38.3,0,0,1,5.53,4.06,10.38,10.38,0,0,1,2,2.67c.14.23-.14.75-.35,1.06a.86.86,0,0,1-.79.15c-.89-.45-1.73-1-2.62-1.47a106.63,106.63,0,0,0-10-5.18,145.93,145.93,0,0,0-29-8.26,302.56,302.56,0,0,0-38.86-4.22A172.41,172.41,0,0,0,218,212.72c-10.49,1.63-20,5.17-28.13,11.81-1.88,1.54-3.8,3-5.71,4.53a18,18,0,0,1-2.07,1.53c-.79.46-1.84.65-2.35-.18a2.57,2.57,0,0,1-.13-2.23,9,9,0,0,1,2.2-2.53q3.92-3.32,8-6.5c3.8-3,3.36-1.63,3.77-6.82,0-.55.11-1.1.1-1.65-.08-4.31-.72-8.52-3-12.34-2.4-4-5.56-4.87-10-3a9.65,9.65,0,0,0-5.56,5.57,90,90,0,0,0-3.53,11c-1.77,7.82-2,15.82-2.77,23.76-.35,3.8-.18,7.63-1.05,11.42-3.1,13.44-6.15,26.89-9,40.38A128.76,128.76,0,0,0,156.32,327a60.85,60.85,0,0,0,2.07,10.94c4.65,16,14.6,28.32,30.08,36.54,4.72,2.51,9.5,4.92,14.23,7.4a73,73,0,0,0,19.4,6.46,217.24,217.24,0,0,0,30.41,4.27c5.41.33,10.85.66,16.26.53,6.15-.14,12.29-.73,18.42-1.25a310.29,310.29,0,0,0,36-5.19A72.26,72.26,0,0,0,352,373.85a22.55,22.55,0,0,0,8-10.66c.57-1.56,1.11-3.13,1.52-4.74,2.93-11.33,3.33-22.86,3.17-34.44C364.63,323.77,364.42,323.53,364.29,323.26ZM236.42,351.08c-9.22,7.18-19.85,9.79-31.68,6.8a15,15,0,0,1-3.63-1.45c-10.76-6-18-14.39-19.43-26.47-.32-2.71-.62-5.43-.94-8.26-1.16-.11-2.16-.16-3.16-.3a13.87,13.87,0,0,1-2.56-.56,2.08,2.08,0,0,1-1.58-2.22,2.06,2.06,0,0,1,2-1.91,39,39,0,0,1,4.38,0c1,0,1.72-.08,2-1.08.8-2.48,1.63-4.95,2.49-7.53-2-1.12-3.87-2.13-5.7-3.25s-2.3-2.18-1.71-3.34c.7-1.38,2-1.61,4.16-.6,1.81.86,3.58,1.81,5.52,2.8l5.51-7.2c-1.36-1.6-2.79-3.16-4-4.84A5.74,5.74,0,0,1,187,289a2.13,2.13,0,0,1,3.27-1.94,16,16,0,0,1,2.59,2.19c1,1,2,2,3.06,3a3.53,3.53,0,0,0,1,.39c.5-.3,1.14-.62,1.72-1,5.49-3.77,11.84-5.31,18.42-6.25a17.08,17.08,0,0,1,11,2.13A26.16,26.16,0,0,1,238.91,298a58.87,58.87,0,0,1,7.33,25.28c.11,2.2.13,4.4.1,6.6C246.23,338.24,243.36,345.68,236.42,351.08Zm48.92,17.22c-.14,2.06-1.33,3.2-3.22,4a13,13,0,0,1-9,.63c-3.2-.93-4.87-2.87-5.11-6a11.56,11.56,0,0,1,.84-5.65A36.72,36.72,0,0,1,277.58,349a11.35,11.35,0,0,1,2-1.57,2,2,0,0,1,2.74.42,9.16,9.16,0,0,1,1.68,3.3C284.84,355.22,285.94,362.31,285.34,368.3Z"/><path class="cls-16" d="M291.78,395.31c-4.52.42-9.05.75-13.58,1.12-13.21,1.06-26.39,1-39.42-1.54a8.39,8.39,0,0,0-7.63,1.87c-1.09.92-2.12,1.9-3.11,2.92-2.37,2.44-4.83,4.82-7,7.38-4.87,5.68-9.61,11.46-14.37,17.21a19.54,19.54,0,0,0-4,9.07c-.91,4.91-.5,9.75,3.34,13.57a41.86,41.86,0,0,0,16.59,10.54c5,1.61,10,3.15,14.94,4.87a11.49,11.49,0,0,0,5.18.41,3.41,3.41,0,0,0,2.79-1.77c.33-.6.21-1-.46-1.28-.41-.2-.69-.65-1.24-1.2,1.17-.19,1.9-.24,2.58-.43,2.13-.59,2.64-1.27,2.31-3.3a36.12,36.12,0,0,0-.94-3.55c2.49-1.52,2.72-2,1-3.59a64.29,64.29,0,0,0-7.39-5.83c-2.63-1.73-5.55-3.07-8.35-4.57a46.92,46.92,0,0,1-7.41-4.46c.47-2.08.87-3.82,1.25-5.56.75-3.4,1.8-6.71,4.17-9.43a19.23,19.23,0,0,0,2.89-4.58c.74-1.57,1.39-3.27,3.6-4.34l-.38,5.23a81.21,81.21,0,0,1,28.21-5.67c-.13-.8-.2-1.2-.25-1.6-.36-2.78-.16-3.26,2.69-3.56a35.46,35.46,0,0,1,7,.07c3.55.33,3.91.55,4.59,3.88.38,1.87,1.34,2.44,3.16,2.71,4.48.67,8.93,1.53,13.39,2.29,1.52.26,3.06.82,4.63.14l-.73-4.07a2.67,2.67,0,0,1,1.79,1.23,14,14,0,0,0,7.17,6.39,6.76,6.76,0,0,1,3.78,3.85c1.38,3.24,2.24,6.53,1.49,10.06-.15.73-.82,1.5,0,2.34a9.28,9.28,0,0,1,1.22.18c.78.22,2.12.39,2.2.76.25,1.22-1.1,1.43-2,1.73-1.79.6-3.62,1.11-5.46,1.56a36.74,36.74,0,0,0-14.66,7.21c-1.67,1.35-6.06,4.45-2.37,6.07,1.26.57,1.67,1.23,1.09,2.59-.47,1.1.23,2.14,1.24,2.87.46.34.95.65,1.44.94,1.23.72,1.73,2,1.65,3.79,0,.94,2,.37,2.89.3,9.91-.66,18.94-3.5,26.66-9.53,4.57-3.57,6.38-8,5.11-13.59a29.9,29.9,0,0,0-5.28-11.25,82,82,0,0,0-14.24-14.56q-8.46-6.91-16.61-14.14A6.14,6.14,0,0,0,291.78,395.31Z"/><path class="cls-16" d="M307.14,463c-1.8.06-2.47,1.06-2.87,2.57-1.72,6.41-6.14,10.78-12.1,14-3.55,1.93-7,4.08-10.47,6.09a22.82,22.82,0,0,0-6.09,4.68c-1.34,1.55-2.14,1.58-3.56.07-3-3.18-6.84-5.12-10.91-6.78-1.75-.71-3.45-1.52-5.17-2.29a20.49,20.49,0,0,1-8.07-6.23c-1.11-1.45-2.4-2.79-3.46-4.27-1.31-1.82-2-4.32-3.79-5.46s-4.72-1.1-7.06-1.81c-4.46-1.35-8.86-2.88-13.29-4.33-5.44-1.78-5.63-1.62-6.53,3.81-1.23,7.4-.86,14.82-.57,22.25a30.94,30.94,0,0,0,.71,7c2.78,10.12,4.26,20.5,7.43,30.55a50.28,50.28,0,0,0,6.86,13.76,7.71,7.71,0,0,0,3.23,2.65,49.69,49.69,0,0,0,7.92,2.4c2.61.57,4.19-.34,5.27-2.61a11.51,11.51,0,0,0,.71-2.37c1.94-8.5,2.65-17.13,3.48-25.76.2-2.05-.36-3.4-2.36-4.27-.39-.17-1.69-.73-1.12-1.53,1.63.15,2.78.24,3.93.37,4.07.46,8.14,1.09,12.22,1.38,10,.7,19.94.55,29.63-2.32a18.1,18.1,0,0,1,2.52-.39c-.3.42-.5,1-.92,1.23a35.54,35.54,0,0,1-5.08,2.43,3.64,3.64,0,0,0-2.73,3.29c-1.4,9-.46,17.84.62,26.74.39,3.22,1.9,5.25,6.8,4.3a13.57,13.57,0,0,0,4-1.6,16.48,16.48,0,0,0,6.13-6.35,28.88,28.88,0,0,0,3.6-9.7c1.47-9.11,3.21-18.19,2.8-27.48-.08-1.92.17-3.85.19-5.77.09-7.43.19-14.86.2-22.29a36.46,36.46,0,0,0-.55-4.92C308.59,463.2,308,463,307.14,463Z"/><path class="cls-17" d="M358.06,315.18c0,3.24,1.68,4.63,4.78,5.08l1.18.2a39.85,39.85,0,0,0-1.86-13.75c-1.93,1-4.16.83-5.47,2.29C357.21,311.2,358.07,313.19,358.06,315.18Z"/><path class="cls-18" d="M212.19,496.32a67.83,67.83,0,0,1-1.05-8.18q-.2-14.23,0-28.46c0-2.5-.33-4.34-2.73-6C200,448,197.13,438.19,201,428.66a49.2,49.2,0,0,1,3.68-7c1.31-2.14,2.89-4.14,4.35-6.2,2.78-3.93,2.46-7-1.14-10.3-1.05-1-2.24-1.78-3.38-2.64a25.23,25.23,0,0,0-20.95-4.87C171.74,400,163.84,409,164.25,420.27a28.1,28.1,0,0,0,.23,3.29c1.07,6.88,5.3,11.72,12,14.19,5.56,2.06,9.11.4,11.38-4A25.06,25.06,0,0,0,190.55,421a9.18,9.18,0,0,0-1-3.54,5.54,5.54,0,0,0-4.83-3.11c-2.48-.2-4.9.2-6.17,2.33s-2.3,4.81-1.09,7.48a2.67,2.67,0,0,0,4.29,1.1,29.37,29.37,0,0,0,2.67-2.64,5.07,5.07,0,0,1-3,4.82,4.87,4.87,0,0,1-7.23-2.28c-1.85-4.13.28-10.52,4.46-12.76a9,9,0,0,1,4.16-1c6.6.05,11.66,5.18,11,11.4A34.79,34.79,0,0,1,188.77,438c-3.06,4.85-6.07,9.73-8.92,14.69A44.76,44.76,0,0,0,174.23,479a20.76,20.76,0,0,0,9.28,16.16c8.08,5.67,17.22,7.26,27,6.45,1.81-.15,2.22-.72,2.1-2.47C212.56,498.21,212.32,497.27,212.19,496.32Z"/><path class="cls-19" d="M290.47,506.12c-1-.93-3-3.73-4-3.73-8.21,0-16.32-1-24.62-1.21-16.16-.4-17.68,2.13-16,5.21,1.6.06,24.28,4.2,25.87,4.28,3.15.16,6.27-1,9.7-.39.06,4,.05,7.65.17,11.35.16,5.09.36,10.17.65,15.25a13.84,13.84,0,0,0,.85,4c1,2.74,3.28,4,6.43,4a15.06,15.06,0,0,0,4.8-.76C289,532.08,291.37,518.72,290.47,506.12Z"/><path class="cls-18" d="M300.13,397.25a20,20,0,0,1-2-2.16l3-.46c-26.11-2.22-50.93-11.78-72.45-23.16-11.9-6.29-39.37-15.13-35.58-91.18,1.19-23.82,3.48-47.42,13.41-69.6a65.92,65.92,0,0,0-6.28,2.16,10.75,10.75,0,0,1-1.64.32c0-1.88.08-3.64,0-5.39-.27-4.75-1.41-9.26-4.54-13.14-3-3.67-6.87-4.94-11.66-3.95a15,15,0,0,0-11.34,8.88,58.66,58.66,0,0,0-5.17,18.7c-.62,7-1.1,14-1.71,21a80.37,80.37,0,0,1-1.14,9.43c-1.72,8.23-3.67,16.42-5.49,24.64-3.25,14.7-6.18,29.42-5.53,44.56a96,96,0,0,0,3.47,22.81C159.61,354.88,168.19,366,181,374.2a153.22,153.22,0,0,0,24,12.13,128.18,128.18,0,0,0,22.66,6.54,17.76,17.76,0,0,1,2.43.92l-15.75,16-.08-.17a40.08,40.08,0,0,1-3.58,7.68s0,0,0,.05c0,3.6-5.91,3.84-6,.24-.11-9.52-12.53-13.67-20.75-15.06-5.84-1-11.46-1.08-16.7.42a23.19,23.19,0,0,0-5.27,9.65,36.44,36.44,0,0,0-.85,4.46c-2,13.35,9.43,24,19.29,24.56a7.15,7.15,0,0,1,1.47.48c-.69,1.3-1.28,2.53-2,3.7-2.39,4.11-4.83,8.19-6.37,12.67a46.77,46.77,0,0,0-2.28,23.18c1.51,9.14,11.28,20.2,23.59,22.65a66.18,66.18,0,0,0,13.1,1.2c1.46,0,2.92.08,4.38.19a2,2,0,0,1,2,1.83c.51,2.85,1.15,5.68,1.64,8.53a52.47,52.47,0,0,0,7.68,19.62,19.46,19.46,0,0,0,11.13,8.35c-8.36-25.21-19.25-61.46,8.08-75.82-.36-.38-.71-.77-1-1.17l-.12-.13c-1-1.87,0-5.6,2-7.46-10.94-5.6-28.84-10.57-30.83-20.83-3-15.06,10.59-31.75,32-36.38,17.47-3.78,36.91-1,52.56-.62A33.14,33.14,0,0,0,305,401Z"/><path class="cls-20" d="M280,393.35c-14.83,2.39-32,5-46.07-1.46-5.31-2.43-9.79-6.58-9.6-12.3.23-7,6.1-13.2,11.18-17.92a111.18,111.18,0,0,1,25.29-17.34c8-4.07,17.23-7.66,26.63-7.33,18.27.65,30.4,17.73,34,32.44,1.65,6.81,1.73,15.33-5.14,19.86S299.09,393.11,291,393q-.55,0-.48-.51Z"/><path class="cls-11" d="M353.39,332.39a17.26,17.26,0,0,0,.71-2.1c2.46-12.47-.82-23.44-10-32.77a21.18,21.18,0,0,0-5.54-4c-5.84-2.93-11.91-2.51-17.8-.18-4.29,1.7-6.78,5.15-8.42,9.11a43.62,43.62,0,0,0-3.1,22.26c.4,3.25.75,6.55,3.08,10.36.64-5.33,1.63-9.45,5.08-12.62s7.36-5.41,12.29-5.82C341.23,315.7,347.9,320.09,353.39,332.39Z"/><path class="cls-11" d="M234.92,298.1c-2.67-4.21-6.86-6.7-11.51-8.54a9.89,9.89,0,0,0-4.29-.59,40.73,40.73,0,0,0-15.94,4.21c-7.18,3.81-11.9,9.54-15.27,16.51-4.89,10.11-3.24,20,.11,30,.3,0,.78-1.94.9-2.88.57-4.42,1.62-8.76,5-12.1,6.85-6.77,19.64-13.9,34.33-7.52,5.8,2.52,9.88,6.26,11.92,11.94.4,1.12.82,2.24,1.51,4.12a13.5,13.5,0,0,0,.74-2.17,56.09,56.09,0,0,0-5-28.58A36,36,0,0,0,234.92,298.1Z"/><path class="cls-21" d="M293.1,451.09c-2.54-4,2.12-7.93,6-10.18l0-.2c-2.7-18-5.41-43.73-24.68-51.23-8.79-3.42-17.72.07-23.43,7.46-7.47,9.65-9.73,22.79-12.19,34.56l-1.09,5.27c9.57,4.62,19.41,11.06,14.64,21.78-3,6.42-9.57,5.75-16,4.66,1.22,11.68,5.41,22.81,15.06,30.1,15,11.31,39,7,48.94-9.46,3.8-6.28,4.25-13.41,3.05-20.56l0-.24C298.47,461.37,297,454.77,293.1,451.09Z"/><path class="cls-22" d="M229.82,431.5c2.25,6.34,9.61,8.42,16.07,11.48-1.91-3.27-3.94-6.69-6.13-10.54-3.55-5-2.87-11.3-.7-17.76C232.33,417.57,227.18,424.9,229.82,431.5Z"/><path class="cls-22" d="M258.66,470.68A111.66,111.66,0,0,0,249.86,450c-1.58,2.77,1.29,6.44-1.15,9.49-2.4,2.25-4.17,5.1-6.84,7.59.33.4.67.79,1,1.17a44.82,44.82,0,0,1,7.8-3.17,44.82,44.82,0,0,0-7.8,3.17c2.83,3,6.6,5.52,8.48,9.28,5.82,4.12,12.25,6.06,18.74,8.84C264.43,482.06,260.25,476.67,258.66,470.68Z"/><path class="cls-23" d="M278.32,339.38a40.08,40.08,0,0,1-4.81-.63,4.33,4.33,0,0,1-3.59-3.24c-.38-1.84.59-3.17,2-4.29,3.77-3,12-3.68,16.26-1.41,3.54,1.86,3.74,5.56.25,7.54a17.1,17.1,0,0,1-4.91,1.63A42.23,42.23,0,0,1,278.32,339.38Z"/><path class="cls-24" d="M229.69,270.11a9.68,9.68,0,0,1-.45,1.37.88.88,0,0,1-.66.43c-.39,0-1-.12-1.12-.36-.35-.72-.44-1.56-.76-2.3a18.4,18.4,0,0,0-2.16-4.4c-1.54-1.89-3.88-1.44-4.72.83-.52,1.4-.55,3-1,4.4a2.32,2.32,0,0,1-1.33,1.42,1.71,1.71,0,0,1-2-1.24c-1-2.75.6-7.26,3.19-8.83a5.79,5.79,0,0,1,6.56.35C228.27,263.74,229.41,266.63,229.69,270.11Z"/><path class="cls-24" d="M315.46,269.54c.07-.66.09-1.07.16-1.47a7.48,7.48,0,0,1,6.29-6.1,7.17,7.17,0,0,1,7.42,4.69,11.55,11.55,0,0,1,.6,4,1.9,1.9,0,0,1-1.23,1.4,2.15,2.15,0,0,1-1.67-.93,10.76,10.76,0,0,1-.67-2.37,8.12,8.12,0,0,0-.91-2.28,3,3,0,0,0-5.09-.09,12.15,12.15,0,0,0-1.38,3c-.3.77-.37,1.63-.74,2.36a1.81,1.81,0,0,1-1.22,1,1.73,1.73,0,0,1-1.16-1A10.62,10.62,0,0,1,315.46,269.54Z"/><path class="cls-24" d="M337.21,212.53c-.08,4.79.38,9.38,2.75,13.65a4.91,4.91,0,0,1,.49,1.55.78.78,0,0,1-.33.69,2,2,0,0,1-1.17.09,2.13,2.13,0,0,1-1-.72,15,15,0,0,1-1.81-2.79,34.16,34.16,0,0,1-2.61-14.87,3.35,3.35,0,0,1,0-.41c.28-1.69,1.06-2.69,2.13-2.76s1.85,1.13,1.75,3.21C337.38,211,337.28,211.81,337.21,212.53Z"/><path class="cls-24" d="M185.48,208.26a27.35,27.35,0,0,1-3.32,12.35,11.84,11.84,0,0,1-1.91,2.2.87.87,0,0,1-.76.17,1.73,1.73,0,0,1-.68-.91,2.28,2.28,0,0,1,.2-1.19c1.8-4.66,3.09-9.41,2.83-14.43a1.24,1.24,0,0,1,.15-.79c.33-.41.73-1,1.17-1a1.71,1.71,0,0,1,1.43.65A21.62,21.62,0,0,1,185.48,208.26Z"/><path class="cls-24" d="M203.85,365.53a3.66,3.66,0,0,1,.93-1.66,1.34,1.34,0,0,1,1.22-.18c.22.07.5.65.47,1-.17,2.44-.36,4.89-.64,7.32-.1.87-.66,1.58-1.43,1.34a2.29,2.29,0,0,1-1.11-1.35A29.16,29.16,0,0,1,203.85,365.53Z"/><path class="cls-24" d="M336.32,365.76a26.12,26.12,0,0,1-.12-3.53,1.56,1.56,0,0,1,1-1.09,1.68,1.68,0,0,1,1.35.74A8.21,8.21,0,0,1,339,369a2.07,2.07,0,0,1-1.54,1.09c-.46,0-1.14-.84-1.22-1.37A14.41,14.41,0,0,1,336.32,365.76Z"/><path class="cls-24" d="M219.08,365.76c0,2.44,0,4.34-.15,6.23a2,2,0,0,1-1.11,1.46,1.32,1.32,0,0,1-1.63-1.43c.1-2.29.33-4.57.64-6.84a1.5,1.5,0,0,1,1.22-.8c.39.06.72.69,1,1.12C219.17,365.71,219.1,366,219.08,365.76Z"/><path class="cls-24" d="M346.27,368.62a1.7,1.7,0,0,1-1.33.76,1.5,1.5,0,0,1-1-1c-.22-2.41-.34-4.84-.41-7.26,0-.31.45-.9.67-.89.48,0,1.26.24,1.38.56C346.15,362.4,347.23,366.52,346.27,368.62Z"/><path class="cls-24" d="M212.87,365.4c0,2.56-.05,5.12-.22,7.67,0,.29-.83.66-1.32.76a1.33,1.33,0,0,1-1-.56,2.44,2.44,0,0,1-.5-1.51c.34-2.12.77-4.24,1.26-6.34C211.14,365.1,212.79,362.5,212.87,365.4Z"/><path class="cls-24" d="M329.17,365.61c0,.37,0-.18,0-.72.08-1-.31-2.59,1.25-2.54,1.38,0,1.31,1.65,1.36,2.7a15.81,15.81,0,0,1-.27,4.08c-.87,3.94-3,1.83-2.64-.15C329,368.19,329,367.34,329.17,365.61Z"/><path d="M363.41,291.73c-1.23-8.45-3.79-16.65-4.94-25.12-.81-6-2.4-11.89-3.47-17.85-1.31-7.32-2.57-14.66-3.62-22-.66-4.63-.89-9.31-1.33-14a30.8,30.8,0,0,0-3.61-12.67,24.21,24.21,0,0,0-4-5.37c-3.27-3.16-6.61-3.31-10.61-1.11a14.83,14.83,0,0,0-5.45,5.25c-3.06,4.83-4.45,10.15-5.35,15.62-.22,1.34,0,2.77-1.39,4-.74-.2-1.56-.41-2.37-.66-3.89-1.21-7.77-2.49-11.68-3.64-11.11-3.26-22.56-4.87-34.07-6.14-14-1.53-28-2.59-42.14-1.22-10,1-19.8,2.29-29.08,6a10.75,10.75,0,0,1-1.64.32c0-1.88.08-3.64,0-5.39-.27-4.75-1.41-9.26-4.54-13.14-3-3.67-6.87-4.94-11.66-3.95a15,15,0,0,0-11.34,8.88,58.66,58.66,0,0,0-5.17,18.7c-.62,7-1.1,14-1.71,21a80.37,80.37,0,0,1-1.14,9.43c-1.72,8.23-3.67,16.42-5.49,24.64-3.25,14.7-6.18,29.42-5.53,44.56a96,96,0,0,0,3.47,22.81C159.61,354.88,168.19,366,181,374.2a153.22,153.22,0,0,0,24,12.13,128.18,128.18,0,0,0,22.66,6.54,17.76,17.76,0,0,1,2.43.92l-15.75,16c-.68-1.3-1.11-2.32-1.71-3.23a14.81,14.81,0,0,0-2.33-3c-8-7.17-17.3-10.69-28.5-8.26-10.13,2.19-17.07,7.63-19.8,17.28a36.44,36.44,0,0,0-.85,4.46c-2,13.35,9.43,24,19.29,24.56a7.15,7.15,0,0,1,1.47.48c-.69,1.3-1.28,2.53-2,3.7-2.39,4.11-4.83,8.19-6.37,12.67a46.77,46.77,0,0,0-2.28,23.18c1.51,9.14,11.28,20.2,23.59,22.65a66.18,66.18,0,0,0,13.1,1.2c1.46,0,2.92.08,4.38.19a2,2,0,0,1,2,1.83c.51,2.85,1.15,5.68,1.64,8.53a52.47,52.47,0,0,0,7.68,19.62c3.36,5.25,8.26,8.06,14.43,9.13,5,.85,8.87-1.83,9.87-6.51.14-.67.19-1.36.29-2q1.55-11.26,3.09-22.51c.2-1.47.31-3,.48-4.57,3.45.35,6.63.75,9.82,1,3.36.24,6.73.3,10.1.47,3.15.16,6.27-1,9.7-.39.06,4,.05,7.65.17,11.35.16,5.09.36,10.17.65,15.25a13.84,13.84,0,0,0,.85,4c1,2.74,3.28,4,6.43,4,4.92,0,8.69-2.12,11.86-5.43a25.41,25.41,0,0,0,6.44-12.93c1.19-5.94,2-12,3-17.93a182.83,182.83,0,0,0,2-43.22c-.31-4.71-.89-4.12,4.11-5.61A40.66,40.66,0,0,0,329.53,454c5.65-4.11,8.39-9.32,6.9-16.24a36.26,36.26,0,0,0-6.64-14.25,77.33,77.33,0,0,0-15.4-15.22c-4.79-3.63-9.53-7.33-14.27-11a20,20,0,0,1-2-2.16c2-.28,3.35-.54,4.76-.68a124.77,124.77,0,0,0,32.8-7.44c6.83-2.63,13.28-5.8,18.91-10.36a26.73,26.73,0,0,0,8.28-11,64,64,0,0,0,2.21-6.7c2.13-7.78,2.72-15.75,2.79-23.74a153.93,153.93,0,0,0-.55-18.55C366.4,308.28,364.62,300,363.41,291.73Zm.6,28.73-1.18-.2c-3.1-.45-4.79-1.84-4.78-5.08,0-2-.85-4-1.37-6.18,1.31-1.45,3.54-1.29,5.47-2.29A39.85,39.85,0,0,1,364,320.46ZM210.52,501.64c-9.8.81-18.94-.79-27-6.45A20.76,20.76,0,0,1,174.23,479a44.76,44.76,0,0,1,5.62-26.34c2.86-5,5.86-9.84,8.92-14.69a34.79,34.79,0,0,0,5.09-15.22c.64-6.22-4.42-11.35-11-11.4a9,9,0,0,0-4.16,1c-4.18,2.25-6.32,8.63-4.46,12.76a4.87,4.87,0,0,0,7.23,2.28,5.07,5.07,0,0,0,3-4.82,29.37,29.37,0,0,1-2.67,2.64,2.67,2.67,0,0,1-4.29-1.1c-1.21-2.67-.26-5.21,1.09-7.48s3.69-2.52,6.17-2.33a5.54,5.54,0,0,1,4.83,3.11,9.18,9.18,0,0,1,1,3.54,25.06,25.06,0,0,1-2.73,12.81c-2.27,4.37-5.83,6-11.38,4-6.66-2.47-10.89-7.3-12-14.19a28.1,28.1,0,0,1-.23-3.29c-.41-11.26,7.49-20.32,19.31-22.63a25.23,25.23,0,0,1,20.95,4.87c1.15.86,2.33,1.68,3.38,2.64,3.6,3.27,3.92,6.37,1.14,10.3-1.46,2.06-3,4.06-4.35,6.2a49.2,49.2,0,0,0-3.68,7c-3.86,9.53-1,19.37,7.41,25.06,2.4,1.62,2.76,3.45,2.73,6q-.2,14.23,0,28.46a67.83,67.83,0,0,0,1.05,8.18c.13,1,.37,1.9.43,2.85C212.75,500.91,212.33,501.49,210.52,501.64ZM309,491.23c0,1.93-.27,3.85-.19,5.77.41,9.29-1.33,18.37-2.8,27.48a28.88,28.88,0,0,1-3.6,9.7,16.48,16.48,0,0,1-6.13,6.35,13.57,13.57,0,0,1-4,1.6c-4.9,1-6.41-1.08-6.8-4.3-1.08-8.89-2-17.78-.62-26.74a3.64,3.64,0,0,1,2.73-3.29,35.54,35.54,0,0,0,5.08-2.43c.42-.23.62-.81.92-1.23a18.1,18.1,0,0,0-2.52.39c-9.69,2.88-19.64,3-29.63,2.32-4.09-.28-8.15-.91-12.22-1.38-1.15-.13-2.3-.22-3.93-.37-.56.8.73,1.36,1.12,1.53,2,.87,2.56,2.22,2.36,4.27-.83,8.63-1.54,17.26-3.48,25.76a11.51,11.51,0,0,1-.71,2.37c-1.07,2.27-2.66,3.18-5.27,2.61a49.69,49.69,0,0,1-7.92-2.4,7.71,7.71,0,0,1-3.23-2.65,50.28,50.28,0,0,1-6.86-13.76c-3.17-10-4.65-20.43-7.43-30.55a30.94,30.94,0,0,1-.71-7c-.29-7.43-.66-14.85.57-22.25.9-5.43,1.09-5.58,6.53-3.81,4.43,1.45,8.83,3,13.29,4.33,2.34.71,5.18.58,7.06,1.81s2.48,3.64,3.79,5.46c1.06,1.48,2.35,2.82,3.46,4.27a20.49,20.49,0,0,0,8.07,6.23c1.72.77,3.42,1.58,5.17,2.29,4.07,1.66,7.89,3.6,10.91,6.78,1.42,1.5,2.22,1.48,3.56-.07a22.82,22.82,0,0,1,6.09-4.68c3.5-2,6.92-4.16,10.47-6.09,6-3.25,10.38-7.61,12.1-14,.4-1.51,1.07-2.51,2.87-2.57.85,0,1.45.21,1.56,1a36.46,36.46,0,0,1,.55,4.92C309.24,476.37,309.14,483.8,309,491.23Zm-73-61.52a51,51,0,0,1-4.61-3.07,2.28,2.28,0,0,1-.53-3,11.4,11.4,0,0,1,3.67-4.53,25.07,25.07,0,0,1,9.36-4.36,80.64,80.64,0,0,1,20.39-2.33c2.65,0,3.08.34,3.56,2.7.44,2.15.63,4.35.94,6.53a19.44,19.44,0,0,0,.48,2.83,1.73,1.73,0,0,0,2.47.92,9.11,9.11,0,0,0,4.14-4.13c1.08-2.25,2.13-4.51,3.19-6.77.85-1.81,1-2,2.9-1.67,6.48,1,13,2.08,19.43,3.23a25.45,25.45,0,0,1,5.44,1.56c2.92,1.23,3.79,3.91,2.13,6.43a13.25,13.25,0,0,1-2.84,3.09c-2,1.58-4.21,3-6.29,4.47a16,16,0,0,0-1.72,1.67s6.81-2.13,9.83-4c.7-.45,1.34-1,2.1-1.53a5.34,5.34,0,0,1-.47,4.6,3.92,3.92,0,0,1-1.78,1.59c-2,.9-4,1.63-6,2.44a18.15,18.15,0,0,0-7.49,4.91c-1.46,1.75-3.37,2.41-5.51,3.09-8.81,2.79-17.85,2.81-27,2.28-1.32-.08-2.64-.12-4-.21-4-.29-7.57-1.06-10.92-3.53a152.47,152.47,0,0,0-14.67-9c-1.79-1-2.37-2.25-2-4.42.81.31,1.54.57,2.24.87a51.76,51.76,0,0,0,8.27,2.18C239.27,431.53,237.65,430.67,236.1,429.71Zm32.6-23.55A16,16,0,0,1,275,406a2.15,2.15,0,0,1,1.53,1.19c.8,3,0,6-.71,8.89a14.46,14.46,0,0,1-4.44,7.47Zm-17.18,49.09c-.45-1.75-.31-3.16,1.27-4.41.59-.47.77-1.4,1.24-2.3,11.27,2,22.45,2,33.63-1.22,1.38,2.58,3.55,4.66,3.8,7.66a2.27,2.27,0,0,0,.57,1.11c1.83,2.26,4.13,4.16,5.49,6.81.45.88,2.18,1.17,3.5,1.82.13,1.79-1,3.26-2,4.71A34.53,34.53,0,0,1,289,478c-2.7,1.66-5.46,3.23-8.08,5-2.37,1.57-4.6,3.34-7,5.12-3.75-3.48-8.3-5.62-13.08-7.45A27.75,27.75,0,0,1,247.13,470c-.61-.93-1.1-1.94-1.67-2.9-.9-1.5-.84-2.65.76-3.88a50.6,50.6,0,0,0,4.43-4.55A3.44,3.44,0,0,0,251.51,455.25Zm61.93-44a82,82,0,0,1,14.24,14.56A29.9,29.9,0,0,1,333,437c1.27,5.58-.54,10-5.11,13.59-7.72,6-16.75,8.87-26.66,9.53-.94.06-2.93.64-2.89-.3.08-1.82-.43-3.06-1.65-3.79-.5-.29-1-.61-1.44-.94a4.89,4.89,0,0,1-.5-.42,2.17,2.17,0,0,1-.74-2.45c.57-1.36.17-2-1.09-2.59-3.69-1.62.7-4.72,2.37-6.07a36.74,36.74,0,0,1,14.66-7.21c1.84-.45,3.67-1,5.46-1.56.89-.3,2.24-.51,2-1.73-.08-.37-1.42-.54-2.2-.76a9.28,9.28,0,0,0-1.22-.18c-.78-.84-.12-1.61,0-2.34.75-3.53-.11-6.82-1.49-10.06a6.76,6.76,0,0,0-3.78-3.85,14,14,0,0,1-7.17-6.39,2.67,2.67,0,0,0-1.79-1.23l.73,4.07c-1.57.68-3.11.12-4.63-.14-4.47-.76-8.91-1.62-13.39-2.29-1.82-.27-2.77-.84-3.16-2.71-.69-3.33-1-3.55-4.59-3.88a35.46,35.46,0,0,0-7-.07c-2.85.3-3.05.78-2.69,3.56.05.4.13.81.25,1.6a81.21,81.21,0,0,0-28.21,5.67l.38-5.23c-2.21,1.07-2.86,2.77-3.6,4.34a19.23,19.23,0,0,1-2.89,4.58c-2.37,2.72-3.42,6-4.17,9.43-.38,1.74-.78,3.47-1.25,5.56a46.92,46.92,0,0,0,7.41,4.46c2.79,1.51,5.72,2.84,8.35,4.57a64.29,64.29,0,0,1,7.39,5.83c1.77,1.57,1.54,2.07-1,3.59a36.12,36.12,0,0,1,.94,3.55c.34,2-.18,2.71-2.31,3.3-.68.19-1.41.24-2.58.43.55.55.83,1,1.24,1.2.68.32.79.67.46,1.28a3.41,3.41,0,0,1-2.79,1.77,11.49,11.49,0,0,1-5.18-.41c-4.94-1.72-10-3.26-14.94-4.87A41.86,41.86,0,0,1,206,446.91c-3.85-3.82-4.26-8.66-3.34-13.57a19.54,19.54,0,0,1,4-9.07c4.76-5.76,9.51-11.53,14.37-17.21,2.2-2.57,4.66-4.95,7-7.38,1-1,2-2,3.11-2.92a8.39,8.39,0,0,1,7.63-1.87c13,2.55,26.21,2.6,39.42,1.54,4.53-.37,9.06-.69,13.58-1.12a6.14,6.14,0,0,1,5,1.76Q305,404.3,313.44,411.21Zm48-52.75c-.41,1.6-1,3.18-1.52,4.74a22.55,22.55,0,0,1-8,10.66,72.26,72.26,0,0,1-28.73,12.81,310.29,310.29,0,0,1-36,5.19c-6.13.52-12.27,1.11-18.42,1.25-5.41.13-10.85-.19-16.26-.53a217.24,217.24,0,0,1-30.41-4.27,73,73,0,0,1-19.4-6.46c-4.73-2.48-9.51-4.89-14.23-7.4C173,366.24,163,353.95,158.39,337.92A60.85,60.85,0,0,1,156.32,327a128.76,128.76,0,0,1,2.38-39.42c2.85-13.49,5.9-26.94,9-40.38.88-3.79.7-7.61,1.05-11.42.73-7.94,1-15.94,2.77-23.76a90,90,0,0,1,3.53-11,9.65,9.65,0,0,1,5.56-5.57c4.45-1.9,7.62-1,10,3,2.3,3.82,2.93,8,3,12.34,0,.55-.06,1.1-.1,1.65-.41,5.19,0,3.83-3.77,6.82q-4,3.18-8,6.5a9,9,0,0,0-2.2,2.53,2.57,2.57,0,0,0,.13,2.23c.51.82,1.56.63,2.35.18a18,18,0,0,0,2.07-1.53c1.91-1.5,3.83-3,5.71-4.53,8.09-6.64,17.64-10.18,28.13-11.81a172.41,172.41,0,0,1,34.64-1.78,302.56,302.56,0,0,1,38.86,4.22,145.93,145.93,0,0,1,29,8.26,106.63,106.63,0,0,1,10,5.18c.89.47,1.72,1,2.62,1.47a.86.86,0,0,0,.79-.15c.22-.3.49-.83.35-1.06a10.38,10.38,0,0,0-2-2.67,38.3,38.3,0,0,0-5.53-4.06,3.41,3.41,0,0,1-2-3.71,51.82,51.82,0,0,1,3.54-16.51,12.72,12.72,0,0,1,4.47-6c1.82-1.24,3.56-1.37,5.22-.14a15.35,15.35,0,0,1,3.56,3.54,27.12,27.12,0,0,1,4,10.42,36.21,36.21,0,0,1,.6,5.33c.44,11.17,2.4,22.15,4.49,33.11,1.45,7.59,3.4,15,5.52,22.49,1.62,5.69,2.47,11.59,3.53,17.41.84,4.61,1.49,9.24,2.26,14.1l-7.73,1.86-6.38-8.29c1-1.31,2.16-2.7,3.22-4.13,1.33-1.8,1.4-3.11.28-4.08s-3-.8-4.68.67c-1.26,1.13-2.33,3-3.75,3.26s-3.12-1.13-4.74-1.71a26.66,26.66,0,0,0-16-.82,19.88,19.88,0,0,0-12.5,9.77,34.79,34.79,0,0,0-4.48,16.65,85.47,85.47,0,0,0,.38,10.72A33.66,33.66,0,0,0,317.33,349c6.71,5.78,14.81,7.51,23.3,4.6a23.33,23.33,0,0,0,12.31-10.19c2.94-4.87,4.28-10.21,5.29-15.65.2-1.07.38-2.14.55-3.13l5.52-1.36c.13.26.34.5.34.75C364.8,335.59,364.4,347.13,361.46,358.46Zm-19.87-19.61a15.17,15.17,0,0,1,1.23,3.49,2.45,2.45,0,0,1-.87,2.08,2.93,2.93,0,0,1-2.38-.07c-1.4-.71-2.62-1.72-3.95-2.57a2.08,2.08,0,0,0-2.44.07c-.94.65-1.85,1.34-2.81,2a18.08,18.08,0,0,1-2.55,1.58c-1.81.81-3.28-.12-3.19-2.16l.88-4.22a2.48,2.48,0,0,0-1.19-2.83,14.45,14.45,0,0,1-3.18-2.77c-1.46-1.83-.7-3.86,1.65-4.52a13.49,13.49,0,0,1,3.45-.34c1.2,0,1.9-.39,2.11-1.57a13.87,13.87,0,0,1,.85-3.18c1-2.17,3.14-2.46,4.85-.72a6.51,6.51,0,0,1,1.3,1.64c1.38,3,3.35,5,7.18,4.58a3,3,0,0,1,1.57.64,1.87,1.87,0,0,1,.68,2.84,10.51,10.51,0,0,1-2.2,2C340.09,336.49,340.7,336.71,341.59,338.84Zm-7.21,11.48a1.5,1.5,0,0,1-1.76-1.32,1.58,1.58,0,0,1,1.71-1.8,2.78,2.78,0,0,1,1.76.9C336.83,349.16,335.44,350.25,334.39,350.33Zm-4.66-33.68c-4.93.41-8.84,2.66-12.29,5.82s-4.44,7.28-5.08,12.62c-2.33-3.81-2.68-7.11-3.08-10.36a43.62,43.62,0,0,1,3.1-22.26c1.63-4,4.13-7.41,8.42-9.11,5.89-2.33,12-2.75,17.8.18a21.18,21.18,0,0,1,5.54,4c9.15,9.33,12.42,20.31,10,32.77a17.26,17.26,0,0,1-.71,2.1C347.9,320.09,341.23,315.7,329.72,316.65Zm-9.57,23.79a1.77,1.77,0,0,1-1.78,1.92,2.11,2.11,0,0,1-2.32-1.95,2,2,0,0,1,4.09,0Z"/><path d="M238.91,298A26.16,26.16,0,0,0,228,287.48a17.08,17.08,0,0,0-11-2.12c-6.58.93-12.93,2.48-18.42,6.25-.58.4-1.22.73-1.72,1a3.53,3.53,0,0,1-1-.39c-1-1-2-2-3.06-3a16,16,0,0,0-2.59-2.19A2.13,2.13,0,0,0,187,289a5.74,5.74,0,0,0,1.07,2.64c1.25,1.68,2.68,3.23,4,4.84l-5.51,7.2c-1.94-1-3.7-1.94-5.52-2.8-2.12-1-3.46-.79-4.16.6-.59,1.16-.13,2.2,1.71,3.34s3.73,2.14,5.7,3.25c-.86,2.58-1.69,5.05-2.49,7.53-.32,1-1.08,1.12-2,1.08a39,39,0,0,0-4.38,0,2.06,2.06,0,0,0-2,1.91,2.08,2.08,0,0,0,1.58,2.22,13.87,13.87,0,0,0,2.56.56c1,.14,2,.2,3.16.3.32,2.83.62,5.55.94,8.26,1.43,12.08,8.67,20.42,19.43,26.47a15,15,0,0,0,3.63,1.45c11.83,3,22.46.38,31.68-6.8,6.94-5.4,9.81-12.84,9.92-21.23,0-2.2,0-4.41-.1-6.6A58.87,58.87,0,0,0,238.91,298Zm-41.53,45.84a3.13,3.13,0,0,1,.08-6.27,3,3,0,0,1,2.91,3A3.07,3.07,0,0,1,197.38,343.82Zm19.09,10.09a1.92,1.92,0,0,1-2-1.73A2.26,2.26,0,0,1,217,350a2.56,2.56,0,0,1,2.35,2C219.32,353,217.92,354,216.47,353.91Zm15.87-19.19c-3.94,1.63-4.68,4.09-2.9,7.56a5.54,5.54,0,0,1,.44,2c.29,3.21-1.59,4.67-4.89,3.53a16.18,16.18,0,0,1-4.4-2.6c-1.29-1-2.37-1.32-3.91-.47a31.68,31.68,0,0,1-4.79,2,9.92,9.92,0,0,1-3,.53,2,2,0,0,1-2.26-2,23.75,23.75,0,0,1,.62-5.69c.56-2.14.23-3.7-1.81-4.94a12.79,12.79,0,0,1-2.55-2.24,2.82,2.82,0,0,1-.49-3.45,3,3,0,0,1,2.92-1.45h2c2.62.47,4.38-.17,5.47-2.47a11,11,0,0,1,2.62-3.25c1.79-1.61,3.75-1.37,5.17.57a40.21,40.21,0,0,1,2.69,4.24,3.75,3.75,0,0,0,3.07,2,13.55,13.55,0,0,1,3.42.67,9.46,9.46,0,0,1,3.19,2A2,2,0,0,1,232.34,334.72ZM242.42,331a13.5,13.5,0,0,1-.74,2.17c-.69-1.88-1.11-3-1.51-4.12-2-5.68-6.12-9.42-11.92-11.94-14.69-6.38-27.49.75-34.33,7.52-3.37,3.34-4.41,7.68-5,12.1-.12.94-.61,2.87-.9,2.88-3.35-9.94-5-19.85-.11-30,3.37-7,8.08-12.7,15.27-16.51A40.73,40.73,0,0,1,219.12,289a9.89,9.89,0,0,1,4.29.59c4.65,1.84,8.84,4.33,11.51,8.54a36,36,0,0,1,2.48,4.36A56.09,56.09,0,0,1,242.42,331Z"/><path class="cls-25" d="M229.79,329.29a13.55,13.55,0,0,0-3.42-.67,3.75,3.75,0,0,1-3.07-2,40.21,40.21,0,0,0-2.69-4.24c-1.42-1.94-3.38-2.18-5.17-.57a11,11,0,0,0-2.62,3.25c-1.08,2.3-2.84,2.95-5.47,2.47h-2a3,3,0,0,0-2.92,1.45,2.82,2.82,0,0,0,.49,3.45,12.79,12.79,0,0,0,2.55,2.24c2,1.24,2.38,2.8,1.81,4.94a23.75,23.75,0,0,0-.62,5.69,2,2,0,0,0,2.26,2,9.92,9.92,0,0,0,3-.53,31.68,31.68,0,0,0,4.79-2c1.54-.85,2.63-.52,3.91.47a16.18,16.18,0,0,0,4.4,2.6c3.3,1.14,5.18-.32,4.89-3.53a5.54,5.54,0,0,0-.44-2c-1.78-3.47-1-5.93,2.9-7.56a2,2,0,0,0,.64-3.45A9.46,9.46,0,0,0,229.79,329.29Z"/><path class="cls-25" d="M217,350a2.26,2.26,0,0,0-2.48,2.22,1.92,1.92,0,0,0,2,1.73c1.45.05,2.85-.9,2.84-1.94A2.56,2.56,0,0,0,217,350Z"/><path class="cls-25" d="M197.46,337.55a3.13,3.13,0,0,0-.08,6.27,3.07,3.07,0,0,0,3-3.29A3,3,0,0,0,197.46,337.55Z"/><path class="cls-25" d="M342.61,334.76a10.51,10.51,0,0,0,2.2-2,1.87,1.87,0,0,0-.68-2.84,3,3,0,0,0-1.57-.64c-3.83.4-5.8-1.63-7.18-4.58a6.51,6.51,0,0,0-1.3-1.64c-1.7-1.75-3.9-1.45-4.85.72a13.87,13.87,0,0,0-.85,3.18c-.21,1.18-.91,1.56-2.11,1.57a13.49,13.49,0,0,0-3.45.34c-2.35.66-3.12,2.69-1.65,4.52a14.45,14.45,0,0,0,3.18,2.77,2.48,2.48,0,0,1,1.19,2.83l-.88,4.22c-.09,2,1.38,3,3.19,2.16a18.08,18.08,0,0,0,2.55-1.58c1-.64,1.86-1.33,2.81-2a2.08,2.08,0,0,1,2.44-.07c1.32.85,2.55,1.86,3.95,2.57a2.93,2.93,0,0,0,2.38.07,2.45,2.45,0,0,0,.87-2.08,15.17,15.17,0,0,0-1.23-3.49C340.7,336.71,340.09,336.49,342.61,334.76Z"/><path class="cls-25" d="M334.33,347.2a1.58,1.58,0,0,0-1.71,1.8,1.5,1.5,0,0,0,1.76,1.32c1.06-.07,2.45-1.16,1.71-2.22A2.78,2.78,0,0,0,334.33,347.2Z"/><path class="cls-25" d="M316.06,340.42a2.11,2.11,0,0,0,2.32,1.95,1.77,1.77,0,0,0,1.78-1.92,2,2,0,0,0-4.09,0Z"/><path class="cls-15" d="M296.24,82.6a32.26,32.26,0,0,0-18.89.43,36.35,36.35,0,0,0-12.93,7.15c-2,1.71-2.53.3-4.76-.68a27.69,27.69,0,0,0-35.56,11.36c-13.1,22.66,5.16,48.2,23.43,61.19,5,3.54,9.61,8,15.59,9.85,7.24,2.27,12.22-2.26,17.28-6.6a127.43,127.43,0,0,0,23.45-25.7c5.95-8.79,11.92-19.31,12.07-30.18A27.65,27.65,0,0,0,296.24,82.6Z"/><path class="cls-26" d="M265.42,113.39c1.09-2,2-3.71,2.91-5.37C272.22,101.07,278,96.85,286,95.9a13.61,13.61,0,0,1,10.13,2.5,12.74,12.74,0,0,1,5,13.63,45.13,45.13,0,0,1-5.07,12.42,101,101,0,0,1-22.2,27.22c-2,1.73-4,3.39-6,5.16a1.69,1.69,0,0,1-2.17.27c-6.56-3-12.14-7.37-17.41-12.19a50.16,50.16,0,0,1-10.49-13.57,31.11,31.11,0,0,1-3.95-13.42,17.79,17.79,0,0,1,3.24-11.3,12.87,12.87,0,0,1,14-5.07,20.25,20.25,0,0,1,11.4,8.12C263.47,110.84,264.37,112,265.42,113.39Z"/><path class="cls-27" d="M267,146.14c-17.44-3.06-29.37-22-33.4-41-.2.3-.4.6-.58.91a21.14,21.14,0,0,0-2.67,7.88c-.18,1.35-.28,2.71-.41,4.06l.72,5.54a3.93,3.93,0,0,1,.35.73,39.93,39.93,0,0,0,4.35,10.23,61,61,0,0,0,17.87,19c.93.67,1.89,1.32,2.76,2.06a43,43,0,0,0,9.57,6.29,2.81,2.81,0,0,0,3.34-.32c5.7-4.8,11.41-9.56,16.42-15.11a105.3,105.3,0,0,0,14-19.14C289.94,138,278.94,148.47,267,146.14Z"/><path class="cls-28" d="M276.17,110.28a1.57,1.57,0,0,0,2.57.68c.91-.75,1.44-1.65,2.6-2.08a11,11,0,0,1,3.4-.59,8,8,0,0,1,3.72.62c1.1.51,1.7,1.38,2.94,1.63a2.08,2.08,0,0,0,2.54-1.44C295.29,99.17,272.69,101.94,276.17,110.28Z"/><path class="cls-28" d="M254.46,109.55c-1.64-2.13-4.1-2.73-6.54-3.63a5.66,5.66,0,0,0-3.87-.08c-.79.3-1.86,1.31-1.46,2.3.71,1.75,2.35,1.79,3.85,2.59A40.68,40.68,0,0,1,251,113C253,114.47,256,111.58,254.46,109.55Z"/><path class="cls-23" d="M230,118c.13-1.35.23-2.71.41-4.06A21.14,21.14,0,0,1,233,106a16.82,16.82,0,0,1,21.18-7.61,24.33,24.33,0,0,1,9.2,6.16l1,1.07a1.33,1.33,0,0,0,.28.12l.83-1.29c4.69-7.2,11.21-11.55,19.78-12.65a19.05,19.05,0,0,1,8,.67,17.18,17.18,0,0,1,12,19.83,37.64,37.64,0,0,1-2.83,8.72c-4.2,9.47-10.25,17.68-17.14,25.33-5,5.55-10.72,10.32-16.42,15.11a2.81,2.81,0,0,1-3.34.32,43,43,0,0,1-9.57-6.29c-.87-.75-1.83-1.39-2.76-2.06a61,61,0,0,1-17.87-19A39.93,39.93,0,0,1,231,124.24a3.93,3.93,0,0,0-.35-.73Zm35.46-4.58c-1.05-1.39-2-2.55-2.81-3.72a20.25,20.25,0,0,0-11.4-8.12,12.87,12.87,0,0,0-14,5.07,17.79,17.79,0,0,0-3.24,11.3,31.11,31.11,0,0,0,3.95,13.42,50.16,50.16,0,0,0,10.49,13.57c5.27,4.82,10.85,9.2,17.41,12.19a1.69,1.69,0,0,0,2.17-.27c1.94-1.77,4-3.43,6-5.16a101,101,0,0,0,22.2-27.22A45.13,45.13,0,0,0,301.17,112a12.74,12.74,0,0,0-5-13.63A13.61,13.61,0,0,0,286,95.9c-8,.94-13.78,5.16-17.68,12.11C267.39,109.68,266.51,111.38,265.42,113.39Z"/><path class="cls-23" d="M285.79,376.32c3.12-1.2,5.22-2.67,5.93-4.44a6.88,6.88,0,0,0,.39-2.76c0-.19-.86-.45-1.44-.53a2.07,2.07,0,0,0-1.19.41,10.85,10.85,0,0,0-.94,1.81c-.83,1.78-2.87,3.24-6.19,4.36-4.4,1.49-8.77,1.21-11.88-.77a6.35,6.35,0,0,1-1.71-1.5,28.16,28.16,0,0,1-1.59-2.7,3.28,3.28,0,0,0-.69-1.07,2.64,2.64,0,0,0-1.37-.35,3.54,3.54,0,0,0-1.64.47c-.34.32-.25.72-.33,1,.42,2,1.71,3.87,4.63,5.42C272.57,378.22,280.14,378.48,285.79,376.32Z"/><g class="cls-29"><g class="cls-30"><g class="cls-31"><path class="cls-25" d="M233.23,437.76a84.89,84.89,0,0,0,7.79,7.7c7.79,6.65,16.38,12.16,24.61,18.2a26.16,26.16,0,0,0,6.85,3.62,2.15,2.15,0,0,0,2.28-.32c2.18-1.73,4.41-3.39,6.59-5.13,4.18-3.35,8.3-6.78,12.5-10.11a76.43,76.43,0,0,0,13.58-14,53.13,53.13,0,0,0,9-17.74c2.33-8.37.09-15.56-5.76-21.75a12.75,12.75,0,0,0-8.49-4.08,26.58,26.58,0,0,0-12.05,1.9,37.43,37.43,0,0,0-14.52,10.21c-2.43,2.75-2.35,2.64-4.76.19-4.79-4.86-10.51-8.16-16.6-10.88a26.32,26.32,0,0,0-12.65-2.25c-6.83.45-11.75,3.82-14.9,10-1.7,3.34-2.3,6.91-2.28,11.48.16,1.16.41,3.14.71,5.12A33.61,33.61,0,0,0,233.23,437.76Z"/><path class="cls-32" d="M254.91,438.24c5.44,5.7,11.65,10.43,18,15.62a96.3,96.3,0,0,0,10-8.51,55.15,55.15,0,0,0,11.25-14.79,22.43,22.43,0,0,0,2.44-6.75,13.34,13.34,0,0,0-.54-7.15c-1.46-3.78-4.31-5.58-8.23-5.22a14.45,14.45,0,0,0-6.89,2.45c-2.46,1.68-4.79,3.56-7.16,5.38-.49.37-.88.88-1.37,1.25a1.86,1.86,0,0,1-2.76-.19c-.59-.59-1.08-1.28-1.62-1.92a22.06,22.06,0,0,0-11.57-7.53,8.79,8.79,0,0,0-10.94,8.69,16.7,16.7,0,0,0,1.9,7.9A44.35,44.35,0,0,0,254.91,438.24Z"/><path class="cls-25" d="M276.17,470a3.56,3.56,0,0,1-4.29.34,24.37,24.37,0,0,0-2.7-1.26c-.17.29-.26.37-.26.45q.07,7.08.16,14.15a2,2,0,0,0,1.39,1.87,9.74,9.74,0,0,0,7.49.2,2.45,2.45,0,0,0,1.74-2.6c0-3.67.13-7.34.15-11,0-1.43-.13-2.86-.22-4.61A17.73,17.73,0,0,0,276.17,470Z"/><path class="cls-33" d="M279.71,487.47a2.43,2.43,0,0,0-.31-.78c-4.82,1.09-3.88,1.61-10.42.15,0,1.43.08,2.57.13,3.72.23,5,.54,10.09.67,15.14s.13,10.31.15,15.46q0,8.52,0,17c0,4-.1,8-.2,12a12.11,12.11,0,0,0,1.16,5.2c1,2.34,2.76,3,5.05,2a5.5,5.5,0,0,0,3.66-5c.06-.84.12-1.68.13-2.52q.18-10.41.34-20.82c.1-7,.29-14.09.24-21.13C280.24,501.15,279.92,494.31,279.71,487.47Z"/><path class="cls-34" d="M282.49,426.42c-.29-2.76-3.13-2.95-5.08-2.14-2.34,1-4.26,3-6.15,4.79-1.75-1.75-4.23-4.12-6.41-3.64s-2,3.06-1.55,4.85a28.65,28.65,0,0,0,3.57,7.73c1.32,2.08,3.9,5.92,6.73,4.92a.68.68,0,0,0,.44-.44l.09-.07C278.36,438.43,283.15,432.79,282.49,426.42Z"/><path class="cls-35" d="M313.24,396.79a15.71,15.71,0,0,0-10.19-5.48,26.71,26.71,0,0,0-3.37-.16c8.19,7.76,8.34,22.14,4.9,32.29-5.51,18.17-21.34,29.08-35.1,41.45-1.18,1.07-1.82,3-2.43,5.16,0,2.08,0,4.16,0,6.24,5.13-1.31,11.86-3.36,14.88-.9,0-.85,0-1.7-.05-2.54,0-2.31.19-4.61.24-6.92a2.71,2.71,0,0,1,1.06-2.15c4.26-3.59,8.35-7.42,12.79-10.76a65.42,65.42,0,0,0,19.46-23.49,53.33,53.33,0,0,0,3.52-9C321.54,411.55,319.34,403.68,313.24,396.79Z"/><path class="cls-11" d="M249.13,400.21c-6.7-6.14-13.19,4.32-15,9.93-3,9.27.4,17.94,6.37,25.08h0c1.81,2.25,6.14-.57,3.81-3.38-4.15-5-6.68-10.09-6.09-16.74a20,20,0,0,1,2.87-8.35A10.8,10.8,0,0,1,243.5,404c1.36-1.14,3.12-.73,4.72-1.11C249.27,402.65,250.1,401.11,249.13,400.21Z"/><path class="cls-11" d="M275.59,491.89a1.39,1.39,0,0,0-2.5-.55c-1.36,1.89-1.06,4.28-1.11,6.54-.07,3.08.19,6.18.21,9.26.06,6.14,0,12.13-.27,18.26-.41,2.29,3.28,3.13,3.79.45,1-5.58.68-11.54.39-17.19-.16-3.07-.13-6.19-.2-9.27C275.84,497,276.21,494.22,275.59,491.89Z"/><path d="M227.71,434.6A57.35,57.35,0,0,0,239,447.18a259.37,259.37,0,0,0,26.42,19.44,2.9,2.9,0,0,1,1.62,2.76c0,5.05.09,10.11.14,15.16q.18,19.11.34,38.21c0,4.42,0,8.84-.13,13.25-.08,4.1-.25,8.2-.38,12.16a19.53,19.53,0,0,0,.1,2.35,36.13,36.13,0,0,0,1.06,5.55,6.64,6.64,0,0,0,8.92,4.41c2.91-1,4.44-3.29,5.06-6.21a24.4,24.4,0,0,0,.42-4.7c.14-8.84.34-17.68.3-26.52-.06-10.95-.32-21.9-.53-32.85-.11-5.79-.35-11.58-.44-17.37,0-2.31.19-4.61.24-6.92a2.71,2.71,0,0,1,1.06-2.15c4.26-3.59,8.35-7.42,12.79-10.76a65.42,65.42,0,0,0,19.46-23.49,53.33,53.33,0,0,0,3.52-9c2.56-8.93.36-16.81-5.74-23.7a15.71,15.71,0,0,0-10.19-5.48,26.46,26.46,0,0,0-7.05.15,35.2,35.2,0,0,0-20.73,11.32l-1.06,1.13a1.13,1.13,0,0,1-1.86,0c-.3-.3-.61-.57-.91-.87-5.12-5.16-11.36-8.41-17.95-11a26,26,0,0,0-16.08-1.1c-8.51,2.15-15.52,11.59-15.81,20.68A43.45,43.45,0,0,0,225,428.91,29.56,29.56,0,0,0,227.71,434.6ZM280.29,508c.05,7-.14,14.09-.24,21.13s-.22,13.88-.34,20.82c0,.84-.07,1.68-.13,2.52a5.5,5.5,0,0,1-3.66,5c-2.29,1-4,.3-5.05-2a12.11,12.11,0,0,1-1.16-5.2c.1-4,.17-8,.2-12q.06-8.51,0-17c0-5.15,0-10.31-.15-15.46s-.44-10.1-.67-15.14c-.05-1.15-.08-2.29-.13-3.72,6.54,1.46,5.6.94,10.42-.15a2.43,2.43,0,0,1,.31.78C279.92,494.31,280.24,501.15,280.29,508Zm-.43-35.86c0,3.67-.17,7.34-.15,11a2.45,2.45,0,0,1-1.74,2.6,9.74,9.74,0,0,1-7.49-.2,2,2,0,0,1-1.39-1.87q-.09-7.08-.16-14.15c0-.08.09-.16.26-.45a24.37,24.37,0,0,1,2.7,1.26,3.56,3.56,0,0,0,4.29-.34,17.73,17.73,0,0,1,3.47-2.47C279.73,469.26,279.87,470.7,279.86,472.13Zm-53.17-68.8c3.15-6.18,8.07-9.55,14.9-10a26.32,26.32,0,0,1,12.65,2.25c6.09,2.72,11.81,6,16.6,10.88,2.41,2.45,2.33,2.56,4.76-.19a37.43,37.43,0,0,1,14.52-10.21,26.58,26.58,0,0,1,12.05-1.9,12.75,12.75,0,0,1,8.49,4.08c5.84,6.19,8.09,13.39,5.76,21.75a53.13,53.13,0,0,1-9,17.74,76.43,76.43,0,0,1-13.58,14c-4.2,3.33-8.32,6.76-12.5,10.11-2.17,1.74-4.4,3.41-6.59,5.13a2.15,2.15,0,0,1-2.28.32,26.16,26.16,0,0,1-6.85-3.62c-8.23-6-16.82-11.55-24.61-18.2a84.89,84.89,0,0,1-7.79-7.7,33.61,33.61,0,0,1-8.11-17.83c-.31-2-.55-4-.71-5.12C224.39,410.24,225,406.67,226.69,403.33Z"/><path d="M244.21,424.81a28.6,28.6,0,0,0,7,12.18,95.32,95.32,0,0,0,13.25,12.4c2.08,1.56,4.1,3.21,6.13,4.84s2,1.57,4,.31c.17-.11.34-.23.5-.36A95.93,95.93,0,0,0,288.64,442a51.53,51.53,0,0,0,8.1-12.52A19.93,19.93,0,0,0,298.53,419c-.66-6.58-5.82-10.61-12.1-9.47a20.51,20.51,0,0,0-8.62,3.9c-2.22,1.65-4.36,3.4-6.64,5.19-.65-.72-1.26-1.42-1.89-2.09A25.25,25.25,0,0,0,257,409c-7.37-1.92-14.12,4.76-13.45,11.76A27,27,0,0,0,244.21,424.81Zm1.23-5.23a8.79,8.79,0,0,1,10.94-8.69,22.06,22.06,0,0,1,11.57,7.53c.55.63,1,1.33,1.62,1.92a1.86,1.86,0,0,0,2.76.19c.49-.37.88-.87,1.37-1.25,2.37-1.81,4.69-3.7,7.16-5.38a14.45,14.45,0,0,1,6.89-2.45c3.92-.36,6.77,1.45,8.23,5.22a13.34,13.34,0,0,1,.54,7.15,22.43,22.43,0,0,1-2.44,6.75,55.15,55.15,0,0,1-11.25,14.79,96.3,96.3,0,0,1-10,8.51c-6.31-5.2-12.52-9.93-18-15.62a44.35,44.35,0,0,1-7.57-10.76A16.7,16.7,0,0,1,245.44,419.57Z"/></g></g></g><polygon class="cls-25" points="248.66 443.9 252.27 447.49 252.57 448.78 252.78 450.85 255.06 453.27 257.75 449.08 248.66 443.9"/><polygon class="cls-21" points="238.82 464.7 241.39 465.23 242.7 465.23 244.93 464.96 250.64 458.72 251.49 457.01 266.89 467.46 273.06 470.61 273.92 470.63 274.47 470.48 280.58 465.77 285.85 461.44 292.02 456.09 296.39 460.95 297.36 462.54 297.92 463.36 301.01 464.72 303.3 464.1 303.84 466.96 301.61 475.25 284.4 492.28 266.74 493.26 239.28 471.42 238.82 464.7"/><polygon class="cls-16" points="303.84 466.96 303.3 464.1 306.1 463.12 306.68 468.18 303.84 466.96"/><path class="cls-36" d="M294.62,254.85c.87-.4.16-2.63.23-3.47.12-1.4.1-2.82.26-4.22.71-6.08,4.17-10.57,10.64-13.25,1.47-.61,3-1,4.58-1.55a7.6,7.6,0,0,0,1.72-.53,2,2,0,0,0,.81-1.19c-.35-1.46-2.19-.8-2.49-.73-11.83,2.72-19.19,9.77-17.85,21.37C292.62,252.23,293,255.61,294.62,254.85Z"/><path class="cls-36" d="M240.43,231.29a16.25,16.25,0,0,1,9.36,11.19,40,40,0,0,1,.74,5c.1.87,0,1.76.11,2.63.1,1.06-.34,2.71,1.52,2.64,1.62-.06,1.11-1.59,1.13-2.59,0-.61,0-1.23,0-1.84a42.52,42.52,0,0,0-.89-6.53c-1.54-5.68-5.18-10.08-11.42-12.68-1.12-.47-2.65-1.31-3.49,0S240.16,231.16,240.43,231.29Z"/><path class="cls-36" d="M273.34,227.95c-.13-2.33-1.32-7.84-1.66-7.82,0,.92-.34,7.76-.32,9.78.08,5.55,0,11.1.11,16.65-.11,4.94,1,6.47,1.27,8.4,1.89-.8,1.41-5,1.37-6.15C273.89,241.86,273.72,234.9,273.34,227.95Z"/></g></g></svg>