<svg id="Layer_1" data-name="Layer 1" xmlns="http://www.w3.org/2000/svg" xmlns:xlink="http://www.w3.org/1999/xlink" viewBox="0 0 1200 628"><defs><style>.cls-1{fill:none;}.cls-2{fill:url(#New_Gradient_Swatch_2);}.cls-3{clip-path:url(#clip-path);}.cls-4{fill:#244999;}.cls-5{font-size:39.98px;fill:#edc96e;}.cls-11,.cls-5{font-family:Lato-Black, Lato;}.cls-6{letter-spacing:-0.02em;}.cls-7{letter-spacing:-0.03em;}.cls-8{fill:url(#linear-gradient);}.cls-9{fill:url(#linear-gradient-2);}.cls-10,.cls-12{fill:#fff;}.cls-11{font-size:55.65px;fill:#ff5562;}.cls-12{stroke:#000;stroke-linecap:round;stroke-linejoin:round;stroke-width:3.18px;stroke-dasharray:8.47 10.59 0 0;}.cls-13,.cls-16{fill:#f26f7e;}.cls-13{stroke:#f8be88;stroke-miterlimit:10;stroke-width:0.96px;}.cls-14{fill:#f8db70;}.cls-15{fill:#ffff47;}.cls-17{fill:#e36255;}.cls-18,.cls-20{opacity:0.4;}.cls-19{fill:#d35035;}.cls-20{fill:#f8f1d5;}.cls-21,.cls-22{fill:#490040;}.cls-22{fill-rule:evenodd;}</style><linearGradient id="New_Gradient_Swatch_2" x1="149.86" y1="588.73" x2="1056.35" y2="35.48" gradientUnits="userSpaceOnUse"><stop offset="0" stop-color="#c99b3b"/><stop offset="0.52" stop-color="#ffffab"/><stop offset="1" stop-color="#cea040"/></linearGradient><clipPath id="clip-path"><rect class="cls-1" x="459" width="622" height="220"/></clipPath><linearGradient id="linear-gradient" x1="642.04" y1="-16.06" x2="695.13" y2="248.22" gradientUnits="userSpaceOnUse"><stop offset="0" stop-color="#663800"/><stop offset="0.4" stop-color="#ffd373"/><stop offset="1" stop-color="#cea040"/></linearGradient><linearGradient id="linear-gradient-2" x1="599.9" y1="-7.6" x2="652.99" y2="256.68" xlink:href="#linear-gradient"/></defs><title>12_vers_ru</title><rect class="cls-2" y="-1" width="1200" height="630"/><g class="cls-3"><ellipse class="cls-4" cx="770" cy="15.71" rx="300" ry="204.29"/></g><text class="cls-5" transform="translate(702.28 104.76)">#KULDSÜ<tspan class="cls-6" x="184.87" y="0">D</tspan><tspan class="cls-7" x="214.29" y="0">A</tspan></text><path class="cls-8" d="M671.58,54.31c-8.43-3.59-19.26.49-28.45,9.54a87.22,87.22,0,0,1,6.25,12.58c8.52,21.26,7.51,42.18-1.38,52.3,10.6-2.66,22-13,29-27.69C686.78,80.66,684.34,59.74,671.58,54.31Z"/><path class="cls-9" d="M636.26,128.1c-12.76-5.43-15.2-26.35-5.45-46.73a62.63,62.63,0,0,1,12.32-17.52c-11.32-18.78-28-29.57-40.8-25-15.46,5.51-19.47,31.26-8.94,57.52S625,139.46,640.44,134a18.1,18.1,0,0,0,7.57-5.22A18.28,18.28,0,0,1,636.26,128.1Z"/><path class="cls-10" d="M649.38,76.43a87.22,87.22,0,0,0-6.25-12.58,62.63,62.63,0,0,0-12.32,17.52c-9.75,20.38-7.31,41.3,5.45,46.73a18.28,18.28,0,0,0,11.74.63C656.89,118.6,657.9,97.68,649.38,76.43Z"/><text class="cls-11" transform="translate(650.55 407.34)">МИМИМИЛАШКА</text><path class="cls-12" d="M523.31,330.8a38.75,38.75,0,0,0-7.46-5.17c-6.26-3.21-14.66-7.18-24.06-9.34a174.71,174.71,0,0,0-27.43-3.81c-14.44-1-26.4-1.47-37.64-1.47-7.71,0-14.89.22-21.94.67a69.09,69.09,0,0,0,1.31-17.15c-.36-10-3.09-18.92-5.71-26.37a195.9,195.9,0,0,0-9.78-22c-.68-1.38-1.37-2.75-2-4.13-3.68-7.53-8.89-11.35-15.51-11.35-7,0-11.74,4.8-13.52,6.6a49.73,49.73,0,0,0-12.79,22.1c-.55,2-1,4-1.44,5.81a130.57,130.57,0,0,0-43.46-8.84c-1.63-.07-3.36-.12-5.2-.14L294.86,253c-2.3-4.28-4.68-8.71-7.19-13.07s-5.24-8.73-7.84-12.88l-1.36-2.16a91.19,91.19,0,0,0-5.56-8.2,15.91,15.91,0,0,0-12.5-6.27,15.51,15.51,0,0,0-14.83,11.52,36.16,36.16,0,0,0-1.45,10.89c.18,6.64.54,13.45,1.06,20.24.21,2.75.53,5.4.83,8,.28,2.35.55,4.6.71,6.77a193.16,193.16,0,0,0-16.89,10l-2.23-4.12a80.73,80.73,0,0,1-6.14-13.39l-.11-.37c-3.05-10-10.15-12.2-14.11-12.61a16.65,16.65,0,0,0-1.71-.09c-8.24,0-12.73,5.93-14.2,7.88l-.14.19a31.14,31.14,0,0,0-3.23,5.08l-.91,1.82a87.46,87.46,0,0,0-3.86,8.44,95,95,0,0,0-5.73,25.53c-1.17,13.74.18,25.25,4.25,35.61-12.42,1.75-25.27,4-38.28,6.58q-3.06.62-6.11,1.3c0-4.7,0-9.5,1-13.64,2.28-9.26,5.81-10.7,9.51-11.45a14.76,14.76,0,0,0,10.49-8.6,14,14,0,0,0-1-12.82c-4.13-6.74-11.82-7.36-15.51-7.66l-.59,0c-3.67-.48-4.57-1.7-5.3-3.14a20.52,20.52,0,0,1-2.19-5.81q-.92-6.76-1.8-13.52-.76-5.71-1.52-11.43c-.38-2.79-.74-5.07-1.14-7.15a14.14,14.14,0,0,0-13.75-11.26,13.61,13.61,0,0,0-2.4.22,14.43,14.43,0,0,0-11.33,10.9,25.87,25.87,0,0,0-.61,6c0,1.48.08,3,.13,4.44s.11,3,.13,4.54l0,2.8c.05,4.43.1,8.61,0,12.78a25.89,25.89,0,0,1-1.44,8.21c-1,2.69-1.89,3.44-4.77,4-10.93,2.09-13.05,9.81-13.45,13a15.5,15.5,0,0,0,7,14.9A31.62,31.62,0,0,0,95.76,318c4.26,1.41,6.87,4,8.7,8.67a61.26,61.26,0,0,1,3.85,15.24c.18,1.56.42,3.41.78,5.38Q104,348.91,99,350.69a91.23,91.23,0,0,0-26,14.56A32.75,32.75,0,0,0,61.42,382c-3.24,11.23-.65,21.61,7.29,29.23a75,75,0,0,0,7.48,6.22c9.59,7.07,20.71,12.78,35,18,21.23,7.73,42.78,11,62.9,13.32l1.63.19c6,.7,12.22,1.43,18.44,2,3.61,4.64,7.33,9.43,11.35,14.07a91.54,91.54,0,0,0,21.11,18.49,134.62,134.62,0,0,0,55.82,19.48,145.25,145.25,0,0,0,16.18.92h0a134.62,134.62,0,0,0,47.32-8.53c31.14-11.65,53.19-30.92,65.59-57.31,4.83-1,9.51-2,14-3a253,253,0,0,0,28.64-8.17,25,25,0,0,0-.48,4.16c-.09,2.28,0,4.42.08,6.31.06,1.31.11,2.55.09,3.62a72.13,72.13,0,0,1-1.14,10.31c-.2,1.29-.41,2.61-.61,4-1.11.3-2.42.54-3.57.76-.25,0-.51.05-.76.08a26.83,26.83,0,0,0-4.75.78A15.45,15.45,0,0,0,432,468.59,14.87,14.87,0,0,0,443.6,486a23.65,23.65,0,0,0,5.07.49h.14a7.56,7.56,0,0,1,.53,4.42c-.75,4.63-1.31,9.23-1.84,13.68-.15,1.26-.3,2.52-.45,3.73a18.49,18.49,0,0,0,.56,7.93,14.76,14.76,0,0,0,12.5,10.36c.41,0,.89.06,1.3.06a15,15,0,0,0,12.06-6.38,16.79,16.79,0,0,0,2.87-7.57c.43-2.91.84-5.82,1.24-8.73l.4-2.82a32.52,32.52,0,0,1,2-8.54c.77-1.67,1.37-1.85,2-2,.93-.27,2.07-.52,3.27-.78,1-.22,2-.44,3-.7a20.89,20.89,0,0,0,5.92-2.38,14.26,14.26,0,0,0-5-26.17,32.14,32.14,0,0,0-3.66-.36l-.67,0a2.88,2.88,0,0,1-1-.7c0-.69-.11-1.37-.16-2.06-.14-1.71-.28-3.33-.28-4.74,0-3.67.05-7.44.1-11.1,0-3,.08-6,.1-9a27.94,27.94,0,0,0-.94-7.32,14.25,14.25,0,0,0-5.44-7.81q5.49-2.56,10.86-5.39a108,108,0,0,0,27.07-20,80.7,80.7,0,0,0,9.53-11.5c6-8.92,8.94-18.23,8.83-27.64A28.8,28.8,0,0,0,523.31,330.8Z"/><path id="_Compound_Path_" data-name="&lt;Compound Path&gt;" class="cls-13" d="M202.39,324.6a6.84,6.84,0,0,0,1.07-6.56c-1.94-7.11-1.42-14.36-.16-21.49a23,23,0,0,0,.3-8.92c-.73-3.56-.16-5.75.9-5.32,2.07.84,1.92,3,2.33,4.67a129.14,129.14,0,0,0,7.73,22.32c1.8,4.1,2.63,8.64,3.78,13a8.24,8.24,0,0,1,.09,3.49,2.49,2.49,0,0,1-1.43,1.74,2.28,2.28,0,0,1-1.8-1.24,25.54,25.54,0,0,1-.79-3.93c-.4-1.94-.85-3.87-1.52-6.89-1.26,1.51-1.83,2.11-2.31,2.78a99.94,99.94,0,0,0-11.63,20.55c-3.62,8.75-5.62,17.88-7.11,27.2-2.46,15.34-1,30.46,1.81,45.56a3.39,3.39,0,0,0,3.32,3.12c4.33.51,8.65,1.26,13,1.51,9.72.56,19.46,1,29.2,1.26,15.45.34,30.9.1,46.33-.91,12.23-.8,24.48-1.38,36.67-2.53q26.07-2.46,51.83-7.37c8.9-1.7,17.75-3.67,26.63-5.46,2.7-.54,4.25-1.56,4.69-4.75,2.26-16.18,1.76-32.13-2.83-47.89-5-17-13.78-31.63-27.13-43.4a30.64,30.64,0,0,0-3.1-2.07c.21,2.32.45,4,.45,5.61a2.18,2.18,0,0,1-1.08,1.49,1.44,1.44,0,0,1-2.07-.83,49.43,49.43,0,0,1-1.41-5.85c-1.4-7.42-.16-14.74,1.14-22,.71-3.95,2.47-10.39,4.61-14.25a.95.95,0,0,1,1.59.27c.15.8.31,6.91,1.34,9.13a116.75,116.75,0,0,1,4.94,12.64,30,30,0,0,1,1.54,13.91c-.5,3.23,1.16,4.91,3.87,6.75.4-2.16.85-3.94,1-5.75a61,61,0,0,0-2.29-23.9c-3.2-10.68-8.24-20.55-13-30.54-.13-.27-.46-.45-.69-.67a22.24,22.24,0,0,0-7.46,10.48c-3.59,9.7-5.58,19.7-4.78,30.11.25,3.17.87,6.32,1.15,9.49a43.54,43.54,0,0,1,0,6c0,.32-.68.78-1.1.84a1.58,1.58,0,0,1-1.28-.52,4.43,4.43,0,0,1-.68-1.83c-.38-2.32-.67-4.65-1-7-1-6.89-1-6.86-7-10.29-13.33-7.65-27.77-11.74-43-13.28a128.4,128.4,0,0,0-16.53-.52c.72,1.8,1.31,3.15,1.79,4.54,1.22,3.48,2.58,6.93,3.54,10.48a14.91,14.91,0,0,1-1.45,11.69A28.7,28.7,0,0,1,279.87,312a19.68,19.68,0,0,1-9.37,1.42,5.14,5.14,0,0,1-4.63-3.35,29.71,29.71,0,0,1-1.69-5.26c-1-5.11-1.81-10.24-2.65-15.37-.51-3.08-.57-6.24-1.26-9.62-1.15.39-1.94.59-2.67.91a120.66,120.66,0,0,0-28.35,17.17c-2.33,1.9-3.39,3.74-2.71,6.85a26.37,26.37,0,0,1,.22,7.5,13.53,13.53,0,0,1-1.46,4.2,1.42,1.42,0,0,1-1.26.58,2.38,2.38,0,0,1-1.19-1.35,8.42,8.42,0,0,1,0-2.5,33.16,33.16,0,0,0-2.4-14.3,76.18,76.18,0,0,0-4.61-9.5c-3.84-6.89-7.84-13.7-10.6-21.13-.1-.28-.47-.45-.9-.86a11,11,0,0,0-1.4,1.91,107.92,107.92,0,0,0-4.32,10.18,87.9,87.9,0,0,0-4.09,29.79,50.64,50.64,0,0,0,2.87,16.79,38.66,38.66,0,0,0,1.84,3.55C200.49,327.62,201.31,326,202.39,324.6Zm120.5,32.85c1.94-5.14,5.63-7.64,11.2-7.52,1.34,0,2.67.27,4,.31a2.42,2.42,0,0,0,2.38-2.13c.06-1-.19-2-.15-3a2.75,2.75,0,0,1,2.26-2.88c1.26-.11,2.34.74,2.94,2.28a6.36,6.36,0,0,1-.19,5.35c-.6,1.18-1.39,2.26-2.53,4.07,1,.77,1.78,1.86,2.73,2a3.44,3.44,0,0,0,3.38-1.78c.43-.7.61-1.55,1-2.28a2.35,2.35,0,0,1,2.84-1.43,2.56,2.56,0,0,1,1.73,2.77,8.23,8.23,0,0,1-3.64,6.82c-1.1.72-2.34,1.24-3.5,1.85.06,2.93.35,5.76.12,8.55a12.67,12.67,0,0,1-7.59,11,9.06,9.06,0,0,1-9.51-.77C323.42,376.12,319.92,365.28,322.88,357.45Zm-108-.56a3.1,3.1,0,0,1,1.91-1.35c.41-.09,1.16.55,1.51,1,2,2.88,2,2.9,4.17,0,.2-.27.33-.58.61-1.06-.61-1-1.35-2.14-1.92-3.31a5.75,5.75,0,0,1-.17-5.31,2.6,2.6,0,0,1,1.92-1.25c.62,0,1.62.35,2,2.32.6,3.29,2.29,4.6,5.54,4.13,2.6-.37,5-.42,7.16,1.23a12.42,12.42,0,0,1,4.39,7.11,20,20,0,0,1-7.57,21.32c-3.89,2.76-7.9,2.54-11.44-.6a11,11,0,0,1-4.16-8.76c0-2.34.12-4.67.2-7.46a25.59,25.59,0,0,1-2.93-2.1A5.1,5.1,0,0,1,214.87,356.89Z"/><path class="cls-10" d="M332,375.39c2,2.37,4.63,2.62,7.3,1.83,2.35-.69,3-2.91,3.48-5.08a21.25,21.25,0,0,0,.21-2.49h-.08a12.82,12.82,0,0,0,0-1.5c-.42-4.59-1.67-8.85-5.15-12.14-3.18-3-6.94-2.61-9.29,1.1a11,11,0,0,0-1.68,7.64A21.18,21.18,0,0,0,332,375.39Z"/><path class="cls-10" d="M227.87,377.94c2.77.89,5-.56,6.65-2.52a14.87,14.87,0,0,0,2.81-15.06,6.5,6.5,0,0,0-1.52-2.56,5,5,0,0,0-2.56-1.36c-3.16-.45-7.06,1.64-8.2,4.63a73.39,73.39,0,0,0-2.11,7.56c.2,1.71.26,2.72.45,3.7C223.9,375,225.23,377.09,227.87,377.94Z"/><path class="cls-14" d="M268.73,240.62c-2.06-3.62-4.19-7.19-6.35-10.76-.35-.58-2.07-4-2.19-2.28-.64,9,1.28,17,1.9,25.21.86-.08,1.26,0,1.48-.16,3.27-2.41,4.72-5.94,5.69-9.69A3.52,3.52,0,0,0,268.73,240.62Z"/><path class="cls-14" d="M266.55,277.2a2.16,2.16,0,0,0-1.83,2.57c.49,4.82.91,9.66,1.43,14.48a9.85,9.85,0,0,0,.86,2.29,9.5,9.5,0,0,0,1.65-.3c9.24-3.63,14.24-10.69,16.27-20.14a11.07,11.07,0,0,0-.77-6.87c-1-2.3-2.12-4.55-3.26-6.78a12.85,12.85,0,0,0-1.6-1.94c-.76,2.22-1.23,4-2,5.68C275.07,271.14,272.57,275.88,266.55,277.2Z"/><path class="cls-15" d="M467.2,464.26c-1.74,1.43-3.19,2.8-4.81,3.92s-3.62,2.12-5.44,3.16a59,59,0,0,1,5.18,5.55,58.67,58.67,0,0,1,3.66,6.7c2.51-4.32,6.33-6.6,10.2-8.92C470.38,470.08,470.21,469.89,467.2,464.26Z"/><path class="cls-15" d="M114.24,310.92c3.13,3.42,4.94,7.54,6.51,11.8a15,15,0,0,0,1.47,2.28c1.16-10.25,5.5-17.86,14.31-23.56-1.77-.78-2.81-1.27-3.87-1.7a21,21,0,0,1-11.6-11.27c-.81-1.84-1.54-3.71-2.32-5.56-.22-.52-.5-1-1-2.1-1,3.4-1.68,6.12-2.59,8.76a19.16,19.16,0,0,1-4.64,7.69,24.38,24.38,0,0,1-9.8,4.93c1.11.71,5,1.9,5.86,2.36A29.13,29.13,0,0,1,114.24,310.92Z"/><path class="cls-16" d="M267.82,301a4.9,4.9,0,0,0-.2,1.46c.23,1.32.52,2.63.87,3.92.74,2.73,1.08,2.95,3.84,2.83,8.16-.33,17.3-7.42,19.57-15.21a8.8,8.8,0,0,0,.2-5.44c-1-3-1.9-6-2.84-9.07l-1-.21C285.14,290.06,278.93,297.87,267.82,301Z"/><path class="cls-16" d="M263.41,259.6c.2,2.16.11,4.35.24,6.52a49.88,49.88,0,0,0,.54,5c.26,1.6,1.41,2.14,3,1.54a7.75,7.75,0,0,0,4.07-3.58c1.42-2.64,2.64-5.39,3.88-8.13,2.17-4.8,1.41-9.08-2.39-12.78a8,8,0,0,0-.87-.55,36.18,36.18,0,0,1-2.31,3.62,16.18,16.18,0,0,1-3.8,3.91A4.1,4.1,0,0,0,263.41,259.6Z"/><path class="cls-17" d="M210.66,310.33a25.29,25.29,0,0,0-3.9-7.9c-.72,4.62-1.06,9.06.57,13.69a8.31,8.31,0,0,0,3.25-3.87A2.82,2.82,0,0,0,210.66,310.33Z"/><path class="cls-16" d="M318.87,441.18A399.29,399.29,0,0,1,259,442.59c-6.21-.3-12.41-.61-18.62-1-4.69-.29-9.37-.7-14.06-1L207,439.18c.78,1.31,1.05,1.9,1.43,2.41a121.74,121.74,0,0,0,15.64,17.74,78.8,78.8,0,0,0,12.29,9.57c23.15,13.59,48,19.37,74.89,16,24.2-3.06,45.51-12.39,63.82-28.53a79.42,79.42,0,0,0,18.09-22.73c.75-1.42,1.23-2.86,2.34-5.28-1.49.37-3.7.61-5.14.91C366.68,434.21,343,438.71,318.87,441.18Z"/><path class="cls-16" d="M508.44,341.85c-7.63-4.7-15.79-8.27-24.73-9.59q-11.7-1.72-23.48-2.92a346.29,346.29,0,0,0-58.37-1.17,11.6,11.6,0,0,0-2.15.65c1.49,3.49,2.85,6.7,4.22,9.9a2.51,2.51,0,0,0,2.41,1.51c1,.05,2,.06,3,.07,11.43.07,22.84.51,34.22,1.59a96.92,96.92,0,0,1,18.71,3.84,23.09,23.09,0,0,1,10.49,6.71c3.52,3.85,4.47,8.19,2.19,13a43.72,43.72,0,0,1-2.94,5.27,42.18,42.18,0,0,1-15.23,13.66A162.25,162.25,0,0,1,421.53,399c-11,3.06-22.05,5.86-33.2,8.21a607.25,607.25,0,0,1-89.76,12c-15.93.93-31.86,1.74-47.82,1.69q-4.28,0-8.57.08a291.34,291.34,0,0,1-36.72-1.88,293.39,293.39,0,0,1-38.16-6.75c-8-2-15.93-4.1-23.78-6.52a40.54,40.54,0,0,1-16.31-9.7c-5.52-5.32-5.45-15.56,1.44-20.35a65.77,65.77,0,0,1,7.32-4.41c12.68-6.54,26.35-9.91,40.27-12.41,4.43-.8,8.93-1.26,13.55-1.9l2.6-10.05c-2.34.29-4,.41-5.63.71-9.08,1.66-18.15,3.39-27.23,5a369,369,0,0,0-50.28,12.56,86.2,86.2,0,0,0-22.12,10.77,37.74,37.74,0,0,0-5.83,4.78,12.84,12.84,0,0,0,.43,18.82,55.77,55.77,0,0,0,5.08,4.13c7.31,5.49,15.45,9.44,23.88,12.86,19.3,7.82,39.5,11.91,60,14.55,16.66,2.14,33.34,4,50.08,5.33,19.09,1.52,38.21,2.6,57.36,3a334.1,334.1,0,0,0,46.25-2.38q25.77-3,51.16-8.41c17.73-3.76,35.48-7.47,53.09-11.73a207.29,207.29,0,0,0,52.71-21,95.59,95.59,0,0,0,25.74-20.81,36.68,36.68,0,0,0,8.18-16.52C516.91,351.36,514.85,345.8,508.44,341.85Z"/><path class="cls-17" d="M371.87,289.68a22.65,22.65,0,0,0-.25,4c0,.95.12,2.22.71,2.76,2,1.87,3.9,4,6.6,5.27.71-6.48-1.64-15.78-5.63-21.64C372.75,283.76,372.26,286.72,371.87,289.68Z"/><path class="cls-14" d="M319.17,441.15a125.73,125.73,0,0,0,16.51.14c6.78-.42,14.57-.32,22.09-2a4.51,4.51,0,0,0,1.38.45c-5,2.09-9.88,4-14.44,5.94C327,453,307.76,464.07,294.32,467.57c-12.9,3.28-20.8,8.69-33.77,11.45-.62.13-1.25.22-1.88.32a113.79,113.79,0,0,0,18.9,4.9c9.38-3.58,18.08-7.33,27.45-11,12.45-5,27.2-9.55,44.43-17.56,12.38-5.77,27.44-12,42.91-20.71.26-.47.53-.92.78-1.4.75-1.42,1.23-2.86,2.34-5.28-1.49.37-3.7.61-5.14.91C366.78,434.19,343.15,438.67,319.17,441.15Z"/><path class="cls-14" d="M226.83,448.88c14.14-10.38,23,2.41,36.62,2.31,8.67,0,19.37-5.13,30.17-8.32q-17.29.58-34.61-.27c-6.21-.3-12.41-.61-18.62-1-4.69-.29-9.37-.7-14.06-1L215,439.75q-2.55,1.81-5.12,3.75a136.92,136.92,0,0,0,9.52,11.29C221.88,452.7,224.36,450.72,226.83,448.88Z"/><path class="cls-14" d="M288.14,327.52c19.95,8.64,36.12,16.3,51.64,22a2.22,2.22,0,0,0,.68-1.41c.06-1-.19-2-.15-3a2.75,2.75,0,0,1,2.26-2.88c1.26-.11,2.34.74,2.94,2.28a6.36,6.36,0,0,1-.19,5.35c-.23.45-.48.88-.77,1.34q2.48.85,4.95,1.63a8,8,0,0,1,.41-.94,2.35,2.35,0,0,1,2.84-1.43,2.56,2.56,0,0,1,1.73,2.77q0,.53-.11,1c.92.26,1.84.52,2.76.77-1.06.34-2.11.64-3.16.92a7.61,7.61,0,0,1-3.13,4.09c-1.1.72-2.34,1.24-3.5,1.85,0,2.26.22,4.46.2,6.64,9.88-.68,20.18-4.08,30.57-9.38l.13-.06a130,130,0,0,0,26.73.28,101.54,101.54,0,0,0-2.51-10.81,98.61,98.61,0,0,0-6.24-16.11c-5.77,4.08-11.34,7.81-16.85,11.34-5.37-.4-10.66-1.09-15.93-2-21.27-3.66-41.76-11.48-67.78-22q-8.48-3.42-17.84-7.08a19,19,0,0,1-7.31.72,5.14,5.14,0,0,1-4.63-3.35c-.29-.74-.58-1.49-.84-2.24-4.64-1.73-9.43-3.48-14.41-5.24-6.07-2.15-12.18-4.31-18.63-6.84-.92.71-1.84,1.42-2.74,2.16-2.1,1.72-3.16,3.4-2.84,6,5.09,2,10.08,3.93,15,5.67C259.08,315.84,274.66,321.67,288.14,327.52Z"/><path class="cls-14" d="M231,350.4q-2.75-.37-5.6-.67c.85,2,2.43,2.75,5,2.38s5-.42,7.16,1.23a12.42,12.42,0,0,1,4.39,7.11h0a235.82,235.82,0,0,1,25.27,4.83c25.56,6.48,45.75,16,67.71,22.11,20.18,5.65,42.37,8.36,71.37-1,.25-3.77.33-7.52.23-11.27l-1.6.58c-24.13,8.28-43.4,7.25-61.47,3.36a14.65,14.65,0,0,1-3.61,2.42,9.06,9.06,0,0,1-9.51-.77A18.18,18.18,0,0,1,324.5,374c-16.08-4.88-32.4-11-51.79-16.12C260.46,354.68,246.61,352.49,231,350.4Z"/><path class="cls-14" d="M384.52,276.1c-1.75-2.75-4-4.28-6.47-3.22l-1.95,1a11.62,11.62,0,0,0,.71,2.8,116.75,116.75,0,0,1,4.94,12.64,35,35,0,0,1,1.76,8.68l.81-.34c1.57-.5,2.59-1.92,3.17-3.82l.87.17a61.41,61.41,0,0,0-2.47-13.68C385.46,278.9,385,277.5,384.52,276.1Z"/><path class="cls-14" d="M214.55,357.71a4.52,4.52,0,0,1,.32-.82,3.1,3.1,0,0,1,1.91-1.35c.41-.09,1.16.55,1.51,1s.76,1.07,1,1.42l1.92.14c.32-.36.7-.87,1.2-1.55.2-.27.33-.58.61-1.06-.61-1-1.35-2.14-1.92-3.31a6.79,6.79,0,0,1-.73-3c-4.31-.39-8.76-.73-13.39-1.11-3.61-.29-7.23-.76-11-1.24-.94,3.09-1.74,6.22-2.43,9.38,3.08.31,6.08.61,9.09.79C206.76,357.32,210.72,357.5,214.55,357.71Z"/><path class="cls-14" d="M295.82,287.62a15.56,15.56,0,0,1,.38,6.58c7.66,2.84,14.9,5.17,21.8,7,11.67,3.08,22.37,5.73,33,5.64a49.28,49.28,0,0,0,8.6-.84,1.54,1.54,0,0,1-.91-.5,4.43,4.43,0,0,1-.68-1.83c-.38-2.32-.67-4.65-1-7-1-6.89-1-6.86-7-10.29-.78-.45-1.57-.89-2.37-1.31l-.48.09c-9.93,1.71-20.45-.32-31.57-2.34a219.81,219.81,0,0,1-23.26-5.6C293.53,280.68,294.87,284.09,295.82,287.62Z"/><path class="cls-14" d="M400.6,401.19c2.7-.54,4.25-1.56,4.69-4.75.12-.88.23-1.76.34-2.64a150.93,150.93,0,0,1-37.21,5.71c-24.56.93-44.15-5.23-63.27-12.34-18.33-6.85-36.37-14.3-59.58-18.32-1-.19-2.09-.37-3.15-.54a20,20,0,0,1-3.32,8.65c23,3.45,41,10.59,59.62,17.79s38.13,13.74,62.82,14.13q6.23-1,12.43-2.22C382.87,405,391.72,403,400.6,401.19Z"/><path class="cls-14" d="M200.33,327.82l-2.21-.24c.32.59.69,1.24,1.13,2.07C199.65,329,200,328.39,200.33,327.82Z"/><path class="cls-14" d="M251.92,345.31c26.51,5.92,46,14.34,65.41,19.63,1.55.42,3.1.8,4.66,1.15a18.31,18.31,0,0,1,.89-8.65c.18-.47.38-.91.58-1.34q-2.22-.42-4.46-.92c-18.5-4.17-37.78-11.86-63.15-17.76-13.15-3.09-27.9-5.92-45-8.28q-3.3-.48-6.79-.89a95.44,95.44,0,0,0-4.47,8.93l2.76.29A427.7,427.7,0,0,1,251.92,345.31Z"/><path class="cls-14" d="M359.88,281.46a60.93,60.93,0,0,0,.06,8.24c.25,3.17.87,6.32,1.15,9.49a43.54,43.54,0,0,1,0,6c0,.21-.3.47-.61.65a73,73,0,0,0,7.73-2l-.06-.31c-1.4-7.42-.16-14.74,1.14-22,.25-1.36.62-3,1.09-4.78C366.83,278.47,363.36,280.08,359.88,281.46Z"/><path class="cls-14" d="M245.21,393c20.41,5.1,37.26,13.81,56.38,22.52,6.86-.43,13.72-.89,20.56-1.53l.82-.08c-4.18-1.48-8.14-3.11-11.91-4.8-20.11-9.09-37.75-19-59.82-25a148.91,148.91,0,0,0-15.49-3.42c-.43.37-.87.72-1.34,1.05-3.89,2.76-7.9,2.54-11.44-.6a14.19,14.19,0,0,1-2.17-2.39c-9.1-.87-19-1.33-30.11-1.52-.16,3.49-.14,7,0,10.45C212.42,387.8,229.84,389.1,245.21,393Z"/><path class="cls-14" d="M218.8,372.41c0-2.05.11-4.12.17-6.47-8.33-.45-17.32-.66-27-.76l-.14.84c-.47,2.92-.79,5.83-1,8.73,10.24-.19,19.6-.18,28.22.23A10.72,10.72,0,0,1,218.8,372.41Z"/><path class="cls-14" d="M198.1,281.27a81.77,81.77,0,0,0-2.18,9,49.83,49.83,0,0,0,7.71,4.2,19.6,19.6,0,0,0,0-6.88c-.52-2.51-.38-4.34.12-5A13.67,13.67,0,0,0,198.1,281.27Z"/><path class="cls-14" d="M206.14,284a19.58,19.58,0,0,1,.68,3c.81,3.43,1.81,6.8,2.94,10.11,1.5.61,3,1.21,4.47,1.83q3.68,1.54,7.25,3c-.3-1-.64-2-1-3a76.18,76.18,0,0,0-4.61-9.5l-.12-.22a48.35,48.35,0,0,1-8.93-4.74C206.58,284.28,206.36,284.14,206.14,284Z"/><g class="cls-18"><path class="cls-19" d="M375,456.33a79.42,79.42,0,0,0,18.09-22.73c.75-1.42,1.23-2.86,2.34-5.28-1.49.37-3.7.61-5.14.91-20.19,4.25-40.45,8.14-60.92,10.73-27.15,28-63.76,35.88-83.94,33.84h0a114.11,114.11,0,0,0,65.75,11.06C335.42,481.8,356.74,472.47,375,456.33Z"/><path class="cls-19" d="M374,406.65c8.9-1.7,17.75-3.67,26.63-5.46,2.7-.54,4.25-1.56,4.69-4.75,2.26-16.18,1.76-32.13-2.83-47.89-5-17-13.78-31.63-27.13-43.4a30.64,30.64,0,0,0-3.1-2.07c.21,2.32.45,4,.45,5.61a2.18,2.18,0,0,1-1.08,1.49,1.44,1.44,0,0,1-2.07-.83,49.43,49.43,0,0,1-1.41-5.85c-1.4-7.42-.16-14.74,1.14-22,.71-3.95,2.47-10.39,4.61-14.25a.95.95,0,0,1,1.59.27c.15.8.31,6.91,1.34,9.13a116.75,116.75,0,0,1,4.94,12.64,30,30,0,0,1,1.54,13.91c-.5,3.23,1.16,4.91,3.87,6.75.4-2.16.85-3.94,1-5.75a61,61,0,0,0-2.29-23.9c-3.2-10.68-8.24-20.55-13-30.54-.13-.27-.46-.45-.69-.67a22.24,22.24,0,0,0-7.46,10.48c-3.59,9.7-5.58,19.7-4.78,30.11.25,3.17.87,6.32,1.15,9.49a43.54,43.54,0,0,1,0,6c0,.19-.26.44-.55.62,7.19,45.58,1.53,79.73-10.7,104.9Q361.93,408.94,374,406.65Z"/></g><path class="cls-20" d="M239.15,417.47c13.52.3,27,.15,40.56-.57,17.12-13,30.81-32.19,37.69-55.55,9.5-32.22,3.88-64.84-12.5-88.41a133,133,0,0,0-14.41-.34c.72,1.8,1.31,3.15,1.79,4.54,1.22,3.48,2.58,6.93,3.54,10.48a14.91,14.91,0,0,1-1.45,11.69A28.7,28.7,0,0,1,279.87,312a19.68,19.68,0,0,1-9.37,1.42,5.14,5.14,0,0,1-4.63-3.35,29.71,29.71,0,0,1-1.69-5.26c-1-5.11-1.81-10.24-2.65-15.37-.51-3.08-.57-6.24-1.26-9.62-1.15.39-1.94.59-2.67.91a120.66,120.66,0,0,0-28.35,17.17c-2.33,1.9-3.39,3.74-2.71,6.85a26.37,26.37,0,0,1,.22,7.5,13.53,13.53,0,0,1-1.46,4.2,1.42,1.42,0,0,1-1.26.58,2.38,2.38,0,0,1-1.19-1.35,8.42,8.42,0,0,1,0-2.5,33.16,33.16,0,0,0-2.4-14.3,76.18,76.18,0,0,0-4.61-9.5c-3.84-6.89-7.84-13.7-10.6-21.13-.1-.28-.47-.45-.9-.86a11,11,0,0,0-1.4,1.91,107.92,107.92,0,0,0-4.32,10.18,87.9,87.9,0,0,0-4.09,29.79,50.64,50.64,0,0,0,2.87,16.79,38.66,38.66,0,0,0,1.84,3.55c1.24-2,2.06-3.64,3.14-5a6.84,6.84,0,0,0,1.07-6.56c-1.94-7.11-1.42-14.36-.16-21.49a23,23,0,0,0,.3-8.92c-.73-3.56-.16-5.75.9-5.32,2.07.84,1.92,3,2.33,4.67a129.14,129.14,0,0,0,7.73,22.32c1.8,4.1,2.63,8.64,3.78,13a8.24,8.24,0,0,1,.09,3.49,2.49,2.49,0,0,1-1.43,1.74,2.28,2.28,0,0,1-1.8-1.24,25.54,25.54,0,0,1-.79-3.93c-.4-1.94-.85-3.87-1.52-6.89-1.26,1.51-1.83,2.11-2.31,2.78a99.94,99.94,0,0,0-11.63,20.55c-3.62,8.75-5.62,17.88-7.11,27.2-2.46,15.34-1,30.46,1.81,45.56a3.39,3.39,0,0,0,3.32,3.12c4.33.51,8.65,1.26,13,1.51C219.67,416.77,229.41,417.25,239.15,417.47ZM219,365a25.59,25.59,0,0,1-2.93-2.1,5.1,5.1,0,0,1-1.2-6,3.1,3.1,0,0,1,1.91-1.35c.41-.09,1.16.55,1.51,1,2,2.88,2,2.9,4.17,0,.2-.27.33-.58.61-1.06-.61-1-1.35-2.14-1.92-3.31a5.75,5.75,0,0,1-.17-5.31,2.6,2.6,0,0,1,1.92-1.25c.62,0,1.62.35,2,2.32.6,3.29,2.29,4.6,5.54,4.13,2.6-.37,5-.42,7.16,1.23a12.42,12.42,0,0,1,4.39,7.11,20,20,0,0,1-7.57,21.32c-3.89,2.76-7.9,2.54-11.44-.6a11,11,0,0,1-4.16-8.76C218.85,370.07,218.92,367.74,219,365Z"/><path class="cls-21" d="M514.84,340.67a25.81,25.81,0,0,0-4.93-3.47c-6.73-3.45-13.62-6.53-21-8.24a163.93,163.93,0,0,0-25.42-3.51c-19.44-1.35-38.91-2-58.39-.76-1.84.12-3.7.06-5.54.17a3.35,3.35,0,0,1-3.3-1.82,26.31,26.31,0,0,0-2.77-4.2c-2.28-2.49-2.59-5.13-1.76-8.35A54,54,0,0,0,393.09,295c-.28-7.83-2.41-15.22-5-22.52-3-8.57-7.25-16.6-11.24-24.75-2.43-5-4.16-5.3-8.1-1.32a36.76,36.76,0,0,0-9.5,16.38,74.53,74.53,0,0,0-2.88,16.84c-.05,1.45-.3,2.89-.49,4.62a10.54,10.54,0,0,1-2.63-.83c-16.12-9.15-33.6-13.32-52-14.08-3.52-.15-7.05-.18-10.58-.16a3.06,3.06,0,0,1-3.16-2c-.68-1.53-1.4-3.05-2.2-4.53-3-5.46-5.85-11-8.94-16.34-2.67-4.66-5.55-9.2-8.4-13.75a90.69,90.69,0,0,0-5.31-7.93c-1.6-2-3.91-1.62-4.62.84a23,23,0,0,0-.95,6.92q.27,9.81,1,19.6c.45,5.85,1.48,11.67,1.71,17.53.25,6.26,1.58,5.71-5.5,8.95-9.67,4.43-28.51,17.6-29.18,18l-9-16.66a93.15,93.15,0,0,1-7.07-15.57c-.57-1.75-.93-3.82-3.19-4.05-2.11-.22-3.26,1.47-4.37,2.93a18.5,18.5,0,0,0-1.92,3c-1.48,3-3.08,6-4.26,9.1a81.66,81.66,0,0,0-4.94,22c-1,12.25,0,24.14,5.92,35.2a3.6,3.6,0,0,1,.22,3.35c-.4.92-.78,1.86-1.16,2.79-1.87,4.62-1.86,4.68-6.71,5.32-14.31,1.89-28.54,4.31-42.69,7.16a307.46,307.46,0,0,0-42.65,11.84A77.9,77.9,0,0,0,81,375.43a19.92,19.92,0,0,0-7.13,10.14c-1.76,6.09-.95,11.69,3.8,16.24a62.37,62.37,0,0,0,6.2,5.13c9.69,7.13,20.48,12.13,31.72,16.23,19.39,7.06,39.59,10.24,60,12.62,7.5.88,15,1.77,22.53,2.42a6.47,6.47,0,0,1,4.91,2.94c4,5.17,8,10.37,12.3,15.31a79,79,0,0,0,18.09,15.92A121.36,121.36,0,0,0,283.88,490a123,123,0,0,0,57.49-6.87c27-10.12,48.32-26.76,59.9-54.06a5,5,0,0,1,4.16-3.1q8.63-1.75,17.23-3.66a237.21,237.21,0,0,0,59.39-21.78A94.59,94.59,0,0,0,505.88,383a69.19,69.19,0,0,0,8-9.65c4.07-6.08,6.72-12.75,6.63-20.27A15.88,15.88,0,0,0,514.84,340.67ZM288.3,279.32l1,.21c.94,3,1.83,6.07,2.84,9.07a8.8,8.8,0,0,1-.2,5.44c-2.27,7.79-11.41,14.88-19.57,15.21-2.76.11-3.1-.11-3.84-2.83-.36-1.29-.65-2.6-.87-3.92a4.9,4.9,0,0,1,.2-1.46C278.93,297.87,285.14,290.06,288.3,279.32Zm-9-18.82a12.85,12.85,0,0,1,1.6,1.94c1.14,2.23,2.25,4.49,3.26,6.78a11.07,11.07,0,0,1,.77,6.87c-2,9.46-7,16.51-16.27,20.14a9.5,9.5,0,0,1-1.65.3,9.85,9.85,0,0,1-.86-2.29c-.52-4.82-.94-9.66-1.43-14.48a2.16,2.16,0,0,1,1.83-2.57c6-1.32,8.52-6.06,10.76-11C278.07,264.52,278.53,262.73,279.3,260.51Zm-7.46-12.91a8,8,0,0,1,.87.55c3.8,3.7,4.56,8,2.39,12.78-1.24,2.74-2.45,5.49-3.88,8.13a7.75,7.75,0,0,1-4.07,3.58c-1.55.6-2.7.07-3-1.54a49.88,49.88,0,0,1-.54-5c-.13-2.17,0-4.36-.24-6.52a4.1,4.1,0,0,1,2.31-4.47,16.18,16.18,0,0,0,3.8-3.91A36.18,36.18,0,0,0,271.83,247.6Zm-8.27,5c-.22.16-.62.08-1.48.16-.62-8.25-2.54-16.19-1.9-25.21.12-1.72,1.84,1.7,2.19,2.28,2.16,3.56,4.29,7.14,6.35,10.76a3.52,3.52,0,0,1,.53,2.31C268.28,246.68,266.84,250.21,263.57,252.62Zm-66.16,73.47a50.64,50.64,0,0,1-2.87-16.79,87.9,87.9,0,0,1,4.09-29.79,107.92,107.92,0,0,1,4.32-10.18,11,11,0,0,1,1.4-1.91c.43.4.8.58.9.86,2.76,7.43,6.76,14.24,10.6,21.13a76.18,76.18,0,0,1,4.61,9.5,33.16,33.16,0,0,1,2.4,14.3,8.42,8.42,0,0,0,0,2.5,2.38,2.38,0,0,0,1.19,1.35,1.42,1.42,0,0,0,1.26-.58,13.53,13.53,0,0,0,1.46-4.2,26.37,26.37,0,0,0-.22-7.5c-.68-3.1.38-4.94,2.71-6.85a120.66,120.66,0,0,1,28.35-17.17c.74-.32,1.53-.52,2.67-.91.69,3.38.75,6.54,1.26,9.62.84,5.13,1.67,10.27,2.65,15.37a29.71,29.71,0,0,0,1.69,5.26,5.14,5.14,0,0,0,4.63,3.35,19.68,19.68,0,0,0,9.37-1.42,28.7,28.7,0,0,0,14.5-12.69,14.91,14.91,0,0,0,1.45-11.69c-1-3.55-2.32-7-3.54-10.48-.49-1.39-1.08-2.74-1.79-4.54a128.4,128.4,0,0,1,16.53.52c15.21,1.54,29.64,5.64,43,13.28,6,3.43,6,3.4,7,10.29.34,2.33.63,4.66,1,7a4.43,4.43,0,0,0,.68,1.83A1.58,1.58,0,0,0,360,306c.41-.06,1.08-.52,1.1-.84a43.54,43.54,0,0,0,0-6c-.28-3.17-.91-6.32-1.15-9.49-.8-10.4,1.19-20.41,4.78-30.11a22.24,22.24,0,0,1,7.46-10.48c.24.22.56.4.69.67,4.77,10,9.81,19.86,13,30.54a61,61,0,0,1,2.29,23.9c-.18,1.81-.64,3.59-1,5.75-2.71-1.83-4.36-3.52-3.87-6.75a30,30,0,0,0-1.54-13.91,116.75,116.75,0,0,0-4.94-12.64c-1-2.22-1.19-8.33-1.34-9.13a.95.95,0,0,0-1.59-.27c-2.13,3.86-3.9,10.3-4.61,14.25-1.31,7.26-2.55,14.58-1.14,22a49.43,49.43,0,0,0,1.41,5.85,1.44,1.44,0,0,0,2.07.83,2.18,2.18,0,0,0,1.08-1.49c0-1.64-.24-3.29-.45-5.61a30.64,30.64,0,0,1,3.1,2.07c13.35,11.77,22.16,26.37,27.13,43.4,4.59,15.76,5.1,31.71,2.83,47.89-.44,3.19-2,4.2-4.69,4.75C391.72,403,382.87,405,374,406.65q-25.73,4.91-51.83,7.37c-12.2,1.15-24.45,1.73-36.67,2.53-15.43,1-30.88,1.25-46.33.91-9.74-.21-19.47-.7-29.2-1.26-4.35-.25-8.67-1-13-1.51a3.39,3.39,0,0,1-3.32-3.12c-2.79-15.1-4.27-30.22-1.81-45.56,1.5-9.32,3.49-18.46,7.11-27.2a99.94,99.94,0,0,1,11.63-20.55c.48-.66,1-1.26,2.31-2.78.67,3,1.12,5,1.52,6.89a25.54,25.54,0,0,0,.79,3.93,2.28,2.28,0,0,0,1.8,1.24,2.49,2.49,0,0,0,1.43-1.74,8.24,8.24,0,0,0-.09-3.49c-1.15-4.37-2-8.92-3.78-13A129.14,129.14,0,0,1,206.82,287c-.4-1.71-.26-3.83-2.33-4.67-1.07-.43-1.63,1.76-.9,5.32a23,23,0,0,1-.3,8.92c-1.26,7.13-1.78,14.38.16,21.49a6.84,6.84,0,0,1-1.07,6.56c-1.08,1.41-1.89,3-3.14,5A38.66,38.66,0,0,1,197.41,326.09ZM378.93,301.7c-2.7-1.25-4.58-3.4-6.6-5.27-.59-.55-.67-1.81-.71-2.76a22.65,22.65,0,0,1,.25-4c.4-3,.88-5.92,1.44-9.62C377.3,285.92,379.64,295.22,378.93,301.7Zm27.27,42.66a23.23,23.23,0,0,1,3-.32c11.92.34,23.86.67,35.67,2.44a150.49,150.49,0,0,1,15.68,3.62,17.24,17.24,0,0,1,8.06,5c2.6,2.71,3.38,5.65,1.78,9.19-2.38,5.3-5.51,10-10.26,13.46a81.16,81.16,0,0,1-8.53,5.34,170.09,170.09,0,0,1-39.38,15.17,10.12,10.12,0,0,1-1.73.11c-.56-4.59,1.12-9,.93-13.47s0-9.07-.4-13.58a130.08,130.08,0,0,0-1.74-13.46C408.53,353.37,407.31,349,406.2,344.35ZM207.34,316.12c-1.63-4.64-1.29-9.08-.57-13.69a25.29,25.29,0,0,1,3.9,7.9,2.82,2.82,0,0,1-.07,1.93A8.31,8.31,0,0,1,207.34,316.12Zm-20,71.15c.16,4.34.69,8.68,1.13,13s1.53,8.47,1.78,13.12c-1.78-.26-3.23-.44-4.67-.7a346.22,346.22,0,0,1-38.6-9.13,38,38,0,0,1-13.21-7.06,25.56,25.56,0,0,1-3.6-3.5c-3.89-4.76-3.09-11,2-14.45a69.23,69.23,0,0,1,15.68-7.9A175.47,175.47,0,0,1,189,360.85c-.52,4.8-1.14,9.07-1.42,13.37S187.17,382.93,187.32,387.27ZM393.14,433.6A79.42,79.42,0,0,1,375,456.33c-18.31,16.14-39.62,25.47-63.82,28.53-26.86,3.4-51.74-2.38-74.89-16a78.8,78.8,0,0,1-12.29-9.57,121.74,121.74,0,0,1-15.64-17.74c-.38-.51-.66-1.1-1.43-2.41l19.35,1.38c4.69.34,9.37.76,14.06,1,6.2.38,12.41.69,18.62,1a399.29,399.29,0,0,0,59.86-1.41c24.08-2.47,47.81-7,71.46-11.95,1.45-.3,3.66-.54,5.14-.91C394.38,430.74,393.89,432.18,393.14,433.6Zm114-58.35a95.59,95.59,0,0,1-25.74,20.81,207.29,207.29,0,0,1-52.71,21c-17.61,4.26-35.36,8-53.09,11.73q-25.38,5.39-51.16,8.41a334.1,334.1,0,0,1-46.25,2.38c-19.15-.45-38.27-1.53-57.36-3-16.74-1.33-33.43-3.19-50.08-5.33-20.54-2.64-40.74-6.73-60-14.55-8.43-3.42-16.57-7.37-23.88-12.86a55.77,55.77,0,0,1-5.08-4.13,12.84,12.84,0,0,1-.43-18.82,37.74,37.74,0,0,1,5.83-4.78,86.2,86.2,0,0,1,22.12-10.77,369,369,0,0,1,50.28-12.56c9.08-1.65,18.15-3.39,27.23-5,1.63-.3,3.28-.42,5.63-.71l-2.6,10.05c-4.62.64-9.12,1.1-13.55,1.9-13.92,2.5-27.6,5.87-40.27,12.41a65.77,65.77,0,0,0-7.32,4.41c-6.89,4.79-7,15-1.44,20.35a40.54,40.54,0,0,0,16.31,9.7c7.85,2.42,15.8,4.57,23.78,6.52a293.39,293.39,0,0,0,38.16,6.75A291.34,291.34,0,0,0,242.17,421q4.28-.08,8.57-.08c16,0,31.89-.76,47.82-1.69a607.25,607.25,0,0,0,89.76-12c11.15-2.34,22.22-5.15,33.2-8.21a162.25,162.25,0,0,0,35.28-14.65A42.18,42.18,0,0,0,472,370.71a43.72,43.72,0,0,0,2.94-5.27c2.28-4.81,1.33-9.15-2.19-13a23.09,23.09,0,0,0-10.49-6.71,96.92,96.92,0,0,0-18.71-3.84c-11.39-1.08-22.79-1.52-34.22-1.59-1,0-2,0-3-.07a2.51,2.51,0,0,1-2.41-1.51c-1.37-3.2-2.73-6.41-4.22-9.9a11.6,11.6,0,0,1,2.15-.65,346.29,346.29,0,0,1,58.37,1.17q11.77,1.2,23.48,2.92c8.94,1.31,17.1,4.89,24.73,9.59,6.41,4,8.46,9.51,6.86,16.87A36.68,36.68,0,0,1,507.12,375.25Z"/><path class="cls-21" d="M95.71,303.85a19.13,19.13,0,0,0,4.13,1.79c8.23,2.71,13.61,8.31,16.73,16.26a73.9,73.9,0,0,1,4.66,18.5c.19,1.67.41,3.33.73,5,.07.37.3,1.66,1.44,1.47.59-.1.64-1,.68-1.41.14-1.67.25-3.34.24-5,0-5.88,0-11.76,1.41-17.53,2.62-10.64,8-18.74,19.57-21.08a2,2,0,0,0,1-.81c1-2.46-4.76-2.42-6.74-2.68-6.76-.88-12.05-3.89-15.22-10.16a31.45,31.45,0,0,1-3.47-9.93c-1.12-8.31-2.21-16.63-3.32-24.94-.29-2.16-.62-4.31-1-6.45a1.27,1.27,0,0,0-1-.71,1.5,1.5,0,0,0-1,.93,12.93,12.93,0,0,0-.3,3c0,3,.23,6,.26,9.06.05,5.37.17,10.74,0,16.11a38.64,38.64,0,0,1-2.25,12.34c-2.52,6.77-7,10.78-14.51,12.22-3,.57-2.92,1.35-3,2A2.55,2.55,0,0,0,95.71,303.85Zm14.78-6.6a19.16,19.16,0,0,0,4.64-7.69c.91-2.64,1.6-5.36,2.59-8.76.54,1.09.81,1.58,1,2.1.78,1.85,1.51,3.72,2.32,5.56a21,21,0,0,0,11.6,11.27c1.06.44,2.1.92,3.87,1.7-8.81,5.71-13.15,13.32-14.31,23.56a15,15,0,0,1-1.47-2.28c-1.58-4.27-3.38-8.39-6.51-11.8a29.13,29.13,0,0,0-7.7-6.38c-.85-.45-4.75-1.65-5.86-2.36A24.38,24.38,0,0,0,110.49,297.25Z"/><path class="cls-21" d="M487.1,473.39c-1.15-.19-2.34-.18-3.5-.29-5.37-.49-12.16-5.33-12.67-12.4-.19-2.68-.49-5.35-.49-8,0-6.72.17-13.43.2-20.15a15.17,15.17,0,0,0-.5-3.94,1.89,1.89,0,0,0-1.5-1,2,2,0,0,0-1.51,1,9.26,9.26,0,0,0-.48,2.95c-.13,3.19.23,6.42.18,9.61-.1,6.19-1.28,11.32-2,17-.64,4.83-3.54,7.87-8.09,9.32a49.12,49.12,0,0,1-5.87,1.36c-1.48.28-3,.23-4.47.62a2.58,2.58,0,0,0-1.57,1.65,2,2,0,0,0,1.59,2.24,21.61,21.61,0,0,0,3.51.21,11.37,11.37,0,0,1,10.37,6.79,20.63,20.63,0,0,1,1.9,12.7c-.92,5.63-1.53,11.3-2.23,17a6,6,0,0,0,.09,2.47,2,2,0,0,0,1.31,1.24,2.2,2.2,0,0,0,1.56-.95,4.44,4.44,0,0,0,.57-1.89c.56-3.82,1.09-7.64,1.63-11.46a43,43,0,0,1,3.07-12.15,15.73,15.73,0,0,1,10.16-9.1c2.25-.66,4.57-1.06,6.84-1.62a8.19,8.19,0,0,0,2.29-.86,1.58,1.58,0,0,0,.52-1.3A1.37,1.37,0,0,0,487.1,473.39Zm-21.3,10.21a58.67,58.67,0,0,0-3.66-6.7,59,59,0,0,0-5.18-5.55c1.82-1,3.72-2,5.44-3.16s3.07-2.48,4.81-3.92c3,5.62,3.17,5.82,8.79,10.42C472.12,477,468.3,479.29,465.79,483.6Z"/><path class="cls-21" d="M330.36,380.69a9.06,9.06,0,0,0,9.51.77,12.67,12.67,0,0,0,7.59-11c.23-2.79-.06-5.63-.12-8.55,1.16-.61,2.4-1.13,3.5-1.85a8.23,8.23,0,0,0,3.64-6.82,2.56,2.56,0,0,0-1.73-2.77,2.35,2.35,0,0,0-2.84,1.43c-.39.73-.58,1.58-1,2.28a3.44,3.44,0,0,1-3.38,1.78c-.95-.15-1.75-1.25-2.73-2,1.14-1.81,1.93-2.89,2.53-4.07a6.36,6.36,0,0,0,.19-5.35c-.59-1.55-1.67-2.39-2.94-2.28a2.75,2.75,0,0,0-2.26,2.88c0,1,.22,2,.15,3a2.42,2.42,0,0,1-2.38,2.13c-1.33,0-2.67-.28-4-.31-5.57-.12-9.26,2.37-11.2,7.52C319.92,365.28,323.42,376.12,330.36,380.69Zm-1.82-23.58c2.35-3.7,6.1-4.11,9.29-1.1,3.47,3.29,4.72,7.55,5.15,12.14a12.82,12.82,0,0,1,0,1.5H343a21.25,21.25,0,0,1-.21,2.49c-.44,2.18-1.13,4.39-3.48,5.08-2.67.79-5.33.54-7.3-1.83a21.18,21.18,0,0,1-5.16-10.65A11,11,0,0,1,328.54,357.11Z"/><path class="cls-21" d="M216.07,362.85A25.59,25.59,0,0,0,219,365c-.08,2.79-.15,5.12-.2,7.46a11,11,0,0,0,4.16,8.76c3.54,3.13,7.55,3.35,11.44.6A20,20,0,0,0,242,360.45a12.42,12.42,0,0,0-4.39-7.11c-2.15-1.65-4.57-1.6-7.16-1.23-3.26.47-4.95-.84-5.54-4.13-.36-2-1.36-2.31-2-2.32A2.6,2.6,0,0,0,221,346.9a5.75,5.75,0,0,0,.17,5.31c.57,1.18,1.31,2.27,1.92,3.31-.27.48-.41.79-.61,1.06-2.14,2.89-2.12,2.87-4.17,0-.35-.49-1.1-1.13-1.51-1a3.1,3.1,0,0,0-1.91,1.35A5.1,5.1,0,0,0,216.07,362.85Zm9-1.77c1.15-3,5-5.09,8.2-4.63a5,5,0,0,1,2.56,1.36,6.5,6.5,0,0,1,1.52,2.56,14.87,14.87,0,0,1-2.81,15.06c-1.65,2-3.89,3.41-6.65,2.52s-4-3-4.48-5.61c-.19-1-.25-2-.45-3.7A73.39,73.39,0,0,1,225,361.08Z"/><path class="cls-22" d="M267.78,378.84a13.34,13.34,0,0,1,.49-3,2.76,2.76,0,0,1,1.66-1.58A1.82,1.82,0,0,1,272,376c.24,1.3.21,2.65.35,4a30.32,30.32,0,0,0,.62,4.44,5.15,5.15,0,0,0,3.24,3.56c2.71,1.09,4,.14,5.72-2.15,1.22-1.64,2.42-4.3,3.08-10.47.16-1.46,2.41-1.53,2.75.66.82,5.35.5,10.41-3.32,14.54a9.08,9.08,0,0,1-15-2.44C268.1,385.33,267.87,382.34,267.78,378.84Z"/></svg>