<svg xmlns="http://www.w3.org/2000/svg" xmlns:xlink="http://www.w3.org/1999/xlink" viewBox="0 0 1200 628"><defs><style>.cls-1{fill:none;}.cls-2{isolation:isolate;}.cls-3{fill:url(#New_Gradient_Swatch_2);}.cls-4{clip-path:url(#clip-path);}.cls-5{fill:#244999;}.cls-6{font-size:39.98px;fill:#edc96e;}.cls-12,.cls-6{font-family:Lato-Black, Lato;}.cls-7{letter-spacing:-0.02em;}.cls-8{letter-spacing:-0.03em;}.cls-9{fill:url(#linear-gradient);}.cls-10{fill:url(#linear-gradient-2);}.cls-11,.cls-13{fill:#fff;}.cls-12{font-size:74.65px;fill:#d30032;}.cls-12,.cls-17{opacity:0.4;}.cls-13{stroke:#000;stroke-linecap:round;stroke-linejoin:round;stroke-width:3.15px;stroke-dasharray:8.39 10.49 0 0;}.cls-14{clip-path:url(#clip-path-2);}.cls-15{fill:#ff2849;}.cls-16{clip-path:url(#clip-path-3);}.cls-17{fill:#980048;mix-blend-mode:multiply;}</style><linearGradient id="New_Gradient_Swatch_2" x1="149.86" y1="588.73" x2="1056.35" y2="35.48" gradientUnits="userSpaceOnUse"><stop offset="0" stop-color="#c99b3b"/><stop offset="0.52" stop-color="#ffffab"/><stop offset="1" stop-color="#cea040"/></linearGradient><clipPath id="clip-path"><rect class="cls-1" x="459" width="622" height="220"/></clipPath><linearGradient id="linear-gradient" x1="642.04" y1="-16.06" x2="695.13" y2="248.22" gradientUnits="userSpaceOnUse"><stop offset="0" stop-color="#663800"/><stop offset="0.4" stop-color="#ffd373"/><stop offset="1" stop-color="#cea040"/></linearGradient><linearGradient id="linear-gradient-2" x1="599.9" y1="-7.6" x2="652.99" y2="256.68" xlink:href="#linear-gradient"/><clipPath id="clip-path-2"><path class="cls-1" d="M140.33,371.75c9.88-8.58,17.23-19.16,24.16-30.12,7.56-11.93,16-23.23,26.55-32.76,15.78-14.21,34-22.42,55.42-22.92a56.69,56.69,0,0,1,18.76,2.71c7.83,2.52,15.75,4.76,23.57,7.3,11.06,3.58,21.43,1.76,31.15-4a170.78,170.78,0,0,0,18.78-12.45c34.85-27.79,76.48-21.16,102.22-4.55,5.12,3.31,9.94,7.11,14.79,10.82,7.1,5.43,14.11,11,22.46,14.44a7.5,7.5,0,0,1,1.27.62c3.9,2.51,4.14,5.8.11,8.1-5.29,3-10.72,6-16.46,7.94-15.56,5.23-31.17,10.31-47.55,12.73-13,1.92-25.94,4.51-37.95,10.32a34.32,34.32,0,0,1-3.91,1.31c1.3-4.3,2.32-7.64,3.29-11,.07-.3-.32-.74-.47-1.11-.44.15-1.06.18-1.24.47-6.11,10.58-15.18,18.53-24.27,26.27-9.29,7.91-20.51,12.29-32.44,14.59a21.27,21.27,0,0,1-9.1-.16c-20.53-5.35-41.13-3.15-61.67-.63-17,2.09-33.93,5-50.9,7.48-18,2.63-36,3.59-54.09,1.08-1.73-.23-4.13-.7-4.87-1.89C136.79,374.42,139,372.92,140.33,371.75Z"/></clipPath><clipPath id="clip-path-3"><path class="cls-1" d="M147.28,398.48c-1.63-3.7.11-6.55,4.18-6.89a22.18,22.18,0,0,1,4.21.26,79.33,79.33,0,0,0,24.5-1.59c16.11-3.26,32.18-6.89,48.42-9.34,15.54-2.35,31.27-3.47,46.94-5,9.95-1,19.68.59,29.37,2.75,6.45,1.43,9.63,6.4,12.69,11.41,2.38,3.93,4.28,8.14,6.38,12.22,1.11-5-.48-9.48-2.82-13.78-1.45-2.65-3.1-5.2-4.68-7.87,6.24-3,11.77-2.13,17.27,1.72,6.17,4.31,12.09,8.78,16.21,15.29-3.39-8.64-7.39-16.75-16.88-21.23a37.86,37.86,0,0,1,4.21-2.49c8.73-3.64,16.6-8.69,24.24-14.23,12.29-8.89,25.63-15.73,40.72-18.59,7.84-1.48,15.7-3,23.59-4.05a214,214,0,0,0,36.38-8.24c7.94-2.53,9.72-1.27,9.61,7.13-.15,10.89-2.49,21.51-5.63,31.84a154.29,154.29,0,0,1-36,61.52A74.24,74.24,0,0,1,410,444.41c-24,12.33-49,21.68-75.42,27-14.74,2.94-29.6,5.28-44.45,7.54-13.23,2-26.17.33-39-3.33a147.25,147.25,0,0,1-48.48-23.73c-8.66-6.47-17.3-12.95-25.86-19.56-10.71-8.28-19-18.76-27-29.6A23.52,23.52,0,0,1,147.28,398.48Z"/></clipPath></defs><title>12_vers_ru</title><g class="cls-2"><g id="Layer_1" data-name="Layer 1"><rect class="cls-3" y="-1" width="1200" height="630"/><g class="cls-4"><ellipse class="cls-5" cx="770" cy="15.71" rx="300" ry="204.29"/></g><text class="cls-6" transform="translate(702.28 104.76)">#KULDSÜ<tspan class="cls-7" x="184.87" y="0">D</tspan><tspan class="cls-8" x="214.29" y="0">A</tspan></text><path class="cls-9" d="M671.58,54.31c-8.43-3.59-19.26.49-28.45,9.54a87.22,87.22,0,0,1,6.25,12.58c8.52,21.26,7.51,42.18-1.38,52.3,10.6-2.66,22-13,29-27.69C686.78,80.66,684.34,59.74,671.58,54.31Z"/><path class="cls-10" d="M636.26,128.1c-12.76-5.43-15.2-26.35-5.45-46.73a62.63,62.63,0,0,1,12.32-17.52c-11.32-18.78-28-29.57-40.8-25-15.46,5.51-19.47,31.26-8.94,57.52S625,139.46,640.44,134a18.1,18.1,0,0,0,7.57-5.22A18.28,18.28,0,0,1,636.26,128.1Z"/><path class="cls-11" d="M649.38,76.43a87.22,87.22,0,0,0-6.25-12.58,62.63,62.63,0,0,0-12.32,17.52c-9.75,20.38-7.31,41.3,5.45,46.73a18.28,18.28,0,0,0,11.74.63C656.89,118.6,657.9,97.68,649.38,76.43Z"/><text class="cls-12" transform="translate(650.55 407.34)">МАГНИТ ДЛЯ <tspan x="0" y="89.58">МУЖЧИН</tspan></text><path class="cls-13" d="M336.94,503c-10.74,2.34-21.94,4.39-34.23,6.26-35.5,5.4-69.05-1.94-102.57-22.44a356.58,356.58,0,0,1-48.3-36,170.36,170.36,0,0,1-16.31-17c-2.25-2.58-4.38-5-6.51-7.27-3.23-3.44-6.62-6.84-9.92-10.09-10.28-1.77-18.79-6-26.05-9.81-11.89-6.33-17.64-16.13-17.59-29.95a23.43,23.43,0,0,1,26-23.22c.71.08,1.42.17,2.12.26l.84.11,2.09,0c2.39.05,4.67.1,6.75.05.41-.33,1-.84,1.86-1.62,8.74-8,14.61-14.75,19-21.78,7.55-12,16.87-25.84,28.76-38.13C180.15,274.67,200,262.94,222,257.62c.91-.22,1.84-.43,2.76-.64,18.86-4.11,36.92-3.15,53.68,2.85,4.64,1.66,9.49,3.13,14.63,4.68,2.68.81,5.37,1.62,8,2.46l.26.07.21-.12c1.95-1.17,3.89-2.3,5.83-3.43,5.06-2.93,9.84-5.7,13.45-8.65a108,108,0,0,1,45.77-22c32.37-7.06,67.68,0,94.45,19,5,3.52,9.57,7.18,14,10.73l3.19,2.54a69.74,69.74,0,0,0,16.17,10,6.44,6.44,0,0,0,1.32.43,4.83,4.83,0,0,0,.68-.34c1.81-1.06,3.48-1.84,4.82-2.47l1.13-.54a23.41,23.41,0,0,1,29.91,8.13c7.27,11,6.33,24.84-2.38,35.21a66.15,66.15,0,0,1-11,10.53,141.43,141.43,0,0,1-14.4,9.45l-.15.25a25.69,25.69,0,0,0-3,9.1c-.36,2.18-.71,4.41-1.06,6.64-.67,4.31-1.37,8.77-2.23,13.31-6.08,32.29-21.53,61.49-45.9,86.76-10.68,11.07-23.28,18.16-34.2,23.63-24,12-50.51,21.13-81.12,27.8Z"/><g class="cls-14"><rect class="cls-15" x="84.96" y="222.23" width="431.9" height="172.23" transform="translate(-59.12 71.7) rotate(-12.38)"/><path class="cls-11" d="M438.31,283.14a12.81,12.81,0,1,0,15.26,9.77A12.82,12.82,0,0,0,438.31,283.14Z"/><path class="cls-11" d="M413,270.67a12.81,12.81,0,1,0-15.26-9.77A12.81,12.81,0,0,0,413,270.67Z"/><circle class="cls-11" cx="367.17" cy="267.61" r="12.81" transform="translate(-48.83 84.94) rotate(-12.38)"/><circle class="cls-11" cx="385.72" cy="352.07" r="12.81" transform="translate(-66.53 90.91) rotate(-12.38)"/><circle class="cls-11" cx="397.98" cy="305.11" r="12.81" transform="translate(-56.19 92.48) rotate(-12.39)"/><path class="cls-11" d="M352.16,302.06a12.81,12.81,0,1,0,15.27,9.77A12.81,12.81,0,0,0,352.16,302.06Z"/><path class="cls-11" d="M326.84,289.58a12.81,12.81,0,1,0-15.26-9.77A12.81,12.81,0,0,0,326.84,289.58Z"/><path class="cls-11" d="M283.77,299a12.81,12.81,0,1,0-15.26-9.77A12.81,12.81,0,0,0,283.77,299Z"/><path class="cls-11" d="M339.9,349a12.81,12.81,0,1,0,15.26,9.76A12.82,12.82,0,0,0,339.9,349Z"/><circle class="cls-11" cx="299.57" cy="370.99" r="12.81" transform="translate(-72.59 72.87) rotate(-12.38)"/><path class="cls-11" d="M309.09,311.51a12.81,12.81,0,1,0,15.26,9.76A12.81,12.81,0,0,0,309.09,311.51Z"/><circle class="cls-11" cx="268.76" cy="333.48" r="12.81" transform="translate(-65.28 65.42) rotate(-12.39)"/><path class="cls-11" d="M240.7,308.49a12.81,12.81,0,1,0-15.26-9.77A12.82,12.82,0,0,0,240.7,308.49Z"/><circle class="cls-11" cx="194.88" cy="305.44" r="12.81" transform="translate(-61 48.93) rotate(-12.39)"/><circle class="cls-11" cx="256.5" cy="380.44" r="12.81" transform="translate(-75.64 63.88) rotate(-12.39)"/><path class="cls-11" d="M222.94,330.43a12.81,12.81,0,1,0,15.26,9.77A12.81,12.81,0,0,0,222.94,330.43Z"/><path class="cls-11" d="M179.87,339.89a12.81,12.81,0,1,0,15.26,9.77A12.81,12.81,0,0,0,179.87,339.89Z"/><circle class="cls-11" cx="151.8" cy="314.9" r="12.81" transform="translate(-63.96 39.85) rotate(-12.38)"/><circle class="cls-11" cx="139.54" cy="361.86" r="12.81" transform="translate(-74.35 38.34) rotate(-12.38)"/></g><g class="cls-16"><polygon class="cls-15" points="100.16 379.04 135.46 539.82 530.13 453.17 494.82 292.39 100.16 379.04"/><path class="cls-11" d="M474.61,345.67a12.81,12.81,0,1,0-15.26-9.76A12.81,12.81,0,0,0,474.61,345.67Z"/><path class="cls-11" d="M456.86,367.61a12.81,12.81,0,1,0,15.26,9.76A12.81,12.81,0,0,0,456.86,367.61Z"/><path class="cls-11" d="M431.54,355.13a12.81,12.81,0,1,0-15.26-9.77A12.81,12.81,0,0,0,431.54,355.13Z"/><circle class="cls-11" cx="385.72" cy="352.07" r="12.81" transform="translate(-66.53 90.91) rotate(-12.38)"/><path class="cls-11" d="M444.59,414.56a12.81,12.81,0,1,0,15.26,9.76A12.81,12.81,0,0,0,444.59,414.56Z"/><circle class="cls-11" cx="404.26" cy="436.54" r="12.81" transform="translate(-84.28 96.95) rotate(-12.4)"/><circle class="cls-11" cx="416.53" cy="389.57" r="12.81" transform="translate(-73.87 98.42) rotate(-12.39)"/><path class="cls-11" d="M370.7,386.52A12.81,12.81,0,1,0,386,396.28,12.81,12.81,0,0,0,370.7,386.52Z"/><path class="cls-11" d="M345.39,374a12.81,12.81,0,1,0-15.26-9.76A12.81,12.81,0,0,0,345.39,374Z"/><circle class="cls-11" cx="299.57" cy="370.99" r="12.81" transform="translate(-72.59 72.87) rotate(-12.38)"/><circle class="cls-11" cx="361.19" cy="445.99" r="12.81" transform="translate(-87.31 87.93) rotate(-12.4)"/><circle class="cls-11" cx="318.12" cy="455.45" r="12.81" transform="translate(-90.27 78.82) rotate(-12.38)"/><path class="cls-11" d="M327.63,396a12.81,12.81,0,1,0,15.27,9.76A12.81,12.81,0,0,0,327.63,396Z"/><path class="cls-11" d="M284.56,405.43a12.81,12.81,0,1,0,15.26,9.76A12.81,12.81,0,0,0,284.56,405.43Z"/><circle class="cls-11" cx="256.5" cy="380.44" r="12.81" transform="translate(-75.64 63.88) rotate(-12.39)"/><circle class="cls-11" cx="213.42" cy="389.9" r="12.81" transform="translate(-78.65 54.84) rotate(-12.38)"/><path class="cls-11" d="M272.3,452.39a12.81,12.81,0,1,0,15.26,9.77A12.81,12.81,0,0,0,272.3,452.39Z"/><circle class="cls-11" cx="231.97" cy="474.36" r="12.81" transform="translate(-96.39 60.83) rotate(-12.39)"/><circle class="cls-11" cx="244.23" cy="427.41" r="12.81" transform="translate(-85.98 62.32) rotate(-12.38)"/><circle class="cls-11" cx="201.16" cy="436.86" r="12.81" transform="translate(-89.08 53.36) rotate(-12.4)"/><path class="cls-11" d="M173.09,411.87a12.81,12.81,0,1,0-15.25-9.76A12.81,12.81,0,0,0,173.09,411.87Z"/></g><path class="cls-17" d="M466,322.56l-.55.11a8.14,8.14,0,0,0-2.1.7c-10.47,3.17-20.82,5.91-31.72,7.27-12.07,1.5-23.94,3.06-35.6,6.64-24.67,7.59-44,26-69,32.51-12.86,3.31-25.89,1.69-38.95,1.5a297.77,297.77,0,0,0-37,2.08c-23.66,2.62-49,5.74-71.12,14.73a5.51,5.51,0,0,0-3,2.77,75.38,75.38,0,0,1-21.31,1,22.18,22.18,0,0,0-4.21-.26c-4.07.34-5.81,3.18-4.18,6.89a23.52,23.52,0,0,0,2.5,4.24c7.91,10.85,16.25,21.32,27,29.6,8.55,6.61,17.2,13.08,25.86,19.56a147.25,147.25,0,0,0,48.48,23.73c12.86,3.66,25.81,5.35,39,3.33,14.86-2.26,29.72-4.6,44.45-7.54,26.43-5.3,51.46-14.65,75.42-27a74.24,74.24,0,0,0,20.25-15.1A155.74,155.74,0,0,0,460.67,383c-50.69,61.42-141,67.83-162.86,69.69-19,1.61-39.71,4.89-58.58.7-14.16-3.16-24.76-12.28-33.8-23.22-6.59-8-15.74-18.9-18.29-29.77,8.73-.69,17.77-3.25,26.22-4.66,12.53-2.1,25-4.09,37.67-5.57a297,297,0,0,1,38.86-1.91c13.72.19,26.68,1.09,40.24-1.8,24.25-5.15,42.77-22.81,65.46-31.56,11.54-4.46,23.84-6.1,36-7.64,12.81-1.63,25-5.17,37.31-9C478.47,335.23,476.34,320.58,466,322.56Z"/><path class="cls-17" d="M479.45,300.79a7.5,7.5,0,0,0-1.27-.62c-1.58-.66-3.11-1.42-4.61-2.21-13.63,6.26-27.53,11.93-42.07,15.7-12.05,3.13-24.43,4.55-36.52,7.44-21.27,5.09-35.84,19.3-54.63,29.24-20,10.58-43.9,9-65.82,10.95-26.12,2.33-64.47,11.7-87.86-4.54-12.31-8.55-12.7-21.3-8.56-34.2a194.37,194.37,0,0,0-13.64,19.09c-6.94,11-14.28,21.54-24.16,30.12-1.33,1.17-3.54,2.67-2.38,4.55.74,1.19,3.13,1.66,4.87,1.89,18.08,2.51,36.11,1.54,54.09-1.08,17-2.48,33.88-5.39,50.9-7.48,20.54-2.52,41.14-4.71,61.67.63a21.27,21.27,0,0,0,9.1.16c11.92-2.3,23.15-6.68,32.44-14.59,9.09-7.74,18.16-15.69,24.27-26.27.17-.29.79-.32,1.24-.47.16.37.54.81.47,1.11-1,3.35-2,6.69-3.29,11a34.32,34.32,0,0,0,3.91-1.31c12-5.82,24.93-8.4,37.95-10.32,16.38-2.42,32-7.5,47.55-12.73,5.74-1.92,11.17-4.93,16.46-7.94C483.6,306.59,483.35,303.3,479.45,300.79Z"/><path d="M125.12,393.72a13.41,13.41,0,0,1,8.12,3.83c4.35,4.27,8.69,8.57,12.87,13,7.07,7.52,13.4,15.85,21.14,22.61a334.72,334.72,0,0,0,45.13,33.68c26.71,16.34,55.16,24.08,86.81,19.26,37.64-5.72,74.2-14.68,108.38-31.84,10.08-5.05,19.85-10.67,27.83-18.95,20.41-21.16,34.27-45.78,39.74-74.84,1.22-6.46,2.12-13,3.2-19.48a48.65,48.65,0,0,1,6-17.22,22.4,22.4,0,0,1,8.3-8.4A117.2,117.2,0,0,0,505,307.29a43.27,43.27,0,0,0,7-6.82c1.66-2,2.62-4.42.76-7.23-1.61.79-3.12,1.42-4.51,2.24-7.45,4.33-15,4.61-23,1.21a93.53,93.53,0,0,1-21.56-13.19c-5.33-4.23-10.6-8.57-16.16-12.5-30.53-21.6-78.42-25.3-111.86,2-6.68,5.45-14.54,9.5-22,14a23.11,23.11,0,0,1-19.64,2.34c-7.84-2.47-15.79-4.65-23.53-7.43-14.23-5.1-28.56-5-43-1.5C208.71,285,193.1,295,179.74,308.78c-10,10.36-18.12,22.2-25.77,34.32-6.34,10.06-14.34,18.57-23,26.53-4.17,3.84-8.7,7.36-14.68,7.71-4.19.24-8.42.08-12.62,0-1.58,0-3.15-.33-4.76-.5,0,5.16.85,6.89,5.16,9.18C110.71,389.56,117.48,392.86,125.12,393.72Zm15.21-22c9.88-8.58,17.23-19.16,24.16-30.12,7.56-11.93,16-23.23,26.55-32.76,15.78-14.21,34-22.42,55.42-22.92a56.69,56.69,0,0,1,18.76,2.71c7.83,2.52,15.75,4.76,23.57,7.3,11.06,3.58,21.43,1.76,31.15-4a170.78,170.78,0,0,0,18.78-12.45c34.85-27.79,76.48-21.16,102.22-4.55,5.12,3.31,9.94,7.11,14.79,10.82,7.1,5.43,14.11,11,22.46,14.44a7.5,7.5,0,0,1,1.27.62c3.9,2.51,4.14,5.8.11,8.1-5.29,3-10.72,6-16.46,7.94-15.56,5.23-31.17,10.31-47.55,12.73-13,1.92-25.94,4.51-37.95,10.32a34.32,34.32,0,0,1-3.91,1.31c1.3-4.3,2.32-7.64,3.29-11,.07-.3-.32-.74-.47-1.11-.44.15-1.06.18-1.24.47-6.11,10.58-15.18,18.53-24.27,26.27-9.29,7.91-20.51,12.29-32.44,14.59a21.27,21.27,0,0,1-9.1-.16c-20.53-5.35-41.13-3.15-61.67-.63-17,2.09-33.93,5-50.9,7.48-18,2.63-36,3.59-54.09,1.08-1.73-.23-4.13-.7-4.87-1.89C136.79,374.42,139,372.92,140.33,371.75Zm7,26.73c-1.63-3.7.11-6.55,4.18-6.89a22.18,22.18,0,0,1,4.21.26,79.33,79.33,0,0,0,24.5-1.59c16.11-3.26,32.18-6.89,48.42-9.34,15.54-2.35,31.27-3.47,46.94-5,9.95-1,19.68.59,29.37,2.75,6.45,1.43,9.63,6.4,12.69,11.41,2.38,3.93,4.28,8.14,6.38,12.22,1.11-5-.48-9.48-2.82-13.78-1.45-2.65-3.1-5.2-4.68-7.87,6.24-3,11.77-2.13,17.27,1.72,6.17,4.31,12.09,8.78,16.21,15.29-3.39-8.64-7.39-16.75-16.88-21.23a37.86,37.86,0,0,1,4.21-2.49c8.73-3.64,16.6-8.69,24.24-14.23,12.29-8.89,25.63-15.73,40.72-18.59,7.84-1.48,15.7-3,23.59-4.05a214,214,0,0,0,36.38-8.24c7.94-2.53,9.72-1.27,9.61,7.13-.15,10.89-2.49,21.51-5.63,31.84a154.29,154.29,0,0,1-36,61.52A74.24,74.24,0,0,1,410,444.41c-24,12.33-49,21.68-75.42,27-14.74,2.94-29.6,5.28-44.45,7.54-13.23,2-26.17.33-39-3.33a147.25,147.25,0,0,1-48.48-23.73c-8.66-6.47-17.3-12.95-25.86-19.56-10.71-8.28-19-18.76-27-29.6A23.52,23.52,0,0,1,147.28,398.48Z"/></g></g></svg>