<svg id="Layer_1" data-name="Layer 1" xmlns="http://www.w3.org/2000/svg" xmlns:xlink="http://www.w3.org/1999/xlink" viewBox="0 0 1200 628"><defs><style>.cls-1{fill:none;}.cls-2{fill:url(#New_Gradient_Swatch_2);}.cls-3{clip-path:url(#clip-path);}.cls-4{fill:#244999;}.cls-5{font-size:39.98px;fill:#edc96e;}.cls-11,.cls-5{font-family:Lato-Black, Lato;}.cls-6{letter-spacing:-0.02em;}.cls-7{letter-spacing:-0.03em;}.cls-8{fill:url(#linear-gradient);}.cls-9{fill:url(#linear-gradient-2);}.cls-10,.cls-12{fill:#fff;}.cls-11{font-size:76.65px;}.cls-11,.cls-20{fill:#ff7ca5;}.cls-12{stroke:#000;stroke-linecap:round;stroke-linejoin:round;stroke-width:3.42px;stroke-dasharray:9.11 11.39 0 0;}.cls-13{fill:#ffd998;}.cls-14{fill:#7fe8e0;}.cls-15{fill:#ff953b;}.cls-16{fill:#9c70b8;}.cls-17{fill:#fff63b;}.cls-18{fill:#54dc73;}.cls-19{fill:#ff4a63;}.cls-21{fill:#f89288;}.cls-22{fill:#c72f77;opacity:0.3;}.cls-23{fill-rule:evenodd;}</style><linearGradient id="New_Gradient_Swatch_2" x1="149.86" y1="588.73" x2="1056.35" y2="35.48" gradientUnits="userSpaceOnUse"><stop offset="0" stop-color="#c99b3b"/><stop offset="0.52" stop-color="#ffffab"/><stop offset="1" stop-color="#cea040"/></linearGradient><clipPath id="clip-path"><rect class="cls-1" x="459" width="622" height="220"/></clipPath><linearGradient id="linear-gradient" x1="642.04" y1="-16.06" x2="695.13" y2="248.22" gradientUnits="userSpaceOnUse"><stop offset="0" stop-color="#663800"/><stop offset="0.4" stop-color="#ffd373"/><stop offset="1" stop-color="#cea040"/></linearGradient><linearGradient id="linear-gradient-2" x1="599.9" y1="-7.6" x2="652.99" y2="256.68" xlink:href="#linear-gradient"/></defs><title>12_vers_ru</title><rect class="cls-2" y="-1" width="1200" height="630"/><g class="cls-3"><ellipse class="cls-4" cx="770" cy="15.71" rx="300" ry="204.29"/></g><text class="cls-5" transform="translate(702.28 104.76)">#KULDSÜ<tspan class="cls-6" x="184.87" y="0">D</tspan><tspan class="cls-7" x="214.29" y="0">A</tspan></text><path class="cls-8" d="M671.58,54.31c-8.43-3.59-19.26.49-28.45,9.54a87.22,87.22,0,0,1,6.25,12.58c8.52,21.26,7.51,42.18-1.38,52.3,10.6-2.66,22-13,29-27.69C686.78,80.66,684.34,59.74,671.58,54.31Z"/><path class="cls-9" d="M636.26,128.1c-12.76-5.43-15.2-26.35-5.45-46.73a62.63,62.63,0,0,1,12.32-17.52c-11.32-18.78-28-29.57-40.8-25-15.46,5.51-19.47,31.26-8.94,57.52S625,139.46,640.44,134a18.1,18.1,0,0,0,7.57-5.22A18.28,18.28,0,0,1,636.26,128.1Z"/><path class="cls-10" d="M649.38,76.43a87.22,87.22,0,0,0-6.25-12.58,62.63,62.63,0,0,0-12.32,17.52c-9.75,20.38-7.31,41.3,5.45,46.73a18.28,18.28,0,0,0,11.74.63C656.89,118.6,657.9,97.68,649.38,76.43Z"/><text class="cls-11" transform="translate(650.55 407.34)">СТИЛЬНАЯ <tspan x="0" y="91.99">ДЕТКА</tspan></text><path class="cls-12" d="M300.61,549.66c6,0,11.88-.22,17.61-.44,2.55-.1,5.1-.19,7.63-.27a17.57,17.57,0,0,0,4-.6c13.11-2.29,25.07-8.57,35.57-18.65a101.34,101.34,0,0,0,16.61-20c3.39-.26,6.86-.55,10.38-1,21.38-2.71,37-12.74,46.56-29.82.29-.53.6-1.05.9-1.57.55-1,1.11-1.92,1.63-2.9a56.13,56.13,0,0,0,6.82-27.24c0-1.64,0-3.28,0-4.92q0-1.42,0-2.88c2.34-1.68,4.48-3.32,6.47-5a50.49,50.49,0,0,0,16.93-27,70,70,0,0,0,.56-32.46c-2.12-9.82-5.89-19.68-11.87-31-5.66-10.75-13.22-20.91-23.8-32a10.34,10.34,0,0,1-3.08-5.32c-.2-.94-.43-1.88-.66-2.81-.15-.6-.31-1.2-.43-1.82-.54-2.72-1.06-5.45-1.58-8.17-.87-4.55-1.78-9.26-2.75-13.93a312.66,312.66,0,0,0-27.58-78.53c-15.36-30-36.94-53.44-64.16-69.72-1.35-3.46-2.76-7-4.55-10.67-4.55-9.23-10.7-17.15-16.12-24.13-.32-.41-.62-.79-.93-1.16l-.31-.36-.67-.77-.48-.51-.68-.7-.59-.56c-.25-.23-.51-.46-.76-.67s-.55-.45-.8-.64-.64-.46-.87-.62c-.4-.27-.81-.52-1.17-.73s-.79-.43-1.17-.61a15.88,15.88,0,0,0-1.56-.65,15.44,15.44,0,0,0-1.7-.49,15.92,15.92,0,0,0-3.65-.43c-5.25,0-12.41,2.39-16.7,13.79-1.9,5-3.68,10.13-5.41,15.06-2-.31-4-.61-6.13-.86a109.37,109.37,0,0,0-13.16-.85l-1.89,0-2,0A196.72,196.72,0,0,0,235,116.21a107.45,107.45,0,0,0-23.16,5.29c-.57-.83-1.14-1.67-1.73-2.5a79.74,79.74,0,0,1-6.64-11.14A192.68,192.68,0,0,0,189,83.59c-.55-.81-1.15-1.61-1.89-2.52L187,81c-.64-.78-1.33-1.54-2-2.29a14.19,14.19,0,0,0-2.24-14.15,16.31,16.31,0,0,0-5.25-4.76,9.81,9.81,0,0,1-.52-1.86l-.15-.79a43.56,43.56,0,0,0-1.32-5.41l-.05-.25C172.55,38,162.35,37,159.3,37h-.43a16,16,0,0,0-11.34,5C142.82,47,143,53,143.12,55.31v.11c0,.37-.17.51-.84,1-.35.25-.72.5-1.08.74-.84.56-1.88,1.27-3,2.13a16.14,16.14,0,0,0-6.09,11,16.48,16.48,0,0,0,3.8,12.25,24.59,24.59,0,0,0,3.66,3.54,9.33,9.33,0,0,1,3.57,6.11l0,.17a19.54,19.54,0,0,0,2.08,6.12c2.53,4.58,9.75,19.14,5.05,19.14a17.53,17.53,0,0,0-13.78,6.84,33,33,0,0,0-4.37,7.42,99.74,99.74,0,0,0-7.69,30.07,89.65,89.65,0,0,0,2.19,29.59l.53,2.16c1.92,7.92,4.08,16.82,8.55,25.29l-.31.69c-.08.18-.16.37-.25.56-6.47,13.55-14.11,26.78-21.39,39.17a133.45,133.45,0,0,0-17.11,46c-2.69,16-.16,30.89,7.52,44.41-6,7.75-10.37,16.85-13.25,27.73A105.49,105.49,0,0,0,88.25,420c3.3,22.58,12.57,41.47,27.57,56.24a60.75,60.75,0,0,0-.41,9.4,96.88,96.88,0,0,0,2.6,19.55,51.72,51.72,0,0,0,5.44,14.12l.07.11a49.69,49.69,0,0,0,3.48,5.29c.51.67,1,1.34,1.61,2,.29.34.58.68.86,1,.75.85,1.45,1.61,2.14,2.3l.47.46c.94.93,1.84,1.76,2.75,2.54A85,85,0,0,0,150,543.37a169.24,169.24,0,0,0,27.35,11.71c8,2.59,15,5,21.55,7.49,1,.36,3.87,1.45,4.4,2a17,17,0,0,0,3,3.36l.21.18.41.33a16.59,16.59,0,0,0,3.49,2.1A16.38,16.38,0,0,0,217,572,17.2,17.2,0,0,0,230,566a26.77,26.77,0,0,0,2.58-3.57l.26-.41c.4-.54.8-1.09,1.19-1.65l.5-.71c6.47-5,12.85-8.12,19.47-9.59a82.16,82.16,0,0,1,17-1.83h1.52c.81,0,1.63,0,2.43,0,3.21.08,6.52.35,10,.63,4.19.34,8.53.69,13,.74Z"/><path class="cls-13" d="M206.74,524c-2.55-11.17-5.25-22.3-6.48-33.73a164.21,164.21,0,0,1-.17-32.17,140.38,140.38,0,0,1,4.55-24.66,28.28,28.28,0,0,0,.54-3.93,9,9,0,0,0-1.34-.7c-1.4-.38-2.81-.74-4.23-1.05-9.74-2.11-17-8.1-23.28-15.34-2.81-3.24-4.48-7.39-7.88-10.32a7.12,7.12,0,0,1-2.06-7.51c.75-3,1.12-6.08,2-9a30.14,30.14,0,0,0,1.19-9.14c-.19-7.64,0-15.3-.49-22.93-.46-8-1.11-16-2.29-23.88a38.83,38.83,0,0,0-6.47-17.2,47.31,47.31,0,0,1-7.12-14.67,6.34,6.34,0,0,0-3.59-4.4,12.19,12.19,0,0,1-3.63-3.2c-.85-1-1.89-2.17-1.21-3.92a37.38,37.38,0,0,0,4.43.86,1.9,1.9,0,0,0,1.56-1,2.21,2.21,0,0,0-.7-1.82,30.46,30.46,0,0,0-2.8-1.66,13.35,13.35,0,0,1-5.55-7.83,2.72,2.72,0,0,1,.53-1.91c.13-.2,1-.07,1.47.16,1.27.69,2.42,1.64,3.73,2.25,2.31,1.08,3.69.42,3.86-2,.34-4.9.5-9.81.61-14.73a4.42,4.42,0,0,0-1-2.41c-2-2.76-4.14-5.45-6.33-8.31a23.79,23.79,0,0,0-1.54,2c-3.88,6.16-7.77,12.31-11.57,18.52a115.18,115.18,0,0,0-14,34.78c-2.77,12.1-2.32,23.82,3.77,35,2.6,4.77,5,9.67,7.61,14.78-1.11,2-3.27,3.09-5,4.69a76.75,76.75,0,0,0-5.77,5.73,32.54,32.54,0,0,0-6.29,12.6c-3.58,12.92-5.18,26-3.63,39.42,2.46,21.25,11.47,38.9,28.6,52,2.12,1.62,2.18,2.46,1.07,4.9-2.2,4.82-3.77,10-3.25,15.32,1.16,11.8,5.32,22.3,15.13,29.76,3.61,2.75,7.41,5.27,11.26,7.68,8.22,5.15,17.17,8.68,26.3,11.87,7.2,2.52,14.27,5.42,21.4,8.14.91.35,1.68,1.34,3.07.66-.14-.85-.22-1.73-.43-2.59C209.8,536.73,208.19,530.38,206.74,524Z"/><path class="cls-14" d="M192,153.44a2.25,2.25,0,0,0-.33,2c1.63,4.95,2.76,10.07,5.08,15.24,7-2.69,10.52-7.66,12.2-14.18a5.59,5.59,0,0,0-.29-4.21,138.63,138.63,0,0,0-7.85-13.51c-.39.2-.61.23-.64.34C198.5,144.46,196.83,149.81,192,153.44Z"/><path class="cls-10" d="M290.83,170c.68,2.84,2.49,4.45,5.94,5.36,0-3.67,0-7.31,0-10.94a55.32,55.32,0,0,1,3.63-20.29,45.19,45.19,0,0,0,3.14-12.65,7.42,7.42,0,0,1,2.5-5.34c0,2.16.06,3.23,0,4.3a191.82,191.82,0,0,0,0,28.88c.39,4.89.75,9.78,1,14.68.58,13.36,7,24.15,14.85,34.64a15.73,15.73,0,0,0,1-2.13c2.58-8.57,4.52-17.25,3.84-26.29-.33-4.35-.61-8.71-1.17-13-2.65-20.58-9.23-39.61-22.37-56a29,29,0,0,0-2.18-2.14c-2.77,8.06-5.49,15.57-8,23.17-3.47,10.73-3.68,21.81-3,32.94A28.43,28.43,0,0,0,290.83,170Z"/><path class="cls-15" d="M170.75,90.16c.61,6,2.69,10.24,5,15.33C178.19,98.9,175.65,94.8,170.75,90.16Z"/><path class="cls-16" d="M197.9,175.54l4.66,16c2.39-4.74,4.18-8.89,6.51-12.72s5.35-7.64,8-11.41c-1.61-2.79-2.75-5.63-4.84-8.05C206.46,170.21,206.46,170.21,197.9,175.54Z"/><path class="cls-17" d="M185,110.95c-1.3-2.58-2.84-5-4.34-7.51a23.51,23.51,0,0,0-2.09-2.51c-.25,2.19-.16,3.89-.67,5.39-1,2.78-.43,5.3.54,7.91s1.86,5.48,2.81,8.21c.28.79.67,1.55,1.08,2.46C186.66,120.1,187.48,115.86,185,110.95Z"/><path class="cls-10" d="M153.71,212.7a65,65,0,0,1,.67-7.76,10.7,10.7,0,0,0-.72-6.36c-2.68-6.85-3.58-14.07-4-21.33-.32-5.8-.24-11.62-.28-17.43,0-2,.09-4,.25-6,0-.58-.06-1.57,1.22-1.46.24.37.7.76.78,1.23.52,3,1,6.09,1.42,9.14a101,101,0,0,0,5,20.06,24.75,24.75,0,0,0,1.75,3.14,105.17,105.17,0,0,1,12-18.88,2.11,2.11,0,0,0,.08-3c-.46-.56-.93-1.11-1.39-1.68q-9.21-11.48-18.43-23c-.44-.55-1-1-2.05-2.24-1.69,3.86-3.69,6.89-4.3,10.17a138.62,138.62,0,0,0-2.39,20c-.57,14.77,3.17,28.78,8.62,42.39A24.44,24.44,0,0,0,153.71,212.7Z"/><path class="cls-18" d="M192.32,149a22.29,22.29,0,0,0,5-14.59,5.67,5.67,0,0,0-.58-2.61c-2.37-4.22-4.83-8.39-7.27-12.57-1.32,3.66-2.46,6.67-4.77,9.15a2.86,2.86,0,0,0-.67,3c1.8,5.7,3.57,11.41,5.43,17.09C190,150.09,191.29,150.32,192.32,149Z"/><path class="cls-10" d="M261.88,376.11c-1.29,8.51-4,16.62-7,24.63-1.93,5.14-4.37,10-8.24,14-.44.45-1.46.86-.71,2,1.52-1.42,3.05-2.71,4.42-4.14s2.94-3.24,4.28-5c5.65-7.25,9.53-15.45,12.72-24,4.69-12.58,11.07-24.07,21-33.43a121.54,121.54,0,0,0,19.74-24.67,68.26,68.26,0,0,0,9.1-22.68c.67-3.35.53-6.87.69-10.32a2.42,2.42,0,0,0-1.59-2.58,22.22,22.22,0,0,1-2.45-1.19c-11.36-6.15-18.79-15.29-21.34-28.12a12.6,12.6,0,0,0-.66-1.73,51.3,51.3,0,0,1-14.65-3.56,42,42,0,0,1-12.87-8.78c-8.54,11.56-21.3,16.14-34.64,8.32a1.65,1.65,0,0,0-.49.23,11,11,0,0,0-1.11,1.19c-6.86,9.07-16.23,12.68-27.26,11.94A53.67,53.67,0,0,1,175.15,260l-3.83-2.46c-4.29,3.79-9.69,1.64-14.78,2.58-.34,5.53-1.09,10.73-.16,16.46,1.94.45,3.55.71,5.09,1.2,6.64,2.11,12.45,5.31,14.83,12.44a82.42,82.42,0,0,1,2.62,10c.22,1.1-.42,2.41-.81,3.58-.2.59-1.57.56-1.84,0q-.91-2-1.71-4a26.31,26.31,0,0,0-7-9.64,14.74,14.74,0,0,0-11.05-3.86,25.89,25.89,0,0,0,3.07,12.22c2.11,4.22,4.52,8.31,7,12.36a27.07,27.07,0,0,1,3.18,7.48,156.85,156.85,0,0,1,4,27.52c.73,10.89.89,21.83,1.17,32.74a38.53,38.53,0,0,1-.73,6.44c-.53,3.6-1.15,7.18-1.67,10.78a3.69,3.69,0,0,0,1.93,4.17c2.27,1,3,2.92,4,4.91,4.24,8.49,10.59,14.56,19.88,17.47,7.87,2.47,15.84,2.42,23.77,1.23,9.72-1.46,17.93-5.83,23.44-14.38a16.94,16.94,0,0,1,1.94-2.64,19.33,19.33,0,0,0,4-7.07,138.58,138.58,0,0,0,8.28-34.94,7.26,7.26,0,0,1,1.34-3.43,2.44,2.44,0,0,1,2.29-.63,2.58,2.58,0,0,1,1,2.19C263.61,367.19,262.55,371.62,261.88,376.11Z"/><path class="cls-19" d="M158.82,81.61l6.87-8.48c-1.28-1.7-2.57-3.22-3.64-4.87s-1.25-3.62-2.36-5.21l-8.18,9.16c1.21,1.43,2.55,2.89,3.76,4.45S157.67,80,158.82,81.61Z"/><path class="cls-10" d="M301.3,155.53a89.16,89.16,0,0,0-.39,23.22c.32,3.12,1.46,4.26,5,6.56a110.61,110.61,0,0,1-3.7-31.66A8.58,8.58,0,0,0,301.3,155.53Z"/><path class="cls-10" d="M269.78,503.5a205.85,205.85,0,0,0,38.72-38.25,89.63,89.63,0,0,0,10.8-17.66,139.23,139.23,0,0,0,12.89-47.1,25.92,25.92,0,0,0-2.57-14.1,97,97,0,0,1-6.14-16.3,174.42,174.42,0,0,1-5.85-36c-.26-4.35-.62-8.69-1-13.86a13.64,13.64,0,0,0-1.48,1.75,112.07,112.07,0,0,1-23.37,30.68c-10.09,9.41-16.95,20.74-21.68,33.58a119,119,0,0,1-6.82,14.85,62.72,62.72,0,0,1-15.1,18.51,33.59,33.59,0,0,1-22.54,8.24c-3.43,0-6.86.66-10.3.87-2,.12-2.82,1.16-3.37,2.92-3.11,10.1-5.86,20.29-6.42,30.9-.82,15.28-.68,30.53,2.09,45.68A274.73,274.73,0,0,0,214.4,538c.44,1.48.5,3.23,2.15,4.42,1-.86,2-1.61,2.94-2.45a221.84,221.84,0,0,1,37.08-27.73A147.33,147.33,0,0,0,269.78,503.5Z"/><path class="cls-13" d="M198.84,218.38a45.25,45.25,0,0,1,.5-14.66,15.49,15.49,0,0,0-.1-7.54c-3.41-11.7-6.7-23.44-10.05-35.16-.28-1-.74-1.89-1.31-3.3-1.44,1.39-2.55,2.3-3.47,3.36-2.14,2.48-4.17,5.06-6.28,7.56A87.88,87.88,0,0,0,163.82,193a55.69,55.69,0,0,0-4.25,18,15.68,15.68,0,0,1-.93,4.78c-2.66,7-5.3,13.95-8.29,20.77a11.28,11.28,0,0,0-.48,8.42,16.85,16.85,0,0,0,5.24,7.51c3.51,3.13,6.71,3.43,11.71,1-.85-1.18-1.68-2.31-2.49-3.46s-1.73-2.35-2.46-3.6a2.39,2.39,0,0,1,1.13-3.22c1-.53,1.73,0,2.33.71.8,1,1.54,2,2.34,3a44,44,0,0,0,33.24,16.62C198,248.51,196.83,233.19,198.84,218.38Z"/><path class="cls-13" d="M212.55,141.35c-1.28.57-2.76.92-3.43,2.62,3.55,5.85,6.41,12.1,10.14,18.15,5.82-9.78,11.41-20.16,19.54-28.1A92,92,0,0,0,212.55,141.35Z"/><path class="cls-20" d="M452.67,377.88a104.9,104.9,0,0,0-12-29.75c-4.47-7.77-10.09-14.69-15.78-21.57-3.82-4.62-7.52-9.36-11.15-14.13-1.15-1.52-2.65-3.22-.43-5.22.35-.32.15-1.37,0-2.06-.48-2.69-1.08-5.35-1.54-8-4.61-27.26-13.22-53.25-24.43-78.48a175.88,175.88,0,0,0-41.91-58,131.64,131.64,0,0,0-17.71-13.43c-.35.4-.56.54-.55.65a23.84,23.84,0,0,0,.38,3.17c2.6,11.21,4.34,22.5,3.94,34.06a48.7,48.7,0,0,1-1.76,12.39c-1.35,4.53-2.64,9.1-4.3,13.52a8.33,8.33,0,0,0,.12,6.78c1.28,2.95,2.61,5.94,2.8,9.26-.39,0-.62.12-.7,0a44.1,44.1,0,0,1-8.82-11,186.73,186.73,0,0,0-27.75-38.41q-5.56-6-11-12.13c-.4-.45-1.22-.89-.4-2l6,3.74a8.05,8.05,0,0,0,.21-1.87,67.15,67.15,0,0,1-.13-20.12c.21-1.44.21-2.91.39-4.35a2.9,2.9,0,0,0-2.16-3.32A65.56,65.56,0,0,0,269.16,134a118.87,118.87,0,0,0-28.3-.24c-.69.07-1.37.17-2.06.25-8.13,7.94-13.72,18.31-19.54,28.1.8,1.3,1.63,2.6,2.54,3.88-1.11,1.93-2.21,4.23-3.66,6.27-5.69,8.08-9.88,17-14.1,25.85a30.39,30.39,0,0,0-3,12.64c0,2.72-.38,5.45-.67,8.16a16.83,16.83,0,0,1-1,2.85c-.22-1.16-.38-2.29-.52-3.4-2,14.81-.81,30.13,2.08,45.18a57.14,57.14,0,0,0,5.92,0c9.24-.54,16.59-5.17,20.18-14.37a12.8,12.8,0,0,1,.91-2,26.54,26.54,0,0,0,3.71-13c0-.78-.21-1.86,1.33-2.28,3.64,6.53,1.38,12.83-1.07,19.41a48,48,0,0,0,5.6,2.51c9.61,2.91,18.41-2.16,23-8.52a7.3,7.3,0,0,0,1.63-4.54,2.47,2.47,0,0,1,2-2.82c1.23-.21,2,.68,2.58,1.64.1.16.17.32.26.48,4.19,7.82,11.39,11.47,19.43,13.85,1.9.57,3.94.65,5.88,1.09s3.52,1.4,4.07,3.79c1.81,7.86,6.19,14.27,11.75,20a26.85,26.85,0,0,0,13.45,7.9c3.72.84,7.47,1.56,11.19,2.41A23.15,23.15,0,0,1,336,290.4c-4,3.84-8.75,1.24-12.92,2.62-.46,5-.94,10-1.37,15.07a41.57,41.57,0,0,0-.07,4.37,273.69,273.69,0,0,0,4.53,43.93,120.56,120.56,0,0,0,11.58,34c1.25,2.42,2.38,4.91,3.52,7.39a123.14,123.14,0,0,0,10.68,19c.61.88,1.09,1.84,1.9,3.22-1.1,0-2,.26-2.37-.05a13,13,0,0,1-2.66-2.71c-3.43-4.71-6.77-9.47-10.18-14.19a15.11,15.11,0,0,0-1.78-1.72,15.5,15.5,0,0,0-.26,1.58,103.92,103.92,0,0,1-21.3,60.83,265.35,265.35,0,0,1-33.68,36.47,124.85,124.85,0,0,1-22.1,16,197.16,197.16,0,0,0-34.3,25.12c-1.27,1.16-2.86,2.08-3.67,4.11,2.69.25,4.52-.92,6.21-2.26a71,71,0,0,0,5.76-5,17.91,17.91,0,0,1,7.32-4.59c3.64-1.12,7.25-2.43,11-3.18a104,104,0,0,1,23.9-1.83c6,.18,12,.46,18,1,9.47.91,18.92.32,28.37-.15A42.7,42.7,0,0,0,342.11,523c8.44-5.08,14.94-12.13,20.63-20,2-2.81,3.95-5.71,4.71-9.17.63-2.85,2.48-3.6,5.18-3.74,4.17-.22,8.34-.66,12.46-1.27A88,88,0,0,0,402,484.72c12.15-4.37,20.21-12.55,23.91-25,2.56-8.64,4-17.38,2.65-26.38a4.55,4.55,0,0,1,2.62-5.34,51.65,51.65,0,0,0,12.41-9.75,36.64,36.64,0,0,0,9.51-18.72A51.36,51.36,0,0,0,452.67,377.88Z"/><path class="cls-21" d="M292.28,335.44c-38.85,2.12-39.2-37.24-11.74-23.61C289.19,275,318.9,308.56,292.28,335.44Z"/><path class="cls-22" d="M218.81,167.09c-3.94-9.58-8.17-18.88-11-28.48l-1.24.6c-2.81-4.23-5.35-8.2-8.06-12.06a94,94,0,0,1-7.8-13.12,179,179,0,0,0-13.44-22.47c-.35-.52-.74-1-1.14-1.51,11.89,29.74,28,58.11,34,90.15C217.72,179.11,219.9,170.37,218.81,167.09Z"/><path class="cls-22" d="M175,160.07q-10-12.24-20-24.51c-.51-.62-1-1.3-1.48-1.92,7.37,16.82,13.93,34.89,8.57,53,7-7.58,11.85-16.16,14-25.74A4.21,4.21,0,0,1,175,160.07Z"/><path class="cls-22" d="M458.44,377.92c-2.1-9.7-6-18.69-10.55-27.41-5.65-10.73-13.18-20.08-21.5-28.78a24.64,24.64,0,0,1-6.71-12.23c-.33-1.6-.81-3.17-1.13-4.78-1.45-7.32-2.78-14.66-4.31-22a297.2,297.2,0,0,0-26.32-75c-14-27.36-33.77-49.49-60.54-65a7.49,7.49,0,0,1-3.42-4c-1.53-3.89-3-7.82-4.85-11.56-3.89-7.88-9.25-14.81-14.61-21.71-1.66-2.14-2.89-3.28-3.95-3.4,2.78,5.94,6.61,11.68,8.92,18,6.55,25.12-8.75,51.33,0,74.27a25.13,25.13,0,0,0,1.78,4.31v0c-28.39-26.42-25-40.78-24.91-66.11l-.28,0c-.72-.09-1.42-.28-2.14-.41-4.48-.85-9-1.63-13.46-2.17-.08,11.19-4.76,23.62-7.95,33.83-1.09,5.46,15.32,27.7-.4,45.32C251,221.59,233.55,221,227,219.93c1.07,24.77-27.29,42.54-53,34.85v1.39c11.51,10.95,29.28,12.93,43.69,8.13,3.28-2.18,6.57-9,12-13.39,3.27,7.65,11.63,4.75,18.18,4.75,7.65-1.09,16.75-9,16.75-14.29,2.18,1.09,4.37,7.65,7.64,10.92a22.9,22.9,0,0,0,4.69,2.84c-.75,28.31,4.42,56-.34,84.53C271,366,253.26,400.2,244.33,415.31c-9.75,12.38-20.37,11-36,12.42-.26.57-2.77.76-3.67.39A77.85,77.85,0,0,1,174,405.19c-1.09-1.09-5.41-5.74-5.41-7.92,6-29.19,6.47-55.43-5.46-82.5.37,26.9,4.22,61.62-23,77.3,10.92,3.28,16.38,14.2,19.65,24,3.27,12-1.1,21.84-13.11,26.21,14.2,10.93,21.84,29.5,16.37,47-4,14-14.88,19.43-27.23,23a37,37,0,0,0,8.24,9.93,70.34,70.34,0,0,0,12.61,8.59,154.15,154.15,0,0,0,25,10.73c7.43,2.42,14.83,5,22.15,7.71,4.23,1.59,8.44,3.34,11.18,7.39a2.55,2.55,0,0,0,1.09.93,56.79,56.79,0,0,1,1.58-6.37c-15.26-29.54-16.14-65.18-12.88-98.16,34.59,1,66.7-15.4,88.51-41.93,5.93,45.41-30.13,88.2-67,118.58-5,4-6.77,10.22-7.16,17.28,4.34-10.73,12-19.67,22.45-22.73,24-6.55,32.77-25.11,50.25-39.31,1.09-1.09,4.37-2.18,5.46-3.28,12-16.38,24-30.58,31.69-50.24,1.09-2.18,4.37-5.46,4.37-7.64,5.21-19.09,3.52-38.86-6.7-54.95a92.26,92.26,0,0,0,8.9-18.23c4.37-15.29,17.22-69.26,3.57-85.64,1.93-2.27,55.42,61.63,47.77,87.84-1.09,1.09-3.28,6.55-7.65,7.64,10.92,2.19,20.75,6.56,27.3,14.21,16.38,19.66,12,50.25-14.21,60.07,9.83,7.65,12,19.66,7.64,28.4-8.74,12-28.4,6.55-40.42,13.1-17.48,8.73-24,33.85-42.61,42.59-5.46,3.28-9.83,5.46-14.2,6.55-10.76,4-21.52,6-32,8.69,1.5,0,3,0,4.49,0,7.63.2,15.25,1.27,22.88,1.37,9.09.11,18.18-.42,27.27-.69a12,12,0,0,0,1.6-.33c11.16-1.87,20.51-7.24,28.57-15,7.11-6.83,13.45-14.29,17.63-23.35,5.86-.5,11.66-.79,17.41-1.52,15.46-2,28.08-8.54,35.94-22.64.8-1.43,1.65-2.83,2.42-4.27a41.88,41.88,0,0,0,5.14-20.42c0-4.19.07-8.38,0-12.56a4.78,4.78,0,0,1,2.46-4.46c3.17-2.13,6.27-4.37,9.21-6.8A36.45,36.45,0,0,0,458,403.85,55.58,55.58,0,0,0,458.44,377.92Z"/><path class="cls-23" d="M282,265c2.71,3.72,2.51,5.16-1.74,13.62,4.11.26,6.46-2.91,9.88-5a10,10,0,0,1,.47,2.69c-.53,3.67-1.56,7.15-5,9.23a2.86,2.86,0,0,0-1.46,3.18c.19,1.4.81,3.29-.67,4-1.8.86-2.83-1.09-4-2.16s-2-2.08-3.1-3.07c-5.76-5.3-13-5.62-19.32-1a28.09,28.09,0,0,0-10.19,13.15,22,22,0,0,1-2.15,4.38,2.81,2.81,0,0,1-2.12,1.26c-.57-.08-1.34-1.22-1.4-1.94-.56-7,1-13.45,5.53-18.84,5-5.88,11.27-10,19.24-9.85,5.73.09,9.55-2.8,13.21-6.44C280.22,267.23,281.06,266.08,282,265Z"/><path class="cls-23" d="M216.15,403.65c.24-5.09,2.51-8.63,6.64-10.8a9,9,0,0,1,4.72-.72c2.64.23,3.63,1.89,3,4.68a23.85,23.85,0,0,1-5.43,10.5c-2.67,3-6,2.61-7.95-.92A14.75,14.75,0,0,1,216.15,403.65Z"/><path d="M458.44,377.92c-2.1-9.7-6-18.69-10.55-27.41-5.65-10.73-13.18-20.08-21.5-28.78a24.64,24.64,0,0,1-6.71-12.23c-.33-1.6-.81-3.17-1.13-4.78-1.45-7.32-2.78-14.66-4.31-22a297.2,297.2,0,0,0-26.32-75c-14-27.36-33.77-49.49-60.54-65a7.49,7.49,0,0,1-3.42-4c-1.53-3.89-3-7.82-4.85-11.56-3.89-7.88-9.25-14.81-14.61-21.71-3.76-4.84-5.35-4.61-7.54,1.2-2.63,7-5,14-7.51,21.07-.42,1.2-.8,2.42-1.23,3.62a1.82,1.82,0,0,1-2.17,1.18c-.72-.09-1.42-.28-2.14-.41-8.76-1.66-17.53-3.09-26.51-2.9-6.92.14-13.81.2-20.7,1A88.79,88.79,0,0,0,210,137.56c-1.12.51-2.22,1.06-3.44,1.64-2.81-4.23-5.35-8.2-8.06-12.06a94,94,0,0,1-7.8-13.12,179,179,0,0,0-13.44-22.47,25,25,0,0,0-3.56-4.11c-1.59-1.5-3.54-1-4.33,1.1-.71,1.87-1.24,3.76-.45,5.83s1.19,4.2,1.94,6.25c5.61,15.4,9.94,31.19,14.5,46.91a7.11,7.11,0,0,1,.48,2.12,4.11,4.11,0,0,1-.61,2.46c-2.81,3.06-5.77,6-8.7,9a7.7,7.7,0,0,1-1.48-1.06q-10-12.24-20-24.51c-.69-.84-1.28-1.78-2-2.55-1.65-1.66-3.75-1.64-5.2.21a18.89,18.89,0,0,0-2.47,4.22,85.16,85.16,0,0,0-6.61,25.79,75,75,0,0,0,1.84,24.92c2.17,8.85,4.09,17.8,8.7,25.75,2,3.39,2.35,6.25.28,9.5a27.19,27.19,0,0,0-1.44,2.94c-6.59,13.81-14.22,27.07-22,40.24a120.29,120.29,0,0,0-15.35,41.17,51.94,51.94,0,0,0,9.61,40.8c.62.84,1.22,1.7,1.79,2.5-2.07,2.26-4,4.18-5.72,6.27-5.78,7-9.38,15.15-11.69,23.84a90.85,90.85,0,0,0-2.4,36.78c2.95,20.17,11.25,37.49,26.66,51.14.81.72,1.61,1.45,2.74,2.47-2.06,4.68-2.19,9.21-2.09,13.77a84.17,84.17,0,0,0,2.25,16.74,36.41,36.41,0,0,0,12.19,20.19,70.34,70.34,0,0,0,12.61,8.59,154.15,154.15,0,0,0,25,10.73c7.43,2.42,14.83,5,22.15,7.71,4.23,1.59,8.44,3.34,11.18,7.39,1.06,1.58,3,1.44,4.23,0,.83-.95,1.39-2.13,2.15-3.14,1.2-1.58,2.23-3.41,3.76-4.61,7.67-6,16.15-10.59,25.72-12.71a100.8,100.8,0,0,1,24.41-2.14c7.63.2,15.25,1.27,22.88,1.37,9.09.11,18.18-.42,27.27-.69a12,12,0,0,0,1.6-.33c11.16-1.87,20.51-7.24,28.57-15,7.11-6.83,13.45-14.29,17.63-23.35,5.86-.5,11.66-.79,17.41-1.52,15.46-2,28.08-8.54,35.94-22.64.8-1.43,1.65-2.83,2.42-4.27a41.88,41.88,0,0,0,5.14-20.42c0-4.19.07-8.38,0-12.56a4.78,4.78,0,0,1,2.46-4.46c3.17-2.13,6.27-4.37,9.21-6.8A36.45,36.45,0,0,0,458,403.85,55.58,55.58,0,0,0,458.44,377.92ZM175.76,105.49c-2.32-5.09-4.4-9.3-5-15.33C175.65,94.8,178.19,98.9,175.76,105.49ZM293,132.24c2.46-7.6,5.18-15.12,8-23.17a29,29,0,0,1,2.18,2.14c13.13,16.4,19.72,35.43,22.37,56,.55,4.32.84,8.68,1.17,13,.69,9-1.26,17.72-3.84,26.29a15.73,15.73,0,0,1-1,2.13C314,198.19,307.52,187.4,306.95,174c-.21-4.9-.57-9.79-1-14.68a191.82,191.82,0,0,1,0-28.88c.07-1.07,0-2.14,0-4.3a7.42,7.42,0,0,0-2.5,5.34,45.19,45.19,0,0,1-3.14,12.65,55.32,55.32,0,0,0-3.63,20.29c0,3.63,0,7.27,0,10.94-3.44-.92-5.25-2.52-5.94-5.36a28.43,28.43,0,0,1-.83-4.84C289.33,154.05,289.54,143,293,132.24ZM306,185.32c-3.59-2.3-4.73-3.45-5-6.56a89.16,89.16,0,0,1,.39-23.22,8.58,8.58,0,0,1,.95-1.87A110.61,110.61,0,0,0,306,185.32ZM200.2,139.1c0-.1.26-.14.64-.34a138.63,138.63,0,0,1,7.85,13.51,5.59,5.59,0,0,1,.29,4.21c-1.68,6.52-5.16,11.49-12.2,14.18-2.32-5.17-3.45-10.29-5.08-15.24a2.25,2.25,0,0,1,.33-2C196.83,149.81,198.5,144.46,200.2,139.1Zm12.07,20.22c2.08,2.43,3.22,5.26,4.84,8.05-2.69,3.77-5.62,7.44-8,11.41s-4.12,8-6.51,12.72l-4.66-16C206.46,170.21,206.46,170.21,212.27,159.31Zm-31-36.88c-1-2.73-1.8-5.5-2.81-8.21s-1.5-5.13-.54-7.91c.51-1.5.43-3.2.67-5.39a23.51,23.51,0,0,1,2.09,2.51c1.5,2.47,3,4.94,4.34,7.51,2.48,4.91,1.67,9.16-2.68,13.94C181.92,124,181.52,123.22,181.25,122.43Zm2.79,9a2.86,2.86,0,0,1,.67-3c2.3-2.48,3.45-5.49,4.77-9.15,2.44,4.19,4.9,8.35,7.27,12.57a5.67,5.67,0,0,1,.58,2.61,22.29,22.29,0,0,1-5,14.59c-1,1.28-2.33,1-2.85-.54C187.61,142.82,185.84,137.11,184,131.41Zm-40.69,36a138.62,138.62,0,0,1,2.39-20c.61-3.29,2.61-6.31,4.3-10.17,1.1,1.2,1.61,1.69,2.05,2.24q9.22,11.47,18.43,23c.46.57.92,1.12,1.39,1.68a2.11,2.11,0,0,1-.08,3,105.17,105.17,0,0,0-12,18.88,24.75,24.75,0,0,1-1.75-3.14,101,101,0,0,1-5-20.06c-.44-3.05-.9-6.1-1.42-9.14-.08-.46-.54-.86-.78-1.23-1.28-.11-1.18.88-1.22,1.46-.16,2-.26,4-.25,6,0,5.81,0,11.63.28,17.43.41,7.26,1.3,14.48,4,21.33a10.7,10.7,0,0,1,.72,6.36,65,65,0,0,0-.67,7.76,24.44,24.44,0,0,1-1.74-2.91C146.53,196.19,142.78,182.18,143.35,167.41ZM208.68,545c-7.13-2.72-14.2-5.62-21.4-8.14-9.13-3.19-18.08-6.72-26.3-11.87-3.85-2.41-7.65-4.93-11.26-7.68-9.81-7.45-14-18-15.13-29.76-.52-5.3,1.05-10.5,3.25-15.32,1.11-2.43,1-3.27-1.07-4.9-17.14-13.13-26.15-30.77-28.6-52-1.55-13.41.05-26.5,3.63-39.42a32.54,32.54,0,0,1,6.29-12.6,76.75,76.75,0,0,1,5.77-5.73c1.68-1.6,3.84-2.73,5-4.69-2.62-5.11-5-10-7.61-14.78-6.09-11.16-6.54-22.88-3.77-35a115.18,115.18,0,0,1,14-34.78c3.8-6.2,7.7-12.35,11.57-18.52a23.79,23.79,0,0,1,1.54-2c2.2,2.87,4.31,5.55,6.33,8.31a4.42,4.42,0,0,1,1,2.41c-.11,4.91-.27,9.83-.61,14.73-.17,2.4-1.54,3.05-3.86,2-1.31-.61-2.45-1.55-3.73-2.25-.42-.23-1.34-.36-1.47-.16a2.72,2.72,0,0,0-.53,1.91,13.35,13.35,0,0,0,5.55,7.83,30.46,30.46,0,0,1,2.8,1.66,2.21,2.21,0,0,1,.7,1.82,1.9,1.9,0,0,1-1.56,1,37.38,37.38,0,0,1-4.43-.86c-.68,1.75.36,2.92,1.21,3.92a12.19,12.19,0,0,0,3.63,3.2,6.34,6.34,0,0,1,3.59,4.4,47.31,47.31,0,0,0,7.12,14.67,38.83,38.83,0,0,1,6.47,17.2c1.18,7.9,1.83,15.9,2.29,23.88.44,7.63.29,15.29.49,22.93a30.14,30.14,0,0,1-1.19,9.14c-.85,3-1.22,6.05-2,9a7.12,7.12,0,0,0,2.06,7.51c3.39,2.93,5.07,7.08,7.88,10.32,6.27,7.24,13.53,13.24,23.28,15.34,1.42.31,2.83.67,4.23,1.05a9,9,0,0,1,1.34.7,28.28,28.28,0,0,1-.54,3.93,140.38,140.38,0,0,0-4.55,24.66,164.21,164.21,0,0,0,.17,32.17c1.24,11.42,3.93,22.56,6.48,33.73,1.46,6.38,3.07,12.72,4.59,19.09.2.85.29,1.74.43,2.59C210.36,546.37,209.59,545.37,208.68,545Zm54.62-184.5a2.44,2.44,0,0,0-2.29.63,7.26,7.26,0,0,0-1.34,3.43,138.58,138.58,0,0,1-8.28,34.94,19.33,19.33,0,0,1-4,7.07,16.94,16.94,0,0,0-1.94,2.64c-5.51,8.55-13.72,12.92-23.44,14.38-7.94,1.19-15.9,1.24-23.77-1.23-9.29-2.91-15.64-9-19.88-17.47-1-2-1.69-3.9-4-4.91a3.69,3.69,0,0,1-1.93-4.17c.52-3.6,1.15-7.18,1.67-10.78a38.53,38.53,0,0,0,.73-6.44c-.28-10.92-.44-21.85-1.17-32.74a156.85,156.85,0,0,0-4-27.52,27.07,27.07,0,0,0-3.18-7.48c-2.43-4.05-4.84-8.14-7-12.36a25.89,25.89,0,0,1-3.07-12.22,14.74,14.74,0,0,1,11.05,3.86,26.31,26.31,0,0,1,7,9.64q.8,2,1.71,4c.27.58,1.65.6,1.84,0,.39-1.17,1-2.48.81-3.58a82.42,82.42,0,0,0-2.62-10c-2.38-7.13-8.19-10.33-14.83-12.44-1.54-.49-3.15-.75-5.09-1.2-.93-5.73-.17-10.93.16-16.46,5.09-.95,10.49,1.21,14.78-2.58l3.83,2.46a53.67,53.67,0,0,0,25.69,8.34c11,.74,20.4-2.87,27.26-11.94a11,11,0,0,1,1.11-1.19,1.65,1.65,0,0,1,.49-.23c13.35,7.82,26.1,3.24,34.64-8.32a42,42,0,0,0,12.87,8.78A51.3,51.3,0,0,0,291.87,259a12.6,12.6,0,0,1,.66,1.73c2.56,12.84,10,22,21.34,28.12a22.22,22.22,0,0,0,2.45,1.19,2.42,2.42,0,0,1,1.59,2.58c-.16,3.45,0,7-.69,10.32a68.26,68.26,0,0,1-9.1,22.68,121.54,121.54,0,0,1-19.74,24.67c-9.93,9.36-16.31,20.86-21,33.43-3.2,8.57-7.07,16.77-12.72,24-1.34,1.72-2.77,3.38-4.28,5s-2.9,2.73-4.42,4.14c-.75-1.18.28-1.59.71-2,3.87-4,6.31-8.89,8.24-14,3-8,5.67-16.12,7-24.63.68-4.49,1.73-8.91,2.46-13.4A2.58,2.58,0,0,0,263.3,360.52ZM219.49,539.94c-.91.84-1.91,1.59-2.94,2.45-1.64-1.19-1.7-2.94-2.15-4.42a274.73,274.73,0,0,1-6.74-29.76c-2.78-15.15-2.91-30.4-2.09-45.68.56-10.6,3.31-20.8,6.42-30.9.54-1.76,1.39-2.8,3.37-2.92,3.44-.21,6.87-.9,10.3-.87a33.59,33.59,0,0,0,22.54-8.24,62.72,62.72,0,0,0,15.1-18.51,119,119,0,0,0,6.82-14.85c4.73-12.85,11.58-24.17,21.68-33.58A112.07,112.07,0,0,0,315.16,322a13.64,13.64,0,0,1,1.48-1.75c.37,5.17.73,9.52,1,13.86a174.42,174.42,0,0,0,5.85,36,97,97,0,0,0,6.14,16.3,25.92,25.92,0,0,1,2.57,14.1,139.23,139.23,0,0,1-12.89,47.1,89.63,89.63,0,0,1-10.8,17.66,205.85,205.85,0,0,1-38.72,38.25,147.33,147.33,0,0,1-13.2,8.71A221.84,221.84,0,0,0,219.49,539.94ZM453.14,399.53a36.64,36.64,0,0,1-9.51,18.72A51.65,51.65,0,0,1,431.21,428a4.55,4.55,0,0,0-2.62,5.34c1.37,9-.09,17.74-2.65,26.38-3.69,12.46-11.76,20.63-23.91,25a88,88,0,0,1-16.94,4.07c-4.13.61-8.3,1.06-12.46,1.27-2.7.14-4.55.89-5.18,3.74-.76,3.45-2.68,6.36-4.71,9.17-5.69,7.89-12.19,14.94-20.63,20A42.7,42.7,0,0,1,322,529.37c-9.45.47-18.89,1.07-28.37.15-6-.57-12-.86-18-1a104,104,0,0,0-23.9,1.83c-3.72.75-7.33,2.06-11,3.18a17.91,17.91,0,0,0-7.32,4.59,71,71,0,0,1-5.76,5c-1.69,1.34-3.53,2.51-6.21,2.26.81-2,2.4-3,3.67-4.11a197.16,197.16,0,0,1,34.3-25.12,124.85,124.85,0,0,0,22.1-16,265.35,265.35,0,0,0,33.68-36.47,103.92,103.92,0,0,0,21.3-60.83,15.5,15.5,0,0,1,.26-1.58,15.11,15.11,0,0,1,1.78,1.72c3.41,4.72,6.75,9.49,10.18,14.19a13,13,0,0,0,2.66,2.71c.42.32,1.27.05,2.37.05-.8-1.38-1.29-2.34-1.9-3.22a123.14,123.14,0,0,1-10.68-19c-1.14-2.48-2.27-5-3.52-7.39a120.56,120.56,0,0,1-11.58-34,273.69,273.69,0,0,1-4.53-43.93,41.57,41.57,0,0,1,.07-4.37c.42-5,.91-10.06,1.37-15.07,4.17-1.38,8.92,1.22,12.92-2.62a23.15,23.15,0,0,0-3.18-1.28c-3.72-.85-7.47-1.57-11.19-2.41a26.85,26.85,0,0,1-13.45-7.9c-5.56-5.71-9.95-12.12-11.75-20-.55-2.39-2-3.32-4.07-3.79s-4-.53-5.88-1.09c-8-2.39-15.24-6-19.43-13.85-.09-.16-.16-.33-.26-.48-.6-1-1.35-1.85-2.58-1.64a2.47,2.47,0,0,0-2,2.82,7.3,7.3,0,0,1-1.63,4.54c-4.61,6.36-13.42,11.44-23,8.52a48,48,0,0,1-5.6-2.51c2.45-6.59,4.71-12.88,1.07-19.41-1.54.43-1.3,1.51-1.33,2.28a26.54,26.54,0,0,1-3.71,13,12.8,12.8,0,0,0-.91,2c-3.58,9.21-10.93,13.83-20.18,14.37-15.54.91-29-4.24-39.15-16.58-.81-1-1.54-2-2.34-3-.6-.75-1.32-1.25-2.33-.71a2.39,2.39,0,0,0-1.13,3.22c.73,1.25,1.62,2.41,2.46,3.6s1.64,2.28,2.49,3.46c-5,2.41-8.2,2.1-11.71-1a16.85,16.85,0,0,1-5.24-7.51,11.28,11.28,0,0,1,.48-8.42c3-6.82,5.62-13.81,8.29-20.77a15.68,15.68,0,0,0,.93-4.78,55.69,55.69,0,0,1,4.25-18,87.88,87.88,0,0,1,14.32-24.38c2.11-2.51,4.14-5.08,6.28-7.56.92-1.07,2-2,3.47-3.36.57,1.41,1,2.33,1.31,3.3,3.36,11.72,6.64,23.45,10.05,35.16a15.49,15.49,0,0,1,.1,7.54,46.14,46.14,0,0,0,0,18.07,16.83,16.83,0,0,0,1-2.85c.29-2.71.62-5.43.67-8.16a30.39,30.39,0,0,1,3-12.64c4.22-8.87,8.41-17.77,14.1-25.85,1.44-2,2.54-4.34,3.66-6.27-5.09-7.22-8.36-14.93-12.67-22,.67-1.7,2.15-2,3.43-2.62a92.14,92.14,0,0,1,28.31-7.58,118.87,118.87,0,0,1,28.3.24A65.56,65.56,0,0,1,284,137.58a2.9,2.9,0,0,1,2.16,3.32c-.18,1.44-.18,2.91-.39,4.35a67.15,67.15,0,0,0,.13,20.12,8.05,8.05,0,0,1-.21,1.87l-6-3.74c-.82,1.15,0,1.59.4,2q5.47,6.1,11,12.13a186.73,186.73,0,0,1,27.75,38.41,44.1,44.1,0,0,0,8.82,11c.08.08.31,0,.7,0-.19-3.32-1.52-6.31-2.8-9.26a8.33,8.33,0,0,1-.12-6.78c1.66-4.42,2.94-9,4.3-13.52A48.7,48.7,0,0,0,331.51,185c.4-11.56-1.34-22.86-3.94-34.06a23.84,23.84,0,0,1-.38-3.17c0-.11.2-.25.55-.65a131.64,131.64,0,0,1,17.71,13.43,175.88,175.88,0,0,1,41.91,58c11.21,25.22,19.82,51.22,24.43,78.48.45,2.69,1.06,5.36,1.54,8,.12.68.32,1.74,0,2.06-2.22,2-.72,3.71.43,5.22,3.63,4.78,7.33,9.51,11.15,14.13,5.69,6.88,11.31,13.8,15.78,21.57a104.9,104.9,0,0,1,12,29.75A51.36,51.36,0,0,1,453.14,399.53Z"/><path d="M148.36,74.87a23.51,23.51,0,0,1,8.77,14.64,7,7,0,0,0,.58,2.07,1.83,1.83,0,0,0,1.28.84,1.62,1.62,0,0,0,1.32-.72,24.12,24.12,0,0,0,1-3.65c1.25-5.78,3.86-10.58,9.44-13.28.29-.14.46-.53,1-1.21-.51-.59-.77-1.14-1.2-1.37-4.6-2.45-6.54-6.62-7.51-11.45A38,38,0,0,0,161.95,56c-.62-1.8-.57-4.86-2.71-4.81-2.6.07-1.8,3.1-1.92,4.9a15.2,15.2,0,0,1-6.77,11.89c-1.18.85-2.43,1.61-3.57,2.51a2,2,0,0,0-.17,2.91A10.54,10.54,0,0,0,148.36,74.87ZM159.69,63c1.11,1.59,1.33,3.63,2.36,5.21s2.35,3.17,3.64,4.87l-6.87,8.48c-1.15-1.62-2.28-3.34-3.54-5s-2.55-3-3.76-4.45Z"/></svg>