<svg xmlns="http://www.w3.org/2000/svg" xmlns:xlink="http://www.w3.org/1999/xlink" viewBox="0 0 1200 628"><defs><style>.cls-1{fill:none;}.cls-2{isolation:isolate;}.cls-3{fill:url(#New_Gradient_Swatch_2);}.cls-4{clip-path:url(#clip-path);}.cls-5{fill:#244999;}.cls-6{font-size:39.98px;fill:#edc96e;}.cls-12,.cls-6{font-family:Lato-Black, Lato;}.cls-7{letter-spacing:-0.02em;}.cls-8{letter-spacing:-0.03em;}.cls-9{fill:url(#linear-gradient);}.cls-10{fill:url(#linear-gradient-2);}.cls-11,.cls-14{fill:#fff;}.cls-12{font-size:76.65px;}.cls-12,.cls-15{fill:red;}.cls-13{letter-spacing:-0.03em;}.cls-14,.cls-20,.cls-21{stroke:#6a0b9b;}.cls-14{stroke-linecap:round;stroke-linejoin:round;stroke-width:3.26px;stroke-dasharray:8.7 10.87 0 0;fill-rule:evenodd;}.cls-16{fill:#ff87f4;}.cls-17{fill:#ffff45;}.cls-18{fill:#901663;opacity:0.5;mix-blend-mode:multiply;}.cls-19,.cls-20,.cls-21{fill:#6a0b9b;}.cls-20,.cls-21{stroke-miterlimit:10;}.cls-20{stroke-width:3px;}.cls-21{stroke-width:2px;}</style><linearGradient id="New_Gradient_Swatch_2" x1="149.86" y1="588.73" x2="1056.35" y2="35.48" gradientUnits="userSpaceOnUse"><stop offset="0" stop-color="#c99b3b"/><stop offset="0.52" stop-color="#ffffab"/><stop offset="1" stop-color="#cea040"/></linearGradient><clipPath id="clip-path"><rect class="cls-1" x="459" width="622" height="220"/></clipPath><linearGradient id="linear-gradient" x1="642.04" y1="-16.06" x2="695.13" y2="248.22" gradientUnits="userSpaceOnUse"><stop offset="0" stop-color="#663800"/><stop offset="0.4" stop-color="#ffd373"/><stop offset="1" stop-color="#cea040"/></linearGradient><linearGradient id="linear-gradient-2" x1="599.9" y1="-7.6" x2="652.99" y2="256.68" xlink:href="#linear-gradient"/></defs><title>12_vers_ru</title><g class="cls-2"><g id="Layer_1" data-name="Layer 1"><rect class="cls-3" y="-1" width="1200" height="630"/><g class="cls-4"><ellipse class="cls-5" cx="770" cy="15.71" rx="300" ry="204.29"/></g><text class="cls-6" transform="translate(702.28 104.76)">#KULDSÜ<tspan class="cls-7" x="184.87" y="0">D</tspan><tspan class="cls-8" x="214.29" y="0">A</tspan></text><path class="cls-9" d="M671.58,54.31c-8.43-3.59-19.26.49-28.45,9.54a87.22,87.22,0,0,1,6.25,12.58c8.52,21.26,7.51,42.18-1.38,52.3,10.6-2.66,22-13,29-27.69C686.78,80.66,684.34,59.74,671.58,54.31Z"/><path class="cls-10" d="M636.26,128.1c-12.76-5.43-15.2-26.35-5.45-46.73a62.63,62.63,0,0,1,12.32-17.52c-11.32-18.78-28-29.57-40.8-25-15.46,5.51-19.47,31.26-8.94,57.52S625,139.46,640.44,134a18.1,18.1,0,0,0,7.57-5.22A18.28,18.28,0,0,1,636.26,128.1Z"/><path class="cls-11" d="M649.38,76.43a87.22,87.22,0,0,0-6.25-12.58,62.63,62.63,0,0,0-12.32,17.52c-9.75,20.38-7.31,41.3,5.45,46.73a18.28,18.28,0,0,0,11.74.63C656.89,118.6,657.9,97.68,649.38,76.43Z"/><text class="cls-12" transform="translate(650.55 407.34)">ЧЕЛОВЕ<tspan class="cls-13" x="312.75" y="0">К</tspan><tspan x="365.91" y="0">-</tspan><tspan x="0" y="91.99">ДЕДЛАЙН</tspan></text><path class="cls-14" d="M175.51,308.68l.39,2.72c.1.67.21,1.35.32,2l.15.91c.14.75.35,1.89.65,3.14,4.09,17,8.31,34.25,12.39,50.93l1.38,5.63c-8.8,8-11.3,20-6.06,31.66.42.93.88,1.84,1.39,2.73-1.27,13.55,4.73,25.82,16.7,33.6a53.94,53.94,0,0,0,7,4c4.61,17.77,9.68,36.87,16.28,61.34,1.83,6.79,3.95,13.95,6.66,22.53,4.92,15.57,16.61,24.15,32.92,24.15h0c.92,0,1.83,0,2.81-.06l.57,0c.79,0,1.57-.09,2.42-.17l.34,0a58.42,58.42,0,0,0,6-.89h0A51.61,51.61,0,0,0,291.51,548a43.16,43.16,0,0,0,20,5.69l1.49.05h1.3a51.86,51.86,0,0,0,42.81-22.33l.91.09,1.1.11c.83.07,1.63.1,2.47.12l1.1,0h.74c15,0,27.49-6.45,37-19.18a34.47,34.47,0,0,0,6.41-28.58c-.61-2.84-1.18-5.7-1.74-8.55-.84-4.23-1.7-8.61-2.73-13-4.4-18.84-9.4-40.2-14.58-61l-.13-.53c.68-.94,1.17-1.77,1.51-2.33l.12-.2c.62-1,1.21-2,1.8-3.17l.42-.85c.47-1,.88-1.91,1.25-2.84.09-.21.18-.46.25-.64a33.7,33.7,0,0,0,1.14-3.79c.06-.25.12-.5.14-.64a31.56,31.56,0,0,0,.57-3.62c0-.18,0-.38.05-.54a29.69,29.69,0,0,0-.64-8.91l-.05-.23a30.55,30.55,0,0,0-3.34-8.34,34.12,34.12,0,0,0-3-4.31c.1-.38.21-.81.3-1.28s.22-1.21.3-1.84c.08-.46.21-1.27.28-2.18.06-.66.07-1.22.07-1.67s0-1.51,0-2.6c0-.69-.11-1.27-.17-1.73s-.15-1.41-.35-2.44-.41-1.74-.54-2.16-.29-1.12-.58-1.94a26.21,26.21,0,0,0-1.09-2.6c-.16-.37-.37-.82-.65-1.35a30.21,30.21,0,0,0-16.6-14.26L365,310.23q-4.92-18.27-9.83-36.54c-3.3-12.28-11.52-21.67-23.79-27.15l-1-.48a53.48,53.48,0,0,0-30.13-13.51,45.69,45.69,0,0,0-9.24-5.93,24,24,0,0,0,2.7-4.29,19.82,19.82,0,0,0,5,.63,20.49,20.49,0,0,0,19.4-26.65,23,23,0,0,0,12.54-7.79c2-2.5,7.69-11.4,0-23.37A20.86,20.86,0,0,0,335.43,149c-.37-2.84-3.1-17-20.95-17.79h-.25l-2.62-.28q.43-1.61.85-3.24c2.35-9.19-2.4-19.67-10.83-23.87a18.92,18.92,0,0,0-8.49-2,21.81,21.81,0,0,0-7.78,1.48c-.28-.49-.58-1-.92-1.5a21,21,0,0,0-16.37-9h-.68c-8.21,0-14.44,5.38-17.33,11A19.27,19.27,0,0,0,238,105.34c-5.9,2.85-11.71,9.62-11.08,20.28-.51,0-1.06-.05-1.66-.05a20.5,20.5,0,0,0-16.13,33.38,21.21,21.21,0,0,0-2.83,19.26,19.25,19.25,0,0,0,4.57,7.06,40.56,40.56,0,0,0-2,6.38,29.59,29.59,0,0,1-1.85,6c-6.62,11.38-7.18,23.81-1.64,36-.27,3.51-.64,7.06-1,10.78l-.22,2.2a38,38,0,0,0-13.68,19.89c-.19.63-.41,1.26-.62,1.89a63.09,63.09,0,0,0-1.8,6.08,32.66,32.66,0,0,0-12.77,32.34C175.33,307.4,175.42,308,175.51,308.68Z"/><path class="cls-11" d="M328.58,409.65c-1.31-5.87-8.45-9.69-13.92-7.45-1.08.44-2.21.79-3.33,1.16l-17,5.67c5.4,3.11,8.18,7.56,9.89,13.32,5.35-1.79,10.15-3.31,14.87-5,2.52-.91,4.89-2.19,7.37-3.23C328.5,413.24,329,411.73,328.58,409.65Z"/><path class="cls-15" d="M273,435.66c.6,2.95,1,5.77,1.76,8.52,4.62,17.43,9.15,34.89,14,52.25,2.32,8.25,5.23,16.35,8.1,24.44,1.83,5.15,5.81,8.08,11.08,9.38,12.89,3.18,27.9-4.24,33-16.51a15.64,15.64,0,0,0,1.17-6.33,46.56,46.56,0,0,0-1.33-9q-8.46-35.92-17.08-71.81a33.83,33.83,0,0,0-1.27-3.66Z"/><path class="cls-11" d="M268.78,422.7c-3.63-7.39-5.09-8.14-13.3-7.26-.67.07-1.34.09-2,.12l-15.82.62c1.38,4.1,2.84,8,4,12a2.89,2.89,0,0,0,3.27,2.38c5.71-.06,11.43,0,17.13-.22,2.79-.09,5.57-.58,9.16-1C270.16,426.45,269.66,424.48,268.78,422.7Z"/><path class="cls-11" d="M360.76,375a2.83,2.83,0,0,0-2.72-.07c-4.19,3.18-8.25,6.54-12.58,10,6.71,3.17,7.77,4.38,11.31,13,3.21-3,5.87-5.73,8.76-8.19,3.39-2.89,4.08-3.88,1.95-7.51C365.83,379.49,363.16,377.27,360.76,375Z"/><path class="cls-15" d="M360.87,401.52c-8.6,4.9-17.14,9.93-25.83,14.68-7.47,4.08-7.43,3.9-5.45,12.33q8.65,36.84,17.08,73.73a5.11,5.11,0,0,0,3,3.69c4.78,2.53,9.93,3.12,15.18,2.89,8.73-.4,14.83-5,18.69-12.58a12.28,12.28,0,0,0,.89-6.81c-.68-5.16-1.7-10.29-2.88-15.37q-8.09-34.65-16.36-69.26c-.34-1.44-.87-2.84-1.48-4.81C362.32,400.73,361.59,401.11,360.87,401.52Z"/><path class="cls-15" d="M220.35,383.87c8.56.16,17.13.47,25.69.55a66.25,66.25,0,0,0,7.81-.87l-18.29-79.25c-10.92,8.28-22.6,10.9-36,7.54a15.39,15.39,0,0,0,.15,2c5.37,22.1,10.79,44.19,16.09,66.31C216.47,382.79,217.8,383.82,220.35,383.87Z"/><path class="cls-11" d="M210.15,408.64c-1.52,5.64-.11,9.38,5.31,13.41C217.82,410.95,215.4,409.47,210.15,408.64Z"/><path class="cls-11" d="M234.06,417.61a4.81,4.81,0,0,0-2.87-2.51c-3.53-.92-7.16-1.45-11.06-2.18-.23,3.95-.43,7.58-.66,11.49,5.5,2.83,11.39,4.41,18.63,5.31C236.61,425.13,235.51,421.3,234.06,417.61Z"/><path class="cls-11" d="M219,391.87c-2-3.86-7.27-4.55-11.35-1.75-2.75,1.89-2.71,5.07.08,8.64,3.76,4.82,8.65,7.76,15.61,9.13C222.43,401.9,221.42,396.67,219,391.87Z"/><path class="cls-15" d="M269,442.78c-.27-1-.51-2-.77-2.93-.76-2.76-2.25-4.19-5.42-3.8a60.11,60.11,0,0,1-10.07.42c-7.2-.33-14.39-.92-21.77-1.42a13.66,13.66,0,0,0,.25,2.29q11.71,42.92,23.51,85.82c1.62,5.85,5,8.28,11.28,8,8.07-.35,15.59-2.42,21.72-8.24,1.93-1.83,2.58-3.33,1.8-6.09C282.57,492.18,275.82,467.47,269,442.78Z"/><path class="cls-16" d="M203.7,307.58c5.2,1.55,10.42,1,15.45-.34s10.16-2.69,13.38-7.43c1.75-2.58,1.93-4.14-.14-6.3-3.43-3.57-7.24-6.61-13.27-6.34-.74,3-1.4,5.73-2.11,8.48a20.93,20.93,0,0,1-1.46,4.8c-.44.82-2.16,1.82-2.66,1.55a4.37,4.37,0,0,1-1.94-2.91c-.17-1.25.45-2.62.76-3.93.56-2.39,1.15-4.77,1.78-7.36-6.39,1-11.46,3.68-14,7.25C195.8,300.33,197.63,305.77,203.7,307.58Z"/><path class="cls-11" d="M354.2,346.52a80.68,80.68,0,0,0-6.81,4.62c8.12,1.29,11.38,6,12.6,13.09,1.89-2.73,3.58-4.79,4.84-7.09,1.37-2.5.27-7.28-1.81-9.42A7.06,7.06,0,0,0,354.2,346.52Z"/><path class="cls-11" d="M364.71,369.75c-1.86-.66-2.83,0-3.08,1.53l9.23,7.81C370.75,375.42,367.83,370.86,364.71,369.75Z"/><path class="cls-15" d="M286.48,376.26a170.45,170.45,0,0,0,17.58-6.19c4.79-1.91,4.74-2.14,3.46-7.07Q298.8,329.54,290,296.09c-.32-1.23-.81-2.43-1.26-3.73-14.57,11.5-29.67,18.54-48.38,8.3,6,27.9,12.29,54.85,19,82.18C268.9,380.56,277.76,378.68,286.48,376.26Z"/><path class="cls-11" d="M277.56,428.42c7.2-1.52,14.41-3,21.83-4.51a13.24,13.24,0,0,0-4.43-9.79c-3.06-2.93-6.35-4.64-10.88-3-2.79,1-5.92,1.16-8.89,1.73-2.2.42-4.39.91-6.43,1.34,2.14,4.51,4.07,8.4,5.81,12.38C275.22,428.06,275.89,428.77,277.56,428.42Z"/><path class="cls-11" d="M230.32,409.58c5.52.35,11,.71,16.56,1.13,2.62.2,3.15-1,2.79-3.36-1.37-9-10.31-16.92-19.49-17.18-2.51-.07-5-.18-7.67-.28,1.47,5.73,3,11,4.15,16.43C227.13,408.58,228.21,409.44,230.32,409.58Z"/><path class="cls-11" d="M333.8,410.72c5.2-2.89,10.09-5.5,14.88-8.29,3-1.73,3.34-3.07,2.09-6.25a11.85,11.85,0,0,0-6.73-7.12,5.85,5.85,0,0,0-5.75.28c-4.85,3-9.75,5.95-15.21,9.27C328.66,401.21,331.67,405.51,333.8,410.72Z"/><path class="cls-16" d="M215.15,280.85l4-16.68c-5.08,3.14-6.46,7.31-7.64,11.51C210.74,278.34,212,280,215.15,280.85Z"/><path class="cls-11" d="M323.5,392.14c4.87-3,9-5.46,13.09-8,4.72-2.94,5.13-4.09,3.85-9.41a14,14,0,0,0-7.49-9.57,6.61,6.61,0,0,0-6.7-.14c-4.22,2.32-8.48,4.56-13.18,7.07C319.84,376.82,322.88,383.25,323.5,392.14Z"/><path class="cls-17" d="M260.48,163.16a11.05,11.05,0,0,1,1.26-2.19c.92-1.41,1.81-3.19,3.9-2.17s1.57,2.7.81,4.35L265.11,166a6.78,6.78,0,0,1,1.9.9c.76.75,6,3.24-2.41,5-4.31.9-7.68,3.57-8.14,7.87-.27,2.5-.32,5-.45,7.55-.12,2.32-.21,4.63-.32,7a4.67,4.67,0,0,0,2.27-2q3.16-5.17,6.29-10.36c.86-1.43,1.68-3.53,3.62-2.67,1.19.53,1.75,2.51,2.52,3.88a5.41,5.41,0,0,1,.26,1.48q1.72,8.4,3.44,16.8a6.94,6.94,0,0,0,1-3.85c0-5.21,0-10.42.1-15.63,0-1,.64-2.77,1.26-2.9a4.72,4.72,0,0,1,3.5.94,41.86,41.86,0,0,1,4.13,4.41q3.93,4.24,7.87,8.45l.91-.66c-2.59-5.26-5.16-10.53-7.77-15.78-.95-1.9-3-3.72-1.46-6,1.73-2.58,4.3-1,6.5-.59,4.39.79,8.75,1.72,13.13,2.59l.37-1.09c-4.83-2.64-9.71-5.2-14.47-8-1-.6-2.25-2-2.19-3s1.56-2.05,2.66-2.47c4.72-1.79,9.52-3.35,15.16-5.29l-22.05-1.6,6.09-20.15-1-.41c-2.59,4.3-5.07,8.67-7.79,12.89-2,3.06-4.38,2.93-6.14-.23a16.54,16.54,0,0,1-1.36-3.79c-1.17-4.36-2.26-8.73-3.39-13.1a12.74,12.74,0,0,0-1.46,5.28c-.48,4.18-.93,8.36-1.44,12.53-.22,1.79-.07,4-2.47,4.43s-3-1.71-4.08-3.17c-.78-1.09-1.39-2.3-2.15-3.41-1.68-2.47-3.41-4.91-5.12-7.36a67.08,67.08,0,0,0,3,10.14c1.67,5.1.41,6.56-4.87,5.87-4.27-.56-8.54-1.16-12.81-1.75l-.14.63c3,1.51,6.07,2.84,8.88,4.61,1.26.79,2.76,2.52,2.69,3.73s-1.9,2.48-3.23,3.22c-3,1.63-6.09,2.94-9.16,4.38,6.17-.11,7.2.38,12.69,1.73S258.84,167.74,260.48,163.16Z"/><path class="cls-15" d="M294.76,291.79l18.7,72.72a7,7,0,0,0,1.69-.13,175.83,175.83,0,0,0,32.74-20.67c2-1.57,1.52-3.07,1-4.87q-6.84-26.13-13.69-52.26c-.46-1.75-1.2-3.43-2-5.59C322.41,292.6,309.4,295.23,294.76,291.79Z"/><path class="cls-11" d="M317,395.08a4.25,4.25,0,0,0,1.88-3.12c.38-6.73-1.5-12.62-7.35-16.59a4.71,4.71,0,0,0-3.61-.74c-4.68,1.66-9.24,3.64-14.29,5.68,6.65,4.81,10.11,11.2,10.85,19.79C309,398.31,313.09,396.88,317,395.08Z"/><path class="cls-11" d="M269.53,408.5c1.89-.21,2.82-.95,2.86-3.2a20.16,20.16,0,0,0-7.17-16.48,3.87,3.87,0,0,0-2.64-1c-6.43.91-12.83,2-19.29,3,7.89,8.13,9.2,10.39,11,19.32C259.56,409.57,264.54,409,269.53,408.5Z"/><path class="cls-11" d="M299.94,399.31c.37-5.84-4.42-14.09-9.83-16.49a4.9,4.9,0,0,0-2.86-.49c-6,1.43-11.9,3-18.31,4.65,6.55,4.94,8,12.07,8.14,19.49.57.25.91.55,1.16.49,6.53-1.57,13.05-3.18,19.59-4.76C299.42,401.83,299.84,400.87,299.94,399.31Z"/><path class="cls-16" d="M240.81,289.75c-1.35,3.65-.86,5.06,2.58,7.06a26.85,26.85,0,0,0,16.92,3.76,43,43,0,0,0,23.22-10.17c4-3.33,4-6.79.68-10.38-5.22-5.61-15.45-7.52-23-4.16,1.45,3.19,3,6.33,4.3,9.6.72,1.87,2.53,4.46-.45,5.66s-3.48-1.79-4.4-3.68c-1.39-2.87-2.73-5.77-4.07-8.67-.65-1.42-1.58-2.22-3.16-1.43C247.92,280.12,243.07,283.65,240.81,289.75Z"/><path class="cls-16" d="M284.25,261.23c.23-.2.28-.59.66-1.45L273.77,256c-.65,2-.77,4-1.62,4.39s-2.85-.3-3.93-1.08c-2-1.47-3.51-3.92-5.69-4.89-2.77-1.24-6-1.41-9.05-2-.77,2-1.7,3.94-2.26,6-.64,2.33.94,3.75,2.64,5C261.16,268.55,277.43,267.41,284.25,261.23Z"/><path class="cls-16" d="M224.91,281.91c8.49-.26,16-2.59,20.45-10.57,2.17-3.85,1.46-6.72-2.31-9s-8-2-12.52-1.35c.14,3.56.33,6.89.39,10.22,0,1.69-.7,3.27-2.57,2.91a4,4,0,0,1-2.32-2.67,70.28,70.28,0,0,1-.87-7.84l-.57,0-4,17.81A32.24,32.24,0,0,0,224.91,281.91Z"/><path class="cls-16" d="M313,272.91a20.67,20.67,0,0,1,1.26,3.29c.45,1.63.15,3.33-1.66,3.57A4,4,0,0,1,309.5,278c-1.76-3-3.17-6.15-5-9.85-5.13,3.35-8.44,6.7-10.13,11.53-1.76,5-1,6.72,4.24,7.9,11.52,2.6,21.61-.43,30.29-8.27,2.59-2.34,2.59-3.88.56-6.53-4-5.29-12.66-8-19.56-6.09C310.93,268.76,312,270.81,313,272.91Z"/><path class="cls-11" d="M346,377.53c2.72-2.06,5.3-3.91,7.76-5.92a4.58,4.58,0,0,0,1.6-2.41,15.39,15.39,0,0,0-1.33-10.32c-2-3.71-8.19-6-11.22-4.17s-6.09,4.14-8.88,6.05c2.85,2.52,5.82,4.37,7.69,7S344.53,374,346,377.53Z"/><path class="cls-16" d="M310.47,259.87c-4.83-3.77-10.34-4.19-15.77-4.82a1.71,1.71,0,0,0-1.36,1,1.8,1.8,0,0,0,.67,1.6C299.13,259.45,303.79,264.22,310.47,259.87Z"/><path class="cls-16" d="M287.45,267.85c-.38,2.69,2,3.88,4.31,4.67l6.38-6.93c-2.55-1.41-4.71-3.63-7.36-2.34A7,7,0,0,0,287.45,267.85Z"/><path class="cls-16" d="M282.13,247.6c-7-3.23-14.06-3.18-21.79-.19l25.78,6.77C286.72,250.82,284.95,248.9,282.13,247.6Z"/><path class="cls-18" d="M238.16,300c-.39-.19-.76-.39-1.13-.61-3.11,2.85-6.76,5.15-6.63,7.51,1.59,26.93,8.19,52.58,16.66,77.75,1.6,4.49,7.41,2.24,13.71.38a4,4,0,0,1-1.34-1.56C245.5,358.47,243.16,328.7,238.16,300Z"/><path class="cls-18" d="M337.39,401.94c-4.4,2.42-8.89,4.74-13.41,7l-.33.15c-30.22,14.38-64.79,24.51-95,10.36-1.57-.93,3.57-4.25,6.86-4.43,21.31-.14,41.22,2.07,61.38-5.11C323,400.05,355,392.22,370.5,368.09c-.37-.28-.74-.55-1.1-.85-2.81-2.3-2.83-2.46-.86-5.72,3.2-5.31,3.44-10.54,1.32-14.53-16.12,33-57,49.36-91,57.55-18.93,4.2-41.63,6.7-55.68-9-3.79-4.36,2.29-9.26,7.31-7.88-6-25.81-13.19-51.3-15.25-77.45-6.38-.83-15.85-.86-22.24-4,.34,2.4.64,4.82,1.2,7.17q7.7,31.95,15.55,63.86c.43,1.76.9,3.51,1.35,5.26-2.28,1.09-4.13,1.85-5.86,2.82-5.37,3-6.91,7.58-4.39,13.2a14.23,14.23,0,0,0,2.47,3.78c1.28,1.39,1.39,2.63.94,4.49-2.07,8.56.81,15.71,8.18,20.5a26,26,0,0,0,7.2,3.61c4,1.07,5.45,3.64,6.42,7.38q8.36,32.31,17.1,64.52c2,7.32,4.16,14.58,6.45,21.81,2.59,8.21,7.48,11.82,16.1,11.82a43.77,43.77,0,0,0,8.69-.83c-9-29.24-25.61-57.92-20-88.68q4.1-1.59,8.31-3c4,29.72,11.54,59.15,23.5,86.88a32.68,32.68,0,0,0,3.37-2.53c1.11-.95,2.31-1.77,3.64-2.78,4.48,7.49,11.27,10.26,19.26,10.68l1,0c-11-32.24-17.41-66-27.53-98.87,13.5-3.37,27.25-6.36,40.51-10.35,5.39,28.68,14.76,56.56,23,84.8a28.89,28.89,0,0,0,3.2,1A47.46,47.46,0,0,0,363,514.18c-12.87-28.74-18.24-60.49-22.72-91.94a118.54,118.54,0,0,0,30.43-16.51c-.26-1.05-.52-2.1-.78-3.16-1.14-4.55-1.19-8.1,2.7-11.14a9.26,9.26,0,0,0,1.78-2.44c3.53-5.59,3.93-10.68,1.25-15.29C364.84,385.27,351.55,394.15,337.39,401.94Z"/><path class="cls-18" d="M238.16,300c5,28.66,7.35,58.43,21.26,83.48,2.86,5.93,17.55.82,26.61-2.84-14.73-23.56-21.18-51.24-29.19-77.2C250.64,303.27,243.58,302.69,238.16,300Z"/><path class="cls-18" d="M308.92,290.75a19.48,19.48,0,0,1-17.16-1.35c2,27.41,10.13,53.26,22.22,78.08,2.22,3.43,10.15-4.61,16.87-7C315.21,341.16,317.38,313.26,308.92,290.75Z"/><path class="cls-19" d="M368.54,361.52c6.39-10.62,1-20.92-11.49-21.62-1.93-.11-2.71-.87-3.06-2.56-.28-1.32-.65-2.62-1-3.92q-7.42-27.58-14.85-55.16c-2-7.56-6.94-12.49-13.94-15.62a18.91,18.91,0,0,1-5.17-3,36.35,36.35,0,0,0-22.79-9.71c-2.71-.19-4.57-1.46-6.58-3.17a27.08,27.08,0,0,0-8.1-4.94c-9.22-3.33-18.19-2.12-26.86,2.28-1.55.79-3.45,1.64-5,1.42a24.08,24.08,0,0,1-16.57-9.67c-2.63-3.52-3.89-7.38-2.84-11.84a51.81,51.81,0,0,0,1.49-8.45c.26-4.16-.7-8.57.34-12.47s4.58-7.17,5.8-11.09c2.13-6.87,8-7.67,13.67-10.45-.21,2.74-.4,4.56-.47,6.39-.26,6.22-.6,12.44-.59,18.66a4.49,4.49,0,0,0,2.24,3.4c1.85.76,2.34-1.21,3-2.55,3.16-6.1,6.37-12.17,9.56-18.25l1.3.15c.51,2.47,1,4.94,1.55,7.39,1.27,5.59,2.53,11.18,3.88,16.74.46,1.89,1.57,3.87,3.67,3.37,1.13-.27,2.44-2.3,2.61-3.67.76-6.17,1.18-12.38,1.66-18.58.17-2.24.19-4.48.29-7,5.37,5.56,10.37,10.78,15.43,15.94,1.17,1.2,2.54,2.55,4.38,1.38s1.39-2.91.74-4.54c-2.24-5.62-4.48-11.25-6.83-16.83-1.16-2.74-2.56-5.39-4.1-8.58l19.3,3.78a12.78,12.78,0,0,0,4,.61,6,6,0,0,0,3.67-1.78c.37-.47-.68-2.31-1.38-3.32a8.2,8.2,0,0,0-2.38-1.84c-4.81-3.1-9.65-6.17-14.47-9.27-1-.66-2-1.37-4-2.71,6.85-2,12.65-3.56,18.43-5.27,2.14-.63,5.38-.62,5-3.84-.36-2.77-3.36-2.28-5.43-2.51-8.28-.92-16.57-1.43-25.3-.08a42,42,0,0,0,2.34-5c2-6.74,4.09-13.5,5.83-20.33a4.17,4.17,0,0,0-1.57-3.69c-.91-.45-2.75.36-3.87,1.1a11.21,11.21,0,0,0-2.57,3.09c-3.35,4.79-6.65,9.62-10.23,14.8-.57-1.86-1.1-3.39-1.5-5-1.59-6.21-3.12-12.42-4.7-18.63a10.7,10.7,0,0,0-1.1-3.33,3.4,3.4,0,0,0-2.39-1.26c-.57,0-1.46.85-1.7,1.5a15.24,15.24,0,0,0-.56,3.47c-1,8-2,16-3,24.58-1.66-2.34-2.88-4.12-4.16-5.85-2.81-3.79-5.53-7.64-8.54-11.26-.79-.95-2.54-2.26-3.79-1.66s-1.23,2.77-1.07,4.06a53.82,53.82,0,0,0,1.81,6.82c1.13,4.3,2.22,8.6,3.42,13.27-1.83-.23-3.31-.47-4.79-.59-5.7-.48-11.39-1-17.1-1.34-2.07-.13-4.9-1-5.61,1.86-.79,3.17,2.38,3.61,4.36,4.6,3.76,1.89,7.64,3.56,11.43,5.39a30.34,30.34,0,0,1,3.13,2c-3.34,1.9-6.36,3.4-9.16,5.25a82.67,82.67,0,0,0-8.41,6.43,3.49,3.49,0,0,0-.83,3.1,3.81,3.81,0,0,0,2.67,1.79,11.06,11.06,0,0,0,4-.4c3.46-.74,6.89-1.63,10.36-2.34a13.66,13.66,0,0,1,3.06.07,91.56,91.56,0,0,0-5.15,8,15.08,15.08,0,0,1-5.12,6c-3.68,2.45-5.59,6-6.59,10.37a39.18,39.18,0,0,1-3.79,10.89c-4,6.79-3.9,13.34-.62,20.23a12.41,12.41,0,0,1,1.51,5.76c-.47,7.22-1.37,14.4-2,21.61a5.17,5.17,0,0,1-3.18,4.7c-5.54,2.58-8.86,7.08-10.62,12.83a60.26,60.26,0,0,0-2.38,8.24,10.49,10.49,0,0,1-5.2,7.9c-5.67,3.66-8.25,9.16-7.08,16.09.53,3.15.81,6.37,1.55,9.47q7.7,31.95,15.55,63.86c.43,1.76.9,3.51,1.35,5.26-2.28,1.09-4.13,1.85-5.86,2.82-5.37,3-6.91,7.58-4.39,13.2a14.23,14.23,0,0,0,2.47,3.78c1.28,1.39,1.39,2.63.94,4.49-2.07,8.56.81,15.71,8.18,20.5a26,26,0,0,0,7.2,3.61c4,1.07,5.45,3.64,6.42,7.38q8.36,32.31,17.1,64.52c2,7.32,4.16,14.58,6.45,21.81,2.59,8.21,7.48,11.82,16.1,11.82,8.84,0,17-2.25,23.85-8.15,1.11-.95,2.31-1.77,3.64-2.78,4.48,7.49,11.27,10.26,19.26,10.68A34.42,34.42,0,0,0,346.53,514c.36-.92.74-1.84,1.19-2.91,1.75.6,3.28,1.26,4.87,1.64,15,3.6,25.38.47,33.69-10.67a17,17,0,0,0,3.3-14.31c-1.53-7.08-2.75-14.23-4.4-21.29-5-21.33-10-42.67-15.3-63.92-1.14-4.55-1.19-8.1,2.7-11.14a9.26,9.26,0,0,0,1.78-2.44q7.38-11.69-3.36-20.52c-.52-.43-1.08-.8-1.6-1.23C366.59,364.94,366.57,364.79,368.54,361.52ZM236.77,165.39c3.06-1.44,6.2-2.75,9.16-4.38,1.34-.74,3.16-2.06,3.23-3.22s-1.43-2.94-2.69-3.73c-2.81-1.77-5.91-3.1-8.88-4.61l.14-.63c4.27.58,8.53,1.18,12.81,1.75,5.28.7,6.54-.77,4.87-5.87a67.08,67.08,0,0,1-3-10.14c1.71,2.45,3.44,4.89,5.12,7.36.76,1.11,1.37,2.32,2.15,3.41,1,1.46,1.76,3.59,4.08,3.17s2.24-2.64,2.47-4.43c.52-4.17,1-8.35,1.44-12.53a12.74,12.74,0,0,1,1.46-5.28c1.12,4.37,2.22,8.75,3.39,13.1a16.54,16.54,0,0,0,1.36,3.79c1.76,3.16,4.16,3.3,6.14.23,2.72-4.22,5.2-8.59,7.79-12.89l1,.41-6.09,20.15,22.05,1.6c-5.64,1.94-10.44,3.5-15.16,5.29-1.1.42-2.6,1.58-2.66,2.47s1.17,2.36,2.19,3c4.75,2.77,9.63,5.33,14.47,8l-.37,1.09c-4.37-.87-8.74-1.8-13.13-2.59-2.2-.4-4.77-2-6.5.59-1.51,2.24.52,4.06,1.46,6,2.61,5.25,5.18,10.52,7.77,15.78l-.91.66q-3.94-4.22-7.87-8.45A41.86,41.86,0,0,0,280,180a4.72,4.72,0,0,0-3.5-.94c-.62.14-1.23,1.87-1.26,2.9-.13,5.21-.05,10.42-.1,15.63a6.94,6.94,0,0,1-1,3.85q-1.72-8.4-3.44-16.8a5.41,5.41,0,0,0-.26-1.48c-.76-1.37-1.33-3.35-2.52-3.88-1.94-.86-2.76,1.24-3.62,2.67q-3.13,5.19-6.29,10.36a4.67,4.67,0,0,1-2.27,2c.1-2.32.2-4.63.32-7,.13-2.52.18-5,.45-7.55.46-4.3,3.84-7,8.14-7.87,8.39-1.76,3.17-4.25,2.41-5a6.78,6.78,0,0,0-1.9-.9l1.33-2.87c.77-1.65,1.18-3.38-.81-4.35s-3,.76-3.9,2.17a11.05,11.05,0,0,0-1.26,2.19c-1.64,4.57-5.67,5.29-11,4S242.94,165.29,236.77,165.39Zm98.48,121.19q6.88,26.12,13.69,52.26c.47,1.8.91,3.3-1,4.87a175.83,175.83,0,0,1-32.74,20.67,7,7,0,0,1-1.69.13l-18.7-72.72c14.64,3.44,27.65.81,38.52-10.8C334,283.15,334.79,284.83,335.25,286.58Zm-41.63,93.73c5.05-2,9.61-4,14.29-5.68a4.71,4.71,0,0,1,3.61.74c5.85,4,7.72,9.86,7.35,16.59a4.25,4.25,0,0,1-1.88,3.12c-3.89,1.79-8,3.23-12.51,5C303.72,391.5,300.26,385.12,293.62,380.31ZM243.3,390.82c6.45-1,12.86-2.11,19.29-3a3.87,3.87,0,0,1,2.64,1,20.16,20.16,0,0,1,7.17,16.48c0,2.26-1,3-2.86,3.2-5,.54-10,1.07-15.28,1.63C252.5,401.21,251.19,399,243.3,390.82Zm-20.8-.93c2.66.1,5.16.2,7.67.28,9.18.27,18.11,8.2,19.49,17.18.36,2.36-.16,3.56-2.79,3.36-5.51-.42-11-.78-16.56-1.13-2.11-.13-3.19-1-3.67-3.27C225.5,400.92,224,395.62,222.5,389.88Zm36.9-7c-6.71-27.33-13-54.28-19-82.18,18.71,10.24,33.81,3.2,48.38-8.3.45,1.31.94,2.5,1.26,3.73q8.76,33.45,17.49,66.91c1.28,4.93,1.33,5.16-3.46,7.07a170.45,170.45,0,0,1-17.58,6.19C277.76,378.68,268.9,380.56,259.4,382.84Zm15.8,30c3-.57,6.1-.69,8.89-1.73,4.53-1.67,7.82,0,10.88,3a13.24,13.24,0,0,1,4.43,9.79c-7.43,1.53-14.63,3-21.83,4.51-1.67.35-2.35-.36-3-1.82-1.74-4-3.68-7.87-5.81-12.38C270.81,413.79,273,413.31,275.2,412.88Zm3-5.92c-.25.06-.59-.24-1.16-.49-.16-7.42-1.6-14.55-8.14-19.49,6.42-1.65,12.35-3.23,18.31-4.65a4.9,4.9,0,0,1,2.86.49c5.41,2.4,10.2,10.65,9.83,16.49-.1,1.56-.52,2.52-2.11,2.9C291.29,403.78,284.77,405.4,278.24,407Zm34.84-34.9c4.7-2.51,9-4.75,13.18-7.07a6.61,6.61,0,0,1,6.7.14,14,14,0,0,1,7.49,9.57c1.28,5.32.87,6.47-3.85,9.41-4.09,2.55-8.22,5-13.09,8C322.88,383.25,319.84,376.82,313.08,372.07Zm25.22,17.27a5.85,5.85,0,0,1,5.75-.28,11.85,11.85,0,0,1,6.73,7.12c1.25,3.18.88,4.52-2.09,6.25-4.79,2.79-9.68,5.41-14.88,8.29-2.13-5.22-5.14-9.51-10.72-12.12C328.55,395.28,333.45,392.35,338.3,389.33ZM334,360.76c2.79-1.92,5.75-4.12,8.88-6.05s9.25.46,11.22,4.17a15.39,15.39,0,0,1,1.33,10.32,4.58,4.58,0,0,1-1.6,2.41c-2.46,2-5,3.86-7.76,5.92-1.51-3.51-2.42-7-4.38-9.77S336.82,363.28,334,360.76Zm-4.53-88c2,2.66,2,4.19-.56,6.53-8.68,7.85-18.76,10.88-30.29,8.27-5.23-1.18-6-2.89-4.24-7.9,1.69-4.83,5-8.19,10.13-11.53,1.84,3.69,3.26,6.87,5,9.85a4,4,0,0,0,3.08,1.79c1.81-.24,2.11-1.94,1.66-3.57a20.67,20.67,0,0,0-1.26-3.29c-1-2.09-2.06-4.15-3.11-6.25C316.78,264.71,325.4,267.46,329.44,272.75ZM293.34,256a1.71,1.71,0,0,1,1.36-1c5.43.63,10.94,1.05,15.77,4.82-6.68,4.35-11.34-.42-16.46-2.25A1.8,1.8,0,0,1,293.34,256Zm-2.56,7.23c2.65-1.29,4.8.93,7.36,2.34l-6.38,6.93c-2.33-.79-4.68-2-4.31-4.67A7,7,0,0,1,290.78,263.25Zm-8.65-15.64c2.82,1.29,4.59,3.22,4,6.59l-25.78-6.77C268.07,244.42,275.11,244.38,282.13,247.6ZM251.21,258.4c.56-2.05,1.5-4,2.26-6,3,.63,6.28.8,9.05,2,2.18,1,3.66,3.42,5.69,4.89,1.08.78,2.94,1.51,3.93,1.08s1-2.43,1.62-4.39l11.15,3.75c-.38.86-.44,1.24-.66,1.45-6.82,6.19-23.09,7.32-30.4,2.13C252.15,262.15,250.58,260.73,251.21,258.4Zm5.39,20.38c1.34,2.9,2.68,5.8,4.07,8.67.92,1.9,1.54,4.84,4.4,3.68s1.17-3.8.45-5.66c-1.26-3.27-2.85-6.41-4.3-9.6,7.53-3.35,17.76-1.45,23,4.16,3.33,3.59,3.31,7.05-.68,10.38a43,43,0,0,1-23.22,10.17,26.85,26.85,0,0,1-16.92-3.76c-3.43-2-3.93-3.41-2.58-7.06,2.26-6.11,7.11-9.63,12.65-12.41C255,276.55,256,277.35,256.61,278.77Zm-11-28.6c-2.51,3.15-2.51,3.15-6-2.14Zm-16.28-5.1,1-.28,7.45,10.39-7.55.12Zm-4.77,18.53.57,0a70.28,70.28,0,0,0,.87,7.84,4,4,0,0,0,2.32,2.67c1.87.36,2.6-1.22,2.57-2.91-.07-3.33-.25-6.66-.39-10.22,4.54-.68,8.68-.93,12.52,1.35s4.48,5.11,2.31,9c-4.5,8-12,10.32-20.45,10.57a32.24,32.24,0,0,1-4.36-.5Zm-13.09,12.08c1.18-4.2,2.56-8.37,7.64-11.51l-4,16.68C212,280,210.74,278.34,211.49,275.68Zm-12,19.36c2.51-3.56,7.58-6.28,14-7.25-.63,2.59-1.22,5-1.78,7.36-.31,1.31-.93,2.68-.76,3.93a4.37,4.37,0,0,0,1.94,2.91c.5.27,2.22-.73,2.66-1.55a20.93,20.93,0,0,0,1.46-4.8c.71-2.75,1.37-5.51,2.11-8.48,6-.27,9.84,2.77,13.27,6.34,2.07,2.15,1.89,3.71.14,6.3-3.22,4.75-8.4,6.06-13.38,7.43s-10.26,1.89-15.45.34C197.63,305.77,195.8,300.33,199.53,295Zm.23,18.84a15.39,15.39,0,0,1-.15-2c13.36,3.36,25,.74,36-7.54l18.29,79.25a66.25,66.25,0,0,1-7.81.87c-8.56-.08-17.13-.39-25.69-.55-2.55,0-3.88-1.09-4.5-3.69C210.55,358.07,205.13,336,199.76,313.88ZM215.45,422c-5.42-4-6.83-7.77-5.31-13.41C215.4,409.47,217.82,410.95,215.45,422Zm-7.74-23.28c-2.79-3.57-2.83-6.75-.08-8.64,4.08-2.8,9.37-2.12,11.35,1.75,2.45,4.8,3.45,10,4.34,16C216.35,406.53,211.47,403.58,207.71,398.76Zm11.76,25.64c.22-3.91.43-7.54.66-11.49,3.89.74,7.53,1.26,11.06,2.18a4.81,4.81,0,0,1,2.87,2.51c1.45,3.69,2.55,7.52,4,12.11C230.86,428.82,225,427.24,219.47,424.41Zm68.26,98.52c-6.13,5.82-13.65,7.88-21.72,8.24-6.25.28-9.66-2.16-11.28-8q-11.88-42.88-23.51-85.82A13.66,13.66,0,0,1,231,435c7.38.5,14.57,1.09,21.77,1.42a60.11,60.11,0,0,0,10.07-.42c3.17-.39,4.66,1,5.42,3.8.27,1,.5,2,.77,2.93,6.81,24.69,13.57,49.4,20.53,74.05C290.31,519.59,289.66,521.09,287.73,522.93ZM262,430.34c-5.71.19-11.42.15-17.13.22a2.89,2.89,0,0,1-3.27-2.38c-1.15-4-2.6-7.89-4-12l15.82-.62c.67,0,1.35,0,2-.12,8.21-.88,9.66-.14,13.3,7.26.88,1.78,1.38,3.75,2.41,6.65C267.6,429.75,264.83,430.25,262,430.34Zm78.77,68.07a46.56,46.56,0,0,1,1.33,9,15.64,15.64,0,0,1-1.17,6.33c-5.07,12.27-20.08,19.69-33,16.51-5.27-1.3-9.25-4.22-11.08-9.38-2.87-8.09-5.79-16.18-8.1-24.44-4.88-17.36-9.41-34.81-14-52.25-.73-2.75-1.16-5.57-1.76-8.52l49.43-12.71a33.83,33.83,0,0,1,1.27,3.66Q332.32,462.5,340.81,498.41ZM319,417.33c-4.72,1.71-9.52,3.22-14.87,5-1.71-5.77-4.49-10.21-9.89-13.32l17-5.67c1.11-.37,2.24-.72,3.33-1.16,5.47-2.24,12.61,1.58,13.92,7.45.46,2.08-.08,3.59-2.16,4.46C323.94,415.14,321.56,416.43,319,417.33Zm46.11-12.52q8.22,34.62,16.36,69.26c1.18,5.07,2.2,10.21,2.88,15.37a12.28,12.28,0,0,1-.89,6.81c-3.86,7.53-10,12.18-18.69,12.58-5.25.24-10.4-.36-15.18-2.89a5.11,5.11,0,0,1-3-3.69q-8.43-36.89-17.08-73.73c-2-8.42-2-8.25,5.45-12.33,8.69-4.74,17.22-9.77,25.83-14.68.72-.41,1.45-.78,2.8-1.51C364.29,402,364.82,403.37,365.16,404.82Zm.36-15c-2.88,2.46-5.55,5.17-8.76,8.19-3.54-8.65-4.6-9.86-11.31-13,4.34-3.49,8.39-6.85,12.58-10a2.83,2.83,0,0,1,2.72.07c2.4,2.28,5.07,4.49,6.71,7.28C369.61,385.91,368.91,386.9,365.52,389.79Zm5.34-10.71-9.23-7.81c.25-1.52,1.21-2.19,3.08-1.53C367.83,370.86,370.75,375.42,370.86,379.08Zm-6-21.94c-1.26,2.3-2.95,4.36-4.84,7.09-1.22-7.14-4.49-11.81-12.6-13.09a80.68,80.68,0,0,1,6.81-4.62,7.06,7.06,0,0,1,8.82,1.2C365.1,349.86,366.2,354.64,364.83,357.14Z"/><path class="cls-15" d="M341.72,392a51.24,51.24,0,1,1-20.44-26.86q1.13.75,2.22,1.56a50.88,50.88,0,0,1,12.31,13q.74,1.13,1.43,2.3.53.9,1,1.83.67,1.26,1.27,2.56A51.17,51.17,0,0,1,341.72,392Z"/><path class="cls-15" d="M309.07,457.25a52,52,0,1,1,12.64-92.74c.78.51,1.54,1,2.26,1.58a51.51,51.51,0,0,1,12.49,13.18c.49.74,1,1.5,1.45,2.34.36.61.7,1.24,1,1.86.45.85.88,1.72,1.28,2.6a52,52,0,0,1-31.16,71.18Zm-31.61-97.39a50.41,50.41,0,1,0,61.36,26.86c-.39-.85-.81-1.7-1.25-2.53-.32-.6-.66-1.21-1-1.8-.48-.81-.94-1.55-1.41-2.27A50,50,0,0,0,323,367.33c-.7-.52-1.43-1-2.19-1.53A50.22,50.22,0,0,0,277.46,359.86Z"/><path class="cls-11" d="M305.79,447.16a41.36,41.36,0,1,1,26.57-52.1A41.4,41.4,0,0,1,305.79,447.16Z"/><path class="cls-20" d="M306,447.89a42.14,42.14,0,1,1,27.06-53.07A42.17,42.17,0,0,1,306,447.89ZM280.5,369.22a40.57,40.57,0,1,0,21.23-1A40.63,40.63,0,0,0,280.5,369.22Z"/><path class="cls-21" d="M282.63,375.79a.84.84,0,0,1-1.06-.54l-1.41-4.35a.84.84,0,0,1,1.6-.52l1.41,4.35A.84.84,0,0,1,282.63,375.79Z"/><path class="cls-21" d="M267.84,385.41a.84.84,0,0,1-1.19.06l-3.4-3.06a.84.84,0,0,1,1.13-1.25l3.4,3.06A.84.84,0,0,1,267.84,385.41Z"/><path class="cls-21" d="M260.09,400.81a.84.84,0,0,1-1,.65l-4.47-1a.84.84,0,0,1,.35-1.64l4.47,1A.84.84,0,0,1,260.09,400.81Z"/><path class="cls-21" d="M261,418.22a.84.84,0,0,1-.54,1.06l-4.35,1.41a.84.84,0,0,1-.52-1.6l4.35-1.41A.84.84,0,0,1,261,418.22Z"/><path class="cls-21" d="M270.48,432.84a.84.84,0,0,1,.06,1.19l-3.06,3.4a.84.84,0,0,1-1.25-1.13l3.06-3.4A.84.84,0,0,1,270.48,432.84Z"/><path class="cls-21" d="M285.63,440.89a.84.84,0,0,1,.65,1l-1,4.47a.84.84,0,0,1-1.64-.35l1-4.47A.84.84,0,0,1,285.63,440.89Z"/><path class="cls-21" d="M303.42,439.85a.84.84,0,0,1,1.06.54l1.41,4.35a.84.84,0,0,1-1.6.52l-1.41-4.35A.84.84,0,0,1,303.42,439.85Z"/><path class="cls-21" d="M318,430.37a.84.84,0,0,1,1.19-.06l3.4,3.06a.84.84,0,0,1-1.13,1.25l-3.4-3.06A.84.84,0,0,1,318,430.37Z"/><path class="cls-21" d="M326,414.84a.84.84,0,0,1,1-.65l4.47,1a.84.84,0,0,1-.35,1.64l-4.47-1A.84.84,0,0,1,326,414.84Z"/><path class="cls-21" d="M325.06,397.43a.84.84,0,0,1,.54-1.06l4.35-1.41a.84.84,0,0,1,.52,1.6L326.12,398A.84.84,0,0,1,325.06,397.43Z"/><path class="cls-21" d="M300,374.89a.84.84,0,0,1-.65-1l1-4.47a.84.84,0,0,1,1.64.35l-1,4.47A.84.84,0,0,1,300,374.89Z"/><path class="cls-21" d="M315.69,382.57a.81.81,0,0,1-.06-1.15l3-3.29a.81.81,0,0,1,1.21,1.09l-3,3.29A.81.81,0,0,1,315.69,382.57Z"/><path class="cls-21" d="M283.89,379.65a1.3,1.3,0,0,0-.74,1.68l9.71,29.95a1.23,1.23,0,1,0,2.32-.75l-9.71-29.95A1.3,1.3,0,0,0,283.89,379.65Z"/><path class="cls-21" d="M296.2,405.51l-24.35,7.9a1.23,1.23,0,1,0,.75,2.32l24.35-7.9a1.23,1.23,0,1,0-.75-2.32Z"/></g></g></svg>