<svg xmlns="http://www.w3.org/2000/svg" xmlns:xlink="http://www.w3.org/1999/xlink" viewBox="0 0 1200 628"><defs><style>.cls-1{fill:none;}.cls-2{isolation:isolate;}.cls-3{fill:url(#New_Gradient_Swatch_2);}.cls-4{clip-path:url(#clip-path);}.cls-5{fill:#244999;}.cls-6{font-size:39.98px;fill:#edc96e;}.cls-12,.cls-6{font-family:Lato-Black, Lato;}.cls-7{letter-spacing:-0.02em;}.cls-8{letter-spacing:-0.03em;}.cls-9{fill:url(#linear-gradient);}.cls-10{fill:url(#linear-gradient-2);}.cls-11,.cls-14{fill:#fff;}.cls-12{font-size:62.65px;}.cls-12,.cls-22,.cls-23{fill:#6a0b9b;}.cls-13{letter-spacing:0.02em;}.cls-14{stroke:#6a0b9b;stroke-linecap:round;stroke-linejoin:round;stroke-width:3.26px;stroke-dasharray:8.7 10.87 0 0;}.cls-14,.cls-22{fill-rule:evenodd;}.cls-15{fill:#00ff8b;}.cls-16{fill:#00eef1;}.cls-17{fill:#ffb7ab;}.cls-18,.cls-24{fill:#ff7cc7;}.cls-19{fill:#932752;}.cls-20{fill:#c44ba4;opacity:0.4;mix-blend-mode:multiply;}.cls-21{fill:#984b3b;mix-blend-mode:color-dodge;}.cls-21,.cls-24{opacity:0.2;}</style><linearGradient id="New_Gradient_Swatch_2" x1="149.86" y1="588.73" x2="1056.35" y2="35.48" gradientUnits="userSpaceOnUse"><stop offset="0" stop-color="#c99b3b"/><stop offset="0.52" stop-color="#ffffab"/><stop offset="1" stop-color="#cea040"/></linearGradient><clipPath id="clip-path"><rect class="cls-1" x="459" width="622" height="220"/></clipPath><linearGradient id="linear-gradient" x1="642.04" y1="-16.06" x2="695.13" y2="248.22" gradientUnits="userSpaceOnUse"><stop offset="0" stop-color="#663800"/><stop offset="0.4" stop-color="#ffd373"/><stop offset="1" stop-color="#cea040"/></linearGradient><linearGradient id="linear-gradient-2" x1="599.9" y1="-7.6" x2="652.99" y2="256.68" xlink:href="#linear-gradient"/></defs><title>12_vers_ru</title><g class="cls-2"><g id="Layer_1" data-name="Layer 1"><rect class="cls-3" y="-1" width="1200" height="630"/><g class="cls-4"><ellipse class="cls-5" cx="770" cy="15.71" rx="300" ry="204.29"/></g><text class="cls-6" transform="translate(702.28 104.76)">#KULDSÜ<tspan class="cls-7" x="184.87" y="0">D</tspan><tspan class="cls-8" x="214.29" y="0">A</tspan></text><path class="cls-9" d="M671.58,54.31c-8.43-3.59-19.26.49-28.45,9.54a87.22,87.22,0,0,1,6.25,12.58c8.52,21.26,7.51,42.18-1.38,52.3,10.6-2.66,22-13,29-27.69C686.78,80.66,684.34,59.74,671.58,54.31Z"/><path class="cls-10" d="M636.26,128.1c-12.76-5.43-15.2-26.35-5.45-46.73a62.63,62.63,0,0,1,12.32-17.52c-11.32-18.78-28-29.57-40.8-25-15.46,5.51-19.47,31.26-8.94,57.52S625,139.46,640.44,134a18.1,18.1,0,0,0,7.57-5.22A18.28,18.28,0,0,1,636.26,128.1Z"/><path class="cls-11" d="M649.38,76.43a87.22,87.22,0,0,0-6.25-12.58,62.63,62.63,0,0,0-12.32,17.52c-9.75,20.38-7.31,41.3,5.45,46.73a18.28,18.28,0,0,0,11.74.63C656.89,118.6,657.9,97.68,649.38,76.43Z"/><text class="cls-12" transform="translate(650.55 407.34)">БЕЗН<tspan class="cls-13" x="161.35" y="0">А</tspan><tspan x="207.02" y="0">ДЁЖНЫЙ </tspan><tspan x="0" y="75.18">ОПТИМИСТ</tspan></text><path class="cls-14" d="M496,303.54a32,32,0,0,0-3.43-2.87A41.24,41.24,0,0,0,495,284.56c-.62-16-7.24-28.77-19.26-37.43a33.73,33.73,0,0,0,7.89-9.93,22,22,0,0,0,1.54-18,20.29,20.29,0,0,0-20.5-13.88,21.29,21.29,0,0,0-8.58,2.47,25.17,25.17,0,0,0-7,5.49,68.71,68.71,0,0,0-4.31-6.59c-9.17-12.36-22.71-18.93-39.17-19-1.13,0-2.27,0-3.39.11a48.62,48.62,0,0,0-5.19.63,44.2,44.2,0,0,0-7.84-7.33,30.61,30.61,0,0,0-17.88-6.58c-5.3-5-11.72-7.25-17.11-8.66a48.83,48.83,0,0,0-15.62-1.57,44.73,44.73,0,0,0-10.73,2,41,41,0,0,0-8.4,3.77A48.24,48.24,0,0,0,307,164.71a58.62,58.62,0,0,0-18.77-2.42l-1,.06a36.11,36.11,0,0,0-10.9,2.33c-1.87.74-3.66,1.52-5.39,2.33,0-.21-.06-.41-.1-.62a25,25,0,0,0-1.47-5c-3.26-7.88-10.61-12.62-18.71-12.08a20.52,20.52,0,0,0-9.59,3.23c-6.39,4.07-10.64,11.51-11.38,19.92a13,13,0,0,0,.15,3.38l0,.3a30.14,30.14,0,0,0,1.36,6.08,34.4,34.4,0,0,0,2.19,4.91,24.42,24.42,0,0,0-7,5c-2.17.18-4.29.44-6.29.7-11.51,1.5-20.56,7.53-26,17.06a33.64,33.64,0,0,0-7.65-1.35h-.16c-.51,0-1,0-1.6,0h-.33c-.52,0-1,0-1.58,0l-.67,0q-1.28.09-2.58.26l-.64.09-.94.16-.12,0-1.16.23-.87.21c-.46.11-.93.24-1.47.39l-.59.17c-.69.21-1.37.43-2.06.68a38.74,38.74,0,0,0-26,36.4,34.56,34.56,0,0,0-19.49,22c-.15.49-.29,1-.42,1.46-.7-.34-1.41-.66-2.12-.93a22.35,22.35,0,0,0-26.66,8.38,19.8,19.8,0,0,0,.15,23.17,24,24,0,0,0,13.64,9.38,46.67,46.67,0,0,0-4.1,9.13c-3,9.08-3.2,17.76-.69,25.91-6.68,6.94-9.52,15.51-11.13,22a54.94,54.94,0,0,0,1.59,31.84c2.87,8.25,7.3,14.75,13.23,19.4a42.32,42.32,0,0,0,2.22,13.84A28.41,28.41,0,0,0,125,449.32a47.08,47.08,0,0,0,2.69,17.26,63,63,0,0,0,7.73,15.64,41.5,41.5,0,0,0,16,14.08,76.27,76.27,0,0,0,17.63,6,46,46,0,0,0,4,11.15c5.48,10.86,15.27,16.65,26.85,15.88a34.44,34.44,0,0,0,4.54-.62c10.74-2.18,19.35-7.47,25.36-15.48l1.53,1.14.51.38c1.13.81,2.19,1.54,3.24,2.22a90.64,90.64,0,0,0,24.38,10.86c14.07,4,26.62,6.08,38.38,6.33,5.3.11,10.14,0,14.8-.29a116.31,116.31,0,0,0,22.72-3.64,92.91,92.91,0,0,0,18.88-7.29l.12-.06a36.49,36.49,0,0,0,28,21,29.84,29.84,0,0,0,6.77.33,30.2,30.2,0,0,0,14.05-4.62c10.25-6.38,17-15.85,20.1-28.19a32.61,32.61,0,0,0,14.11-8.9,34.81,34.81,0,0,0,14.36-6.12A45.47,45.47,0,0,0,470.07,470c9.54-3.33,17.67-10,24.7-20.22a39.44,39.44,0,0,0,7.31-21.91,37.71,37.71,0,0,0-1.21-14l.16-.14c5.76-5.12,9.23-10.78,10.62-17.31,2.76-13.08-.58-25-9-32.76a44.28,44.28,0,0,0,8-25.52A47,47,0,0,0,496,303.54Z"/><path class="cls-15" d="M209.95,457.58c1.54-1.59,2-1.44,2.45.54,1,4.34,1.73,8.72,2.89,13a4,4,0,0,1-1.35,4.37,37.25,37.25,0,0,1-13.29,8.32,35.59,35.59,0,0,1-5.26,1.19c-.29.05-.68-.48-1-.68a7.23,7.23,0,0,1,.15-1.17A65.5,65.5,0,0,1,209.95,457.58Z"/><path class="cls-16" d="M361.21,424.57a20.8,20.8,0,0,1,10-2.52c6.48,0,10.94,3.43,12.69,9.71a27.56,27.56,0,0,1,.82,8.89,53.68,53.68,0,0,1-1.67,7.19,41.11,41.11,0,0,1-12,17.3c-4.68,3.93-9.49,7.71-14.33,11.43a72.41,72.41,0,0,1-13.77,7.81c-1.93.9-2.53.73-3.94-.73a18.51,18.51,0,0,1-1.29-1.5c-7.85-10.21-16.28-20-23.31-30.81a18.23,18.23,0,0,0-8.07-7.1c-6.19-2.67-12.68-4-19.34-2.52-5.6,1.2-10.52,3.75-13.7,8.95a44.83,44.83,0,0,1-4.84,6.26,105.35,105.35,0,0,1-22.32,18.75c-1.83,1.18-3.14,1.17-4.86-.11a132.21,132.21,0,0,1-23.46-22c-4.38-5.32-7.12-11.48-9.18-18a27.85,27.85,0,0,1-1-11.76,14.29,14.29,0,0,1,19.17-12.13c6.29,2.12,10.64,6.45,14,11.93.78,1.26,1.42,2.61,2.24,3.84a2.06,2.06,0,0,0,3,.5c.91-.69,1.65-1.61,2.53-2.34a77.11,77.11,0,0,1,7.29-5.89,17,17,0,0,1,13.8-2.2c5.21,1.33,8.84,4.4,10,9.82a43.1,43.1,0,0,1,.66,5.88,24.78,24.78,0,0,0,0,3c.1.48.89,1.19,1.31,1.16a17.54,17.54,0,0,0,4.34-.85c6.82-2.4,13.31-1.49,19.64,1.67a23.83,23.83,0,0,0,3.14,1.39,1.56,1.56,0,0,0,2.16-1.33,34.46,34.46,0,0,0,.32-3.94c.07-5,2.37-8.83,5.93-12.08a10.05,10.05,0,0,1,6.73-2.74,20.76,20.76,0,0,1,9.17,1.72,29.29,29.29,0,0,1,8.38,6.07c1.65,1.62,3.2,3.35,4.88,4.93,2,1.91,3,1.93,5-.13A38.63,38.63,0,0,1,361.21,424.57ZM276,431.5c-.46-4.92-3.27-7.87-8.13-8.46a16.13,16.13,0,0,0-6.85.6,31.91,31.91,0,0,0-12.37,7.07c-1.09,1-2.16,2-3.32,3a1.3,1.3,0,0,1-1.26-.17c-.75-.87-1.33-1.88-2-2.82a37.78,37.78,0,0,0-8.15-8.6,21.09,21.09,0,0,0-7.06-3.5c-8.05-2.14-12.47,1.66-14.44,8.76A24.45,24.45,0,0,0,212,430c-.14,6.1,2.16,12,6.14,17.3a102.74,102.74,0,0,0,8.37,9.78c4.62,4.72,9.46,9.23,14.28,13.75,2.05,1.92,2.4,1.86,4.7.34,7.59-5,15-10.23,20.89-17.36a47.57,47.57,0,0,0,8.22-14A19,19,0,0,0,276,431.5Zm72.58,5.83a1.46,1.46,0,0,1-2.47-.24,39.79,39.79,0,0,0-9.37-8.77,33.71,33.71,0,0,0-5.11-3c-5.53-2.47-11-.13-13.35,5.54a16.79,16.79,0,0,0-.38,11.18,22.83,22.83,0,0,0,2.05,5c5.54,9.78,11.16,19.51,18.45,28.13.53.63,1,1.31,1.58,1.9,1.26,1.3,2.69,1.84,4.46.94,3.08-1.58,6.33-2.89,9.26-4.71a74,74,0,0,0,20.66-19,25,25,0,0,0,5.33-14.67,16.88,16.88,0,0,0-.45-4.41,9.64,9.64,0,0,0-8.87-7.41,16,16,0,0,0-7.27,1.17A48.08,48.08,0,0,0,348.59,437.33Z"/><path class="cls-15" d="M384.68,465.2c8.1,7.55,11.92,17.18,13.44,27.9.25,1.8-.4,2.41-2.18,2.4-.49,0-1-.07-1.48-.11-5.84-1-11.63-2.24-17-4.9a16.25,16.25,0,0,1-1.71-1c-1.58-1-1.77-1.57-.81-3.18a69.63,69.63,0,0,0,6.94-16.84c.36-1.26.59-2.56.94-3.83C383.09,464.67,383.91,464.48,384.68,465.2Z"/><path class="cls-17" d="M347.25,427.89c-1.48-1.55-2.92-3.15-4.47-4.64a29.22,29.22,0,0,0-9.5-6.14c-10.6-4.2-18.2.16-22.82,8.76a31.18,31.18,0,0,0-2,6.07c-.28.94-.25,2-.46,2.93-.17.8-.74,1-1.46.62a25.13,25.13,0,0,0-16.77-2.74,45.35,45.35,0,0,0-4.81,1.15c-.78.21-1.25.08-1.37-.79-.23-1.8-.36-3.62-.73-5.4-1.5-7.33-6.24-11.89-13.6-13.29a20.42,20.42,0,0,0-16,3.6,71,71,0,0,0-6.36,5.49c-1.09,1-1.48,1-2.28-.29s-1.75-2.8-2.6-4.22a4,4,0,0,1-.27-.94c.21-.22.37-.54.62-.65,1.22-.5,2.49-.89,3.69-1.42,5.82-2.61,11-6.06,14.49-11.57a18.07,18.07,0,0,0,2.94-7.29c.47-3.56,1.27-3.61,4.59-3.42a24.5,24.5,0,0,0,6.86-.66,31.89,31.89,0,0,0,14.75-7.73,10.59,10.59,0,0,1,1.81-1.67,2.63,2.63,0,0,1,1.77,0c.44.12.78.59,1.19.87,8,5.23,16.15,9.71,26.15,9.1,1.78-.11,2.08.21,2.55,2.26,1.23,5.37,4.54,9.08,9.19,11.71a27.49,27.49,0,0,0,4.94,2.24,61.81,61.81,0,0,0,6.24,1.52c2.24.49,2.45.49,2.61,2.87a16.77,16.77,0,0,0,5.17,11.45,1.51,1.51,0,0,1,.38,1.26A2.52,2.52,0,0,1,347.25,427.89Z"/><path class="cls-15" d="M456.25,239.43a1,1,0,0,1-.88-.17,1,1,0,0,1-.15-.83c1.29-3.73,2.62-7.45,3.94-11.16a9.24,9.24,0,0,1,5.11-5.72,4.27,4.27,0,0,1,1.92-.62,3.79,3.79,0,0,1,1.79.83,5.69,5.69,0,0,1,1.26,8.28A25.6,25.6,0,0,1,456.25,239.43Z"/><path class="cls-18" d="M366.12,499.09c.15,0,.39.07.42.17.3.94.56,1.89.83,2.85a39.53,39.53,0,0,0,5.75,12,13.35,13.35,0,0,0,7.38,5.5c7.46,2.1,13.29-.16,17.27-6.9a28.21,28.21,0,0,0,3.88-16.61,60.38,60.38,0,0,0-3-14.49A37.87,37.87,0,0,0,386,463.1c-.52-.41-1.21-.69-1.54-1.21s-.61-1.29-.22-1.75,1-.21,1.31,0a30.65,30.65,0,0,1,9.35,7.21c8.23,9.16,13.15,19.84,13.36,32.22.19,10.94-4.35,19.8-13.57,26a14.6,14.6,0,0,1-13.73,1.58A20.29,20.29,0,0,1,369,516.54a33.25,33.25,0,0,1-3.46-14.83c.06-.81.13-1.75.2-2.42C365.78,499.21,366,499.09,366.12,499.09Z"/><path class="cls-15" d="M254.6,175.76c-.42,2.9-.81,5.82-3.08,8a16.82,16.82,0,0,1-4.85-7.33,8.53,8.53,0,0,1,2.88-9.73c2-1.56,4-1.15,4.62,1.24a47.41,47.41,0,0,1,.87,6.3l-.31,0C254.69,174.78,254.68,175.27,254.6,175.76Z"/><path class="cls-15" d="M112.56,286.05a6.26,6.26,0,0,1,2.78-.78,7,7,0,0,1,5.4,2.09c2.45,2.43,4.73,5,7.07,7.58.1.11.86,1,.82,1.08s-.92,0-1.05,0c-1.31,0-3.94-.21-3.94-.18a28.81,28.81,0,0,1-4.41-.6,29.64,29.64,0,0,1-6.9-2.53C109.34,291,109.54,287.9,112.56,286.05Z"/><path class="cls-15" d="M120.41,356.62a30.39,30.39,0,0,1,3.82-2.25c3.15-1.63,3.48-2.69,1.73-5.84a54.4,54.4,0,0,1-3.11-5.63c-2.22-5.39-2.81-10.92,0-16.3A44.08,44.08,0,0,1,137.42,310a14.52,14.52,0,0,1,6.91-2.51,13.55,13.55,0,0,0,2.87-.57,1.64,1.64,0,0,0,.65-2.49,8.36,8.36,0,0,0-1.86-1.6,7.17,7.17,0,0,1-3.33-4.7,48.12,48.12,0,0,1-.94-23c1.76-8.57,9.94-14.5,17.38-14.33.66,0,1.32.06,2,0,2.17-.15,3-1.11,2.71-3.19s-.89-4.21-1.12-6.33c-1.16-10.81,3.82-19.74,13.42-24.27,7.74-3.65,20.38-1.9,24.61,9.61.4,1.09.69,2.21,1.1,3.29s1.48,1.83,2.24,1.34a3.67,3.67,0,0,0,1.32-1.86c.19-.57-.16-1.3-.14-1.95a81.69,81.69,0,0,1,.53-9.37c1.63-10.32,7.54-16,18-18.71,3-.79,6.21-1.13,9.16.62a1.43,1.43,0,0,0,.93.29,4.59,4.59,0,0,0,2.09-.91c.52-.56.57-1.53,1-2.25,2.77-5.12,8.27-6.36,13-2.95.53.38.92.95,1.44,1.36,1.68,1.34,3,1,4-.78a39.7,39.7,0,0,1,3.8-6.32,88.85,88.85,0,0,1,8.3-8.49c6.21-5.59,13.5-9.15,21.9-9.31,10.92-.22,21.12,1.78,27.39,12.28,1.13,1.89,2.72,1.83,3.87,0,1-1.53,1.63-3.35,2.9-4.56,6.75-6.42,14.87-8.53,23.8-6.22,5.5,1.42,10.35,4.35,13.44,9.49a8.77,8.77,0,0,0,1.2,1.57,2.37,2.37,0,0,0,2.71.73c4.4-2,8.45-.36,12.41,1.29a17.63,17.63,0,0,1,4.94,3.23c2.36,2.13,4.16,4.65,4.27,8.09a1.87,1.87,0,0,0,2.47,1.71,13.73,13.73,0,0,0,1.86-.66,37.56,37.56,0,0,1,15-2.9c9.12.17,17.19,3.1,23.45,10a43,43,0,0,1,9,15.8c1.89,5.84,2.16,11.67-.63,17.37a10.57,10.57,0,0,0-.79,2.32,1.82,1.82,0,0,0,1.52,2.18c1.3.17,2.63.22,3.94.32a44.46,44.46,0,0,1,19.76,5.89c5.58,3.11,10.23,7.26,13.08,13.15,2,4.08,2.67,8.43,3.13,12.91.9,8.63-2.74,15-9.3,20.1a19.26,19.26,0,0,0-2.4,1.73,2.85,2.85,0,0,0-.87,2.09,2.57,2.57,0,0,0,1.69,1.54c1.77.36,3.6.39,5.41.59a20.12,20.12,0,0,1,12.7,6.07,29.52,29.52,0,0,1,2.23,39A47.38,47.38,0,0,1,476.2,366a38,38,0,0,0-3.25,2.25,1.53,1.53,0,0,0-.29,2.21,3.36,3.36,0,0,0,1.67.79,1.57,1.57,0,0,0,.94-.24c4.21-2,8-.76,11.75,1.41,6.45,3.76,9.89,9.09,8.73,16.81a6.81,6.81,0,0,0-.07,1,13.53,13.53,0,0,1-4.39,9.66,36.73,36.73,0,0,1-10.83,7.74,24.72,24.72,0,0,0-2.25,1,1.68,1.68,0,0,0-.25,2.86,3.64,3.64,0,0,0,.85.5c4.31,1.56,5.7,5.08,6.44,9.21a22.25,22.25,0,0,1-3.75,17c-6.1,9-13.89,15.43-25.52,15.41a2.16,2.16,0,0,0-2.22,2.2c0,1.15.24,2.3.21,3.45a15.67,15.67,0,0,1-.45,4.87c-1.49,4-2.78,8.24-5.08,11.79-4.36,6.74-10.38,11-19.06,9.66-1.82-.29-2.34-.07-2.89,1.82C425,492.68,421,495,416.1,496.2c-4.13,1-4.34.8-5.1-3.36-.12-.65-.25-1.3-.4-1.94C407,476.16,400,463.93,385.73,457a2,2,0,0,1-1.22-1.94c-.14-2.24.81-4.21,1.61-6.18a27.87,27.87,0,0,0,1.07-17.48c-2.43-9.92-11-14.17-18.9-12.84a29.1,29.1,0,0,0-10.67,3.77c-2.32,1.43-4.67.36-6-1.55a7.19,7.19,0,0,1-1.23-2.68,41.06,41.06,0,0,1-.71-5.85c-.15-3.26-.28-3.49-3.67-4-.82-.12-1.65-.16-2.46-.32a27.14,27.14,0,0,1-10.93-4.41c-3.67-2.66-6-6.09-6.27-10.73-.17-3.13-.25-6.26-.44-9.39,0-.39-.47-.76-.72-1.13-.34.24-.82.41-1,.73-.87,1.72-.13,4.48-2.1,5.23-1.68.64-3.87,0-5.83-.17a24.51,24.51,0,0,1-2.95-.39c-5.05-1-10.16-2.14-14.16-5.54-7.64-6.49-12.65-14.36-11.71-24.95a6.11,6.11,0,0,0,0-2c-.1-.4-.62-1-.9-1a2.8,2.8,0,0,0-1.61.75,2.16,2.16,0,0,0-.42,1.39,48,48,0,0,0,0,5.92A38.09,38.09,0,0,0,288.72,377a3.29,3.29,0,0,1-.63,4.4c-6.11,6.14-13.55,8.53-22.09,7.81a2.14,2.14,0,0,1-2-1.84,18.83,18.83,0,0,0-1.35-3.16,1.07,1.07,0,0,0-.77-.52c-.22,0-.58.34-.64.59-.5,2.08-1,4.18-1.41,6.27a66.83,66.83,0,0,1-1.6,7.24c-2.81,8.27-8.55,13.54-17,15.89a6.32,6.32,0,0,1-6.4-1.39c-3.46-3-7.73-4.34-12.27-4.76a12.27,12.27,0,0,0-6.32.86c-6.25,2.86-10.47,7.38-11.57,14.39a25.15,25.15,0,0,0,.82,11.75c1.17,3.61,2.46,7.18,3.78,10.74a1.75,1.75,0,0,1-.47,2.19,7.54,7.54,0,0,1-1.19.88c-7.07,4-12.25,10-17,16.4a45.94,45.94,0,0,0-8.75,19.76c-.47,2.72-.75,3-3.64,2.52a54.6,54.6,0,0,1-23.36-9,21.91,21.91,0,0,1-7.31-8,53.27,53.27,0,0,1-5.35-15.38A20,20,0,0,1,143.53,443c2.3-5.22,2-5.78-3.64-6.48a13.5,13.5,0,0,1-8-3.54c-5.24-5-5.78-10.84-3.75-17.31.34-1.1,1-2.1,1.36-3.19a2.06,2.06,0,0,0-1-2.54,31.22,31.22,0,0,0-3.61-1.6,17.09,17.09,0,0,1-6.4-4.56,29.47,29.47,0,0,1-7.26-16,62.86,62.86,0,0,1,.2-15.82A21.56,21.56,0,0,1,120.41,356.62Z"/><path class="cls-11" d="M292.32,491.95c-3.83-.27-6.63-1.34-8.5-3.37a1.28,1.28,0,0,1,.13-1.15,17.23,17.23,0,0,1,3.29-1q6.58-1.08,13.18-2c1.43-.21,2.89-.2,4.34-.29.21,1.85-1.17,2.9-2.17,4.06C299.88,491.32,296.32,492.29,292.32,491.95Z"/><path class="cls-18" d="M206,453a19,19,0,0,1,4.4-2.12c.18-.08.64.18.79.4a1,1,0,0,1,.1.89,4.13,4.13,0,0,1-1,1.1c-8.24,7.06-13.58,16.08-17.44,26.05a33.67,33.67,0,0,0-2.45,12.07,17,17,0,0,0,4.51,11.73,9.45,9.45,0,0,0,7.44,3.35,15.84,15.84,0,0,0,11.57-4.84,30,30,0,0,0,6.58-9.8c.48-1.23,1-2.45,1.5-3.65a.84.84,0,0,1,.79-.22,1,1,0,0,1,.53.71,5,5,0,0,1-.2,1.94,92.18,92.18,0,0,1-4,9.55c-3.95,7.34-10.45,11.29-18.45,12.85-5.87,1.14-10.34-1.13-13.16-6.43-2.71-5.08-3.76-10.53-3.37-17.61a76.42,76.42,0,0,1,1.78-8.36C189.46,469.21,196.78,460.41,206,453Z"/><path class="cls-17" d="M215.25,457.49a3.43,3.43,0,0,1,0-1c0-.15.13-.42.2-.42.27,0,.64,0,.79.16.89,1,1.71,2,2.59,3,6.71,7.57,14,14.51,22.55,20,1.57,1,2.83,1.24,4.51.18a111.89,111.89,0,0,0,27.91-24.28c1.14-1.41,2.3-2.81,3.51-4.16a17.48,17.48,0,0,1,11.58-6,25.83,25.83,0,0,1,10.3.72c6,1.83,11,4.63,14.38,10.43,3.57,6.09,8,11.69,12.4,17.29,3.14,4,6.74,7.7,10.15,11.52a6.58,6.58,0,0,0,8,1.93,40.4,40.4,0,0,0,4.58-1.86c10.84-6.09,21.3-12.69,29.21-22.58a5.17,5.17,0,0,1,1.53-.89,6.17,6.17,0,0,1,.08,1.45c-.2,1.14-.45,2.27-.75,3.38a78,78,0,0,1-7.12,17.37,62.44,62.44,0,0,1-31.94,28.38c-15,6.19-30.75,7.1-47.65,6.46-3.16-.49-7.25-1-11.32-1.75-15.14-2.63-29.41-7.4-41.77-16.93-9.09-7-16.34-15.45-19.9-26.53C217.44,468.19,216.5,462.79,215.25,457.49Zm61.92,32.38c1.65,6,4.65,9.95,10.73,13.31a18.36,18.36,0,0,0,8.06,2.21c5.85.22,11-2.28,15-6.57a10.53,10.53,0,0,0,2-3.35,19.05,19.05,0,0,0,.2-12.59c-.58-1.94-1.72-2.6-3.74-2.45a37,37,0,0,0-3.92.47q-11.18,2-22.34,4.09a22.56,22.56,0,0,0-3.8,1C277.5,486.71,276.66,488,277.17,489.87Z"/><path class="cls-19" d="M280.29,489.37a.48.48,0,0,1,.43,0c.63.51,1.22,1.08,1.87,1.57,7.51,5.65,20,5.42,24.83-5.1a13.12,13.12,0,0,1,1.27-2.1,1.24,1.24,0,0,1,2,.46c.33,1.93.52,3.89.66,5-.33,3.29-.47,5.81-2.19,7.8-3.3,3.82-7.44,6-12.57,5.74a22.62,22.62,0,0,1-9.43-2.73c-4.07-2.2-5.91-6-7.11-10.25C280,489.66,280.16,489.45,280.29,489.37Z"/><path class="cls-20" d="M263,391.94c11.89,1.91,24.31-3.15,31.06-12.66,7.37,8.59,20.79,12.29,29.51,11.62,3,13.93,12.3,16.83,23.33,18.67,3.76,2.26,1,13.58,8.42,15.45a87.93,87.93,0,0,1-7.1,6.55c-3.53-6.29-8-13.65-13.81-16.1-7.75-3.6-17.49-7.36-16.65-18.33-7.21,2.46-21.68,1.51-25.13-5.77-6.75,9.51-13.37,10.84-24.11,7-2,12.88-15.56,19.87-24.23,28.23-.69-4.06-4.45-7.36-6.22-10.5C250.2,415,262.09,403.91,263,391.94Z"/><path class="cls-20" d="M364.12,472.9c12.16-8.79,22.35-22.4,20.77-38.15,5.06-1.36,9-4.85,10-10.64,2.68-8.82,1.3-17-2.08-25.23,10.36,8.82,25.08-.08,28-11.9a43.42,43.42,0,0,0-5.46-33.51c8,.61,17.87,2.37,23.47-5.22,11.27-16.19,5.74-35.67-4.23-49.47,10.89,1.84,20.48-5.45,23.23-15.27,3.18-10.17,3.42-23.75-3.48-32.4a45,45,0,0,1,7.51,2.86c13,6.32,19.52,16.73,20.08,31.1.28,7.28-1.69,13.69-6.55,19.17a7.8,7.8,0,0,0-1.22,1.54c-.12.22.17.88.44,1a9.11,9.11,0,0,0,1.88.58,23.73,23.73,0,0,1,10.4,5.52,33.73,33.73,0,0,1,10.8,25.21c0,8.67-3.3,16.08-9.12,22.4-1.67,1.82-3.52,3.49-5.27,5.24-.57.57-.6,1.16.26,1.45a32.16,32.16,0,0,1,8.65,4.72c6.86,4.9,8.46,13.46,6.68,21.84-.89,4.22-3.4,7.49-6.54,10.28-1.85,1.64-3.89,3.07-5.84,4.59-1.56,1.22-1.69,1.42-.61,3.25a23.83,23.83,0,0,1,3.15,15.28,26.5,26.5,0,0,1-5,15.26c-5.8,8.43-13,14.94-23.57,16.65a2.18,2.18,0,0,0-2.14,2.22c-.06.82-.13,1.65-.26,2.46a32.19,32.19,0,0,1-13.86,22,20.88,20.88,0,0,1-11,4.14,5,5,0,0,0-4.11,2.2,19.81,19.81,0,0,1-12.39,7.58c-1.58.32-3.67.26-4.57,1.25s-.66,3.09-1,4.7c-1.84,9.69-6.38,17.62-14.93,22.94a16.78,16.78,0,0,1-11.86,2.5c-9-1.48-15.37-6.55-18.87-15a39,39,0,0,1-3.08-12.45c-.07-1.06-.74-1.34-1.61-.72-.54.38-1,.81-1.56,1.22a67.9,67.9,0,0,1-14.69,9c6.5-10.51,10.23-23.19,13.13-35.61A57.65,57.65,0,0,0,364.12,472.9Zm5.2,25.55c1.39,5.15,3.21,10.07,6.48,14.32,3,3.9,7,5.28,11.83,4.3a10.12,10.12,0,0,0,5.73-3.65c3.1-3.66,4.4-8.05,4.92-12.72a1.41,1.41,0,0,0-1.4-1.66c-1.15-.12-2.3-.19-3.46-.27-7.24-1-14.28-2.54-20.41-6.82a1.43,1.43,0,0,0-2.12.22A5.86,5.86,0,0,0,369.32,498.45Z"/><path class="cls-21" d="M107.42,370.82c2-7.9,5.09-15.41,12.7-19.91,1.76-1,1.84-1.4.83-3.16-4.42-7.68-4.66-15.7-2-23.92a32.62,32.62,0,0,1,16.33-19.08c1.3-.7,2.71-1.2,4.06-1.84a1.21,1.21,0,0,0,.67-1.62c-.33-.94-.74-1.85-1-2.81-2-8.43-3.16-16.92-.51-25.42,2.45-7.85,7.8-12.79,15.63-15.21,1.69-.52,4.19.38,4.95-1.45.61-1.48-.13-3.52-.27-5.3,0-.33-.08-.66-.11-1-1.1-11.41,4.92-22.58,17.33-27.09a23.75,23.75,0,0,1,9.56-1.49,54.67,54.67,0,0,0-3.21,4.77c-8,12.43-8.81,36.43,8.68,43.79-6-.46-11.35,4.14-12.73,9.05-5.9,11.58-6.36,30.6,10.44,33.9-15.49,5.83-20.86,23.48-19,38.66.39,8.05,9.59,18.79,20.1,12.57-8.66,8.36-10.65,21.25-7.51,32.52,2.38,8.21,10.05,12.8,19.1,12.5-4.37,4.68-6.9,11.51-3.37,17.79a17.21,17.21,0,0,0,8.4,6.33c4,15.83,16.09,28.43,27.89,39.52,2,11.25,3.66,22.72,7.69,33.08a65.18,65.18,0,0,1-11-8.95c-1.28-1.29-2.47-2.67-3.77-3.94a7.46,7.46,0,0,0-1.62-.95c-.84,2.15-1.65,4.31-2.53,6.43-4,9.63-11.27,15.27-21.36,17.32-7.82,1.59-13.61-1.29-17.19-8.38a30.6,30.6,0,0,1-3.5-13.8c0-2.13-.2-2.26-2.1-2.68-2.26-.49-4.53-.91-6.79-1.42a64.5,64.5,0,0,1-15-5,28.49,28.49,0,0,1-11-9.72,49.81,49.81,0,0,1-6.15-12.4c-2-6.21-3.14-12.51-.72-18.92.06-.15.07-.32.11-.48a1.76,1.76,0,0,0-1.15-2.37c-1.38-.55-2.78-1-4.18-1.55a15.43,15.43,0,0,1-9.89-10.37c-1.42-4.58-2.39-9.26-.92-14.11.68-2.26.58-2.44-1.54-3.49-6.82-3.37-10.71-9.12-13.13-16A42.31,42.31,0,0,1,107.42,370.82Zm85.87,121.62a12.54,12.54,0,0,0,3.28,8.56,7,7,0,0,0,6.13,2.62,13.24,13.24,0,0,0,7.76-2.88c5-4.19,7.8-9.73,9.49-15.89a4.18,4.18,0,0,0-.28-2.37,22.17,22.17,0,0,0-1.56-3.09c-.71-1.27-1.17-1.35-2.3-.51-2,1.47-3.89,3.06-6,4.37a39,39,0,0,1-13.75,5.37C193.63,489.07,193.3,489.67,193.29,492.44Z"/><path class="cls-11" d="M225.8,425.92a1.79,1.79,0,0,1,1.33,2.79c-2.85,3.45,4,13.4,6.09,16.41,1.74,2.54,8.54,7.14,6.31,10.66A2.9,2.9,0,0,1,235,456a50.84,50.84,0,0,1-12.31-19.14C221.31,433,219.34,425.79,225.8,425.92Z"/><path class="cls-11" d="M330,434.15c1.35-1,3.93-.24,3.56,1.8l-.34-.32a1.13,1.13,0,0,1-.12,1.58c-.73.63,1.06,6.49,1.33,7.54,1.48,5.88,4.07,10.71,7.09,15.93,1.86,3.22-3.32,5.69-5.16,2.51-3.28-5.65-6.15-10.92-7.48-17.36C328,441.75,326,437,330,434.15Z"/><path class="cls-22" d="M235.68,287.95c0,1,0,2,0,3-.06,1.87-.08,1.87-2.24,2.5a28.52,28.52,0,0,0-2.82.9c-4.43,1.83-7.94,7-6.3,12.5,1.11,3.73,2.48,7.19,5.88,9.42a6.68,6.68,0,0,0,2.25.86c.4.08,1.14-.1.82-.81-.79-1.8-1.71-3.56-2.54-5.35a37,37,0,0,1-2-4.52c-1.13-3.64.13-6.48,3.53-8.2.87-.44,1.86-.65,2.78-1a2.22,2.22,0,0,1,3,.89,10.59,10.59,0,0,0,2.36,2.45,2,2,0,0,0,1.78-.16,2,2,0,0,0,.83-1.62,9.43,9.43,0,0,0-1.19-2.66c-4.2-7.42-2.5-19.49,9.77-22.61A28.06,28.06,0,0,1,270,275a13.8,13.8,0,0,1,5.56,4c1.93,2.44,4.24,2.22,5.43-1.13a21.69,21.69,0,0,1,1.75-3.54c5.79-10,17.28-12.65,26.83-6.25a36.74,36.74,0,0,1,10.59,11c2.3,3.62,4.39,7.36,6.63,11,.18.29.74.34,1.13.5a2.88,2.88,0,0,0,.31-.9,4.9,4.9,0,0,0-.25-1.45c-3.17-9.27-8.07-17.35-16.23-23.08-8.85-6.2-19.32-5.52-27.09.82-2.25,1.84-4,4.38-5.83,6.67-1.3,1.6-1.25,1.7-3.13.51-7.36-4.66-15.38-5.64-23.79-4.2a20.16,20.16,0,0,0-11.2,5.9A17.39,17.39,0,0,0,235.68,287.95Z"/><path class="cls-22" d="M423.54,320.07c1.4-5.8-.4-10.76-4.1-15.17a17.61,17.61,0,0,0-8.3-6,4.32,4.32,0,0,0-1.94-.15c-.27.05-.71.9-.61,1,.91,1.16,1.92,2.24,2.92,3.33a70.3,70.3,0,0,1,4.93,5.53c3.21,4.43,3.54,9.12.6,13.88a12.17,12.17,0,0,0-.79,1.25,2.42,2.42,0,0,0,1.14,3.35c.72.39,1.53.6,2.27,1,6.22,3,9,7.7,8.55,14.79A14.74,14.74,0,0,1,418,356.13c-4.23,1.43-4.55,2.38-1.69,5.61a20.87,20.87,0,0,1,5,11.64,9.68,9.68,0,0,1-4.77,10.13c-2,1.2-4.06,2.17-6.12,3.2-.73.37-1.58.51-2.29.92a1.56,1.56,0,0,0-.84,2.07,4,4,0,0,0,1.79,1.41,2.35,2.35,0,0,0,1.44-.17A27.65,27.65,0,0,0,422,384.36,12.86,12.86,0,0,0,425.78,374a26.74,26.74,0,0,0-4.3-13,1.07,1.07,0,0,1,.35-1.65c1.63-1.12,3.26-2.24,4.82-3.45,8.19-6.37,9.19-23.4-1.21-30.36-.41-.28-.8-.59-1.23-.83-1.33-.75-2-1.69-1.09-3.22A6.1,6.1,0,0,0,423.54,320.07Z"/><path class="cls-22" d="M420.69,453.19c5.64.45,9.39-2,11-6.89a21.78,21.78,0,0,0,.73-2.87c.33-1.74.6-3.49.9-5.24a41.36,41.36,0,0,0,4.82-.75,8,8,0,0,0,6.15-7,17.13,17.13,0,0,0-2.93-12.66,3.22,3.22,0,0,0-1.55-1.09c-.29-.1-1.12.36-1.11.56,0,1.29.24,2.58.39,3.87a72.63,72.63,0,0,1,.87,7.31c.08,3.92-3,6-7.29,4.3-1-.42-1.86-1.4-2.91-1.8a3.07,3.07,0,0,0-2.25.25,1.52,1.52,0,0,0-.48,2.17c1.91,3.43,1.45,7,.74,10.6-.79,3.94-3.12,5.49-7.15,5a25.61,25.61,0,0,1-3.36-.78c-1-.27-2-.23-2.57.79s0,2.16,1.23,2.83a14.25,14.25,0,0,0,2.74,1.07A13.59,13.59,0,0,0,420.69,453.19Z"/><path class="cls-22" d="M376.55,268.79a13.62,13.62,0,0,0-.63,2.87,2.45,2.45,0,0,0,1,1.6,1.53,1.53,0,0,0,2.21-.3,7.59,7.59,0,0,0,1.55-3c1.95-10.9-6.31-18.33-15.7-16.74a36.66,36.66,0,0,0-6.13,1.85,1.73,1.73,0,0,1-2.44-.83,14,14,0,0,0-2.36-3.15,21.79,21.79,0,0,0-4-2.76,2,2,0,0,0-1.78.2,1.73,1.73,0,0,0,.13,1.66,25.79,25.79,0,0,1,6.08,9.52,2.13,2.13,0,0,0,3.24,1.15c.73-.38,1.35-1,2.1-1.3a32.17,32.17,0,0,1,5.08-1.86C372.21,256,377.34,261.39,376.55,268.79Z"/><path class="cls-22" d="M187,423.42a6.84,6.84,0,0,0,2-.24c.54-.2,1.24-.84,1.27-1.32a2.75,2.75,0,0,0-.75-2.13,10.86,10.86,0,0,0-2.77-.91,40.23,40.23,0,0,1-6.44-2.45c-3.49-2-3.25-5.93.35-7.75a21.27,21.27,0,0,1,2.83-.82c1.73-.6,2.21-2.13,1.09-3.48-.42-.5-1-.91-1.43-1.37a9.55,9.55,0,0,1-2.73-9.08,12.31,12.31,0,0,0,.34-2.44,1.55,1.55,0,0,0-.7-1.17,1.48,1.48,0,0,0-1.3.25c-1.86,1.65-2.36,3.89-2.46,6.25a10.19,10.19,0,0,0,.22,2,14.35,14.35,0,0,1-2,9.64,8.27,8.27,0,0,0,1.68,10.76A19.2,19.2,0,0,0,187,423.42Z"/><path class="cls-22" d="M287.68,454.56a1.72,1.72,0,0,0-.48-.1c-3.76.25-5.87,2.56-7.22,5.81-1.25,3-.3,5.61,2,7.55a18.73,18.73,0,0,0,5.15,2.74,2.25,2.25,0,0,0,2.11-.54c.56-.89-.36-1.41-1.12-1.75s-1.86-.71-2.72-1.18c-4.19-2.28-4.47-6.73-.58-9.51.93-.66,2-1.06,3-1.64a1.05,1.05,0,0,0,.46-.78C288.28,455,287.89,454.76,287.68,454.56Z"/><path class="cls-22" d="M291.7,465.63c-.67-.08-1.31.14-1.43.58a1.83,1.83,0,0,0,.55,1.58,3,3,0,0,0,1.71.67c.33,0,.78-.38,1-.71a.87.87,0,0,0-.09-.85C292.92,466.41,292.39,465.71,291.7,465.63Z"/><path class="cls-23" d="M120.12,350.91c1.76-1,1.84-1.4.83-3.16-4.42-7.68-4.66-15.7-2-23.92a32.62,32.62,0,0,1,16.33-19.08c1.3-.7,2.71-1.2,4.06-1.84a1.21,1.21,0,0,0,.67-1.62c-.33-.94-.74-1.85-1-2.81-2-8.43-3.16-16.92-.51-25.42,2.45-7.85,7.8-12.79,15.63-15.21,1.69-.52,4.19.38,4.95-1.45.61-1.48-.13-3.52-.27-5.3,0-.33-.08-.66-.11-1-1.1-11.41,4.92-22.58,17.33-27.09,8.27-3,16.28-1.62,23.13,4.36.37.32.69.71,1.06,1,.65.57,1.3.43,1.43-.32.19-1.14.23-2.31.49-3.43,2.86-12.68,10.77-17.78,19.59-18.92a80.42,80.42,0,0,1,8.86-.8,3.93,3.93,0,0,0,3.62-1.94c2.62-3.88,6.48-5.48,11.06-5.39a20.21,20.21,0,0,1,5.4.58c2.64.8,2.81.44,4.21-2a37.08,37.08,0,0,1,10.91-11.34,71.21,71.21,0,0,1,15.27-8.14,24.13,24.13,0,0,1,7.72-1.48,45.91,45.91,0,0,1,14.65,1.93,32.89,32.89,0,0,1,13.76,7.48l1.09,1a1.36,1.36,0,0,0,2.13-.12,27.74,27.74,0,0,1,11.3-6.92,33.52,33.52,0,0,1,19.07-.28c5.48,1.44,10.74,3.46,14,8.6a2.14,2.14,0,0,0,2.59.82c5.24-1.11,9.77.55,13.91,3.65,3.61,2.7,6.76,5.77,8.57,10.06.85,2,1,2,3,1.36a36.81,36.81,0,0,1,12.62-2.22c11.75.06,21.66,4.15,28.79,13.75a56.83,56.83,0,0,1,6,10.21c3.3,7.24,4.71,14.77,1.95,22.61-.55,1.56-.1,2.19,1.53,2.24A44.13,44.13,0,0,1,461.89,254c13,6.32,19.52,16.73,20.08,31.1.28,7.28-1.69,13.69-6.55,19.17a7.8,7.8,0,0,0-1.22,1.54c-.12.22.17.88.44,1a9.11,9.11,0,0,0,1.88.58,23.73,23.73,0,0,1,10.4,5.52,33.73,33.73,0,0,1,10.8,25.21c0,8.67-3.3,16.08-9.12,22.4-1.67,1.82-3.52,3.49-5.27,5.24-.57.57-.6,1.16.26,1.45a32.16,32.16,0,0,1,8.65,4.72c6.86,4.9,8.46,13.46,6.68,21.84-.89,4.22-3.4,7.49-6.54,10.28-1.85,1.64-3.89,3.07-5.84,4.59-1.56,1.22-1.69,1.42-.61,3.25a23.83,23.83,0,0,1,3.15,15.28,26.5,26.5,0,0,1-5,15.26c-5.8,8.43-13,14.94-23.57,16.65a2.18,2.18,0,0,0-2.14,2.22c-.06.82-.13,1.65-.26,2.46a32.19,32.19,0,0,1-13.86,22,20.88,20.88,0,0,1-11,4.14,5,5,0,0,0-4.11,2.2,19.81,19.81,0,0,1-12.39,7.58c-1.58.32-3.67.26-4.57,1.25s-.66,3.09-1,4.7c-1.84,9.69-6.38,17.62-14.93,22.94a16.78,16.78,0,0,1-11.86,2.5c-9-1.48-15.37-6.55-18.87-15a39,39,0,0,1-3.08-12.45c-.07-1.06-.74-1.34-1.61-.72-.54.38-1,.81-1.56,1.22A72.92,72.92,0,0,1,332,517.62c-11.1,3-22.45,3.74-33.88,3.49-12-.25-23.63-2.56-35.1-5.83-12.11-3.46-23-9.17-31.91-18.22-1.28-1.29-2.47-2.67-3.77-3.94a7.46,7.46,0,0,0-1.62-.95c-.84,2.15-1.65,4.31-2.53,6.43-4,9.63-11.27,15.27-21.36,17.32-7.82,1.59-13.61-1.29-17.19-8.38a30.6,30.6,0,0,1-3.5-13.8c0-2.13-.2-2.26-2.1-2.68-2.26-.49-4.53-.91-6.79-1.42a64.5,64.5,0,0,1-15-5,28.49,28.49,0,0,1-11-9.72,49.81,49.81,0,0,1-6.15-12.4c-2-6.21-3.14-12.51-.72-18.92.06-.15.07-.32.11-.48a1.76,1.76,0,0,0-1.15-2.37c-1.38-.55-2.78-1-4.18-1.55a15.43,15.43,0,0,1-9.89-10.37c-1.42-4.58-2.39-9.26-.92-14.11.68-2.26.58-2.44-1.54-3.49-6.82-3.37-10.71-9.12-13.13-16a42.31,42.31,0,0,1-1.26-24.43C109.39,362.92,112.51,355.41,120.12,350.91ZM369,516.54a20.29,20.29,0,0,0,11.91,10.6,14.6,14.6,0,0,0,13.73-1.58c9.21-6.23,13.75-15.09,13.57-26-.21-12.37-5.13-23.05-13.36-32.22a30.65,30.65,0,0,0-9.35-7.21c-.35-.17-1-.29-1.31,0s-.06,1.3.22,1.75,1,.8,1.54,1.21a37.87,37.87,0,0,1,12.67,18.5,60.38,60.38,0,0,1,3,14.49,28.21,28.21,0,0,1-3.88,16.61c-4,6.74-9.81,9-17.27,6.9a13.35,13.35,0,0,1-7.38-5.5,39.53,39.53,0,0,1-5.75-12c-.27-1-.54-1.9-.83-2.85,0-.1-.27-.17-.42-.17s-.33.12-.34.2c-.07.68-.14,1.62-.2,2.42A33.25,33.25,0,0,0,369,516.54Zm-22.59-84.3c-1.68-1.58-3.23-3.31-4.88-4.93a29.29,29.29,0,0,0-8.38-6.07,20.76,20.76,0,0,0-9.17-1.72,10.05,10.05,0,0,0-6.73,2.74c-3.56,3.25-5.87,7.1-5.93,12.08a34.46,34.46,0,0,1-.32,3.94,1.56,1.56,0,0,1-2.16,1.33,23.83,23.83,0,0,1-3.14-1.39c-6.33-3.16-12.82-4.07-19.64-1.67a17.54,17.54,0,0,1-4.34.85c-.42,0-1.22-.68-1.31-1.16a24.78,24.78,0,0,1,0-3,43.1,43.1,0,0,0-.66-5.87c-1.19-5.41-4.82-8.49-10-9.82a17,17,0,0,0-13.8,2.2,77.11,77.11,0,0,0-7.29,5.89c-.88.73-1.62,1.65-2.53,2.34a2.06,2.06,0,0,1-3-.5c-.82-1.23-1.46-2.58-2.24-3.84-3.4-5.48-7.75-9.81-14-11.93a14.29,14.29,0,0,0-19.17,12.13,27.85,27.85,0,0,0,1,11.76c2.06,6.5,4.81,12.66,9.18,18a132.21,132.21,0,0,0,23.46,22c1.72,1.29,3,1.29,4.86.11a105.35,105.35,0,0,0,22.32-18.75,44.83,44.83,0,0,0,4.84-6.26c3.18-5.19,8.1-7.74,13.7-8.95,6.66-1.43,13.15-.14,19.34,2.52a18.23,18.23,0,0,1,8.07,7.1c7,10.82,15.46,20.6,23.31,30.81a18.51,18.51,0,0,0,1.29,1.5c1.41,1.46,2,1.63,3.94.73a72.41,72.41,0,0,0,13.77-7.81c4.84-3.72,9.65-7.5,14.33-11.43a41.11,41.11,0,0,0,12-17.3,53.68,53.68,0,0,0,1.67-7.19,27.56,27.56,0,0,0-.82-8.89c-1.75-6.28-6.21-9.68-12.69-9.71a20.8,20.8,0,0,0-10,2.52,38.63,38.63,0,0,0-9.77,7.53C349.46,434.17,348.46,434.14,346.44,432.23Zm4.89-6.59a16.77,16.77,0,0,1-5.17-11.45c-.16-2.38-.37-2.38-2.61-2.87a61.81,61.81,0,0,1-6.24-1.52,27.49,27.49,0,0,1-4.94-2.24c-4.65-2.63-8-6.35-9.19-11.71-.47-2.05-.77-2.37-2.55-2.26-10,.61-18.2-3.87-26.15-9.1-.41-.27-.75-.75-1.19-.87a2.63,2.63,0,0,0-1.77,0,10.59,10.59,0,0,0-1.81,1.67,31.89,31.89,0,0,1-14.75,7.73,24.5,24.5,0,0,1-6.86.66c-3.33-.19-4.12-.14-4.59,3.42a18.07,18.07,0,0,1-2.94,7.29c-3.5,5.51-8.66,9-14.49,11.57-1.2.54-2.47.92-3.69,1.42-.25.1-.42.43-.62.65a4,4,0,0,0,.27.94q1.27,2.13,2.6,4.22c.8,1.25,1.18,1.26,2.28.29a71,71,0,0,1,6.36-5.49,20.42,20.42,0,0,1,16-3.6c7.36,1.4,12.1,6,13.6,13.29.36,1.77.49,3.6.73,5.4.11.87.58,1,1.37.79a45.35,45.35,0,0,1,4.81-1.15,25.13,25.13,0,0,1,16.77,2.74c.72.41,1.29.18,1.46-.62.21-1,.18-2,.46-2.93a31.18,31.18,0,0,1,2-6.07c4.62-8.6,12.22-13,22.82-8.76a29.22,29.22,0,0,1,9.5,6.14c1.55,1.48,3,3.08,4.47,4.64a2.52,2.52,0,0,0,4.46-1A1.51,1.51,0,0,0,351.33,425.64ZM195.39,485a35.59,35.59,0,0,0,5.26-1.19,37.25,37.25,0,0,0,13.29-8.32,4,4,0,0,0,1.35-4.37c-1.16-4.28-1.93-8.66-2.89-13-.44-2-.9-2.13-2.45-.54a65.5,65.5,0,0,0-15.36,25.57,7.23,7.23,0,0,0-.15,1.17C194.7,484.52,195.1,485,195.39,485Zm-2.1,7.45a12.54,12.54,0,0,0,3.28,8.56,7,7,0,0,0,6.13,2.62,13.24,13.24,0,0,0,7.76-2.88c5-4.19,7.8-9.73,9.49-15.89a4.18,4.18,0,0,0-.28-2.37,22.17,22.17,0,0,0-1.56-3.09c-.71-1.27-1.17-1.35-2.3-.51-2,1.47-3.89,3.06-6,4.37a39,39,0,0,1-13.75,5.37C193.63,489.07,193.3,489.67,193.29,492.44Zm188.6-23a69.63,69.63,0,0,1-6.94,16.84c-1,1.61-.78,2.13.81,3.18a16.25,16.25,0,0,0,1.71,1c5.37,2.66,11.16,3.89,17,4.9.49,0,1,.1,1.48.11,1.78,0,2.43-.59,2.18-2.4-1.52-10.72-5.33-20.35-13.44-27.9-.77-.72-1.59-.53-1.85.45C382.48,466.92,382.24,468.22,381.89,469.48ZM373,491.95a1.43,1.43,0,0,0-2.12.22,5.86,5.86,0,0,0-1.57,6.28c1.39,5.15,3.21,10.07,6.48,14.32,3,3.9,7,5.28,11.83,4.3a10.12,10.12,0,0,0,5.73-3.65c3.1-3.66,4.4-8.05,4.92-12.72a1.41,1.41,0,0,0-1.4-1.66c-1.15-.12-2.3-.19-3.46-.27C386.18,497.82,379.14,496.23,373,491.95Zm-134,7.94c12.36,9.54,26.63,14.3,41.77,16.93,4.06.7,8.15,1.26,11.32,1.75,16.9.64,32.66-.27,47.65-6.46a62.44,62.44,0,0,0,31.94-28.38,78,78,0,0,0,7.13-17.37c.3-1.12.55-2.24.75-3.38a6.17,6.17,0,0,0-.08-1.45,5.17,5.17,0,0,0-1.53.89C370,472.3,359.57,478.89,348.73,485a40.4,40.4,0,0,1-4.58,1.86,6.58,6.58,0,0,1-8-1.93c-3.41-3.82-7-7.49-10.15-11.52-4.36-5.6-8.83-11.2-12.4-17.29-3.4-5.8-8.39-8.6-14.38-10.43a25.83,25.83,0,0,0-10.3-.72,17.48,17.48,0,0,0-11.58,6c-1.21,1.35-2.37,2.75-3.51,4.16a111.89,111.89,0,0,1-27.91,24.28c-1.68,1.06-2.94.82-4.51-.18-8.58-5.47-15.84-12.4-22.55-20-.88-1-1.7-2-2.59-3-.15-.17-.52-.16-.79-.16-.07,0-.18.27-.2.42a3.43,3.43,0,0,0,0,1c1.25,5.3,2.19,10.7,3.85,15.87C222.66,484.43,229.91,492.87,239,499.88Zm-51.5,6.74c2.82,5.3,7.28,7.57,13.16,6.43,8-1.56,14.51-5.51,18.45-12.85a92.18,92.18,0,0,0,4-9.55,5,5,0,0,0,.2-1.94,1,1,0,0,0-.53-.71.84.84,0,0,0-.79.22c-.54,1.2-1,2.42-1.5,3.65a30,30,0,0,1-6.58,9.8,15.84,15.84,0,0,1-11.57,4.84,9.45,9.45,0,0,1-7.44-3.35,17,17,0,0,1-4.51-11.73,33.67,33.67,0,0,1,2.45-12.07c3.87-10,9.2-19,17.44-26.05a4.13,4.13,0,0,0,1-1.1,1,1,0,0,0-.1-.89c-.15-.22-.61-.48-.79-.4A19,19,0,0,0,206,453c-9.18,7.38-16.5,16.18-20,27.63a76.42,76.42,0,0,0-1.78,8.36C183.74,496.1,184.79,501.54,187.5,506.63ZM111.25,387.81a29.47,29.47,0,0,0,7.26,16,17.09,17.09,0,0,0,6.4,4.56,31.22,31.22,0,0,1,3.61,1.6,2.06,2.06,0,0,1,1,2.54c-.38,1.09-1,2.09-1.36,3.19-2,6.47-1.5,12.35,3.75,17.31a13.5,13.5,0,0,0,8,3.54c5.59.71,5.94,1.27,3.64,6.48a20,20,0,0,0-1.26,11.64A53.27,53.27,0,0,0,147.62,470a21.91,21.91,0,0,0,7.31,8,54.6,54.6,0,0,0,23.36,9c2.89.44,3.17.21,3.64-2.52a45.94,45.94,0,0,1,8.75-19.76c4.74-6.36,9.93-12.39,17-16.4a7.54,7.54,0,0,0,1.19-.88,1.75,1.75,0,0,0,.47-2.19c-1.31-3.56-2.61-7.13-3.78-10.74a25.15,25.15,0,0,1-.82-11.75c1.1-7,5.32-11.53,11.57-14.39a12.27,12.27,0,0,1,6.32-.86c4.54.42,8.82,1.73,12.27,4.76a6.32,6.32,0,0,0,6.4,1.39c8.4-2.35,14.14-7.62,17-15.89a66.83,66.83,0,0,0,1.6-7.24c.45-2.09.91-4.19,1.41-6.27.06-.25.42-.59.64-.59a1.07,1.07,0,0,1,.77.52,18.83,18.83,0,0,1,1.35,3.16,2.14,2.14,0,0,0,2,1.84c8.54.72,16-1.67,22.09-7.81a3.29,3.29,0,0,0,.63-4.4,38.09,38.09,0,0,1-4.32-14.63,48,48,0,0,1,0-5.92,2.16,2.16,0,0,1,.42-1.39,2.8,2.8,0,0,1,1.61-.75c.29,0,.8.57.9,1a6.11,6.11,0,0,1,0,2c-.94,10.59,4.07,18.46,11.71,24.95,4,3.4,9.1,4.54,14.16,5.54a24.51,24.51,0,0,0,2.95.39c2,.14,4.15.81,5.83.17,2-.75,1.23-3.51,2.1-5.23.17-.33.65-.49,1-.73.25.38.7.74.72,1.13.19,3.13.27,6.26.44,9.39.25,4.64,2.59,8.07,6.27,10.73A27.14,27.14,0,0,0,343.52,408c.81.16,1.64.2,2.46.32,3.39.49,3.53.71,3.67,4a41.06,41.06,0,0,0,.71,5.85,7.19,7.19,0,0,0,1.23,2.68c1.35,1.91,3.7,3,6,1.55a29.1,29.1,0,0,1,10.67-3.77c7.94-1.32,16.47,2.92,18.9,12.84a27.87,27.87,0,0,1-1.07,17.48c-.8,2-1.75,3.94-1.61,6.18a2,2,0,0,0,1.22,1.94C400,463.93,407,476.16,410.6,490.9c.15.64.29,1.29.4,1.94.76,4.16,1,4.38,5.1,3.36,4.88-1.2,8.86-3.52,10.39-8.81.55-1.89,1.06-2.11,2.89-1.82,8.68,1.36,14.7-2.92,19.06-9.66,2.29-3.55,3.59-7.77,5.08-11.79a15.67,15.67,0,0,0,.45-4.87c0-1.14-.23-2.3-.21-3.45a2.16,2.16,0,0,1,2.22-2.2c11.63,0,19.41-6.39,25.52-15.41a22.25,22.25,0,0,0,3.75-17c-.74-4.13-2.13-7.65-6.44-9.21a3.64,3.64,0,0,1-.85-.5,1.68,1.68,0,0,1,.25-2.86,24.72,24.72,0,0,1,2.25-1,36.73,36.73,0,0,0,10.83-7.74,13.53,13.53,0,0,0,4.39-9.66,6.81,6.81,0,0,1,.07-1c1.17-7.72-2.27-13-8.73-16.81-3.71-2.16-7.54-3.36-11.75-1.41a1.57,1.57,0,0,1-.94.24,3.36,3.36,0,0,1-1.67-.79,1.53,1.53,0,0,1,.29-2.21A38,38,0,0,1,476.2,366a47.38,47.38,0,0,0,11.31-10.29,29.52,29.52,0,0,0-2.23-39,20.12,20.12,0,0,0-12.7-6.07c-1.8-.2-3.64-.23-5.41-.59a2.57,2.57,0,0,1-1.69-1.54,2.85,2.85,0,0,1,.87-2.09,19.26,19.26,0,0,1,2.4-1.73c6.57-5.09,10.2-11.47,9.3-20.1-.46-4.48-1.15-8.83-3.13-12.91-2.85-5.88-7.5-10-13.08-13.15a44.46,44.46,0,0,0-19.76-5.89c-1.31-.1-2.64-.15-3.94-.32a1.82,1.82,0,0,1-1.52-2.18,10.57,10.57,0,0,1,.79-2.32c2.78-5.7,2.52-11.53.63-17.37a43,43,0,0,0-9-15.8c-6.26-6.9-14.33-9.83-23.45-10a37.56,37.56,0,0,0-15,2.9,13.73,13.73,0,0,1-1.86.66,1.87,1.87,0,0,1-2.47-1.71c-.11-3.44-1.91-6-4.27-8.09a17.63,17.63,0,0,0-4.94-3.23c-4-1.65-8-3.26-12.41-1.29a2.37,2.37,0,0,1-2.71-.73,8.77,8.77,0,0,1-1.2-1.57c-3.08-5.15-7.93-8.07-13.44-9.49-8.92-2.3-17.05-.2-23.8,6.22-1.27,1.2-1.94,3-2.9,4.56-1.14,1.8-2.74,1.86-3.87,0-6.27-10.5-16.47-12.5-27.39-12.28-8.39.17-15.69,3.73-21.9,9.31a88.85,88.85,0,0,0-8.3,8.49,39.7,39.7,0,0,0-3.8,6.32c-1,1.82-2.33,2.12-4,.78-.51-.41-.9-1-1.44-1.36-4.77-3.42-10.26-2.18-13,2.95-.38.72-.43,1.69-1,2.25a4.59,4.59,0,0,1-2.09.91,1.43,1.43,0,0,1-.93-.29c-2.95-1.75-6.12-1.41-9.16-.62-10.42,2.72-16.33,8.39-18,18.71a81.69,81.69,0,0,0-.53,9.37c0,.65.32,1.38.14,1.95a3.67,3.67,0,0,1-1.32,1.86c-.76.49-1.81-.2-2.24-1.34s-.7-2.2-1.1-3.29c-4.23-11.51-16.87-13.27-24.61-9.61-9.6,4.54-14.58,13.46-13.42,24.27.23,2.12.8,4.21,1.12,6.33s-.54,3-2.71,3.19c-.66,0-1.32,0-2,0-7.44-.17-15.62,5.75-17.38,14.33a48.12,48.12,0,0,0,.94,23,7.17,7.17,0,0,0,3.33,4.7,8.36,8.36,0,0,1,1.86,1.6,1.64,1.64,0,0,1-.65,2.49,13.55,13.55,0,0,1-2.87.57,14.52,14.52,0,0,0-6.91,2.51,44.08,44.08,0,0,0-14.61,16.54c-2.76,5.37-2.17,10.91,0,16.3a54.4,54.4,0,0,0,3.11,5.63c1.75,3.16,1.42,4.21-1.73,5.84a30.39,30.39,0,0,0-3.82,2.25,21.56,21.56,0,0,0-9,15.37A62.86,62.86,0,0,0,111.25,387.81Z"/><path class="cls-23" d="M118.93,281.87a16.21,16.21,0,0,1,4.24,2.48c4.19,3.35,7.06,7.77,9.63,12.39a2.07,2.07,0,0,1-1.65,3.29c-2.27.24-13.71-1-17-1.91a11.11,11.11,0,0,1-6.42-4.35,6.87,6.87,0,0,1-.06-8.28A9.37,9.37,0,0,1,118.93,281.87Zm-6.6,10.88a29.64,29.64,0,0,0,6.9,2.53,28.81,28.81,0,0,0,4.41.6s2.62.13,3.94.18c.13,0,1,.22,1.05,0s-.71-1-.82-1.08c-2.34-2.54-4.62-5.15-7.07-7.58a7,7,0,0,0-5.4-2.09,6.26,6.26,0,0,0-2.78.78C109.54,287.9,109.34,291,112.33,292.75Z"/><path class="cls-23" d="M454,243.66c-3.21.07-4.26-1.33-3.53-3.17a5.33,5.33,0,0,1,.44-.88c2-3.11,3-6.61,4.1-10.06a45,45,0,0,1,1.7-4.64,11.8,11.8,0,0,1,5.36-5.64c4.42-2.34,9.09-.48,10.75,4.24a9.24,9.24,0,0,1-.78,7.65C468,238.88,460.77,241.78,454,243.66ZM468,221.75a3.79,3.79,0,0,0-1.79-.83,4.27,4.27,0,0,0-1.92.62,9.24,9.24,0,0,0-5.11,5.72c-1.32,3.72-2.65,7.44-3.94,11.16a1,1,0,0,0,.15.83,1,1,0,0,0,.88.17,25.6,25.6,0,0,0,13-9.4A5.69,5.69,0,0,0,468,221.75Z"/><path class="cls-23" d="M253.86,187c-1.39,1.65-2.7,1.8-4.17.32a25.49,25.49,0,0,1-6.2-9.42,24.59,24.59,0,0,1-.86-4.32c.4-4.56,2.58-8.28,5.41-10.08,3.77-2.4,7.62-1.22,9.32,2.86a12,12,0,0,1,.7,2.36c1.15,6.13-.35,11.75-3.3,17.1A7.74,7.74,0,0,1,253.86,187Zm.31-19.08c-.65-2.39-2.63-2.8-4.62-1.24a8.53,8.53,0,0,0-2.87,9.73,16.82,16.82,0,0,0,4.85,7.33c2.27-2.19,2.66-5.11,3.08-8,.07-.49.08-1,.12-1.48l.31,0A47.41,47.41,0,0,0,254.16,167.95Z"/><path class="cls-23" d="M279.37,486a22.56,22.56,0,0,1,3.8-1q11.17-2.09,22.34-4.09a37,37,0,0,1,3.92-.47c2-.15,3.16.51,3.74,2.45a19.05,19.05,0,0,1-.2,12.59,10.53,10.53,0,0,1-2,3.35c-4,4.3-9.15,6.8-15,6.57a18.36,18.36,0,0,1-8.06-2.21c-6.08-3.36-9.08-7.35-10.73-13.31C276.66,488,277.5,486.71,279.37,486Zm25.38-1.86c-1.45.09-2.91.09-4.34.29q-6.6.94-13.18,2a17.23,17.23,0,0,0-3.29,1,1.28,1.28,0,0,0-.13,1.15c1.88,2,4.67,3.1,8.5,3.37,4,.34,7.56-.63,10.26-3.74C303.59,487,305,486,304.75,484.15ZM287.15,500a22.62,22.62,0,0,0,9.43,2.73c5.13.3,9.27-1.92,12.57-5.74,1.72-2,1.86-4.51,2.19-7.8-.15-1.15-.34-3.11-.66-5a1.24,1.24,0,0,0-2-.46,13.12,13.12,0,0,0-1.27,2.1c-4.81,10.53-17.31,10.76-24.83,5.1-.65-.49-1.23-1.06-1.87-1.57a.48.48,0,0,0-.43,0c-.12.08-.28.28-.25.38C281.24,494,283.08,497.8,287.15,500Z"/><path class="cls-23" d="M266.43,453.78c-5.87,7.13-13.29,12.33-20.89,17.36-2.3,1.52-2.64,1.58-4.7-.34-4.82-4.52-9.66-9-14.28-13.75a102.74,102.74,0,0,1-8.37-9.78c-4-5.26-6.28-11.2-6.14-17.3a24.45,24.45,0,0,1,.36-2.6c2-7.09,6.39-10.9,14.44-8.76a21.09,21.09,0,0,1,7.06,3.5,37.78,37.78,0,0,1,8.15,8.6c.68.94,1.26,1.95,2,2.82a1.3,1.3,0,0,0,1.26.17c1.16-.92,2.23-2,3.32-3A31.91,31.91,0,0,1,261,423.64a16.13,16.13,0,0,1,6.85-.6c4.86.58,7.67,3.54,8.13,8.46a19,19,0,0,1-1.36,8.24A47.57,47.57,0,0,1,266.43,453.78Zm6.15-22.31c-.07-3-2-4.77-5-5.18a13.9,13.9,0,0,0-6.34.62,32.61,32.61,0,0,0-11.95,6.8c-1.22,1.1-2.39,2.27-3.65,3.34-1.93,1.63-2.63,1.54-4-.43-1-1.5-1.93-3.07-3-4.55a30.22,30.22,0,0,0-8-8,14.68,14.68,0,0,0-7.42-2.46c-3.84-.22-5.85,1-7.29,4.57a10.59,10.59,0,0,0-1,3.71,15.79,15.79,0,0,0,.91,5.5,32.27,32.27,0,0,0,3.4,7.64A100.07,100.07,0,0,0,241,466.62c2.25,1.75,2.32,1.72,4.71.1,7-4.73,13.63-9.86,18.91-16.55a39.79,39.79,0,0,0,7-12.41A19.44,19.44,0,0,0,272.57,431.47Z"/><path class="cls-23" d="M370.4,427.82a9.64,9.64,0,0,1,8.87,7.41,16.88,16.88,0,0,1,.45,4.41,25,25,0,0,1-5.33,14.67,74,74,0,0,1-20.66,19c-2.93,1.82-6.18,3.14-9.26,4.71-1.76.9-3.2.37-4.46-.94-.57-.59-1.05-1.27-1.58-1.9-7.3-8.62-12.91-18.36-18.45-28.13a22.83,22.83,0,0,1-2.05-5,16.79,16.79,0,0,1,.38-11.18c2.32-5.67,7.82-8,13.35-5.54a33.71,33.71,0,0,1,5.11,3,39.79,39.79,0,0,1,9.37,8.77,1.46,1.46,0,0,0,2.47.24A48.08,48.08,0,0,1,363.13,429,16,16,0,0,1,370.4,427.82Zm-21.26,13.35c-1.61,1.16-2.55,1.12-3.93-.22-.83-.81-1.56-1.71-2.3-2.59a41.88,41.88,0,0,0-9.76-8.32c-.56-.35-1.12-.71-1.7-1-5.06-2.65-9.62-.57-11,5-.15.64-.2,1.3-.44,2.86a49.73,49.73,0,0,0,.94,4.94,18.67,18.67,0,0,0,1.77,4.08,241.76,241.76,0,0,0,16.41,25.92c.2.27.4.53.6.79,2.57,3.17,2.57,3.17,6.05,1.41,1-.52,2-1.13,3.07-1.6,9.68-4.31,16.74-11.59,22.86-20a30.6,30.6,0,0,0,4.78-9.71,12,12,0,0,0,.19-5.86c-.79-3.95-3.27-6.16-7.23-6.06a18,18,0,0,0-5.75,1.2,40.51,40.51,0,0,0-12.32,7.24C350.67,439.91,349.94,440.59,349.14,441.17Z"/><path class="cls-11" d="M342.93,456.4a5.28,5.28,0,0,0,3,2.59c1.12.39,2.27-.54,2.14-2.14a4.47,4.47,0,0,0-2.33-3.13,2,2,0,0,0-2.39.32A2,2,0,0,0,342.93,456.4Z"/><path class="cls-11" d="M337.92,451.32a1.81,1.81,0,0,0,2.45-.95,12.74,12.74,0,0,0,.87-3.11,1.47,1.47,0,0,0-1.13-1.66,1.67,1.67,0,0,0-2,.55A16.94,16.94,0,0,0,337,448.5C336.85,450.24,337.19,451,337.92,451.32Z"/><path class="cls-11" d="M350.14,452.1c2.63,0,3.83-1.74,2.83-4.13a9.28,9.28,0,0,0-5.26-5.33,2.14,2.14,0,0,0-2.75,1.17C343.33,447.18,346.43,452.13,350.14,452.1Z"/><path class="cls-11" d="M358.43,452c-.57,1.08-1.12,2.18-1.71,3.25a11.79,11.79,0,0,1-7.74,5.88c-4.43,1.18-8.29-.22-12-2.33-.91-.51-1.72-1.2-2.9-2a9.32,9.32,0,0,0,3.41,5.54A14.62,14.62,0,0,0,357,460.69a7,7,0,0,0,2.15-5c0-1.22-.06-2.45-.09-3.67Z"/><path class="cls-23" d="M362,444.86a4.53,4.53,0,0,0-2,.29c-1.39.4-2.09-.34-2.66-1.39a5.44,5.44,0,0,1-.33-.94c.48-1,1-1.83,1.33-2.75a1.66,1.66,0,0,0-.52-2,1.6,1.6,0,0,0-2.06,0c-.76.59-1.43,1.29-2.1,1.91-.49-.2-.85-.31-1.17-.48-1.48-.81-1.48-.82-1.23-2.52.05-.36.25-.78.13-1.07a2,2,0,0,0-.89-1.05,1.48,1.48,0,0,0-1.33.18,23.55,23.55,0,0,0-1.78,2.72c-1.24,0-2.36,0-3.46,0a12.93,12.93,0,0,0-12.08,10.29,17.84,17.84,0,0,0,2,12.89,12,12,0,0,0,3.29,3.44,13.53,13.53,0,0,0,9.8,2.58c1.05-.11,2,0,2.42,1.13a1.56,1.56,0,0,0,.46.57,1.34,1.34,0,0,0,2.12-.54c1.08-2.58,1.08-2.58,3.63-1.58l.35.12a1.36,1.36,0,0,0,1.85-1.22,6.24,6.24,0,0,0-.15-1.09,1.19,1.19,0,0,1,1.25-1.45c.61,0,1.23.13,1.84.06a1.3,1.3,0,0,0,1-1.93,4.61,4.61,0,0,1-.56-3.45,18.11,18.11,0,0,0-.13-5.15c-.31-2-1.09-3.9,1.3-5.14A1.36,1.36,0,0,0,362,444.86Zm-15.13-2.24c.24.05.49.08.72.16a8,8,0,0,1,5.29,5.3,2.88,2.88,0,0,1-3.42,3.82,8.14,8.14,0,0,1-5.64-5.82A3.21,3.21,0,0,1,346.87,442.62Zm-3.94,11.62a2.55,2.55,0,0,1,1.54-.77A4.36,4.36,0,0,1,348,455a1.68,1.68,0,0,1-.58,2.68,3.85,3.85,0,0,1-4.51-1.37A1.64,1.64,0,0,1,342.93,454.24Zm-4.37-8.53a1.65,1.65,0,0,1,2.56,1,17,17,0,0,1-.81,4.93,1.56,1.56,0,0,1-2.7.26A4.81,4.81,0,0,1,338.56,445.71Zm18.42,15a14.62,14.62,0,0,1-19.57,1.63,9.32,9.32,0,0,1-3.41-5.54c1.19.84,2,1.53,2.9,2,3.74,2.11,7.61,3.51,12,2.33a11.79,11.79,0,0,0,7.74-5.88c.59-1.07,1.14-2.16,1.71-3.25H359c0,1.22.11,2.45.09,3.67A7,7,0,0,1,357,460.69Z"/><path class="cls-11" d="M237.93,449.4a5.28,5.28,0,0,0,3,2.59c1.12.39,2.27-.54,2.14-2.14a4.47,4.47,0,0,0-2.33-3.13,2,2,0,0,0-2.39.32A2,2,0,0,0,237.93,449.4Z"/><path class="cls-11" d="M232.92,444.32a1.81,1.81,0,0,0,2.45-.95,12.74,12.74,0,0,0,.87-3.11,1.47,1.47,0,0,0-1.13-1.66,1.67,1.67,0,0,0-2,.55A16.94,16.94,0,0,0,232,441.5C231.85,443.24,232.19,444,232.92,444.32Z"/><path class="cls-11" d="M245.14,445.1c2.63,0,3.83-1.74,2.83-4.13a9.28,9.28,0,0,0-5.26-5.33,2.14,2.14,0,0,0-2.75,1.17C238.33,440.18,241.43,445.13,245.14,445.1Z"/><path class="cls-11" d="M253.43,445c-.57,1.08-1.12,2.18-1.71,3.25a11.79,11.79,0,0,1-7.74,5.88c-4.43,1.18-8.29-.22-12-2.33-.91-.51-1.72-1.2-2.9-2a9.32,9.32,0,0,0,3.41,5.54A14.62,14.62,0,0,0,252,453.69a7,7,0,0,0,2.15-5c0-1.22-.06-2.45-.09-3.67Z"/><path class="cls-23" d="M257,437.86a4.53,4.53,0,0,0-2,.29c-1.39.4-2.09-.34-2.66-1.39a5.44,5.44,0,0,1-.33-.94c.48-1,1-1.83,1.33-2.75a1.66,1.66,0,0,0-.52-2,1.6,1.6,0,0,0-2.06,0c-.76.59-1.43,1.29-2.1,1.91-.49-.2-.85-.31-1.17-.48-1.48-.81-1.48-.82-1.23-2.52.05-.36.25-.78.13-1.07a2,2,0,0,0-.89-1.05,1.48,1.48,0,0,0-1.33.18,23.55,23.55,0,0,0-1.78,2.72c-1.24,0-2.36,0-3.46,0a12.93,12.93,0,0,0-12.08,10.29,17.84,17.84,0,0,0,2,12.89,12,12,0,0,0,3.29,3.44,13.53,13.53,0,0,0,9.8,2.58c1.05-.11,2,0,2.42,1.13a1.56,1.56,0,0,0,.46.57,1.34,1.34,0,0,0,2.12-.54c1.08-2.58,1.08-2.58,3.63-1.58l.35.12a1.36,1.36,0,0,0,1.85-1.22,6.24,6.24,0,0,0-.15-1.09,1.19,1.19,0,0,1,1.25-1.45c.61,0,1.23.13,1.84.06a1.3,1.3,0,0,0,1-1.93,4.61,4.61,0,0,1-.56-3.45,18.11,18.11,0,0,0-.13-5.15c-.31-2-1.09-3.9,1.3-5.14A1.36,1.36,0,0,0,257,437.86Zm-15.13-2.24c.24.05.49.08.72.16a8,8,0,0,1,5.29,5.3,2.88,2.88,0,0,1-3.42,3.82,8.14,8.14,0,0,1-5.64-5.82A3.21,3.21,0,0,1,241.87,435.62Zm-3.94,11.62a2.55,2.55,0,0,1,1.54-.77A4.36,4.36,0,0,1,243,448a1.68,1.68,0,0,1-.58,2.68,3.85,3.85,0,0,1-4.51-1.37A1.64,1.64,0,0,1,237.93,447.24Zm-4.37-8.53a1.65,1.65,0,0,1,2.56,1,17,17,0,0,1-.81,4.93,1.56,1.56,0,0,1-2.7.26A4.81,4.81,0,0,1,233.56,438.71Zm18.42,15a14.62,14.62,0,0,1-19.57,1.63,9.32,9.32,0,0,1-3.41-5.54c1.19.84,2,1.53,2.9,2,3.74,2.11,7.61,3.51,12,2.33a11.79,11.79,0,0,0,7.74-5.88c.59-1.07,1.14-2.16,1.71-3.25H254c0,1.22.11,2.45.09,3.67A7,7,0,0,1,252,453.69Z"/><path class="cls-24" d="M369.49,430.82c4-.1,6.44,2.11,7.23,6.06a12,12,0,0,1-.19,5.86,30.6,30.6,0,0,1-4.78,9.71c-6.12,8.37-13.18,15.65-22.86,20-1.05.47-2,1.08-3.07,1.6-3.49,1.76-3.49,1.76-6.05-1.41-.21-.26-.41-.52-.6-.79a241.76,241.76,0,0,1-16.41-25.92,18.67,18.67,0,0,1-1.77-4.08,49.73,49.73,0,0,1-.94-4.94c.24-1.56.29-2.22.44-2.86,1.34-5.56,5.9-7.64,11-5,.58.3,1.15.66,1.7,1a41.88,41.88,0,0,1,9.76,8.32c.74.88,1.48,1.79,2.3,2.59,1.38,1.34,2.32,1.39,3.93.22.8-.58,1.53-1.26,2.28-1.9A40.51,40.51,0,0,1,363.74,432,18,18,0,0,1,369.49,430.82Z"/><path class="cls-24" d="M264.61,450.17c-5.29,6.69-11.93,11.82-18.91,16.55-2.39,1.62-2.45,1.65-4.71-.1A100.07,100.07,0,0,1,219.35,443a32.27,32.27,0,0,1-3.4-7.64,15.79,15.79,0,0,1-.91-5.5,10.59,10.59,0,0,1,1-3.71c1.44-3.58,3.45-4.79,7.29-4.57a14.68,14.68,0,0,1,7.42,2.46,30.22,30.22,0,0,1,8,8c1,1.48,2,3.05,3,4.55,1.33,2,2,2.06,4,.43,1.26-1.06,2.43-2.23,3.65-3.34a32.61,32.61,0,0,1,11.95-6.8,13.9,13.9,0,0,1,6.34-.62c3,.42,4.92,2.2,5,5.18a19.44,19.44,0,0,1-.92,6.29A39.79,39.79,0,0,1,264.61,450.17Z"/></g></g></svg>