<svg xmlns="http://www.w3.org/2000/svg" xmlns:xlink="http://www.w3.org/1999/xlink" viewBox="0 0 1200 628"><defs><style>.cls-1{fill:none;}.cls-2{isolation:isolate;}.cls-3{fill:url(#New_Gradient_Swatch_2);}.cls-4{clip-path:url(#clip-path);}.cls-5{fill:#244999;}.cls-6{font-size:39.98px;fill:#edc96e;}.cls-12,.cls-6{font-family:Lato-Black, Lato;}.cls-7{letter-spacing:-0.02em;}.cls-8{letter-spacing:-0.03em;}.cls-9{fill:url(#linear-gradient);}.cls-10{fill:url(#linear-gradient-2);}.cls-11,.cls-15{fill:#fff;}.cls-12{font-size:76.65px;}.cls-12,.cls-16{fill:#5f91ff;}.cls-13{letter-spacing:-0.07em;}.cls-14{letter-spacing:0em;}.cls-15{stroke:#000;stroke-linecap:round;stroke-linejoin:round;stroke-width:3.42px;stroke-dasharray:9.11 11.39 0 0;}.cls-17{fill:#ffff45;}.cls-18{fill:#aaff17;}.cls-19{fill:#70ffd9;}.cls-20{fill:#a74635;}.cls-21{fill:#ff526d;}.cls-22,.cls-27{fill:#ff7c7c;}.cls-23{fill:#dff;}.cls-24{fill:#fffffe;opacity:0.7;}.cls-25{fill:#7f6a9f;opacity:0.3;mix-blend-mode:multiply;}.cls-26,.cls-27{fill-rule:evenodd;}</style><linearGradient id="New_Gradient_Swatch_2" x1="149.86" y1="588.73" x2="1056.35" y2="35.48" gradientUnits="userSpaceOnUse"><stop offset="0" stop-color="#c99b3b"/><stop offset="0.52" stop-color="#ffffab"/><stop offset="1" stop-color="#cea040"/></linearGradient><clipPath id="clip-path"><rect class="cls-1" x="459" width="622" height="220"/></clipPath><linearGradient id="linear-gradient" x1="642.04" y1="-16.06" x2="695.13" y2="248.22" gradientUnits="userSpaceOnUse"><stop offset="0" stop-color="#663800"/><stop offset="0.4" stop-color="#ffd373"/><stop offset="1" stop-color="#cea040"/></linearGradient><linearGradient id="linear-gradient-2" x1="599.9" y1="-7.6" x2="652.99" y2="256.68" xlink:href="#linear-gradient"/></defs><title>12_vers_ru</title><g class="cls-2"><g id="Layer_1" data-name="Layer 1"><rect class="cls-3" y="-1" width="1200" height="630"/><g class="cls-4"><ellipse class="cls-5" cx="770" cy="15.71" rx="300" ry="204.29"/></g><text class="cls-6" transform="translate(702.28 104.76)">#KULDSÜ<tspan class="cls-7" x="184.87" y="0">D</tspan><tspan class="cls-8" x="214.29" y="0">A</tspan></text><path class="cls-9" d="M671.58,54.31c-8.43-3.59-19.26.49-28.45,9.54a87.22,87.22,0,0,1,6.25,12.58c8.52,21.26,7.51,42.18-1.38,52.3,10.6-2.66,22-13,29-27.69C686.78,80.66,684.34,59.74,671.58,54.31Z"/><path class="cls-10" d="M636.26,128.1c-12.76-5.43-15.2-26.35-5.45-46.73a62.63,62.63,0,0,1,12.32-17.52c-11.32-18.78-28-29.57-40.8-25-15.46,5.51-19.47,31.26-8.94,57.52S625,139.46,640.44,134a18.1,18.1,0,0,0,7.57-5.22A18.28,18.28,0,0,1,636.26,128.1Z"/><path class="cls-11" d="M649.38,76.43a87.22,87.22,0,0,0-6.25-12.58,62.63,62.63,0,0,0-12.32,17.52c-9.75,20.38-7.31,41.3,5.45,46.73a18.28,18.28,0,0,0,11.74.63C656.89,118.6,657.9,97.68,649.38,76.43Z"/><text class="cls-12" transform="translate(650.55 407.34)">ЗН<tspan class="cls-13" x="104.56" y="0">А</tspan><tspan class="cls-14" x="153.46" y="0">ТНЫЙ </tspan><tspan x="0" y="91.99">ШУТНИК</tspan></text><path class="cls-15" d="M491.76,485.22c2.83.22,5.5.44,8,.8l1.15.16a231.3,231.3,0,0,0,23.32,2.52c2.62.11,5,.16,7.16.16h0a102.5,102.5,0,0,0,12.06-.65A45.71,45.71,0,0,0,558.29,484c11.6-5.61,17.34-17.53,14.61-30.38a43.29,43.29,0,0,0-1.41-5.12c6-8.43,7.1-19.28,2.52-29.4l-.2-.42A29.42,29.42,0,0,0,576.54,407,33.13,33.13,0,0,0,572,388.88a25.4,25.4,0,0,0,3.37-12.1,39.83,39.83,0,0,0-1.28-10.7,29,29,0,0,0-10.42-16,31.91,31.91,0,0,0-3.14-13.15,20.66,20.66,0,0,0-12.83-11.4,32.74,32.74,0,0,0-9.4-1.53,24.4,24.4,0,0,0-8,1.33c-.27.09-.8.23-1.32.37s-1.1.28-1.73.47l-.46.06-1.08.13-.19,0-1.21.11-.2,0-1.46.1h-.12l-1.53.08h-.08l-1.71.06h-.11c-1.24,0-2.53.05-3.85.05h-.42c-16.35,0-38-2.08-52.34-3.45-6.12-.59-10.54-1-13-1.12l-7.69-.34c-6.63-.3-13.26-.59-19.89-.85-2.7-.11-5.41-.17-8.11-.24-3.24-.08-6.3-.15-9.38-.29-4.84-.23-9.24-.34-13.45-.34-4,0-7.78.1-11.47.3l-.12-2.26q.48-.4,1-.84c7.76-7.07,7.46-14.26,6-18.9q0-.72-.15-1.4c.41-.77.81-1.57,1.21-2.41a49.56,49.56,0,0,0,2.9-7.63c2.07-7.24-.34-14.33-6.28-18.5a16.43,16.43,0,0,0-9.46-3,16.72,16.72,0,0,0-10.73,4,16.26,16.26,0,0,0-9.75-3.31,15.85,15.85,0,0,0-8.2,2.3c-2.59,1.56-8.44,6.28-6.91,16.24l0,.12A39.83,39.83,0,0,0,342.57,296a16.2,16.2,0,0,0-1,4.5l-1-.86-.92-.71-.1-.08c-.56-.43-1.13-.85-1.71-1.26l-1-.72q-.9-.61-1.81-1.17l-1-.63c-.65-.38-1.31-.75-2-1.12l-.17-.09-.75-.4c-.75-.38-1.52-.75-2.33-1.11l-.68-.31a55.44,55.44,0,0,0-22.2-4.5q-1.33,0-2.69.06a58.14,58.14,0,0,0-12.77,1.82c-4.86-10.12-11.48-17.76-20.1-23.22a78.87,78.87,0,0,0-28.65-11l-.46-.08c-1.23-.21-2.46-.4-3.66-.55l-.53-.06c-1.34-.17-2.57-.29-3.75-.39-2-.16-4-.25-6-.25A88.2,88.2,0,0,0,205,257c-12.49,3.22-22.65,8.55-31.06,16.29a53.09,53.09,0,0,0-10.73,13.43c-.95,0-1.91.06-2.87.16a87.54,87.54,0,0,0-37,12,48.31,48.31,0,0,0-14.91,13.56q-1,1.4-1.93,2.79s.11-1.59.13-2a32.76,32.76,0,0,0,2.4-2.42c4.9-5.5,6.49-11.84,4.85-17.8a44.37,44.37,0,0,0,5.32-15.54,23,23,0,0,0,0-7.3A15.54,15.54,0,0,0,104,257a15.37,15.37,0,0,0-8.2,2.38,15,15,0,0,0-9.52-3.5A16,16,0,0,0,75,260.71a16.63,16.63,0,0,0-5.16,12.68,33.38,33.38,0,0,0,.54,5.23c.46,2.34.91,4.66,1.39,7a15.23,15.23,0,0,0-2.87,4,16.32,16.32,0,0,0-.68,12.54A19.56,19.56,0,0,0,73,309.94c.91.88,1.84,1.66,2.73,2.37h0C74,322.73,73.4,333,72.95,343.47a307,307,0,0,0,.64,37.74c.34,4.19.82,8.47,1.42,12.76a56.51,56.51,0,0,0-6.9,11.82,44.27,44.27,0,0,0-3.79,16.54,53.44,53.44,0,0,0,2.36,16.88l0,.11q.37,1.19.79,2.35l.05.14c.61,1.66,1.31,3.31,2.07,4.9l.08.16c.33.68.68,1.36,1,2l.29.54q.45.81.93,1.63l.38.64c.31.51.63,1,1,1.51l.38.59c.45.68.92,1.35,1.4,2a36.74,36.74,0,0,0,16.35,12.77,110.35,110.35,0,0,0,36.21,8.25c4.63.22,9.39.53,14,.82,3.83.25,7.67.5,11.5.7,11.6.62,23.08,1.18,34.13,1.66l1.84.08c12.46.54,25.35,1.11,38.08,1.49,15.91.49,28.76.76,40.44.86,7.89.07,15.63.13,23.53.13,13.77,0,25.09-.2,35.63-.61,2.33-.09,4.66-.17,7-.25,4.78-.16,9.72-.33,14.65-.62A143.7,143.7,0,0,0,378,475.94c3,.21,6.08.52,8.68.8q5.52.59,11,1.21l8.71,1,5.38.61c4.59.54,9.34,1.09,14.19,1.41,7.16.47,14.39.82,21.38,1.15,4.25.21,8.5.41,12.75.64,2.18.12,4.41.32,6.76.52l4,.34,7.13.55q5.94.46,11.89.94Z"/><path class="cls-16" d="M471.36,466.39c5.34.41,10.67.87,16,1.43,6.21.64,12.4,1.39,18.6,2.14,6.45.78,12.88,1.72,19.39,1.9,5.75.16,11.45-.37,17.17-.73a21.17,21.17,0,0,0,10.38-3.79c3.81-2.53,5.06-6.22,3.83-10.84a18,18,0,0,0-5.21-8.34,6.39,6.39,0,0,0-4.41-2c-8.78-.48-17.55-1.14-26.33-1.56-9.29-.45-18.59-.72-27.89-1.07-13-.49-26-1-39-1.44-13.38-.43-26.76-.76-40.13-1.14-1,0-2-.18-3.05-.21-6.75-.19-13.51-.38-20.26-.51-2,0-2.24.26-2.24,2.29,0,.68.05,1.35.07,2a18.67,18.67,0,0,1-5.5,13.78c-.53.55-1.11,1.06-1.78,1.7,3.74.11,7,.28,10.33.29,7.8,0,15.47,1.44,23.2,2.3,7,.77,14,1.57,20.94,1.72C447.47,464.6,459.42,465.48,471.36,466.39Z"/><path class="cls-17" d="M541.4,357c-4.82.47-9.64,1-14.48,1.22q-10.88.52-21.79.66-41.3.51-82.6.9c-15.93.15-31.87.21-47.81.31-1.15,0-2.3,0-3.44.08s-1.61.58-1.45,1.85c.3,2.41.75,4.8,1.12,7.2a7.64,7.64,0,0,0,2.64,4.72,34.3,34.3,0,0,1,6.37,6.94c1.75,2.82,3.8,3.34,6.68,3.33,26.52-.09,53-.05,87.08-.05,8.14.2,23.82.52,39.49,1q16.81.52,33.62,1.41a9.33,9.33,0,0,0,7-2.56c2.1-1.86,3.95-3.93,4.29-7,.6-5.27-.66-10-4.4-13.6a25.25,25.25,0,0,0-8.65-5.83A7.78,7.78,0,0,0,541.4,357Z"/><path class="cls-18" d="M551.86,390.76a7.6,7.6,0,0,0-4.63-1.64c-4.71-.1-9.42-.43-14.13-.62-7.39-.29-14.78-.56-22.16-.78-10.83-.32-21.66-.79-32.49-.83-30.72-.13-61.45-.08-92.17-.09a17.65,17.65,0,0,0-2.09.23c.83,3.64,1.87,7,2.32,10.45s.31,7,.45,11c4.19.27,8.11.55,12,.76,3.18.17,6.37.19,9.55.35,7.89.4,15.78.88,23.67,1.26,8.79.42,17.57.73,26.36,1.12q9,.4,18,.86c8,.41,16,.9,24.05,1.26,9.17.42,18.34.74,27.51,1.12,1.27.05,2.54.25,3.81.31,6.75.33,13.5.6,20.24,1a5.12,5.12,0,0,0,3.85-1.39,12,12,0,0,0,4.05-11.19C559.32,398.13,556.05,394.08,551.86,390.76Z"/><path class="cls-19" d="M551.25,419.09c-8.91-.36-17.82-.9-26.73-1.33-11.58-.56-23.17-1.07-34.75-1.61l-35.14-1.66-32.84-1.57-33.61-1.6c-2-.09-2.19,0-2.78,2a31.79,31.79,0,0,1-6.26,11.51,6.82,6.82,0,0,0-.62,1.18,21.65,21.65,0,0,1,8.13,10,1.92,1.92,0,0,0,1.79,1.27c1.91.15,3.81.35,5.72.4,14.27.42,28.54.77,42.81,1.22,12.23.39,24.46.91,36.68,1.33,11.34.39,22.68.69,34,1.1,5.48.2,11,.52,16.42.84,7.76.46,15.52,1,23.28,1.45a17.36,17.36,0,0,0,1.91.08,11.68,11.68,0,0,0,10.06-16.37,33.75,33.75,0,0,0-3.19-5.51A5.86,5.86,0,0,0,551.25,419.09Z"/><path class="cls-20" d="M246.82,393.33a22.88,22.88,0,0,0-6.72-1.93,107,107,0,0,0-21.38-.72,61.36,61.36,0,0,0-13.48,2.2,14.67,14.67,0,0,0-3,1.06,2,2,0,0,0-.79,1.39,6.59,6.59,0,0,0,.29,2.07,52.42,52.42,0,0,0,4.12,11.18c.29.58.44,1.36,1.45,1.46a15.61,15.61,0,0,1,7.08-5.42,25,25,0,0,1,10.32-1.77c6.48.29,12.79,1.44,18,5.8,2.19-2.78,5.1-10.59,5.17-13.69A1.65,1.65,0,0,0,246.82,393.33Z"/><path class="cls-21" d="M374,357.38q28.49-.28,57-.59c26-.29,52-.62,78-.86,9.43-.09,18.86-.4,28.26-1.18a45.68,45.68,0,0,0,4.93-.65,2.09,2.09,0,0,0,1.45-1,22.47,22.47,0,0,0,1.17-5.49c.12-3.81-1.57-5.74-5.16-6.16a11.74,11.74,0,0,0-3.77.32c-2,.43-3.93,1.19-5.93,1.56a28.15,28.15,0,0,1-6,.58c-5.6-.2-11.2-.63-16.79-.9-8.15-.39-16.29-.71-24.44-1.06-1.4-.06-2.8-.07-4.2-.16-6.23-.41-12.45-.94-18.69-1.23-9.55-.44-19.1-.73-28.66-1.07-1.66-.06-3.31-.09-5-.15-11.59-.42-23.18-.93-34.77-1.22-7-.18-14,0-21,0a20.56,20.56,0,0,0-2.49.3c-.51,4.84.39,14.66,1.75,18.89C371,357.31,372.51,357.39,374,357.38Z"/><path class="cls-22" d="M236.82,408.33a44.64,44.64,0,0,0-15.29-1.5,21.71,21.71,0,0,0-11.65,4.4,12.66,12.66,0,0,0-1.37,1.35,2.28,2.28,0,0,0,.07.54,17.38,17.38,0,0,0,22.18,7.94c4.52-1.94,8.9-6.18,10.53-10.19C240.2,409.33,238.53,408.81,236.82,408.33Z"/><path class="cls-17" d="M355.55,360.49a1.71,1.71,0,0,0-1.69,1.34c-.23.74-.48,1.47-.7,2.16l11.93,3.39a14.48,14.48,0,0,0,0-2c-.22-1.58-.52-3.15-.84-5C361.06,359.95,358.3,360.45,355.55,360.49Z"/><path class="cls-21" d="M353.93,354.23a9.06,9.06,0,0,0,0,1.22c.12,1.5.49,2,1.84,2,2,.06,4.08,0,6.12,0,1.48-.06,1.83-.46,1.75-2q-.44-7.7-1-15.39c-.11-1.49-.45-1.85-2-1.89-2.66-.07-5.32,0-8.34,0a7.94,7.94,0,0,0,0,1.66A42.54,42.54,0,0,1,353.93,354.23Z"/><path class="cls-23" d="M378,431.55c-2.48-2.92-2.6-2.89-6.13-1.15a51.4,51.4,0,0,1-5.32,1.67c-1.09.32-5.58.53-5.86,0-.14-.24,4.23-2.49,8.7-5.45a26.83,26.83,0,0,0,12.24-18.33c1.34-7.8.47-15.39-3.59-22.3a25.36,25.36,0,0,0-4-5.42,13.86,13.86,0,0,0,.27,1.58c1.31,4,2.65,7.9,3.95,11.86a20.14,20.14,0,0,1,.92,3.49,2.18,2.18,0,0,1-3.76,1.74,8.67,8.67,0,0,1-1.47-2.34c-1-2.35-1.95-4.72-2.71-7.15-1.39-4.5-2.64-9-3.93-13.57-.37-1.3-.66-2.6-1.87-3.4-6-4-18.13-4.87-26.78-3.75-.05-1.43,7.23-1.79,9.41-7.83a27.48,27.48,0,0,0,.7-12.45,55.49,55.49,0,0,0-14.68-30.16,36.33,36.33,0,0,0-18.46-10.9,45.53,45.53,0,0,0-19.71-.23c-5.22,1-10.93,2.9-14.44,7.15-1.18,1.42-3.74,5.66-4.75,6.39a8,8,0,0,1-.11-2.34,28.36,28.36,0,0,1,1.94-4.83,5.47,5.47,0,0,0,.43-4.62,82.82,82.82,0,0,0-5.84-14.54,35.11,35.11,0,0,0-12.79-13.66,62.6,62.6,0,0,0-26.8-8.82,72.63,72.63,0,0,0-26.16,2.42,56.3,56.3,0,0,0-22,11,34.87,34.87,0,0,0-11.86,18.9c-.52,2.08-.82,4.23-1.15,6.37-.2,1.32-1,5.16-.66,6.2-1.26-.26-1.73-3.61-1.75-4.5-.05-1.89,0-3.79.06-5.68,0-1.62-.16-1.83-1.53-2.33a14.43,14.43,0,0,0-6.81-.6,75.18,75.18,0,0,0-26,7.72,41.58,41.58,0,0,0-16,14.67A109.6,109.6,0,0,0,102.19,379a42.19,42.19,0,0,0,.09,8.8c1.65,1.13,5.29,1.72,7.46,3.7-.55.14-3.81.22-4.28.23a11.14,11.14,0,0,0-6.66,2.75,46.46,46.46,0,0,0-13.23,16.08,28,28,0,0,0-3.16,14.05,37.36,37.36,0,0,0,7.36,20.55c2.34,3.17,5.21,5.69,8.88,6.73,17.54,10.56,80.44,12.08,91.65,12.56,13.88.59,27.77,1.21,41.66,1.59,15.3.42,30.6.73,45.89.79,14.28.06,28.56-.25,42.84-.41,31-.11,43.91-4.79,49.45-6.34a21.09,21.09,0,0,0,3.94-1.54c4.62-2.38,7.91-6,8.59-11.61A19.31,19.31,0,0,0,378,431.55ZM249.77,394.18a48,48,0,0,1-11.11,24.67,20.61,20.61,0,0,1-12.74,6.85,16,16,0,0,1-7.62-.83,20.85,20.85,0,0,1-10.75-7.58c-4.73-6.49-7.62-13.67-7.78-21.84a3.38,3.38,0,0,1,1.54-3.28,18.59,18.59,0,0,1,4.72-2.26,78.57,78.57,0,0,1,10-2c3.48-.44,7-.47,10.29-.67,5.95.49,11.73.27,17.33,1.85a13.77,13.77,0,0,1,5.08,2.32A2.69,2.69,0,0,1,249.77,394.18Z"/><path class="cls-24" d="M138,385c5-2,7-9,6-16,14.52,28.48,72.63-1.62,63-29,16,2,37,1,46-13,11-17,8-42-7-57v-.42a74.54,74.54,0,0,0-13.85-2.43,71.74,71.74,0,0,0-23.89,2.4c-9.42,2.43-18.1,6.45-25.5,13.26a37.62,37.62,0,0,0-10.59,15.66c-.3.88-.7,1.71-1.14,2.77a18.72,18.72,0,0,0-9.42-1.47A74.16,74.16,0,0,0,130,309.92a35.76,35.76,0,0,0-11,9.93c-8,11.36-14.54,23.54-17.71,37.49-1.79,7.9-3.38,15.85-3.52,24,0,1.72,0,3.44,0,5.16C109.39,393.89,126.19,388.38,138,385Z"/><path class="cls-25" d="M557.26,448.46c-.45-.79-.92-1.58-1.47-2.53.72-.58,1.32-1,1.9-1.52,6.13-5,7.82-12.51,4.48-19.91-.61-1.34-1.4-2.57-2.12-3.85-.45-.79-.92-1.57-1.41-2.42.63-.88,1.13-1.65,1.71-2.35a15,15,0,0,0,3.21-9.33,19.82,19.82,0,0,0-5.14-14.39c-1-1.16-2.05-2.32-3.15-3.57,1.14-1.14,2.17-2.15,3.17-3.17a13,13,0,0,0,4-9,27.05,27.05,0,0,0-.88-7.18,16,16,0,0,0-7.31-10c-1.61-1-3.44-1.67-4.8-3.07,2.13-4.86,1.39-9.4-.66-13.84A7.67,7.67,0,0,0,544,338c-3.09-.93-6.22-1.47-9.41-.37-1.45.5-3,.78-4.43,1.26a98.27,98.27,0,0,1-14.84.92c.61,1.09,1.17,2.17,1.7,3.23,3,5,4,14-3,17,6,1,7,7,9,11,2,7-3,14-10,15,6,8,12,16,9,26-1,3-9,2-7,6,3,5,7,11,4,15-5,8-6,18-9,19-40,11-85.5,2-124.12-3.12-2-1,.38-15.79-8.62-21.79-4-3,.75-7.08.75-7.08,11-10,8.52-29.24.52-39.24-9-9-16.52-11.76-29.52-14.76,5.25-7.25,1.67-31,1.21-32.17-.3-.75-.63-1.48-1-2.2a69.36,69.36,0,0,0-10.81-16.18,44.42,44.42,0,0,0-17.89-12.36A28.52,28.52,0,0,1,326,313c7,21,8,50-15,61,25.33-10.21,77.18,37.32,20,50,7,2,12,9,10,15-2,7-9,13-16,14-42,9-80,6-121,2s-79-10-120-20c-1.81-.45-3.63-1-5.45-1.58a43.24,43.24,0,0,0,7.06,14.76,23.86,23.86,0,0,0,10.64,8.32,98.15,98.15,0,0,0,32,7.33c8.53.4,17,1.07,25.58,1.53q17,.91,34,1.65c13.25.58,26.5,1.16,39.75,1.57s26.77.74,40.16.86c19.51.17,39,.3,58.53-.47,7.13-.28,14.27-.44,21.4-.86a132,132,0,0,0,27.47-4.86,10.26,10.26,0,0,1,3.39-.3c3.18.22,6.35.53,9.52.87,6.59.7,13.18,1.46,19.77,2.17,6.34.68,12.67,1.55,19,2,11.32.74,22.67,1.17,34,1.79,3.69.2,7.37.59,11.05.88,6.36.5,12.71,1,19.06,1.5,3.56.29,7.13.53,10.66,1a232.73,232.73,0,0,0,23.18,2.57,108.05,108.05,0,0,0,17.16-.41,33.21,33.21,0,0,0,10.68-3c6.16-3,9-9,7.55-16A27.1,27.1,0,0,0,557.26,448.46Z"/><path class="cls-26" d="M265.4,400.55a15.86,15.86,0,0,1,5.21-14.11c4.68-3.95,13.67-6.43,20.93-2.29a26.8,26.8,0,0,1,7.09,5.34c2.75,3.11,3.6,6,3.08,10.45-.9.35-1.15-.43-1.52-.92-.91-1.18-1.75-2.41-2.67-3.58A22.16,22.16,0,0,0,290,389.4c-5.78-2.92-14.14-1.19-18.12,3-1.58,1.65-2.93,3.53-4.36,5.32C266.93,398.4,266.42,399.16,265.4,400.55Z"/><path class="cls-26" d="M146.58,401.43a8.44,8.44,0,0,1-.42-1.9c.64-5,2.48-9.44,6.23-12.86,6.41-5.85,15.88-4.8,21.43.42a22,22,0,0,1,6.42,11.53,5.49,5.49,0,0,1,.13,2,2.3,2.3,0,0,1-.85,1.21c-.11.09-.73-.24-.93-.52-.55-.77-1-1.62-1.48-2.42-.94-1.49-1.83-3-2.88-4.42a13.3,13.3,0,0,0-15.13-4.9,17.43,17.43,0,0,0-10.06,7.74C148.35,398.45,147.68,399.6,146.58,401.43Z"/><path class="cls-26" d="M283.5,362.83c-2.32,0-3.75-1-4-2.62a3.6,3.6,0,0,1,2.63-4.06,12.08,12.08,0,0,1,4.35-.42,3,3,0,0,1,2.61,2.27,3.1,3.1,0,0,1-1.08,3.28A6.14,6.14,0,0,1,283.5,362.83Z"/><path class="cls-26" d="M163.85,360.29a6,6,0,0,1-4.62-2.18,3.07,3.07,0,0,1,1.5-4.93,5.29,5.29,0,0,1,5.35.88,3.57,3.57,0,0,1,1.3,4A3.68,3.68,0,0,1,163.85,360.29Z"/><path class="cls-27" d="M150.91,409.8c.23.12.3.5.27.72-.36,2.9-.72,5.8-1.18,8.69-.07.43-.43,1.12-.93,1.17s-1-.59-1.11-1a11.3,11.3,0,0,1,2.23-9.4A.7.7,0,0,1,150.91,409.8Z"/><path class="cls-27" d="M279.86,411.44c0,.62,0,1.25,0,1.87-.09,2.16-.2,4.31-.29,6.47,0,.75-.31,1.43-1.08,1.42a1.55,1.55,0,0,1-1.06-1C276.9,417,277.36,410.5,279.86,411.44Z"/><path class="cls-27" d="M156,414.31c-.18,2-.4,4-.69,6,0,.31-.52.8-.75.78a1.8,1.8,0,0,1-1.29-.66c-1-2.22,1.5-12.28,2.72-9.26A24,24,0,0,1,156,414.31Z"/><path class="cls-27" d="M160.31,412.55c0,2.28,0,4.56,0,6.83,0,.68-.4,1.49-1.17,1.32a2.11,2.11,0,0,1-1.28-1.35C157.23,416.74,159.95,407.11,160.31,412.55Z"/><path class="cls-27" d="M272.88,413.56c.29-.77,1-2.1,2.21-2a17.9,17.9,0,0,1-.37,2.25c-.39,1.58-.29,5.8-.45,6.27a1.2,1.2,0,0,1-.87.65,1.16,1.16,0,0,1-.94-.52A18,18,0,0,1,272.88,413.56Z"/><path class="cls-27" d="M284.47,412.71c.14,2.64.29,5.27.39,7.91,0,.16-.33.42-.55.49a1.4,1.4,0,0,1-.73-.12.52.52,0,0,1-.3-.25C282.07,417.87,282.1,411.39,284.47,412.71Z"/><path d="M460.84,469.74c3.69.2,7.37.59,11.05.88,6.36.5,12.71,1,19.06,1.5,3.56.29,7.13.53,10.66,1a232.73,232.73,0,0,0,23.18,2.57,108.05,108.05,0,0,0,17.16-.41,33.21,33.21,0,0,0,10.68-3c6.16-3,9-9,7.55-16a27.1,27.1,0,0,0-2.93-7.91c-.45-.79-.92-1.58-1.47-2.53.72-.58,1.32-1,1.9-1.52,6.13-5,7.82-12.51,4.48-19.91-.61-1.34-1.4-2.57-2.12-3.85-.45-.79-.92-1.57-1.41-2.42.63-.88,1.13-1.65,1.71-2.35a15,15,0,0,0,3.21-9.33,19.82,19.82,0,0,0-5.14-14.39c-1-1.16-2.05-2.32-3.15-3.57,1.14-1.14,2.17-2.15,3.17-3.17a13,13,0,0,0,4-9,27.05,27.05,0,0,0-.88-7.18,16,16,0,0,0-7.31-10c-1.61-1-3.44-1.67-4.8-3.07,2.13-4.86,1.39-9.4-.66-13.84A7.67,7.67,0,0,0,544,338c-3.09-.93-6.22-1.47-9.41-.37-1.45.5-3,.78-4.43,1.26-20.15,3.3-72-3.26-81.22-3.66s-18.34-.83-27.52-1.19c-5.86-.23-11.73-.26-17.59-.53a232.31,232.31,0,0,0-24.09,0c-4.06.23-8.12.26-12,.33-.32-.53-.57-.75-.58-1q-.55-9.93-1.07-19.86a2,2,0,0,1,1.15-1.89,39,39,0,0,0,4.34-3.31c1.9-1.73,3.61-3.65,1.75-6.58a1.07,1.07,0,0,1-.16-.76c.53-1.76-.49-3.11-1.17-4.57,1.24-2.3,2.53-4.48,3.61-6.76a36.62,36.62,0,0,0,2.15-5.62c.58-2,.07-3.36-1.24-4.28s-3-.93-4.58.43a12.63,12.63,0,0,0-2.09,2.36c-1.43,2.07-2.77,4.21-4.17,6.32-.5.75-1,1.47-1.62,2.33-1.82-2.7-3.48-5.25-5.24-7.72a16.13,16.13,0,0,0-2.66-2.88,3,3,0,0,0-3.59-.43c-1.21.73-1,2.06-.77,3.28a31.17,31.17,0,0,0,4,10.47c.77,1.39,1.6,2.74,2.49,4.27-.69.38-1.25.66-1.77,1a5.23,5.23,0,0,0-1.2,1,3.53,3.53,0,0,0,.06,4.49c2.1,3.06,4.36,6,7.92,6.83-.25,4.46-.54,8.63-.7,12.82-.11,3,0,5.95-.06,8.92,0,.87-.23,1.66-1.2,1.77-2.91.33-5.83.61-8.74.95a2.1,2.1,0,0,1-2.41-1.49c-.3-.75-.63-1.48-1-2.2a69.36,69.36,0,0,0-10.81-16.18c-9.47-10.47-21.1-15.39-34.71-14.81-6.93.3-13.7,1.54-19.54,6-.17.13-.47.07-.87.11-1.05-1.48-1.31-3.39-1.92-5.12-3.6-10.17-9.08-18.75-18.05-24.43a67.61,67.61,0,0,0-31.16-10.09,71.74,71.74,0,0,0-23.89,2.4c-9.42,2.43-18.1,6.45-25.5,13.26a37.62,37.62,0,0,0-10.59,15.66c-.3.88-.7,1.71-1.14,2.77a18.72,18.72,0,0,0-9.42-1.47A74.16,74.16,0,0,0,130,309.92a35.76,35.76,0,0,0-11,9.93c-8,11.36-14.54,23.54-17.71,37.49-1.79,7.9-3.38,15.85-3.52,24,0,2.16.06,4.33,0,6.5,0,.64-.09,1.53-.47,1.85-1.44,1.2-2.79,2.64-4.81,3.31-1.06-5.47-2.27-10.59-2.1-15.91q.45-14.41,1-28.82c.07-2,.1-4.06.24-6.09.63-9.59,1.3-19.17,1.94-28.75.15-2.26.27-4.53.39-6.58a59.71,59.71,0,0,0,5.35-4.77c3.12-3.5,2.86-6.38-.68-9.66l2.24-3.22a31.6,31.6,0,0,0,5.46-13.7,10.39,10.39,0,0,0,.06-3.21c-.35-2-2.19-2.95-3.79-1.85a10.6,10.6,0,0,0-3,3.06c-1.67,2.71-3.11,5.58-4.64,8.39-.48.89-.93,1.8-1.69,3.26-.54-1.88-.84-3.14-1.26-4.37-1.13-3.3-2.18-6.64-3.5-9.86-1-2.49-2.65-2.69-4.52-.88a3.69,3.69,0,0,0-1.22,2.87,21.08,21.08,0,0,0,.31,3.22c.72,3.71,1.45,7.42,2.3,11.1.31,1.34.33,2.26-1,3a2.79,2.79,0,0,0-1,2,1.85,1.85,0,0,1-1.52,1.93c-1.67.55-1.93,2.29-1.45,3.66a7,7,0,0,0,1.59,2.7A39.23,39.23,0,0,0,86.31,304c1.25.91,2.58,1.69,3.57,2.33-.47,3-.85,5.62-1.3,8.25-1.7,9.75-2.21,19.63-2.63,29.48a292.36,292.36,0,0,0,.61,36.13c.41,5.12,1,10.23,1.82,15.29a4.06,4.06,0,0,1-.86,3.64,48.41,48.41,0,0,0-7.42,11.77,31.44,31.44,0,0,0-2.77,11.73,41.16,41.16,0,0,0,8.29,25.58,23.86,23.86,0,0,0,10.64,8.32,98.15,98.15,0,0,0,32,7.33c8.53.4,17,1.07,25.58,1.53q17,.91,34,1.65c13.25.58,26.5,1.16,39.75,1.57s26.77.74,40.16.86c19.51.17,39,.3,58.53-.47,7.13-.28,14.27-.44,21.4-.86a132,132,0,0,0,27.47-4.86,10.26,10.26,0,0,1,3.39-.3c3.18.22,6.35.53,9.52.87,6.59.7,13.18,1.46,19.77,2.17,6.34.68,12.67,1.55,19,2C438.16,468.69,449.5,469.12,460.84,469.74Zm98.51-42.5a11.68,11.68,0,0,1-10.06,16.37,17.36,17.36,0,0,1-1.91-.08c-7.76-.48-15.52-1-23.28-1.45-5.47-.32-10.94-.64-16.42-.84-11.34-.41-22.68-.71-34-1.1-12.23-.42-24.45-.94-36.68-1.33-14.27-.45-28.54-.8-42.81-1.22-1.91-.06-3.81-.25-5.72-.4a1.92,1.92,0,0,1-1.79-1.27,21.65,21.65,0,0,0-8.13-10,6.82,6.82,0,0,1,.62-1.18,31.79,31.79,0,0,0,6.26-11.51c.59-2,.82-2.05,2.78-2l33.61,1.6,32.84,1.57,35.14,1.66c11.58.54,23.17,1,34.75,1.61,8.91.43,17.82,1,26.73,1.33a5.86,5.86,0,0,1,4.9,2.63A33.75,33.75,0,0,1,559.35,427.23Zm.71-23.31A12,12,0,0,1,556,415.11a5.12,5.12,0,0,1-3.85,1.39c-6.75-.36-13.49-.63-20.24-1-1.27-.06-2.54-.26-3.81-.31-9.17-.38-18.34-.7-27.51-1.12-8-.37-16-.85-24.05-1.26q-9-.46-18-.86c-8.79-.38-17.58-.7-26.36-1.12-7.89-.37-15.78-.86-23.67-1.26-3.18-.16-6.37-.18-9.55-.35-3.93-.21-7.86-.49-12-.76-.14-4,0-7.56-.45-11S385,390.68,384.19,387a17.65,17.65,0,0,1,2.09-.23c30.72,0,61.44,0,92.17.09,10.83,0,21.66.52,32.49.83,7.39.22,14.78.49,22.16.78,4.71.18,9.42.51,14.13.62a7.6,7.6,0,0,1,4.63,1.64C556.05,394.08,559.32,398.13,560.06,403.92Zm-6.34-40.51c3.73,3.65,5,8.34,4.4,13.6-.34,3-2.19,5.1-4.29,7a9.33,9.33,0,0,1-7,2.56q-16.8-.87-33.62-1.41c-15.67-.48-31.35-.8-39.49-1-34.05,0-60.57,0-87.08.05-2.88,0-4.93-.51-6.68-3.33a34.3,34.3,0,0,0-6.37-6.94,7.64,7.64,0,0,1-2.64-4.72c-.36-2.4-.81-4.79-1.12-7.2-.16-1.27.3-1.77,1.45-1.85s2.29-.07,3.44-.08c15.94-.1,31.87-.15,47.81-.31q41.3-.39,82.6-.9,10.9-.14,21.79-.66c4.83-.23,9.66-.75,14.48-1.22a7.78,7.78,0,0,1,3.67.62A25.25,25.25,0,0,1,553.72,363.41Zm-185.86-25a20.56,20.56,0,0,1,2.49-.3c7,0,14-.18,21,0,11.59.29,23.18.81,34.77,1.22,1.65.06,3.31.09,5,.15,9.55.35,19.11.63,28.66,1.07,6.23.29,12.46.83,18.69,1.23,1.4.09,2.8.1,4.2.16,8.15.35,16.3.67,24.44,1.06,5.6.27,11.19.71,16.79.9a28.15,28.15,0,0,0,6-.58c2-.37,3.93-1.13,5.93-1.56a11.74,11.74,0,0,1,3.77-.32c3.59.41,5.28,2.35,5.16,6.16a22.47,22.47,0,0,1-1.17,5.49,2.09,2.09,0,0,1-1.45,1,45.68,45.68,0,0,1-4.93.65c-9.41.78-18.83,1.1-28.26,1.18-26,.24-52,.57-78,.86q-28.49.31-57,.59c-1.5,0-3-.07-4.4-.1C368.24,353,367.34,343.22,367.86,338.38Zm-3.63,22c.32,1.89.62,3.46.84,5a14.48,14.48,0,0,1,0,2L353.16,364c.23-.69.47-1.42.7-2.16a1.71,1.71,0,0,1,1.69-1.34C358.3,360.45,361.06,359.95,364.23,360.35Zm-11.85-22.23c3,0,5.68-.05,8.34,0,1.5,0,1.85.4,2,1.89q.55,7.69,1,15.39c.09,1.54-.27,1.94-1.75,2-2,.09-4.08.11-6.12,0-1.35,0-1.72-.53-1.84-2a9.06,9.06,0,0,1,0-1.22,42.54,42.54,0,0,0-1.54-14.45A7.94,7.94,0,0,1,352.38,338.12Zm21.7,120.37a21.09,21.09,0,0,1-3.94,1.54c-5.54,1.56-18.47,6.24-49.45,6.34-14.28.17-28.56.48-42.84.41-15.3-.07-30.6-.38-45.89-.79-13.89-.38-27.77-1-41.66-1.59-11.21-.48-74.11-2-91.65-12.56-3.67-1-6.54-3.56-8.88-6.73a37.36,37.36,0,0,1-7.36-20.55,28,28,0,0,1,3.16-14.05A46.46,46.46,0,0,1,98.8,394.44a11.14,11.14,0,0,1,6.66-2.75c.47,0,3.73-.09,4.28-.23-2.17-2-5.81-2.56-7.46-3.7a42.19,42.19,0,0,1-.09-8.8,109.6,109.6,0,0,1,17.49-52.58,41.58,41.58,0,0,1,16-14.67,75.18,75.18,0,0,1,26-7.72,14.43,14.43,0,0,1,6.81.6c1.37.51,1.55.71,1.53,2.33,0,1.89-.12,3.79-.06,5.68,0,.9.49,4.24,1.75,4.5-.3-1,.46-4.88.66-6.2.33-2.13.63-4.28,1.15-6.37a34.87,34.87,0,0,1,11.86-18.9,56.3,56.3,0,0,1,22-11,72.63,72.63,0,0,1,26.16-2.42,62.6,62.6,0,0,1,26.8,8.82,35.11,35.11,0,0,1,12.79,13.66A82.82,82.82,0,0,1,279,309.25a5.47,5.47,0,0,1-.43,4.62,28.36,28.36,0,0,0-1.94,4.83,8,8,0,0,0,.11,2.34c1-.74,3.58-5,4.75-6.39,3.51-4.25,9.21-6.15,14.44-7.15a45.53,45.53,0,0,1,19.71.23,36.33,36.33,0,0,1,18.46,10.9,55.49,55.49,0,0,1,14.68,30.16,27.48,27.48,0,0,1-.7,12.45c-2.18,6-9.46,6.4-9.41,7.83,8.65-1.12,20.75-.22,26.78,3.75,1.22.8,1.5,2.1,1.87,3.4,1.29,4.53,2.53,9.08,3.93,13.57.76,2.44,1.74,4.8,2.71,7.15a8.67,8.67,0,0,0,1.47,2.34,2.18,2.18,0,0,0,3.76-1.74,20.14,20.14,0,0,0-.92-3.49c-1.3-4-2.64-7.9-3.95-11.86a13.86,13.86,0,0,1-.27-1.58,25.36,25.36,0,0,1,4,5.42c4.06,6.91,4.93,14.5,3.59,22.3a26.83,26.83,0,0,1-12.24,18.33c-4.46,3-8.83,5.21-8.7,5.45.28.49,4.77.28,5.86,0a51.4,51.4,0,0,0,5.32-1.67c3.53-1.74,3.64-1.77,6.13,1.15a19.31,19.31,0,0,1,4.71,15.33C382,452.48,378.7,456.11,374.07,458.49Zm17.27,1.83c-3.3,0-6.59-.18-10.33-.29.67-.64,1.25-1.15,1.78-1.7a18.67,18.67,0,0,0,5.5-13.78c0-.68-.07-1.35-.07-2,0-2,.2-2.33,2.24-2.29,6.75.13,13.51.33,20.26.51,1,0,2,.18,3.05.21,13.38.38,26.76.71,40.13,1.14,13,.42,26,1,39,1.44,9.3.35,18.6.61,27.89,1.07,8.78.43,17.55,1.09,26.33,1.56a6.39,6.39,0,0,1,4.41,2,18,18,0,0,1,5.21,8.34c1.22,4.63,0,8.31-3.83,10.84a21.17,21.17,0,0,1-10.38,3.79c-5.72.36-11.42.9-17.17.73-6.52-.18-12.94-1.12-19.39-1.9-6.2-.75-12.39-1.5-18.6-2.14-5.33-.55-10.66-1-16-1.43-11.95-.91-23.89-1.79-35.88-2.05-7-.16-14-1-20.94-1.72C406.82,461.76,399.15,460.33,391.35,460.32Z"/><path d="M248.71,391.43a13.77,13.77,0,0,0-5.08-2.32c-5.6-1.57-11.38-1.36-17.33-1.85-3.28.2-6.81.23-10.29.67a78.57,78.57,0,0,0-10,2,18.59,18.59,0,0,0-4.72,2.26,3.38,3.38,0,0,0-1.54,3.28c.16,8.17,3.05,15.34,7.78,21.84a20.85,20.85,0,0,0,10.75,7.58,16,16,0,0,0,7.62.83,20.61,20.61,0,0,0,12.74-6.85,48,48,0,0,0,11.11-24.67A2.69,2.69,0,0,0,248.71,391.43Zm-17.95,29.64a17.38,17.38,0,0,1-22.18-7.94,2.28,2.28,0,0,1-.07-.54,12.66,12.66,0,0,1,1.37-1.35,21.71,21.71,0,0,1,11.65-4.4,44.64,44.64,0,0,1,15.29,1.5c1.7.48,3.38,1,4.47,2.54C239.66,414.88,235.28,419.12,230.76,421.06Zm12-12.41c-5.2-4.36-11.5-5.51-18-5.8a25,25,0,0,0-10.32,1.77,15.61,15.61,0,0,0-7.08,5.42c-1-.1-1.16-.88-1.45-1.46a52.42,52.42,0,0,1-4.12-11.18,6.59,6.59,0,0,1-.29-2.07,2,2,0,0,1,.79-1.39,14.67,14.67,0,0,1,3-1.06,61.36,61.36,0,0,1,13.48-2.2,107,107,0,0,1,21.38.72,22.88,22.88,0,0,1,6.72,1.93A1.65,1.65,0,0,1,247.9,395C247.83,398.06,244.92,405.87,242.73,408.65Z"/></g></g></svg>