<svg id="Layer_1" data-name="Layer 1" xmlns="http://www.w3.org/2000/svg" xmlns:xlink="http://www.w3.org/1999/xlink" viewBox="0 0 1200 628"><defs><style>.cls-1{fill:none;}.cls-2{fill:url(#New_Gradient_Swatch_2);}.cls-3{clip-path:url(#clip-path);}.cls-4{fill:#244999;}.cls-5{font-size:39.98px;fill:#edc96e;}.cls-11,.cls-5{font-family:Lato-Black, Lato;}.cls-6{letter-spacing:-0.02em;}.cls-7{letter-spacing:-0.03em;}.cls-8{fill:url(#linear-gradient);}.cls-9{fill:url(#linear-gradient-2);}.cls-10,.cls-14{fill:#fff;}.cls-11{font-size:58px;fill:#ff4545;}.cls-12{letter-spacing:-0.02em;}.cls-13{letter-spacing:-0.01em;}.cls-14{stroke:#6a0b9b;stroke-linecap:round;stroke-linejoin:round;stroke-width:3.26px;stroke-dasharray:8.7 10.87 0 0;}.cls-14,.cls-20,.cls-23{fill-rule:evenodd;}.cls-15{fill:#00eef1;}.cls-16{fill:#ffff45;}.cls-17{fill:#ff905c;}.cls-18{fill:#ffc772;}.cls-19{fill:#ff554d;}.cls-20{fill:#ac0000;}.cls-21{fill:#e82244;}.cls-22,.cls-23{fill:#6a0b9b;}</style><linearGradient id="New_Gradient_Swatch_2" x1="149.86" y1="588.73" x2="1056.35" y2="35.48" gradientUnits="userSpaceOnUse"><stop offset="0" stop-color="#c99b3b"/><stop offset="0.52" stop-color="#ffffab"/><stop offset="1" stop-color="#cea040"/></linearGradient><clipPath id="clip-path"><rect class="cls-1" x="459" width="622" height="220"/></clipPath><linearGradient id="linear-gradient" x1="642.04" y1="-16.06" x2="695.13" y2="248.22" gradientUnits="userSpaceOnUse"><stop offset="0" stop-color="#663800"/><stop offset="0.4" stop-color="#ffd373"/><stop offset="1" stop-color="#cea040"/></linearGradient><linearGradient id="linear-gradient-2" x1="599.9" y1="-7.6" x2="652.99" y2="256.68" xlink:href="#linear-gradient"/></defs><title>12_vers_ru</title><rect class="cls-2" y="-1" width="1200" height="630"/><g class="cls-3"><ellipse class="cls-4" cx="770" cy="15.71" rx="300" ry="204.29"/></g><text class="cls-5" transform="translate(702.28 104.76)">#KULDSÜ<tspan class="cls-6" x="184.87" y="0">D</tspan><tspan class="cls-7" x="214.29" y="0">A</tspan></text><path class="cls-8" d="M671.58,54.31c-8.43-3.59-19.26.49-28.45,9.54a87.22,87.22,0,0,1,6.25,12.58c8.52,21.26,7.51,42.18-1.38,52.3,10.6-2.66,22-13,29-27.69C686.78,80.66,684.34,59.74,671.58,54.31Z"/><path class="cls-9" d="M636.26,128.1c-12.76-5.43-15.2-26.35-5.45-46.73a62.63,62.63,0,0,1,12.32-17.52c-11.32-18.78-28-29.57-40.8-25-15.46,5.51-19.47,31.26-8.94,57.52S625,139.46,640.44,134a18.1,18.1,0,0,0,7.57-5.22A18.28,18.28,0,0,1,636.26,128.1Z"/><path class="cls-10" d="M649.38,76.43a87.22,87.22,0,0,0-6.25-12.58,62.63,62.63,0,0,0-12.32,17.52c-9.75,20.38-7.31,41.3,5.45,46.73a18.28,18.28,0,0,0,11.74.63C656.89,118.6,657.9,97.68,649.38,76.43Z"/><text class="cls-11" transform="translate(650.55 407.34)">САРК<tspan class="cls-12" x="157.61" y="0">А</tspan><tspan x="197.34" y="0">СТИЧНЫЙ </tspan><tspan x="0" y="69.6">ОСТ</tspan><tspan class="cls-13" x="120.58" y="69.6">Р</tspan><tspan x="156.83" y="69.6">ЯК</tspan></text><path class="cls-14" d="M80.81,259.82a37.91,37.91,0,0,0,31.55,15.54c14.6-.41,20.88-13.47,33.15-15.46-1.94,74-10.75,154.79,11.18,226.66,21.12,69.22,88.78,86,154.11,84.32,63.53-1.65,126.66-37.45,140.17-103.6,6.23-30.53,2.48-65-.21-95.76q-4.63-52.75-10.52-105.39c14.37,8.6,37,7.27,48.35-5.58,7.61-8.58,5.35-19.14,11.18-27.68,6.83-10,7.72-22.73,3.84-34-3.06-8.91-11.28-13.52-13.6-21.87-2.78-10-9.73-18.83-19.78-22.19-19-6.38-36.93,6.52-43.18,24.2-8.86-31.69-41.89-85.16-77.63-45-25.65,28.86-24.32,79.66-21.57,115.39-25.55-2-52,2.27-76.23,10.32,0-36.65-.18-98-30.52-124-34.92-30-65.19,14.79-70.52,46.27-12.91-23.24-52.48-27.85-61.35,1.65-11.57,5.49-17.08,17.78-16.39,30.17.86,15.32-1.9,32.39,8,46Z"/><path class="cls-15" d="M147.27,230.85c-6.79-2.09-10.44-7.11-12-13.73-1-4.18-1.47-8.47-2.24-12.7-.51-2.78-1-5.56-1.72-8.29-1.19-4.6-4.3-7.67-8.44-9.69-3.54-1.72-6.75-.41-9.64,1.68s-2.52,5-1.58,7.72a85,85,0,0,0,3.59,8c.31.66,1,1.31.94,1.94a3.86,3.86,0,0,1-1,2.52,2.75,2.75,0,0,1-2.34.06,6.67,6.67,0,0,1-1.92-1.66c-3.23-3.24-7.29-3.29-11.32-2.54-1.17.22-2.46,1.7-3,2.92a10.71,10.71,0,0,0,9.68,15.17,4.43,4.43,0,0,1,2.16.18c.95.6,2.17,1.42,2.38,2.35.33,1.47-.82,2.53-2.35,2.72-1.2.15-2.46-.1-3.66,0a12.71,12.71,0,0,0-4.52,1A8.16,8.16,0,0,0,96,237.38c1.22,10.13,9.38,16.42,18.19,14.57,3.52-.74,6.19-2.85,8.58-5.42a31.6,31.6,0,0,1,14.73-8.65c3.24-.95,6.76-.58,9.79-2.42.9-.55,2.15-.44,2.07-2A2.48,2.48,0,0,0,147.27,230.85Z"/><path class="cls-16" d="M226.71,406.7a12.55,12.55,0,0,0-3.19,5.25c-2.15,9.07-2.69,18.18.4,27.21,2.12,6.19,6.57,9.51,12.83,10.83,2.89.61,5.25-.17,6.69-2.6a57.55,57.55,0,0,0,4.71-9.51c2.84-7.81,3.42-16,3.72-24.27.22-5.86.21-11.73.3-17.83C244.38,396.12,231.41,401.68,226.71,406.7Z"/><path class="cls-16" d="M254.25,464a22.29,22.29,0,0,0-6.39-9.16c-8.4,4.84-11.79,4.5-24-2.51.9,4.63,1.64,9,2.6,13.23,1.72,7.59,4.82,14.26,11.34,19.18s14.17,7,22.35,9.41c-.43-3.55-.8-6.46-1.12-9.38A80.1,80.1,0,0,0,254.25,464Z"/><path class="cls-15" d="M469.68,201.24c-1.27.75-2.35,1.93-3.7,2.38a4,4,0,0,1-3.29-.53c-.59-.47-.74-2.08-.43-3a20,20,0,0,1,2.29-3.76c2.84-4.52,3.77-9.33,2.05-14.47-1.46-4.37-5.18-6-9.42-4.16a10.92,10.92,0,0,0-6.32,6.39c-1.11,3.1-1.77,6.37-2.64,9.56-1.39,5.09-2.37,10.33-4.3,15.21-2.26,5.7-5.79,10.62-12.38,12-.09,3-.17,5.83-.27,9,1.6.39,3.13.82,4.68,1.14,5.26,1.08,9.44,3.45,11.14,9a6.28,6.28,0,0,0,1.25,2.24c1.36,1.55,2.58,3.71,4.31,4.34a26,26,0,0,0,14.49,1.41c3.3-.71,5.92-3.61,5.83-6.78-.12-4.76-.81-9.42-6.23-11.42-1.26-.46-2.27-1.54-1.65-2.83a4.68,4.68,0,0,1,2.67-2c1.12-.35,2.43-.06,3.66-.12a11.43,11.43,0,0,0,11-10.53A18.15,18.15,0,0,0,480.1,204C477.43,199.39,474.28,198.5,469.68,201.24Z"/><path class="cls-16" d="M368.22,460.76a63.63,63.63,0,0,0,2.12-21.9c-.34,0-.66-.12-.72,0-4.35,6-10.53,7.27-17.37,6.78-5.11-.37-7.44,1.09-9.16,5.89a14.55,14.55,0,0,0-.12,9.33c1.88,6.61,3.2,13.38,4.62,20.11.49,2.29-.45,3.7-2.2,4s-3-.75-3.41-3c-.34-1.94-.5-3.91-.65-5.87a64,64,0,0,0-4.55-18.57,18.8,18.8,0,0,0-8.19-9.66c-1.66-1-2.75-1-4.05.59a14,14,0,0,1-10.92,5.34c-.61,0-1.23,0-1.84,0-3.62-.31-4-.12-5.68,3.09a14,14,0,0,0-1.64,9.18c1.12,6.54,1.71,13.18,2.47,19.79a16.76,16.76,0,0,1,0,3.67,2.52,2.52,0,0,1-2.26,2.53,2.39,2.39,0,0,1-2.78-1.89c-.5-1.77-.85-3.58-1.19-5.39-1.47-7.73-2.74-15.5-4.44-23.18a18.31,18.31,0,0,0-8.1-12.18,13.34,13.34,0,0,1-1.38,2.9c-4,4.88-9,7.56-15.45,6.88a7,7,0,0,0-7.1,4.11c-1.54,3.88-2.53,7.66-1.35,12.13,1.46,5.55,1.86,11.41,2.47,17.16.25,2.37,1.13,3.43,3.5,3.76,6.92,1,13.81,2.13,21,3.26l-.42.13c21.54-.87,42.77-7.13,62.52-15.61,3.07-3.65,5.79-7.15,8.86-10.31A30.44,30.44,0,0,0,368.22,460.76Z"/><path class="cls-17" d="M218.36,455.92c-1.81-11-3.2-22.19-2.56-33.44a83.22,83.22,0,0,1,1.41-10.94,16.29,16.29,0,0,1,.71-2.51c-17.52-4.17-35.57-11.4-49.72-22.27q.27,8.57.83,17.14c.49,7.49,1.11,15,1.68,22.46.7,9.23,1.76,18.38,3.31,27.45a168.59,168.59,0,0,0,47.38,15.1A106.14,106.14,0,0,1,218.36,455.92Z"/><path class="cls-17" d="M423.32,347.38c-8.87,19-21.26,35.55-40.62,45.54-5.71,2.86-11.44,5.5-17.22,8a42.17,42.17,0,0,1,7.5,16.22,117,117,0,0,1,3.47,26.68c0,2-.07,4-.25,6A133.56,133.56,0,0,0,429,416.42c-.37-9.47-.94-18.94-1.81-28.37C426,374.53,424.67,361,423.32,347.38Z"/><path class="cls-18" d="M370.44,469.77c-4,7.57-10.29,12.58-19,14.91l.51-.61c-19.75,8.47-41,14.73-62.52,15.61a45.08,45.08,0,0,1-13.95,2.15c-3.44,0-6.87-.42-10.31-.51-11.91-.33-22.29-4.81-31.57-11.91-5.32-4.07-8.71-9.78-10.8-16q-.75-2.22-1.42-4.48A168.59,168.59,0,0,1,174,453.81a207.6,207.6,0,0,0,7.91,31.87c4,11.81,9.33,22.57,19.37,30.72,10.78,8.76,21.77,16.91,35.17,21.25,9.49,3.08,19.09,5.88,29,7,9.75,1.14,19.58,1.85,29.39,2.19,14.26.5,28.56.74,42.59-2.59,7.76-1.84,15.53-3.69,22.84-7.06,9.87-4.55,18.82-10.6,27.86-16.57,16.18-10.68,26.68-25.77,33.31-43.54s8.36-36.63,7.77-55.57c-.05-1.72-.13-3.44-.19-5.15A133.56,133.56,0,0,1,376.2,449.8,52.83,52.83,0,0,1,370.44,469.77Z"/><path class="cls-17" d="M220.51,197.75c-.84-4.64-1.8-9.26-2.92-13.86-1.78-7.3-4-14.5-7.77-21a34.53,34.53,0,0,0-5.29-7c-4.15-4.15-9.1-4.59-14.18-1.7a21.55,21.55,0,0,0-8.83,10.15,68.89,68.89,0,0,0-4.07,11.44c-3.33,13-4.87,26.27-5.71,39.59a41.08,41.08,0,0,1,13.17-8.07C195.68,204.08,208.06,200.18,220.51,197.75Z"/><path class="cls-17" d="M405.52,198.7c-2-12.32-6.07-24.07-11-35.49A46.58,46.58,0,0,0,386,149.87c-3.12-3.34-6.9-4.65-11.37-3.52a11.11,11.11,0,0,0-7,5.1,83.87,83.87,0,0,0-6.76,13.06,141.29,141.29,0,0,0-6.63,24.59c19.09.47,38.22,5.76,52.57,17.62Q406.18,202.71,405.52,198.7Z"/><path class="cls-19" d="M409.94,228.65c-.91-7.32-2-14.63-3.13-21.92-14.36-11.86-33.48-17.14-52.57-17.62a185,185,0,0,0-2.61,35.6c.26,15.24,1.55,30.47,2.26,45.71.12,2.48.78,4.08,3.23,5.06a23.39,23.39,0,0,1,4.93,3.21,8.86,8.86,0,0,1,2,2.16c1.32,1.95,1.17,4-.28,5.38s-3.73,1.36-5.69-.08a44.75,44.75,0,0,0-6.67-4.47c-7.74-3.75-16.07-5.34-24.58-6-23-1.82-45.45,1.53-67.31,8.56-11,3.53-21.71,7.91-32.55,11.89a9.61,9.61,0,0,1-3.17.87c-1.11,0-2.71-.22-3.22-1-1-1.43.52-2.41,1.52-3.26a9,9,0,0,1,2.16-1.4c2.28-1,3.29-2.42,2.93-5.13-.39-3-.11-6.14-.19-9.21-.28-11.32,0-22.68-1-33.93-1.32-15.17-2.77-30.35-5.49-45.33-12.44,2.43-24.83,6.33-35.6,9.49a41.08,41.08,0,0,0-13.17,8.07c-.27,4.34-.47,8.68-.63,13-.4,11.18-.48,22.38-.77,33.56-.36,14.38-.82,28.76-1.18,43.15-.4,16.35-.72,32.71-1.09,49.06-.24,10.89-.22,21.78.13,32.66,14.15,10.87,32.2,18.1,49.72,22.27a18.15,18.15,0,0,1,6.46-8.34c7.83-5.82,16.53-9.85,26.21-11.11,10-1.3,20.08-2,30.13-2.95,1.32-.13,2.64-.31,4.37-.52a26.15,26.15,0,0,1-.93-3.78,113.48,113.48,0,0,1-.66-11.37c0-1.6-.27-2.45-1.59-3.26a19.64,19.64,0,0,1-7.9-9,13.33,13.33,0,0,1-1.07-4.24,2.57,2.57,0,0,1,1.27-1.9c.42-.22,1.49.19,1.88.64.8.91,1.23,2.13,2,3.08,1.81,2.3,3.66,4.58,5.62,6.75,1.16,1.29,2.36,1.19,3.78,0,3.42-3,7-5.83,10.54-8.68a17.16,17.16,0,0,1,3.06-2c1.29-.64,2.69-.77,3.59.68s.05,2.57-1.09,3.45c-2.33,1.8-4.73,3.52-7,5.37a83.2,83.2,0,0,0-6.43,5.54,4.65,4.65,0,0,0-1.42,3.13c.29,4.15.91,8.28,1.38,12.42.23,2,1.29,2.28,3.09,1.94,11.81-2.22,23.74-2.34,35.68-1.68a53.74,53.74,0,0,1,31.67,12.68,32.45,32.45,0,0,1,4.95,5.1c5.78-2.47,11.51-5.1,17.22-8,19.36-10,31.75-26.58,40.62-45.54-1.41-14.3-2.86-28.72-4.3-43.41C416.09,279.52,413.11,254.07,409.94,228.65Z"/><path class="cls-16" d="M259,397.87c-.32,9.08-.7,18.17-1.24,27.24a32.79,32.79,0,0,0,6.63,22.47c5.62,7.4,14.68,6.34,18.64-2a44.64,44.64,0,0,0,3.83-13.8,194.23,194.23,0,0,0,1-29.07c-.09-3.42-.07-6.85-.1-10.53l-25.51,2.18C259.33,394.58,259.08,394.37,259,397.87Z"/><path class="cls-15" d="M324.24,388.89c-7.36.2-16.74.36-22.06.82-2,.17-3.9.49-5.86.7-1.59.16-2.36.81-2.31,2.59.08,2.94-.15,5.89-.17,8.83-.17,8.62-.13,17.27,0,25.9a21,21,0,0,0,1.33,6.12,15,15,0,0,0,2.48,4.5,25,25,0,0,0,7.29,6.28,28.91,28.91,0,0,0,5.5,2.22,8.68,8.68,0,0,0,9.39-2.42c4.88-4.87,8.09-10.52,8.18-17.56q.16-11.77.05-23.55c0-3.68-.27-7.36-.45-11C327.43,389.47,327.58,388.79,324.24,388.89Z"/><path class="cls-16" d="M333.54,389.54c.06,3.63.15,6.57.16,9.51.06,9.1.18,18.2,0,27.29a5.55,5.55,0,0,0,1.53,4.24c5.77,6.41,13.23,8.23,21.41,7.77,4.2-.24,7.2-2.47,8.08-6.83.75-3.73,1.44-7.48,1.93-11.25a11.82,11.82,0,0,0-.35-5C361.23,399.58,348.79,393.15,333.54,389.54Z"/><path class="cls-20" d="M384.13,296c.66,3.46.37,6.94-2.13,9.73a13.94,13.94,0,0,1-4.17,3.23,19.88,19.88,0,0,1-3.8,1.25c-2.76.63-4.78-.46-5.3-2.61s.86-4,3.54-4.72c.71-.19,1.45-.24,2.17-.42a3.61,3.61,0,0,0,3.11-3.6,45.79,45.79,0,0,0-.52-6.19c-.16-1.21-.65-2.37-.86-3.57-.26-1.56-.71-3.41,1.32-4.08s3,1,3.61,2.43A38.41,38.41,0,0,1,384.13,296Z"/><path class="cls-20" d="M387.31,290.48c.06-.93.08-2.64.3-4.33.15-1.23.55-2.72,2.07-2.54a3.73,3.73,0,0,1,2.22,2c.8,1.64,1.2,3.47,1.84,5.19,1.12,3,1.87,3.35,5,2.33,1.17-.38,2.3-.9,3.49-1.16a4.11,4.11,0,0,1,4.86,2.39,3.92,3.92,0,0,1-1.93,5,16,16,0,0,1-9.94,2.08c-3.81-.49-6.1-3-7.14-6.57A44.43,44.43,0,0,1,387.31,290.48Z"/><path class="cls-20" d="M383,323.47c-.15-3.71-1.75-5.31-5.47-5.35-1.22,0-6.73.94-5.65-1.58A8.21,8.21,0,0,1,374,314a7,7,0,0,1,3.6-1.55,10.66,10.66,0,0,1,7.52,1.28,10.35,10.35,0,0,1,3.06,3.3,18.65,18.65,0,0,1,1.74,7.36,3.49,3.49,0,0,1-3.35,4c-2.06,0-3.46-1.59-3.63-4.24A5.27,5.27,0,0,1,383,323.47Z"/><path class="cls-20" d="M392.1,314.94c-.6-6,5.53-10,10.66-8.83,2.14.47,2.4,1.64.91,3.41a10.35,10.35,0,0,1-1.57,1.55c-1.89,1.46-2.14,3.13-.8,5.08a4.66,4.66,0,0,1,.52,1c.9,2.34.27,4.45-1.59,5.42a4,4,0,0,1-5.39-1.67A52.25,52.25,0,0,1,392.1,314.94Z"/><path class="cls-20" d="M193.6,330.22c-.09-.73-.15-1.47-.27-2.19-.61-3.75-.95-4-4.84-3.22-2.44.47-4.33,0-4.43-1.35-.16-1.92,1.35-2.77,2.77-3.51,5.36-2.78,10.18-.67,11.54,5.21a62.21,62.21,0,0,1,1,8,2.52,2.52,0,0,1-2.05,3c-1.77.34-2.78-.76-3.17-2.34a30.56,30.56,0,0,1-.47-3.64Z"/><path class="cls-20" d="M201.54,294c1.08,0,1.49,1.7,1.77,2.47a33.5,33.5,0,0,1,1,4.59c.25,1.27.47,2.55.82,3.8.09.33,1.09,3.49,1.45,3.39.88-.24,1.79-.54,2.71-.71a2.79,2.79,0,0,1,3.35,1.62c.69,1.63-.1,2.8-1.49,3.7-5,3.24-9.83,1.2-10.55-4.63a79.89,79.89,0,0,1-.47-10.24c0-.92,0-3.92,1.38-4Z"/><path class="cls-20" d="M209.31,328a20.85,20.85,0,0,1,.54,3.25c0,1.48-.67,2.88-2.23,2.85-1,0-2.64-.83-2.88-1.62a44,44,0,0,1-2.15-10c-.2-3.56,3.53-6.12,6.91-5.13a4.32,4.32,0,0,1,2.28,2.06,2.34,2.34,0,0,1-.68,2.19C207.46,322.94,208.87,325.6,209.31,328Z"/><path class="cls-20" d="M195.06,304.64a15.44,15.44,0,0,1-.42,3.63,25.59,25.59,0,0,1-1,3.51,5.67,5.67,0,0,1-4.83,3.54,3,3,0,0,1-3.53-2,2.63,2.63,0,0,1,1.54-3.66c3.7-1.13,3.49-4,3.4-6.82a30,30,0,0,1-.18-3.67,2.17,2.17,0,0,1,1.18-1.61c1.67-.43,2.65,1.73,3.11,2.94A12,12,0,0,1,195.06,304.64Z"/><path class="cls-21" d="M327.46,344.79c.12,4.39-22.35,2.11-42.57,2.68s-33.9,5.89-34,1.5,14.82-20.26,35-20.83S327.34,340.4,327.46,344.79Z"/><path class="cls-22" d="M411.93,194.43c-2.29-12.4-6.61-24.18-11.86-35.61A49.11,49.11,0,0,0,390.92,145c-7.24-7.51-17.78-8.11-25.52-1.21a27.57,27.57,0,0,0-5.93,7.46,94.62,94.62,0,0,0-6.38,14.49c-7.52,22.75-9,46.25-7.83,70q.2,4,.49,7.94c.33,4.74.73,9.48,1.13,14.21q.3,3.52.59,7c.17,2.11.6,4.4.26,6.5a22.48,22.48,0,0,1-4.17-1c-1.45-.39-2.91-.75-4.38-1.05a108.93,108.93,0,0,0-15.91-2,149.17,149.17,0,0,0-15.94.1,192.15,192.15,0,0,0-57.89,12.38c-5.36,2-10.66,4.25-16.28,6.49,0-2.79.1-5.34.09-7.9,0-11.56.39-23.14-.26-34.67-.69-12.4-2.11-24.78-3.71-37.1s-3.84-24.81-7.91-36.76c-2.2-6.45-4.91-12.62-9.5-17.77-4-4.5-8.78-7.45-15.09-7.31-5.07.12-9.27,2.22-13,5.39a35.45,35.45,0,0,0-10.16,15.18c-3.66,9.88-5.28,20.2-6.59,30.58a429.79,429.79,0,0,0-2.85,46.36c-.3,18.07-1,36.14-1.4,54.21-.4,16.47-.63,32.95-1.07,49.42-.55,20.8-.25,41.58,1.2,62.33,1.18,16.82,2.53,33.63,5.74,50.24a191.62,191.62,0,0,0,10.7,37.15c3.07,7.42,6.69,14.59,12.24,20.48,3.1,3.29,6.79,6,10.19,9a90.13,90.13,0,0,0,28,16.9,146.65,146.65,0,0,0,41.56,9.59c7.1.53,14.26.31,21.37.67q8.21.41,16.44.21c18-.43,37.33-1.53,53.69-9.62,7.87-3.89,16.63-6.91,23.65-12.3,3.57-2.74,7.09-5.56,10.62-8.36q2.89-2.3,5.74-4.64c6.66-5.47,11.28-12.65,16.31-19.49A66.31,66.31,0,0,0,428.61,480,117.84,117.84,0,0,0,435,449c.46-8.33.28-16.71.15-25.07-.15-9.84-.24-19.69-.91-29.49-1-14.62-2.38-29.21-3.76-43.79-2-20.72-3.92-41.43-6.15-62.12q-3.38-31.4-7.34-62.75C415.65,215.27,413.85,204.83,411.93,194.43ZM419,304c2.81,28.68,5.65,56.37,8.19,84.08,1,11.14,1.65,22.34,2,33.52.6,18.94-1.11,37.71-7.77,55.57S404.32,510,388.15,520.68c-9,6-18,12-27.86,16.57-7.31,3.37-15.08,5.22-22.84,7.06-14,3.32-28.34,3.09-42.59,2.59-9.81-.35-19.64-1-29.39-2.19-9.91-1.16-19.5-4-29-7-13.4-4.34-24.39-12.49-35.17-21.25-10-8.15-15.36-18.91-19.37-30.72-6.53-19.26-9.69-39.13-11.22-59.32-.57-7.49-1.19-15-1.68-22.46-1.09-16.58-1.33-33.18-1-49.79.37-16.35.69-32.7,1.09-49.06.35-14.38.81-28.76,1.18-43.15.28-11.19.36-22.38.77-33.56.64-17.71,1.93-35.37,6.34-52.63a68.89,68.89,0,0,1,4.07-11.44,21.55,21.55,0,0,1,8.83-10.15c5.08-2.9,10-2.45,14.18,1.7a34.53,34.53,0,0,1,5.29,7c3.8,6.54,6,13.74,7.77,21,4.75,19.45,6.68,39.33,8.41,59.19,1,11.25.72,22.62,1,33.93.07,3.07-.21,6.19.19,9.21.35,2.71-.66,4.13-2.93,5.13a9,9,0,0,0-2.16,1.4c-1,.86-2.51,1.83-1.52,3.26.51.73,2.11.94,3.22,1a9.61,9.61,0,0,0,3.17-.87c10.85-4,21.56-8.36,32.55-11.89,21.87-7,44.29-10.38,67.31-8.56,8.51.67,16.84,2.27,24.58,6a44.75,44.75,0,0,1,6.67,4.47c2,1.44,4.18,1.55,5.69.08s1.6-3.44.28-5.38a8.86,8.86,0,0,0-2-2.16,23.39,23.39,0,0,0-4.93-3.21c-2.46-1-3.12-2.59-3.23-5.06-.72-15.24-2-30.47-2.26-45.71-.35-20.53,2-40.79,9.24-60.19a83.87,83.87,0,0,1,6.76-13.06,11.11,11.11,0,0,1,7-5.1c4.48-1.13,8.26.17,11.37,3.52a46.58,46.58,0,0,1,8.47,13.34c5,11.42,9,23.16,11,35.49,1.65,10,3.18,19.94,4.42,29.95C413.11,254.07,416.09,279.52,419,304Z"/><path class="cls-22" d="M472.08,193.74c.24-1.26.44-2.34.64-3.43a18.45,18.45,0,0,0-2.33-13.13,10.86,10.86,0,0,0-10.81-5.63,15.36,15.36,0,0,0-12.69,7.77,39.4,39.4,0,0,0-3.71,9.16c-1.06,3.65-1.49,7.47-2.45,11.15-1.86,7.14-4.27,13.94-12.09,16.9-1.92.73-2.61,2.31-2.5,4.45.17,3.17.07,6.36,0,9.53s.93,4.08,4,4.46a65.85,65.85,0,0,1,6.83,1.35,7.16,7.16,0,0,1,5.35,4.55,29.19,29.19,0,0,0,4.16,6.9,10.66,10.66,0,0,0,4.65,3.43,33.32,33.32,0,0,0,15.63,1.56c8.58-1.42,13.08-9.1,10.4-17.34-.6-1.84-1.36-3.64-2-5.45,10.67-4.48,13.83-13,12.07-21.8C485.52,199.57,481,195,472.08,193.74Zm10.33,20.61a11.43,11.43,0,0,1-11,10.53c-1.23.06-2.54-.24-3.66.12a4.68,4.68,0,0,0-2.67,2c-.61,1.29.4,2.37,1.65,2.83,5.42,2,6.11,6.65,6.23,11.42.08,3.17-2.53,6.07-5.83,6.78a26,26,0,0,1-14.49-1.41c-1.74-.63-3-2.79-4.31-4.34a6.28,6.28,0,0,1-1.25-2.24c-1.7-5.53-5.88-7.9-11.14-9-1.56-.32-3.08-.75-4.68-1.14.1-3.21.18-6,.27-9,6.59-1.4,10.13-6.31,12.38-12,1.93-4.87,2.91-10.12,4.3-15.21.87-3.19,1.53-6.46,2.64-9.56a10.92,10.92,0,0,1,6.32-6.39c4.24-1.8,8-.21,9.42,4.16,1.72,5.13.79,10-2.05,14.47a20,20,0,0,0-2.29,3.76c-.31.87-.16,2.48.43,3a4,4,0,0,0,3.29.53c1.35-.45,2.43-1.62,3.7-2.38,4.6-2.73,7.75-1.85,10.42,2.81A18.15,18.15,0,0,1,482.41,214.35Z"/><path class="cls-22" d="M154.73,234.57c0-.74-.2-1.47-.21-2.2,0-3.44-1.62-5.51-5.06-6.22a10.6,10.6,0,0,1-7.66-6.36,37.55,37.55,0,0,1-2.45-8.05c-1-4.94-1.57-10-2.55-14.9a20.86,20.86,0,0,0-8.72-13.19c-4.92-3.56-9.87-3.87-15.22-1.14s-7.14,6.17-6.43,12c.19,1.54.37,3.08.59,4.9l-3.63-.28c-6.84-.51-11.62,3.53-12.22,10.38-.53,6,1.13,11.18,6.29,15.31-3.85,3-6,6.57-6.07,11.2A21.56,21.56,0,0,0,95.6,249.1a19.35,19.35,0,0,0,21.64,7c3.84-1.32,6.75-3.93,9.5-6.79a23.28,23.28,0,0,1,14.15-7.22c3.16-.41,6.28-1.14,9.41-1.76C154.16,239.6,155,238.55,154.73,234.57Zm-5.39-1.15c.08,1.59-1.17,1.48-2.07,2-3,1.84-6.55,1.47-9.79,2.42a31.6,31.6,0,0,0-14.73,8.65c-2.39,2.56-5.06,4.68-8.58,5.42-8.81,1.85-17-4.44-18.19-14.57a8.16,8.16,0,0,1,4.33-8.79,12.71,12.71,0,0,1,4.52-1c1.2-.15,2.46.1,3.66,0,1.52-.19,2.68-1.25,2.35-2.72-.21-.93-1.44-1.75-2.38-2.35a4.43,4.43,0,0,0-2.16-.18,10.71,10.71,0,0,1-9.68-15.17c.58-1.22,1.87-2.7,3-2.92,4-.75,8.09-.7,11.32,2.54a6.67,6.67,0,0,0,1.92,1.66,2.75,2.75,0,0,0,2.34-.06,3.86,3.86,0,0,0,1-2.52c0-.63-.63-1.28-.94-1.94a85,85,0,0,1-3.59-8c-.94-2.75-1.2-5.71,1.58-7.72s6.1-3.4,9.64-1.68c4.15,2,7.26,5.08,8.44,9.69.71,2.73,1.21,5.51,1.72,8.29.77,4.23,1.27,8.52,2.24,12.7,1.55,6.63,5.2,11.64,12,13.73A2.48,2.48,0,0,1,149.33,233.42Z"/><path class="cls-22" d="M360.53,395.79a53.74,53.74,0,0,0-31.67-12.68c-11.94-.66-23.87-.54-35.68,1.68-1.8.34-2.87,0-3.09-1.94-.47-4.14-1.08-8.27-1.38-12.42a4.65,4.65,0,0,1,1.42-3.13,83.2,83.2,0,0,1,6.43-5.54c2.3-1.85,4.7-3.57,7-5.37,1.15-.88,2-2,1.09-3.45s-2.3-1.32-3.59-.68a17.16,17.16,0,0,0-3.06,2c-3.55,2.86-7.12,5.68-10.54,8.68-1.42,1.24-2.62,1.34-3.78,0-2-2.17-3.81-4.45-5.62-6.75-.76-1-1.19-2.17-2-3.08-.4-.46-1.47-.87-1.88-.64a2.57,2.57,0,0,0-1.27,1.9,13.33,13.33,0,0,0,1.07,4.24,19.64,19.64,0,0,0,7.9,9c1.31.81,1.61,1.66,1.59,3.26a113.48,113.48,0,0,0,.66,11.37,26.15,26.15,0,0,0,.93,3.78c-1.73.21-3,.39-4.37.52-10,1-20.13,1.65-30.13,2.95-9.69,1.26-18.38,5.29-26.21,11.11a17.54,17.54,0,0,0-7.17,10.85,83.22,83.22,0,0,0-1.41,10.94c-.64,11.25.75,22.39,2.56,33.44a112.84,112.84,0,0,0,4.45,17.47c2.09,6.24,5.48,12,10.8,16,9.29,7.1,19.66,11.59,31.57,11.91,3.44.1,6.87.53,10.31.51a44.83,44.83,0,0,0,14.37-2.28c-7.17-1.13-14.06-2.29-21-3.26-2.38-.33-3.25-1.39-3.5-3.76-.61-5.75-1-11.61-2.47-17.16-1.18-4.47-.19-8.24,1.35-12.13a7,7,0,0,1,7.1-4.11c6.48.68,11.48-2,15.45-6.88a13.34,13.34,0,0,0,1.38-2.9,18.31,18.31,0,0,1,8.1,12.18c1.7,7.68,3,15.45,4.44,23.18.34,1.81.69,3.62,1.19,5.39a2.39,2.39,0,0,0,2.78,1.89,2.52,2.52,0,0,0,2.26-2.53,16.76,16.76,0,0,0,0-3.67c-.76-6.6-1.35-13.24-2.47-19.79a14,14,0,0,1,1.64-9.18c1.64-3.21,2.06-3.41,5.68-3.09.61.05,1.23,0,1.84,0a14,14,0,0,0,10.92-5.34c1.31-1.57,2.39-1.57,4.05-.59a18.8,18.8,0,0,1,8.19,9.66A64,64,0,0,1,341.33,476c.15,2,.32,3.93.65,5.87.4,2.27,1.68,3.31,3.41,3s2.68-1.69,2.2-4c-1.42-6.73-2.73-13.51-4.62-20.11a14.55,14.55,0,0,1,.12-9.33c1.71-4.8,4-6.26,9.16-5.89,6.83.49,13-.82,17.37-6.78.06-.09.37,0,.72,0a63.63,63.63,0,0,1-2.12,21.9,30.44,30.44,0,0,1-7.41,13c-3.24,3.34-6.08,7.05-9.37,10.92,8.7-2.34,15-7.35,19-14.91a54.21,54.21,0,0,0,6-26A117,117,0,0,0,373,417.11C371,408.85,367.26,401.32,360.53,395.79ZM260.15,494.12c-8.18-2.43-15.77-4.45-22.35-9.41s-9.62-11.6-11.34-19.18c-1-4.27-1.7-8.6-2.6-13.23,12.21,7,15.59,7.35,24,2.51a22.29,22.29,0,0,1,6.39,9.16A80.1,80.1,0,0,1,259,484.74C259.35,487.66,259.72,490.57,260.15,494.12Zm-8.28-80.52c-.3,8.23-.89,16.46-3.72,24.27a57.55,57.55,0,0,1-4.71,9.51c-1.44,2.44-3.8,3.21-6.69,2.6-6.26-1.31-10.71-4.63-12.83-10.83-3.09-9-2.55-18.14-.4-27.21a12.55,12.55,0,0,1,3.19-5.25c4.7-5,17.67-10.57,25.47-10.93C252.08,401.87,252.09,407.74,251.87,413.6Zm35.93-10.92a194.23,194.23,0,0,1-1,29.07,44.64,44.64,0,0,1-3.83,13.8c-4,8.38-13,9.43-18.64,2a32.79,32.79,0,0,1-6.63-22.47c.53-9.07.92-18.16,1.24-27.24.12-3.51.37-3.29,3.24-3.54l25.51-2.18C287.74,395.83,287.72,399.26,287.81,402.68Zm39.76-10.42c.18,3.68.42,7.36.45,11q.09,11.78-.05,23.55c-.09,7-3.3,12.69-8.18,17.56a8.68,8.68,0,0,1-9.39,2.42,28.91,28.91,0,0,1-5.5-2.22,25,25,0,0,1-7.29-6.28,15,15,0,0,1-2.48-4.5,21,21,0,0,1-1.33-6.12c-.09-8.62-.12-17.28,0-25.9,0-2.95.25-5.89.17-8.83,0-1.78.72-2.43,2.31-2.59,2-.2,3.9-.53,5.86-.7,5.32-.46,14.7-.62,22.06-.82C327.58,388.79,327.43,389.47,327.57,392.26Zm39.13,28c-.48,3.77-1.18,7.52-1.93,11.25-.88,4.36-3.88,6.59-8.08,6.83-8.18.46-15.64-1.36-21.41-7.77a5.55,5.55,0,0,1-1.53-4.24c.13-9.1,0-18.2,0-27.29,0-2.94-.1-5.89-.16-9.51,15.25,3.61,27.69,10,32.81,25.76A11.82,11.82,0,0,1,366.69,420.29Z"/><path class="cls-23" d="M370,338.76c1.33-.16,2.66-.41,4-.46,3.07-.13,5.15,1.45,5.3,3.92s-1.44,3.73-4.46,4.35a86.88,86.88,0,0,0-24,9.16c-3.85,2.09-7.88,4-10.74,7.62a3.76,3.76,0,0,1-4.41,1,4.24,4.24,0,0,1-2.91-3.93,24.77,24.77,0,0,1,.26-5.51,85.64,85.64,0,0,1,7.79-23.37c.78-1.63,1.61-3.52,4-3.23,1.46.18,2.14,2.1,1.64,5.12-.56,3.37-1.38,6.69-2.21,10.61,1.27-1.08,2.15-1.82,3-2.57a32.51,32.51,0,0,1,15.62-7.89C368,332.62,369.28,333.51,370,338.76Z"/><path class="cls-23" d="M211.32,353.29c-1.46-1.34-2.67-2.11-3.37-3.21a4.32,4.32,0,0,1-.67-3.25c.21-.62,1.91-1.23,2.77-1a31.19,31.19,0,0,1,8,2.54c4.09,2.21,7.88,5,12.52,8-2.14-3.68-3.94-6.79-5.77-9.89-.69-1.16-1.75-2.21-2.07-3.45a4.19,4.19,0,0,1,.65-3.28c1-1.17,2.5-.93,3.64.06a13,13,0,0,1,2.16,2.5,73.45,73.45,0,0,1,9.51,18.67,36.08,36.08,0,0,1,1.34,9.44c.13,3.08-2.82,4.82-5.69,3.64a7.13,7.13,0,0,1-1.58-.93c-9-6.87-19.27-11.31-29.94-14.88a16.15,16.15,0,0,1-3.43-1.32c-.75-.46-1.73-1.48-1.66-2.13a3.67,3.67,0,0,1,1.77-2.48,6.53,6.53,0,0,1,3.55-.44C205.61,352.11,208.11,352.69,211.32,353.29Z"/><path class="cls-23" d="M191.59,207.15a27.43,27.43,0,0,1-3.42,1.78c-1.49.5-2.32-.24-2.31-1.84,0-2.48,2-5.36,4.15-6.05,2.4-.77,4.71-.08,6.26,2.64a43.48,43.48,0,0,1,4.11,9.41c2.3,8,2.9,16.24,2.87,24.5,0,7.49-.47,15-.83,22.48a10.32,10.32,0,0,1-1,3.88,3.55,3.55,0,0,1-4,1.9,3.35,3.35,0,0,1-3-2.9,16.71,16.71,0,0,1,0-4c1.21-13.75,1.83-27.51-.31-41.22C193.56,214.21,192.48,210.82,191.59,207.15Z"/><path class="cls-23" d="M382.65,189.94a4.44,4.44,0,0,0-.18,1.62c0,1.6-.14,3.2-.05,4.8a287.56,287.56,0,0,0,7.43,51.8c.66,2.69-.29,5.41-1.93,5.76s-3.84-1.41-4.5-4.15a126.14,126.14,0,0,1-3.11-14.42c-1.56-12.94-2.82-25.92-4-38.91a39.94,39.94,0,0,1,.44-8.44,10.33,10.33,0,0,1,1.49-4.11c1.75-2.77,5.13-3.13,7.17-.63a14.06,14.06,0,0,1,3.14,7,6.79,6.79,0,0,1-1.11,4.31c-1.5,1.8-2.78-1.59-3.22-2.7-.17-.43-.44-1.83-.81-2.06S382.78,189.69,382.65,189.94Z"/><path class="cls-23" d="M400.74,404.1c.91,2.13-4.13.48-5.67,0a4.9,4.9,0,0,1-2.94-2.83c-.26-.89.74-2.59,1.67-3.28,3.23-2.42,6.66-4.56,10.82-7.35-2.56-.55-4.26-1-6-1.25-3-.41-6.1-.65-9.15-1a7.26,7.26,0,0,1-2.86-.55,6.88,6.88,0,0,1-2.73-2.64c-.69-1.51.21-2.92,1.56-3.75a70.3,70.3,0,0,1,17.7-8c.76-.21,2.2-.27,2.6.53s-.53,2-1.17,2.45A54.77,54.77,0,0,1,399,380c-1.79,1-3.63,2-6,3.28,3.75.56,6.86.88,9.9,1.53s6.58.81,7.54,4.35-2.29,5.35-4.52,7.35a25.19,25.19,0,0,1-3.54,2.65C400.64,400.18,399.55,401.33,400.74,404.1Z"/><path class="cls-23" d="M184.13,419.21a15.34,15.34,0,0,1-1.59-1.08c-1.66-1.4-1.88-2.84-.39-4.39a19.85,19.85,0,0,1,3.81-2.85c3-1.89,8.92-3.74,9-5.54.15-2.33-8.15-3.24-12.22-4.44a25.89,25.89,0,0,1-3.86-1.19c-3-1.45-3.3-4.29-.72-6.46a4.85,4.85,0,0,1,1.54-1c4.08-1.29,8.13-2.73,12.29-3.7a6.19,6.19,0,0,1,6.78,2.13l-14.94,5c3.75,1.14,6.93,2,10.06,3.1a21.37,21.37,0,0,1,4.69,2.11c3,1.93,3.38,4.91.86,7.44a27.9,27.9,0,0,1-4.68,3.56c-2.79,1.8-5.69,3.41-8.48,5.2A15.2,15.2,0,0,0,184.13,419.21Z"/></svg>