<?xml version="1.0" encoding="utf-8"?>
<!-- Generator: Adobe Illustrator 22.0.1, SVG Export Plug-In . SVG Version: 6.00 Build 0)  -->
<svg version="1.1" xmlns="http://www.w3.org/2000/svg" xmlns:xlink="http://www.w3.org/1999/xlink" x="0px" y="0px"
	 viewBox="0 0 1200 630" style="enable-background:new 0 0 1200 630;" xml:space="preserve">
<style type="text/css">
	.st0{fill:#244999;}
	.st1{clip-path:url(#SVGID_2_);fill:none;stroke:#FFFFFF;stroke-width:2;stroke-miterlimit:10;}
	.st2{clip-path:url(#SVGID_4_);fill:none;stroke:#FFFFFF;stroke-width:2;stroke-miterlimit:10;}
	.st3{clip-path:url(#SVGID_6_);fill:none;stroke:#FFFFFF;stroke-width:2;stroke-miterlimit:10;}
	.st4{clip-path:url(#SVGID_8_);fill:none;stroke:#FFFFFF;stroke-width:2;stroke-miterlimit:10;}
	.st5{clip-path:url(#SVGID_10_);fill:none;stroke:#FFFFFF;stroke-width:2;stroke-miterlimit:10;}
	.st6{clip-path:url(#SVGID_12_);fill:none;stroke:#FFFFFF;stroke-width:2;stroke-miterlimit:10;}
	.st7{clip-path:url(#SVGID_14_);fill:none;stroke:#FFFFFF;stroke-width:2;stroke-miterlimit:10;}
	.st8{clip-path:url(#SVGID_16_);fill:none;stroke:#FFFFFF;stroke-width:2;stroke-miterlimit:10;}
	.st9{clip-path:url(#SVGID_18_);fill:none;stroke:#FFFFFF;stroke-width:2;stroke-miterlimit:10;}
	.st10{clip-path:url(#SVGID_20_);fill:none;stroke:#FFFFFF;stroke-width:2;stroke-miterlimit:10;}
	.st11{clip-path:url(#SVGID_22_);fill:none;stroke:#FFFFFF;stroke-width:2;stroke-miterlimit:10;}
	.st12{clip-path:url(#SVGID_24_);fill:none;stroke:#FFFFFF;stroke-width:2;stroke-miterlimit:10;}
	.st13{clip-path:url(#SVGID_26_);fill:none;stroke:#FFFFFF;stroke-width:2;stroke-miterlimit:10;}
	.st14{clip-path:url(#SVGID_28_);fill:none;stroke:#FFFFFF;stroke-width:2;stroke-miterlimit:10;}
	.st15{clip-path:url(#SVGID_30_);fill:none;stroke:#FFFFFF;stroke-width:2;stroke-miterlimit:10;}
	.st16{clip-path:url(#SVGID_32_);fill:none;stroke:#FFFFFF;stroke-width:2;stroke-miterlimit:10;}
	.st17{clip-path:url(#SVGID_34_);fill:none;stroke:#FFFFFF;stroke-width:2;stroke-miterlimit:10;}
	.st18{clip-path:url(#SVGID_36_);fill:none;stroke:#FFFFFF;stroke-width:2;stroke-miterlimit:10;}
	.st19{clip-path:url(#SVGID_38_);fill:none;stroke:#FFFFFF;stroke-width:2;stroke-miterlimit:10;}
	.st20{clip-path:url(#SVGID_40_);fill:none;stroke:#FFFFFF;stroke-width:2;stroke-miterlimit:10;}
	.st21{clip-path:url(#SVGID_42_);fill:none;stroke:#FFFFFF;stroke-width:2;stroke-miterlimit:10;}
	.st22{clip-path:url(#SVGID_44_);fill:none;stroke:#FFFFFF;stroke-width:2;stroke-miterlimit:10;}
	.st23{fill:#EDC96E;}
	.st24{fill:url(#SVGID_45_);}
	.st25{fill:#FFFFFF;}
	.st26{fill:url(#SVGID_46_);}
	.st27{fill:url(#SVGID_47_);}
	.st28{fill:url(#SVGID_48_);}
	.st29{fill:url(#SVGID_49_);}
	.st30{fill:url(#SVGID_50_);}
	.st31{fill:url(#SVGID_51_);}
	.st32{fill:url(#SVGID_52_);}
	.st33{fill:url(#SVGID_53_);}
	.st34{fill:url(#SVGID_54_);}
	.st35{fill:url(#SVGID_55_);}
	.st36{fill:url(#SVGID_56_);}
	.st37{fill:url(#SVGID_57_);}
	.st38{fill:url(#SVGID_58_);}
	.st39{fill:url(#SVGID_59_);}
	.st40{fill:url(#SVGID_60_);}
	.st41{fill:url(#SVGID_61_);}
	.st42{fill:url(#SVGID_62_);}
	.st43{fill:url(#SVGID_63_);}
	.st44{fill:url(#SVGID_64_);}
	.st45{fill:url(#SVGID_65_);}
	.st46{fill:none;}
	.st47{fill:url(#SVGID_66_);}
	.st48{fill:url(#SVGID_67_);}
	.st49{fill:url(#SVGID_68_);}
	.st50{fill:url(#SVGID_69_);}
	.st51{fill:url(#SVGID_70_);}
	.st52{fill:url(#SVGID_71_);}
	.st53{fill:url(#SVGID_72_);}
	.st54{fill:url(#SVGID_73_);}
	.st55{fill:url(#SVGID_74_);}
	.st56{fill:url(#SVGID_75_);}
	.st57{fill:url(#SVGID_76_);}
	.st58{fill:url(#SVGID_77_);}
	.st59{fill:url(#SVGID_78_);}
	.st60{fill:url(#SVGID_79_);}
	.st61{fill:url(#SVGID_80_);}
	.st62{fill:url(#SVGID_81_);}
	.st63{fill:url(#SVGID_82_);}
	.st64{fill:url(#SVGID_83_);}
	.st65{fill:url(#SVGID_84_);}
	.st66{fill:url(#SVGID_85_);}
	.st67{fill:url(#SVGID_86_);}
	.st68{fill:url(#SVGID_87_);}
	.st69{fill:url(#SVGID_88_);}
	.st70{fill:url(#SVGID_89_);}
	.st71{fill:url(#SVGID_90_);}
	.st72{fill:url(#SVGID_91_);}
	.st73{fill:url(#SVGID_92_);}
	.st74{fill:url(#SVGID_93_);}
	.st75{fill:url(#SVGID_94_);}
	.st76{fill:url(#SVGID_95_);}
	.st77{fill:url(#SVGID_96_);}
	.st78{fill:url(#SVGID_97_);}
	.st79{fill:url(#SVGID_98_);}
	.st80{fill:url(#SVGID_99_);}
	.st81{fill:url(#SVGID_100_);}
	.st82{fill:url(#SVGID_101_);}
	.st83{fill:url(#SVGID_102_);}
	.st84{fill:url(#SVGID_103_);}
	.st85{fill:url(#SVGID_104_);}
	.st86{fill:url(#SVGID_105_);}
	.st87{fill:url(#SVGID_106_);}
	.st88{fill:url(#SVGID_107_);}
	.st89{fill:url(#SVGID_108_);}
	.st90{fill:url(#SVGID_109_);}
	.st91{fill:url(#SVGID_110_);}
	.st92{fill:url(#SVGID_111_);}
	.st93{fill:url(#SVGID_112_);}
	.st94{fill:url(#SVGID_113_);}
	.st95{fill:url(#SVGID_114_);}
	.st96{fill:url(#SVGID_115_);}
	.st97{fill:url(#SVGID_116_);}
	.st98{fill:url(#SVGID_117_);}
	.st99{fill:url(#SVGID_118_);}
	.st100{fill:url(#SVGID_119_);}
	.st101{fill:url(#SVGID_120_);}
	.st102{fill:url(#SVGID_121_);}
	.st103{fill:url(#SVGID_122_);}
	.st104{fill:url(#SVGID_123_);}
	.st105{fill:url(#SVGID_124_);}
	.st106{fill:url(#SVGID_125_);}
	.st107{fill:url(#SVGID_126_);}
	.st108{fill:url(#SVGID_127_);}
	.st109{fill:url(#SVGID_128_);}
	.st110{display:none;}
	.st111{display:inline;}
</style>
<g id="BG">
	<g>
		<rect class="st0" width="1200" height="630"/>
	</g>
</g>
<g id="elements">
	<g>
		<rect class="st0" width="413" height="630"/>
	</g>
	<g>
		<defs>
			<rect id="SVGID_5_" width="1200" height="630"/>
		</defs>
		<clipPath id="SVGID_2_">
			<use xlink:href="#SVGID_5_"  style="overflow:visible;"/>
		</clipPath>
		<path class="st1" d="M387.2-637.1c-10.4,87.2,56.2,175.9,164.1,236.2C409-246.3,354.4-64.1,430.8,41.6
			c92.2,127.5,339.9,95.3,553.3-72c213.4-167.3,311.7-406.3,219.5-533.8c-17.6-24.3-40.8-42.8-68.4-55.6
			c-52.9-90.4-179-167.5-332.7-192.7C588.9-847.6,403-769.1,387.2-637.1z"/>
		<path class="st1" d="M575.2,756.9c-10.4,87.2,56.2,175.9,164.1,236.2c-142.4,154.6-197,336.8-120.6,442.5
			c92.2,127.5,339.9,95.3,553.3-72c213.4-167.3,311.7-406.3,219.5-533.8c-17.6-24.3-40.8-42.8-68.4-55.6
			c-52.9-90.4-179-167.5-332.7-192.7C776.9,546.4,591,624.9,575.2,756.9z"/>
		<path class="st1" d="M-813.8,211.9c-10.4,87.2,56.2,175.9,164.1,236.2c-142.4,154.6-197,336.8-120.6,442.5
			c92.2,127.5,339.9,95.3,553.3-72C-3.5,651.3,94.8,412.3,2.7,284.8c-17.6-24.3-40.8-42.8-68.4-55.6
			c-52.9-90.4-179-167.5-332.7-192.7C-612.1,1.4-798,79.9-813.8,211.9z"/>
	</g>
</g>
<g id="text">
	<g>
		<path class="st23" d="M536,275c3.9,0,7.1,0.4,9.9,1.1c2.7,0.7,4.9,1.7,6.6,3c1.7,1.3,3,2.9,3.7,4.8c0.8,1.9,1.2,3.9,1.2,6.2
			c0,1.3-0.2,2.5-0.5,3.6c-0.4,1.2-0.9,2.2-1.7,3.3c-0.8,1-1.8,1.9-3,2.8c-1.2,0.8-2.6,1.6-4.3,2.2c3.7,0.9,6.4,2.3,8.2,4.3
			c1.8,2,2.6,4.6,2.6,7.7c0,2.4-0.5,4.6-1.4,6.6c-0.9,2-2.3,3.8-4,5.3c-1.8,1.5-4,2.7-6.6,3.6c-2.6,0.9-5.6,1.3-8.9,1.3h-22.3V275
			H536z M528.4,284.7v13.8h6.7c1.4,0,2.7-0.1,3.9-0.3c1.1-0.2,2.1-0.6,2.9-1.1c0.8-0.5,1.4-1.2,1.8-2.1c0.4-0.9,0.6-2,0.6-3.4
			c0-1.3-0.2-2.4-0.5-3.3c-0.3-0.9-0.8-1.6-1.5-2.1c-0.7-0.5-1.6-0.9-2.6-1.1c-1.1-0.2-2.3-0.3-3.8-0.3H528.4z M537.5,321.1
			c1.7,0,3.1-0.2,4.2-0.7c1.1-0.4,1.9-1,2.5-1.7c0.6-0.7,1-1.5,1.3-2.3c0.2-0.9,0.3-1.8,0.3-2.6c0-1-0.1-1.9-0.4-2.8
			c-0.3-0.8-0.7-1.5-1.4-2.1c-0.7-0.6-1.5-1-2.6-1.3s-2.4-0.5-4.1-0.5h-9v13.9H537.5z"/>
		<path class="st23" d="M579.8,285v13h17.6v9.6h-17.6v13.3h22.9v10h-36V275h36v10H579.8z"/>
		<path class="st23" d="M645.9,284.6h-22.2v46.2h-13V275h35.2V284.6z"/>
		<path class="st23" d="M695.9,330.8h-10c-1.1,0-2-0.3-2.7-0.8c-0.7-0.5-1.2-1.2-1.6-2l-3.3-9.7h-21.2l-3.3,9.7
			c-0.3,0.7-0.8,1.4-1.5,1.9c-0.7,0.6-1.6,0.9-2.7,0.9h-10.1l21.6-55.8h13.3L695.9,330.8z M675.4,309.5l-5.2-15.3
			c-0.4-1-0.8-2.1-1.2-3.4c-0.4-1.3-0.9-2.7-1.3-4.3c-0.4,1.6-0.8,3-1.2,4.3c-0.4,1.3-0.8,2.5-1.2,3.4l-5.1,15.2H675.4z"/>
		<path class="st23" d="M748.9,275v55.8h-13v-23.6h-22.7v23.6h-13V275h13v23.3h22.7V275H748.9z"/>
		<path class="st23" d="M550.6,376.6h-22.2v46.2h-13V367h35.2V376.6z"/>
		<path class="st23" d="M610.4,394.9c0,4-0.7,7.8-2.1,11.3c-1.4,3.5-3.4,6.5-5.9,9.1c-2.5,2.6-5.6,4.6-9.1,6
			c-3.6,1.5-7.5,2.2-11.9,2.2c-4.3,0-8.3-0.7-11.9-2.2c-3.6-1.5-6.6-3.5-9.2-6c-2.5-2.6-4.5-5.6-5.9-9.1c-1.4-3.5-2.1-7.2-2.1-11.3
			s0.7-7.8,2.1-11.3c1.4-3.5,3.4-6.5,5.9-9s5.6-4.6,9.2-6c3.6-1.5,7.5-2.2,11.9-2.2c4.3,0,8.3,0.7,11.9,2.2c3.6,1.5,6.6,3.5,9.1,6
			c2.5,2.6,4.5,5.6,5.9,9C609.7,387.1,610.4,390.9,610.4,394.9z M597.1,394.9c0-2.8-0.4-5.2-1.1-7.5c-0.7-2.2-1.7-4.1-3.1-5.6
			c-1.3-1.5-3-2.7-4.9-3.5c-1.9-0.8-4.2-1.2-6.6-1.2c-2.5,0-4.7,0.4-6.7,1.2s-3.6,2-4.9,3.5c-1.3,1.5-2.4,3.4-3.1,5.6
			c-0.7,2.2-1.1,4.7-1.1,7.5c0,2.8,0.4,5.3,1.1,7.5s1.7,4.1,3.1,5.6s3,2.7,4.9,3.5c2,0.8,4.2,1.2,6.7,1.2c2.5,0,4.7-0.4,6.6-1.2
			c1.9-0.8,3.6-2,4.9-3.5s2.4-3.4,3.1-5.6C596.7,400.2,597.1,397.7,597.1,394.9z"/>
		<path class="st23" d="M672.7,413.2v19.1c0,1.1-0.4,1.9-1.1,2.6c-0.8,0.6-1.7,1-2.9,1h-7.8v-13h-37.5v9.5c0,1.1-0.4,1.9-1.1,2.6
			c-0.8,0.6-1.7,1-2.9,1h-7.8v-22.7h6.3c0.6-0.4,1.3-1,2-1.8c0.7-0.8,1.3-2,1.9-3.5c0.6-1.5,1.2-3.4,1.8-5.6
			c0.6-2.3,1.1-5.1,1.5-8.4c0.5-3.3,0.8-7.2,1.2-11.6c0.3-4.4,0.6-9.5,0.7-15.3h37.6v46.2H672.7z M651.4,413.2v-36.6h-12.3
			c-0.3,4.8-0.7,9.2-1.2,13c-0.5,3.8-1,7.2-1.7,10.2c-0.6,3-1.3,5.6-2.1,7.8s-1.6,4.1-2.5,5.7H651.4z"/>
		<path class="st23" d="M730.3,422.8h-10c-1.1,0-2-0.3-2.7-0.8c-0.7-0.5-1.2-1.2-1.6-2l-3.3-9.7h-21.2l-3.3,9.7
			c-0.3,0.7-0.8,1.4-1.5,1.9c-0.7,0.6-1.6,0.9-2.7,0.9h-10.1l21.6-55.8h13.3L730.3,422.8z M709.7,401.5l-5.2-15.3
			c-0.4-1-0.8-2.1-1.2-3.4c-0.4-1.3-0.9-2.7-1.3-4.3c-0.4,1.6-0.8,3-1.2,4.3c-0.4,1.3-0.8,2.5-1.2,3.4l-5.1,15.2H709.7z"/>
	</g>
	<g>
		<g>
			<g>
				
					<linearGradient id="SVGID_4_" gradientUnits="userSpaceOnUse" x1="1034.0096" y1="-4393.8442" x2="1034.9497" y2="-4393.8442" gradientTransform="matrix(263.8323 0 0 -263.8323 -272666.5625 -1158740)">
					<stop  offset="0" style="stop-color:#CE8B00"/>
					<stop  offset="0.5237" style="stop-color:#DEAE1C"/>
					<stop  offset="1" style="stop-color:#CE8B00"/>
				</linearGradient>
				<path style="fill:url(#SVGID_4_);" d="M371.6,526.8H153.6c-8.2,0-15-6.7-15-15v-27.2c0-8.2,6.7-15,15-15h218.1
					c8.2,0,15,6.7,15,15v27.2C386.6,520.1,379.9,526.8,371.6,526.8z"/>
			</g>
			<g>
				<path class="st25" d="M176.7,493.8l-0.4,2.2c-0.1,0.6-0.3,1-0.7,1.2c-0.4,0.3-0.9,0.4-1.7,0.4h-1.1l-0.7,4.2h1.9
					c0.6,0,0.9,0.2,1.2,0.5c0.2,0.3,0.3,0.9,0.2,1.7l-0.3,1.7h-3.5l-1.2,7h-2.5c-0.2,0-0.5-0.1-0.7-0.2c-0.2-0.1-0.4-0.3-0.5-0.5
					c-0.1-0.2-0.3-0.4-0.3-0.7s-0.1-0.5,0-0.8l0.8-4.8h-2.9l-0.9,5.1c-0.1,0.3-0.2,0.6-0.3,0.9c-0.2,0.2-0.3,0.4-0.6,0.6
					c-0.2,0.2-0.5,0.3-0.7,0.3c-0.3,0.1-0.5,0.1-0.8,0.1h-2.4l1.2-7h-1.6c-0.6,0-0.9-0.2-1.2-0.5s-0.3-0.9-0.2-1.7l0.3-1.7h3.1
					l0.7-4.2h-3.5l0.4-2.2c0.1-0.5,0.3-0.9,0.7-1.2s0.9-0.4,1.7-0.4h1.2l0.9-5.2c0.1-0.6,0.4-1,0.8-1.3c0.4-0.3,0.9-0.5,1.5-0.5h2.5
					l-1.2,6.9h2.9l1.2-6.9h2.4c0.3,0,0.5,0,0.8,0.1c0.2,0.1,0.4,0.2,0.6,0.4c0.2,0.2,0.3,0.3,0.3,0.6c0.1,0.2,0.1,0.5,0,0.7
					l-0.9,5.1H176.7z M168.3,497.6h-2.9l-0.7,4.2h2.9L168.3,497.6z"/>
				<path class="st25" d="M185.3,497.2h1c0.9,0,1.5-0.3,1.9-0.8l5.8-8.4c0.3-0.4,0.7-0.8,1.1-0.9c0.4-0.2,0.9-0.3,1.5-0.3h5.2
					l-7.6,10.4c-0.5,0.7-1.1,1.2-1.7,1.6c0.4,0.2,0.9,0.4,1.2,0.7c0.4,0.3,0.7,0.7,1,1.1l7.8,11.9H197c-0.3,0-0.6,0-0.9-0.1
					s-0.5-0.1-0.6-0.2c-0.2-0.1-0.3-0.2-0.5-0.3c-0.1-0.1-0.3-0.3-0.4-0.5l-5.8-8.9c-0.2-0.3-0.5-0.6-0.8-0.7
					c-0.3-0.1-0.8-0.2-1.3-0.2h-1.4v10.9h-6v-25.7h6V497.2z"/>
				<path class="st25" d="M215,507.8c0.8,0,1.5-0.1,2.1-0.4s1.2-0.6,1.6-1.1s0.8-1.1,1-1.8c0.2-0.7,0.3-1.5,0.3-2.4v-15.2h6v15.2
					c0,1.6-0.3,3-0.8,4.3c-0.5,1.3-1.2,2.5-2.2,3.4s-2.1,1.7-3.5,2.2c-1.4,0.5-2.9,0.8-4.6,0.8c-1.7,0-3.3-0.3-4.6-0.8
					s-2.5-1.3-3.5-2.2s-1.7-2.1-2.2-3.4c-0.5-1.3-0.8-2.8-0.8-4.3v-15.2h6v15.2c0,0.9,0.1,1.7,0.3,2.4c0.2,0.7,0.6,1.3,1,1.8
					c0.4,0.5,1,0.9,1.6,1.1C213.5,507.7,214.2,507.8,215,507.8z"/>
				<path class="st25" d="M246.2,507.8v4.8h-15.5v-25.7h6v21H246.2z"/>
				<path class="st25" d="M272.6,499.7c0,1.9-0.3,3.6-1,5.1s-1.5,2.9-2.7,4.1s-2.6,2-4.2,2.7s-3.5,1-5.5,1h-10v-25.7h10
					c2,0,3.8,0.3,5.5,1c1.6,0.6,3,1.5,4.2,2.7s2.1,2.5,2.7,4.1C272.3,496.1,272.6,497.8,272.6,499.7z M266.5,499.7
					c0-1.3-0.2-2.4-0.5-3.4c-0.3-1-0.8-1.9-1.4-2.6c-0.6-0.7-1.4-1.3-2.3-1.6c-0.9-0.4-1.9-0.6-3.1-0.6h-4V508h4
					c1.1,0,2.2-0.2,3.1-0.6c0.9-0.4,1.7-0.9,2.3-1.6c0.6-0.7,1.1-1.6,1.4-2.6C266.3,502.1,266.5,501,266.5,499.7z"/>
				<path class="st25" d="M290.3,492.1c-0.2,0.3-0.4,0.5-0.6,0.6c-0.2,0.1-0.4,0.2-0.8,0.2c-0.3,0-0.6-0.1-0.9-0.3
					c-0.3-0.2-0.7-0.4-1.1-0.6s-0.8-0.4-1.4-0.6c-0.5-0.2-1.1-0.3-1.7-0.3c-1.1,0-2,0.2-2.5,0.7s-0.8,1.1-0.8,1.9
					c0,0.5,0.2,0.9,0.5,1.3c0.3,0.3,0.8,0.6,1.3,0.9s1.1,0.5,1.8,0.7s1.4,0.4,2.1,0.7s1.4,0.5,2.1,0.9c0.7,0.3,1.3,0.8,1.8,1.3
					c0.5,0.5,1,1.2,1.3,1.9c0.3,0.8,0.5,1.7,0.5,2.7c0,1.2-0.2,2.3-0.6,3.3s-1,1.9-1.8,2.7c-0.8,0.8-1.7,1.4-2.9,1.8
					s-2.5,0.7-3.9,0.7c-0.8,0-1.6-0.1-2.4-0.2c-0.8-0.2-1.6-0.4-2.4-0.7c-0.8-0.3-1.5-0.7-2.2-1.1s-1.3-0.9-1.8-1.4l1.8-2.8
					c0.1-0.2,0.3-0.4,0.6-0.5c0.2-0.1,0.5-0.2,0.8-0.2c0.4,0,0.7,0.1,1.1,0.3c0.4,0.2,0.8,0.5,1.2,0.7c0.5,0.3,1,0.5,1.6,0.7
					c0.6,0.2,1.3,0.3,2.1,0.3c1.1,0,1.9-0.2,2.5-0.7c0.6-0.5,0.9-1.2,0.9-2.3c0-0.6-0.2-1.1-0.5-1.5c-0.3-0.4-0.8-0.7-1.3-0.9
					c-0.5-0.2-1.1-0.5-1.8-0.7s-1.4-0.4-2.1-0.6s-1.4-0.5-2.1-0.8c-0.7-0.3-1.3-0.8-1.8-1.3c-0.5-0.5-1-1.2-1.3-2
					c-0.3-0.8-0.5-1.8-0.5-3c0-1,0.2-1.9,0.6-2.8s1-1.7,1.7-2.5s1.7-1.3,2.8-1.7s2.3-0.6,3.8-0.6c0.8,0,1.6,0.1,2.3,0.2
					c0.7,0.1,1.5,0.3,2.1,0.5c0.7,0.2,1.3,0.5,1.9,0.9c0.6,0.3,1.1,0.7,1.6,1.1L290.3,492.1z"/>
				<path class="st25" d="M306.4,507.8c0.8,0,1.5-0.1,2.1-0.4s1.2-0.6,1.6-1.1s0.8-1.1,1-1.8c0.2-0.7,0.3-1.5,0.3-2.4v-15.2h6v15.2
					c0,1.6-0.3,3-0.8,4.3c-0.5,1.3-1.2,2.5-2.2,3.4s-2.1,1.7-3.5,2.2c-1.4,0.5-2.9,0.8-4.6,0.8c-1.7,0-3.3-0.3-4.6-0.8
					s-2.5-1.3-3.5-2.2s-1.7-2.1-2.2-3.4c-0.5-1.3-0.8-2.8-0.8-4.3v-15.2h6v15.2c0,0.9,0.1,1.7,0.3,2.4c0.2,0.7,0.6,1.3,1,1.8
					c0.4,0.5,1,0.9,1.6,1.1C304.9,507.7,305.6,507.8,306.4,507.8z M305.1,483.1c0,0.4-0.1,0.7-0.2,1c-0.1,0.3-0.3,0.6-0.6,0.8
					c-0.3,0.2-0.6,0.4-0.9,0.6c-0.3,0.1-0.7,0.2-1.1,0.2c-0.4,0-0.7-0.1-1-0.2c-0.3-0.1-0.6-0.3-0.9-0.6c-0.2-0.2-0.4-0.5-0.6-0.8
					c-0.1-0.3-0.2-0.7-0.2-1c0-0.4,0.1-0.7,0.2-1c0.1-0.3,0.3-0.6,0.6-0.9s0.5-0.4,0.9-0.6c0.3-0.1,0.7-0.2,1-0.2
					c0.4,0,0.8,0.1,1.1,0.2c0.3,0.1,0.6,0.3,0.9,0.6c0.3,0.2,0.5,0.5,0.6,0.9S305.1,482.7,305.1,483.1z M313.2,483.1
					c0,0.4-0.1,0.7-0.2,1c-0.1,0.3-0.3,0.6-0.6,0.8c-0.2,0.2-0.5,0.4-0.9,0.6s-0.7,0.2-1.1,0.2c-0.4,0-0.7-0.1-1.1-0.2
					c-0.3-0.1-0.6-0.3-0.9-0.6c-0.2-0.2-0.4-0.5-0.6-0.8c-0.1-0.3-0.2-0.7-0.2-1c0-0.4,0.1-0.7,0.2-1c0.1-0.3,0.3-0.6,0.6-0.9
					s0.5-0.4,0.9-0.6c0.3-0.1,0.7-0.2,1.1-0.2c0.4,0,0.7,0.1,1.1,0.2c0.3,0.1,0.6,0.3,0.9,0.6s0.4,0.5,0.6,0.9
					S313.2,482.7,313.2,483.1z"/>
				<path class="st25" d="M345.5,499.7c0,1.9-0.3,3.6-1,5.1s-1.5,2.9-2.7,4.1s-2.6,2-4.2,2.7s-3.5,1-5.5,1h-10v-25.7h10
					c2,0,3.8,0.3,5.5,1c1.6,0.6,3,1.5,4.2,2.7s2.1,2.5,2.7,4.1C345.1,496.1,345.5,497.8,345.5,499.7z M339.4,499.7
					c0-1.3-0.2-2.4-0.5-3.4c-0.3-1-0.8-1.9-1.4-2.6c-0.6-0.7-1.4-1.3-2.3-1.6c-0.9-0.4-1.9-0.6-3.1-0.6h-4V508h4
					c1.1,0,2.2-0.2,3.1-0.6c0.9-0.4,1.7-0.9,2.3-1.6c0.6-0.7,1.1-1.6,1.4-2.6C339.2,502.1,339.4,501,339.4,499.7z"/>
				<path class="st25" d="M371.2,512.6h-4.6c-0.5,0-0.9-0.1-1.3-0.4c-0.3-0.2-0.6-0.5-0.7-0.9l-1.5-4.5h-9.8l-1.5,4.5
					c-0.1,0.3-0.4,0.6-0.7,0.9c-0.3,0.3-0.8,0.4-1.2,0.4h-4.7l10-25.7h6.1L371.2,512.6z M361.7,502.7l-2.4-7c-0.2-0.4-0.4-1-0.6-1.6
					c-0.2-0.6-0.4-1.3-0.6-2c-0.2,0.7-0.4,1.4-0.6,2c-0.2,0.6-0.4,1.1-0.6,1.6l-2.4,7H361.7z"/>
			</g>
		</g>
		<g>
			<linearGradient id="SVGID_6_" gradientUnits="userSpaceOnUse" x1="286.7489" y1="-89.0048" x2="468.0839" y2="813.6848">
				<stop  offset="0" style="stop-color:#663800"/>
				<stop  offset="0.3976" style="stop-color:#FFD373"/>
				<stop  offset="1" style="stop-color:#CEA040"/>
			</linearGradient>
			<path style="fill:url(#SVGID_6_);" d="M387.6,151.4c-28.8-12.3-65.8,1.7-97.2,32.6c8,13.2,15.2,27.6,21.3,43
				c29.1,72.6,25.7,144.1-4.7,178.6c36.2-9.1,75.2-44.5,99.1-94.6C439.6,241.4,431.2,169.9,387.6,151.4z"/>
			<linearGradient id="SVGID_8_" gradientUnits="userSpaceOnUse" x1="142.8179" y1="-60.0915" x2="324.1528" y2="842.598">
				<stop  offset="0" style="stop-color:#663800"/>
				<stop  offset="0.3976" style="stop-color:#FFD373"/>
				<stop  offset="1" style="stop-color:#CEA040"/>
			</linearGradient>
			<path style="fill:url(#SVGID_8_);" d="M267,403.4c-43.6-18.5-51.9-90-18.6-159.6c11.3-23.6,26-44,42.1-59.9
				c-38.7-64.1-95.6-101-139.4-85.4C98.3,117.4,84.6,205.3,120.6,295c35.9,89.7,107.9,147.2,160.7,128.3
				c10.1-3.6,18.7-9.7,25.8-17.8C293,409.1,279.3,408.6,267,403.4z"/>
			<path class="st25" d="M311.8,226.9c-6.1-15.3-13.4-29.7-21.3-43c-16.1,15.9-30.8,36.2-42.1,59.9c-33.3,69.6-25,141.1,18.6,159.6
				c12.2,5.2,26,5.7,40.1,2.1C337.5,371,340.9,299.5,311.8,226.9z"/>
		</g>
	</g>
	<g>
		<g>
			<g>
				
					<linearGradient id="SVGID_10_" gradientUnits="userSpaceOnUse" x1="1034.0096" y1="-4393.8442" x2="1034.9497" y2="-4393.8442" gradientTransform="matrix(263.8323 0 0 -263.8323 -272666.5625 -1158740)">
					<stop  offset="0" style="stop-color:#CE8B00"/>
					<stop  offset="0.5237" style="stop-color:#DEAE1C"/>
					<stop  offset="1" style="stop-color:#CE8B00"/>
				</linearGradient>
				<path style="fill:url(#SVGID_10_);" d="M371.6,526.8H153.6c-8.2,0-15-6.7-15-15v-27.2c0-8.2,6.7-15,15-15h218.1
					c8.2,0,15,6.7,15,15v27.2C386.6,520.1,379.9,526.8,371.6,526.8z"/>
			</g>
			<g>
				<path class="st25" d="M162.8,495.6l-0.3,1.5c-0.1,0.4-0.2,0.7-0.5,0.8c-0.2,0.2-0.6,0.3-1.2,0.3h-0.8l-0.5,2.8h1.3
					c0.4,0,0.6,0.1,0.8,0.3c0.2,0.2,0.2,0.6,0.1,1.1l-0.2,1.2h-2.4l-0.8,4.7h-1.7c-0.2,0-0.3,0-0.5-0.1c-0.1-0.1-0.3-0.2-0.4-0.3
					c-0.1-0.1-0.2-0.3-0.2-0.5c0-0.2,0-0.4,0-0.6l0.6-3.3h-2l-0.6,3.4c0,0.2-0.1,0.4-0.2,0.6s-0.2,0.3-0.4,0.4
					c-0.1,0.1-0.3,0.2-0.5,0.2c-0.2,0-0.4,0.1-0.6,0.1h-1.7l0.8-4.7h-1.1c-0.4,0-0.6-0.1-0.8-0.3c-0.2-0.2-0.2-0.6-0.1-1.1l0.2-1.2
					h2.1l0.5-2.8h-2.4l0.3-1.5c0.1-0.4,0.2-0.6,0.5-0.8c0.2-0.2,0.6-0.3,1.2-0.3h0.8l0.6-3.5c0.1-0.4,0.3-0.7,0.5-0.9
					c0.3-0.2,0.6-0.3,1-0.3h1.7l-0.8,4.7h2l0.8-4.7h1.7c0.2,0,0.4,0,0.5,0.1c0.2,0.1,0.3,0.1,0.4,0.3c0.1,0.1,0.2,0.2,0.2,0.4
					c0,0.1,0.1,0.3,0,0.5l-0.6,3.5H162.8z M157,498.2h-2l-0.5,2.8h2L157,498.2z"/>
				<path class="st25" d="M163.5,492.5c0.7-0.6,1.5-1,2.5-1.4c1-0.3,2.1-0.5,3.2-0.5c1,0,1.9,0.1,2.7,0.3c0.8,0.2,1.5,0.5,2,1
					c0.6,0.4,1,0.9,1.3,1.5c0.3,0.6,0.5,1.2,0.5,1.9c0,0.8-0.2,1.5-0.5,2.2c-0.3,0.7-0.9,1.2-1.6,1.7c0.4,0.2,0.7,0.4,1,0.7
					c0.3,0.3,0.6,0.5,0.8,0.8s0.4,0.6,0.5,1c0.1,0.3,0.2,0.7,0.2,1.1c0,0.8-0.1,1.6-0.5,2.3c-0.3,0.7-0.7,1.3-1.3,1.8
					c-0.6,0.5-1.3,0.9-2.1,1.2s-1.8,0.5-2.9,0.5c-0.6,0-1.2-0.1-1.8-0.2c-0.6-0.1-1.2-0.3-1.8-0.5s-1.1-0.4-1.6-0.7
					c-0.5-0.3-0.9-0.6-1.3-0.9l1.2-1.9c0.1-0.1,0.2-0.2,0.4-0.3c0.2-0.1,0.3-0.1,0.5-0.1c0.2,0,0.5,0.1,0.8,0.2
					c0.3,0.2,0.6,0.3,0.9,0.5c0.3,0.2,0.7,0.4,1.2,0.5c0.5,0.2,1,0.2,1.6,0.2c0.4,0,0.8,0,1.2-0.1s0.7-0.2,0.9-0.4
					c0.2-0.2,0.4-0.4,0.6-0.7c0.1-0.3,0.2-0.7,0.2-1.1c0-0.3-0.1-0.6-0.2-0.9c-0.1-0.3-0.4-0.5-0.6-0.7c-0.3-0.2-0.6-0.3-1-0.4
					c-0.4-0.1-0.8-0.1-1.2-0.1h-2.5l0-3.1h2.2c1,0,1.8-0.2,2.2-0.5c0.5-0.3,0.7-0.8,0.7-1.5c0-0.6-0.2-1-0.7-1.3
					c-0.4-0.3-1.1-0.5-2-0.5c-0.5,0-1,0.1-1.4,0.2s-0.7,0.2-1,0.4c-0.3,0.1-0.6,0.3-0.8,0.4c-0.2,0.1-0.4,0.2-0.6,0.2
					c-0.2,0-0.4,0-0.5-0.1c-0.1-0.1-0.3-0.2-0.4-0.4L163.5,492.5z"/>
				<path class="st25" d="M195.8,499.6c0,1.3-0.2,2.4-0.7,3.5s-1.1,2-1.8,2.8c-0.8,0.8-1.7,1.4-2.9,1.9c-1.1,0.5-2.4,0.7-3.7,0.7
					c-1.4,0-2.6-0.2-3.7-0.7c-1.1-0.5-2.1-1.1-2.9-1.9c-0.8-0.8-1.4-1.8-1.9-2.8s-0.7-2.3-0.7-3.5s0.2-2.4,0.7-3.5s1.1-2,1.9-2.8
					c0.8-0.8,1.8-1.4,2.9-1.9c1.1-0.5,2.4-0.7,3.7-0.7c1.4,0,2.6,0.2,3.7,0.7s2.1,1.1,2.9,1.9c0.8,0.8,1.4,1.7,1.8,2.8
					C195.6,497.2,195.8,498.4,195.8,499.6z M191.7,499.6c0-0.9-0.1-1.6-0.3-2.3c-0.2-0.7-0.5-1.3-1-1.8c-0.4-0.5-0.9-0.8-1.5-1.1
					c-0.6-0.3-1.3-0.4-2.1-0.4c-0.8,0-1.5,0.1-2.1,0.4c-0.6,0.3-1.1,0.6-1.6,1.1c-0.4,0.5-0.7,1.1-1,1.8c-0.2,0.7-0.3,1.5-0.3,2.3
					c0,0.9,0.1,1.7,0.3,2.3c0.2,0.7,0.5,1.3,1,1.8c0.4,0.5,0.9,0.8,1.6,1.1c0.6,0.3,1.3,0.4,2.1,0.4c0.8,0,1.5-0.1,2.1-0.4
					c0.6-0.3,1.1-0.6,1.5-1.1c0.4-0.5,0.7-1.1,1-1.8C191.6,501.3,191.7,500.5,191.7,499.6z"/>
				<path class="st25" d="M212.7,508.4h-4.1v-14.5h-3.9c-0.1,2.1-0.3,4-0.5,5.6c-0.2,1.6-0.5,2.9-0.8,4c-0.3,1.1-0.6,2-1,2.6
					c-0.4,0.7-0.8,1.2-1.3,1.6c-0.5,0.4-0.9,0.6-1.5,0.8s-1.1,0.2-1.7,0.2c-0.7,0-1.2-0.1-1.5-0.2s-0.4-0.3-0.4-0.5v-2.5h1
					c0.2,0,0.4,0,0.6,0c0.2,0,0.4-0.1,0.6-0.3c0.2-0.1,0.4-0.3,0.6-0.6c0.2-0.3,0.4-0.6,0.6-1.1c0.2-0.5,0.4-1.1,0.5-1.8
					c0.2-0.7,0.3-1.6,0.4-2.6c0.1-1,0.2-2.2,0.3-3.5c0.1-1.3,0.2-2.9,0.2-4.6h11.8V508.4z"/>
				<path class="st25" d="M233.3,499.6c0,1.3-0.2,2.4-0.7,3.5s-1.1,2-1.8,2.8c-0.8,0.8-1.7,1.4-2.9,1.9c-1.1,0.5-2.4,0.7-3.7,0.7
					c-1.4,0-2.6-0.2-3.7-0.7c-1.1-0.5-2.1-1.1-2.9-1.9c-0.8-0.8-1.4-1.8-1.9-2.8s-0.7-2.3-0.7-3.5s0.2-2.4,0.7-3.5s1.1-2,1.9-2.8
					c0.8-0.8,1.8-1.4,2.9-1.9c1.1-0.5,2.4-0.7,3.7-0.7c1.4,0,2.6,0.2,3.7,0.7s2.1,1.1,2.9,1.9c0.8,0.8,1.4,1.7,1.8,2.8
					C233.1,497.2,233.3,498.4,233.3,499.6z M229.2,499.6c0-0.9-0.1-1.6-0.3-2.3c-0.2-0.7-0.5-1.3-1-1.8c-0.4-0.5-0.9-0.8-1.5-1.1
					c-0.6-0.3-1.3-0.4-2.1-0.4c-0.8,0-1.5,0.1-2.1,0.4c-0.6,0.3-1.1,0.6-1.6,1.1c-0.4,0.5-0.7,1.1-1,1.8c-0.2,0.7-0.3,1.5-0.3,2.3
					c0,0.9,0.1,1.7,0.3,2.3c0.2,0.7,0.5,1.3,1,1.8c0.4,0.5,0.9,0.8,1.6,1.1c0.6,0.3,1.3,0.4,2.1,0.4c0.8,0,1.5-0.1,2.1-0.4
					c0.6-0.3,1.1-0.6,1.5-1.1c0.4-0.5,0.7-1.1,1-1.8C229,501.3,229.2,500.5,229.2,499.6z"/>
				<path class="st25" d="M247.9,494.1h-4.9v14.3h-4.1v-14.3H234v-3.2h13.9V494.1z"/>
				<path class="st25" d="M266.7,499.6c0,1.3-0.2,2.4-0.7,3.5s-1.1,2-1.8,2.8c-0.8,0.8-1.7,1.4-2.9,1.9c-1.1,0.5-2.4,0.7-3.7,0.7
					c-1.4,0-2.6-0.2-3.7-0.7c-1.1-0.5-2.1-1.1-2.9-1.9c-0.8-0.8-1.4-1.8-1.9-2.8s-0.7-2.3-0.7-3.5s0.2-2.4,0.7-3.5s1.1-2,1.9-2.8
					c0.8-0.8,1.8-1.4,2.9-1.9c1.1-0.5,2.4-0.7,3.7-0.7c1.4,0,2.6,0.2,3.7,0.7s2.1,1.1,2.9,1.9c0.8,0.8,1.4,1.7,1.8,2.8
					C266.5,497.2,266.7,498.4,266.7,499.6z M262.5,499.6c0-0.9-0.1-1.6-0.3-2.3c-0.2-0.7-0.5-1.3-1-1.8c-0.4-0.5-0.9-0.8-1.5-1.1
					c-0.6-0.3-1.3-0.4-2.1-0.4c-0.8,0-1.5,0.1-2.1,0.4c-0.6,0.3-1.1,0.6-1.6,1.1c-0.4,0.5-0.7,1.1-1,1.8c-0.2,0.7-0.3,1.5-0.3,2.3
					c0,0.9,0.1,1.7,0.3,2.3c0.2,0.7,0.5,1.3,1,1.8c0.4,0.5,0.9,0.8,1.6,1.1c0.6,0.3,1.3,0.4,2.1,0.4c0.8,0,1.5-0.1,2.1-0.4
					c0.6-0.3,1.1-0.6,1.5-1.1c0.4-0.5,0.7-1.1,1-1.8C262.4,501.3,262.5,500.5,262.5,499.6z"/>
				<path class="st25" d="M273.2,494v4.1h5.5v3h-5.5v4.2h7.2v3.1h-11.3v-17.5h11.3v3.1H273.2z"/>
				<path class="st25" d="M294.3,503.8c0.1,0,0.2,0,0.3,0.1s0.2,0.1,0.3,0.2l1.6,1.7c-0.7,0.9-1.6,1.6-2.6,2.1s-2.3,0.7-3.8,0.7
					c-1.3,0-2.5-0.2-3.6-0.7c-1.1-0.5-1.9-1.1-2.7-1.9c-0.7-0.8-1.3-1.7-1.7-2.8c-0.4-1.1-0.6-2.3-0.6-3.6c0-1.3,0.2-2.5,0.6-3.6
					s1-2,1.8-2.8c0.8-0.8,1.7-1.4,2.8-1.9s2.3-0.7,3.5-0.7c0.7,0,1.3,0.1,1.9,0.2s1.1,0.3,1.6,0.5c0.5,0.2,1,0.5,1.4,0.7
					c0.4,0.3,0.8,0.6,1.1,0.9l-1.4,1.8c-0.1,0.1-0.2,0.2-0.3,0.3c-0.1,0.1-0.3,0.1-0.5,0.1c-0.1,0-0.3,0-0.4-0.1
					c-0.1-0.1-0.3-0.1-0.4-0.2c-0.1-0.1-0.3-0.2-0.5-0.3c-0.2-0.1-0.4-0.2-0.6-0.3s-0.5-0.2-0.8-0.2s-0.7-0.1-1.1-0.1
					c-0.7,0-1.3,0.1-1.8,0.4c-0.6,0.2-1,0.6-1.4,1.1c-0.4,0.5-0.7,1.1-0.9,1.8c-0.2,0.7-0.3,1.5-0.3,2.4c0,0.9,0.1,1.7,0.4,2.4
					c0.2,0.7,0.6,1.3,1,1.8s0.9,0.8,1.5,1.1c0.6,0.2,1.2,0.4,1.8,0.4c0.4,0,0.7,0,1-0.1c0.3,0,0.6-0.1,0.9-0.2
					c0.3-0.1,0.5-0.2,0.7-0.3c0.2-0.1,0.5-0.3,0.7-0.5c0.1-0.1,0.2-0.1,0.3-0.2C294.1,503.9,294.2,503.8,294.3,503.8z"/>
				<path class="st25" d="M302.3,494v4.1h5.5v3h-5.5v4.2h7.2v3.1h-11.3v-17.5h11.3v3.1H302.3z"/>
				<path class="st25" d="M318.2,490.9c1.2,0,2.3,0.1,3.2,0.4c0.9,0.3,1.6,0.7,2.2,1.2s1,1.1,1.3,1.8c0.3,0.7,0.4,1.5,0.4,2.3
					c0,0.9-0.1,1.7-0.4,2.4c-0.3,0.7-0.7,1.4-1.3,1.9c-0.6,0.5-1.3,0.9-2.2,1.2c-0.9,0.3-1.9,0.4-3.1,0.4h-2.1v5.9H312v-17.5H318.2z
					 M318.2,499.5c1.1,0,1.8-0.3,2.3-0.8s0.7-1.2,0.7-2.1c0-0.4-0.1-0.8-0.2-1.1c-0.1-0.3-0.3-0.6-0.5-0.8c-0.2-0.2-0.6-0.4-0.9-0.5
					c-0.4-0.1-0.8-0.2-1.3-0.2h-2.1v5.6H318.2z"/>
				<path class="st25" d="M343.3,505.4v6c0,0.3-0.1,0.6-0.4,0.8c-0.2,0.2-0.5,0.3-0.9,0.3h-2.5v-4.1h-11.8v3c0,0.3-0.1,0.6-0.4,0.8
					s-0.5,0.3-0.9,0.3h-2.5v-7.1h2c0.2-0.1,0.4-0.3,0.6-0.6c0.2-0.3,0.4-0.6,0.6-1.1s0.4-1.1,0.6-1.8c0.2-0.7,0.3-1.6,0.5-2.6
					s0.3-2.2,0.4-3.6c0.1-1.4,0.2-3,0.2-4.8h11.8v14.5H343.3z M336.6,505.4v-11.5h-3.9c-0.1,1.5-0.2,2.9-0.4,4.1
					c-0.2,1.2-0.3,2.3-0.5,3.2c-0.2,0.9-0.4,1.7-0.7,2.4c-0.2,0.7-0.5,1.3-0.8,1.8H336.6z"/>
				<path class="st25" d="M362.6,505.4v6c0,0.3-0.1,0.6-0.4,0.8s-0.5,0.3-0.9,0.3h-2.5v-4.1h-13.4v-17.5h4.1v14.5h6.6v-14.5h4.1
					v14.5H362.6z"/>
				<path class="st25" d="M369,494v4.1h5.5v3H369v4.2h7.2v3.1h-11.3v-17.5h11.3v3.1H369z"/>
			</g>
		</g>
		<g>
			<linearGradient id="SVGID_12_" gradientUnits="userSpaceOnUse" x1="286.7489" y1="-89.0048" x2="468.0839" y2="813.6848">
				<stop  offset="0" style="stop-color:#663800"/>
				<stop  offset="0.3976" style="stop-color:#FFD373"/>
				<stop  offset="1" style="stop-color:#CEA040"/>
			</linearGradient>
			<path style="fill:url(#SVGID_12_);" d="M387.6,151.4c-28.8-12.3-65.8,1.7-97.2,32.6c8,13.2,15.2,27.6,21.3,43
				c29.1,72.6,25.7,144.1-4.7,178.6c36.2-9.1,75.2-44.5,99.1-94.6C439.6,241.4,431.2,169.9,387.6,151.4z"/>
			<linearGradient id="SVGID_14_" gradientUnits="userSpaceOnUse" x1="142.8179" y1="-60.0915" x2="324.1528" y2="842.598">
				<stop  offset="0" style="stop-color:#663800"/>
				<stop  offset="0.3976" style="stop-color:#FFD373"/>
				<stop  offset="1" style="stop-color:#CEA040"/>
			</linearGradient>
			<path style="fill:url(#SVGID_14_);" d="M267,403.4c-43.6-18.5-51.9-90-18.6-159.6c11.3-23.6,26-44,42.1-59.9
				c-38.7-64.1-95.6-101-139.4-85.4C98.3,117.4,84.6,205.3,120.6,295c35.9,89.7,107.9,147.2,160.7,128.3
				c10.1-3.6,18.7-9.7,25.8-17.8C293,409.1,279.3,408.6,267,403.4z"/>
			<path class="st25" d="M311.8,226.9c-6.1-15.3-13.4-29.7-21.3-43c-16.1,15.9-30.8,36.2-42.1,59.9c-33.3,69.6-25,141.1,18.6,159.6
				c12.2,5.2,26,5.7,40.1,2.1C337.5,371,340.9,299.5,311.8,226.9z"/>
		</g>
	</g>
</g>
<g id="nimed" class="st110">
	<g class="st111">
		<path class="st25" d="M518.5,187.9v7.8h9.9v4h-9.9v8h12.5v4.2h-17.8v-28.2h17.8v4.2H518.5z"/>
		<path class="st25" d="M540.8,212.2c-1.7,0-3.1-0.5-4-1.5c-0.9-1-1.4-2.3-1.4-4.1v-11.2h-2c-0.3,0-0.5-0.1-0.7-0.3
			c-0.2-0.2-0.3-0.4-0.3-0.8v-1.9l3.2-0.5l1-5.5c0.1-0.3,0.2-0.5,0.4-0.6c0.2-0.1,0.4-0.2,0.7-0.2h2.5v6.3h8.3l1-5.5
			c0.1-0.3,0.2-0.5,0.4-0.6s0.4-0.2,0.7-0.2h2.5v6.3h5.3v3.4h-5.3v10.8c0,0.6,0.2,1.1,0.5,1.5c0.3,0.3,0.7,0.5,1.3,0.5
			c0.3,0,0.5,0,0.7-0.1c0.2-0.1,0.4-0.1,0.5-0.2c0.1-0.1,0.3-0.2,0.4-0.2c0.1-0.1,0.2-0.1,0.4-0.1c0.1,0,0.3,0,0.4,0.1
			c0.1,0.1,0.2,0.2,0.3,0.3l1.4,2.3c-0.7,0.6-1.5,1-2.4,1.3c-0.9,0.3-1.9,0.4-2.8,0.4c-1.7,0-3.1-0.5-4-1.5s-1.4-2.3-1.4-4.1v-11.2
			h-8.1v10.8c0,0.6,0.2,1.1,0.5,1.5c0.3,0.3,0.7,0.5,1.3,0.5c0.3,0,0.5,0,0.8-0.1c0.2-0.1,0.4-0.1,0.5-0.2c0.1-0.1,0.3-0.2,0.4-0.2
			c0.1-0.1,0.2-0.1,0.4-0.1c0.1,0,0.3,0,0.4,0.1c0.1,0.1,0.2,0.2,0.3,0.3l1.4,2.3c-0.7,0.6-1.5,1-2.4,1.3
			C542.7,212.1,541.8,212.2,540.8,212.2z"/>
		<path class="st25" d="M565.1,202.5c0.1,1,0.3,1.9,0.5,2.7c0.3,0.7,0.7,1.4,1.1,1.9c0.5,0.5,1,0.8,1.7,1.1c0.6,0.2,1.4,0.4,2.1,0.4
			c0.8,0,1.5-0.1,2-0.3c0.6-0.2,1.1-0.4,1.5-0.6c0.4-0.2,0.8-0.4,1.1-0.6c0.3-0.2,0.6-0.3,0.9-0.3c0.4,0,0.7,0.2,0.9,0.4l1.4,1.8
			c-0.5,0.6-1.1,1.1-1.8,1.6c-0.7,0.4-1.4,0.8-2.1,1c-0.7,0.3-1.5,0.4-2.2,0.5c-0.7,0.1-1.5,0.2-2.2,0.2c-1.4,0-2.7-0.2-3.9-0.7
			s-2.2-1.1-3.1-2c-0.9-0.9-1.6-2-2.1-3.4c-0.5-1.3-0.8-2.9-0.8-4.6c0-1.4,0.2-2.6,0.7-3.8c0.4-1.2,1.1-2.2,1.9-3.1s1.8-1.6,3-2.1
			c1.2-0.5,2.5-0.8,4-0.8c1.3,0,2.4,0.2,3.5,0.6c1.1,0.4,2,1,2.7,1.8c0.8,0.8,1.4,1.7,1.8,2.8c0.4,1.1,0.7,2.4,0.7,3.8
			c0,0.7-0.1,1.2-0.2,1.5c-0.2,0.3-0.5,0.4-0.9,0.4H565.1z M574.3,199.6c0-0.6-0.1-1.2-0.3-1.8c-0.2-0.6-0.4-1-0.8-1.5
			s-0.8-0.7-1.3-1s-1.2-0.4-1.9-0.4c-1.4,0-2.5,0.4-3.3,1.2c-0.8,0.8-1.3,1.9-1.5,3.4H574.3z"/>
		<path class="st25" d="M599.7,191.9l-7.9,20h-4.4l-7.9-20h4c0.4,0,0.7,0.1,0.9,0.3s0.4,0.4,0.5,0.6l3.9,10.7
			c0.2,0.6,0.4,1.2,0.5,1.8s0.3,1.2,0.4,1.8c0.1-0.6,0.3-1.2,0.4-1.8c0.2-0.6,0.3-1.2,0.6-1.8l3.9-10.7c0.1-0.3,0.3-0.5,0.5-0.6
			s0.5-0.3,0.8-0.3H599.7z"/>
		<path class="st25" d="M610.5,191.6c1.5,0,2.8,0.2,4,0.7c1.2,0.5,2.3,1.2,3.1,2c0.9,0.9,1.5,2,2,3.2c0.5,1.3,0.7,2.7,0.7,4.3
			c0,1.6-0.2,3-0.7,4.3c-0.5,1.3-1.1,2.4-2,3.3c-0.9,0.9-1.9,1.6-3.1,2.1c-1.2,0.5-2.6,0.7-4,0.7c-1.5,0-2.9-0.2-4.1-0.7
			s-2.3-1.2-3.1-2.1c-0.9-0.9-1.5-2-2-3.3s-0.7-2.7-0.7-4.3c0-1.6,0.2-3,0.7-4.3c0.5-1.3,1.1-2.3,2-3.2c0.9-0.9,1.9-1.6,3.1-2
			C607.6,191.8,609,191.6,610.5,191.6z M612.6,185.4c0.4,0,0.7-0.1,0.9-0.3s0.3-0.6,0.3-1.2h2.9c0,0.7-0.1,1.4-0.3,2
			s-0.5,1.1-0.8,1.5s-0.8,0.7-1.3,1c-0.5,0.2-1,0.3-1.6,0.3c-0.5,0-0.9-0.1-1.3-0.3c-0.4-0.2-0.8-0.4-1.1-0.5
			c-0.4-0.2-0.7-0.4-1-0.5s-0.6-0.3-0.8-0.3c-0.4,0-0.7,0.1-0.9,0.3c-0.2,0.2-0.3,0.6-0.3,1.2h-3c0-0.7,0.1-1.4,0.3-2
			c0.2-0.6,0.5-1.1,0.8-1.5c0.4-0.4,0.8-0.8,1.3-1c0.5-0.2,1-0.3,1.6-0.3c0.5,0,0.9,0.1,1.3,0.3c0.4,0.2,0.8,0.4,1.1,0.5
			s0.7,0.4,1,0.5C612,185.3,612.3,185.4,612.6,185.4z M610.5,208.5c1.7,0,2.9-0.6,3.7-1.7c0.8-1.1,1.2-2.8,1.2-4.9
			c0-2.2-0.4-3.8-1.2-4.9c-0.8-1.1-2-1.7-3.7-1.7c-1.7,0-2.9,0.6-3.8,1.7s-1.2,2.8-1.2,4.9c0,2.1,0.4,3.8,1.2,4.9
			S608.8,208.5,610.5,208.5z"/>
		<path class="st25" d="M630.3,212.2c-1.7,0-3.1-0.5-4-1.5c-0.9-1-1.4-2.3-1.4-4.1v-11.2h-2c-0.3,0-0.5-0.1-0.7-0.3
			c-0.2-0.2-0.3-0.4-0.3-0.8v-1.9l3.2-0.5l1-5.5c0.1-0.3,0.2-0.5,0.4-0.6c0.2-0.1,0.4-0.2,0.7-0.2h2.5v6.3h8.3l1-5.5
			c0.1-0.3,0.2-0.5,0.4-0.6s0.4-0.2,0.7-0.2h2.5v6.3h5.3v3.4h-5.3v10.8c0,0.6,0.2,1.1,0.5,1.5c0.3,0.3,0.7,0.5,1.3,0.5
			c0.3,0,0.5,0,0.7-0.1c0.2-0.1,0.4-0.1,0.5-0.2c0.1-0.1,0.3-0.2,0.4-0.2c0.1-0.1,0.2-0.1,0.4-0.1c0.1,0,0.3,0,0.4,0.1
			c0.1,0.1,0.2,0.2,0.3,0.3l1.4,2.3c-0.7,0.6-1.5,1-2.4,1.3c-0.9,0.3-1.9,0.4-2.8,0.4c-1.7,0-3.1-0.5-4-1.5s-1.4-2.3-1.4-4.1v-11.2
			h-8.1v10.8c0,0.6,0.2,1.1,0.5,1.5c0.3,0.3,0.7,0.5,1.3,0.5c0.3,0,0.5,0,0.8-0.1c0.2-0.1,0.4-0.1,0.5-0.2c0.1-0.1,0.3-0.2,0.4-0.2
			c0.1-0.1,0.2-0.1,0.4-0.1c0.1,0,0.3,0,0.4,0.1c0.1,0.1,0.2,0.2,0.3,0.3l1.4,2.3c-0.7,0.6-1.5,1-2.4,1.3
			C632.2,212.1,631.3,212.2,630.3,212.2z"/>
		<path class="st25" d="M654.6,202.5c0.1,1,0.3,1.9,0.5,2.7c0.3,0.7,0.7,1.4,1.1,1.9c0.5,0.5,1,0.8,1.7,1.1c0.6,0.2,1.4,0.4,2.1,0.4
			c0.8,0,1.5-0.1,2-0.3c0.6-0.2,1.1-0.4,1.5-0.6c0.4-0.2,0.8-0.4,1.1-0.6c0.3-0.2,0.6-0.3,0.9-0.3c0.4,0,0.7,0.2,0.9,0.4l1.4,1.8
			c-0.5,0.6-1.1,1.1-1.8,1.6c-0.7,0.4-1.4,0.8-2.1,1c-0.7,0.3-1.5,0.4-2.2,0.5c-0.7,0.1-1.5,0.2-2.2,0.2c-1.4,0-2.7-0.2-3.9-0.7
			s-2.2-1.1-3.1-2c-0.9-0.9-1.6-2-2.1-3.4c-0.5-1.3-0.8-2.9-0.8-4.6c0-1.4,0.2-2.6,0.7-3.8c0.4-1.2,1.1-2.2,1.9-3.1s1.8-1.6,3-2.1
			c1.2-0.5,2.5-0.8,4-0.8c1.3,0,2.4,0.2,3.5,0.6c1.1,0.4,2,1,2.7,1.8c0.8,0.8,1.4,1.7,1.8,2.8c0.4,1.1,0.7,2.4,0.7,3.8
			c0,0.7-0.1,1.2-0.2,1.5c-0.2,0.3-0.5,0.4-0.9,0.4H654.6z M663.7,199.6c0-0.6-0.1-1.2-0.3-1.8c-0.2-0.6-0.4-1-0.8-1.5
			s-0.8-0.7-1.3-1s-1.2-0.4-1.9-0.4c-1.4,0-2.5,0.4-3.3,1.2c-0.8,0.8-1.3,1.9-1.5,3.4H663.7z"/>
		<path class="st25" d="M685.6,194.4c0.4-0.4,0.8-0.8,1.3-1.1c0.4-0.3,0.9-0.6,1.4-0.9c0.5-0.2,1-0.4,1.6-0.6s1.2-0.2,1.9-0.2
			c1.1,0,2.1,0.2,2.9,0.6s1.5,0.9,2.1,1.6s1,1.5,1.3,2.4c0.3,0.9,0.4,2,0.4,3.1v12.7h-4.8v-12.7c0-1.2-0.3-2.2-0.8-2.8
			c-0.6-0.7-1.4-1-2.6-1c-0.8,0-1.6,0.2-2.3,0.6c-0.7,0.4-1.4,0.9-2.1,1.5v14.5h-4.8v-20h2.9c0.6,0,1,0.3,1.2,0.9L685.6,194.4z"/>
		<path class="st25" d="M708.8,186.1c0,0.4-0.1,0.8-0.3,1.2c-0.2,0.4-0.4,0.7-0.7,1c-0.3,0.3-0.6,0.5-1,0.7s-0.8,0.2-1.2,0.2
			c-0.4,0-0.8-0.1-1.2-0.2s-0.7-0.4-1-0.7c-0.3-0.3-0.5-0.6-0.7-1c-0.2-0.4-0.2-0.8-0.2-1.2c0-0.4,0.1-0.8,0.2-1.2
			c0.2-0.4,0.4-0.7,0.7-1c0.3-0.3,0.6-0.5,1-0.7c0.4-0.2,0.8-0.2,1.2-0.2c0.4,0,0.8,0.1,1.2,0.2c0.4,0.2,0.7,0.4,1,0.7
			s0.5,0.6,0.7,1C708.7,185.3,708.8,185.7,708.8,186.1z M708.1,191.9v20h-4.8v-20H708.1z"/>
		<path class="st25" d="M713,211.9v-20h2.9c0.6,0,1,0.3,1.2,0.9l0.3,1.5c0.4-0.4,0.7-0.7,1.1-1.1c0.4-0.3,0.8-0.6,1.2-0.8
			c0.4-0.2,0.9-0.4,1.4-0.6s1-0.2,1.6-0.2c1.3,0,2.3,0.3,3.1,1s1.4,1.6,1.8,2.7c0.3-0.7,0.7-1.2,1.2-1.7c0.5-0.5,1-0.9,1.5-1.2
			s1.2-0.5,1.8-0.7s1.3-0.2,1.9-0.2c1.1,0,2.1,0.2,2.9,0.5c0.9,0.3,1.6,0.8,2.2,1.5c0.6,0.6,1,1.4,1.3,2.4c0.3,0.9,0.5,2,0.5,3.2
			v12.7h-4.8v-12.7c0-1.3-0.3-2.2-0.8-2.9s-1.4-1-2.5-1c-0.5,0-1,0.1-1.4,0.3c-0.4,0.2-0.8,0.4-1.1,0.7s-0.6,0.7-0.8,1.2
			s-0.3,1-0.3,1.7v12.7h-4.8v-12.7c0-1.3-0.3-2.3-0.8-2.9c-0.5-0.6-1.3-0.9-2.4-0.9c-0.7,0-1.4,0.2-2,0.5c-0.6,0.3-1.2,0.8-1.7,1.4
			v14.6H713z"/>
		<path class="st25" d="M751.3,186.1c0,0.4-0.1,0.8-0.3,1.2s-0.4,0.7-0.7,1c-0.3,0.3-0.6,0.5-1,0.7c-0.4,0.2-0.8,0.2-1.2,0.2
			c-0.4,0-0.8-0.1-1.2-0.2s-0.7-0.4-1-0.7c-0.3-0.3-0.5-0.6-0.7-1s-0.2-0.8-0.2-1.2c0-0.4,0.1-0.8,0.2-1.2c0.2-0.4,0.4-0.7,0.7-1
			c0.3-0.3,0.6-0.5,1-0.7c0.4-0.2,0.8-0.2,1.2-0.2c0.4,0,0.8,0.1,1.2,0.2c0.4,0.2,0.7,0.4,1,0.7s0.5,0.6,0.7,1
			C751.2,185.3,751.3,185.7,751.3,186.1z M750.6,191.9v20h-4.8v-20H750.6z"/>
	</g>
	<g class="st111">
		<path class="st25" d="M536.7,510.1l0,4.3h-22.1v-35.6h22.1v4.3h-16.8v11.3h13.5v4.1h-13.5v11.6H536.7z"/>
		<path class="st25" d="M561.7,510.8c-0.6,0.7-1.3,1.3-2.1,1.8c-0.8,0.5-1.6,0.9-2.5,1.2c-0.9,0.3-1.8,0.5-2.7,0.7
			c-0.9,0.1-1.9,0.2-2.8,0.2c-1.7,0-3.3-0.3-4.8-0.9c-1.5-0.6-2.8-1.4-3.8-2.6c-1.1-1.1-1.9-2.5-2.5-4.2c-0.6-1.7-0.9-3.6-0.9-5.8
			c0-1.8,0.3-3.4,0.8-4.9c0.5-1.5,1.3-2.8,2.3-4s2.3-2,3.7-2.7c1.5-0.6,3.1-1,5-1c1.5,0,3,0.3,4.3,0.8c1.3,0.5,2.4,1.2,3.4,2.2
			c0.9,1,1.7,2.1,2.2,3.5c0.5,1.4,0.8,3,0.8,4.8c0,0.7-0.1,1.2-0.2,1.5c-0.2,0.3-0.5,0.4-0.9,0.4h-16.5c0,1.5,0.3,2.8,0.6,3.9
			c0.4,1.1,0.9,2,1.6,2.8c0.7,0.7,1.5,1.3,2.4,1.7s2,0.5,3.1,0.5c1.1,0,2-0.1,2.8-0.4c0.8-0.2,1.5-0.5,2-0.8s1.1-0.6,1.4-0.8
			c0.4-0.2,0.7-0.4,1-0.4c0.4,0,0.7,0.1,0.9,0.4L561.7,510.8z M557.7,499c0-1-0.1-1.8-0.4-2.7c-0.3-0.8-0.7-1.5-1.2-2.1
			c-0.5-0.6-1.2-1.1-1.9-1.4c-0.8-0.3-1.6-0.5-2.6-0.5c-2,0-3.6,0.6-4.8,1.8c-1.2,1.2-1.9,2.8-2.2,4.9H557.7z"/>
		<path class="st25" d="M582.2,493.6c-0.1,0.2-0.3,0.4-0.4,0.5s-0.3,0.1-0.6,0.1c-0.3,0-0.6-0.1-0.9-0.3c-0.3-0.2-0.7-0.4-1.2-0.6
			s-1-0.4-1.6-0.6c-0.6-0.2-1.3-0.3-2.2-0.3c-0.7,0-1.3,0.1-1.9,0.3c-0.6,0.2-1.1,0.4-1.5,0.7c-0.4,0.3-0.7,0.7-0.9,1.1
			s-0.3,0.9-0.3,1.4c0,0.6,0.2,1.2,0.6,1.6c0.4,0.4,0.9,0.8,1.5,1.1s1.3,0.6,2.1,0.8c0.8,0.2,1.6,0.5,2.4,0.8
			c0.8,0.3,1.6,0.6,2.4,0.9c0.8,0.3,1.5,0.8,2.1,1.3c0.6,0.5,1.1,1.1,1.5,1.8c0.4,0.7,0.6,1.6,0.6,2.6c0,1.2-0.2,2.3-0.6,3.3
			c-0.4,1-1,1.9-1.9,2.6c-0.8,0.7-1.8,1.3-3,1.7c-1.2,0.4-2.6,0.6-4.1,0.6c-1.7,0-3.3-0.3-4.8-0.9c-1.5-0.6-2.7-1.3-3.7-2.2l1.1-1.9
			c0.1-0.2,0.3-0.4,0.5-0.5s0.5-0.2,0.8-0.2c0.3,0,0.6,0.1,1,0.3c0.3,0.2,0.7,0.5,1.2,0.8c0.5,0.3,1,0.5,1.7,0.7
			c0.7,0.2,1.5,0.3,2.5,0.3c0.8,0,1.5-0.1,2.2-0.3c0.6-0.2,1.1-0.5,1.5-0.8c0.4-0.4,0.7-0.8,0.9-1.2s0.3-1,0.3-1.5
			c0-0.7-0.2-1.2-0.6-1.7c-0.4-0.4-0.9-0.8-1.5-1.1s-1.3-0.6-2.1-0.8c-0.8-0.2-1.6-0.5-2.4-0.7c-0.8-0.3-1.6-0.6-2.4-0.9
			c-0.8-0.3-1.5-0.8-2.1-1.3s-1.1-1.2-1.5-1.9c-0.4-0.8-0.6-1.7-0.6-2.8c0-1,0.2-1.9,0.6-2.8c0.4-0.9,1-1.7,1.8-2.4
			c0.8-0.7,1.7-1.2,2.9-1.6c1.1-0.4,2.4-0.6,3.9-0.6c1.7,0,3.2,0.3,4.5,0.8c1.3,0.5,2.5,1.3,3.5,2.2L582.2,493.6z"/>
		<path class="st25" d="M588.5,497.5h12.4v4.1h-12.4V497.5z"/>
		<path class="st25" d="M624.9,489.2V516c0,1-0.1,2-0.4,2.9c-0.3,0.9-0.7,1.7-1.3,2.4c-0.6,0.7-1.3,1.2-2.3,1.6
			c-0.9,0.4-2.1,0.6-3.4,0.6c-0.5,0-1,0-1.5-0.1c-0.5-0.1-0.9-0.2-1.4-0.3l0.2-2.6c0.1-0.3,0.2-0.5,0.4-0.5c0.2,0,0.6,0,1.3,0
			c1.3,0,2.2-0.3,2.7-0.9c0.5-0.6,0.8-1.5,0.8-2.9v-26.8H624.9z M625.9,481.4c0,0.4-0.1,0.9-0.3,1.3s-0.4,0.8-0.7,1.1
			c-0.3,0.3-0.7,0.5-1.1,0.7c-0.4,0.2-0.8,0.3-1.3,0.3c-0.4,0-0.9-0.1-1.3-0.3c-0.4-0.2-0.7-0.4-1.1-0.7c-0.3-0.3-0.5-0.7-0.7-1.1
			s-0.3-0.8-0.3-1.3c0-0.5,0.1-0.9,0.3-1.3s0.4-0.8,0.7-1.1c0.3-0.3,0.7-0.5,1.1-0.7c0.4-0.2,0.8-0.3,1.3-0.3c0.5,0,0.9,0.1,1.3,0.3
			c0.4,0.2,0.8,0.4,1.1,0.7c0.3,0.3,0.6,0.7,0.7,1.1S625.9,481,625.9,481.4z"/>
		<path class="st25" d="M631.3,492.7c1.4-1.3,2.9-2.3,4.6-3c1.6-0.7,3.5-1,5.4-1c1.4,0,2.7,0.2,3.8,0.7c1.1,0.5,2,1.1,2.8,2
			c0.8,0.8,1.3,1.9,1.7,3c0.4,1.2,0.6,2.5,0.6,3.9v16.1h-2.2c-0.5,0-0.8-0.1-1.1-0.2c-0.2-0.2-0.4-0.5-0.6-0.9l-0.5-2.2
			c-0.6,0.6-1.3,1.1-1.9,1.6c-0.6,0.5-1.3,0.8-2,1.2c-0.7,0.3-1.4,0.6-2.2,0.7c-0.8,0.2-1.6,0.2-2.6,0.2c-1,0-1.9-0.1-2.8-0.4
			c-0.9-0.3-1.6-0.7-2.3-1.3c-0.6-0.6-1.2-1.3-1.5-2.1c-0.4-0.8-0.6-1.8-0.6-3c0-1,0.3-1.9,0.8-2.9s1.4-1.7,2.6-2.5
			c1.2-0.7,2.8-1.3,4.8-1.8c2-0.5,4.4-0.7,7.2-0.8v-1.8c0-1.9-0.4-3.3-1.2-4.3c-0.8-0.9-2-1.4-3.6-1.4c-1.1,0-1.9,0.1-2.7,0.4
			c-0.7,0.3-1.3,0.6-1.9,0.9c-0.5,0.3-1,0.6-1.4,0.9s-0.8,0.4-1.2,0.4c-0.3,0-0.6-0.1-0.9-0.3s-0.4-0.4-0.6-0.6L631.3,492.7z
			 M645.5,503.2c-2,0.1-3.6,0.2-5,0.5c-1.4,0.2-2.5,0.6-3.4,1c-0.9,0.4-1.5,0.9-1.9,1.4c-0.4,0.5-0.6,1.1-0.6,1.8
			c0,0.6,0.1,1.2,0.3,1.6c0.2,0.5,0.5,0.8,0.8,1.1c0.4,0.3,0.8,0.5,1.3,0.6c0.5,0.1,1,0.2,1.6,0.2c0.7,0,1.4-0.1,2-0.2
			c0.6-0.1,1.2-0.4,1.8-0.6c0.5-0.3,1.1-0.6,1.6-1c0.5-0.4,1-0.9,1.5-1.4V503.2z"/>
		<path class="st25" d="M673.9,493c0.5-0.6,1.1-1.2,1.7-1.7c0.6-0.5,1.3-1,1.9-1.3c0.7-0.4,1.4-0.7,2.2-0.9c0.8-0.2,1.6-0.3,2.5-0.3
			c1.4,0,2.7,0.3,3.9,0.8c1.2,0.6,2.2,1.4,3,2.5c0.8,1.1,1.5,2.4,1.9,4c0.5,1.6,0.7,3.5,0.7,5.5c0,1.9-0.3,3.6-0.8,5.2
			c-0.5,1.6-1.2,3-2.2,4.2c-0.9,1.2-2.1,2.1-3.4,2.8c-1.3,0.7-2.9,1-4.6,1c-1.5,0-2.8-0.2-3.9-0.7c-1.1-0.5-2-1.2-2.9-2.1v10.9h-4.8
			v-33.7h2.9c0.7,0,1.1,0.3,1.3,1L673.9,493z M674.1,508.2c0.8,1,1.7,1.8,2.6,2.2c0.9,0.4,1.9,0.6,3.1,0.6c2.2,0,3.9-0.8,5.1-2.4
			c1.2-1.6,1.8-3.9,1.8-7c0-1.6-0.1-3-0.4-4.1c-0.3-1.1-0.7-2.1-1.2-2.8c-0.5-0.7-1.2-1.2-1.9-1.6c-0.8-0.3-1.6-0.5-2.6-0.5
			c-1.4,0-2.6,0.3-3.7,0.9c-1,0.6-2,1.5-2.9,2.7V508.2z"/>
		<path class="st25" d="M717.9,510.8c-0.6,0.7-1.3,1.3-2.1,1.8c-0.8,0.5-1.6,0.9-2.5,1.2c-0.9,0.3-1.8,0.5-2.7,0.7
			c-0.9,0.1-1.9,0.2-2.8,0.2c-1.7,0-3.3-0.3-4.8-0.9c-1.5-0.6-2.8-1.4-3.8-2.6c-1.1-1.1-1.9-2.5-2.5-4.2c-0.6-1.7-0.9-3.6-0.9-5.8
			c0-1.8,0.3-3.4,0.8-4.9c0.5-1.5,1.3-2.8,2.3-4s2.3-2,3.7-2.7c1.5-0.6,3.1-1,5-1c1.5,0,3,0.3,4.3,0.8c1.3,0.5,2.4,1.2,3.4,2.2
			c0.9,1,1.7,2.1,2.2,3.5c0.5,1.4,0.8,3,0.8,4.8c0,0.7-0.1,1.2-0.2,1.5c-0.2,0.3-0.5,0.4-0.9,0.4h-16.5c0,1.5,0.3,2.8,0.6,3.9
			c0.4,1.1,0.9,2,1.6,2.8c0.7,0.7,1.5,1.3,2.4,1.7s2,0.5,3.1,0.5c1.1,0,2-0.1,2.8-0.4c0.8-0.2,1.5-0.5,2-0.8s1.1-0.6,1.4-0.8
			c0.4-0.2,0.7-0.4,1-0.4c0.4,0,0.7,0.1,0.9,0.4L717.9,510.8z M713.9,499c0-1-0.1-1.8-0.4-2.7c-0.3-0.8-0.7-1.5-1.2-2.1
			c-0.5-0.6-1.2-1.1-1.9-1.4c-0.8-0.3-1.6-0.5-2.6-0.5c-2,0-3.6,0.6-4.8,1.8c-1.2,1.2-1.9,2.8-2.2,4.9H713.9z"/>
		<path class="st25" d="M728.1,494.1c0.8-1.7,1.8-3,2.9-3.9s2.5-1.4,4.1-1.4c0.5,0,1.1,0.1,1.6,0.2s0.9,0.3,1.3,0.6l-0.3,3.6
			c-0.1,0.4-0.4,0.7-0.8,0.7c-0.2,0-0.6,0-1-0.1c-0.5-0.1-1-0.1-1.5-0.1c-0.8,0-1.5,0.1-2.1,0.3c-0.6,0.2-1.1,0.6-1.6,1
			s-0.9,1-1.3,1.6c-0.4,0.6-0.7,1.4-1,2.2v15.8h-4.8v-25.2h2.8c0.5,0,0.9,0.1,1.1,0.3c0.2,0.2,0.3,0.5,0.4,1L728.1,494.1z"/>
		<path class="st25" d="M761.4,510.8c-0.6,0.7-1.3,1.3-2.1,1.8c-0.8,0.5-1.6,0.9-2.5,1.2c-0.9,0.3-1.8,0.5-2.7,0.7
			c-0.9,0.1-1.9,0.2-2.8,0.2c-1.7,0-3.3-0.3-4.8-0.9c-1.5-0.6-2.8-1.4-3.8-2.6c-1.1-1.1-1.9-2.5-2.5-4.2c-0.6-1.7-0.9-3.6-0.9-5.8
			c0-1.8,0.3-3.4,0.8-4.9c0.5-1.5,1.3-2.8,2.3-4s2.3-2,3.7-2.7c1.5-0.6,3.1-1,5-1c1.5,0,3,0.3,4.3,0.8s2.4,1.2,3.4,2.2
			s1.7,2.1,2.2,3.5c0.5,1.4,0.8,3,0.8,4.8c0,0.7-0.1,1.2-0.2,1.5s-0.5,0.4-0.9,0.4h-16.5c0,1.5,0.3,2.8,0.6,3.9
			c0.4,1.1,0.9,2,1.6,2.8c0.7,0.7,1.5,1.3,2.4,1.7s2,0.5,3.1,0.5c1.1,0,2-0.1,2.8-0.4s1.5-0.5,2-0.8c0.6-0.3,1.1-0.6,1.4-0.8
			s0.7-0.4,1-0.4c0.4,0,0.7,0.1,0.9,0.4L761.4,510.8z M757.4,499c0-1-0.1-1.8-0.4-2.7c-0.3-0.8-0.7-1.5-1.2-2.1
			c-0.5-0.6-1.2-1.1-1.9-1.4s-1.6-0.5-2.6-0.5c-2,0-3.6,0.6-4.8,1.8c-1.2,1.2-1.9,2.8-2.2,4.9H757.4z"/>
		<path class="st25" d="M771.9,477.8v21.4h1.1c0.3,0,0.6,0,0.9-0.1c0.2-0.1,0.5-0.3,0.7-0.6l7.5-8.3c0.2-0.3,0.5-0.5,0.8-0.7
			s0.6-0.2,1.1-0.2h4.4l-8.9,9.8c-0.5,0.6-1,1.1-1.5,1.4c0.3,0.2,0.6,0.5,0.8,0.7c0.2,0.3,0.5,0.6,0.7,0.9l9.5,12.4h-4.3
			c-0.4,0-0.7-0.1-1-0.2c-0.3-0.1-0.6-0.4-0.8-0.7l-7.8-10.1c-0.2-0.4-0.5-0.6-0.7-0.7s-0.6-0.2-1.1-0.2h-1.3v11.9H767v-36.6H771.9z
			"/>
		<path class="st25" d="M801.9,488.8c1.9,0,3.5,0.3,5,0.9c1.5,0.6,2.8,1.5,3.8,2.6c1.1,1.1,1.9,2.5,2.4,4.1s0.8,3.4,0.8,5.4
			s-0.3,3.8-0.8,5.4c-0.6,1.6-1.4,3-2.4,4.1c-1.1,1.1-2.3,2-3.8,2.6c-1.5,0.6-3.2,0.9-5,0.9c-1.9,0-3.6-0.3-5.1-0.9
			c-1.5-0.6-2.8-1.5-3.8-2.6c-1.1-1.1-1.9-2.5-2.4-4.1c-0.6-1.6-0.9-3.4-0.9-5.4s0.3-3.8,0.9-5.4c0.6-1.6,1.4-3,2.4-4.1
			c1.1-1.1,2.3-2,3.8-2.6C798.4,489.1,800,488.8,801.9,488.8z M801.9,511c2.4,0,4.2-0.8,5.3-2.4c1.2-1.6,1.8-3.9,1.8-6.8
			s-0.6-5.2-1.8-6.8s-3-2.4-5.3-2.4c-2.4,0-4.2,0.8-5.4,2.4c-1.2,1.6-1.8,3.9-1.8,6.8s0.6,5.2,1.8,6.8
			C797.7,510.2,799.5,511,801.9,511z"/>
		<path class="st25" d="M824,492.7c0.5-0.6,1.1-1.1,1.7-1.6c0.6-0.5,1.2-0.9,1.9-1.2c0.7-0.3,1.4-0.6,2.2-0.8
			c0.8-0.2,1.6-0.3,2.5-0.3c1.4,0,2.6,0.2,3.7,0.7c1,0.5,1.9,1.1,2.6,1.9c0.7,0.8,1.2,1.8,1.6,3s0.5,2.5,0.5,3.9v16.1h-4.9v-16.1
			c0-1.8-0.4-3.2-1.2-4.2c-0.8-1-2.1-1.5-3.8-1.5c-1.2,0-2.4,0.3-3.5,0.9c-1.1,0.6-2.1,1.4-3,2.4v18.5h-4.8v-25.2h2.9
			c0.7,0,1.1,0.3,1.3,1L824,492.7z"/>
		<path class="st25" d="M851.7,492.7c0.5-0.6,1.1-1.1,1.7-1.6c0.6-0.5,1.2-0.9,1.9-1.2c0.7-0.3,1.4-0.6,2.2-0.8
			c0.8-0.2,1.6-0.3,2.5-0.3c1.4,0,2.6,0.2,3.7,0.7c1,0.5,1.9,1.1,2.6,1.9c0.7,0.8,1.2,1.8,1.6,3s0.5,2.5,0.5,3.9v16.1h-4.9v-16.1
			c0-1.8-0.4-3.2-1.2-4.2c-0.8-1-2.1-1.5-3.8-1.5c-1.2,0-2.4,0.3-3.5,0.9c-1.1,0.6-2.1,1.4-3,2.4v18.5h-4.8v-25.2h2.9
			c0.7,0,1.1,0.3,1.3,1L851.7,492.7z"/>
		<path class="st25" d="M874.3,492.7c1.4-1.3,2.9-2.3,4.6-3s3.5-1,5.4-1c1.4,0,2.7,0.2,3.8,0.7c1.1,0.5,2,1.1,2.8,2
			c0.8,0.8,1.3,1.9,1.7,3s0.6,2.5,0.6,3.9v16.1h-2.2c-0.5,0-0.8-0.1-1.1-0.2s-0.4-0.5-0.6-0.9l-0.5-2.2c-0.6,0.6-1.3,1.1-1.9,1.6
			c-0.6,0.5-1.3,0.8-2,1.2c-0.7,0.3-1.4,0.6-2.2,0.7c-0.8,0.2-1.6,0.2-2.6,0.2c-1,0-1.9-0.1-2.8-0.4c-0.9-0.3-1.6-0.7-2.3-1.3
			s-1.2-1.3-1.5-2.1s-0.6-1.8-0.6-3c0-1,0.3-1.9,0.8-2.9s1.4-1.7,2.6-2.5c1.2-0.7,2.8-1.3,4.8-1.8c2-0.5,4.4-0.7,7.2-0.8v-1.8
			c0-1.9-0.4-3.3-1.2-4.3c-0.8-0.9-2-1.4-3.6-1.4c-1.1,0-1.9,0.1-2.7,0.4c-0.7,0.3-1.3,0.6-1.9,0.9c-0.5,0.3-1,0.6-1.4,0.9
			s-0.8,0.4-1.2,0.4c-0.3,0-0.6-0.1-0.9-0.3c-0.2-0.2-0.4-0.4-0.6-0.6L874.3,492.7z M888.5,503.2c-2,0.1-3.6,0.2-5,0.5
			c-1.4,0.2-2.5,0.6-3.4,1c-0.9,0.4-1.5,0.9-1.9,1.4c-0.4,0.5-0.6,1.1-0.6,1.8c0,0.6,0.1,1.2,0.3,1.6s0.5,0.8,0.8,1.1
			c0.4,0.3,0.8,0.5,1.3,0.6c0.5,0.1,1,0.2,1.6,0.2c0.7,0,1.4-0.1,2-0.2c0.6-0.1,1.2-0.4,1.7-0.6c0.5-0.3,1.1-0.6,1.6-1
			c0.5-0.4,1-0.9,1.5-1.4V503.2z"/>
		<path class="st25" d="M904.3,492.7c0.5-0.6,1.1-1.1,1.7-1.6c0.6-0.5,1.2-0.9,1.9-1.2c0.7-0.3,1.4-0.6,2.2-0.8
			c0.8-0.2,1.6-0.3,2.5-0.3c1.4,0,2.6,0.2,3.7,0.7c1,0.5,1.9,1.1,2.6,1.9c0.7,0.8,1.2,1.8,1.6,3s0.5,2.5,0.5,3.9v16.1h-4.9v-16.1
			c0-1.8-0.4-3.2-1.2-4.2c-0.8-1-2.1-1.5-3.8-1.5c-1.2,0-2.4,0.3-3.5,0.9c-1.1,0.6-2.1,1.4-3,2.4v18.5h-4.8v-25.2h2.9
			c0.7,0,1.1,0.3,1.3,1L904.3,492.7z"/>
		<path class="st25" d="M933.5,481.4c0,0.4-0.1,0.9-0.3,1.3c-0.2,0.4-0.4,0.8-0.7,1.1c-0.3,0.3-0.7,0.5-1.1,0.7
			c-0.4,0.2-0.8,0.3-1.3,0.3c-0.4,0-0.9-0.1-1.3-0.3s-0.7-0.4-1.1-0.7c-0.3-0.3-0.5-0.7-0.7-1.1s-0.3-0.8-0.3-1.3
			c0-0.5,0.1-0.9,0.3-1.3s0.4-0.8,0.7-1.1c0.3-0.3,0.7-0.5,1.1-0.7s0.8-0.3,1.3-0.3c0.4,0,0.9,0.1,1.3,0.3c0.4,0.2,0.8,0.4,1.1,0.7
			c0.3,0.3,0.5,0.7,0.7,1.1C933.4,480.5,933.5,481,933.5,481.4z M932.6,489.2v25.2h-4.8v-25.2H932.6z"/>
		<path class="st25" d="M939.6,514.4v-25.2h2.9c0.7,0,1.1,0.3,1.3,1l0.3,2.4c0.9-1.1,2-2,3.1-2.7s2.5-1.1,4-1.1c1.7,0,3,0.5,4.1,1.4
			c1,0.9,1.8,2.2,2.3,3.7c0.4-0.9,0.8-1.7,1.4-2.3c0.6-0.6,1.2-1.2,1.9-1.6c0.7-0.4,1.5-0.7,2.3-0.9c0.8-0.2,1.6-0.3,2.4-0.3
			c1.3,0,2.5,0.2,3.6,0.6s1.9,1,2.7,1.8s1.3,1.8,1.7,3s0.6,2.5,0.6,4.1v16.1h-4.9v-16.1c0-1.9-0.4-3.3-1.2-4.3c-0.8-1-2-1.4-3.6-1.4
			c-0.7,0-1.4,0.1-2,0.4c-0.6,0.2-1.2,0.6-1.7,1.1s-0.8,1.1-1.1,1.8c-0.3,0.7-0.4,1.5-0.4,2.5v16.1h-4.9v-16.1c0-2-0.4-3.4-1.2-4.3
			s-1.9-1.4-3.4-1.4c-1,0-2,0.3-2.9,0.8c-0.9,0.5-1.7,1.3-2.5,2.2v18.7H939.6z"/>
		<path class="st25" d="M986.6,481.4c0,0.4-0.1,0.9-0.3,1.3c-0.2,0.4-0.4,0.8-0.7,1.1c-0.3,0.3-0.7,0.5-1.1,0.7
			c-0.4,0.2-0.8,0.3-1.3,0.3c-0.4,0-0.9-0.1-1.3-0.3s-0.7-0.4-1.1-0.7c-0.3-0.3-0.5-0.7-0.7-1.1s-0.3-0.8-0.3-1.3
			c0-0.5,0.1-0.9,0.3-1.3s0.4-0.8,0.7-1.1c0.3-0.3,0.7-0.5,1.1-0.7s0.8-0.3,1.3-0.3c0.4,0,0.9,0.1,1.3,0.3c0.4,0.2,0.8,0.4,1.1,0.7
			c0.3,0.3,0.5,0.7,0.7,1.1C986.5,480.5,986.6,481,986.6,481.4z M985.7,489.2v25.2h-4.8v-25.2H985.7z"/>
	</g>
</g>
</svg>
